<svg width="25" height="15" viewBox="0 0 25 15" fill="none" xmlns="http://www.w3.org/2000/svg">
<path d="M22.9531 2H15.9531V0H22.9531V2ZM24.6791 12C24.2371 13.297 22.6501 15 19.5781 15C16.5041 15 14.0141 13.271 14.0141 9.325C14.0141 5.415 16.3391 3.405 19.4801 3.405C22.5621 3.405 24.4441 5.187 24.8551 7.831C24.9331 8.337 24.9641 9.019 24.9501 9.971H16.9231C17.0531 13.182 20.4061 13.283 21.5111 12H24.6791ZM16.9931 8H21.9581C21.8531 6.453 20.8221 5.781 19.4811 5.781C18.0151 5.781 17.2041 6.549 16.9931 8ZM7.41913 14.988H0.953125V0.0209999H7.90613C13.3821 0.102 13.4861 5.465 10.6261 6.927C14.0871 8.187 14.2031 14.988 7.41913 14.988V14.988ZM3.95312 6H7.53713C10.0451 6 10.4431 3 7.22512 3H3.95312V6ZM7.34412 9H3.95312V12.016H7.29413C10.3491 12.016 10.1621 9 7.34412 9V9Z" fill="#13103B"/>
<path d="M22.9531 2H15.9531V0H22.9531V2ZM24.6791 12C24.2371 13.297 22.6501 15 19.5781 15C16.5041 15 14.0141 13.271 14.0141 9.325C14.0141 5.415 16.3391 3.405 19.4801 3.405C22.5621 3.405 24.4441 5.187 24.8551 7.831C24.9331 8.337 24.9641 9.019 24.9501 9.971H16.9231C17.0531 13.182 20.4061 13.283 21.5111 12H24.6791ZM16.9931 8H21.9581C21.8531 6.453 20.8221 5.781 19.4811 5.781C18.0151 5.781 17.2041 6.549 16.9931 8ZM7.41913 14.988H0.953125V0.0209999H7.90613C13.3821 0.102 13.4861 5.465 10.6261 6.927C14.0871 8.187 14.2031 14.988 7.41913 14.988V14.988ZM3.95312 6H7.53713C10.0451 6 10.4431 3 7.22512 3H3.95312V6ZM7.34412 9H3.95312V12.016H7.29413C10.3491 12.016 10.1621 9 7.34412 9V9Z" fill="url(#paint0_linear_115_20449)" fill-opacity="0.5"/>
<defs>
<linearGradient id="paint0_linear_115_20449" x1="9.15946" y1="6.56944" x2="9.13632" y2="1.59641e-05" gradientUnits="userSpaceOnUse">
<stop/>
<stop offset="1" stop-opacity="0"/>
</linearGradient>
</defs>
</svg>
