<svg width="26" height="40" viewBox="0 0 26 40" fill="none" xmlns="http://www.w3.org/2000/svg">
<path d="M12.9543 0C6.81141 0 1.81425 4.63084 1.81425 10.3238C1.81425 16.0162 6.81141 20.645 12.9543 20.645C19.0969 20.645 24.0916 16.0162 24.0916 10.3238C24.0916 4.63084 19.097 0 12.9543 0ZM12.9543 6.04876C15.4966 6.04876 17.5641 7.96744 17.5641 10.3238C17.5641 12.6791 15.4967 14.5963 12.9543 14.5963C10.4114 14.5963 8.34182 12.6791 8.34182 10.3238C8.34182 7.96744 10.4114 6.04876 12.9543 6.04876ZM3.76985 20.9962C2.66769 20.9804 1.58388 21.4839 0.955159 22.4125C-0.00565591 23.8272 0.454619 25.6939 1.97747 26.5837C3.9918 27.755 6.1776 28.586 8.44436 29.065L2.2189 34.8375C0.944456 36.0192 0.945535 37.9332 2.22023 39.115C2.85914 39.7048 3.69242 40 4.52782 40C5.36236 40 6.19845 39.7044 6.83541 39.1138L12.9516 33.4425L19.0733 39.1138C20.3466 40.2952 22.4115 40.2952 23.6871 39.1138C24.9621 37.9328 24.9621 36.0168 23.6871 34.8375L17.4589 29.0663C19.7263 28.5873 21.9128 27.7558 23.9258 26.5838C25.4516 25.694 25.9126 23.8252 24.9521 22.4125C23.9905 20.9975 21.9772 20.5713 20.4502 21.4625C15.8897 24.1213 10.0134 24.1195 5.45433 21.4625C4.92953 21.1562 4.34716 21.0046 3.76985 20.9963V20.9962Z" fill="#13103B"/>
<path d="M12.9543 0C6.81141 0 1.81425 4.63084 1.81425 10.3238C1.81425 16.0162 6.81141 20.645 12.9543 20.645C19.0969 20.645 24.0916 16.0162 24.0916 10.3238C24.0916 4.63084 19.097 0 12.9543 0ZM12.9543 6.04876C15.4966 6.04876 17.5641 7.96744 17.5641 10.3238C17.5641 12.6791 15.4967 14.5963 12.9543 14.5963C10.4114 14.5963 8.34182 12.6791 8.34182 10.3238C8.34182 7.96744 10.4114 6.04876 12.9543 6.04876ZM3.76985 20.9962C2.66769 20.9804 1.58388 21.4839 0.955159 22.4125C-0.00565591 23.8272 0.454619 25.6939 1.97747 26.5837C3.9918 27.755 6.1776 28.586 8.44436 29.065L2.2189 34.8375C0.944456 36.0192 0.945535 37.9332 2.22023 39.115C2.85914 39.7048 3.69242 40 4.52782 40C5.36236 40 6.19845 39.7044 6.83541 39.1138L12.9516 33.4425L19.0733 39.1138C20.3466 40.2952 22.4115 40.2952 23.6871 39.1138C24.9621 37.9328 24.9621 36.0168 23.6871 34.8375L17.4589 29.0663C19.7263 28.5873 21.9128 27.7558 23.9258 26.5838C25.4516 25.694 25.9126 23.8252 24.9521 22.4125C23.9905 20.9975 21.9772 20.5713 20.4502 21.4625C15.8897 24.1213 10.0134 24.1195 5.45433 21.4625C4.92953 21.1562 4.34716 21.0046 3.76985 20.9963V20.9962Z" fill="url(#paint0_linear_115_20457)" fill-opacity="0.5"/>
<defs>
<linearGradient id="paint0_linear_115_20457" x1="9.00146" y1="17.5185" x2="8.84344" y2="0.0012504" gradientUnits="userSpaceOnUse">
<stop/>
<stop offset="1" stop-opacity="0"/>
</linearGradient>
</defs>
</svg>
