<svg width="25" height="14" viewBox="0 0 25 14" fill="none" xmlns="http://www.w3.org/2000/svg">
<path fill-rule="evenodd" clip-rule="evenodd" d="M24.4031 0.948C24.5691 0.402 24.4031 0 23.6081 0H20.9831C20.3151 0 20.0071 0.347 19.8401 0.73C19.8401 0.73 18.5051 3.926 16.6141 6.002C16.0021 6.604 15.7241 6.795 15.3901 6.795C15.2231 6.795 14.9721 6.604 14.9721 6.057V0.948C14.9721 0.292 14.7881 0 14.2321 0H10.1041C9.68713 0 9.43612 0.304 9.43612 0.593C9.43612 1.214 10.3821 1.358 10.4791 3.106V6.904C10.4791 7.737 10.3261 7.888 9.99212 7.888C9.10212 7.888 6.93712 4.677 5.65212 1.003C5.40312 0.288 5.15112 0 4.48012 0H1.85312C1.10312 0 0.953125 0.347 0.953125 0.73C0.953125 1.412 1.84312 4.8 5.09812 9.281C7.26813 12.341 10.3231 14 13.1061 14C14.7751 14 14.9811 13.632 14.9811 12.997V10.684C14.9811 9.947 15.1391 9.8 15.6681 9.8C16.0581 9.8 16.7251 9.992 18.2831 11.467C20.0631 13.216 20.3561 14 21.3581 14H23.9831C24.7331 14 25.1091 13.632 24.8931 12.904C24.6551 12.18 23.8051 11.129 22.6781 9.882C22.0661 9.172 21.1481 8.407 20.8691 8.024C20.4801 7.533 20.5911 7.314 20.8691 6.877C20.8691 6.877 24.0691 2.451 24.4021 0.948H24.4031Z" fill="#13103B"/>
<path fill-rule="evenodd" clip-rule="evenodd" d="M24.4031 0.948C24.5691 0.402 24.4031 0 23.6081 0H20.9831C20.3151 0 20.0071 0.347 19.8401 0.73C19.8401 0.73 18.5051 3.926 16.6141 6.002C16.0021 6.604 15.7241 6.795 15.3901 6.795C15.2231 6.795 14.9721 6.604 14.9721 6.057V0.948C14.9721 0.292 14.7881 0 14.2321 0H10.1041C9.68713 0 9.43612 0.304 9.43612 0.593C9.43612 1.214 10.3821 1.358 10.4791 3.106V6.904C10.4791 7.737 10.3261 7.888 9.99212 7.888C9.10212 7.888 6.93712 4.677 5.65212 1.003C5.40312 0.288 5.15112 0 4.48012 0H1.85312C1.10312 0 0.953125 0.347 0.953125 0.73C0.953125 1.412 1.84312 4.8 5.09812 9.281C7.26813 12.341 10.3231 14 13.1061 14C14.7751 14 14.9811 13.632 14.9811 12.997V10.684C14.9811 9.947 15.1391 9.8 15.6681 9.8C16.0581 9.8 16.7251 9.992 18.2831 11.467C20.0631 13.216 20.3561 14 21.3581 14H23.9831C24.7331 14 25.1091 13.632 24.8931 12.904C24.6551 12.18 23.8051 11.129 22.6781 9.882C22.0661 9.172 21.1481 8.407 20.8691 8.024C20.4801 7.533 20.5911 7.314 20.8691 6.877C20.8691 6.877 24.0691 2.451 24.4021 0.948H24.4031Z" fill="url(#paint0_linear_115_20453)" fill-opacity="0.5"/>
<defs>
<linearGradient id="paint0_linear_115_20453" x1="9.15955" y1="6.13148" x2="9.13938" y2="5.08665e-06" gradientUnits="userSpaceOnUse">
<stop/>
<stop offset="1" stop-opacity="0"/>
</linearGradient>
</defs>
</svg>
