<svg width="25" height="18" viewBox="0 0 25 18" fill="none" xmlns="http://www.w3.org/2000/svg">
<path d="M24.9531 2.13513C24.0705 2.49594 23.1224 2.73973 22.1257 2.84992C23.1541 2.28218 23.9236 1.38861 24.2904 0.33596C23.3241 0.865461 22.2666 1.23817 21.1638 1.43789C20.4222 0.707364 19.4399 0.22316 18.3695 0.0604525C17.299 -0.102255 16.2003 0.0656378 15.2439 0.538065C14.2874 1.01049 13.5268 1.76102 13.0801 2.67313C12.6334 3.58523 12.5256 4.60789 12.7734 5.58232C10.8156 5.49162 8.90023 5.02214 7.15176 4.20432C5.40328 3.38651 3.86073 2.23865 2.62422 0.835242C2.20143 1.5081 1.95832 2.28823 1.95832 3.11906C1.95785 3.86701 2.15749 4.60349 2.53954 5.26318C2.92158 5.92286 3.47422 6.48535 4.1484 6.90073C3.36652 6.87778 2.60189 6.68287 1.91816 6.33221V6.39072C1.91808 7.43974 2.31139 8.45648 3.03136 9.26841C3.75133 10.0803 4.75361 10.6375 5.86813 10.8453C5.1428 11.0264 4.38236 11.053 3.64422 10.9233C3.95867 11.8259 4.57119 12.6152 5.39604 13.1807C6.22088 13.7462 7.21676 14.0595 8.24424 14.0769C6.50003 15.3402 4.34594 16.0254 2.1285 16.0224C1.7357 16.0225 1.34323 16.0013 0.953125 15.959C3.20396 17.2941 5.82409 18.0027 8.50003 18C17.5584 18 22.5104 11.0783 22.5104 5.07523C22.5104 4.8802 22.5051 4.68322 22.4956 4.48819C23.4589 3.84553 24.2903 3.04973 24.951 2.13805L24.9531 2.13513Z" fill="#13103B"/>
<path d="M24.9531 2.13513C24.0705 2.49594 23.1224 2.73973 22.1257 2.84992C23.1541 2.28218 23.9236 1.38861 24.2904 0.33596C23.3241 0.865461 22.2666 1.23817 21.1638 1.43789C20.4222 0.707364 19.4399 0.22316 18.3695 0.0604525C17.299 -0.102255 16.2003 0.0656378 15.2439 0.538065C14.2874 1.01049 13.5268 1.76102 13.0801 2.67313C12.6334 3.58523 12.5256 4.60789 12.7734 5.58232C10.8156 5.49162 8.90023 5.02214 7.15176 4.20432C5.40328 3.38651 3.86073 2.23865 2.62422 0.835242C2.20143 1.5081 1.95832 2.28823 1.95832 3.11906C1.95785 3.86701 2.15749 4.60349 2.53954 5.26318C2.92158 5.92286 3.47422 6.48535 4.1484 6.90073C3.36652 6.87778 2.60189 6.68287 1.91816 6.33221V6.39072C1.91808 7.43974 2.31139 8.45648 3.03136 9.26841C3.75133 10.0803 4.75361 10.6375 5.86813 10.8453C5.1428 11.0264 4.38236 11.053 3.64422 10.9233C3.95867 11.8259 4.57119 12.6152 5.39604 13.1807C6.22088 13.7462 7.21676 14.0595 8.24424 14.0769C6.50003 15.3402 4.34594 16.0254 2.1285 16.0224C1.7357 16.0225 1.34323 16.0013 0.953125 15.959C3.20396 17.2941 5.82409 18.0027 8.50003 18C17.5584 18 22.5104 11.0783 22.5104 5.07523C22.5104 4.8802 22.5051 4.68322 22.4956 4.48819C23.4589 3.84553 24.2903 3.04973 24.951 2.13805L24.9531 2.13513Z" fill="url(#paint0_linear_115_20452)" fill-opacity="0.5"/>
<defs>
<linearGradient id="paint0_linear_115_20452" x1="9.15938" y1="7.88333" x2="9.12604" y2="6.22255e-05" gradientUnits="userSpaceOnUse">
<stop/>
<stop offset="1" stop-opacity="0"/>
</linearGradient>
</defs>
</svg>
