<svg width="25" height="16" viewBox="0 0 25 16" fill="none" xmlns="http://www.w3.org/2000/svg">
<path d="M24.4537 2.5104C24.3179 2.02593 24.0531 1.58732 23.6877 1.24119C23.312 0.884414 22.8515 0.629204 22.3497 0.499649C20.4717 0.0049557 12.9477 0.00495581 12.9477 0.00495581C9.81107 -0.0307094 6.67517 0.126155 3.55774 0.474664C3.05593 0.613791 2.59631 0.874703 2.21974 1.23419C1.84974 1.58997 1.58174 2.0287 1.44174 2.5094C1.10544 4.32002 0.942034 6.15848 0.953742 7.99999C0.941742 9.83985 1.10474 11.6777 1.44174 13.4906C1.57874 13.9693 1.84574 14.406 2.21674 14.7588C2.58774 15.1116 3.04974 15.3664 3.55774 15.5013C5.46074 15.995 12.9477 15.995 12.9477 15.995C16.0884 16.0307 19.2283 15.8739 22.3497 15.5253C22.8515 15.3958 23.312 15.1406 23.6877 14.7838C24.053 14.4377 24.3174 13.999 24.4527 13.5146C24.7978 11.7046 24.9656 9.86543 24.9537 8.02298C24.9797 6.17273 24.8121 4.32484 24.4537 2.5094V2.5104ZM10.5557 11.4219V4.57912L16.8157 8.00099L10.5557 11.4219Z" fill="#13103B"/>
<path d="M24.4537 2.5104C24.3179 2.02593 24.0531 1.58732 23.6877 1.24119C23.312 0.884414 22.8515 0.629204 22.3497 0.499649C20.4717 0.0049557 12.9477 0.00495581 12.9477 0.00495581C9.81107 -0.0307094 6.67517 0.126155 3.55774 0.474664C3.05593 0.613791 2.59631 0.874703 2.21974 1.23419C1.84974 1.58997 1.58174 2.0287 1.44174 2.5094C1.10544 4.32002 0.942034 6.15848 0.953742 7.99999C0.941742 9.83985 1.10474 11.6777 1.44174 13.4906C1.57874 13.9693 1.84574 14.406 2.21674 14.7588C2.58774 15.1116 3.04974 15.3664 3.55774 15.5013C5.46074 15.995 12.9477 15.995 12.9477 15.995C16.0884 16.0307 19.2283 15.8739 22.3497 15.5253C22.8515 15.3958 23.312 15.1406 23.6877 14.7838C24.053 14.4377 24.3174 13.999 24.4527 13.5146C24.7978 11.7046 24.9656 9.86543 24.9537 8.02298C24.9797 6.17273 24.8121 4.32484 24.4537 2.5094V2.5104ZM10.5557 11.4219V4.57912L16.8157 8.00099L10.5557 11.4219Z" fill="url(#paint0_linear_115_20454)" fill-opacity="0.5"/>
<defs>
<linearGradient id="paint0_linear_115_20454" x1="9.16048" y1="7.00741" x2="9.13415" y2="2.89908e-05" gradientUnits="userSpaceOnUse">
<stop/>
<stop offset="1" stop-opacity="0"/>
</linearGradient>
</defs>
</svg>
