<svg width="50" height="50" viewBox="0 0 50 50" fill="none" xmlns="http://www.w3.org/2000/svg">
<rect width="50" height="50" rx="25" fill="url(#paint0_linear_104_7133)"/>
<path d="M37.553 26.4177L20.2173 38.5113C20.0172 38.6508 19.7831 38.7324 19.5403 38.7475C19.2975 38.7625 19.0552 38.7103 18.8397 38.5965C18.6242 38.4828 18.4437 38.3118 18.3177 38.1021C18.1917 37.8923 18.1251 37.6519 18.125 37.4067V13.2196C18.1248 12.9744 18.1913 12.7337 18.3172 12.5238C18.443 12.3139 18.6235 12.1427 18.8391 12.0288C19.0546 11.9148 19.297 11.8625 19.5399 11.8775C19.7829 11.8925 20.0171 11.9742 20.2173 12.1137L37.553 24.2073C37.7296 24.3315 37.8738 24.4968 37.9734 24.6892C38.073 24.8817 38.125 25.0955 38.125 25.3125C38.125 25.5295 38.073 25.7433 37.9734 25.9358C37.8738 26.1282 37.7296 26.2935 37.553 26.4177Z" fill="white"/>
<defs>
<linearGradient id="paint0_linear_104_7133" x1="2.28635e-07" y1="24.8663" x2="50" y2="24.8663" gradientUnits="userSpaceOnUse">
<stop stop-color="#00C3EE"/>
<stop offset="1" stop-color="#E100E6"/>
</linearGradient>
</defs>
</svg>
