<svg width="50" height="50" viewBox="0 0 50 50" fill="none" xmlns="http://www.w3.org/2000/svg">
<rect width="50" height="50" rx="25" fill="white"/>
<path d="M12.447 26.4177L29.7827 38.5113C29.9828 38.6508 30.2169 38.7324 30.4597 38.7475C30.7025 38.7625 30.9448 38.7103 31.1603 38.5965C31.3758 38.4828 31.5563 38.3118 31.6823 38.1021C31.8083 37.8923 31.8749 37.6519 31.875 37.4067V13.2196C31.8752 12.9744 31.8087 12.7337 31.6828 12.5238C31.557 12.3139 31.3765 12.1427 31.1609 12.0288C30.9454 11.9148 30.703 11.8625 30.4601 11.8775C30.2171 11.8925 29.9829 11.9742 29.7827 12.1137L12.447 24.2073C12.2704 24.3315 12.1262 24.4968 12.0266 24.6892C11.927 24.8817 11.875 25.0955 11.875 25.3125C11.875 25.5295 11.927 25.7433 12.0266 25.9358C12.1262 26.1282 12.2704 26.2935 12.447 26.4177Z" fill="#13103B"/>
<path d="M12.447 26.4177L29.7827 38.5113C29.9828 38.6508 30.2169 38.7324 30.4597 38.7475C30.7025 38.7625 30.9448 38.7103 31.1603 38.5965C31.3758 38.4828 31.5563 38.3118 31.6823 38.1021C31.8083 37.8923 31.8749 37.6519 31.875 37.4067V13.2196C31.8752 12.9744 31.8087 12.7337 31.6828 12.5238C31.557 12.3139 31.3765 12.1427 31.1609 12.0288C30.9454 11.9148 30.703 11.8625 30.4601 11.8775C30.2171 11.8925 29.9829 11.9742 29.7827 12.1137L12.447 24.2073C12.2704 24.3315 12.1262 24.4968 12.0266 24.6892C11.927 24.8817 11.875 25.0955 11.875 25.3125C11.875 25.5295 11.927 25.7433 12.0266 25.9358C12.1262 26.1282 12.2704 26.2935 12.447 26.4177Z" fill="url(#paint0_linear_104_7131)" fill-opacity="0.5"/>
<defs>
<linearGradient id="paint0_linear_104_7131" x1="18.7135" y1="23.6453" x2="18.6244" y2="11.8756" gradientUnits="userSpaceOnUse">
<stop/>
<stop offset="1" stop-opacity="0"/>
</linearGradient>
</defs>
</svg>
