<svg width="65" height="50" viewBox="0 0 65 50" fill="none" xmlns="http://www.w3.org/2000/svg">
<path fill-rule="evenodd" clip-rule="evenodd" d="M3.97259 49.5L1.89844 0.5H65.0017L62.4056 49.3604L3.97259 49.5Z" fill="url(#paint0_linear_20_2310)"/>
<path fill-rule="evenodd" clip-rule="evenodd" d="M1.89558 0.5L0 3.39056L1.89558 49.5H3.96973L1.89558 0.5Z" fill="url(#paint1_linear_20_2310)"/>
<path d="M42.68 29.02C42.68 27.2333 42.24 25.6333 41.36 24.22C40.5067 22.78 39.3333 21.6467 37.84 20.82C36.3467 19.9667 34.6533 19.54 32.76 19.54C31.88 19.54 31.0533 19.6733 30.28 19.94C29.5067 20.18 28.8267 20.54 28.24 21.02C27.6533 21.4733 27.1733 22.02 26.8 22.66C26.8533 20.9533 27.12 19.5 27.6 18.3C28.08 17.0733 28.76 16.14 29.64 15.5C30.52 14.86 31.56 14.54 32.76 14.54C33.9333 14.54 35.0267 14.8333 36.04 15.42C37.0533 15.98 37.88 16.7533 38.52 17.74L41.6 14.38C40.56 12.94 39.28 11.8333 37.76 11.06C36.2667 10.2867 34.6267 9.9 32.84 9.9C30.6 9.9 28.6533 10.5133 27 11.74C25.3467 12.94 24.0667 14.74 23.16 17.14C22.28 19.5133 21.84 22.42 21.84 25.86C21.84 28.58 22.2667 30.9133 23.12 32.86C23.9733 34.8067 25.1733 36.3 26.72 37.34C28.2933 38.38 30.1467 38.9 32.28 38.9C34.2533 38.9 36.0133 38.46 37.56 37.58C39.1333 36.7 40.3733 35.5133 41.28 34.02C42.2133 32.5267 42.68 30.86 42.68 29.02ZM32.28 34.38C31.3733 34.38 30.52 34.14 29.72 33.66C28.92 33.1533 28.28 32.5 27.8 31.7C27.32 30.8733 27.08 29.98 27.08 29.02C27.08 28.06 27.3067 27.1933 27.76 26.42C28.24 25.62 28.88 24.9933 29.68 24.54C30.48 24.06 31.36 23.82 32.32 23.82C33.28 23.82 34.1467 24.06 34.92 24.54C35.72 24.9933 36.36 25.62 36.84 26.42C37.32 27.1933 37.56 28.06 37.56 29.02C37.56 29.98 37.32 30.8733 36.84 31.7C36.36 32.5 35.72 33.1533 34.92 33.66C34.12 34.14 33.24 34.38 32.28 34.38Z" fill="white"/>
<defs>
<linearGradient id="paint0_linear_20_2310" x1="24.1772" y1="55.0278" x2="40.9085" y2="-6.09429" gradientUnits="userSpaceOnUse">
<stop stop-color="#188DC1"/>
<stop offset="1" stop-color="#06BFE7"/>
</linearGradient>
<linearGradient id="paint1_linear_20_2310" x1="-3.71602" y1="47.9607" x2="8.76076" y2="2.38063" gradientUnits="userSpaceOnUse">
<stop stop-color="#1852A0"/>
<stop offset="1" stop-color="#067ED3"/>
</linearGradient>
</defs>
</svg>
