<svg width="65" height="49" viewBox="0 0 65 49" fill="none" xmlns="http://www.w3.org/2000/svg">
<path fill-rule="evenodd" clip-rule="evenodd" d="M3.97259 49L1.89844 0H65.0017L62.4056 48.8604L3.97259 49Z" fill="url(#paint0_linear_20_2280)"/>
<path fill-rule="evenodd" clip-rule="evenodd" d="M1.89558 0L0 2.89056L1.89558 49H3.96973L1.89558 0Z" fill="url(#paint1_linear_20_2280)"/>
<path d="M28.72 33.16V38H12.64V33.16H18.16V14.68C17.9467 15 17.5867 15.36 17.08 15.76C16.6 16.1333 16.04 16.5067 15.4 16.88C14.7867 17.2267 14.1467 17.52 13.48 17.76C12.84 18 12.2533 18.12 11.72 18.12V13.16C12.44 13.16 13.1733 12.9733 13.92 12.6C14.6667 12.2267 15.36 11.8 16 11.32C16.64 10.84 17.1467 10.4 17.52 10C17.92 9.57333 18.1333 9.34667 18.16 9.32H23.64V33.16H28.72ZM42.4894 38.28C40.9694 38.28 39.5827 38.0933 38.3294 37.72C37.1027 37.32 36.0227 36.76 35.0894 36.04C34.1827 35.2933 33.4627 34.4133 32.9294 33.4L35.8094 29.76C36.076 30.3467 36.5027 30.92 37.0894 31.48C37.676 32.04 38.4094 32.4933 39.2894 32.84C40.1694 33.1867 41.1694 33.36 42.2894 33.36C43.3827 33.36 44.3294 33.2 45.1294 32.88C45.9294 32.56 46.5427 32.12 46.9694 31.56C47.4227 30.9733 47.6494 30.2667 47.6494 29.44C47.6494 28.56 47.3694 27.8133 46.8094 27.2C46.276 26.5867 45.476 26.12 44.4094 25.8C43.3427 25.48 42.036 25.32 40.4894 25.32H39.1694V21.32H40.5694C42.4894 21.32 44.0227 20.9867 45.1694 20.32C46.3427 19.6533 46.9294 18.7067 46.9294 17.48C46.9294 16.7333 46.7294 16.0933 46.3294 15.56C45.9294 15 45.396 14.5867 44.7294 14.32C44.0627 14.0267 43.3294 13.88 42.5294 13.88C41.196 13.88 40.0094 14.2 38.9694 14.84C37.956 15.4533 37.1827 16.2533 36.6494 17.24L33.1694 13.36C33.756 12.5067 34.556 11.7867 35.5694 11.2C36.5827 10.5867 37.716 10.1067 38.9694 9.76C40.2494 9.41333 41.5694 9.24 42.9294 9.24C44.8227 9.24 46.5027 9.57333 47.9694 10.24C49.436 10.88 50.5827 11.76 51.4094 12.88C52.236 14 52.6494 15.28 52.6494 16.72C52.6494 17.7867 52.4227 18.76 51.9694 19.64C51.5427 20.52 50.9294 21.2533 50.1294 21.84C49.3294 22.4267 48.3827 22.8533 47.2894 23.12C48.4627 23.3067 49.4894 23.7467 50.3694 24.44C51.276 25.1067 51.9694 25.96 52.4494 27C52.956 28.0133 53.2094 29.12 53.2094 30.32C53.2094 32 52.7294 33.4267 51.7694 34.6C50.836 35.7733 49.556 36.68 47.9294 37.32C46.3294 37.96 44.516 38.28 42.4894 38.28Z" fill="white"/>
<defs>
<linearGradient id="paint0_linear_20_2280" x1="24.1772" y1="54.5278" x2="40.9085" y2="-6.59429" gradientUnits="userSpaceOnUse">
<stop stop-color="#188DC1"/>
<stop offset="1" stop-color="#06BFE7"/>
</linearGradient>
<linearGradient id="paint1_linear_20_2280" x1="-3.71602" y1="47.4607" x2="8.76076" y2="1.88063" gradientUnits="userSpaceOnUse">
<stop stop-color="#1852A0"/>
<stop offset="1" stop-color="#067ED3"/>
</linearGradient>
</defs>
</svg>
