<svg width="65" height="49" viewBox="0 0 65 49" fill="none" xmlns="http://www.w3.org/2000/svg">
<path d="M0 1.513L0 48.5222L60.2522 49L61.0772 0L0 1.513Z" fill="url(#paint0_linear_20_2276)"/>
<path d="M61.075 0L65.0007 6.18473L63.0378 48.9735L60.25 49L61.075 0Z" fill="url(#paint1_linear_20_2276)"/>
<path d="M39.72 33.16V38H23.64V33.16H29.16V14.68C28.9467 15 28.5867 15.36 28.08 15.76C27.6 16.1333 27.04 16.5067 26.4 16.88C25.7867 17.2267 25.1467 17.52 24.48 17.76C23.84 18 23.2533 18.12 22.72 18.12V13.16C23.44 13.16 24.1733 12.9733 24.92 12.6C25.6667 12.2267 26.36 11.8 27 11.32C27.64 10.84 28.1467 10.4 28.52 10C28.92 9.57333 29.1333 9.34667 29.16 9.32H34.64V33.16H39.72Z" fill="white"/>
<defs>
<linearGradient id="paint0_linear_20_2276" x1="30.5292" y1="49.0058" x2="30.5292" y2="0.00318366" gradientUnits="userSpaceOnUse">
<stop stop-color="#D93DE3"/>
<stop offset="1" stop-color="#FF6DBA"/>
</linearGradient>
<linearGradient id="paint1_linear_20_2276" x1="62.6276" y1="49.0058" x2="62.6276" y2="0.00318366" gradientUnits="userSpaceOnUse">
<stop stop-color="#A242EA"/>
<stop offset="1" stop-color="#FE117E"/>
</linearGradient>
</defs>
</svg>
