<svg width="65" height="49" viewBox="0 0 65 49" fill="none" xmlns="http://www.w3.org/2000/svg">
<path d="M0 1.513L0 48.5222L60.2522 49L61.0772 0L0 1.513Z" fill="url(#paint0_linear_20_2298)"/>
<path d="M61.075 0L65.0007 6.18473L63.0378 48.9735L60.25 49L61.075 0Z" fill="url(#paint1_linear_20_2298)"/>
<path d="M19.64 38C19.64 36.3733 19.7467 34.9467 19.96 33.72C20.1733 32.4667 20.5067 31.36 20.96 30.4C21.44 29.4133 22.0533 28.5467 22.8 27.8C23.5467 27.0533 24.4667 26.3467 25.56 25.68C26.4933 25.1467 27.4533 24.6267 28.44 24.12C29.4533 23.6133 30.3867 23.08 31.24 22.52C32.12 21.96 32.8267 21.32 33.36 20.6C33.92 19.88 34.2 19 34.2 17.96C34.2 17.16 34.0267 16.48 33.68 15.92C33.36 15.3333 32.88 14.88 32.24 14.56C31.6267 14.24 30.88 14.08 30 14.08C28.9867 14.08 28.04 14.2667 27.16 14.64C26.3067 14.9867 25.5333 15.4267 24.84 15.96C24.1733 16.4667 23.6 16.9733 23.12 17.48L19.76 13.96C20.1333 13.5333 20.64 13.0533 21.28 12.52C21.9467 11.9867 22.7333 11.4667 23.64 10.96C24.5733 10.4533 25.6267 10.04 26.8 9.72C27.9733 9.4 29.2667 9.24 30.68 9.24C32.76 9.24 34.5067 9.61333 35.92 10.36C37.3333 11.08 38.4 12.08 39.12 13.36C39.8667 14.6133 40.24 16.0667 40.24 17.72C40.24 18.92 40.04 19.9867 39.64 20.92C39.2667 21.8267 38.7467 22.6267 38.08 23.32C37.4133 24.0133 36.6667 24.64 35.84 25.2C35.0133 25.7333 34.16 26.2533 33.28 26.76C31.8933 27.5067 30.7733 28.16 29.92 28.72C29.0667 29.28 28.3867 29.8 27.88 30.28C27.4 30.76 27.0267 31.24 26.76 31.72C26.52 32.1733 26.3067 32.6533 26.12 33.16H40.28V38H19.64Z" fill="white"/>
<defs>
<linearGradient id="paint0_linear_20_2298" x1="30.5292" y1="49.0058" x2="30.5292" y2="0.00318366" gradientUnits="userSpaceOnUse">
<stop stop-color="#D93DE3"/>
<stop offset="1" stop-color="#FF6DBA"/>
</linearGradient>
<linearGradient id="paint1_linear_20_2298" x1="62.6276" y1="49.0058" x2="62.6276" y2="0.00318366" gradientUnits="userSpaceOnUse">
<stop stop-color="#A242EA"/>
<stop offset="1" stop-color="#FE117E"/>
</linearGradient>
</defs>
</svg>
