<svg width="65" height="49" viewBox="0 0 65 49" fill="none" xmlns="http://www.w3.org/2000/svg">
<path fill-rule="evenodd" clip-rule="evenodd" d="M3.97259 49L1.89844 0H65.0017L62.4056 48.8604L3.97259 49Z" fill="url(#paint0_linear_20_2277)"/>
<path fill-rule="evenodd" clip-rule="evenodd" d="M1.89558 0L0 2.89056L1.89558 49H3.96973L1.89558 0Z" fill="url(#paint1_linear_20_2277)"/>
<path d="M41.72 33.16V38H25.64V33.16H31.16V14.68C30.9467 15 30.5867 15.36 30.08 15.76C29.6 16.1333 29.04 16.5067 28.4 16.88C27.7867 17.2267 27.1467 17.52 26.48 17.76C25.84 18 25.2533 18.12 24.72 18.12V13.16C25.44 13.16 26.1733 12.9733 26.92 12.6C27.6667 12.2267 28.36 11.8 29 11.32C29.64 10.84 30.1467 10.4 30.52 10C30.92 9.57333 31.1333 9.34667 31.16 9.32H36.64V33.16H41.72Z" fill="white"/>
<defs>
<linearGradient id="paint0_linear_20_2277" x1="24.1772" y1="54.5278" x2="40.9085" y2="-6.59429" gradientUnits="userSpaceOnUse">
<stop stop-color="#188DC1"/>
<stop offset="1" stop-color="#06BFE7"/>
</linearGradient>
<linearGradient id="paint1_linear_20_2277" x1="-3.71602" y1="47.4607" x2="8.76076" y2="1.88063" gradientUnits="userSpaceOnUse">
<stop stop-color="#1852A0"/>
<stop offset="1" stop-color="#067ED3"/>
</linearGradient>
</defs>
</svg>
