<svg width="65" height="49" viewBox="0 0 65 49" fill="none" xmlns="http://www.w3.org/2000/svg">
<path d="M0 1.513L0 48.5222L60.2522 49L61.0772 0L0 1.513Z" fill="url(#paint0_linear_20_2278)"/>
<path d="M61.075 0L65.0007 6.18473L63.0378 48.9735L60.25 49L61.075 0Z" fill="url(#paint1_linear_20_2278)"/>
<path d="M26.72 33.16V38H10.64V33.16H16.16V14.68C15.9467 15 15.5867 15.36 15.08 15.76C14.6 16.1333 14.04 16.5067 13.4 16.88C12.7867 17.2267 12.1467 17.52 11.48 17.76C10.84 18 10.2533 18.12 9.72 18.12V13.16C10.44 13.16 11.1733 12.9733 11.92 12.6C12.6667 12.2267 13.36 11.8 14 11.32C14.64 10.84 15.1467 10.4 15.52 10C15.92 9.57333 16.1333 9.34667 16.16 9.32H21.64V33.16H26.72ZM52.0094 29.6C52.0094 31.36 51.5294 32.8933 50.5694 34.2C49.636 35.5067 48.3827 36.5333 46.8094 37.28C45.236 38 43.516 38.36 41.6494 38.36C39.756 38.36 38.0227 37.9733 36.4494 37.2C34.9027 36.4267 33.6627 35.3733 32.7294 34.04C31.8227 32.68 31.3694 31.1333 31.3694 29.4C31.3694 28.3333 31.596 27.3733 32.0494 26.52C32.5027 25.64 33.0627 24.8933 33.7294 24.28C34.4227 23.64 35.116 23.1467 35.8094 22.8C35.1694 22.48 34.5694 22.0533 34.0094 21.52C33.476 20.9867 33.0494 20.3733 32.7294 19.68C32.4094 18.9867 32.2494 18.2533 32.2494 17.48C32.2494 16.2267 32.5294 15.1067 33.0894 14.12C33.6494 13.1333 34.396 12.3067 35.3294 11.64C36.2627 10.9467 37.276 10.44 38.3694 10.12C39.4894 9.77333 40.596 9.6 41.6894 9.6C42.756 9.6 43.8494 9.77333 44.9694 10.12C46.0894 10.44 47.116 10.9333 48.0494 11.6C48.9827 12.2667 49.7294 13.0933 50.2894 14.08C50.876 15.04 51.1694 16.16 51.1694 17.44C51.1694 18.1867 50.996 18.92 50.6494 19.64C50.3294 20.3333 49.8894 20.96 49.3294 21.52C48.796 22.0533 48.1827 22.48 47.4894 22.8C48.2627 23.2 48.996 23.72 49.6894 24.36C50.3827 25 50.9427 25.76 51.3694 26.64C51.796 27.52 52.0094 28.5067 52.0094 29.6ZM46.5694 29.28C46.5694 28.5867 46.436 27.9867 46.1694 27.48C45.9027 26.9467 45.5294 26.5067 45.0494 26.16C44.5694 25.7867 44.036 25.5067 43.4494 25.32C42.8627 25.1333 42.2627 25.04 41.6494 25.04C40.796 25.04 39.996 25.2133 39.2494 25.56C38.5294 25.9067 37.9427 26.4 37.4894 27.04C37.036 27.68 36.8094 28.4267 36.8094 29.28C36.8094 29.92 36.9427 30.5067 37.2094 31.04C37.5027 31.5467 37.876 31.9867 38.3294 32.36C38.8094 32.7333 39.3294 33.0267 39.8894 33.24C40.476 33.4267 41.076 33.52 41.6894 33.52C42.5427 33.52 43.3427 33.3333 44.0894 32.96C44.836 32.5867 45.436 32.08 45.8894 31.44C46.3427 30.8 46.5694 30.08 46.5694 29.28ZM37.6894 17.64C37.6894 18.36 37.8894 18.9733 38.2894 19.48C38.6894 19.9867 39.196 20.3733 39.8094 20.64C40.4494 20.88 41.076 21 41.6894 21C42.3294 21 42.9427 20.8667 43.5294 20.6C44.1427 20.3333 44.6494 19.96 45.0494 19.48C45.476 18.9733 45.6894 18.3467 45.6894 17.6C45.6894 16.9333 45.5027 16.36 45.1294 15.88C44.756 15.4 44.2627 15.0267 43.6494 14.76C43.0627 14.4933 42.396 14.36 41.6494 14.36C40.956 14.36 40.3027 14.4933 39.6894 14.76C39.076 15.0267 38.5827 15.4133 38.2094 15.92C37.8627 16.4 37.6894 16.9733 37.6894 17.64Z" fill="white"/>
<defs>
<linearGradient id="paint0_linear_20_2278" x1="30.5292" y1="49.0058" x2="30.5292" y2="0.00318366" gradientUnits="userSpaceOnUse">
<stop stop-color="#D93DE3"/>
<stop offset="1" stop-color="#FF6DBA"/>
</linearGradient>
<linearGradient id="paint1_linear_20_2278" x1="62.6276" y1="49.0058" x2="62.6276" y2="0.00318366" gradientUnits="userSpaceOnUse">
<stop stop-color="#A242EA"/>
<stop offset="1" stop-color="#FE117E"/>
</linearGradient>
</defs>
</svg>
