<svg width="26" height="40" viewBox="0 0 26 40" fill="none" xmlns="http://www.w3.org/2000/svg">
<path d="M12.5051 0C6.36219 0 1.36503 4.63084 1.36503 10.3238C1.36503 16.0162 6.36219 20.645 12.5051 20.645C18.6477 20.645 23.6424 16.0162 23.6424 10.3238C23.6424 4.63084 18.6477 0 12.5051 0ZM12.5051 6.04876C15.0474 6.04876 17.1148 7.96744 17.1148 10.3238C17.1148 12.6791 15.0475 14.5963 12.5051 14.5963C9.96217 14.5963 7.8926 12.6791 7.8926 10.3238C7.8926 7.96744 9.96217 6.04876 12.5051 6.04876ZM3.32063 20.9962C2.21847 20.9804 1.13466 21.4839 0.50594 22.4125C-0.454875 23.8272 0.0053998 25.6939 1.52825 26.5837C3.54259 27.755 5.72838 28.586 7.99514 29.065L1.76968 34.8375C0.495237 36.0192 0.496316 37.9332 1.77102 39.115C2.40992 39.7048 3.2432 40 4.0786 40C4.91314 40 5.74923 39.7044 6.38619 39.1138L12.5024 33.4425L18.624 39.1138C19.8974 40.2952 21.9622 40.2952 23.2378 39.1138C24.5128 37.9328 24.5128 36.0168 23.2378 34.8375L17.0097 29.0663C19.2771 28.5873 21.4636 27.7558 23.4765 26.5838C25.0024 25.694 25.4634 23.8252 24.5029 22.4125C23.5413 20.9975 21.528 20.5713 20.001 21.4625C15.4405 24.1213 9.56422 24.1195 5.00511 21.4625C4.48031 21.1562 3.89794 21.0046 3.32063 20.9963V20.9962Z" fill="white"/>
</svg>
