<svg width="243" height="268" viewBox="0 0 243 268" fill="none" xmlns="http://www.w3.org/2000/svg">
<path d="M67.2647 52.0465C-4.56458 69.3093 -16.3055 123.271 -27.2196 172.263C-38.1338 221.247 -78.9854 267.039 3.39581 286.53C85.777 306.021 208.267 279.517 228.683 201.921C249.1 124.325 170.833 132.017 115.101 107.676C59.3693 83.336 99.0784 44.4097 67.2647 52.0465Z" fill="url(#paint0_linear_130_12626)"/>
<path d="M99.8803 105.961C99.9551 106.435 100 106.687 100 106.687C99.4461 108.953 98.8175 111.057 98.1439 112.968C95.9434 119.219 93.2041 123.663 91.1534 126.433C89.3721 128.818 88.0997 129.959 88.0997 129.959C71.7236 124.878 63.6554 109.027 60.5568 101.132C60.5418 101.102 60.5269 101.058 60.5119 101.013C59.9131 99.532 59.5239 98.3321 59.2844 97.547C59.2844 97.547 59.2844 97.547 59.2844 97.5322C59.0898 96.9101 59 96.5693 59 96.5693C59.0599 96.436 59.1347 96.2879 59.1946 96.1546L59.2245 96.0953C59.494 95.5472 59.7634 94.9695 60.0029 94.4362C62.1435 89.7996 63.5655 85.4445 64.4936 82.0226C65.2869 79.1192 65.7211 76.8675 65.9157 75.6825C66.0204 75.0751 66.0654 74.7344 66.0654 74.7344L73.6995 78.7192L100 92.4957C99.6108 94.8806 99.4462 97.1322 99.4462 99.0876C99.4312 100.48 99.4761 101.724 99.5509 102.776C99.6258 104.065 99.7605 105.087 99.8653 105.754V105.768C99.8503 105.857 99.8653 105.902 99.8803 105.961Z" fill="#FE9083"/>
<path d="M93.2632 131.887C91.7566 133.364 89.9816 134.694 87.8486 135.802C87.8038 135.831 87.7591 135.861 87.7143 135.876C87.7143 135.876 87.6546 135.846 87.5502 135.787L87.5353 135.772C86.9685 135.432 85.0145 134.251 82.4042 132.3C75.5576 127.189 64.1318 116.877 60.8652 102.96C60.8502 102.945 60.8502 102.93 60.8502 102.901C60.4624 101.246 60.2089 99.5617 60.0746 97.8184C60.0746 97.8184 60.0746 97.8184 60.0746 97.8037C60.0448 97.3457 60.0149 96.9024 60 96.4297C60 96.4297 62.2673 101.719 66.2051 107.421C70.8292 114.129 77.7801 121.456 86.0735 121.501C93.2482 121.545 96.9325 116.685 98.7971 112.193C99.5876 110.288 100.065 108.456 100.304 107.096C100.319 107.082 100.318 107.082 100.318 107.082C100.393 106.683 100.453 106.328 100.512 106.033V106.018C100.542 105.87 100.557 105.737 100.572 105.604C100.632 105.102 100.662 104.821 100.662 104.821C100.662 104.821 103.406 121.841 93.2632 131.887Z" fill="url(#paint1_linear_130_12626)"/>
<path opacity="0.5" d="M93.2632 131.953C91.7566 133.433 89.9816 134.766 87.8486 135.876H87.7143L87.5502 135.861L87.5353 135.846C86.9685 135.506 85.0145 134.322 82.4042 132.368C75.5576 127.246 64.1318 116.915 60.8652 102.972C60.8502 102.957 60.8502 102.942 60.8502 102.913C60.4624 101.255 60.2089 99.5676 60.0746 97.821C60.0746 97.821 60.0746 97.821 60.0746 97.8062C60.0448 97.3474 60.0149 96.9033 60 96.4297C60 96.4297 62.2673 101.729 66.2051 107.442C66.2051 107.442 70.7248 119.757 80.4949 125.87C85.3874 128.919 89.1016 128.475 91.8312 126.684C94.5609 124.893 96.321 121.785 97.3651 119.431C98.4092 117.063 98.7374 114.858 98.7971 113.244C98.812 112.874 98.812 112.549 98.7971 112.252C99.5876 110.343 100.065 108.508 100.304 107.146C100.319 107.131 100.318 107.131 100.318 107.131C100.393 106.732 100.453 106.376 100.512 106.08V106.065C100.542 105.917 100.557 105.784 100.572 105.651C100.632 105.148 100.662 104.867 100.662 104.867C100.662 104.867 103.406 121.888 93.2632 131.953Z" fill="url(#paint2_linear_130_12626)"/>
<path d="M156.105 231.711C155.985 231.77 155.925 231.8 155.925 231.8C155.012 231.903 152.138 231.299 148.397 228.101L148.382 228.087C148.382 228.072 148.367 228.072 148.352 228.057C148.337 228.043 148.322 228.028 148.307 228.013C145.164 225.302 141.392 220.793 137.635 213.382C130.122 198.589 127.967 188.717 127.607 186.993L127.563 186.727L123.177 193.579C120.199 202.39 114.571 238.813 114.676 240.39C114.781 241.966 119.675 249.599 119.57 250.542C119.57 250.542 119.57 250.557 119.555 250.557C119.42 251.5 117.22 253.592 116.592 255.876C116.173 257.393 119.151 262.167 121.246 265.733V265.748C122.339 267.604 123.177 269.122 123.177 269.697C123.177 271.362 117.864 279.524 117.864 279.524V283.915L117.789 283.989L117.535 284.21L117.34 284.372C115.319 285.934 106.758 291.076 79.9973 292.491C48.2971 294.156 27.1786 284.121 27.1786 284.121L28.7651 279.819C28.7651 279.819 27.2834 278.567 27.1786 277.948C27.0739 277.314 28.3461 275.855 28.3461 275.855C28.3461 275.855 25.1581 274.19 25.1581 272.083C25.1581 269.991 31.549 263.508 31.3245 257.953C31.1149 252.413 26.2207 247.492 25.5771 244.353C24.9336 241.215 33.8689 233.465 33.8689 233.465C26.2207 209.595 24.7241 177.577 24.7241 177.577L23.2423 175.898C23.2423 175.898 14.0974 196.408 5.8057 206.457C4.81788 207.65 3.7702 208.829 2.69258 209.963C0.387655 212.424 -2.08194 214.737 -4.44673 216.756C-10.1941 221.677 -15.4176 224.919 -16.7347 224.668C-18.86 224.256 -27.3762 207.709 -26.9871 190.75C-26.8075 182.69 -21.8683 173.658 -16.7347 166.423C-16.1809 165.657 -15.6421 164.891 -15.0733 164.154C-11.4363 159.277 -7.94902 155.461 -6.27271 153.708C-5.62913 153.03 -5.25492 152.662 -5.25492 152.662C-5.25492 152.662 -6.42239 148.963 -7.21564 145.751C-7.23061 145.678 -7.24554 145.604 -7.27547 145.515C-7.27547 145.486 -7.29045 145.442 -7.29045 145.412C-7.30542 145.353 -7.32037 145.339 -7.32037 145.339C-7.78435 143.364 -8.08372 141.655 -7.81431 141.228C-7.11086 140.108 -2.99491 138.856 -2.27649 138.03C-1.57304 137.191 1.40541 123.09 3.66543 121.557C5.83565 120.084 9.66722 119.023 22.4341 114.072C23.0627 113.837 23.7063 113.586 24.3798 113.321C38.6883 107.737 52.7274 100.974 52.7274 100.974L58.1155 94.4609H60.5102L59.7319 96.1112L59.702 96.1701C60.0912 97.8498 60.5252 99.4559 61.0191 101.003C61.0341 101.047 61.0491 101.091 61.064 101.121C68.4727 124.121 87.5257 131.533 87.5257 131.533C100.772 121.911 100.502 106.632 100.502 106.632V104.539L102.987 105.261L104.678 109.239C104.678 109.239 107.552 113.63 118.927 118.566C120.887 119.421 122.998 120.482 125.183 121.719C135.6 127.54 147.184 136.542 148.067 138.458C148.157 138.664 148.262 138.959 148.367 139.401C149.594 144.13 152.108 161.841 154.443 168.162C155.895 172.111 158.2 174.277 159.891 175.411C159.906 175.426 159.906 175.426 159.921 175.426C161.179 176.281 162.092 176.546 162.092 176.546C162.271 177.518 162.436 178.476 162.6 179.434C167.48 209.713 158.2 230.267 156.105 231.711Z" fill="url(#paint3_linear_130_12626)"/>
<path opacity="0.5" d="M34 174.738L24.7592 177.785L23.2789 176.115C23.2789 176.115 14.1428 196.509 5.85902 206.5C4.87214 207.687 3.82543 208.859 2.74884 209.987C0.446123 212.433 -2.02105 214.734 -4.38358 216.741L-11.4263 187.001L-15 164.424C-11.3665 159.575 -7.88251 155.781 -6.20781 154.037C-5.56484 153.363 -5.19104 152.997 -5.19104 152.997C-5.19104 152.997 -6.35734 149.32 -7.14984 146.126C-7.16479 146.053 -7.17975 145.98 -7.20966 145.892C-7.20966 145.862 -7.22458 145.818 -7.22458 145.789C-7.23953 145.731 -7.25452 145.716 -7.25452 145.716C-7.71805 143.753 -8.01708 142.053 -7.74794 141.628C-7.04516 140.515 -2.93315 139.27 -2.21542 138.449C-1.51264 137.614 1.46294 123.594 3.7208 122.07C3.7208 122.07 2.24047 135.519 10.1056 152.602L13.9335 157.876L25.1181 166.681C25.1181 166.666 29.3647 172.204 34 174.738Z" fill="url(#paint4_linear_130_12626)"/>
<path d="M7.61182 198.959C5.59535 213.461 -16.6464 224.632 -16.6464 224.632C-21.6042 224.632 -27.1381 216.261 -32.1566 205.93C-37.175 195.599 -37.4934 165.918 -37.7511 164.091C-38.024 162.263 -40.8137 158.594 -40.9957 157.017C-41.1624 155.454 -36.4776 152.197 -36.4776 152.197L-36.5079 152.124L-36.5382 152.05C-37.0234 151.033 -39.7827 145.3 -39.5857 144.254C-39.3734 143.105 -34.1124 140.599 -34.1124 140.599L-33.7789 146.244C-33.7789 146.244 -21.5284 143.989 -17.3742 134.763L-16.6464 131.934L-14.5997 133.26V145.404C-14.5997 145.404 -14.1751 147.29 -13.5384 147.29C-12.9016 147.29 -8.1106 144.976 -7.10994 145.286C-6.09413 145.61 -5.10862 152.109 -3.77441 152.934C-2.44021 153.774 1.10754 156.177 1.65335 157.326C1.89593 157.842 1.91109 159.714 1.94142 161.909C1.97174 164.606 2.00206 167.79 2.41142 169.573C3.16949 172.815 9.62828 184.443 7.61182 198.959Z" fill="url(#paint5_linear_130_12626)"/>
<path d="M207.556 186.723C206.571 188.241 201.631 191.424 200.348 192.68C199.079 193.921 200.348 198.01 200.348 198.01C179.575 219.591 157.906 230.396 155.727 231.447C155.608 231.506 155.548 231.535 155.548 231.535C142.505 222.949 143.624 208.815 147.952 196.9C152.086 185.467 159.189 176.093 159.503 175.684L159.518 175.669C159.518 175.669 159.518 175.669 159.533 175.655C159.771 175.567 163.487 174.063 166.159 173.859C167.039 173.8 167.845 174.136 168.606 174.604C170.188 175.567 171.531 177.086 172.829 176.458C174.739 175.523 179.022 165.624 181.917 165.361C183.947 165.171 186.753 167.186 188.618 168.339C189.439 168.836 190.066 169.186 190.379 169.099C191.439 168.821 195.05 164.601 195.333 164.485C195.617 164.368 197.259 165.551 197.259 165.551L196.11 166.952C197.87 176.911 203.676 183.613 203.676 183.613L207.556 178.049C207.556 178.049 208.555 185.204 207.556 186.723Z" fill="url(#paint6_linear_130_12626)"/>
<path d="M100 105.676C99.9852 105.824 99.9556 105.958 99.9408 106.107C99.8817 106.405 99.8225 106.702 99.7338 106.999C99.7338 106.999 99.7338 107.014 99.7191 107.014C98.403 111.937 93.065 116.964 86.3371 114.54C78.9882 111.892 65 82.0881 65 82.0881L66.4047 75.7227L99.6155 102.924L99.9852 105.497L100 105.676Z" fill="#CB4D7A"/>
<path d="M241.929 142.842C241.929 142.842 230.807 162.895 217.777 169.056H213.334L203.062 184.405C203.062 184.405 196.428 180.288 195.936 166.791C195.936 166.791 198.262 164.395 198.828 161.704C198.828 161.704 195.161 158.867 194.162 156.779C193.178 154.692 192.82 148.428 192.119 145.841C191.418 143.268 185.41 137.902 184.069 137.211C182.727 136.52 176.659 136.167 176.659 136.167C176.659 136.167 175.809 134.006 176.659 132.976C177.509 131.933 186.961 128.301 192.119 131.786C192.119 131.786 192.477 134.432 193.029 135.829C193.595 137.211 198.112 142.151 198.813 142.151C199.514 142.151 202.555 139.651 203.897 137.696C205.179 135.829 212.007 121.303 213.662 116.392C213.677 116.334 213.677 116.29 213.707 116.245C213.737 116.172 213.767 116.098 213.767 116.025C213.796 115.966 213.796 115.922 213.811 115.878C213.826 115.863 213.826 115.848 213.826 115.819C215.093 111.57 222.518 103.425 226.469 101.205C226.469 101.205 228.153 100.793 229.078 102.866C229.078 102.866 225.902 111.791 222.578 117.069C222.026 117.966 221.415 119.009 220.788 120.127C220.788 120.127 220.789 120.127 220.774 120.127C217.941 125.258 214.765 131.962 214.303 132.947L214.244 133.065L216.003 133.962L220.774 129.492L225.664 124.92L236.905 136.623L235.801 138.005L232.298 142.445L234.072 142.768L238.202 138.255L241.929 142.842Z" fill="url(#paint7_linear_130_12626)"/>
<path opacity="0.6" d="M239.32 147.106L235.772 152.252C235.772 152.252 216.256 137.418 212.022 136.153C207.788 134.904 206.238 135.742 206.238 135.742L201.869 141.24C201.869 141.24 209.92 148.268 210.621 157.736C210.621 157.736 207.937 145.769 198.828 142.137C199.529 142.137 202.57 139.638 203.912 137.682C205.194 135.815 212.022 121.289 213.677 116.379C213.454 117.217 213.17 118.849 213.856 120.143C214.81 121.892 220.475 120.246 220.803 120.143C220.818 120.143 220.818 120.143 220.818 120.143L214.333 132.963L214.273 133.081L216.033 133.977L220.803 129.508L218.418 134.992L235.831 138.02L232.328 142.461L234.102 142.784L239.32 147.106Z" fill="url(#paint8_linear_130_12626)"/>
<path d="M225.721 124.966C225.721 124.966 229.106 124.48 231.297 128.788L230.805 130.185C230.805 130.185 234.115 130.817 237.305 136.11C237.305 136.11 234.488 141.197 227.495 143.49C227.495 143.49 224.245 142.579 223.679 139.874L224.32 138.139L221.785 140.021C221.785 140.021 218.744 140.932 217.402 136.463L225.721 124.966Z" fill="url(#paint9_linear_130_12626)"/>
<path d="M242.944 141.461C242.944 141.461 243.644 138.256 240.185 136.168L233.477 143.475C233.477 143.475 233.685 145.813 236.578 146.327C236.592 146.342 241.184 144.798 242.944 141.461Z" fill="url(#paint10_linear_130_12626)"/>
<path opacity="0.91" d="M194.16 156.781C194.16 156.781 201.928 165.338 213.333 169.058L208.413 176.409L198.156 163.574L198.812 161.721C198.827 161.706 194.727 158.678 194.16 156.781Z" fill="url(#paint11_linear_130_12626)"/>
<path d="M230.805 130.184C230.805 130.184 227.555 135.476 224.305 138.123L223.664 139.858C223.664 139.858 229.97 135.667 232.281 130.816C232.296 130.816 231.536 130.287 230.805 130.184Z" fill="#E28183"/>
<path opacity="0.5" d="M207.56 186.627C206.584 188.149 201.689 191.338 200.417 192.596C199.16 193.839 200.417 197.935 200.417 197.935C179.832 219.556 158.36 230.381 156.201 231.434C156.083 231.493 156.023 231.522 156.023 231.522C154.337 231.727 146.145 229.445 137.952 213.236C130.529 198.549 128.399 188.748 128.044 187.037L128 186.773L129.804 184.345L132.496 154.415L134.374 160.442C141.516 151.914 148.245 138.836 148.245 138.836L148.541 139.772V139.787C149.753 144.483 152.238 162.066 154.545 168.342C155.979 172.262 158.256 174.412 159.927 175.539L159.942 175.553L159.927 175.568C153.347 181.507 150.093 190.036 148.481 196.823C147.003 203.055 146.914 207.824 146.914 207.824C146.914 207.824 148.733 199.383 154.471 189.216C156.556 185.515 159.587 182.224 162.604 179.503C164.867 177.47 167.114 175.758 168.948 174.486C170.516 175.451 171.847 176.972 173.133 176.343C164.482 189.187 164.689 214.612 172.823 209.769C180.941 204.927 182.79 194.629 182.79 194.629C180.867 182.092 181.444 167.947 182.982 165.27C184.845 165.328 190.213 169.058 190.524 168.971C190.036 183.716 197.045 193.576 197.045 193.576L201.674 186.496C194.945 175.275 195.448 164.348 195.448 164.348C195.729 164.231 197.356 165.416 197.356 165.416L196.217 166.82C197.962 176.797 203.715 183.511 203.715 183.511L207.56 177.938C207.56 177.938 208.55 185.106 207.56 186.627Z" fill="url(#paint12_linear_130_12626)"/>
<path opacity="0.5" d="M117 279.574V283.948L116.925 284.021L116.672 284.241L116.478 284.403C114.466 285.959 105.939 291.082 79.2851 292.491C47.712 294.149 26.6781 284.153 26.6781 284.153L28.2582 279.867C28.2582 279.867 26.7824 278.62 26.6781 278.003C26.5737 277.372 27.8408 275.919 27.8408 275.919C27.8408 275.919 24.6656 274.26 24.6656 272.161C24.6656 270.282 29.8533 264.837 30.6881 259.714C30.7924 259.171 30.8371 258.628 30.8073 258.085C30.5986 252.58 25.7688 247.707 25.0979 244.581C25.083 244.551 25.083 244.537 25.083 244.537C24.442 241.41 33.3415 233.689 33.3415 233.689C25.724 209.91 24.2333 178.015 24.2333 178.015L22.7575 176.341C22.7575 176.341 13.6493 196.773 5.39079 206.784C-2.86773 216.795 -14.9424 225.352 -17.0593 224.926C-21.9339 224.926 -27.375 216.589 -32.3092 206.3C-37.2434 196.01 -37.5565 166.448 -37.8099 164.628C-38.0782 162.808 -40.8211 159.153 -41 157.582C-35.708 166.551 -27.2706 163.909 -27.2706 163.909C-33.3825 164.041 -36.5577 152.783 -36.5577 152.783L-36.5875 152.709L-36.6173 152.636L-39.5987 144.871C-39.2559 145.238 -32.2794 152.944 -25.5265 148.188C-18.6096 143.33 -15.0468 133.906 -15.0468 133.906V146.001C-15.0468 146.001 -14.6294 147.88 -14.0033 147.88C-14.4207 153.443 -15.6133 160.224 -17.0593 166.903C-20.2046 181.347 -24.4979 195.306 -24.4979 195.306C-24.4979 195.306 -12.8257 189.053 -8.72621 173.2C-6.77338 165.611 -6.44543 159.021 -6.63923 154.221C-6.8032 150.111 -7.35477 147.308 -7.57838 146.28C-7.59328 146.207 -7.60816 146.133 -7.63797 146.045C-7.63797 146.016 -7.6529 145.972 -7.6529 145.942C-7.6529 145.913 -7.66782 145.898 -7.66782 145.884L-6.53487 148.232L-4.38824 153.472C-1.89877 173.817 -7.0417 204.465 -7.0417 204.465C0.441647 195.291 2.0069 174.991 1.67894 170.059C1.52987 167.71 1.35099 164.804 1.21683 162.426C1.05285 159.828 0.93359 157.861 0.93359 157.861L16.2581 166.859L13.4257 158.037L24.5762 166.859C24.5762 166.859 34.6087 178.748 44.9094 180.128C55.2102 181.523 93.0443 180.686 93.0443 180.686C93.0443 180.686 60.1445 182.77 50.5443 185.545C40.9442 188.333 39.1106 191.519 39.1106 191.519C46.0573 226.291 84.4728 238.005 85.6654 238.357C50.8126 233.205 34.5937 204.025 34.5937 204.025C34.5937 204.025 34.0273 220.435 36.7106 226.688C39.3938 232.941 55.2102 248.236 75.5434 251.421C77.2578 251.685 78.9422 251.846 80.6118 251.92C97.755 252.712 111.947 244.082 113.407 243.157C113.482 243.098 113.527 243.083 113.527 243.083C113.527 243.083 113.512 243.098 113.497 243.142C112.945 243.964 105.924 253.696 77.5261 254.767C75.8118 254.841 74.1273 254.826 72.5024 254.753C72.4875 254.753 72.4875 254.753 72.4875 254.753C46.1765 253.667 32.7751 236.405 32.7751 236.405C32.7751 236.405 23.0408 241.557 29.257 249.19C29.3167 249.263 29.3912 249.351 29.4508 249.439C31.2844 251.523 35.3242 254.063 40.0944 256.676C40.2286 256.749 40.3628 256.822 40.482 256.896C46.2511 260.037 53.004 263.266 58.2364 265.938C58.2662 265.952 58.296 265.952 58.3109 265.967C61.501 267.611 64.1396 269.02 65.6005 270.077C65.6154 270.077 65.6153 270.092 65.6153 270.092C67.0911 271.148 67.3893 271.824 65.9433 272C58.5941 272.836 30.7924 266.862 29.6595 268.521C28.5266 270.194 31.031 274.495 31.031 274.495C56.5519 286.957 111.186 280.807 112.901 280.631C67.1806 292.153 29.7936 277.563 29.7936 277.563L31.031 281.878C31.031 281.878 51.394 288.821 75.3944 289.379C99.4097 289.922 114.361 283.889 114.361 283.889L117 279.574Z" fill="url(#paint13_linear_130_12626)"/>
<path opacity="0.5" d="M98 180.254C98 180.254 116.667 181.184 129 184.184L122.635 193.074C122.635 193.074 113.072 185.326 98 180.254Z" fill="url(#paint14_linear_130_12626)"/>
<path opacity="0.5" d="M116 229.562C116 229.562 104.497 239.226 93.1901 243.685C81.8834 248.144 71 248.585 71 248.585C71 248.585 77.4998 250.533 93.5075 247.931C109.5 245.344 114.972 236.609 114.972 236.609L116 229.562Z" fill="url(#paint15_linear_130_12626)"/>
<path opacity="0.5" d="M64 183.027C45.899 184.812 41.0239 189.715 41.0239 189.715C35.9381 190.345 24.5028 177.67 24.5028 177.67L23.0131 176.001C23.0131 176.001 13.8197 196.375 5.48389 206.357C4.49082 207.542 3.43758 208.713 2.35423 209.84L3.54287 207.25C3.54287 207.25 5.48388 206.357 6.04061 196.433C6.61238 186.539 1.76741 171.771 1.73731 169.752C1.70722 167.732 1 157.574 1 157.574L16.4679 166.546L13.609 157.75L24.8639 166.546C24.8639 166.546 29.2725 173.001 40.407 178.372C50.9245 183.495 62.706 183.085 64 183.027Z" fill="url(#paint16_linear_130_12626)"/>
<path opacity="0.5" d="M23 176.694L33.9313 175.324C33.9313 175.324 38.2977 178.094 47.0763 181.505L39.7634 191.811C39.7634 191.811 42.6641 206.505 51 214.77C51 214.77 28.8779 203.036 25.7786 193.181L23 176.694Z" fill="url(#paint17_linear_130_12626)"/>
<path opacity="0.5" d="M-2 138.471C-2 138.471 3.37378 149.296 10 152.641C10 152.641 2.12137 133.395 3.78156 122.07C3.78156 122.07 0.883499 123.875 -2 138.471Z" fill="url(#paint18_linear_130_12626)"/>
<path opacity="0.76" d="M131.783 154.613L133.379 160.617L135 209.838C135 209.838 130.89 200.468 128 187.107L129.496 184.426C129.508 184.426 132.034 165.877 131.783 154.613Z" fill="url(#paint19_linear_130_12626)"/>
<path opacity="0.5" d="M190.584 169.406C190.584 169.406 189.569 193.368 199.507 195.448L200 198.005C200.014 198.005 187.145 197.514 190.584 169.406Z" fill="url(#paint20_linear_130_12626)"/>
<path opacity="0.3" d="M173 176.239C173 176.239 172.589 177.122 168.695 174.336C168.695 174.336 155.202 183.744 150 197.017C150 197.017 158.321 184.823 162.747 183.504C167.174 182.186 168.239 187.055 168.239 187.055C168.239 187.055 169.988 180.209 173 176.239Z" fill="url(#paint21_linear_130_12626)"/>
<path opacity="0.5" d="M-7.17917 145.738C-7.17917 145.738 0.16387 171.639 -19 191.101C-19 191.101 -6.55288 185.076 -3.73466 171.122C-0.900789 157.182 -7.17917 145.738 -7.17917 145.738Z" fill="url(#paint22_linear_130_12626)"/>
<path opacity="0.5" d="M117.973 125.031C117.973 125.031 117.195 136.517 111.631 144.754C106.053 152.991 95 158.56 95 158.56C95 158.56 108.872 153.514 115.228 146.407C121.598 139.287 117.973 125.031 117.973 125.031Z" fill="url(#paint23_linear_130_12626)"/>
<path opacity="0.5" d="M45.4932 107.277C45.4932 107.277 45.4932 117.097 48.7225 127.11C51.9518 137.123 80 154.613 80 154.613C80 154.613 51.1028 142.864 45.4932 132.302C39.8835 121.74 45.4932 107.277 45.4932 107.277Z" fill="url(#paint24_linear_130_12626)"/>
<path d="M45 153.637V169.039C45 169.039 82.2683 168.753 124.039 171.38L125 157.52C125 157.52 88.6773 153.423 45 153.637Z" fill="url(#paint25_linear_130_12626)"/>
<path d="M52.6505 157.413C52.6654 157.148 52.7846 157.016 53.053 157.016L60.552 157.236C61.2974 157.251 61.9236 157.368 62.4454 157.574C62.9672 157.78 63.3698 158.045 63.6828 158.398C63.9959 158.75 64.2196 159.162 64.3388 159.647C64.473 160.132 64.5327 160.676 64.5028 161.279L64.4432 163.308C64.4283 163.911 64.3388 164.44 64.1748 164.925C64.0109 165.411 63.7723 165.808 63.4443 166.131C63.1163 166.454 62.684 166.704 62.1622 166.881C61.6404 167.057 60.9993 167.116 60.2539 167.101L56.2136 166.984L55.3787 164.661H55.2744L55.1998 166.969L52.3672 166.881L52.6505 157.413ZM55.2744 164.381L60.06 164.528C60.5968 164.543 60.9844 164.44 61.2229 164.205C61.4615 163.97 61.5807 163.558 61.6106 162.97L61.6553 161.323C61.6702 160.706 61.5807 160.294 61.3571 160.059C61.1335 159.838 60.7608 159.706 60.2091 159.691L55.6173 159.559C55.5576 159.559 55.498 159.574 55.4682 159.618C55.4234 159.662 55.4086 159.706 55.4086 159.765L55.2744 164.381Z" fill="white"/>
<path d="M68.5705 161.634H68.481L68.3916 164.589C68.3916 164.721 68.4512 164.78 68.5705 164.78L77.0088 165.03L76.9342 167.588L65.872 167.264C65.6037 167.25 65.4844 167.117 65.4844 166.853L65.7676 157.811C65.7826 157.546 65.9167 157.414 66.1851 157.414L76.9193 157.738C77.1877 157.752 77.3218 157.885 77.3218 158.149L77.2473 160.707L74.5936 161.589H74.4892L74.5339 160.281C74.5339 160.178 74.4892 160.134 74.3998 160.134L68.7345 159.958C68.6599 159.958 68.6152 159.972 68.5854 160.016C68.5556 160.06 68.5556 160.105 68.5407 160.149L68.4959 161.384L73.1624 161.516L73.1027 163.515L69.1817 163.398L68.5705 161.634Z" fill="white"/>
<path d="M87.3122 161.455H87.2079L87.2377 160.367C87.2377 160.264 87.193 160.205 87.0737 160.205L81.796 160.044C81.6022 160.044 81.468 160.073 81.3935 160.161C81.319 160.235 81.2743 160.352 81.2743 160.514L81.2593 160.764C81.2593 160.955 81.2742 161.073 81.3488 161.131C81.4084 161.19 81.5277 161.234 81.7215 161.264L87.9086 162.308C88.2962 162.381 88.6391 162.469 88.9075 162.587C89.1758 162.705 89.3995 162.866 89.5634 163.057C89.7274 163.249 89.8467 163.484 89.9063 163.748C89.966 164.028 89.9958 164.337 89.9809 164.719L89.951 165.498C89.9361 165.91 89.8765 166.263 89.7721 166.571C89.6678 166.88 89.4889 167.13 89.2503 167.336C89.0118 167.542 88.7136 167.689 88.326 167.792C87.9533 167.894 87.4762 167.924 86.9395 167.909L78.0391 167.645L78.1136 165.086L86.0897 165.322C86.3282 165.322 86.4923 165.292 86.5668 165.204C86.6413 165.116 86.6861 164.969 86.701 164.748L86.7159 164.484C86.7159 164.307 86.701 164.19 86.6413 164.116C86.5817 164.042 86.4625 163.998 86.2985 163.969L80.335 163.043C79.9325 162.969 79.5896 162.881 79.3063 162.763C79.023 162.646 78.7845 162.499 78.6056 162.308C78.4267 162.117 78.3074 161.896 78.2329 161.631C78.1583 161.367 78.1285 161.058 78.1434 160.69L78.1583 159.999C78.1732 159.279 78.382 158.735 78.7845 158.353C79.187 157.97 79.8281 157.794 80.7226 157.823L89.6082 158.088C89.8914 158.103 90.0256 158.25 90.0256 158.529L89.966 160.558L87.3122 161.455Z" fill="white"/>
<path d="M91.0703 168.01L91.3685 158.145L94.2011 158.233L93.9029 168.098L91.0703 168.01Z" fill="white"/>
<path d="M104.4 164.188C104.4 164.04 104.4 163.893 104.385 163.732C104.37 163.57 104.37 163.438 104.355 163.32V163.202L107.158 163.291L107.009 168.128C106.994 168.378 106.875 168.51 106.651 168.495L99.1224 168.275C98.3769 168.245 97.7508 168.142 97.229 167.937C96.7072 167.731 96.3047 167.466 95.9916 167.113C95.6785 166.76 95.4549 166.349 95.3356 165.864C95.2014 165.378 95.1418 164.834 95.1716 164.246L95.2312 162.217C95.2461 161.615 95.3356 161.085 95.4996 160.6C95.6636 160.115 95.9021 159.718 96.245 159.395C96.573 159.071 97.0054 158.821 97.5272 158.645C98.049 158.468 98.69 158.395 99.4355 158.424L106.92 158.645C107.188 158.659 107.322 158.792 107.307 159.056L107.248 161.188L104.594 162.056H104.489L104.519 161.115C104.519 161.027 104.489 160.982 104.4 160.982L99.6293 160.835C99.3609 160.821 99.1224 160.85 98.9286 160.894C98.7348 160.938 98.5857 161.027 98.4664 161.144C98.3472 161.262 98.2577 161.424 98.198 161.629C98.1384 161.835 98.0937 162.085 98.0937 162.379L98.0341 164.114C98.0192 164.702 98.1235 165.128 98.3322 165.364C98.5558 165.599 98.9286 165.731 99.4802 165.746L104.221 165.893C104.325 165.893 104.37 165.849 104.37 165.731L104.4 164.188Z" fill="white"/>
<path d="M113.135 158.808C113.344 158.808 113.493 158.852 113.583 158.911C113.672 158.97 113.747 159.073 113.806 159.22L117.384 166.409C117.444 166.512 117.533 166.571 117.638 166.586H117.787C117.936 166.586 118.011 166.527 118.011 166.38L118.234 158.955L120.798 159.029L120.5 168.497C120.485 168.761 120.366 168.879 120.098 168.879L116.028 168.761C115.834 168.761 115.7 168.732 115.595 168.673C115.506 168.614 115.416 168.512 115.342 168.35L111.63 161.16C111.585 161.058 111.495 160.999 111.376 160.984H111.242C111.093 160.984 111.018 161.043 111.018 161.19L110.795 168.6L108.23 168.526L108.529 159.073C108.544 158.808 108.663 158.676 108.931 158.676L113.135 158.808Z" fill="white"/>
<path opacity="0.5" d="M104 109.371C103.147 119.731 100.015 126.956 96.6912 131.832C92.1029 138.521 87.1471 140.81 87.1471 140.81C82.1912 138.625 77.8823 135.905 74.1765 132.902C58.4559 120.192 53.3824 102.592 53 101.135C59.6324 117.338 69.3823 127.164 76.7794 132.694C82.7353 137.168 87.1618 138.848 87.1618 138.848V133.66C85.9853 133.214 84.8382 132.709 83.75 132.144C70.7353 125.514 63.897 111.689 60.7059 102.756C60.6912 102.741 60.6912 102.726 60.6912 102.696C58.9559 97.865 58.2941 94.4609 58.2941 94.4609H60.6471L59.8823 96.1258L59.8529 96.1853C60.2353 97.8799 60.6618 99.5002 61.1471 101.061C61.1618 101.106 61.1765 101.15 61.1912 101.18C68.4706 124.384 87.1912 131.861 87.1912 131.861C100.206 122.154 99.9412 106.739 99.9412 106.739V104.629L102.382 105.357L104 109.371Z" fill="url(#paint26_linear_130_12626)"/>
<path opacity="0.3" d="M182.609 165.461C182.609 165.461 179.117 177.047 182.421 195.045C182.421 195.045 184.073 172.227 185.305 170.237C186.537 168.247 190 169.19 190 169.19C190 169.19 184.551 166.124 182.609 165.461Z" fill="url(#paint27_linear_130_12626)"/>
<path opacity="0.5" d="M147.885 227.589C144.866 224.903 141.243 220.435 137.634 213.092C130.416 198.433 128.345 188.651 128 186.943L129.711 184.257L132.012 161.7L134.154 160.4C134.154 160.4 141.818 151.801 147.641 138.836C147.727 139.04 147.828 139.332 147.929 139.77V139.8C149.108 144.486 151.523 162.035 153.766 168.299C155.161 172.212 157.375 174.358 159 175.482C159 175.482 145.729 195.469 145.082 209.734C144.521 222.713 147.368 226.932 147.885 227.589Z" fill="url(#paint28_linear_130_12626)"/>
<path opacity="0.5" d="M125 121.967L103.332 128.92L96.9841 131.833L96.9541 131.847L92.8275 131.862L87.2453 131.877L83.764 132.159L81.9182 132.293L76.6662 132.709L74.0252 132.917L48.0351 123.601L43.3833 121.937L22 114.271C22.6302 114.033 23.2755 113.78 23.9508 113.513C38.2964 107.882 52.3718 101.062 52.3718 101.062L57.7739 94.4951H60.1748C62.3207 89.8447 63.7462 85.4765 64.6766 82.0444L66.1021 75.6853C66.2072 75.0761 66.2522 74.7344 66.2522 74.7344L73.9051 78.7311L99.7002 99.1605C99.6852 100.557 99.7302 101.805 99.8052 102.86L100.18 105.43C100.24 104.925 100.27 104.643 100.27 104.643L102.761 105.371L104.457 109.383C104.457 109.383 107.338 113.81 118.743 118.788C120.708 119.649 122.824 120.734 125 121.967Z" fill="#7A4AC0"/>
<path d="M108.378 102.614C108.378 102.614 98.3446 104.834 87.2675 99.5556C76.1904 94.2629 66.8725 78.6639 66.306 74.7825C65.7544 70.8864 70.54 60.7126 70.54 52.7734C70.54 44.8342 66.5892 31.1907 73.2236 23.8102C79.8579 16.4297 110.361 15.327 120.245 24.7952C120.245 24.7952 123.302 32.3815 123.302 36.6746C123.302 37.7037 123.108 39.2327 122.84 40.9823C122.75 41.6292 122.631 42.3202 122.512 43.0406C121.632 48.2304 120.409 54.5671 120.976 57.3458C121.17 58.3161 121.483 59.2129 121.856 60.051V60.0657C123.078 62.8444 124.882 65.0644 125.21 67.4608C125.642 70.5924 121.378 92.8661 108.378 102.614Z" fill="url(#paint29_linear_130_12626)"/>
<path d="M70.4661 50.5251C70.4661 50.5251 67.7229 43.7474 60.85 43.6445C60.85 43.6445 56.8247 45.2177 56.1836 48.2463C56.1836 48.2463 57.6596 59.2141 59.3591 64.3304C61.0587 69.4468 67.2607 68.7117 67.2607 68.7117C67.2607 68.7117 72.6726 60.5373 70.4661 50.5251Z" fill="url(#paint30_linear_130_12626)"/>
<path d="M96.9141 72.8431C96.9141 72.8431 99.21 72.6666 100.194 73.4017C101.178 74.1368 104.786 77.5771 109.333 78.5181C113.88 79.459 116.936 75.6365 117.905 75.4306C118.874 75.2395 119.948 76.5921 119.948 76.5921C119.948 76.5921 119.53 75.0337 117.16 74.3133C117.16 74.3133 116.206 77.9153 109.601 76.6803C102.997 75.4453 100.194 72.549 100.194 72.549L99.8659 71.9609C99.8659 71.9756 98.0024 72.3579 96.9141 72.8431Z" fill="url(#paint31_linear_130_12626)"/>
<path opacity="0.6" d="M87.1752 39.1324L87.2646 38.4413C87.2646 38.4413 93.8542 27.0472 106.869 26.7384C119.9 26.4297 122.837 34.4718 122.837 34.4718L125.252 30.855L119.751 19.8431L81.4801 19.2109L72.1622 26.6208L70.9844 44.778L75.129 68.7425L85.2072 74.0353L88.0548 71.5506C86.9963 63.5232 80.9583 56.2015 80.9583 56.2015L85.3712 53.1876C85.3712 53.1876 96.7018 58.598 103.247 56.9808C103.247 56.9808 108.167 42.8079 107.883 32.3106C107.883 32.2812 91.0962 34.7364 87.1752 39.1324Z" fill="url(#paint32_linear_130_12626)"/>
<path d="M86.5977 39.9699C86.5977 39.9699 87.2387 35.868 94.2607 34.2213C102.088 32.3983 108.439 30.8398 108.439 30.8398C108.439 30.8398 107.052 35.3387 104.443 37.0294C104.443 37.0294 96.169 36.7354 91.9797 37.6763C87.7755 38.6173 86.5977 39.9699 86.5977 39.9699Z" fill="#38368E"/>
<path d="M122.843 34.457C122.843 34.457 118.877 37.471 116.164 44.6897C116.164 44.6897 118.758 41.3523 121.144 41.3964C122.783 41.4258 122.515 43.0284 122.515 43.0284C122.515 43.0284 124.14 38.7206 122.843 34.457Z" fill="#38368E"/>
<path d="M89.2227 51.5836C89.2227 51.5836 89.6401 42.9094 98.2275 40.7188C98.2275 40.7188 101.299 44.6295 101.612 49.0696C101.612 49.0696 97.0497 48.2315 89.2227 51.5836Z" fill="url(#paint33_linear_130_12626)"/>
<path d="M113.789 55.0238C113.789 55.0238 114.49 48.1285 118.5 45.5703C118.5 45.5703 121.243 47.5992 120.96 53.3772C120.945 53.3772 118.545 52.5244 113.789 55.0238Z" fill="url(#paint34_linear_130_12626)"/>
<path d="M89.2227 51.5846C89.2227 51.5846 92.0106 54.9661 99.8078 55.6276C99.8078 55.6276 101.299 53.3929 101.15 49.0264C101.15 49.0264 93.9785 48.3354 89.2227 51.5846Z" fill="#FFEBED"/>
<path d="M113.789 55.0225V56.037C113.789 56.037 114.997 58.5069 119.29 58.9333C119.29 58.9333 120.677 56.8015 120.796 53.3465C120.796 53.3318 118.053 52.6555 113.789 55.0225Z" fill="#FFEBED"/>
<path d="M97.5575 48.837C97.5575 48.837 95.5747 51.204 95.7536 54.9531C95.7536 54.9531 98.3477 55.5559 99.8088 55.6147C99.8088 55.6147 101.508 53.277 101.151 49.0134C101.151 49.0281 98.8844 48.543 97.5575 48.837Z" fill="#7F9EC9"/>
<path d="M117.874 53.4537C117.874 53.4537 116.756 54.6299 116.547 58.2613C116.547 58.2613 118.082 58.9229 119.305 58.9229C119.305 58.9229 120.87 56.7323 120.811 53.3361C120.796 53.3361 119.708 52.9245 117.874 53.4537Z" fill="#7F9EC9"/>
<path d="M96.9128 55.219C96.9128 55.219 96.1972 50.529 98.9255 48.75L101.147 49.0293C101.147 49.0293 101.892 52.7343 99.8051 55.6306C99.8051 55.6159 97.5986 55.366 96.9128 55.219Z" fill="#38368E"/>
<path d="M118.859 53.2435C118.859 53.2435 117.86 55.3165 117.383 58.5657C117.383 58.5657 118.158 58.8744 119.291 58.9185C119.291 58.9185 120.812 57.0808 120.797 53.3317C120.797 53.3317 119.634 53.0229 118.859 53.2435Z" fill="#38368E"/>
<path d="M89.2227 51.5837C89.2227 51.5837 94.4109 48.6138 103.252 50.3046L101.612 49.0843C101.612 49.0696 95.3054 47.1436 89.2227 51.5837Z" fill="#131163"/>
<path d="M113.789 55.0258C113.789 55.0258 117.949 52.8499 122.809 53.9967L120.811 52.5411C120.796 52.5411 117.546 52.056 113.789 55.0258Z" fill="#131163"/>
<path d="M94.8281 51.584C94.8281 51.584 96.2444 51.2753 97.5117 52.5397C97.5117 52.5397 95.7674 53.0396 94.8281 51.584Z" fill="white"/>
<path d="M115.699 55.6138C115.699 55.6138 117.906 55.1874 118.681 56.1872C118.666 56.1872 117.488 56.9958 115.699 55.6138Z" fill="white"/>
<path d="M89.7422 52.0859C89.7422 52.0859 93.7675 56.0114 100.238 56.9524L100.402 54.6294L99.8055 55.6145C99.8055 55.6145 93.6035 55.2616 89.7422 52.0859Z" fill="#C6659C"/>
<path d="M113.789 56.0391C113.789 56.0391 114.505 58.5825 119.767 59.7293L119.603 58.4796L119.305 58.9207C119.29 58.9207 115.563 58.4502 113.789 56.0391Z" fill="#C6659C"/>
<path d="M103.25 66.1986C103.25 66.1986 105.203 65.7869 108.811 66.1986C112.419 66.6102 116.459 67.5953 118.666 66.1986C118.666 66.1986 115.729 69.0949 113.179 69.536C110.63 69.977 106.754 67.7717 106.754 67.7717L105.054 67.8011C105.069 67.8011 103.757 67.1689 103.25 66.1986Z" fill="#CB5F7D"/>
<path d="M105.309 67.8021C105.309 67.8021 106.188 67.2434 106.934 67.3757C107.679 67.5081 108.424 68.5813 108.424 68.5813C108.424 68.5813 106.874 67.7727 105.309 67.8021Z" fill="#9F4A8B"/>
<path d="M118.666 66.1981C119.605 65.2865 114.73 56.7299 112.404 56.4211C110.078 56.1124 107.887 66.0069 107.887 66.0069C107.887 66.0069 111.122 66.448 114.268 66.8744C117.413 67.286 118.666 66.1981 118.666 66.1981Z" fill="#FFBCAF"/>
<path opacity="0.6" d="M122.154 39.2652C120.842 39.1034 116.176 44.6903 116.176 44.6903C116.176 44.6903 113.209 53.7468 113.79 56.4226C114.372 59.1131 121.573 60.5392 121.573 60.5392L121.871 60.0687V60.054C121.498 59.2013 121.185 58.3191 120.991 57.3488C120.425 54.5701 121.632 48.2335 122.527 43.0436C122.527 43.0436 122.81 41.9704 122.855 40.9853C122.885 40.1179 122.75 39.324 122.154 39.2652Z" fill="url(#paint35_linear_130_12626)"/>
<path d="M121.945 76.0213C120.454 72.9633 121.379 71.3608 108.468 69.6994C90.1898 67.3324 88.6243 72.831 85.5233 71.993C85.419 71.9636 85.2848 71.9194 85.1506 71.8606C81.7813 70.5669 73.8648 62.8923 73.6561 52.542C73.4473 41.7801 80.7526 34.1496 80.7526 34.1496C78.0989 31.959 77.0403 25.593 79.9028 22.8731C82.7652 20.1679 87.6404 20.7854 99.5971 22.0351C111.569 23.2848 111.569 22.5644 111.569 22.5644C115.37 23.52 117.547 27.0338 118.158 28.1659C118.278 28.3864 118.337 28.5187 118.337 28.5187L119.828 27.1661C123.853 32.9147 123.108 39.1778 123.108 39.1778C123.108 39.1778 129.668 26.0194 128.922 24.1522C127.566 20.7119 123.764 15.6985 123.54 15.375L123.525 15.3603C123.525 15.3603 122.467 5.33344 119.291 5.33344C116.116 5.33344 102.564 8.34737 102.564 8.34737C104.055 4.90707 103.831 0.9375 103.831 0.9375C103.831 0.9375 103.816 0.952192 103.772 0.996299C99.3437 4.90707 95.0201 5.33343 88.8927 8.14154C85.8066 9.56765 84.3605 10.8761 83.1529 12.2434L82.7354 12.7286L82.3031 13.2432C81.8856 13.7725 81.4384 14.3164 80.9166 14.8604C80.8867 14.8898 80.8569 14.9192 80.842 14.9192C80.8122 14.9339 80.8122 14.9486 80.8122 14.9486C80.3202 15.4779 79.7388 16.0219 79.0381 16.5953C75.0128 19.8297 66.157 21.991 65.0985 25.4019C64.04 28.8128 66.4403 33.4733 67.7075 38.2809C68.9748 43.0885 68.3933 47.3375 68.3933 47.3375C68.3933 47.3375 72.6125 52.689 71.2111 60.5253C69.9737 67.5529 67.2603 68.6997 67.2603 68.6997C65.3519 72.5663 66.2614 76.1831 66.2614 76.1831C70.1675 91.5321 86.3582 100.662 86.3582 100.662C100.76 105.955 110.227 103.647 110.227 103.647C110.227 103.647 110.227 103.647 110.242 103.632C120.723 96.8984 124.301 74.6099 124.465 73.5661C124.271 73.8601 122.333 76.83 121.945 76.0213ZM115.475 90.2236C112.94 89.812 112.404 83.4606 111.569 82.6226C110.719 81.7993 106.127 82.1374 106.127 82.1374C106.127 82.1374 101.893 86.8715 100.208 87.0038C98.5088 87.1509 89.4742 83.5194 91.4272 78.0944C93.3653 72.6546 100.208 71.9636 100.208 71.9636C100.208 71.9636 103.742 74.8893 109.034 75.2274C114.327 75.5656 116.25 74.6099 116.876 74.3306C117.517 74.0513 120.916 75.5803 120.827 80.3144C120.752 83.637 118.024 90.6353 115.475 90.2236Z" fill="url(#paint36_linear_130_12626)"/>
<path d="M114.82 58.3164C114.82 58.3164 119.382 63.9032 118.949 66.0056C118.472 68.2992 113.18 69.5341 113.18 69.5341C113.18 69.5341 117.414 68.0933 118.293 66.0056C118.293 66.0056 117.205 61.7714 114.82 58.3164Z" fill="#D2726C"/>
<path opacity="0.6" d="M123.112 39.1456C123.112 39.1456 123.842 32.8825 119.832 27.134C123.067 21.4442 123.529 15.3281 123.529 15.3281L123.544 15.3428C124.633 18.0039 125.259 23.1644 125.259 23.1644L128.926 24.1053C129.672 25.9872 123.112 39.1456 123.112 39.1456Z" fill="url(#paint37_linear_130_12626)"/>
<path opacity="0.6" d="M118.16 28.1493C117.549 27.032 115.373 23.5035 111.571 22.5478C111.571 22.5478 111.571 23.2682 99.5992 22.0185C87.6425 20.7689 82.7674 20.1514 79.9049 22.8566C77.0425 25.5765 78.101 31.9425 80.7547 34.1331C80.7547 34.1331 73.4495 41.7635 73.6582 52.5255C73.852 62.8758 81.7834 70.565 85.1528 71.8441L85.0037 72.9909C85.0037 72.9909 85.6 96.6908 91.4442 98.5726C97.2735 100.44 109.394 99.4695 110.527 100.587C111.601 101.645 110.378 103.468 110.259 103.63C110.244 103.645 110.244 103.645 110.244 103.645C110.244 103.645 100.777 105.953 86.3753 100.66C86.3753 100.66 70.1845 91.5156 66.2784 76.1812C66.2784 76.1812 65.369 72.5645 67.2773 68.6979C67.2773 68.6979 69.9907 67.5511 71.2281 60.5235C72.6295 52.6872 68.4104 47.3356 68.4104 47.3356C68.4104 47.3356 68.9918 43.0867 67.7246 38.2791C66.4573 33.4715 64.0421 28.8109 65.1155 25.4C71.8841 26.4439 76.3417 22.9595 76.3417 22.9595C76.3417 22.9595 77.5196 21.3422 82.7674 20.5042C88.0152 19.6662 109.081 21.7539 109.081 21.7539C109.081 21.7539 106.964 20.019 102.521 18.8723C98.3171 17.7843 83.9601 19.0487 82.4245 19.1663C84.0644 18.887 100.345 16.123 102.193 16.6817C104.161 17.255 111.198 20.4454 111.198 20.4454C110.557 17.255 104.251 9.58052 104.251 9.58052C104.251 9.58052 95.3503 9.72754 89.5359 10.9331C84.3328 12.0064 81.4853 14.344 80.9336 14.8292L82.3201 13.212L82.7525 12.6974L83.1699 12.2122L85.1975 11.8741L95.4099 7.80156C98.8389 5.9932 103.237 1.52374 103.774 0.96506C103.803 0.935656 103.833 0.90625 103.833 0.90625C103.833 0.90625 104.042 4.87583 102.566 8.31613C111.198 7.27228 114.12 7.80156 114.12 7.80156C118.026 13.3002 118.16 28.1493 118.16 28.1493Z" fill="url(#paint38_linear_130_12626)"/>
<path opacity="0.5" d="M86.3594 100.659C86.3594 100.659 91.652 99.4244 99.6281 99.7331C107.604 100.057 112.196 100.086 110.213 103.644C110.228 103.644 100.195 105.879 86.3594 100.659Z" fill="url(#paint39_linear_130_12626)"/>
<path d="M114.106 7.81575C114.106 7.81575 118.966 5.94857 120.874 6.25732C120.874 6.25732 120.114 5.25757 119.324 5.05174C118.534 4.84591 102.566 8.33033 102.566 8.33033C102.566 8.33033 112.51 7.19825 114.106 7.81575Z" fill="url(#paint40_linear_130_12626)"/>
<path d="M104.25 9.59643C104.25 9.59643 103.862 14.801 102.178 16.6976L82.4088 19.1822L76.6094 18.1678C76.6094 18.1678 78.8606 17.2268 81.3205 14.3746C83.7953 11.5518 96.6913 8.7584 104.25 9.59643Z" fill="url(#paint41_linear_130_12626)"/>
<path d="M123.527 15.3438C123.527 15.3438 125.137 20.4748 125.257 23.18L128.924 24.1209C128.924 24.1209 127.821 20.2543 123.527 15.3438Z" fill="url(#paint42_linear_130_12626)"/>
<path opacity="0.8" d="M69.6456 59.7281C69.6456 59.7281 68.2591 53.1563 64.845 49.8924C61.4309 46.6432 57.5547 47.6871 57.5547 47.6871C57.5547 47.6871 58.6132 59.8899 59.7313 62.8597C60.8495 65.8295 62.5342 66.6234 62.5342 66.6234C62.5342 66.6234 60.1488 64.5651 59.8357 60.5221C59.5226 56.4937 59.4182 50.7892 60.3127 50.1129C61.2073 49.4366 64.845 52.083 64.845 52.083C64.845 52.083 63.6971 53.465 63.0113 57.067C62.3255 60.6691 64.8599 63.2714 65.814 63.2272C66.7682 63.1684 65.7544 59.0665 65.9184 57.8904C66.0824 56.6995 68.1994 56.9494 69.6456 59.7281Z" fill="url(#paint43_linear_130_12626)"/>
<path opacity="0.8" d="M66.2457 51.543C66.2457 51.543 62.5185 53.9541 62.921 58.894C63.3236 63.834 66.186 63.6281 66.2009 62.5843C66.2159 61.5404 65.6493 58.8793 65.9475 57.365C66.2457 55.8507 68.7056 56.5417 68.7056 56.5417C68.7056 56.5417 67.0806 52.6162 66.2457 51.543Z" fill="url(#paint44_linear_130_12626)"/>
<path d="M124.449 73.5781C124.449 73.5781 119.828 94.3817 110.227 103.644C110.227 103.644 121.184 99.3951 124.449 73.5781Z" fill="#34C7FF"/>
<path d="M119.32 5.05078C119.32 5.05078 121.765 6.91796 122.227 13.4163C122.69 19.9147 119.827 27.1334 119.827 27.1334C119.827 27.1334 123.495 21.7377 123.853 15.8128C124.195 9.90249 121.244 5.80059 119.32 5.05078Z" fill="#34C7FF"/>
<path d="M90 18.8041C90 18.8041 95.5606 20.4436 101.649 20.9139C107.738 21.3841 109 21.4858 109 21.4858C109 21.4858 106.55 19.4269 101.341 18.8041C96.1182 18.1814 90 18.8041 90 18.8041Z" fill="url(#paint45_linear_130_12626)"/>
<path d="M117.061 74.2296C117.061 74.2296 119.824 74.2296 120.908 77.6086C121.779 80.3029 122.023 82.625 122.023 82.625L123 78.9185C123 78.9185 121.718 74.2148 120.389 73.1579C119.427 72.3987 117.779 71.6247 117 71.8033L117.061 74.2296Z" fill="url(#paint46_linear_130_12626)"/>
<path d="M110 70.802L110.439 74.7018C110.439 74.7018 113.566 74.9617 115.632 74.0807L116 71.7264C116 71.712 112.009 70.6865 110 70.802Z" fill="url(#paint47_linear_130_12626)"/>
<path d="M125 122.07C125 122.07 143.832 135.786 146.266 140.513C148.715 145.226 149.691 160.033 153 166.447C153 166.447 150.741 155.975 149.152 147.757C147.563 139.539 147.942 139.422 147.068 137.415C146.193 135.379 132.142 125.648 125 122.07Z" fill="#34C7FF"/>
<path d="M121.814 198.992C121.814 198.992 112.585 238.469 113.015 241.135C113.429 243.802 119.4 249.238 119.681 250.734C119.681 250.734 115.118 256.852 115.326 258.2C115.533 259.548 123.325 268.11 123.118 270.761C123.059 271.532 118.007 279.856 118.007 279.856C118.007 279.856 123.711 271.665 123.992 270.361C124.274 269.058 117 258.111 116.792 257C116.244 254.126 120.422 252.008 120.555 250.112C120.688 248.216 114.896 243.594 114.852 240.498C114.792 237.417 121.814 198.992 121.814 198.992Z" fill="#34C7FF"/>
<path opacity="0.5" d="M25.0346 196.031C25.0346 196.031 31.9747 208.165 45 204.365C45 204.365 37.2051 209.342 29.3899 205.291C29.3899 205.291 24.5462 197.401 25.0346 196.031Z" fill="url(#paint48_linear_130_12626)"/>
<path d="M23.3004 286.979C23.3004 286.979 13.8565 247.718 11.1211 218.237C11.1211 218.237 80.2052 208.539 131.918 214.057C131.918 214.057 129.685 253.218 123.898 286.979H23.3004Z" fill="url(#paint49_linear_130_12626)"/>
<path opacity="0.5" d="M77.4516 214.111L23.3008 286.977H67.3564L116.241 214.111C116.241 214.111 93.2781 212.341 77.4516 214.111Z" fill="white"/>
<path d="M11.1211 218.236L13.2052 215.184C13.2052 215.184 71.8314 206.741 128.606 212.067L131.928 214.056C131.918 214.047 64.9927 211.05 11.1211 218.236Z" fill="url(#paint50_linear_130_12626)"/>
<path d="M59.168 256.021C59.168 256.021 66.9277 243.215 79.7955 241.758C79.7955 241.749 78.558 250.21 59.168 256.021Z" fill="white"/>
<path d="M111.432 210.849V213.599L91.2422 213.453V210.309C91.2422 210.309 106.231 210.565 111.432 210.849Z" fill="white"/>
<path d="M19.5039 214.379V217.184L34.3349 215.782L35.0048 212.766C35.0048 212.766 23.5606 213.875 19.5039 214.379Z" fill="white"/>
<defs>
<linearGradient id="paint0_linear_130_12626" x1="-47" y1="171.228" x2="232" y2="171.228" gradientUnits="userSpaceOnUse">
<stop stop-color="#00C3EE"/>
<stop offset="1" stop-color="#E100E6"/>
</linearGradient>
<linearGradient id="paint1_linear_130_12626" x1="80.4883" y1="135.884" x2="80.4883" y2="96.4387" gradientUnits="userSpaceOnUse">
<stop stop-color="#D5CDF8"/>
<stop offset="1" stop-color="#F3EDFB"/>
</linearGradient>
<linearGradient id="paint2_linear_130_12626" x1="59.986" y1="116.159" x2="100.991" y2="116.159" gradientUnits="userSpaceOnUse">
<stop stop-color="#CCCCFF"/>
<stop offset="1" stop-color="#755CBB"/>
</linearGradient>
<linearGradient id="paint3_linear_130_12626" x1="68.5101" y1="292.687" x2="68.5101" y2="94.4521" gradientUnits="userSpaceOnUse">
<stop stop-color="#9E8CEF"/>
<stop offset="1" stop-color="#CAAFEE"/>
</linearGradient>
<linearGradient id="paint4_linear_130_12626" x1="-14.9993" y1="169.402" x2="33.9936" y2="169.402" gradientUnits="userSpaceOnUse">
<stop stop-color="#CCCCFF"/>
<stop offset="1" stop-color="#755CBB"/>
</linearGradient>
<linearGradient id="paint5_linear_130_12626" x1="-16.4992" y1="224.643" x2="-16.4992" y2="131.925" gradientUnits="userSpaceOnUse">
<stop stop-color="#9E8CEF"/>
<stop offset="1" stop-color="#DAC7F3"/>
</linearGradient>
<linearGradient id="paint6_linear_130_12626" x1="145.003" y1="198.003" x2="208.004" y2="198.003" gradientUnits="userSpaceOnUse">
<stop stop-color="#A999F1"/>
<stop offset="1" stop-color="#DAC7F3"/>
</linearGradient>
<linearGradient id="paint7_linear_130_12626" x1="209.101" y1="184.417" x2="209.101" y2="101.189" gradientUnits="userSpaceOnUse">
<stop offset="0.016" stop-color="#FFC2A9"/>
<stop offset="1" stop-color="#FF9595"/>
</linearGradient>
<linearGradient id="paint8_linear_130_12626" x1="219.071" y1="157.753" x2="219.071" y2="116.404" gradientUnits="userSpaceOnUse">
<stop stop-color="#FFEADB"/>
<stop offset="0.9944" stop-color="#C27CB6"/>
</linearGradient>
<linearGradient id="paint9_linear_130_12626" x1="227.341" y1="143.481" x2="227.341" y2="124.946" gradientUnits="userSpaceOnUse">
<stop stop-color="#FFB0B0"/>
<stop offset="0.984" stop-color="#FFC2A9"/>
</linearGradient>
<linearGradient id="paint10_linear_130_12626" x1="238.246" y1="146.335" x2="238.246" y2="136.171" gradientUnits="userSpaceOnUse">
<stop stop-color="#FFB0B0"/>
<stop offset="0.984" stop-color="#FFC2A9"/>
</linearGradient>
<linearGradient id="paint11_linear_130_12626" x1="194.158" y1="166.595" x2="213.329" y2="166.595" gradientUnits="userSpaceOnUse">
<stop offset="0.016" stop-color="#D1A1D6"/>
<stop offset="0.9944" stop-color="#BD89C4"/>
</linearGradient>
<linearGradient id="paint12_linear_130_12626" x1="168.007" y1="231.529" x2="168.007" y2="138.836" gradientUnits="userSpaceOnUse">
<stop stop-color="#CCCCFF"/>
<stop offset="1" stop-color="#755CBB"/>
</linearGradient>
<linearGradient id="paint13_linear_130_12626" x1="-40.9842" y1="213.299" x2="117.002" y2="213.299" gradientUnits="userSpaceOnUse">
<stop stop-color="#CCCCFF"/>
<stop offset="1" stop-color="#755CBB"/>
</linearGradient>
<linearGradient id="paint14_linear_130_12626" x1="98.0066" y1="186.669" x2="129.003" y2="186.669" gradientUnits="userSpaceOnUse">
<stop stop-color="#CCEDFF"/>
<stop offset="1" stop-color="#755CBB"/>
</linearGradient>
<linearGradient id="paint15_linear_130_12626" x1="71.0012" y1="239.433" x2="116.002" y2="239.433" gradientUnits="userSpaceOnUse">
<stop stop-color="#CCEDFF"/>
<stop offset="1" stop-color="#755CBB"/>
</linearGradient>
<linearGradient id="paint16_linear_130_12626" x1="32.5015" y1="209.852" x2="32.5015" y2="157.605" gradientUnits="userSpaceOnUse">
<stop stop-color="#CCEDFF"/>
<stop offset="1" stop-color="#755CBB"/>
</linearGradient>
<linearGradient id="paint17_linear_130_12626" x1="36.9997" y1="214.783" x2="36.9997" y2="175.338" gradientUnits="userSpaceOnUse">
<stop stop-color="#CCEDFF"/>
<stop offset="1" stop-color="#755CBB"/>
</linearGradient>
<linearGradient id="paint18_linear_130_12626" x1="-2.00291" y1="137.347" x2="9.99592" y2="137.347" gradientUnits="userSpaceOnUse">
<stop stop-color="#CCEDFF"/>
<stop offset="1" stop-color="#755CBB"/>
</linearGradient>
<linearGradient id="paint19_linear_130_12626" x1="131.512" y1="209.835" x2="131.512" y2="154.62" gradientUnits="userSpaceOnUse">
<stop stop-color="#CCCCFF"/>
<stop offset="1" stop-color="#755CBB"/>
</linearGradient>
<linearGradient id="paint20_linear_130_12626" x1="195.006" y1="198.002" x2="195.006" y2="169.401" gradientUnits="userSpaceOnUse">
<stop stop-color="#CCCCFF"/>
<stop offset="1" stop-color="#755CBB"/>
</linearGradient>
<linearGradient id="paint21_linear_130_12626" x1="161.499" y1="197.022" x2="161.499" y2="174.344" gradientUnits="userSpaceOnUse">
<stop stop-color="#CCCCFF"/>
<stop offset="1" stop-color="#755CBB"/>
</linearGradient>
<linearGradient id="paint22_linear_130_12626" x1="-10.9966" y1="191.104" x2="-10.9966" y2="145.736" gradientUnits="userSpaceOnUse">
<stop stop-color="#CCCCFF"/>
<stop offset="1" stop-color="#755CBB"/>
</linearGradient>
<linearGradient id="paint23_linear_130_12626" x1="107.001" y1="158.555" x2="107.001" y2="125.026" gradientUnits="userSpaceOnUse">
<stop stop-color="#CCEDFF"/>
<stop offset="1" stop-color="#755CBB"/>
</linearGradient>
<linearGradient id="paint24_linear_130_12626" x1="61.4979" y1="154.614" x2="61.4979" y2="107.279" gradientUnits="userSpaceOnUse">
<stop stop-color="#CCEDFF"/>
<stop offset="1" stop-color="#755CBB"/>
</linearGradient>
<linearGradient id="paint25_linear_130_12626" x1="45.0024" y1="162.498" x2="124.999" y2="162.498" gradientUnits="userSpaceOnUse">
<stop stop-color="#8642A0"/>
<stop offset="1" stop-color="#6456C0"/>
</linearGradient>
<linearGradient id="paint26_linear_130_12626" x1="52.9956" y1="117.623" x2="104.002" y2="117.623" gradientUnits="userSpaceOnUse">
<stop stop-color="#CCCCFF"/>
<stop offset="1" stop-color="#755CBB"/>
</linearGradient>
<linearGradient id="paint27_linear_130_12626" x1="185.495" y1="195.046" x2="185.495" y2="165.458" gradientUnits="userSpaceOnUse">
<stop stop-color="#CCCCFF"/>
<stop offset="1" stop-color="#755CBB"/>
</linearGradient>
<linearGradient id="paint28_linear_130_12626" x1="143.513" y1="227.596" x2="143.513" y2="138.851" gradientUnits="userSpaceOnUse">
<stop stop-color="#CCCCFF"/>
<stop offset="1" stop-color="#755CBB"/>
</linearGradient>
<linearGradient id="paint29_linear_130_12626" x1="95.7565" y1="103.075" x2="95.7565" y2="17.9672" gradientUnits="userSpaceOnUse">
<stop offset="0.016" stop-color="#FFC2A9"/>
<stop offset="1" stop-color="#FF9595"/>
</linearGradient>
<linearGradient id="paint30_linear_130_12626" x1="63.5843" y1="68.7331" x2="63.5843" y2="43.6414" gradientUnits="userSpaceOnUse">
<stop offset="0.016" stop-color="#FFC2A9"/>
<stop offset="1" stop-color="#FF9595"/>
</linearGradient>
<linearGradient id="paint31_linear_130_12626" x1="107.753" y1="78.2223" x2="108.791" y2="72.739" gradientUnits="userSpaceOnUse">
<stop stop-color="#E1616A"/>
<stop offset="1" stop-color="#FF8883"/>
</linearGradient>
<linearGradient id="paint32_linear_130_12626" x1="98.119" y1="74.0323" x2="98.119" y2="19.2058" gradientUnits="userSpaceOnUse">
<stop stop-color="#FFEADB"/>
<stop offset="0.9944" stop-color="#C27CB6"/>
</linearGradient>
<linearGradient id="paint33_linear_130_12626" x1="95.4144" y1="51.5782" x2="95.4144" y2="40.7173" gradientUnits="userSpaceOnUse">
<stop stop-color="#CF6074"/>
<stop offset="1" stop-color="#F37270"/>
</linearGradient>
<linearGradient id="paint34_linear_130_12626" x1="117.379" y1="55.0244" x2="117.379" y2="45.5733" gradientUnits="userSpaceOnUse">
<stop stop-color="#CF6074"/>
<stop offset="1" stop-color="#FF817F"/>
</linearGradient>
<linearGradient id="paint35_linear_130_12626" x1="118.282" y1="60.5258" x2="118.282" y2="39.2583" gradientUnits="userSpaceOnUse">
<stop stop-color="#FFEADB"/>
<stop offset="0.9944" stop-color="#C27CB6"/>
</linearGradient>
<linearGradient id="paint36_linear_130_12626" x1="96.9149" y1="104.149" x2="96.9149" y2="0.934559" gradientUnits="userSpaceOnUse">
<stop stop-color="#2E33A0"/>
<stop offset="1" stop-color="#0665A5"/>
</linearGradient>
<linearGradient id="paint37_linear_130_12626" x1="124.409" y1="39.1497" x2="124.409" y2="15.3393" gradientUnits="userSpaceOnUse">
<stop stop-color="#FFEADB"/>
<stop offset="0.9944" stop-color="#8860C7"/>
</linearGradient>
<linearGradient id="paint38_linear_130_12626" x1="91.5049" y1="104.147" x2="91.5049" y2="0.932716" gradientUnits="userSpaceOnUse">
<stop stop-color="#CCC2DB"/>
<stop offset="0.9944" stop-color="#8860C7"/>
</linearGradient>
<linearGradient id="paint39_linear_130_12626" x1="98.5221" y1="104.122" x2="98.5221" y2="99.6873" gradientUnits="userSpaceOnUse">
<stop stop-color="#776D7E"/>
<stop offset="1" stop-color="#9D68C2"/>
</linearGradient>
<linearGradient id="paint40_linear_130_12626" x1="111.716" y1="8.33989" x2="111.716" y2="5.04542" gradientUnits="userSpaceOnUse">
<stop stop-color="#1F77D1"/>
<stop offset="1" stop-color="#0686C9"/>
</linearGradient>
<linearGradient id="paint41_linear_130_12626" x1="90.4328" y1="19.1885" x2="90.4328" y2="9.44764" gradientUnits="userSpaceOnUse">
<stop stop-color="#1F77D1"/>
<stop offset="1" stop-color="#0686C9"/>
</linearGradient>
<linearGradient id="paint42_linear_130_12626" x1="126.227" y1="24.1258" x2="126.227" y2="15.3402" gradientUnits="userSpaceOnUse">
<stop stop-color="#1F77D1"/>
<stop offset="1" stop-color="#0686C9"/>
</linearGradient>
<linearGradient id="paint43_linear_130_12626" x1="67.2891" y1="62.7857" x2="56.0825" y2="48.8632" gradientUnits="userSpaceOnUse">
<stop stop-color="#FFEADB"/>
<stop offset="0.9944" stop-color="#B060F4"/>
</linearGradient>
<linearGradient id="paint44_linear_130_12626" x1="68.4815" y1="61.016" x2="62.9675" y2="54.1657" gradientUnits="userSpaceOnUse">
<stop stop-color="#FFEADB"/>
<stop offset="0.9944" stop-color="#B060F4"/>
</linearGradient>
<linearGradient id="paint45_linear_130_12626" x1="89.9993" y1="20.0076" x2="108.994" y2="20.0076" gradientUnits="userSpaceOnUse">
<stop stop-color="#1F77D1"/>
<stop offset="1" stop-color="#0686C9"/>
</linearGradient>
<linearGradient id="paint46_linear_130_12626" x1="117" y1="77.2128" x2="122.995" y2="77.2128" gradientUnits="userSpaceOnUse">
<stop stop-color="#1F77D1"/>
<stop offset="1" stop-color="#0686C9"/>
</linearGradient>
<linearGradient id="paint47_linear_130_12626" x1="110.003" y1="72.7583" x2="115.996" y2="72.7583" gradientUnits="userSpaceOnUse">
<stop stop-color="#1F77D1"/>
<stop offset="1" stop-color="#0686C9"/>
</linearGradient>
<linearGradient id="paint48_linear_130_12626" x1="34.9963" y1="206.878" x2="34.9963" y2="196.034" gradientUnits="userSpaceOnUse">
<stop stop-color="#CCEDFF"/>
<stop offset="1" stop-color="#755CBB"/>
</linearGradient>
<linearGradient id="paint49_linear_130_12626" x1="71.5185" y1="286.978" x2="71.5185" y2="212.357" gradientUnits="userSpaceOnUse">
<stop stop-color="#C9B6E9"/>
<stop offset="1" stop-color="#BBABD1"/>
</linearGradient>
<linearGradient id="paint50_linear_130_12626" x1="71.5185" y1="218.235" x2="71.5185" y2="210.299" gradientUnits="userSpaceOnUse">
<stop stop-color="#D8CAEF"/>
<stop offset="1" stop-color="#EADEF4"/>
</linearGradient>
</defs>
</svg>
