<svg width="205" height="203" viewBox="0 0 205 203" fill="none" xmlns="http://www.w3.org/2000/svg">
<path d="M62.9959 234.545L63.2998 234.338C63.1858 234.183 51.7521 218.926 27.5553 224.049C14.3172 226.847 5.4096 215.499 3.33938 204.194C1.28815 193.018 6.22629 181.446 15.9126 174.85C34.8485 161.943 36.1685 143.113 36.178 142.923L35.8077 142.906C35.7982 143.096 34.4877 161.771 15.6942 174.575C5.89392 181.247 0.9083 192.949 2.97852 204.263C5.07723 215.706 14.2603 227.235 27.6407 224.402C51.5907 219.33 62.882 234.398 62.9959 234.545Z" fill="url(#paint0_linear_130_11557)"/>
<path d="M36.0039 116.656C36.0039 116.656 37.8842 116.139 38.6344 117.508C39.3846 118.877 41.7492 135.28 41.0845 139.886C40.4197 144.501 38.5394 142.797 38.5394 142.797C38.5394 142.797 38.7294 145.526 39.9449 146.301L39.9544 146.292C39.9734 146.284 40.0019 146.267 40.0399 146.241C40.0684 146.223 40.1064 146.198 40.1538 146.172H40.1633C40.8851 145.741 43.3921 144.235 45.7092 142.797C48.4442 141.083 50.0396 139.628 50.0396 139.628C50.0396 139.628 49.6597 136.899 49.6597 136.132C49.6597 135.357 55.69 117.164 61.6252 111.524C67.1616 106.272 61.7202 76.6616 60.9605 72.6665L60.875 72.2188C60.875 72.2188 56.0698 73.5017 53.9996 74.8793C51.9294 76.2569 44.4842 92.9005 44.1044 101.442C43.7245 109.983 40.3343 114.831 40.3343 114.831C40.3343 114.831 39.2042 114.211 37.3144 114.831L36.0039 116.656Z" fill="url(#paint1_linear_130_11557)"/>
<path opacity="0.83" d="M40.1719 146.172C40.8936 145.741 43.4007 144.235 45.7178 142.797C48.4528 141.083 50.0482 139.628 50.0482 139.628C50.0482 139.628 49.6683 136.899 49.6683 136.132C49.6683 135.357 55.6985 117.164 61.6338 111.524C67.1702 106.272 61.7288 76.6616 60.969 72.6665L60.8836 72.2188C60.8836 72.2188 56.971 76.6616 55.2807 85.5043C53.5808 94.347 55.9834 111.783 55.9834 111.783C55.9834 111.783 52.5932 125.878 44.2553 126.136C44.2553 126.136 51.2542 135.426 48.4907 140.084C47.9589 140.971 41.4444 145.354 40.1719 146.172Z" fill="url(#paint2_linear_130_11557)"/>
<path d="M49.2375 299.38C49.2754 298.433 49.3609 297.744 49.5129 297.563C50.1586 296.823 53.2545 297.563 53.2545 297.563C57.3284 280.756 58.6864 250.999 58.7624 240.521C58.7434 240.409 58.7149 240.297 58.6959 240.202C58.2781 238.489 57.5183 236.999 56.9106 235.01V235.002C56.5497 233.848 56.2553 232.522 56.0939 230.886C55.676 226.434 51.83 191.994 56.9106 165.397C56.9106 165.397 55.4006 164.441 55.6096 163.399C55.828 162.357 57.4424 162.03 57.4424 162.03L58.8763 157.742C58.8763 157.742 104.165 163.141 109.948 168.608C109.948 168.608 110.242 173.835 110.841 180.886V180.904C111.278 185.949 111.866 192.226 112.636 198.072C114.478 212.116 121.401 233.314 123.234 236.422C125.076 239.531 130.869 247.857 132.141 253.41C135.142 272.043 134.553 294.842 134.553 294.842L137.136 296.685C137.231 296.935 137.326 297.219 137.421 297.529C138.475 300.801 139.985 307.654 139.985 307.654L138.95 309.377L134.173 305.433C130.945 306.044 119.207 311.96 119.207 311.96L116.624 316.523C115.978 313.441 115.589 304.693 115.589 304.693L117.973 301.886C116.757 287.705 112.113 265.663 109.217 252.825C108.581 250.595 106.216 242.527 104.991 240.323C104.991 240.323 102.446 239.109 101.183 237.757C99.9104 236.414 87.4226 212.822 82.3325 192.476C82.3325 192.476 82.3135 192.536 82.2945 192.665C81.7912 195.412 75.9794 227.468 77.062 236.767C78.1921 246.496 79.1322 249.51 79.8919 253.402H79.8444C80.2148 254.857 80.4617 255.795 80.4617 255.795C80.0818 269.15 73.1115 300.749 73.2349 301.49C73.3679 302.23 75.4286 303.952 75.2956 305.02C75.1722 306.087 72.4657 313.079 72.4657 313.079C62.9123 306.802 50.9183 306.914 50.9183 306.914L49.5698 308.524C49.5983 308.541 49.152 302.342 49.2375 299.38Z" fill="url(#paint3_linear_130_11557)"/>
<path opacity="0.62" d="M110.095 170.693C110.095 170.693 96.4007 169.134 87.778 172.914C79.1552 176.694 79.9339 183.212 79.9339 183.212L82.365 192.485L73.9892 184.082L56.9336 165.389C56.9336 165.389 60.1244 167.171 64.2743 167.955C64.2743 167.955 58.4625 164.631 57.4654 162.022L58.8994 157.734L110.104 167.826V170.693H110.095Z" fill="url(#paint4_linear_130_11557)"/>
<path d="M42.4761 135.23C42.4761 135.23 43.0458 140.999 39.2283 143.685C39.2283 143.685 31.3842 139.966 27.5192 133.904C23.6541 127.834 42.4761 135.23 42.4761 135.23Z" fill="url(#paint5_linear_130_11557)"/>
<path d="M109.971 168.162L110.104 169.057C110.104 169.057 99.5254 166.629 94.4353 166.457C89.3452 166.285 83.9512 169.953 73.1158 168.162C62.2804 166.371 58.2539 159.276 58.2539 159.276L58.8997 157.477L109.971 168.162Z" fill="url(#paint6_linear_130_11557)"/>
<path opacity="0.62" d="M106.407 168.264C106.407 168.264 96.132 165.922 81.8493 164.45C67.5667 162.978 62.1918 162.53 60.8528 161.566C59.5138 160.601 58.6211 158.225 58.6211 158.225L58.887 157.484L109.959 168.161L110.092 169.056L106.407 168.264Z" fill="url(#paint7_linear_130_11557)"/>
<path d="M12.2501 117.066C12.2501 117.066 10.0659 118.677 10.0469 120.054C10.0374 121.432 13.665 120.795 13.665 120.795L12.2501 117.066Z" fill="url(#paint8_linear_130_11557)"/>
<path d="M119.863 110.756L121.411 103.067C121.411 103.067 125.371 103.067 131.164 107.94C131.164 107.94 131.306 110.575 133.291 113.873C133.291 113.873 139.958 116.791 143.053 120.761C146.149 124.73 147.317 125.126 150.546 122.879C151.401 122.285 151.99 120.261 152.293 117.506C152.749 113.347 152.578 107.518 151.79 102.387C151.135 98.1504 150.052 94.3963 148.552 92.4418C148.552 92.4418 148.694 89.8329 147.279 87.7837C147.213 87.8268 147.137 87.8612 147.07 87.9129C146.605 88.1798 145.418 88.7567 144.174 88.5586C142.569 88.3003 141.23 86.0789 141.23 86.0789C141.23 86.0789 140.309 86.165 139.844 86.7677C139.844 86.7677 133.434 83.2461 129.379 77.3137C125.324 71.3899 124.668 70.658 124.668 70.658C124.668 70.658 123.633 70.2706 122.228 70.0381C121.126 69.8487 119.787 69.7625 118.543 70.0209C118.543 70.0036 98.8476 97.5993 119.863 110.756Z" fill="url(#paint9_linear_130_11557)"/>
<path d="M77.9302 72.2256C77.9302 72.2256 80.3803 68.902 80.3803 61.1701L99.4871 52.7148C99.4871 52.7148 98.5279 58.6817 101.766 63.8565C102.621 65.2255 106.609 67.3866 106.609 67.3866C106.609 67.3866 89.1454 86.9146 80.7601 85.0376C72.3748 83.1605 74.0556 74.8861 74.0556 74.8861C74.0556 74.8861 75.4801 75.3855 77.9302 72.2256Z" fill="url(#paint10_linear_130_11557)"/>
<path d="M104.273 65.9648C104.273 65.9648 94.8048 74.5148 86.6568 74.997C77.9296 75.5136 79.3635 68.9354 79.3635 68.9354C79.3635 68.9354 75.413 73.9551 76.5431 77.9072C77.6732 81.8593 86.296 82.0487 92.934 79.4226C99.5815 76.7965 105.935 66.5934 105.935 66.5934L104.273 65.9648Z" fill="url(#paint11_linear_130_11557)"/>
<path opacity="0.83" d="M119.863 110.76L121.411 103.072C121.411 103.072 125.371 103.072 131.164 107.945C131.164 107.945 131.306 110.58 133.291 113.877C133.291 113.877 139.958 116.796 143.053 120.765C146.149 124.735 147.317 125.131 150.546 122.884C151.401 122.29 151.99 120.266 152.293 117.511L151.79 116.409V102.391C151.135 98.1551 150.052 94.401 148.552 92.4465C148.552 92.4465 148.694 89.8377 147.279 87.7884C147.213 87.8315 147.137 87.8659 147.07 87.9176C141.591 91.155 139.654 100.686 139.274 107.781C139.226 105.982 137.963 99.0161 137.014 99.1539C135.789 99.3261 133.718 112.138 133.718 112.138C131.268 101.151 139.16 87.8917 139.796 86.8327C132.579 95.8648 131.363 106.24 131.363 106.24L120.148 98.8095C120.148 98.8095 113.396 92.6532 115.732 82.0626C118.068 71.4721 122.228 70.0342 122.228 70.0342C121.126 69.8447 119.787 69.7586 118.543 70.0169C118.543 70.0083 98.8476 97.604 119.863 110.76Z" fill="url(#paint12_linear_130_11557)"/>
<path d="M73.0414 59.3627C73.0604 59.3799 73.0984 59.4057 73.1174 59.4402C73.3833 59.7329 73.6682 59.9568 73.9721 60.0946C78.217 62.0663 89.5177 61.5497 95.6429 56.6763C97.9695 54.8251 99.7169 52.6037 101.103 50.3392C101.113 50.322 101.122 50.3134 101.122 50.3134C103.345 46.6368 104.608 42.8225 105.833 40.1877C107.808 35.9171 109.432 28.7706 109.033 24.6377C108.663 20.7976 107.808 17.5515 102.062 13.1086C96.3172 8.66578 82.1865 8.40748 78.6063 12.8503C75.0262 17.2932 75.1211 27.2897 74.2759 29.5111C73.4213 31.7325 70.4109 34.3845 69.5657 37.3722C68.768 40.1361 69.5942 55.4623 73.0414 59.3627Z" fill="url(#paint13_linear_130_11557)"/>
<path d="M72.9961 31.6539C72.9961 31.6539 73.1765 34.3231 75.4747 34.5039C77.2695 34.6503 78.3711 32.2394 78.3711 32.2394C78.3711 32.2394 78.694 25.7129 77.7823 22.5013L76.9276 19.9354C76.9276 19.9354 79.3872 17.6021 83.0623 17.8948C86.7374 18.1875 88.0574 21.7436 88.0574 21.7436C88.0574 21.7436 84.7907 30.2074 85.2655 34.2886C85.2655 34.2886 87.7251 36.424 91.875 36.1656C96.6707 35.8729 99.0828 33.2812 99.0828 33.2812C99.0828 33.2812 101.704 36.0537 102.198 38.4129C102.796 41.2284 101.77 50.14 101.77 50.14C101.77 50.14 105.066 40.488 105.968 37.6638C106.86 34.8483 108.513 22.3291 107.525 20.1937C106.537 18.0584 103.679 11.1013 91.4477 9.73232C79.2068 8.3633 76.9371 12.0829 76.9371 12.0829L75.6741 17.5934L75.6836 20.4348C75.6836 20.4348 74.8289 27.7621 74.525 28.9847C74.2116 30.216 72.9961 31.6539 72.9961 31.6539Z" fill="url(#paint14_linear_130_11557)"/>
<path d="M75.6181 20.71C75.6181 20.71 75.9505 16.9474 78.3056 13.2278C78.3056 13.2278 80.9266 15.7333 85.162 17.0679C85.162 17.0679 83.1963 15.4147 82.2751 14.1318C82.4366 14.2438 85.0766 16.095 88.7612 17.5242C88.7612 17.5242 87.6976 16.0519 87.6976 15.4061C87.6976 14.7604 90.385 11.9534 93.4904 12.0137C96.6052 12.0826 102.54 13.9338 105.503 19.0655C108.466 24.1885 105.484 24.6621 103.86 26.0053C103.86 26.0053 104.677 32.3596 104.497 37.6807C104.44 39.2736 104.288 40.7632 104.012 41.9686C103.965 42.1667 103.917 42.3475 103.86 42.5197L108.105 39.0067C108.105 39.0067 108.143 36.6561 109.777 33.2895C109.957 32.9021 110.166 32.506 110.394 32.0927L110.413 32.0583C110.498 31.8947 110.603 31.7311 110.698 31.5675C111.714 29.8454 114.838 26.6338 114.382 23.362C113.955 20.2881 107.782 17.6448 106.273 15.5869C106.273 15.5869 111.011 16.956 113.252 19.0052C113.252 19.0052 112.892 17.0765 111.135 15.9916C109.378 14.9067 107.906 15.5783 105.351 14.6484C102.797 13.7185 99.3402 5.9349 95.2472 2.99021C91.1448 0.0455222 81.7433 0.622406 78.714 2.99021C77.9352 3.60154 77.3465 4.33341 76.9191 5.0911H76.9096C76.9096 5.09972 76.9096 5.09972 76.9096 5.09972V5.10833C76.9001 5.12555 76.8906 5.12554 76.8906 5.14276C75.6371 7.32115 75.5991 9.65452 75.5991 9.65452C75.5991 9.65452 73.8518 16.2069 75.6181 20.71Z" fill="url(#paint15_linear_130_11557)"/>
<path d="M145.583 91.5295L148.556 92.425C148.556 92.425 162.126 85.1235 166.504 67.3779C166.504 67.3779 163.114 62.0568 162.971 60.1367C162.829 58.2166 164.994 54.1957 165.659 49.1587C166.314 44.1217 165.003 40.273 165.089 39.6789C165.184 39.0848 168.574 38.9987 169.514 41.4698C170.454 43.9495 169.039 48.3924 169.514 49.2448C169.989 50.0972 171.119 51.5523 171.119 51.5523C171.119 51.5523 176.114 44.7158 177.434 44.0356C178.754 43.3554 180.825 46.7048 181.765 46.8598C182.705 47.0234 186.143 42.7097 189.466 40.2127C192.79 37.7158 199.01 32.4635 199.646 32.5841C200.283 32.7132 201.128 33.7378 200.985 34.7625C200.843 35.7871 198.155 40.273 194.063 42.0639C194.063 42.0639 189.115 45.1377 186.503 49.3051C186.503 49.3051 187.633 51.0357 188.412 51.096C189.191 51.1563 193.645 48.4699 197.177 47.187C200.71 45.904 203.958 45.0689 204.528 45.2669C205.097 45.4563 204.879 46.6101 204.528 47.385C204.176 48.1513 200.995 50.3986 197.529 51.1649C197.529 51.1649 192.372 53.0247 190.672 54.9448C190.672 54.9448 190.881 56.8648 191.451 57.1834C192.021 57.502 196.256 56.9251 198.868 56.6065C201.479 56.288 204.509 56.6668 204.869 56.994C205.23 57.3126 204.945 58.4061 202.828 59.1121C200.71 59.8181 198.165 59.3704 197.738 59.4307C197.31 59.4909 189.609 61.6693 188.688 62.1859C187.766 62.7025 183.74 68.1614 180.844 69.8232C177.947 71.485 173.778 70.6412 173.778 70.6412C173.778 70.6412 169.134 94.2676 166.874 103.661C164.614 113.055 155.944 122.802 148.404 123.224C148.404 123.224 141.623 120.83 141.243 108.19C140.873 95.5505 145.583 91.5295 145.583 91.5295Z" fill="url(#paint16_linear_130_11557)"/>
<path d="M63.8927 117.767C63.8927 117.767 66.7132 131.139 63.0381 145.621C63.0381 145.621 60.7779 147.024 60.493 148.824C60.493 148.824 60.493 148.841 60.4835 148.858C60.2176 150.641 60.6355 152.285 60.6355 152.285C60.6355 152.285 59.6478 153.181 58.7932 154.464C58.6317 154.705 58.5463 154.989 58.5178 155.299C58.3848 156.625 59.2205 158.304 59.2205 158.304C59.2205 158.304 60.9204 162.282 78.5837 163.685C96.2471 165.097 109.96 168.171 109.96 168.171C109.96 168.171 111.024 164.968 109.077 162.54C109.077 162.54 112.087 160.103 111.945 159.208C111.802 158.312 105.297 148.058 106.988 140.885C108.687 133.713 115.04 127.884 118.583 113.875C118.583 113.875 120.938 113.16 121.08 112.127C121.223 111.103 120.045 109.432 120.045 109.432L119.618 110.164C119.618 110.164 111.565 105.98 113.73 88.2942C115.895 70.6089 118.184 69.5326 122.22 70.0234C122.22 70.0234 119.001 67.3284 118.25 67.3886C117.5 67.4489 117.215 68.706 117.215 68.706C117.215 68.706 114.689 69.6445 111.726 68.706C108.754 67.7675 106.769 65.9766 106.769 65.9766C106.769 65.9766 88.8683 79.7184 81.0148 78.8746C72.0502 77.9103 78.3748 69.016 78.3748 69.016C78.3748 69.016 72.7434 70.0147 69.733 70.6519C66.7132 71.2977 65.5831 70.6519 65.5831 70.6519C65.5831 70.6519 63.7883 68.241 61.4332 69.8512C59.0781 71.4613 56.1626 80.347 57.1028 94.7002C58.0429 109.045 63.8927 117.767 63.8927 117.767Z" fill="url(#paint17_linear_130_11557)"/>
<path d="M94.4718 31.3711C94.4718 31.3711 94.9466 32.6885 94.6997 33.8681C94.4528 35.0563 89.7521 36.2101 87.5109 34.4105C85.2887 32.6196 94.4718 31.3711 94.4718 31.3711Z" fill="#E87A8D"/>
<path d="M0 91.5382C5.8403 105.719 21.8608 135.881 21.8608 135.881C42.9618 139.557 62.7524 136.475 62.7524 136.475L63.8824 134.822C56.5322 114.665 40.7017 88.3868 40.7017 88.3868C21.291 87.4483 0.750211 90.2639 0.750211 90.2639L0 91.5382Z" fill="url(#paint18_linear_130_11557)"/>
<path opacity="0.62" d="M18.7119 112.871C18.7119 112.871 19.6046 122.394 17.1545 126.872L7.51562 107.809L12.1024 108.79L11.5041 110.719C11.5041 110.71 15.3217 110.547 18.7119 112.871Z" fill="url(#paint19_linear_130_11557)"/>
<path d="M8.20689 107.809C8.20689 107.809 6.66847 108.911 6.37408 109.815C6.04171 110.796 5.62386 113.267 8.77667 114.042L10.1916 114.387C10.1916 114.387 9.15653 114.817 8.9666 115.454C8.77667 116.092 9.95422 117.504 11.844 117.848C13.7243 118.193 16.8866 117.504 17.8268 116.737C18.7669 115.971 18.1591 114.903 16.7442 114.602C16.7442 114.602 18.8144 114.18 18.7194 112.871C18.6245 111.563 13.8667 110.159 8.82415 110.581L8.20689 107.809Z" fill="url(#paint20_linear_130_11557)"/>
<path d="M77.9311 32.6352C77.9311 32.6352 77.1714 33.7373 75.481 33.4101C73.7906 33.0915 73.9521 30.431 74.256 29.5011C74.5694 28.5798 77.9026 31.7742 77.9311 32.6352Z" fill="#E87A8D"/>
<path d="M4.38488 101.312C4.38488 101.312 1.83984 103.456 1.83984 104.929C1.83984 106.401 5.58143 108.261 12.02 108.984C12.02 108.984 12.6183 107.856 12.02 106.634C11.4217 105.42 8.20244 103.706 5.55294 103.327L4.38488 101.312Z" fill="url(#paint21_linear_130_11557)"/>
<path d="M11.7974 118.703C11.7974 118.703 16.1658 118.316 15.7859 121.941C15.7859 121.941 13.3453 122.251 11.5505 121.786C9.7557 121.312 9.99311 120.081 10.1356 119.651C10.2875 119.211 10.4394 118.876 11.7974 118.703Z" fill="url(#paint22_linear_130_11557)"/>
<path d="M99.293 28.7463C99.293 28.7463 98.9416 26.6799 96.7099 24.5962C95.105 23.0894 92.0092 21.574 89.844 20.8077C89.844 20.8077 89.5116 21.4449 89.5116 22.6417C89.5116 22.6417 89.1603 21.5138 88.8564 20.4375C88.8564 20.4375 88.3721 21.5052 88.5145 23.5888C88.5145 23.5888 90.4138 24.1915 93.5286 24.9665C97.4222 25.9222 99.293 28.7463 99.293 28.7463Z" fill="url(#paint23_linear_130_11557)"/>
<path d="M78.3751 31.3708C78.3751 31.3708 78.3751 25.9635 76.6467 25.6708C75.1938 25.4211 74.5195 28.4691 74.5195 28.4691L78.3751 31.3708Z" fill="#77485E"/>
<path d="M94.7014 32.8974C94.7014 32.8974 94.7583 29.1003 91.3301 27.7571C87.9019 26.4139 86.7148 30.7707 86.7148 30.7707L94.7014 32.8974Z" fill="#77485E"/>
<path d="M86.3576 32.9053C86.4526 33.6975 87.6301 35.1095 90.1752 35.1095C92.4353 35.1095 94.705 34.0849 94.6955 32.9053C94.6955 32.492 94.572 32.0443 94.3631 31.5966C93.9073 30.6064 92.9861 29.6163 91.875 29.0222C91.1248 28.6261 90.2891 28.4108 89.425 28.4883C86.69 28.7466 86.2722 32.1218 86.3576 32.9053Z" fill="url(#paint24_linear_130_11557)"/>
<path d="M74.2161 30.2142C74.1781 31.9706 75.0233 33.3138 76.4952 33.288C77.1125 33.2708 77.4923 33.1158 77.7677 32.8489C77.9957 32.6164 78.1286 32.2978 78.2331 31.919C78.2805 31.7468 78.3375 31.566 78.385 31.3679C78.385 31.3679 78.2236 29.7148 77.7393 28.3544C77.6253 28.053 77.5113 27.7775 77.3784 27.545C77.141 27.1231 76.8466 26.8045 76.4952 26.6926C75.3462 26.3137 74.2446 28.4491 74.2161 30.2142Z" fill="url(#paint25_linear_130_11557)"/>
<path d="M181.773 46.8607C181.773 46.8607 183.901 49.461 186.465 53.6455C188.554 57.0552 188.706 62.1868 188.706 62.1868C188.706 62.1868 191.678 60.9728 193.302 60.6456C194.926 60.3184 189.342 52.509 189.342 52.509L182.998 46.1719L181.773 46.8607Z" fill="url(#paint26_linear_130_11557)"/>
<path d="M88.4961 31.6543C88.4961 33.1267 89.8066 34.3149 91.44 34.3149C93.0638 34.3149 94.3839 33.1267 94.3839 31.6543C94.3839 31.6371 94.3838 31.6027 94.3743 31.5855C93.9185 30.5953 92.9974 29.6051 91.8863 29.011C91.7439 28.9938 91.5919 28.9766 91.44 28.9766C89.8066 28.9852 88.4961 30.182 88.4961 31.6543Z" fill="url(#paint27_radial_130_11557)"/>
<path d="M89.3984 31.652C89.3984 32.6766 90.3101 33.5032 91.4401 33.5032C92.5702 33.5032 93.4819 32.6766 93.4819 31.652C93.4819 30.6274 92.5702 29.8008 91.4401 29.8008C90.3101 29.8094 89.3984 30.636 89.3984 31.652Z" fill="url(#paint28_linear_130_11557)"/>
<path d="M75.4766 30.2082C75.4766 31.6806 76.3692 32.8688 77.4803 32.8688C77.5753 32.8688 77.6702 32.8601 77.7652 32.8429C77.9931 32.6105 78.126 32.2919 78.2305 31.913C78.278 31.7408 78.335 31.56 78.3824 31.362C78.3824 31.362 78.221 29.7088 77.7367 28.3484C77.6227 28.0471 77.5088 27.7715 77.3758 27.5391C76.3122 27.6166 75.4766 28.7875 75.4766 30.2082Z" fill="url(#paint29_radial_130_11557)"/>
<path d="M197.525 51.1668C197.525 51.1668 195.55 51.804 194.666 51.6146C193.783 51.4251 193.327 49.6773 193.327 49.462C193.327 49.2467 195.863 47.7141 195.863 47.7141L192.663 49.1779L189.519 45.8113C189.519 45.8113 191.276 43.7448 193.774 42.2553C193.774 42.2553 191.21 43.6587 190.431 43.1507C189.652 42.6341 189.329 41.6784 189.329 41.1962C189.329 40.714 191.95 38.2773 191.95 38.2773C191.95 38.2773 188.009 41.2048 187.677 41.6956C187.354 42.1864 189.538 49.2898 189.538 49.2898L193.802 52.7855C193.802 52.7942 196.357 51.7093 197.525 51.1668Z" fill="url(#paint30_linear_130_11557)"/>
<path d="M76.3047 30.2083C76.3047 31.2329 76.922 32.0509 77.6912 32.0509C77.8811 32.0509 78.0615 31.9992 78.2325 31.9045C78.2799 31.7323 78.3369 31.5515 78.3844 31.3534C78.3844 31.3534 78.223 29.7003 77.7387 28.3398H77.6912C76.9315 28.3571 76.3047 29.1923 76.3047 30.2083Z" fill="url(#paint31_linear_130_11557)"/>
<path d="M77.6687 20.7539C77.6687 20.7539 79.2451 28.3567 78.381 32.2399C78.381 32.2399 78.8938 26.3936 76.9375 22.2349L77.6687 20.7539Z" fill="#E87A8D"/>
<path d="M77.9742 23.6086C77.9742 23.6086 77.7843 21.0428 77.3664 18.8644L77.0815 19.7598L76.2553 17.8828C76.2553 17.8828 74.1282 19.0538 75.4292 21.568C75.4386 21.5766 76.7966 21.4302 77.9742 23.6086Z" fill="url(#paint32_linear_130_11557)"/>
<path d="M86.2031 42.2188C86.2031 42.2188 86.0227 43.958 82.49 44.9396C78.9574 45.9212 75.9375 45.3184 74.8359 44.2077C74.8359 44.2077 75.9755 45.4476 78.0457 45.792C80.1159 46.1364 83.2592 45.6887 84.7312 44.6641C86.3551 43.5361 86.6874 42.5287 86.6874 42.5287L86.2031 42.2188Z" fill="#E87A8D"/>
<path d="M87.7322 42.951C87.7322 42.951 86.0133 42.1502 84.4844 41.9178C84.4844 41.9178 86.1083 41.6422 86.868 41.8144C87.6182 41.9866 87.7322 42.951 87.7322 42.951Z" fill="#E37E7F"/>
<path d="M84.0957 38.2268C84.0957 38.2268 81.6456 38.2268 79.3855 38.356C77.1253 38.4851 75.0456 38.2268 74.2004 37.6758C74.2004 37.6758 74.058 40.0694 76.8879 41.5245C76.8879 41.5245 78.018 41.912 79.1955 41.5245C79.1955 41.5245 80.2781 40.4569 82.3009 40.1125C82.3104 40.1039 84.1907 39.5959 84.0957 38.2268Z" fill="url(#paint33_linear_130_11557)"/>
<path d="M79.62 34.3268C82.5449 34.697 84.0928 38.2272 84.0928 38.2272L78.5849 39.0796C76.0873 38.9504 74.207 37.6675 74.207 37.6675C74.207 37.6675 76.6951 33.9565 79.62 34.3268Z" fill="url(#paint34_linear_130_11557)"/>
<path d="M82.4813 40.0477C82.4813 40.0477 82.2059 39.8152 81.3037 39.8669C80.4015 39.9185 79.5469 41.2359 79.5469 41.2359C79.5469 41.2359 80.4775 40.461 82.4813 40.0477Z" fill="#9F4A8B"/>
<path d="M183.394 33.4843L192.558 48.9396C192.558 48.9396 194.923 57.8942 199.31 61.4158C199.31 61.4158 199.823 63.1292 198.551 65.7123L179.254 33.1829C179.254 33.1915 181.562 32.3047 183.394 33.4843Z" fill="url(#paint35_linear_130_11557)"/>
<path d="M177.236 36.4813L186.4 51.9366C186.4 51.9366 193.333 58.6612 194.159 63.922C194.159 63.922 195.46 65.2566 198.537 65.713L179.24 33.1836C179.25 33.1922 177.16 34.4407 177.236 36.4813Z" fill="url(#paint36_linear_130_11557)"/>
<path d="M198.908 64.8945L197.578 65.5403C197.578 65.5403 198.708 66.8318 199.088 66.6424C199.477 66.453 198.908 64.8945 198.908 64.8945Z" fill="url(#paint37_linear_130_11557)"/>
<path d="M199.306 61.4254L194.169 63.931C194.169 63.931 193.57 59.4278 186.41 51.9456L192.554 48.9492C192.554 48.9492 193.979 55.8804 199.306 61.4254Z" fill="url(#paint38_linear_130_11557)"/>
<path d="M175.934 45.4542C175.934 45.4542 178.944 42.0704 181.584 38.3078C184.224 34.5451 188.982 28.4835 190.606 29.1207C192.229 29.7578 190.815 33.6066 189.333 36.0433C187.852 38.48 185.943 39.3754 185.088 40.6584C184.243 41.9413 181.764 46.8577 181.764 46.8577C181.764 46.8577 177.937 47.6843 175.934 45.4542Z" fill="url(#paint39_linear_130_11557)"/>
<path d="M35.3152 137.412C35.3152 137.412 36.5117 142.595 35.9989 142.914C35.4766 143.233 32.7227 137.223 32.7227 137.223L35.3152 137.412Z" fill="url(#paint40_linear_130_11557)"/>
<path d="M104.319 41.2832C104.319 41.2832 108.992 37.0642 111.774 39.4492C115.088 42.282 112.743 48.5158 109.077 51.2108C105.896 53.5527 102.468 52.9328 101.755 50.1431C101.774 50.1431 100.796 43.849 104.319 41.2832Z" fill="url(#paint41_linear_130_11557)"/>
<path d="M104.443 45.2458C104.443 45.2458 107.187 42.327 109.457 43.0761C111.726 43.8252 111.071 47.1057 111.071 47.1057C111.071 47.1057 111.043 44.712 109.571 44.3504C108.099 43.9888 107.197 45.7194 107.197 45.7194C107.197 45.7194 107.985 45.7797 107.956 47.8031C107.928 49.8265 105.326 51.7035 104.291 50.2742C103.265 48.8363 104.443 45.2458 104.443 45.2458Z" fill="#E87A8D"/>
<path d="M88.0625 31.8188C88.0625 32.0685 88.2809 32.2666 88.5563 32.2666C88.8317 32.2666 89.0501 32.0685 89.0501 31.8188C89.0501 31.5691 88.8317 31.3711 88.5563 31.3711C88.2809 31.3711 88.0625 31.5691 88.0625 31.8188Z" fill="white"/>
<path d="M74.8359 30.2571C74.8359 30.5068 75.0638 30.7135 75.3392 30.7135C75.6146 30.7135 75.8425 30.5068 75.8425 30.2571C75.8425 30.0074 75.6146 29.8008 75.3392 29.8008C75.0638 29.8094 74.8359 30.0074 74.8359 30.2571Z" fill="white"/>
<path d="M99.4918 57.1577C99.4918 57.1577 92.1511 70.0902 79.3594 68.9365C79.3594 68.9365 80.499 64.3989 80.3755 61.1701C80.3755 61.1701 86.3298 61.0237 90.7456 59.3705C95.7217 57.5021 99.4823 52.7148 99.4823 52.7148L99.4918 57.1577Z" fill="url(#paint42_linear_130_11557)"/>
<path d="M175.929 64.2771C179.395 65.1725 185.843 62.4087 186.403 59.7481C186.963 57.0876 182.614 49.8808 178.73 50.3286C174.846 50.7763 172.975 53.3766 173.782 55.7099C174.704 58.3963 173.944 63.7691 175.929 64.2771Z" fill="url(#paint43_linear_130_11557)"/>
<path d="M171.117 51.5524C171.117 51.5524 174.982 57.3815 174.631 62.186C174.631 62.186 175.647 55.2289 172.038 50.3125L171.117 51.5524Z" fill="url(#paint44_linear_130_11557)"/>
<path d="M173.789 70.6406C173.789 70.6406 170.181 70.0034 168.699 69.0391L172.944 74.8768C172.944 74.8768 173.514 72.552 173.789 70.6406Z" fill="url(#paint45_linear_130_11557)"/>
<path d="M148.552 92.4353C148.552 92.4353 146.035 95.1303 144.354 105.721C142.683 116.311 147.289 122.623 147.289 122.623C147.289 122.623 142.617 121.822 141.23 109.432C139.834 97.0418 145.589 91.5312 145.589 91.5312L148.552 92.4353Z" fill="url(#paint46_linear_130_11557)"/>
<path opacity="0.62" d="M59.2195 158.291C59.2195 158.291 60.9193 162.269 78.5827 163.673C96.246 165.085 109.959 168.158 109.959 168.158C109.959 168.158 111.022 164.955 109.076 162.527C109.076 162.527 112.086 160.091 111.944 159.195C111.801 158.3 105.296 148.045 106.986 140.873C108.686 133.7 115.039 127.871 118.582 113.863C118.582 113.863 120.937 113.148 121.079 112.115C121.222 111.09 120.044 109.42 120.044 109.42L119.617 110.152C119.617 110.152 111.564 105.967 113.729 88.2816C115.894 70.5962 118.183 69.5199 122.219 70.0107C122.219 70.0107 118.999 67.3157 118.249 67.376C118.249 67.376 113.463 70.6393 110.158 88.1783C107.395 102.867 102.789 112.037 102.789 112.037C102.789 112.037 93.7295 115.111 83.103 114.792C72.4955 114.474 73.578 113.26 64.2621 113.871C64.2621 113.871 84.385 115.817 92.0106 117.074C99.6362 118.331 106.607 120.949 106.607 120.949C106.607 120.949 100.14 134.604 101.203 143.697C101.963 150.206 104.593 155.648 104.593 155.648C104.593 155.648 103.264 156.121 90.2918 155.613C77.3196 155.097 60.5015 148.82 60.5015 148.82C60.5015 148.82 60.5015 148.837 60.492 148.854C60.435 149.121 60.1216 150.921 60.6439 152.281C60.6439 152.281 73.597 154.847 85.5625 156.896C97.528 158.946 104.593 162.278 104.593 162.278C104.593 162.278 102.153 163.518 83.5113 161.675C64.8698 159.841 59.4759 158.713 58.5357 155.278L58.5262 155.295C58.3933 156.621 59.2195 158.291 59.2195 158.291Z" fill="url(#paint47_linear_130_11557)"/>
<path opacity="0.62" d="M109.086 117.771C109.086 117.771 106.873 115.093 101.764 114.344C96.6547 113.595 88.5637 115.377 83.5781 115.369C83.5781 115.369 97.5094 117.762 102.789 118.442C108.079 119.123 109.086 117.771 109.086 117.771Z" fill="url(#paint48_linear_130_11557)"/>
<path opacity="0.62" d="M65.593 70.6406C65.593 70.6406 60.503 78.717 59.5628 95.9718C59.5628 95.9718 58.7176 82.3247 63.9027 69.418C63.8932 69.418 64.7099 69.616 65.593 70.6406Z" fill="url(#paint49_linear_130_11557)"/>
<path opacity="0.62" d="M66.293 77.9062C66.293 77.9062 67.8409 88.0404 79.9298 102.557C79.9298 102.557 72.0193 96.7454 69.2464 91.1057C66.293 85.1216 66.293 77.9062 66.293 77.9062Z" fill="url(#paint50_linear_130_11557)"/>
<path opacity="0.62" d="M96.3296 142.934C96.3296 142.934 92.8159 148.091 85.1808 149.374C77.5457 150.657 67.375 148.263 67.375 148.263C67.375 148.263 77.1753 149.805 84.5255 147.583C91.8758 145.353 96.3296 142.934 96.3296 142.934Z" fill="url(#paint51_linear_130_11557)"/>
<path opacity="0.5" d="M121.408 103.066C121.408 103.066 115.691 100.922 113.488 97.0391C113.488 97.0391 113.83 106.657 119.623 110.161C119.623 110.161 121.066 106.261 121.408 103.066Z" fill="url(#paint52_linear_130_11557)"/>
<path opacity="0.62" d="M82.3627 192.483L79.3429 181.995C79.3429 181.995 74.1009 174.995 65.6016 171.801L73.9774 183.648L82.3627 192.483Z" fill="url(#paint53_linear_130_11557)"/>
<path opacity="0.62" d="M115.907 236.06C116.097 234.261 114.549 225.47 112.289 205.124C110.086 185.294 110.846 181.282 110.865 180.895C111.302 185.94 111.891 192.217 112.66 198.063C114.502 212.107 121.425 233.305 123.258 236.413C125.1 239.521 130.893 247.848 132.165 253.401C135.166 272.034 134.577 294.833 134.577 294.833L120.694 302.479C128.034 299.302 134.169 298.019 137.445 297.528C138.499 300.8 140.009 307.654 140.009 307.654L138.974 309.376L134.198 305.433C130.969 306.044 119.231 311.959 119.231 311.959L116.648 316.523C116.002 313.44 115.613 304.692 115.613 304.692L117.997 301.885C116.781 287.704 112.137 265.662 109.241 252.824C108.605 250.603 106.24 242.526 105.015 240.322C105.015 240.322 102.47 239.108 101.207 237.756C106.487 242.182 115.718 237.86 115.907 236.06Z" fill="url(#paint54_linear_130_11557)"/>
<path opacity="0.62" d="M49.2374 299.377L67.9169 304.173C65.2864 300.91 53.2639 297.569 53.2639 297.569C57.3379 280.762 58.6959 251.005 58.7719 240.527C58.7529 240.415 58.7244 240.303 58.7054 240.208C58.2875 238.495 57.5278 237.005 56.9201 235.016C59.3891 239.889 69.1135 237.823 72.6936 231.701C74.346 228.877 81.6582 195.633 82.3135 192.68C81.8102 195.426 75.9984 227.482 77.081 236.781C78.211 246.511 79.1512 249.524 79.9109 253.416H79.8634C80.2338 254.871 80.4807 255.81 80.4807 255.81C80.1008 269.164 73.1304 300.764 73.2539 301.504C73.3868 302.245 75.4476 303.967 75.3146 305.034C75.1912 306.102 72.4847 313.093 72.4847 313.093C62.9313 306.817 50.9373 306.928 50.9373 306.928L49.5888 308.539C49.5983 308.539 49.152 302.339 49.2374 299.377Z" fill="url(#paint55_linear_130_11557)"/>
<path d="M0 91.5382C28.5557 88.206 40.1604 89.7473 40.1604 89.7473C50.3785 105.607 62.7524 136.475 62.7524 136.475L63.8824 134.822C56.5322 114.665 40.7017 88.3868 40.7017 88.3868C21.291 87.4483 0.750211 90.2639 0.750211 90.2639L0 91.5382Z" fill="url(#paint56_linear_130_11557)"/>
<path d="M10.1835 114.387C10.1835 114.387 13.9061 114.774 16.7361 114.602C16.7361 114.602 12.852 115.248 9.69922 114.645L10.1835 114.387Z" fill="url(#paint57_linear_130_11557)"/>
<path opacity="0.83" d="M106.674 71.9922C106.655 72.0442 106.636 72.0962 106.617 72.1481C106.646 72.0788 106.665 72.0182 106.674 71.9922Z" fill="url(#paint58_linear_130_11557)"/>
<path d="M104.594 155.64C104.594 155.64 97.6992 155.847 83.502 153.557C68.4027 151.12 63.0372 145.609 63.0372 145.609C63.0372 145.609 60.872 146.892 60.4922 148.812C60.4922 148.812 73.2934 153.712 83.502 154.917C93.7107 156.122 102.523 156.209 104.594 155.64Z" fill="url(#paint59_linear_130_11557)"/>
<path d="M89.8945 162.233C89.8945 162.233 81.3478 160.984 71.8039 158.875C62.26 156.757 58.7938 154.449 58.7938 154.449C58.7938 154.449 57.2173 157.23 63.485 158.832C69.7621 160.442 89.8945 162.233 89.8945 162.233Z" fill="url(#paint60_linear_130_11557)"/>
<path opacity="0.5" d="M51.1847 110.192L20.4258 133.146L21.8692 135.876C21.8692 135.876 41.2799 139.501 62.7609 136.47L63.8909 134.817C63.8909 134.817 56.9585 117.992 52.2958 109.262L51.1847 110.192Z" fill="url(#paint61_linear_130_11557)"/>
<path opacity="0.62" d="M110.092 188C110.092 188 112.02 202.732 108.668 218.42L110.092 188Z" fill="url(#paint62_linear_130_11557)"/>
<path opacity="0.62" d="M78.454 191.588C78.454 191.588 73.2215 211.391 68.9766 219.812C68.9766 219.812 77.3239 208.877 80.3533 201.49L82.319 192.681L79.9259 183.219L78.454 191.588Z" fill="url(#paint63_linear_130_11557)"/>
<path d="M78.3755 69.0064L79.3631 68.9375C79.3631 68.9375 77.3214 71.8994 76.9036 74.3275C76.4762 76.7642 78.2616 78.3312 81.025 78.8651C81.025 78.8651 76.5807 78.6326 76.0109 75.8515C75.4411 73.079 78.3755 69.0064 78.3755 69.0064Z" fill="url(#paint64_linear_130_11557)"/>
<path d="M110.047 18.573C110.047 18.573 114.786 21.0441 114.928 24.316C115.07 27.5879 112.022 29.6888 112.022 29.6888L111.604 27.9237C111.604 27.9237 109.268 28.2681 107.084 27.5448C104.89 26.8216 103.884 26.0036 103.884 26.0036C103.884 26.0036 106.666 24.5226 106.733 22.0515C106.799 19.5804 101.984 15.1289 101.984 15.1289L106.305 15.5852C106.296 15.5766 109.05 17.5742 110.047 18.573Z" fill="url(#paint65_linear_130_11557)"/>
<path opacity="0.84" d="M87.7095 15.4122C87.7095 15.4122 83.3697 11.1415 82.496 8.1538C81.6223 5.16606 85.1075 3.71094 85.1075 3.71094C85.1075 3.71094 83.873 4.95081 84.1199 7.8094C84.3478 10.668 87.7095 15.4122 87.7095 15.4122Z" fill="url(#paint66_linear_130_11557)"/>
<path opacity="0.84" d="M101.195 14.5777C101.195 14.5777 96.7787 7.55174 92.6383 7.46564C88.4979 7.37954 87.2823 14.3021 87.7096 15.4129C87.7096 15.4129 87.8331 12.6748 92.9802 12.5371C98.1177 12.3993 101.195 14.5777 101.195 14.5777Z" fill="url(#paint67_linear_130_11557)"/>
<path opacity="0.84" d="M78.3074 13.2389C78.3074 13.2389 76.0377 10.6042 75.6199 9.64844C75.6199 9.64844 75.0501 11.9646 74.9456 13.6263C74.9456 13.6263 74.6132 14.4013 77.4432 14.7801L78.3074 13.2389Z" fill="url(#paint68_linear_130_11557)"/>
<path opacity="0.62" d="M108.114 39.0015L100.545 33.2844C100.545 33.2844 100.26 38.7088 95.0278 39.6731C89.7953 40.6375 85.9018 39.0876 84.4678 36.0913C83.0433 33.0949 82.7774 28.9362 82.7774 28.9362C82.7774 28.9362 82.4261 28.454 80.7547 28.4713C79.0833 28.4885 78.3711 29.0826 78.3711 29.0826V26.4995C78.3711 26.4995 81.8373 26.0174 83.3377 27.1195C83.3377 27.1195 82.8249 35.4369 86.0917 37.4948C89.3585 39.5526 92.1409 39.8195 95.6356 38.2094C98.3421 36.9609 99.4816 33.0002 98.6364 30.7099L101.172 31.1749L108.427 38.8982L108.114 39.0015Z" fill="url(#paint69_linear_130_11557)"/>
<path d="M83.8613 35.8304C85.2953 37.8108 87.7264 39.3348 92.9019 38.4049C97.3273 37.6128 100.907 32.0678 98.1155 29.2695C95.3235 26.4712 85.3713 24.8352 83.9373 26.5659C82.6553 28.1243 82.3419 33.7382 83.8613 35.8304ZM84.4786 27.0136C85.8841 25.6704 97.3937 27.1944 98.2389 30.716C99.0841 34.2376 95.295 37.3717 93.0729 37.9055C89.4642 38.7751 85.1813 37.7936 84.0133 34.8747C82.8452 31.9472 83.3485 28.0985 84.4786 27.0136Z" fill="url(#paint70_linear_130_11557)"/>
<path d="M83.5951 35.807C85.0291 37.7874 87.4602 39.3114 92.6357 38.3815C97.061 37.5893 100.641 32.0444 97.8492 29.246C95.0573 26.4477 85.105 24.8118 83.6711 26.5424C82.3796 28.1009 82.0757 33.7147 83.5951 35.807ZM84.2124 26.9816C85.6178 25.6384 97.1275 27.1624 97.9727 30.6839C98.8179 34.2055 95.0288 37.3396 92.8066 37.8735C89.198 38.7431 84.9151 37.7615 83.7471 34.8427C82.579 31.9238 83.0728 28.0664 84.2124 26.9816Z" fill="url(#paint71_linear_130_11557)"/>
<path d="M72.6377 35.7708C73.2169 36.1411 75.1447 36.5285 76.4932 34.8926C78.6394 32.3095 79.0667 26.1618 78.2785 25.6538C77.0725 24.8703 72.2293 24.3881 71.3841 25.6538C70.539 26.9195 71.0328 34.7462 72.6377 35.7708ZM71.9159 25.9896C73.046 24.8617 76.9965 25.1889 77.7847 26.2651C78.7249 27.5567 77.4429 33.5236 75.9899 34.7376C74.3755 36.0894 72.7326 35.7019 72.0679 34.0402C71.2987 32.1029 70.7859 27.1176 71.9159 25.9896Z" fill="url(#paint72_linear_130_11557)"/>
<path d="M72.3346 35.7708C72.9138 36.1411 74.8416 36.5285 76.1901 34.8926C78.3363 32.3095 78.7636 26.1618 77.9754 25.6538C76.7694 24.8703 71.9262 24.3881 71.081 25.6538C70.2453 26.9195 70.7392 34.7462 72.3346 35.7708ZM71.6128 25.9896C72.7429 24.8617 76.6934 25.1889 77.4816 26.2651C78.4218 27.5567 77.1398 33.5236 75.6868 34.7376C74.0724 36.0894 72.4295 35.7019 71.7648 34.0402C71.0051 32.1029 70.4828 27.1176 71.6128 25.9896Z" fill="url(#paint73_linear_130_11557)"/>
<path d="M83.1966 27.4056C83.1966 27.4056 81.0219 25.9332 78.3344 26.9837C78.3344 26.9837 78.3914 26.4585 78.2109 26.0882C78.2109 26.0882 80.1197 25.5716 83.8234 26.381C83.8329 26.3896 83.32 27.0956 83.1966 27.4056Z" fill="url(#paint74_linear_130_11557)"/>
<path d="M98.6562 29.9648L101.192 30.7053L109.473 38.7214C109.473 38.7214 109.188 38.6439 108.447 38.9022L101.03 31.7902C101.03 31.7902 99.8053 31.2047 98.9411 31.3683C98.9506 31.3683 98.9886 30.4384 98.6562 29.9648Z" fill="url(#paint75_linear_130_11557)"/>
<path d="M102.17 31.6484L102.094 32.8022L103.794 34.4295L103.87 33.3016L102.17 31.6484Z" fill="url(#paint76_linear_130_11557)"/>
<path d="M83.1785 26.2496L82.7417 26.6629C82.7417 26.6629 81.4597 26.4046 80.2346 26.396C79.0096 26.3874 78.7057 26.5166 78.7057 26.5166L78.3828 26.0516C78.3828 26.0602 80.548 25.6297 83.1785 26.2496Z" fill="#D7E2FF"/>
<path d="M77.2527 25.3329L76.9868 25.6515C76.9868 25.6515 75.268 24.7302 72.457 25.3329L72.533 24.9713C72.533 24.9713 74.8881 24.5838 77.2527 25.3329Z" fill="#D7E2FF"/>
<path d="M88.0596 26.2961L87.9266 25.9345C87.9266 25.9345 84.7548 25.6331 83.8906 26.4339C83.0265 27.2346 82.7891 28.9395 82.7891 28.9395L83.1784 28.9911C83.1784 28.9911 83.4823 27.183 84.4414 26.6577C85.4196 26.1067 88.0596 26.2961 88.0596 26.2961Z" fill="#D7E2FF"/>
<path d="M95.0398 36.7664C95.0398 36.7664 93.3684 38.6521 89.5508 38.3679C85.7333 38.0752 84.1094 35.5352 84.1094 35.5352C84.1094 35.5352 85.9137 38.101 89.6458 38.2043C93.3684 38.3077 95.0398 36.7664 95.0398 36.7664Z" fill="#D7D9FF"/>
<path d="M75.6987 34.7368C75.6987 34.7368 74.6636 35.7872 73.4955 35.6409C72.3275 35.4945 71.8906 34.2891 71.8906 34.2891C71.8906 34.2891 72.5554 35.5203 73.7899 35.4514C75.0339 35.3998 75.6987 34.7368 75.6987 34.7368Z" fill="#D7D9FF"/>
<path d="M90.975 38.1816C90.975 38.1816 90.6806 38.3882 89.8544 38.4054C89.0282 38.4227 88.1641 38.0352 88.1641 38.0352C88.1641 38.0352 89.788 38.2677 90.975 38.1816Z" fill="#D7D9FF"/>
<path d="M74.8146 35.3393C74.8146 35.3393 73.9029 35.6407 73.1622 35.3393C72.431 35.038 72.2695 34.7969 72.2695 34.7969C72.2695 34.7969 72.298 35.5546 73.2002 35.6579C74.1023 35.7526 74.8146 35.3393 74.8146 35.3393Z" fill="#D7D9FF"/>
<path d="M93.8904 37.607C93.8904 37.607 94.0329 34.8345 90.4052 32.8972C86.7776 30.9599 83.4348 32.6044 83.4348 32.6044C83.4348 32.6044 83.3209 35.0153 85.2677 36.6771C87.2334 38.3388 91.4878 38.4335 93.8904 37.607Z" fill="#D7D9FF"/>
<path d="M76.4429 33.6758C76.4429 33.6758 74.0023 30.8517 71.2578 29.9648C71.2578 29.9648 71.3148 33.7792 72.2644 34.7952C73.2236 35.8112 75.0374 36.1384 76.4429 33.6758Z" fill="#D7D9FF"/>
<path d="M97.8694 31.5676C97.8694 31.5676 97.48 33.8149 96.0651 35.0203L94.6406 34.7103C94.6406 34.7103 95.7422 30.8271 95.7707 28.8984C95.7707 28.8984 97.5845 29.88 97.8694 31.5676Z" fill="url(#paint77_linear_130_11557)"/>
<path d="M73.1094 59.433C73.3753 59.7258 73.6602 59.9496 73.9641 60.0874C78.209 62.0591 89.5097 61.5425 95.6349 56.6691C97.9615 54.8179 99.7089 52.5965 101.095 50.332C100.801 50.6764 97.6671 55.5326 90.2599 58.2104C82.5203 61.0087 73.6507 60.1391 73.1094 59.433Z" fill="url(#paint78_linear_130_11557)"/>
<defs>
<linearGradient id="paint0_linear_130_11557" x1="32.9094" y1="234.549" x2="32.9094" y2="142.912" gradientUnits="userSpaceOnUse">
<stop stop-color="#1C257B"/>
<stop offset="1" stop-color="#482C83"/>
</linearGradient>
<linearGradient id="paint1_linear_130_11557" x1="50.0463" y1="146.299" x2="50.0463" y2="72.2264" gradientUnits="userSpaceOnUse">
<stop stop-color="#744FD8"/>
<stop offset="1" stop-color="#3996F7"/>
</linearGradient>
<linearGradient id="paint2_linear_130_11557" x1="52.1263" y1="146.171" x2="52.1263" y2="72.2264" gradientUnits="userSpaceOnUse">
<stop stop-color="#9D68C2"/>
<stop offset="1" stop-color="#CCEDFF"/>
</linearGradient>
<linearGradient id="paint3_linear_130_11557" x1="94.6111" y1="316.544" x2="94.6111" y2="157.74" gradientUnits="userSpaceOnUse">
<stop stop-color="#1C257B"/>
<stop offset="1" stop-color="#482C83"/>
</linearGradient>
<linearGradient id="paint4_linear_130_11557" x1="83.5115" y1="192.487" x2="83.5115" y2="157.738" gradientUnits="userSpaceOnUse">
<stop stop-color="#8B8BE0"/>
<stop offset="1" stop-color="#A177B7"/>
</linearGradient>
<linearGradient id="paint5_linear_130_11557" x1="34.7502" y1="143.685" x2="34.7502" y2="131.512" gradientUnits="userSpaceOnUse">
<stop offset="0.016" stop-color="#FFC2A9"/>
<stop offset="1" stop-color="#FF9595"/>
</linearGradient>
<linearGradient id="paint6_linear_130_11557" x1="84.1721" y1="169.057" x2="84.1721" y2="157.486" gradientUnits="userSpaceOnUse">
<stop stop-color="#D1C8F8"/>
<stop offset="1" stop-color="#EEE5F9"/>
</linearGradient>
<linearGradient id="paint7_linear_130_11557" x1="84.3581" y1="169.056" x2="84.3581" y2="157.485" gradientUnits="userSpaceOnUse">
<stop stop-color="#8B8BE0"/>
<stop offset="1" stop-color="#A177B7"/>
</linearGradient>
<linearGradient id="paint8_linear_130_11557" x1="11.8607" y1="120.942" x2="11.8607" y2="117.066" gradientUnits="userSpaceOnUse">
<stop offset="0.016" stop-color="#FFA58B"/>
<stop offset="1" stop-color="#FF898E"/>
</linearGradient>
<linearGradient id="paint9_linear_130_11557" x1="131.357" y1="124.24" x2="131.357" y2="69.8405" gradientUnits="userSpaceOnUse">
<stop stop-color="#744FD8"/>
<stop offset="1" stop-color="#3996F7"/>
</linearGradient>
<linearGradient id="paint10_linear_130_11557" x1="90.2712" y1="85.1621" x2="90.2712" y2="52.7106" gradientUnits="userSpaceOnUse">
<stop offset="0.016" stop-color="#FFA58B"/>
<stop offset="1" stop-color="#FF898E"/>
</linearGradient>
<linearGradient id="paint11_linear_130_11557" x1="91.1461" y1="81.1727" x2="91.1461" y2="65.9673" gradientUnits="userSpaceOnUse">
<stop stop-color="#D1C8F8"/>
<stop offset="1" stop-color="#EEE5F9"/>
</linearGradient>
<linearGradient id="paint12_linear_130_11557" x1="131.232" y1="124.245" x2="131.232" y2="69.8452" gradientUnits="userSpaceOnUse">
<stop stop-color="#9D68C2"/>
<stop offset="1" stop-color="#CCEDFF"/>
</linearGradient>
<linearGradient id="paint13_linear_130_11557" x1="89.1825" y1="61.1658" x2="89.1825" y2="9.64226" gradientUnits="userSpaceOnUse">
<stop offset="0.016" stop-color="#FFC2A9"/>
<stop offset="1" stop-color="#FF9595"/>
</linearGradient>
<linearGradient id="paint14_linear_130_11557" x1="90.4085" y1="50.1409" x2="90.4085" y2="9.43088" gradientUnits="userSpaceOnUse">
<stop offset="0.016" stop-color="#FFA58B"/>
<stop offset="1" stop-color="#FF898E"/>
</linearGradient>
<linearGradient id="paint15_linear_130_11557" x1="90.8705" y1="40.6515" x2="96.4089" y2="2.08456" gradientUnits="userSpaceOnUse">
<stop stop-color="#D49092"/>
<stop offset="0.1274" stop-color="#D18E92"/>
<stop offset="0.2036" stop-color="#C98991"/>
<stop offset="0.2664" stop-color="#BB7F90"/>
<stop offset="0.3218" stop-color="#A7718F"/>
<stop offset="0.3725" stop-color="#8C5F8D"/>
<stop offset="0.4196" stop-color="#6C498A"/>
<stop offset="0.4631" stop-color="#472F88"/>
<stop offset="0.4721" stop-color="#3E2987"/>
<stop offset="0.6068" stop-color="#352278"/>
<stop offset="0.8455" stop-color="#291762"/>
<stop offset="1" stop-color="#24135A"/>
</linearGradient>
<linearGradient id="paint16_linear_130_11557" x1="173.119" y1="123.229" x2="173.119" y2="32.5824" gradientUnits="userSpaceOnUse">
<stop offset="0.016" stop-color="#FFC2A9"/>
<stop offset="1" stop-color="#FF9595"/>
</linearGradient>
<linearGradient id="paint17_linear_130_11557" x1="89.5767" y1="168.166" x2="89.5767" y2="65.9704" gradientUnits="userSpaceOnUse">
<stop stop-color="#744FD8"/>
<stop offset="1" stop-color="#3996F7"/>
</linearGradient>
<linearGradient id="paint18_linear_130_11557" x1="31.9483" y1="137.677" x2="31.9483" y2="88.1834" gradientUnits="userSpaceOnUse">
<stop stop-color="#1C257B"/>
<stop offset="1" stop-color="#482C83"/>
</linearGradient>
<linearGradient id="paint19_linear_130_11557" x1="13.1968" y1="126.869" x2="13.1968" y2="107.805" gradientUnits="userSpaceOnUse">
<stop stop-color="#8B8BE0"/>
<stop offset="1" stop-color="#A177B7"/>
</linearGradient>
<linearGradient id="paint20_linear_130_11557" x1="12.4278" y1="117.934" x2="12.4278" y2="107.805" gradientUnits="userSpaceOnUse">
<stop offset="0.016" stop-color="#FFC2A9"/>
<stop offset="1" stop-color="#FF9595"/>
</linearGradient>
<linearGradient id="paint21_linear_130_11557" x1="7.06211" y1="108.985" x2="7.06211" y2="101.312" gradientUnits="userSpaceOnUse">
<stop offset="0.016" stop-color="#FFC2A9"/>
<stop offset="1" stop-color="#FF9595"/>
</linearGradient>
<linearGradient id="paint22_linear_130_11557" x1="12.9304" y1="122.036" x2="12.9304" y2="118.689" gradientUnits="userSpaceOnUse">
<stop offset="0.016" stop-color="#FFC2A9"/>
<stop offset="1" stop-color="#FF9595"/>
</linearGradient>
<linearGradient id="paint23_linear_130_11557" x1="93.8931" y1="28.7426" x2="93.8931" y2="20.4343" gradientUnits="userSpaceOnUse">
<stop stop-color="#1C257B"/>
<stop offset="1" stop-color="#482C83"/>
</linearGradient>
<linearGradient id="paint24_linear_130_11557" x1="90.5236" y1="35.1095" x2="90.5236" y2="28.4713" gradientUnits="userSpaceOnUse">
<stop stop-color="#D0C7F8"/>
<stop offset="1" stop-color="white"/>
</linearGradient>
<linearGradient id="paint25_linear_130_11557" x1="76.2964" y1="33.2858" x2="76.2964" y2="26.6469" gradientUnits="userSpaceOnUse">
<stop stop-color="#D0C7F8"/>
<stop offset="1" stop-color="white"/>
</linearGradient>
<linearGradient id="paint26_linear_130_11557" x1="193.585" y1="54.181" x2="181.77" y2="54.181" gradientUnits="userSpaceOnUse">
<stop stop-color="#CF6074"/>
<stop offset="1" stop-color="#FF817F"/>
</linearGradient>
<radialGradient id="paint27_radial_130_11557" cx="0" cy="0" r="1" gradientUnits="userSpaceOnUse" gradientTransform="translate(91.3452 32.735) rotate(180) scale(2.88082 2.61199)">
<stop stop-color="#CF95FF"/>
<stop offset="1" stop-color="#8161FF"/>
</radialGradient>
<linearGradient id="paint28_linear_130_11557" x1="91.4363" y1="33.5018" x2="91.4363" y2="29.8051" gradientUnits="userSpaceOnUse">
<stop stop-color="#8642A0"/>
<stop offset="1" stop-color="#4E37B7"/>
</linearGradient>
<radialGradient id="paint29_radial_130_11557" cx="0" cy="0" r="1" gradientUnits="userSpaceOnUse" gradientTransform="translate(76.8836 31.29) rotate(180) scale(1.93175 1.75148)">
<stop stop-color="#CF95FF"/>
<stop offset="1" stop-color="#8161FF"/>
</radialGradient>
<linearGradient id="paint30_linear_130_11557" x1="197.526" y1="45.5416" x2="187.641" y2="45.5416" gradientUnits="userSpaceOnUse">
<stop stop-color="#CF6074"/>
<stop offset="1" stop-color="#FF817F"/>
</linearGradient>
<linearGradient id="paint31_linear_130_11557" x1="77.3446" y1="32.0571" x2="77.3446" y2="28.3575" gradientUnits="userSpaceOnUse">
<stop stop-color="#8642A0"/>
<stop offset="1" stop-color="#4E37B7"/>
</linearGradient>
<linearGradient id="paint32_linear_130_11557" x1="76.4951" y1="23.6107" x2="76.4951" y2="17.8927" gradientUnits="userSpaceOnUse">
<stop stop-color="#1C257B"/>
<stop offset="1" stop-color="#482C83"/>
</linearGradient>
<linearGradient id="paint33_linear_130_11557" x1="80.2186" y1="41.2141" x2="78.7673" y2="36.3179" gradientUnits="userSpaceOnUse">
<stop stop-color="#FF8883"/>
<stop offset="1" stop-color="#E8868D"/>
</linearGradient>
<linearGradient id="paint34_linear_130_11557" x1="79.1474" y1="39.0811" x2="79.1474" y2="34.2996" gradientUnits="userSpaceOnUse">
<stop stop-color="#FF8883"/>
<stop offset="1" stop-color="#FFB1A4"/>
</linearGradient>
<linearGradient id="paint35_linear_130_11557" x1="200.087" y1="64.9735" x2="183.567" y2="31.0909" gradientUnits="userSpaceOnUse">
<stop stop-color="#1C257B"/>
<stop offset="1" stop-color="#482C83"/>
</linearGradient>
<linearGradient id="paint36_linear_130_11557" x1="197.009" y1="66.473" x2="180.488" y2="32.5904" gradientUnits="userSpaceOnUse">
<stop stop-color="#1C257B"/>
<stop offset="1" stop-color="#482C83"/>
</linearGradient>
<linearGradient id="paint37_linear_130_11557" x1="199.091" y1="66.6416" x2="198.366" y2="65.1549" gradientUnits="userSpaceOnUse">
<stop stop-color="#1C257B"/>
<stop offset="1" stop-color="#482C83"/>
</linearGradient>
<linearGradient id="paint38_linear_130_11557" x1="196.739" y1="62.677" x2="190.527" y2="49.9359" gradientUnits="userSpaceOnUse">
<stop stop-color="#6A4FAC"/>
<stop offset="1" stop-color="#513689"/>
</linearGradient>
<linearGradient id="paint39_linear_130_11557" x1="183.629" y1="47.0083" x2="183.629" y2="29.0757" gradientUnits="userSpaceOnUse">
<stop offset="0.016" stop-color="#FFA58B"/>
<stop offset="1" stop-color="#FF898E"/>
</linearGradient>
<linearGradient id="paint40_linear_130_11557" x1="34.4241" y1="142.932" x2="34.4241" y2="137.232" gradientUnits="userSpaceOnUse">
<stop stop-color="#1C257B"/>
<stop offset="1" stop-color="#482C83"/>
</linearGradient>
<linearGradient id="paint41_linear_130_11557" x1="105.966" y1="52.8489" x2="108.402" y2="38.4406" gradientUnits="userSpaceOnUse">
<stop offset="0.016" stop-color="#FFAC8B"/>
<stop offset="1" stop-color="#FF9595"/>
</linearGradient>
<linearGradient id="paint42_linear_130_11557" x1="99.4939" y1="60.8599" x2="79.3622" y2="60.8599" gradientUnits="userSpaceOnUse">
<stop stop-color="#CF6074"/>
<stop offset="1" stop-color="#FF817F"/>
</linearGradient>
<linearGradient id="paint43_linear_130_11557" x1="180.023" y1="64.4521" x2="180.023" y2="50.3122" gradientUnits="userSpaceOnUse">
<stop offset="0.016" stop-color="#FF997C"/>
<stop offset="1" stop-color="#FF898E"/>
</linearGradient>
<linearGradient id="paint44_linear_130_11557" x1="174.762" y1="56.2503" x2="171.121" y2="56.2503" gradientUnits="userSpaceOnUse">
<stop stop-color="#CF6074"/>
<stop offset="1" stop-color="#FF817F"/>
</linearGradient>
<linearGradient id="paint45_linear_130_11557" x1="171.242" y1="74.881" x2="171.242" y2="69.0426" gradientUnits="userSpaceOnUse">
<stop stop-color="#CF6074"/>
<stop offset="1" stop-color="#FF817F"/>
</linearGradient>
<linearGradient id="paint46_linear_130_11557" x1="144.781" y1="122.621" x2="144.781" y2="91.535" gradientUnits="userSpaceOnUse">
<stop stop-color="#CF6074"/>
<stop offset="1" stop-color="#FF817F"/>
</linearGradient>
<linearGradient id="paint47_linear_130_11557" x1="90.3676" y1="168.162" x2="90.3676" y2="67.3789" gradientUnits="userSpaceOnUse">
<stop stop-color="#8B8BE0"/>
<stop offset="1" stop-color="#A177B7"/>
</linearGradient>
<linearGradient id="paint48_linear_130_11557" x1="96.3357" y1="118.635" x2="96.3357" y2="114.156" gradientUnits="userSpaceOnUse">
<stop stop-color="#8B8BE0"/>
<stop offset="1" stop-color="#A177B7"/>
</linearGradient>
<linearGradient id="paint49_linear_130_11557" x1="62.5476" y1="95.9754" x2="62.5476" y2="69.4184" gradientUnits="userSpaceOnUse">
<stop stop-color="#8B8BE0"/>
<stop offset="1" stop-color="#A177B7"/>
</linearGradient>
<linearGradient id="paint50_linear_130_11557" x1="73.1096" y1="102.552" x2="73.1096" y2="77.9038" gradientUnits="userSpaceOnUse">
<stop stop-color="#8B8BE0"/>
<stop offset="1" stop-color="#A177B7"/>
</linearGradient>
<linearGradient id="paint51_linear_130_11557" x1="81.8542" y1="149.75" x2="81.8542" y2="142.935" gradientUnits="userSpaceOnUse">
<stop stop-color="#8B8BE0"/>
<stop offset="1" stop-color="#A177B7"/>
</linearGradient>
<linearGradient id="paint52_linear_130_11557" x1="117.449" y1="110.16" x2="117.449" y2="97.0396" gradientUnits="userSpaceOnUse">
<stop stop-color="#9D68C2"/>
<stop offset="1" stop-color="#90AEFF"/>
</linearGradient>
<linearGradient id="paint53_linear_130_11557" x1="73.9821" y1="192.485" x2="73.9821" y2="171.802" gradientUnits="userSpaceOnUse">
<stop stop-color="#8B8BE0"/>
<stop offset="1" stop-color="#A177B7"/>
</linearGradient>
<linearGradient id="paint54_linear_130_11557" x1="120.605" y1="316.544" x2="120.605" y2="180.897" gradientUnits="userSpaceOnUse">
<stop stop-color="#8B8BE0"/>
<stop offset="1" stop-color="#A177B7"/>
</linearGradient>
<linearGradient id="paint55_linear_130_11557" x1="65.7731" y1="313.09" x2="65.7731" y2="192.672" gradientUnits="userSpaceOnUse">
<stop stop-color="#8B8BE0"/>
<stop offset="1" stop-color="#A177B7"/>
</linearGradient>
<linearGradient id="paint56_linear_130_11557" x1="31.9482" y1="136.47" x2="31.9482" y2="88.1834" gradientUnits="userSpaceOnUse">
<stop stop-color="#8642A0"/>
<stop offset="1" stop-color="#6456C0"/>
</linearGradient>
<linearGradient id="paint57_linear_130_11557" x1="16.7332" y1="114.64" x2="9.70083" y2="114.64" gradientUnits="userSpaceOnUse">
<stop stop-color="#CF6074"/>
<stop offset="1" stop-color="#FF817F"/>
</linearGradient>
<linearGradient id="paint58_linear_130_11557" x1="106.645" y1="72.1503" x2="106.645" y2="71.9937" gradientUnits="userSpaceOnUse">
<stop stop-color="#9D68C2"/>
<stop offset="1" stop-color="#CCEDFF"/>
</linearGradient>
<linearGradient id="paint59_linear_130_11557" x1="82.5482" y1="155.978" x2="82.5482" y2="145.614" gradientUnits="userSpaceOnUse">
<stop stop-color="#B9ACF4"/>
<stop offset="1" stop-color="#E1D1F5"/>
</linearGradient>
<linearGradient id="paint60_linear_130_11557" x1="74.2606" y1="162.233" x2="74.2606" y2="154.451" gradientUnits="userSpaceOnUse">
<stop stop-color="#B9ACF4"/>
<stop offset="1" stop-color="#E1D1F5"/>
</linearGradient>
<linearGradient id="paint61_linear_130_11557" x1="42.1596" y1="137.674" x2="42.1596" y2="109.256" gradientUnits="userSpaceOnUse">
<stop stop-color="#B9ACF4"/>
<stop offset="1" stop-color="#E1D1F5"/>
</linearGradient>
<linearGradient id="paint62_linear_130_11557" x1="109.659" y1="218.417" x2="109.659" y2="187.996" gradientUnits="userSpaceOnUse">
<stop stop-color="#8B8BE0"/>
<stop offset="1" stop-color="#A177B7"/>
</linearGradient>
<linearGradient id="paint63_linear_130_11557" x1="75.6497" y1="219.81" x2="75.6497" y2="183.212" gradientUnits="userSpaceOnUse">
<stop stop-color="#8B8BE0"/>
<stop offset="1" stop-color="#A177B7"/>
</linearGradient>
<linearGradient id="paint64_linear_130_11557" x1="78.4776" y1="78.8677" x2="78.4776" y2="68.9374" gradientUnits="userSpaceOnUse">
<stop stop-color="#3D2CB0"/>
<stop offset="1" stop-color="#0355C7"/>
</linearGradient>
<linearGradient id="paint65_linear_130_11557" x1="106.897" y1="28.9552" x2="108.767" y2="15.9334" gradientUnits="userSpaceOnUse">
<stop stop-color="#5E3187"/>
<stop offset="0.3777" stop-color="#422271"/>
<stop offset="0.7555" stop-color="#2C1760"/>
<stop offset="1" stop-color="#24135A"/>
</linearGradient>
<linearGradient id="paint66_linear_130_11557" x1="85.0267" y1="15.4086" x2="85.0267" y2="3.70534" gradientUnits="userSpaceOnUse">
<stop stop-color="#8B8BE0"/>
<stop offset="1" stop-color="#A177B7"/>
</linearGradient>
<linearGradient id="paint67_linear_130_11557" x1="94.4119" y1="15.4092" x2="94.4119" y2="7.46426" gradientUnits="userSpaceOnUse">
<stop stop-color="#8B8BE0"/>
<stop offset="1" stop-color="#A177B7"/>
</linearGradient>
<linearGradient id="paint68_linear_130_11557" x1="76.6193" y1="14.7765" x2="76.6193" y2="9.64448" gradientUnits="userSpaceOnUse">
<stop stop-color="#8B8BE0"/>
<stop offset="1" stop-color="#A177B7"/>
</linearGradient>
<linearGradient id="paint69_linear_130_11557" x1="93.4124" y1="39.9624" x2="93.4124" y2="26.3948" gradientUnits="userSpaceOnUse">
<stop stop-color="#F2C7CC"/>
<stop offset="1" stop-color="#A177B7"/>
</linearGradient>
<linearGradient id="paint70_linear_130_11557" x1="91.865" y1="38.5685" x2="90.4296" y2="25.3988" gradientUnits="userSpaceOnUse">
<stop stop-color="#1C257B"/>
<stop offset="1" stop-color="#482C83"/>
</linearGradient>
<linearGradient id="paint71_linear_130_11557" x1="91.5966" y1="38.5431" x2="90.1605" y2="25.3733" gradientUnits="userSpaceOnUse">
<stop stop-color="#1C257B"/>
<stop offset="1" stop-color="#65459C"/>
</linearGradient>
<linearGradient id="paint72_linear_130_11557" x1="75.8019" y1="35.9155" x2="74.5874" y2="24.7715" gradientUnits="userSpaceOnUse">
<stop stop-color="#1C257B"/>
<stop offset="1" stop-color="#482C83"/>
</linearGradient>
<linearGradient id="paint73_linear_130_11557" x1="75.5031" y1="35.9155" x2="74.2887" y2="24.7715" gradientUnits="userSpaceOnUse">
<stop stop-color="#1C257B"/>
<stop offset="1" stop-color="#65459C"/>
</linearGradient>
<linearGradient id="paint74_linear_130_11557" x1="81.2065" y1="27.6201" x2="81.0033" y2="25.755" gradientUnits="userSpaceOnUse">
<stop stop-color="#1C257B"/>
<stop offset="1" stop-color="#65459C"/>
</linearGradient>
<linearGradient id="paint75_linear_130_11557" x1="104.721" y1="39.3055" x2="103.644" y2="29.4229" gradientUnits="userSpaceOnUse">
<stop stop-color="#1C257B"/>
<stop offset="1" stop-color="#65459C"/>
</linearGradient>
<linearGradient id="paint76_linear_130_11557" x1="102.984" y1="34.4289" x2="102.984" y2="31.65" gradientUnits="userSpaceOnUse">
<stop stop-color="#8642A0"/>
<stop offset="1" stop-color="#6456C0"/>
</linearGradient>
<linearGradient id="paint77_linear_130_11557" x1="96.2533" y1="35.0224" x2="96.2533" y2="28.9015" gradientUnits="userSpaceOnUse">
<stop/>
<stop offset="1" stop-color="#E1D1F5"/>
</linearGradient>
<linearGradient id="paint78_linear_130_11557" x1="87.1036" y1="61.1673" x2="87.1036" y2="50.3404" gradientUnits="userSpaceOnUse">
<stop offset="0.016" stop-color="#FFA58B"/>
<stop offset="1" stop-color="#FF898E"/>
</linearGradient>
</defs>
</svg>
