<svg width="152" height="257" viewBox="0 0 152 257" fill="none" xmlns="http://www.w3.org/2000/svg">
<path d="M78.6838 292.665L79.0593 292.406C78.9185 292.211 64.7893 273.092 34.888 279.512C18.5292 283.019 7.52154 268.798 4.96327 254.632C2.42847 240.627 8.53077 226.126 20.5007 217.861C43.9007 201.688 45.5319 178.091 45.5436 177.854L45.0859 177.832C45.0742 178.069 43.4547 201.472 20.2308 217.516C8.12004 225.878 1.95906 240.541 4.51734 254.718C7.11082 269.057 18.4588 283.504 34.9937 279.955C64.5898 273.6 78.543 292.481 78.6838 292.665Z" fill="url(#paint0_linear_130_11956)"/>
<path d="M45.3281 144.939C45.3281 144.939 47.6517 144.291 48.5788 146.007C49.5059 147.722 52.4279 168.276 51.6065 174.049C50.785 179.832 48.4614 177.695 48.4614 177.695C48.4614 177.695 48.6961 181.116 50.1982 182.087L50.21 182.076C50.2334 182.065 50.2686 182.044 50.3156 182.011C50.3508 181.99 50.3977 181.957 50.4564 181.925H50.4681C51.36 181.385 54.4581 179.497 57.3215 177.695C60.7012 175.548 62.6728 173.725 62.6728 173.725C62.6728 173.725 62.2033 170.305 62.2033 169.344C62.2033 168.373 69.6552 145.575 76.9897 138.508C83.8313 131.926 77.1071 94.8213 76.1682 89.8149L76.0626 89.2539C76.0626 89.2539 70.1246 90.8615 67.5663 92.5879C65.0081 94.3142 55.8077 115.17 55.3383 125.873C54.8689 136.577 50.6794 142.651 50.6794 142.651C50.6794 142.651 49.2829 141.874 46.9476 142.651L45.3281 144.939Z" fill="url(#paint1_linear_130_11956)"/>
<path opacity="0.83" d="M50.4766 181.925C51.3684 181.385 54.4665 179.497 57.3299 177.695C60.7097 175.548 62.6812 173.725 62.6812 173.725C62.6812 173.725 62.2118 170.305 62.2118 169.344C62.2118 168.373 69.6636 145.575 76.9981 138.508C83.8397 131.926 77.1155 94.8213 76.1767 89.8149L76.071 89.2539C76.071 89.2539 71.2361 94.8213 69.1473 105.902C67.0467 116.983 70.0157 138.832 70.0157 138.832C70.0157 138.832 65.8262 156.494 55.5227 156.818C55.5227 156.818 64.1715 168.46 60.7566 174.297C60.0994 175.408 52.0491 180.9 50.4766 181.925Z" fill="url(#paint2_linear_130_11956)"/>
<path d="M61.6814 373.909C61.7284 372.722 61.834 371.859 62.0218 371.633C62.8198 370.705 66.6454 371.633 66.6454 371.633C71.6798 350.571 73.358 313.283 73.4518 300.152C73.4284 300.012 73.3932 299.872 73.3697 299.753C72.8534 297.606 71.9145 295.739 71.1635 293.247V293.236C70.7175 291.79 70.3537 290.129 70.1542 288.079C69.6379 282.5 64.8851 239.342 71.1635 206.014C71.1635 206.014 69.2976 204.816 69.5558 203.511C69.8257 202.205 71.8206 201.795 71.8206 201.795L73.5927 196.422C73.5927 196.422 129.558 203.187 136.705 210.038C136.705 210.038 137.068 216.587 137.808 225.424V225.446C138.348 231.768 139.075 239.634 140.026 246.96C142.302 264.558 150.857 291.121 153.122 295.016C155.399 298.911 162.557 309.345 164.13 316.304C167.838 339.652 167.111 368.223 167.111 368.223L170.302 370.532C170.42 370.845 170.537 371.201 170.655 371.589C171.957 375.689 173.823 384.278 173.823 384.278L172.544 386.436L166.641 381.494C162.651 382.26 148.146 389.673 148.146 389.673L144.954 395.391C144.156 391.528 143.675 380.566 143.675 380.566L146.621 377.049C145.119 359.279 139.38 331.657 135.801 315.57C135.015 312.776 132.093 302.666 130.579 299.904C130.579 299.904 127.434 298.383 125.873 296.689C124.3 295.006 108.869 265.442 102.579 239.947C102.579 239.947 102.555 240.022 102.532 240.184C101.91 243.626 94.7278 283.795 96.0656 295.448C97.4621 307.64 98.6238 311.416 99.5627 316.293H99.504C99.9617 318.117 100.267 319.293 100.267 319.293C99.7974 336.027 91.1837 375.625 91.3363 376.553C91.5006 377.48 94.0471 379.638 93.8828 380.976C93.7303 382.314 90.3857 391.075 90.3857 391.075C78.5801 383.21 63.7586 383.35 63.7586 383.35L62.0922 385.368C62.1274 385.389 61.5758 377.621 61.6814 373.909Z" fill="url(#paint3_linear_130_11956)"/>
<path opacity="0.62" d="M136.885 212.656C136.885 212.656 119.963 210.703 109.307 215.44C98.6518 220.176 99.6141 228.344 99.6141 228.344L102.618 239.964L92.2678 229.434L71.1914 206.01C71.1914 206.01 75.1344 208.243 80.2627 209.225C80.2627 209.225 73.0808 205.06 71.8486 201.791L73.6206 196.418L136.897 209.063V212.656H136.885Z" fill="url(#paint4_linear_130_11956)"/>
<path d="M53.3246 168.214C53.3246 168.214 54.0288 175.443 49.3112 178.809C49.3112 178.809 39.6179 174.148 34.8417 166.553C30.0655 158.946 53.3246 168.214 53.3246 168.214Z" fill="url(#paint5_linear_130_11956)"/>
<path d="M136.734 209.48L136.898 210.602C136.898 210.602 123.825 207.559 117.535 207.343C111.245 207.127 104.58 211.724 91.1898 209.48C77.7999 207.235 72.8242 198.345 72.8242 198.345L73.6222 196.09L136.734 209.48Z" fill="url(#paint6_linear_130_11956)"/>
<path opacity="0.62" d="M132.329 209.606C132.329 209.606 119.631 206.671 101.982 204.826C84.3319 202.981 77.6898 202.42 76.0351 201.212C74.3805 200.003 73.2773 197.026 73.2773 197.026L73.6059 196.098L136.718 209.477L136.882 210.599L132.329 209.606Z" fill="url(#paint7_linear_130_11956)"/>
<path d="M15.9726 145.453C15.9726 145.453 13.2735 147.471 13.25 149.197C13.2383 150.923 17.7211 150.125 17.7211 150.125L15.9726 145.453Z" fill="url(#paint8_linear_130_11956)"/>
<path d="M148.957 137.548L150.87 127.913C150.87 127.913 155.764 127.913 162.922 134.02C162.922 134.02 163.098 137.322 165.551 141.454C165.551 141.454 173.789 145.112 177.615 150.086C181.44 155.06 182.884 155.556 186.874 152.74C187.93 151.995 188.658 149.46 189.033 146.007C189.596 140.796 189.385 133.491 188.411 127.061C187.601 121.752 186.264 117.048 184.409 114.599C184.409 114.599 184.585 111.33 182.837 108.762C182.755 108.816 182.661 108.859 182.579 108.924C182.004 109.258 180.537 109.981 179 109.733C177.016 109.409 175.362 106.626 175.362 106.626C175.362 106.626 174.223 106.733 173.648 107.489C173.648 107.489 165.727 103.076 160.716 95.6418C155.705 88.2187 154.895 87.3015 154.895 87.3015C154.895 87.3015 153.616 86.816 151.879 86.5247C150.518 86.2873 148.864 86.1794 147.326 86.5031C147.326 86.4816 122.987 121.062 148.957 137.548Z" fill="url(#paint9_linear_130_11956)"/>
<path d="M97.1378 89.2615C97.1378 89.2615 100.165 85.0968 100.165 75.4078L123.777 64.8125C123.777 64.8125 122.591 72.2896 126.593 78.7741C127.649 80.4896 132.578 83.1978 132.578 83.1978C132.578 83.1978 110.997 107.668 100.635 105.316C90.2727 102.964 92.3498 92.5955 92.3498 92.5955C92.3498 92.5955 94.1101 93.2212 97.1378 89.2615Z" fill="url(#paint10_linear_130_11956)"/>
<path d="M129.69 81.418C129.69 81.418 117.99 92.1319 107.921 92.7362C97.1364 93.3835 98.9084 85.1403 98.9084 85.1403C98.9084 85.1403 94.0266 91.4306 95.4231 96.383C96.8195 101.335 107.475 101.573 115.678 98.282C123.893 94.9912 131.744 82.2056 131.744 82.2056L129.69 81.418Z" fill="url(#paint11_linear_130_11956)"/>
<path opacity="0.83" d="M148.957 137.547L150.87 127.912C150.87 127.912 155.764 127.912 162.922 134.019C162.922 134.019 163.098 137.321 165.551 141.453C165.551 141.453 173.789 145.111 177.615 150.085C181.44 155.059 182.884 155.555 186.874 152.739C187.93 151.994 188.658 149.459 189.033 146.006L188.411 144.625V127.06C187.601 121.751 186.264 117.047 184.409 114.598C184.409 114.598 184.585 111.329 182.837 108.761C182.755 108.815 182.661 108.858 182.579 108.923C175.808 112.98 173.414 124.924 172.944 133.814C172.885 131.559 171.325 122.83 170.151 123.003C168.637 123.219 166.079 139.274 166.079 139.274C163.051 125.506 172.803 108.89 173.59 107.563C164.671 118.881 163.169 131.883 163.169 131.883L149.309 122.571C149.309 122.571 140.966 114.857 143.853 101.586C146.739 88.3148 151.879 86.513 151.879 86.513C150.518 86.2756 148.864 86.1677 147.326 86.4914C147.326 86.4806 122.987 121.061 148.957 137.547Z" fill="url(#paint12_linear_130_11956)"/>
<path d="M91.0949 73.1419C91.1184 73.1635 91.1653 73.1959 91.1888 73.239C91.5174 73.6059 91.8694 73.8864 92.245 74.059C97.4906 76.5298 111.455 75.8825 119.025 69.7756C121.9 67.4559 124.059 64.6722 125.772 61.8345C125.784 61.813 125.796 61.8022 125.796 61.8022C128.542 57.1951 130.103 52.4153 131.617 49.1137C134.058 43.7621 136.064 34.8068 135.571 29.6279C135.114 24.8158 134.057 20.7481 126.958 15.1807C119.858 9.61336 102.396 9.28969 97.9718 14.8571C93.5476 20.4244 93.6649 32.951 92.6205 35.7347C91.5643 38.5184 87.8443 41.8416 86.7998 45.5856C85.8141 49.049 86.8351 68.2543 91.0949 73.1419Z" fill="url(#paint13_linear_130_11956)"/>
<path d="M91.0391 38.4196C91.0391 38.4196 91.262 41.7644 94.102 41.9909C96.3199 42.1744 97.6812 39.1533 97.6812 39.1533C97.6812 39.1533 98.0802 30.9749 96.9536 26.9504L95.8974 23.7351C95.8974 23.7351 98.9369 20.8112 103.478 21.178C108.02 21.5448 109.651 26.0009 109.651 26.0009C109.651 26.0009 105.614 36.607 106.201 41.7212C106.201 41.7212 109.24 44.397 114.369 44.0733C120.295 43.7065 123.276 40.4588 123.276 40.4588C123.276 40.4588 126.515 43.933 127.125 46.8894C127.864 50.4175 126.597 61.5847 126.597 61.5847C126.597 61.5847 130.669 49.4896 131.784 45.9507C132.887 42.4225 134.929 26.7346 133.708 24.0588C132.488 21.383 128.956 12.6651 113.841 10.9495C98.7139 9.23402 95.9092 13.8951 95.9092 13.8951L94.3484 20.8004L94.3601 24.3609C94.3601 24.3609 93.304 33.5428 92.9284 35.0749C92.5412 36.6178 91.0391 38.4196 91.0391 38.4196Z" fill="url(#paint14_linear_130_11956)"/>
<path d="M94.2809 24.7085C94.2809 24.7085 94.6917 19.9935 97.602 15.3325C97.602 15.3325 100.841 18.4722 106.075 20.1446C106.075 20.1446 103.646 18.073 102.507 16.4653C102.707 16.6056 105.969 18.9254 110.522 20.7164C110.522 20.7164 109.208 18.8714 109.208 18.0622C109.208 17.253 112.529 13.7356 116.367 13.8111C120.216 13.8974 127.55 16.2172 131.212 22.6477C134.873 29.0675 131.188 29.6609 129.181 31.3441C129.181 31.3441 130.191 39.3067 129.968 45.9746C129.897 47.9707 129.71 49.8373 129.369 51.3478C129.311 51.596 129.252 51.8225 129.181 52.0383L134.427 47.6362C134.427 47.6362 134.474 44.6907 136.492 40.472C136.715 39.9865 136.974 39.4901 137.255 38.9722L137.279 38.9291C137.384 38.7241 137.513 38.5191 137.631 38.3141C138.886 36.1562 142.747 32.1317 142.184 28.0317C141.656 24.1798 134.028 20.8675 132.162 18.2888C132.162 18.2888 138.018 20.0043 140.788 22.5722C140.788 22.5722 140.342 20.1554 138.171 18.7959C136 17.4364 134.181 18.278 131.024 17.1127C127.867 15.9475 123.595 6.19374 118.538 2.50374C113.468 -1.18627 101.85 -0.463375 98.1066 2.50374C97.1443 3.26979 96.4167 4.1869 95.8887 5.13638H95.8769C95.8769 5.14717 95.8769 5.14717 95.8769 5.14717V5.15796C95.8652 5.17954 95.8534 5.17953 95.8534 5.20111C94.3044 7.93085 94.2575 10.8548 94.2575 10.8548C94.2575 10.8548 92.0982 19.0656 94.2809 24.7085Z" fill="url(#paint15_linear_130_11956)"/>
<path d="M79.79 146.329C79.79 146.329 83.2754 163.085 78.7339 181.233C78.7339 181.233 75.9409 182.991 75.5888 185.246C75.5888 185.246 75.5888 185.268 75.5771 185.289C75.2485 187.523 75.7648 189.584 75.7648 189.584C75.7648 189.584 74.5444 190.706 73.4882 192.313C73.2887 192.615 73.1831 192.972 73.1479 193.36C72.9836 195.022 74.0163 197.125 74.0163 197.125C74.0163 197.125 76.1169 202.11 97.9444 203.869C119.772 205.638 136.717 209.49 136.717 209.49C136.717 209.49 138.032 205.477 135.626 202.434C135.626 202.434 139.346 199.38 139.17 198.258C138.994 197.136 130.956 184.286 133.044 175.298C135.145 166.311 142.996 159.006 147.373 141.452C147.373 141.452 150.283 140.556 150.459 139.261C150.635 137.977 149.18 135.884 149.18 135.884L148.652 136.801C148.652 136.801 138.701 131.558 141.376 109.396C144.052 87.2344 146.88 85.8857 151.868 86.5007C151.868 86.5007 147.889 83.1236 146.962 83.1992C146.035 83.2747 145.683 84.85 145.683 84.85C145.683 84.85 142.562 86.026 138.9 84.85C135.227 83.6739 132.774 81.4297 132.774 81.4297C132.774 81.4297 110.654 98.6497 100.949 97.5924C89.8706 96.3839 97.6862 85.2384 97.6862 85.2384C97.6862 85.2384 90.7272 86.49 87.0072 87.2884C83.2754 88.0976 81.8789 87.2884 81.8789 87.2884C81.8789 87.2884 79.6609 84.2673 76.7506 86.285C73.8403 88.3026 70.2376 99.4374 71.3993 117.423C72.5611 135.399 79.79 146.329 79.79 146.329Z" fill="url(#paint16_linear_130_11956)"/>
<path d="M117.581 38.0703C117.581 38.0703 118.168 39.7211 117.863 41.1993C117.558 42.6882 111.749 44.134 108.979 41.879C106.233 39.6348 117.581 38.0703 117.581 38.0703Z" fill="#E87A8D"/>
<path d="M0.835938 113.466C8.05309 131.237 27.8504 169.032 27.8504 169.032C53.926 173.639 78.3822 169.777 78.3822 169.777L79.7786 167.705C70.6956 142.447 51.133 109.517 51.133 109.517C27.1463 108.341 1.76301 111.869 1.76301 111.869L0.835938 113.466Z" fill="url(#paint17_linear_130_11956)"/>
<path opacity="0.62" d="M23.9608 140.196C23.9608 140.196 25.0639 152.129 22.0362 157.74L10.125 133.852L15.7931 135.082L15.0538 137.498C15.0538 137.488 19.7713 137.283 23.9608 140.196Z" fill="url(#paint18_linear_130_11956)"/>
<path d="M10.9773 133.852C10.9773 133.852 9.07622 135.233 8.71243 136.366C8.3017 137.596 7.78535 140.692 11.6814 141.663L13.43 142.095C13.43 142.095 12.1508 142.634 11.9161 143.433C11.6814 144.231 13.1366 146.001 15.4719 146.432C17.7955 146.864 21.7033 146.001 22.8651 145.04C24.0269 144.08 23.2758 142.742 21.5273 142.364C21.5273 142.364 24.0855 141.836 23.9682 140.196C23.8508 138.556 17.9715 136.797 11.7401 137.326L10.9773 133.852Z" fill="url(#paint19_linear_130_11956)"/>
<path d="M97.14 39.6539C97.14 39.6539 96.2012 41.0349 94.1123 40.6249C92.0234 40.2257 92.2229 36.8918 92.5985 35.7265C92.9857 34.572 97.1048 38.5749 97.14 39.6539Z" fill="#E87A8D"/>
<path d="M6.25441 125.707C6.25441 125.707 3.10938 128.394 3.10938 130.239C3.10938 132.084 7.73305 134.414 15.6895 135.32C15.6895 135.32 16.4288 133.907 15.6895 132.375C14.9502 130.854 10.972 128.707 7.69784 128.232L6.25441 125.707Z" fill="url(#paint20_linear_130_11956)"/>
<path d="M15.4151 147.503C15.4151 147.503 20.8133 147.018 20.3439 151.56C20.3439 151.56 17.3279 151.949 15.11 151.366C12.892 150.773 13.1854 149.23 13.3614 148.69C13.5492 148.14 13.737 147.719 15.4151 147.503Z" fill="url(#paint21_linear_130_11956)"/>
<path d="M123.535 34.779C123.535 34.779 123.101 32.1896 120.343 29.5785C118.36 27.6903 114.535 25.7914 111.859 24.8311C111.859 24.8311 111.448 25.6296 111.448 27.1293C111.448 27.1293 111.014 25.7159 110.638 24.3672C110.638 24.3672 110.04 25.7051 110.216 28.3161C110.216 28.3161 112.563 29.0714 116.412 30.0425C121.224 31.2401 123.535 34.779 123.535 34.779Z" fill="url(#paint22_linear_130_11956)"/>
<path d="M97.6864 38.071C97.6864 38.071 97.6864 31.2952 95.5505 30.9284C93.7551 30.6155 92.9219 34.435 92.9219 34.435L97.6864 38.071Z" fill="#77485E"/>
<path d="M117.861 39.9823C117.861 39.9823 117.932 35.2241 113.695 33.5409C109.459 31.8578 107.992 37.3173 107.992 37.3173L117.861 39.9823Z" fill="#77485E"/>
<path d="M107.551 39.9921C107.669 40.9848 109.124 42.7542 112.269 42.7542C115.062 42.7542 117.867 41.4703 117.855 39.9921C117.855 39.4742 117.702 38.9132 117.444 38.3521C116.881 37.1113 115.743 35.8706 114.37 35.1261C113.442 34.6298 112.41 34.36 111.342 34.4571C107.962 34.7808 107.446 39.0103 107.551 39.9921Z" fill="url(#paint23_linear_130_11956)"/>
<path d="M92.5484 36.6167C92.5015 38.8177 93.5459 40.5009 95.3649 40.4685C96.1276 40.4469 96.597 40.2527 96.9374 39.9182C97.219 39.6269 97.3833 39.2277 97.5124 38.753C97.5711 38.5372 97.6415 38.3106 97.7001 38.0625C97.7001 38.0625 97.5007 35.9909 96.9022 34.2861C96.7613 33.9085 96.6205 33.5632 96.4562 33.2719C96.1628 32.7432 95.7991 32.344 95.3649 32.2037C93.9449 31.729 92.5836 34.4048 92.5484 36.6167Z" fill="url(#paint24_linear_130_11956)"/>
<path d="M110.195 38.418C110.195 40.263 111.815 41.752 113.833 41.752C115.84 41.752 117.471 40.263 117.471 38.418C117.471 38.3965 117.471 38.3533 117.459 38.3317C116.896 37.0909 115.758 35.8501 114.385 35.1057C114.209 35.0841 114.021 35.0625 113.833 35.0625C111.815 35.0733 110.195 36.573 110.195 38.418Z" fill="url(#paint25_radial_130_11956)"/>
<path d="M111.309 38.4213C111.309 39.7053 112.435 40.741 113.832 40.741C115.228 40.741 116.355 39.7053 116.355 38.4213C116.355 37.1374 115.228 36.1016 113.832 36.1016C112.435 36.1124 111.309 37.1482 111.309 38.4213Z" fill="url(#paint26_linear_130_11956)"/>
<path d="M94.1055 36.6104C94.1055 38.4554 95.2086 39.9443 96.5816 39.9443C96.6989 39.9443 96.8163 39.9335 96.9337 39.9119C97.2153 39.6206 97.3796 39.2214 97.5087 38.7467C97.5673 38.5309 97.6378 38.3043 97.6964 38.0561C97.6964 38.0561 97.4969 35.9846 96.8985 34.2798C96.7576 33.9022 96.6168 33.5569 96.4525 33.2656C95.1382 33.3627 94.1055 34.8301 94.1055 36.6104Z" fill="url(#paint27_radial_130_11956)"/>
<path d="M95.1289 36.6148C95.1289 37.8987 95.8917 38.9237 96.8423 38.9237C97.077 38.9237 97.2999 38.859 97.5112 38.7403C97.5698 38.5245 97.6402 38.2979 97.6989 38.0498C97.6989 38.0498 97.4994 35.9782 96.9009 34.2734H96.8423C95.9034 34.295 95.1289 35.3416 95.1289 36.6148Z" fill="url(#paint28_linear_130_11956)"/>
<path d="M96.8138 24.7617C96.8138 24.7617 98.7618 34.2888 97.6939 39.1549C97.6939 39.1549 98.3276 31.8288 95.9102 26.6175L96.8138 24.7617Z" fill="#E87A8D"/>
<path d="M97.1931 28.343C97.1931 28.343 96.9584 25.1277 96.442 22.398L96.09 23.5201L95.069 21.168C95.069 21.168 92.4403 22.6353 94.048 25.7859C94.0598 25.7967 95.7379 25.6132 97.1931 28.343Z" fill="url(#paint29_linear_130_11956)"/>
<path d="M107.36 51.6602C107.36 51.6602 107.137 53.8396 102.771 55.0696C98.4056 56.2996 94.6738 55.5444 93.3125 54.1525C93.3125 54.1525 94.7207 55.7062 97.279 56.1378C99.8373 56.5694 103.722 56.0083 105.541 54.7244C107.547 53.311 107.958 52.0486 107.958 52.0486L107.36 51.6602Z" fill="#E87A8D"/>
<path d="M109.252 52.5772C109.252 52.5772 107.128 51.5738 105.238 51.2825C105.238 51.2825 107.245 50.9372 108.184 51.153C109.111 51.3688 109.252 52.5772 109.252 52.5772Z" fill="#E37E7F"/>
<path d="M104.757 46.6593C104.757 46.6593 101.729 46.6593 98.9362 46.8211C96.1432 46.983 93.5732 46.6593 92.5288 45.9688C92.5288 45.9688 92.3528 48.9682 95.8499 50.7917C95.8499 50.7917 97.2464 51.2772 98.7015 50.7917C98.7015 50.7917 100.039 49.4538 102.539 49.0222C102.551 49.0114 104.874 48.3748 104.757 46.6593Z" fill="url(#paint30_linear_130_11956)"/>
<path d="M99.2242 41.7708C102.839 42.2348 104.752 46.6585 104.752 46.6585L97.9451 47.7266C94.8587 47.5648 92.5352 45.9572 92.5352 45.9572C92.5352 45.9572 95.6098 41.3069 99.2242 41.7708Z" fill="url(#paint31_linear_130_11956)"/>
<path d="M102.763 48.9391C102.763 48.9391 102.423 48.6478 101.308 48.7125C100.193 48.7772 99.1367 50.428 99.1367 50.428C99.1367 50.428 100.287 49.457 102.763 48.9391Z" fill="#9F4A8B"/>
<path d="M44.4771 170.948C44.4771 170.948 45.9558 177.444 45.3221 177.843C44.6766 178.242 41.2734 170.711 41.2734 170.711L44.4771 170.948Z" fill="url(#paint32_linear_130_11956)"/>
<path d="M129.747 50.4909C129.747 50.4909 135.521 45.204 138.959 48.1927C143.055 51.7424 140.156 59.554 135.626 62.9311C131.695 65.8659 127.458 65.0891 126.578 61.5933C126.602 61.5933 125.393 53.7061 129.747 50.4909Z" fill="url(#paint33_linear_130_11956)"/>
<path d="M129.901 55.455C129.901 55.455 133.293 51.7974 136.098 52.7361C138.902 53.6748 138.093 57.7856 138.093 57.7856C138.093 57.7856 138.057 54.7861 136.238 54.3329C134.42 53.8798 133.305 56.0485 133.305 56.0485C133.305 56.0485 134.279 56.124 134.244 58.6595C134.208 61.1951 130.993 63.5472 129.714 61.7561C128.446 59.9543 129.901 55.455 129.901 55.455Z" fill="#E87A8D"/>
<path d="M109.66 38.6314C109.66 38.9443 109.93 39.1924 110.27 39.1924C110.611 39.1924 110.881 38.9443 110.881 38.6314C110.881 38.3185 110.611 38.0703 110.27 38.0703C109.93 38.0703 109.66 38.3185 109.66 38.6314Z" fill="white"/>
<path d="M93.3125 36.6734C93.3125 36.9863 93.5941 37.2452 93.9345 37.2452C94.2748 37.2452 94.5564 36.9863 94.5564 36.6734C94.5564 36.3605 94.2748 36.1016 93.9345 36.1016C93.5941 36.1124 93.3125 36.3605 93.3125 36.6734Z" fill="white"/>
<path d="M123.781 70.3799C123.781 70.3799 114.71 86.5857 98.9023 85.1399C98.9023 85.1399 100.311 79.4539 100.158 75.4078C100.158 75.4078 107.516 75.2244 112.973 73.1528C119.122 70.8115 123.769 64.8125 123.769 64.8125L123.781 70.3799Z" fill="url(#paint34_linear_130_11956)"/>
<path opacity="0.62" d="M74.0152 197.115C74.0152 197.115 76.1158 202.1 97.9433 203.858C119.771 205.628 136.716 209.48 136.716 209.48C136.716 209.48 138.031 205.466 135.625 202.423C135.625 202.423 139.345 199.37 139.169 198.248C138.993 197.126 130.954 184.276 133.043 175.288C135.144 166.3 142.995 158.996 147.372 141.441C147.372 141.441 150.282 140.546 150.458 139.251C150.634 137.967 149.179 135.874 149.179 135.874L148.651 136.791C148.651 136.791 138.7 131.547 141.375 109.386C144.051 87.224 146.879 85.8753 151.867 86.4903C151.867 86.4903 147.888 83.1132 146.961 83.1887C146.961 83.1887 141.047 87.278 136.963 109.256C133.548 127.663 127.856 139.154 127.856 139.154C127.856 139.154 116.661 143.006 103.529 142.607C90.421 142.207 91.7588 140.686 80.2466 141.452C80.2466 141.452 105.113 143.89 114.537 145.466C123.96 147.041 132.574 150.321 132.574 150.321C132.574 150.321 124.582 167.433 125.897 178.827C126.835 186.984 130.086 193.803 130.086 193.803C130.086 193.803 128.443 194.396 112.413 193.76C96.3825 193.112 75.5994 185.247 75.5994 185.247C75.5994 185.247 75.5995 185.268 75.5877 185.29C75.5173 185.624 75.13 187.879 75.7755 189.584C75.7755 189.584 91.7823 192.799 106.569 195.367C121.355 197.935 130.086 202.111 130.086 202.111C130.086 202.111 127.07 203.664 104.034 201.355C80.9977 199.057 74.3321 197.644 73.1703 193.339L73.1585 193.36C72.9942 195.022 74.0152 197.115 74.0152 197.115Z" fill="url(#paint35_linear_130_11956)"/>
<path opacity="0.62" d="M135.638 146.337C135.638 146.337 132.904 142.982 126.59 142.043C120.277 141.104 110.278 143.338 104.117 143.327C104.117 143.327 121.333 146.326 127.857 147.179C134.394 148.031 135.638 146.337 135.638 146.337Z" fill="url(#paint36_linear_130_11956)"/>
<path opacity="0.62" d="M81.8939 87.2782C81.8939 87.2782 75.6038 97.3987 74.442 119.021C74.442 119.021 73.3976 101.92 79.805 85.7461C79.7933 85.7461 80.8025 85.9943 81.8939 87.2782Z" fill="url(#paint37_linear_130_11956)"/>
<path opacity="0.62" d="M82.7578 96.3828C82.7578 96.3828 84.6707 109.082 99.6096 127.273C99.6096 127.273 89.8341 119.99 86.4075 112.923C82.7578 105.424 82.7578 96.3828 82.7578 96.3828Z" fill="url(#paint38_linear_130_11956)"/>
<path opacity="0.62" d="M119.874 177.867C119.874 177.867 115.532 184.33 106.097 185.938C96.6622 187.545 84.0938 184.546 84.0938 184.546C84.0938 184.546 96.2045 186.477 105.288 183.694C114.371 180.899 119.874 177.867 119.874 177.867Z" fill="url(#paint39_linear_130_11956)"/>
<path opacity="0.5" d="M150.865 127.912C150.865 127.912 143.801 125.225 141.078 120.359C141.078 120.359 141.501 132.411 148.659 136.803C148.659 136.803 150.443 131.915 150.865 127.912Z" fill="url(#paint40_linear_130_11956)"/>
<path opacity="0.62" d="M102.615 239.955L98.8832 226.814C98.8832 226.814 92.4053 218.042 81.9023 214.039L92.2528 228.885L102.615 239.955Z" fill="url(#paint41_linear_130_11956)"/>
<path opacity="0.62" d="M144.068 294.566C144.303 292.311 142.39 281.295 139.597 255.799C136.875 230.951 137.814 225.923 137.837 225.438C138.377 231.76 139.104 239.626 140.055 246.952C142.332 264.549 150.887 291.113 153.151 295.008C155.428 298.903 162.587 309.337 164.159 316.296C167.867 339.644 167.14 368.215 167.14 368.215L149.983 377.796C159.054 373.815 166.635 372.207 170.684 371.592C171.986 375.692 173.852 384.28 173.852 384.28L172.573 386.438L166.67 381.497C162.68 382.263 148.176 389.675 148.176 389.675L144.984 395.394C144.186 391.531 143.705 380.569 143.705 380.569L146.65 377.052C145.148 359.281 139.41 331.66 135.83 315.573C135.044 312.789 132.122 302.669 130.608 299.907C130.608 299.907 127.463 298.385 125.902 296.691C132.427 302.237 143.834 296.821 144.068 294.566Z" fill="url(#paint42_linear_130_11956)"/>
<path opacity="0.62" d="M61.6814 373.907L84.7646 379.916C81.5139 375.827 66.6571 371.641 66.6571 371.641C71.6915 350.58 73.3697 313.291 73.4636 300.16C73.4401 300.02 73.4049 299.88 73.3814 299.761C72.8651 297.614 71.9263 295.747 71.1752 293.255C74.2264 299.362 86.2432 296.772 90.6674 289.101C92.7093 285.562 101.745 243.904 102.555 240.203C101.933 243.645 94.7512 283.814 96.089 295.467C97.4855 307.659 98.6473 311.435 99.5861 316.312H99.5274C99.9851 318.136 100.29 319.312 100.29 319.312C99.8208 336.046 91.2072 375.644 91.3598 376.572C91.524 377.499 94.0706 379.657 93.9063 380.995C93.7537 382.333 90.4092 391.094 90.4092 391.094C78.6036 383.229 63.782 383.369 63.782 383.369L62.1156 385.387C62.1274 385.387 61.5758 377.618 61.6814 373.907Z" fill="url(#paint43_linear_130_11956)"/>
<path d="M0.835938 113.466C36.1237 109.291 50.4641 111.222 50.4641 111.222C63.0912 131.096 78.3822 169.777 78.3822 169.777L79.7786 167.705C70.6956 142.447 51.133 109.517 51.133 109.517C27.1463 108.341 1.76301 111.869 1.76301 111.869L0.835938 113.466Z" fill="url(#paint44_linear_130_11956)"/>
<path d="M13.4188 142.098C13.4188 142.098 18.019 142.583 21.5161 142.367C21.5161 142.367 16.7164 143.177 12.8203 142.421L13.4188 142.098Z" fill="url(#paint45_linear_130_11956)"/>
<path opacity="0.83" d="M132.66 88.9688C132.637 89.034 132.613 89.0993 132.59 89.1646C132.625 89.0776 132.649 89.0014 132.66 88.9688Z" fill="url(#paint46_linear_130_11956)"/>
<path d="M130.088 193.785C130.088 193.785 121.568 194.044 104.024 191.174C85.3653 188.12 78.7349 181.215 78.7349 181.215C78.7349 181.215 76.0593 182.822 75.5898 185.229C75.5898 185.229 91.4089 191.368 104.024 192.878C116.64 194.389 127.53 194.497 130.088 193.785Z" fill="url(#paint47_linear_130_11956)"/>
<path d="M111.924 202.054C111.924 202.054 101.363 200.49 89.5689 197.847C77.775 195.192 73.4916 192.301 73.4916 192.301C73.4916 192.301 71.5436 195.786 79.2888 197.793C87.0458 199.81 111.924 202.054 111.924 202.054Z" fill="url(#paint48_linear_130_11956)"/>
<path opacity="0.5" d="M64.0884 136.837L26.0781 165.602L27.8619 169.022C27.8619 169.022 51.8486 173.565 78.3937 169.767L79.7901 167.695C79.7901 167.695 71.2234 146.612 65.4615 135.672L64.0884 136.837Z" fill="url(#paint49_linear_130_11956)"/>
<path opacity="0.62" d="M136.881 234.34C136.881 234.34 139.264 252.801 135.121 272.459L136.881 234.34Z" fill="url(#paint50_linear_130_11956)"/>
<path opacity="0.62" d="M97.786 238.839C97.786 238.839 91.3199 263.655 86.0742 274.207C86.0742 274.207 96.3895 260.504 100.133 251.247L102.562 240.209L99.6049 228.352L97.786 238.839Z" fill="url(#paint51_linear_130_11956)"/>
<path d="M97.6886 85.2269L98.909 85.1406C98.909 85.1406 96.386 88.8522 95.8696 91.8949C95.3415 94.9483 97.5477 96.912 100.963 97.5809C100.963 97.5809 95.4706 97.2896 94.7665 93.8046C94.0624 90.3304 97.6886 85.2269 97.6886 85.2269Z" fill="url(#paint52_linear_130_11956)"/>
<path d="M136.826 22.0306C136.826 22.0306 142.682 25.1272 142.858 29.2272C143.034 33.3272 139.267 35.9599 139.267 35.9599L138.751 33.748C138.751 33.748 135.864 34.1796 133.165 33.2733C130.454 32.367 129.21 31.342 129.21 31.342C129.21 31.342 132.649 29.4862 132.731 26.3896C132.813 23.293 126.863 17.7148 126.863 17.7148L132.203 18.2867C132.191 18.2759 135.594 20.7791 136.826 22.0306Z" fill="url(#paint53_linear_130_11956)"/>
<path opacity="0.84" d="M109.222 18.0692C109.222 18.0692 103.859 12.7176 102.779 8.97363C101.7 5.22967 106.006 3.40625 106.006 3.40625C106.006 3.40625 104.481 4.95994 104.786 8.54205C105.068 12.1242 109.222 18.0692 109.222 18.0692Z" fill="url(#paint54_linear_130_11956)"/>
<path opacity="0.84" d="M125.889 17.0264C125.889 17.0264 120.432 8.22217 115.315 8.11428C110.199 8.00638 108.697 16.6811 109.225 18.073C109.225 18.073 109.377 14.6419 115.738 14.4693C122.087 14.2967 125.889 17.0264 125.889 17.0264Z" fill="url(#paint55_linear_130_11956)"/>
<path opacity="0.84" d="M97.6027 15.3469C97.6027 15.3469 94.798 12.0453 94.2816 10.8477C94.2816 10.8477 93.5775 13.75 93.4485 15.8324C93.4485 15.8324 93.0377 16.8035 96.5348 17.2782L97.6027 15.3469Z" fill="url(#paint56_linear_130_11956)"/>
<path opacity="0.62" d="M134.438 47.63L125.085 40.4657C125.085 40.4657 124.733 47.2631 118.267 48.4715C111.801 49.68 106.99 47.7379 105.218 43.9831C103.457 40.2284 103.129 35.017 103.129 35.017C103.129 35.017 102.695 34.4128 100.629 34.4344C98.5637 34.456 97.6836 35.2005 97.6836 35.2005V31.9636C97.6836 31.9636 101.967 31.3594 103.821 32.7405C103.821 32.7405 103.187 43.1631 107.224 45.7418C111.261 48.3205 114.7 48.655 119.018 46.6373C122.363 45.0729 123.771 40.1097 122.727 37.2397L125.86 37.8223L134.826 47.5005L134.438 47.63Z" fill="url(#paint57_linear_130_11956)"/>
<path d="M104.465 43.6599C106.237 46.1414 109.241 48.0512 115.636 46.8859C121.105 45.8933 125.529 38.9449 122.079 35.4383C118.629 31.9317 106.33 29.8817 104.558 32.0504C102.974 34.0033 102.587 41.038 104.465 43.6599ZM105.227 32.6114C106.964 30.9283 121.187 32.838 122.232 37.2509C123.276 41.6638 118.594 45.5912 115.848 46.2601C111.388 47.3499 106.096 46.1199 104.652 42.4622C103.209 38.7938 103.831 33.9709 105.227 32.6114Z" fill="url(#paint58_linear_130_11956)"/>
<path d="M104.137 43.6286C105.909 46.1102 108.913 48.0199 115.308 46.8547C120.777 45.862 125.201 38.9136 121.751 35.407C118.301 31.9004 106.002 29.8504 104.23 32.0191C102.634 33.972 102.259 41.0068 104.137 43.6286ZM104.899 32.5694C106.636 30.8862 120.859 32.796 121.904 37.2089C122.948 41.6218 118.266 45.5491 115.52 46.2181C111.06 47.3078 105.768 46.0778 104.324 42.4202C102.881 38.7626 103.491 33.9289 104.899 32.5694Z" fill="url(#paint59_linear_130_11956)"/>
<path d="M90.5957 43.5833C91.3115 44.0472 93.6938 44.5328 95.3602 42.4828C98.0123 39.2459 98.5404 31.5422 97.5664 30.9056C96.076 29.9238 90.0911 29.3196 89.0466 30.9056C88.0022 32.4917 88.6124 42.2993 90.5957 43.5833ZM89.7038 31.3264C91.1003 29.913 95.9822 30.323 96.9562 31.6717C98.118 33.2901 96.5337 40.7672 94.7382 42.2886C92.7432 43.9825 90.713 43.497 89.8916 41.4146C88.941 38.987 88.3073 32.7398 89.7038 31.3264Z" fill="url(#paint60_linear_130_11956)"/>
<path d="M90.2208 43.5833C90.9366 44.0472 93.3189 44.5328 94.9853 42.4828C97.6374 39.2459 98.1655 31.5422 97.1915 30.9056C95.7011 29.9238 89.7162 29.3196 88.6717 30.9056C87.639 32.4917 88.2493 42.2993 90.2208 43.5833ZM89.3289 31.3264C90.7254 29.913 95.6073 30.323 96.5813 31.6717C97.7431 33.2901 96.1588 40.7672 94.3633 42.2886C92.3683 43.9825 90.3381 43.497 89.5167 41.4146C88.5779 38.987 87.9324 32.7398 89.3289 31.3264Z" fill="url(#paint61_linear_130_11956)"/>
<path d="M103.645 33.1044C103.645 33.1044 100.958 31.2594 97.6369 32.5757C97.6369 32.5757 97.7073 31.9175 97.4844 31.4536C97.4844 31.4536 99.8432 30.8062 104.42 31.8204C104.432 31.8312 103.798 32.7159 103.645 33.1044Z" fill="url(#paint62_linear_130_11956)"/>
<path d="M122.746 36.3086L125.879 37.2365L136.112 47.2815C136.112 47.2815 135.76 47.1844 134.845 47.5081L125.68 38.596C125.68 38.596 124.166 37.8623 123.098 38.0673C123.11 38.0673 123.157 36.902 122.746 36.3086Z" fill="url(#paint63_linear_130_11956)"/>
<path d="M127.09 38.4219L126.996 39.8677L129.097 41.9069L129.191 40.4935L127.09 38.4219Z" fill="url(#paint64_linear_130_11956)"/>
<path d="M103.622 31.6549L103.082 32.1728C103.082 32.1728 101.498 31.8491 99.9837 31.8383C98.4698 31.8275 98.0943 31.9894 98.0943 31.9894L97.6953 31.4067C97.6953 31.4175 100.371 30.878 103.622 31.6549Z" fill="#D7E2FF"/>
<path d="M96.2974 30.5045L95.9688 30.9037C95.9688 30.9037 93.8447 29.7492 90.3711 30.5045L90.465 30.0513C90.465 30.0513 93.3753 29.5658 96.2974 30.5045Z" fill="#D7E2FF"/>
<path d="M109.654 31.7142L109.489 31.2611C109.489 31.2611 105.57 30.8834 104.502 31.8868C103.434 32.8903 103.141 35.0266 103.141 35.0266L103.622 35.0913C103.622 35.0913 103.997 32.8255 105.183 32.1674C106.391 31.4768 109.654 31.7142 109.654 31.7142Z" fill="#D7E2FF"/>
<path d="M118.281 44.832C118.281 44.832 116.215 47.1949 111.498 46.8388C106.78 46.472 104.773 43.2891 104.773 43.2891C104.773 43.2891 107.003 46.5043 111.615 46.6338C116.215 46.7633 118.281 44.832 118.281 44.832Z" fill="#D7D9FF"/>
<path d="M94.3777 42.2876C94.3777 42.2876 93.0986 43.6039 91.6551 43.4205C90.2117 43.2371 89.6719 41.7266 89.6719 41.7266C89.6719 41.7266 90.4933 43.2695 92.0189 43.1831C93.5562 43.1184 94.3777 42.2876 94.3777 42.2876Z" fill="#D7D9FF"/>
<path d="M113.255 46.6053C113.255 46.6053 112.891 46.8643 111.87 46.8858C110.849 46.9074 109.781 46.4219 109.781 46.4219C109.781 46.4219 111.788 46.7132 113.255 46.6053Z" fill="#D7D9FF"/>
<path d="M93.2857 43.0469C93.2857 43.0469 92.1591 43.4246 91.2437 43.0469C90.3401 42.6693 90.1406 42.3672 90.1406 42.3672C90.1406 42.3672 90.1758 43.3167 91.2907 43.4461C92.4055 43.5648 93.2857 43.0469 93.2857 43.0469Z" fill="#D7D9FF"/>
<path d="M116.859 45.8896C116.859 45.8896 117.036 42.4153 112.553 39.9877C108.07 37.5601 103.939 39.6209 103.939 39.6209C103.939 39.6209 103.798 42.6419 106.204 44.7243C108.633 46.8067 113.89 46.9254 116.859 45.8896Z" fill="#D7D9FF"/>
<path d="M95.2981 40.9589C95.2981 40.9589 92.2821 37.4199 88.8906 36.3086C88.8906 36.3086 88.961 41.0883 90.1346 42.3615C91.3198 43.6347 93.5612 44.0447 95.2981 40.9589Z" fill="#D7D9FF"/>
<path d="M121.775 38.3135C121.775 38.3135 121.294 41.1296 119.545 42.6401L117.785 42.2517C117.785 42.2517 119.146 37.3856 119.182 34.9688C119.182 34.9688 121.423 36.1988 121.775 38.3135Z" fill="url(#paint65_linear_130_11956)"/>
<path d="M91.1797 73.2287C91.5083 73.5956 91.8603 73.8761 92.2359 74.0487C97.4815 76.5195 111.446 75.8721 119.016 69.7653C121.891 67.4455 124.05 64.6619 125.763 61.8242C125.4 62.2558 121.527 68.3411 112.373 71.6966C102.809 75.2032 91.8486 74.1134 91.1797 73.2287Z" fill="url(#paint66_linear_130_11956)"/>
<defs>
<linearGradient id="paint0_linear_130_11956" x1="41.5043" y1="292.67" x2="41.5043" y2="177.839" gradientUnits="userSpaceOnUse">
<stop stop-color="#1C257B"/>
<stop offset="1" stop-color="#482C83"/>
</linearGradient>
<linearGradient id="paint1_linear_130_11956" x1="62.681" y1="182.085" x2="62.681" y2="89.2635" gradientUnits="userSpaceOnUse">
<stop stop-color="#744FD8"/>
<stop offset="1" stop-color="#3996F7"/>
</linearGradient>
<linearGradient id="paint2_linear_130_11956" x1="65.2493" y1="181.924" x2="65.2493" y2="89.2635" gradientUnits="userSpaceOnUse">
<stop stop-color="#9D68C2"/>
<stop offset="1" stop-color="#CCEDFF"/>
</linearGradient>
<linearGradient id="paint3_linear_130_11956" x1="117.752" y1="395.417" x2="117.752" y2="196.419" gradientUnits="userSpaceOnUse">
<stop stop-color="#1C257B"/>
<stop offset="1" stop-color="#482C83"/>
</linearGradient>
<linearGradient id="paint4_linear_130_11956" x1="104.035" y1="239.967" x2="104.035" y2="196.423" gradientUnits="userSpaceOnUse">
<stop stop-color="#8B8BE0"/>
<stop offset="1" stop-color="#A177B7"/>
</linearGradient>
<linearGradient id="paint5_linear_130_11956" x1="43.7775" y1="178.809" x2="43.7775" y2="163.556" gradientUnits="userSpaceOnUse">
<stop offset="0.016" stop-color="#FFC2A9"/>
<stop offset="1" stop-color="#FF9595"/>
</linearGradient>
<linearGradient id="paint6_linear_130_11956" x1="104.853" y1="210.601" x2="104.853" y2="196.101" gradientUnits="userSpaceOnUse">
<stop stop-color="#D1C8F8"/>
<stop offset="1" stop-color="#EEE5F9"/>
</linearGradient>
<linearGradient id="paint7_linear_130_11956" x1="105.082" y1="210.599" x2="105.082" y2="196.098" gradientUnits="userSpaceOnUse">
<stop stop-color="#8B8BE0"/>
<stop offset="1" stop-color="#A177B7"/>
</linearGradient>
<linearGradient id="paint8_linear_130_11956" x1="15.4914" y1="150.309" x2="15.4914" y2="145.453" gradientUnits="userSpaceOnUse">
<stop offset="0.016" stop-color="#FFA58B"/>
<stop offset="1" stop-color="#FF898E"/>
</linearGradient>
<linearGradient id="paint9_linear_130_11956" x1="163.161" y1="154.445" x2="163.161" y2="86.2771" gradientUnits="userSpaceOnUse">
<stop stop-color="#744FD8"/>
<stop offset="1" stop-color="#3996F7"/>
</linearGradient>
<linearGradient id="paint10_linear_130_11956" x1="112.388" y1="105.472" x2="112.388" y2="64.8072" gradientUnits="userSpaceOnUse">
<stop offset="0.016" stop-color="#FFA58B"/>
<stop offset="1" stop-color="#FF898E"/>
</linearGradient>
<linearGradient id="paint11_linear_130_11956" x1="113.469" y1="100.475" x2="113.469" y2="81.4211" gradientUnits="userSpaceOnUse">
<stop stop-color="#D1C8F8"/>
<stop offset="1" stop-color="#EEE5F9"/>
</linearGradient>
<linearGradient id="paint12_linear_130_11956" x1="163.007" y1="154.444" x2="163.007" y2="86.2762" gradientUnits="userSpaceOnUse">
<stop stop-color="#9D68C2"/>
<stop offset="1" stop-color="#CCEDFF"/>
</linearGradient>
<linearGradient id="paint13_linear_130_11956" x1="111.041" y1="75.4015" x2="111.041" y2="10.837" gradientUnits="userSpaceOnUse">
<stop offset="0.016" stop-color="#FFC2A9"/>
<stop offset="1" stop-color="#FF9595"/>
</linearGradient>
<linearGradient id="paint14_linear_130_11956" x1="112.556" y1="61.5857" x2="112.556" y2="10.5718" gradientUnits="userSpaceOnUse">
<stop offset="0.016" stop-color="#FFA58B"/>
<stop offset="1" stop-color="#FF898E"/>
</linearGradient>
<linearGradient id="paint15_linear_130_11956" x1="113.129" y1="49.6973" x2="120.163" y2="1.39646" gradientUnits="userSpaceOnUse">
<stop stop-color="#D49092"/>
<stop offset="0.1274" stop-color="#D18E92"/>
<stop offset="0.2036" stop-color="#C98991"/>
<stop offset="0.2664" stop-color="#BB7F90"/>
<stop offset="0.3218" stop-color="#A7718F"/>
<stop offset="0.3725" stop-color="#8C5F8D"/>
<stop offset="0.4196" stop-color="#6C498A"/>
<stop offset="0.4631" stop-color="#472F88"/>
<stop offset="0.4721" stop-color="#3E2987"/>
<stop offset="0.6068" stop-color="#352278"/>
<stop offset="0.8455" stop-color="#291762"/>
<stop offset="1" stop-color="#24135A"/>
</linearGradient>
<linearGradient id="paint16_linear_130_11956" x1="111.529" y1="209.484" x2="111.529" y2="81.422" gradientUnits="userSpaceOnUse">
<stop stop-color="#744FD8"/>
<stop offset="1" stop-color="#3996F7"/>
</linearGradient>
<linearGradient id="paint17_linear_130_11956" x1="40.316" y1="171.284" x2="40.316" y2="109.262" gradientUnits="userSpaceOnUse">
<stop stop-color="#1C257B"/>
<stop offset="1" stop-color="#482C83"/>
</linearGradient>
<linearGradient id="paint18_linear_130_11956" x1="17.1455" y1="157.736" x2="17.1455" y2="133.848" gradientUnits="userSpaceOnUse">
<stop stop-color="#8B8BE0"/>
<stop offset="1" stop-color="#A177B7"/>
</linearGradient>
<linearGradient id="paint19_linear_130_11956" x1="16.1933" y1="146.54" x2="16.1933" y2="133.848" gradientUnits="userSpaceOnUse">
<stop offset="0.016" stop-color="#FFC2A9"/>
<stop offset="1" stop-color="#FF9595"/>
</linearGradient>
<linearGradient id="paint20_linear_130_11956" x1="9.5628" y1="135.321" x2="9.5628" y2="125.707" gradientUnits="userSpaceOnUse">
<stop offset="0.016" stop-color="#FFC2A9"/>
<stop offset="1" stop-color="#FF9595"/>
</linearGradient>
<linearGradient id="paint21_linear_130_11956" x1="16.8152" y1="151.68" x2="16.8152" y2="147.486" gradientUnits="userSpaceOnUse">
<stop offset="0.016" stop-color="#FFC2A9"/>
<stop offset="1" stop-color="#FF9595"/>
</linearGradient>
<linearGradient id="paint22_linear_130_11956" x1="116.863" y1="34.7744" x2="116.863" y2="24.3632" gradientUnits="userSpaceOnUse">
<stop stop-color="#1C257B"/>
<stop offset="1" stop-color="#482C83"/>
</linearGradient>
<linearGradient id="paint23_linear_130_11956" x1="112.699" y1="42.7541" x2="112.699" y2="34.4358" gradientUnits="userSpaceOnUse">
<stop stop-color="#D0C7F8"/>
<stop offset="1" stop-color="white"/>
</linearGradient>
<linearGradient id="paint24_linear_130_11956" x1="95.1191" y1="40.4657" x2="95.1191" y2="32.1466" gradientUnits="userSpaceOnUse">
<stop stop-color="#D0C7F8"/>
<stop offset="1" stop-color="white"/>
</linearGradient>
<radialGradient id="paint25_radial_130_11956" cx="0" cy="0" r="1" gradientUnits="userSpaceOnUse" gradientTransform="translate(113.716 39.7722) rotate(180) scale(3.55999 3.2731)">
<stop stop-color="#CF95FF"/>
<stop offset="1" stop-color="#8161FF"/>
</radialGradient>
<linearGradient id="paint26_linear_130_11956" x1="113.827" y1="40.7393" x2="113.827" y2="36.107" gradientUnits="userSpaceOnUse">
<stop stop-color="#8642A0"/>
<stop offset="1" stop-color="#4E37B7"/>
</linearGradient>
<radialGradient id="paint27_radial_130_11956" cx="0" cy="0" r="1" gradientUnits="userSpaceOnUse" gradientTransform="translate(95.8443 37.966) rotate(180) scale(2.38717 2.19479)">
<stop stop-color="#CF95FF"/>
<stop offset="1" stop-color="#8161FF"/>
</radialGradient>
<linearGradient id="paint28_linear_130_11956" x1="96.414" y1="38.9316" x2="96.414" y2="34.2956" gradientUnits="userSpaceOnUse">
<stop stop-color="#8642A0"/>
<stop offset="1" stop-color="#4E37B7"/>
</linearGradient>
<linearGradient id="paint29_linear_130_11956" x1="95.3653" y1="28.3456" x2="95.3653" y2="21.1804" gradientUnits="userSpaceOnUse">
<stop stop-color="#1C257B"/>
<stop offset="1" stop-color="#482C83"/>
</linearGradient>
<linearGradient id="paint30_linear_130_11956" x1="99.9658" y1="50.4026" x2="98.1258" y2="44.2811" gradientUnits="userSpaceOnUse">
<stop stop-color="#FF8883"/>
<stop offset="1" stop-color="#E8868D"/>
</linearGradient>
<linearGradient id="paint31_linear_130_11956" x1="98.6402" y1="47.7285" x2="98.6402" y2="41.7368" gradientUnits="userSpaceOnUse">
<stop stop-color="#FF8883"/>
<stop offset="1" stop-color="#FFB1A4"/>
</linearGradient>
<linearGradient id="paint32_linear_130_11956" x1="43.376" y1="177.866" x2="43.376" y2="170.723" gradientUnits="userSpaceOnUse">
<stop stop-color="#1C257B"/>
<stop offset="1" stop-color="#482C83"/>
</linearGradient>
<linearGradient id="paint33_linear_130_11956" x1="131.782" y1="64.9839" x2="134.875" y2="46.943" gradientUnits="userSpaceOnUse">
<stop offset="0.016" stop-color="#FFAC8B"/>
<stop offset="1" stop-color="#FF9595"/>
</linearGradient>
<linearGradient id="paint34_linear_130_11956" x1="123.784" y1="75.0191" x2="98.9059" y2="75.0191" gradientUnits="userSpaceOnUse">
<stop stop-color="#CF6074"/>
<stop offset="1" stop-color="#FF817F"/>
</linearGradient>
<linearGradient id="paint35_linear_130_11956" x1="112.507" y1="209.484" x2="112.507" y2="83.1924" gradientUnits="userSpaceOnUse">
<stop stop-color="#8B8BE0"/>
<stop offset="1" stop-color="#A177B7"/>
</linearGradient>
<linearGradient id="paint36_linear_130_11956" x1="119.882" y1="147.42" x2="119.882" y2="141.807" gradientUnits="userSpaceOnUse">
<stop stop-color="#8B8BE0"/>
<stop offset="1" stop-color="#A177B7"/>
</linearGradient>
<linearGradient id="paint37_linear_130_11956" x1="78.1305" y1="119.025" x2="78.1305" y2="85.7466" gradientUnits="userSpaceOnUse">
<stop stop-color="#8B8BE0"/>
<stop offset="1" stop-color="#A177B7"/>
</linearGradient>
<linearGradient id="paint38_linear_130_11956" x1="91.1815" y1="127.267" x2="91.1815" y2="96.3797" gradientUnits="userSpaceOnUse">
<stop stop-color="#8B8BE0"/>
<stop offset="1" stop-color="#A177B7"/>
</linearGradient>
<linearGradient id="paint39_linear_130_11956" x1="101.986" y1="186.409" x2="101.986" y2="177.869" gradientUnits="userSpaceOnUse">
<stop stop-color="#8B8BE0"/>
<stop offset="1" stop-color="#A177B7"/>
</linearGradient>
<linearGradient id="paint40_linear_130_11956" x1="145.972" y1="136.801" x2="145.972" y2="120.36" gradientUnits="userSpaceOnUse">
<stop stop-color="#9D68C2"/>
<stop offset="1" stop-color="#90AEFF"/>
</linearGradient>
<linearGradient id="paint41_linear_130_11956" x1="92.2587" y1="239.958" x2="92.2587" y2="214.04" gradientUnits="userSpaceOnUse">
<stop stop-color="#8B8BE0"/>
<stop offset="1" stop-color="#A177B7"/>
</linearGradient>
<linearGradient id="paint42_linear_130_11956" x1="149.874" y1="395.42" x2="149.874" y2="225.441" gradientUnits="userSpaceOnUse">
<stop stop-color="#8B8BE0"/>
<stop offset="1" stop-color="#A177B7"/>
</linearGradient>
<linearGradient id="paint43_linear_130_11956" x1="82.1153" y1="391.09" x2="82.1153" y2="240.194" gradientUnits="userSpaceOnUse">
<stop stop-color="#8B8BE0"/>
<stop offset="1" stop-color="#A177B7"/>
</linearGradient>
<linearGradient id="paint44_linear_130_11956" x1="40.316" y1="169.771" x2="40.316" y2="109.262" gradientUnits="userSpaceOnUse">
<stop stop-color="#8642A0"/>
<stop offset="1" stop-color="#6456C0"/>
</linearGradient>
<linearGradient id="paint45_linear_130_11956" x1="21.5126" y1="142.415" x2="12.8223" y2="142.415" gradientUnits="userSpaceOnUse">
<stop stop-color="#CF6074"/>
<stop offset="1" stop-color="#FF817F"/>
</linearGradient>
<linearGradient id="paint46_linear_130_11956" x1="132.625" y1="89.1673" x2="132.625" y2="88.9707" gradientUnits="userSpaceOnUse">
<stop stop-color="#9D68C2"/>
<stop offset="1" stop-color="#CCEDFF"/>
</linearGradient>
<linearGradient id="paint47_linear_130_11956" x1="102.846" y1="194.207" x2="102.846" y2="181.22" gradientUnits="userSpaceOnUse">
<stop stop-color="#B9ACF4"/>
<stop offset="1" stop-color="#E1D1F5"/>
</linearGradient>
<linearGradient id="paint48_linear_130_11956" x1="92.6048" y1="202.055" x2="92.6048" y2="192.303" gradientUnits="userSpaceOnUse">
<stop stop-color="#B9ACF4"/>
<stop offset="1" stop-color="#E1D1F5"/>
</linearGradient>
<linearGradient id="paint49_linear_130_11956" x1="52.9357" y1="171.276" x2="52.9357" y2="135.665" gradientUnits="userSpaceOnUse">
<stop stop-color="#B9ACF4"/>
<stop offset="1" stop-color="#E1D1F5"/>
</linearGradient>
<linearGradient id="paint50_linear_130_11956" x1="136.346" y1="272.455" x2="136.346" y2="234.335" gradientUnits="userSpaceOnUse">
<stop stop-color="#8B8BE0"/>
<stop offset="1" stop-color="#A177B7"/>
</linearGradient>
<linearGradient id="paint51_linear_130_11956" x1="94.3205" y1="274.204" x2="94.3205" y2="228.344" gradientUnits="userSpaceOnUse">
<stop stop-color="#8B8BE0"/>
<stop offset="1" stop-color="#A177B7"/>
</linearGradient>
<linearGradient id="paint52_linear_130_11956" x1="97.8147" y1="97.5842" x2="97.8147" y2="85.1405" gradientUnits="userSpaceOnUse">
<stop stop-color="#3D2CB0"/>
<stop offset="1" stop-color="#0355C7"/>
</linearGradient>
<linearGradient id="paint53_linear_130_11956" x1="132.934" y1="35.0406" x2="135.309" y2="18.7323" gradientUnits="userSpaceOnUse">
<stop stop-color="#5E3187"/>
<stop offset="0.3777" stop-color="#422271"/>
<stop offset="0.7555" stop-color="#2C1760"/>
<stop offset="1" stop-color="#24135A"/>
</linearGradient>
<linearGradient id="paint54_linear_130_11956" x1="105.906" y1="18.0646" x2="105.906" y2="3.39924" gradientUnits="userSpaceOnUse">
<stop stop-color="#8B8BE0"/>
<stop offset="1" stop-color="#A177B7"/>
</linearGradient>
<linearGradient id="paint55_linear_130_11956" x1="117.507" y1="18.0684" x2="117.507" y2="8.11255" gradientUnits="userSpaceOnUse">
<stop stop-color="#8B8BE0"/>
<stop offset="1" stop-color="#A177B7"/>
</linearGradient>
<linearGradient id="paint56_linear_130_11956" x1="95.5167" y1="17.2737" x2="95.5167" y2="10.8427" gradientUnits="userSpaceOnUse">
<stop stop-color="#8B8BE0"/>
<stop offset="1" stop-color="#A177B7"/>
</linearGradient>
<linearGradient id="paint57_linear_130_11956" x1="116.271" y1="48.834" x2="116.271" y2="31.8324" gradientUnits="userSpaceOnUse">
<stop stop-color="#F2C7CC"/>
<stop offset="1" stop-color="#A177B7"/>
</linearGradient>
<linearGradient id="paint58_linear_130_11956" x1="114.355" y1="47.0909" x2="112.532" y2="30.5934" gradientUnits="userSpaceOnUse">
<stop stop-color="#1C257B"/>
<stop offset="1" stop-color="#482C83"/>
</linearGradient>
<linearGradient id="paint59_linear_130_11956" x1="114.024" y1="47.0572" x2="112.2" y2="30.5596" gradientUnits="userSpaceOnUse">
<stop stop-color="#1C257B"/>
<stop offset="1" stop-color="#65459C"/>
</linearGradient>
<linearGradient id="paint60_linear_130_11956" x1="94.5059" y1="43.7646" x2="92.9632" y2="29.8047" gradientUnits="userSpaceOnUse">
<stop stop-color="#1C257B"/>
<stop offset="1" stop-color="#482C83"/>
</linearGradient>
<linearGradient id="paint61_linear_130_11956" x1="94.1364" y1="43.7646" x2="92.5937" y2="29.8047" gradientUnits="userSpaceOnUse">
<stop stop-color="#1C257B"/>
<stop offset="1" stop-color="#65459C"/>
</linearGradient>
<linearGradient id="paint62_linear_130_11956" x1="101.186" y1="33.3731" x2="100.928" y2="31.0368" gradientUnits="userSpaceOnUse">
<stop stop-color="#1C257B"/>
<stop offset="1" stop-color="#65459C"/>
</linearGradient>
<linearGradient id="paint63_linear_130_11956" x1="130.24" y1="48.0134" x2="128.872" y2="35.6336" gradientUnits="userSpaceOnUse">
<stop stop-color="#1C257B"/>
<stop offset="1" stop-color="#65459C"/>
</linearGradient>
<linearGradient id="paint64_linear_130_11956" x1="128.096" y1="41.9061" x2="128.096" y2="38.4238" gradientUnits="userSpaceOnUse">
<stop stop-color="#8642A0"/>
<stop offset="1" stop-color="#6456C0"/>
</linearGradient>
<linearGradient id="paint65_linear_130_11956" x1="119.778" y1="42.6428" x2="119.778" y2="34.9726" gradientUnits="userSpaceOnUse">
<stop/>
<stop offset="1" stop-color="#E1D1F5"/>
</linearGradient>
<linearGradient id="paint66_linear_130_11956" x1="108.473" y1="75.4019" x2="108.473" y2="61.8347" gradientUnits="userSpaceOnUse">
<stop offset="0.016" stop-color="#FFA58B"/>
<stop offset="1" stop-color="#FF898E"/>
</linearGradient>
</defs>
</svg>
