<svg width="153" height="246" viewBox="0 0 153 246" fill="none" xmlns="http://www.w3.org/2000/svg">
<path d="M-9.2039 42.7934C50.2406 57.2384 59.9572 102.392 68.9895 143.387C78.0219 184.375 111.83 222.693 43.6528 239.002C-24.5243 255.311 -125.894 233.134 -142.791 168.204C-159.687 103.274 -94.9153 109.71 -48.7926 89.3428C-2.66985 68.9755 -35.5323 36.4032 -9.2039 42.7934Z" fill="url(#paint0_linear_130_12195)"/>
<path d="M34.5544 87.9068C34.6163 88.3035 34.6535 88.5142 34.6535 88.5142C34.1951 90.4107 33.6748 92.1709 33.1174 93.7699C31.2963 99.0007 29.0293 102.719 27.3322 105.037C25.858 107.033 24.805 107.987 24.805 107.987C11.2525 103.736 4.57535 90.4727 2.01102 83.866C1.99863 83.8412 1.98625 83.804 1.97386 83.7668C1.47834 82.5272 1.15624 81.5232 0.958032 80.8663C0.958032 80.8663 0.958032 80.8663 0.958032 80.8539C0.796988 80.3333 0.722656 80.0482 0.722656 80.0482C0.772208 79.9366 0.834155 79.8127 0.883707 79.7011L0.908469 79.6515C1.13145 79.1929 1.35443 78.7095 1.55263 78.2632C3.32412 74.3835 4.50099 70.7392 5.26905 67.8759C5.92561 65.4464 6.28488 63.5623 6.44592 62.5707C6.53264 62.0625 6.56981 61.7773 6.56981 61.7773L12.8877 65.1117L34.6535 76.6394C34.3314 78.6351 34.1951 80.5192 34.1951 82.1554C34.1827 83.3205 34.2199 84.3618 34.2818 85.2418C34.3438 86.3202 34.4553 87.1755 34.542 87.7333V87.7457C34.5296 87.8201 34.542 87.8573 34.5544 87.9068Z" fill="#FE9083"/>
<path d="M29.0787 109.603C27.832 110.839 26.363 111.952 24.5977 112.879C24.5607 112.904 24.5237 112.928 24.4866 112.941C24.4866 112.941 24.4372 112.916 24.3508 112.867L24.3385 112.854C23.8694 112.57 22.2523 111.581 20.092 109.949C14.426 105.672 4.97019 97.0429 2.26678 85.3977C2.25443 85.3854 2.25442 85.373 2.25442 85.3483C1.93347 83.9637 1.72363 82.5544 1.61253 81.0956C1.61253 81.0956 1.61253 81.0957 1.61253 81.0833C1.58784 80.7001 1.56313 80.3292 1.55078 79.9336C1.55078 79.9336 3.42713 84.3593 6.68604 89.1311C10.5128 94.7436 16.2653 100.875 23.1287 100.912C29.0664 100.949 32.1154 96.8822 33.6585 93.1241C34.3127 91.5294 34.7078 89.9965 34.9053 88.8591C34.9176 88.8468 34.9176 88.8468 34.9176 88.8468C34.9793 88.513 35.0287 88.2163 35.0781 87.969V87.9567C35.1028 87.8331 35.1151 87.7218 35.1275 87.6106C35.1769 87.1902 35.2015 86.9554 35.2015 86.9554C35.2015 86.9554 37.4729 101.197 29.0787 109.603Z" fill="url(#paint1_linear_130_12195)"/>
<path opacity="0.5" d="M29.0787 109.659C27.832 110.897 26.363 112.012 24.5977 112.941H24.4866L24.3508 112.928L24.3385 112.916C23.8694 112.631 22.2523 111.64 20.092 110.005C14.426 105.72 4.97019 97.075 2.26678 85.408C2.25443 85.3956 2.25442 85.3832 2.25442 85.3584C1.93347 83.9713 1.72363 82.5593 1.61253 81.0978C1.61253 81.0978 1.61253 81.0978 1.61253 81.0854C1.58784 80.7015 1.56313 80.3299 1.55078 79.9336C1.55078 79.9336 3.42713 84.3676 6.68604 89.1484C6.68604 89.1484 10.4264 99.453 18.512 104.568C22.5609 107.12 25.6347 106.748 27.8937 105.249C30.1527 103.751 31.6093 101.15 32.4734 99.1806C33.3375 97.1989 33.6091 95.3535 33.6585 94.0034C33.6708 93.6938 33.6708 93.4213 33.6585 93.1736C34.3127 91.5759 34.7078 90.0401 34.9053 88.9007C34.9176 88.8883 34.9176 88.8883 34.9176 88.8883C34.9793 88.5539 35.0287 88.2566 35.0781 88.0089V87.9965C35.1028 87.8727 35.1151 87.7612 35.1275 87.6497C35.1769 87.2286 35.2015 86.9933 35.2015 86.9933C35.2015 86.9933 37.4729 101.237 29.0787 109.659Z" fill="url(#paint2_linear_130_12195)"/>
<path d="M81.0848 193.128C80.9857 193.178 80.9361 193.202 80.9361 193.202C80.1805 193.289 77.8024 192.783 74.7057 190.108L74.6934 190.095C74.6934 190.083 74.681 190.083 74.6686 190.071C74.6562 190.058 74.6438 190.046 74.6314 190.034C72.0303 187.765 68.9089 183.992 65.7999 177.791C59.5819 165.412 57.7983 157.151 57.501 155.709L57.4638 155.487L53.8346 161.22C51.3697 168.593 46.7124 199.071 46.7991 200.39C46.8858 201.709 50.9362 208.096 50.8495 208.885C50.8495 208.885 50.8495 208.897 50.8371 208.897C50.7256 209.686 48.9048 211.437 48.3846 213.348C48.0377 214.618 50.5027 218.613 52.2368 221.596V221.609C53.141 223.162 53.8346 224.432 53.8346 224.913C53.8346 226.306 49.4374 233.137 49.4374 233.137V236.811L49.3755 236.872L49.1649 237.057L49.0039 237.193C47.3317 238.5 40.2467 242.803 18.0997 243.986C-8.13474 245.38 -25.612 236.983 -25.612 236.983L-24.299 233.383C-24.299 233.383 -25.5253 232.335 -25.612 231.817C-25.6987 231.287 -24.6459 230.067 -24.6459 230.067C-24.6459 230.067 -27.2842 228.673 -27.2842 226.91C-27.2842 225.16 -21.9952 219.735 -22.181 215.087C-22.3544 210.451 -26.4048 206.333 -26.9374 203.707C-27.47 201.081 -20.0753 194.595 -20.0753 194.595C-26.4047 174.622 -27.6434 147.831 -27.6434 147.831L-28.8696 146.425C-28.8696 146.425 -36.4378 163.587 -43.2998 171.996C-44.1173 172.995 -44.9844 173.981 -45.8762 174.93C-47.7837 176.989 -49.8275 178.925 -51.7846 180.614C-56.5409 184.732 -60.8638 187.444 -61.9538 187.235C-63.7127 186.89 -70.7606 173.044 -70.4385 158.853C-70.2899 152.109 -66.2024 144.551 -61.9538 138.497C-61.4955 137.856 -61.0496 137.215 -60.5789 136.599C-57.569 132.518 -54.683 129.324 -53.2957 127.857C-52.7631 127.29 -52.4534 126.982 -52.4534 126.982C-52.4534 126.982 -53.4196 123.887 -54.0761 121.199C-54.0884 121.138 -54.1008 121.076 -54.1256 121.002C-54.1256 120.977 -54.138 120.94 -54.138 120.916C-54.1504 120.866 -54.1627 120.854 -54.1627 120.854C-54.5467 119.202 -54.7945 117.772 -54.5715 117.414C-53.9893 116.477 -50.5831 115.429 -49.9885 114.739C-49.4063 114.036 -46.9414 102.237 -45.0711 100.955C-43.2751 99.7218 -40.1041 98.8341 -29.5385 94.6915C-29.0183 94.4942 -28.4857 94.2846 -27.9283 94.0627C-16.0868 89.3899 -4.46835 83.7308 -4.46835 83.7308L-0.00922394 78.2812H1.97257L1.32849 79.6621L1.30373 79.7114C1.62578 81.117 1.98499 82.4609 2.39375 83.7554C2.40614 83.7924 2.41852 83.8294 2.4309 83.8541C8.56219 103.1 24.3301 109.302 24.3301 109.302C35.2921 101.251 35.0691 88.4652 35.0691 88.4652V86.7145L37.1253 87.3186L38.525 90.6475C38.525 90.6475 40.9032 94.3216 50.3169 98.4519C51.9395 99.167 53.686 100.055 55.4944 101.09C64.1154 105.96 73.7024 113.494 74.4332 115.096C74.5076 115.269 74.5943 115.516 74.681 115.885C75.6967 119.843 77.7776 134.663 79.7099 139.952C80.9113 143.256 82.8189 145.069 84.2186 146.018C84.2309 146.031 84.2309 146.03 84.2433 146.03C85.2838 146.746 86.0394 146.968 86.0394 146.968C86.188 147.781 86.3242 148.583 86.4605 149.384C90.4985 174.721 82.8189 191.92 81.0848 193.128Z" fill="url(#paint3_linear_130_12195)"/>
<path d="M123.668 155.482C122.853 156.753 118.765 159.416 117.703 160.467C116.653 161.506 117.703 164.927 117.703 164.927C100.512 182.985 82.5792 192.026 80.7761 192.906C80.6773 192.955 80.6278 192.979 80.6278 192.979C69.8338 185.795 70.7601 173.968 74.3416 163.998C77.7626 154.431 83.6413 146.587 83.9007 146.245L83.913 146.233C83.913 146.233 83.913 146.233 83.9254 146.221C84.123 146.148 87.1982 144.889 89.4088 144.718C90.1375 144.669 90.8044 144.95 91.4343 145.341C92.7434 146.148 93.8549 147.418 94.9294 146.893C96.5102 146.111 100.055 137.827 102.451 137.607C104.13 137.448 106.452 139.134 107.996 140.1C108.675 140.515 109.194 140.808 109.453 140.735C110.33 140.503 113.319 136.972 113.553 136.874C113.788 136.776 115.147 137.766 115.147 137.766L114.196 138.939C115.653 147.272 120.457 152.88 120.457 152.88L123.668 148.225C123.668 148.225 124.496 154.211 123.668 155.482Z" fill="url(#paint4_linear_130_12195)"/>
<path d="M34.6528 87.6693C34.6406 87.7938 34.6161 87.9058 34.6039 88.0302C34.5549 88.2791 34.506 88.528 34.4325 88.7769C34.4325 88.7769 34.4326 88.7894 34.4203 88.7894C33.3312 92.9086 28.9136 97.1149 23.3457 95.0864C17.2638 92.8712 5.6875 67.9318 5.6875 67.9318L6.85004 62.6055L34.3347 85.367L34.6406 87.52L34.6528 87.6693Z" fill="#CB4D7A"/>
<path d="M152.11 118.77C152.11 118.77 142.906 135.551 132.122 140.705H128.446L119.945 153.549C119.945 153.549 114.454 150.104 114.047 138.811C114.047 138.811 115.972 136.805 116.441 134.554C116.441 134.554 113.405 132.18 112.579 130.433C111.764 128.686 111.468 123.445 110.888 121.28C110.309 119.127 105.336 114.637 104.226 114.059C103.115 113.48 98.0938 113.185 98.0938 113.185C98.0938 113.185 97.3905 111.377 98.0938 110.515C98.7971 109.642 106.619 106.603 110.888 109.519C110.888 109.519 111.185 111.733 111.641 112.902C112.11 114.059 115.848 118.192 116.428 118.192C117.008 118.192 119.525 116.101 120.636 114.465C121.697 112.902 127.347 100.747 128.717 96.6385C128.729 96.5893 128.729 96.5523 128.754 96.5154C128.779 96.4539 128.803 96.3924 128.803 96.3309C128.828 96.2817 128.828 96.2448 128.84 96.2079C128.853 96.1956 128.853 96.1833 128.853 96.1587C129.901 92.6033 136.046 85.7878 139.315 83.9302C139.315 83.9302 140.71 83.5857 141.475 85.3203C141.475 85.3203 138.847 92.7878 136.095 97.2044C135.639 97.9548 135.133 98.8283 134.615 99.7632C134.615 99.7632 134.615 99.7632 134.602 99.7632C132.258 104.057 129.63 109.667 129.248 110.491L129.198 110.589L130.654 111.34L134.602 107.6L138.649 103.774L147.952 113.566L147.039 114.723L144.14 118.438L145.608 118.709L149.026 114.932L152.11 118.77Z" fill="url(#paint5_linear_130_12195)"/>
<path opacity="0.6" d="M149.952 122.341L147.015 126.647C147.015 126.647 130.865 114.234 127.361 113.176C123.857 112.13 122.573 112.831 122.573 112.831L118.958 117.432C118.958 117.432 125.621 123.313 126.201 131.235C126.201 131.235 123.98 121.221 116.441 118.183C117.021 118.183 119.538 116.091 120.649 114.455C121.71 112.893 127.361 100.738 128.73 96.6289C128.545 97.3301 128.311 98.6957 128.878 99.7783C129.668 101.242 134.356 99.8644 134.628 99.7783C134.64 99.7783 134.64 99.7783 134.64 99.7783L129.273 110.506L129.224 110.604L130.68 111.355L134.628 107.615L132.654 112.204L147.065 114.738L144.165 118.453L145.633 118.724L149.952 122.341Z" fill="url(#paint6_linear_130_12195)"/>
<path d="M138.697 103.811C138.697 103.811 141.498 103.405 143.312 107.009L142.904 108.178C142.904 108.178 145.644 108.707 148.284 113.136C148.284 113.136 145.952 117.392 140.165 119.312C140.165 119.312 137.476 118.549 137.007 116.285L137.537 114.833L135.44 116.408C135.44 116.408 132.923 117.171 131.812 113.431L138.697 103.811Z" fill="url(#paint7_linear_130_12195)"/>
<path d="M152.952 117.612C152.952 117.612 153.532 114.931 150.669 113.184L145.117 119.298C145.117 119.298 145.29 121.254 147.684 121.685C147.696 121.697 151.496 120.405 152.952 117.612Z" fill="url(#paint8_linear_130_12195)"/>
<path opacity="0.91" d="M112.574 130.434C112.574 130.434 119.002 137.594 128.441 140.706L124.369 146.857L115.881 136.117L116.424 134.567C116.436 134.555 113.043 132.021 112.574 130.434Z" fill="url(#paint9_linear_130_12195)"/>
<path d="M142.902 108.18C142.902 108.18 140.212 112.609 137.523 114.823L136.992 116.275C136.992 116.275 142.211 112.768 144.124 108.709C144.136 108.709 143.507 108.266 142.902 108.18Z" fill="#E28183"/>
<path opacity="0.5" d="M123.666 155.408C122.859 156.681 118.808 159.35 117.755 160.402C116.715 161.443 117.755 164.87 117.755 164.87C100.719 182.962 82.9494 192.02 81.1627 192.901C81.0648 192.95 81.0158 192.975 81.0158 192.975C79.6206 193.146 72.8406 191.237 66.0606 177.674C59.917 165.384 58.1547 157.183 57.8609 155.751L57.8242 155.531L59.3173 153.499L61.5447 128.454L63.0989 133.497C69.01 126.361 74.5784 115.418 74.5784 115.418L74.8232 116.201V116.214C75.8267 120.143 77.8828 134.856 79.7919 140.107C80.9791 143.388 82.8638 145.187 84.2467 146.13L84.2589 146.142L84.2467 146.154C78.8007 151.124 76.1082 158.26 74.7743 163.94C73.5504 169.155 73.477 173.145 73.477 173.145C73.477 173.145 74.9823 166.082 79.7308 157.575C81.4564 154.478 83.9652 151.724 86.4618 149.447C88.3343 147.746 90.1945 146.313 91.7121 145.248C93.0093 146.056 94.1108 147.329 95.1755 146.803C88.0161 157.55 88.1874 178.825 94.9185 174.773C101.637 170.721 103.167 162.104 103.167 162.104C101.576 151.614 102.053 139.777 103.326 137.537C104.868 137.586 109.311 140.707 109.568 140.634C109.164 152.972 114.965 161.223 114.965 161.223L118.795 155.298C113.227 145.909 113.643 136.766 113.643 136.766C113.876 136.668 115.222 137.659 115.222 137.659L114.279 138.834C115.724 147.183 120.484 152.801 120.484 152.801L123.666 148.137C123.666 148.137 124.486 154.135 123.666 155.408Z" fill="url(#paint10_linear_130_12195)"/>
<path opacity="0.5" d="M48.7226 233.183V236.843L48.661 236.905L48.4512 237.089L48.2908 237.224C46.6254 238.526 39.5687 242.812 17.5105 243.992C-8.61882 245.379 -26.0261 237.015 -26.0261 237.015L-24.7184 233.429C-24.7184 233.429 -25.9397 232.385 -26.0261 231.869C-26.1124 231.341 -25.0638 230.125 -25.0638 230.125C-25.0638 230.125 -27.6915 228.737 -27.6915 226.98C-27.6915 225.408 -23.3983 220.852 -22.7075 216.565C-22.6211 216.111 -22.5841 215.656 -22.6088 215.202C-22.7815 210.596 -26.7786 206.518 -27.3338 203.902C-27.3461 203.877 -27.3461 203.865 -27.3461 203.865C-27.8766 201.249 -20.5115 194.788 -20.5115 194.788C-26.8156 174.891 -28.0493 148.201 -28.0493 148.201L-29.2706 146.801C-29.2706 146.801 -36.8084 163.898 -43.643 172.275C-50.4776 180.651 -60.4704 187.812 -62.2222 187.456C-66.2564 187.456 -70.7593 180.479 -74.8428 171.87C-78.9263 163.26 -79.1854 138.523 -79.3951 137C-79.6172 135.477 -81.8871 132.419 -82.0352 131.104C-77.6556 138.609 -70.673 136.398 -70.673 136.398C-75.7311 136.509 -78.3588 127.088 -78.3588 127.088L-78.3835 127.027L-78.4081 126.965L-80.8755 120.468C-80.5917 120.775 -74.8181 127.223 -69.2295 123.244C-63.5053 119.178 -60.5568 111.293 -60.5568 111.293V121.414C-60.5568 121.414 -60.2114 122.986 -59.6932 122.986C-60.0386 127.641 -61.0256 133.315 -62.2222 138.904C-64.8253 150.99 -68.3783 162.67 -68.3783 162.67C-68.3783 162.67 -58.7186 157.438 -55.326 144.173C-53.7099 137.823 -53.4385 132.308 -53.5988 128.292C-53.7345 124.853 -54.191 122.507 -54.3761 121.647C-54.3884 121.586 -54.4007 121.524 -54.4254 121.45C-54.4254 121.426 -54.4377 121.389 -54.4377 121.364C-54.4377 121.34 -54.4501 121.328 -54.4501 121.315L-53.5125 123.281L-51.736 127.665C-49.6757 144.689 -53.9319 170.334 -53.9319 170.334C-47.7388 162.658 -46.4435 145.671 -46.7149 141.544C-46.8382 139.579 -46.9863 137.147 -47.0973 135.158C-47.233 132.984 -47.3317 131.338 -47.3317 131.338L-34.6495 138.867L-36.9935 131.485L-27.7656 138.867C-27.7656 138.867 -19.4629 148.816 -10.9381 149.97C-2.41341 151.137 28.8974 150.437 28.8974 150.437C28.8974 150.437 1.67007 152.181 -6.27483 154.502C-14.2197 156.836 -15.7372 159.501 -15.7372 159.501C-9.98822 188.598 21.8037 198.399 22.7907 198.694C-6.05276 194.383 -19.4752 169.966 -19.4752 169.966C-19.4752 169.966 -19.944 183.697 -17.7234 188.93C-15.5028 194.162 -2.41342 206.96 14.414 209.626C15.8327 209.847 17.2268 209.982 18.6085 210.043C32.7958 210.706 44.5405 203.484 45.7495 202.711C45.8111 202.661 45.8482 202.649 45.8482 202.649C45.8482 202.649 45.8358 202.661 45.8235 202.698C45.367 203.386 39.5564 211.529 16.0548 212.426C14.6361 212.487 13.242 212.475 11.8973 212.414C11.8849 212.414 11.885 212.414 11.885 212.414C-9.88951 211.505 -20.9803 197.061 -20.9803 197.061C-20.9803 197.061 -29.0362 201.372 -23.8918 207.759C-23.8424 207.82 -23.7807 207.894 -23.7314 207.967C-22.214 209.711 -18.8707 211.836 -14.9229 214.023C-14.8119 214.084 -14.7009 214.145 -14.6022 214.207C-9.82783 216.835 -4.23925 219.537 0.0909729 221.773C0.115646 221.785 0.140305 221.785 0.152641 221.797C2.79272 223.173 4.97635 224.352 6.18536 225.236C6.19769 225.236 6.19767 225.249 6.19767 225.249C7.41901 226.133 7.66575 226.698 6.46908 226.845C0.387032 227.545 -22.6211 222.547 -23.5587 223.934C-24.4963 225.335 -22.4237 228.933 -22.4237 228.933C-1.30309 239.361 43.9113 234.215 45.33 234.067C7.49303 243.709 -23.4477 231.5 -23.4477 231.5L-22.4237 235.111C-22.4237 235.111 -5.57165 240.921 14.2906 241.388C34.1652 241.842 46.539 236.794 46.539 236.794L48.7226 233.183Z" fill="url(#paint11_linear_130_12195)"/>
<path opacity="0.5" d="M33 150.074C33 150.074 48.4487 150.852 58.655 153.363L53.3872 160.802C53.3872 160.802 45.4729 154.318 33 150.074Z" fill="url(#paint12_linear_130_12195)"/>
<path opacity="0.5" d="M47.8935 191.332C47.8935 191.332 38.3737 199.418 29.0165 203.149C19.6593 206.88 10.6523 207.25 10.6523 207.25C10.6523 207.25 16.0315 208.88 29.2792 206.702C42.5143 204.537 47.0428 197.228 47.0428 197.228L47.8935 191.332Z" fill="url(#paint13_linear_130_12195)"/>
<path opacity="0.5" d="M4.86027 152.392C-10.1198 153.886 -14.1543 157.988 -14.1543 157.988C-18.3632 158.515 -27.8269 147.909 -27.8269 147.909L-29.0597 146.513C-29.0597 146.513 -36.668 163.561 -43.5666 171.913C-44.3884 172.905 -45.26 173.885 -46.1566 174.828L-45.1729 172.661C-45.1729 172.661 -43.5666 171.913 -43.1058 163.61C-42.6326 155.331 -46.6423 142.973 -46.6672 141.283C-46.6921 139.593 -47.2773 131.094 -47.2773 131.094L-34.4764 138.601L-36.8424 131.241L-27.5281 138.601C-27.5281 138.601 -23.8796 144.002 -14.6649 148.497C-5.96077 152.783 3.78938 152.441 4.86027 152.392Z" fill="url(#paint14_linear_130_12195)"/>
<path opacity="0.76" d="M60.9548 128.617L62.2756 133.641L63.6173 174.827C63.6173 174.827 60.2163 166.987 57.8242 155.807L59.0619 153.563C59.0723 153.563 61.1628 138.042 60.9548 128.617Z" fill="url(#paint15_linear_130_12195)"/>
<path opacity="0.5" d="M109.62 140.996C109.62 140.996 108.78 161.047 117.004 162.787L117.413 164.926C117.424 164.926 106.774 164.515 109.62 140.996Z" fill="url(#paint16_linear_130_12195)"/>
<path opacity="0.3" d="M95.0695 146.713C95.0695 146.713 94.7296 147.453 91.5069 145.121C91.5069 145.121 80.3406 152.994 76.0352 164.1C76.0352 164.1 82.9213 153.896 86.5846 152.793C90.248 151.69 91.1292 155.764 91.1292 155.764C91.1292 155.764 92.5769 150.035 95.0695 146.713Z" fill="url(#paint17_linear_130_12195)"/>
<path opacity="0.5" d="M49.5273 103.863C49.5273 103.863 48.8834 113.474 44.2793 120.367C39.6631 127.26 30.5156 131.919 30.5156 131.919C30.5156 131.919 41.9955 127.696 47.2556 121.75C52.5279 115.792 49.5273 103.863 49.5273 103.863Z" fill="url(#paint18_linear_130_12195)"/>
<path opacity="0.5" d="M-10.4523 89.0078C-10.4523 89.0078 -10.4523 97.225 -7.77979 105.603C-5.10726 113.982 18.1049 128.616 18.1049 128.616C18.1049 128.616 -5.8099 118.786 -10.4523 109.948C-15.0948 101.11 -10.4523 89.0078 -10.4523 89.0078Z" fill="url(#paint19_linear_130_12195)"/>
<path d="M-10.8633 127.804V140.691C-10.8633 140.691 19.9792 140.452 54.5482 142.65L55.3432 131.052C55.3432 131.052 25.2832 127.625 -10.8633 127.804Z" fill="url(#paint20_linear_130_12195)"/>
<path d="M-4.5351 130.957C-4.52277 130.736 -4.42407 130.625 -4.20199 130.625L2.00408 130.81C2.62098 130.822 3.13921 130.92 3.57104 131.092C4.00287 131.265 4.33599 131.486 4.59509 131.781C4.85419 132.077 5.03926 132.421 5.13797 132.827C5.24901 133.233 5.29838 133.688 5.2737 134.193L5.22434 135.89C5.212 136.395 5.13798 136.838 5.00226 137.244C4.86655 137.65 4.66911 137.982 4.39767 138.252C4.12623 138.523 3.76845 138.732 3.33661 138.88C2.90478 139.027 2.37424 139.077 1.75734 139.064L-1.58632 138.966L-2.27725 137.022H-2.36359L-2.4253 138.954L-4.76953 138.88L-4.5351 130.957ZM-2.36359 136.788L1.59694 136.911C2.04111 136.924 2.3619 136.838 2.55931 136.641C2.75672 136.444 2.85543 136.099 2.88011 135.607L2.91712 134.23C2.92946 133.713 2.85542 133.368 2.67034 133.172C2.48527 132.987 2.17683 132.876 1.72032 132.864L-2.07983 132.753C-2.12919 132.753 -2.17855 132.766 -2.20322 132.802C-2.24024 132.839 -2.25255 132.876 -2.25255 132.926L-2.36359 136.788Z" fill="white"/>
<path d="M8.64384 134.484H8.56982L8.49579 136.957C8.49579 137.067 8.54514 137.117 8.64384 137.117L15.6272 137.326L15.5655 139.466L6.41065 139.196C6.18856 139.183 6.08984 139.073 6.08984 138.851L6.32427 131.285C6.33661 131.064 6.44765 130.953 6.66974 130.953L15.5532 131.224C15.7753 131.236 15.8863 131.347 15.8863 131.568L15.8246 133.709L13.6284 134.447H13.5421L13.5791 133.352C13.5791 133.266 13.5421 133.229 13.468 133.229L8.77958 133.081C8.71789 133.081 8.68087 133.094 8.65619 133.131C8.63152 133.168 8.63152 133.204 8.61918 133.241L8.58217 134.275L12.444 134.385L12.3946 136.059L9.14971 135.96L8.64384 134.484Z" fill="white"/>
<path d="M24.1509 134.342H24.0645L24.0892 133.432C24.0892 133.346 24.0522 133.296 23.9535 133.296L19.5858 133.161C19.4254 133.161 19.3143 133.186 19.2526 133.26C19.1909 133.321 19.1539 133.419 19.1539 133.555L19.1416 133.764C19.1416 133.924 19.1539 134.022 19.2156 134.071C19.265 134.121 19.3637 134.158 19.5241 134.182L24.6444 135.056C24.9652 135.117 25.249 135.191 25.4711 135.289C25.6931 135.388 25.8782 135.523 26.0139 135.683C26.1497 135.843 26.2483 136.04 26.2977 136.261C26.347 136.495 26.3717 136.753 26.3594 137.073L26.3347 137.725C26.3224 138.07 26.273 138.365 26.1867 138.623C26.1003 138.882 25.9522 139.091 25.7548 139.263C25.5574 139.435 25.3106 139.558 24.9899 139.644C24.6814 139.731 24.2866 139.755 23.8424 139.743L16.4766 139.521L16.5382 137.381L23.1391 137.578C23.3365 137.578 23.4723 137.553 23.534 137.479C23.5957 137.405 23.6327 137.282 23.645 137.098L23.6574 136.876C23.6574 136.729 23.645 136.63 23.5956 136.569C23.5463 136.507 23.4476 136.47 23.3119 136.446L18.3766 135.671C18.0435 135.609 17.7597 135.535 17.5253 135.437C17.2909 135.339 17.0935 135.216 16.9454 135.056C16.7974 134.896 16.6987 134.711 16.637 134.49C16.5753 134.268 16.5506 134.01 16.5629 133.702L16.5753 133.124C16.5876 132.521 16.7603 132.066 17.0935 131.746C17.4266 131.426 17.9571 131.279 18.6974 131.303L26.051 131.525C26.2854 131.537 26.3964 131.66 26.3964 131.894L26.3471 133.592L24.1509 134.342Z" fill="white"/>
<path d="M27.2578 139.825L27.5046 131.57L29.8488 131.644L29.6021 139.899L27.2578 139.825Z" fill="white"/>
<path d="M38.292 136.629C38.292 136.506 38.292 136.383 38.2796 136.247C38.2673 136.112 38.2673 136.001 38.2549 135.903V135.804L40.5745 135.878L40.4511 139.926C40.4388 140.135 40.3401 140.245 40.155 140.233L33.9243 140.049C33.3073 140.024 32.7892 139.938 32.3573 139.766C31.9255 139.593 31.5924 139.372 31.3333 139.077C31.0742 138.781 30.8891 138.437 30.7904 138.031C30.6794 137.625 30.63 137.17 30.6547 136.678L30.704 134.98C30.7164 134.476 30.7904 134.033 30.9261 133.627C31.0618 133.221 31.2592 132.889 31.543 132.618C31.8144 132.347 32.1723 132.138 32.6041 131.991C33.0359 131.843 33.5665 131.781 34.1834 131.806L40.3771 131.991C40.5992 132.003 40.7102 132.114 40.6979 132.335L40.6485 134.119L38.4524 134.845H38.366L38.3907 134.057C38.3907 133.984 38.366 133.947 38.292 133.947L34.3438 133.824C34.1217 133.811 33.9243 133.836 33.7639 133.873C33.6035 133.91 33.4801 133.984 33.3814 134.082C33.2827 134.18 33.2087 134.316 33.1593 134.488C33.1099 134.66 33.073 134.869 33.073 135.115L33.0236 136.567C33.0113 137.059 33.0976 137.416 33.2703 137.613C33.4554 137.81 33.7639 137.92 34.2204 137.933L38.1439 138.056C38.2303 138.056 38.2673 138.019 38.2673 137.92L38.292 136.629Z" fill="white"/>
<path d="M45.5202 132.126C45.6929 132.126 45.8163 132.163 45.8903 132.212C45.9643 132.262 46.026 132.348 46.0754 132.471L49.0365 138.487C49.0859 138.573 49.1599 138.622 49.2463 138.634H49.3697C49.4931 138.634 49.5547 138.585 49.5547 138.462L49.7398 132.249L51.862 132.311L51.6152 140.234C51.6029 140.455 51.5041 140.553 51.2821 140.553L47.9138 140.455C47.7534 140.455 47.6423 140.43 47.556 140.381C47.4819 140.332 47.4079 140.246 47.3462 140.111L44.274 134.095C44.237 134.009 44.163 133.959 44.0643 133.947H43.9532C43.8298 133.947 43.7682 133.996 43.7682 134.119L43.5831 140.32L41.4609 140.258L41.7077 132.348C41.7201 132.126 41.8187 132.016 42.0408 132.016L45.5202 132.126Z" fill="white"/>
<path opacity="0.5" d="M37.9645 90.7571C37.2586 99.4268 34.6663 105.472 31.9158 109.552C28.1187 115.149 24.0173 117.065 24.0173 117.065C19.9159 115.236 16.35 112.96 13.2831 110.447C0.272992 99.8124 -3.92576 85.0852 -4.24219 83.8662C1.24662 97.4242 9.31552 105.646 15.4372 110.273C20.3662 114.017 24.0295 115.423 24.0295 115.423V111.082C23.0558 110.709 22.1065 110.286 21.2059 109.813C10.4352 104.265 4.776 92.6976 2.13505 85.222C2.12288 85.2095 2.1229 85.1971 2.1229 85.1722C0.686803 81.1297 0.139133 78.2812 0.139133 78.2812H2.08639L1.45351 79.6744L1.42918 79.7241C1.74561 81.1421 2.09856 82.4979 2.50018 83.804C2.51235 83.8413 2.52452 83.8786 2.53669 83.9035C8.56099 103.32 24.0538 109.577 24.0538 109.577C34.8245 101.454 34.6054 88.5555 34.6054 88.5555V86.7892L36.6257 87.3987L37.9645 90.7571Z" fill="url(#paint21_linear_130_12195)"/>
<path opacity="0.3" d="M103.019 137.695C103.019 137.695 100.129 147.39 102.864 162.451C102.864 162.451 104.231 143.357 105.25 141.692C106.27 140.027 109.136 140.816 109.136 140.816C109.136 140.816 104.627 138.25 103.019 137.695Z" fill="url(#paint22_linear_130_12195)"/>
<path opacity="0.5" d="M74.281 189.684C71.7821 187.436 68.7835 183.698 65.7968 177.553C59.8233 165.287 58.1098 157.102 57.8242 155.672L59.2402 153.425L61.1441 134.55L62.9171 133.462C62.9171 133.462 69.2595 126.267 74.0787 115.418C74.1501 115.589 74.2334 115.833 74.3167 116.2V116.224C75.2924 120.146 77.2915 134.831 79.1478 140.072C80.3021 143.346 82.1346 145.142 83.4792 146.082C83.4792 146.082 72.4961 162.807 71.9607 174.743C71.4966 185.604 73.8526 189.134 74.281 189.684Z" fill="url(#paint23_linear_130_12195)"/>
<path opacity="0.5" d="M55.3424 101.3L37.41 107.119L32.157 109.555L32.1322 109.568L28.7171 109.58L24.0974 109.593L21.2163 109.829L19.6888 109.941L15.3423 110.289L13.1566 110.463L-8.35227 102.668L-12.202 101.275L-29.8984 94.8602C-29.3769 94.6613 -28.8428 94.4499 -28.284 94.2261C-16.4119 89.5142 -4.7633 83.8077 -4.7633 83.8077L-0.292656 78.3125H1.69432C3.47017 74.4212 4.64993 70.766 5.41988 67.8941L6.59966 62.573C6.68658 62.0633 6.72385 61.7773 6.72385 61.7773L13.0573 65.1217L34.4047 82.2163C34.3923 83.385 34.4296 84.4293 34.4917 85.312L34.8021 87.4629C34.8518 87.0402 34.8766 86.8039 34.8766 86.8039L36.9381 87.4131L38.3414 90.7699C38.3414 90.7699 40.7258 94.4748 50.1639 98.6397C51.7907 99.3607 53.5417 100.268 55.3424 101.3Z" fill="#7A4AC0"/>
<path d="M41.5931 85.1082C41.5931 85.1082 33.2895 86.9659 24.1223 82.5493C14.9551 78.1205 7.24377 65.0677 6.77492 61.8199C6.31841 58.5598 10.2789 50.0466 10.2789 43.4034C10.2789 36.7601 7.00932 25.3436 12.4998 19.1678C17.9902 12.9921 43.234 12.0694 51.4142 19.9921C51.4142 19.9921 53.9435 26.3401 53.9435 29.9323C53.9435 30.7935 53.7831 32.0729 53.561 33.5369C53.487 34.0782 53.3883 34.6564 53.2896 35.2592C52.5616 39.602 51.5499 44.9042 52.0187 47.2294C52.1791 48.0413 52.4382 48.7918 52.7467 49.493V49.5053C53.7584 51.8304 55.2513 53.6881 55.5228 55.6934C55.8806 58.3138 52.3519 76.9518 41.5931 85.1082Z" fill="url(#paint24_linear_130_12195)"/>
<path d="M10.2145 41.5231C10.2145 41.5231 7.94423 35.8517 2.25636 35.7656C2.25636 35.7656 -1.07493 37.082 -1.60547 39.6162C-1.60547 39.6162 -0.383991 48.7938 1.02255 53.075C2.4291 57.3562 7.56173 56.7411 7.56173 56.7411C7.56173 56.7411 12.0405 49.901 10.2145 41.5231Z" fill="url(#paint25_linear_130_12195)"/>
<path d="M32.1016 60.1952C32.1016 60.1952 34.0016 60.0475 34.8159 60.6627C35.6302 61.2778 38.6161 64.1565 42.3792 64.9439C46.1423 65.7312 48.6716 62.5326 49.4736 62.3604C50.2756 62.2004 51.1639 63.3323 51.1639 63.3323C51.1639 63.3323 50.8184 62.0282 48.8567 61.4254C48.8567 61.4254 48.0671 64.4395 42.6013 63.4061C37.1355 62.3727 34.8159 59.9491 34.8159 59.9491L34.5445 59.457C34.5445 59.4693 33.0022 59.7892 32.1016 60.1952Z" fill="url(#paint26_linear_130_12195)"/>
<path opacity="0.6" d="M24.0437 31.986L24.1178 31.4078C24.1178 31.4078 29.5712 21.8735 40.3424 21.6152C51.1259 21.3568 53.5565 28.0862 53.5565 28.0862L55.5553 25.0598L51.0025 15.8454L19.3306 15.3164L11.6193 21.5168L10.6445 36.7101L14.0745 56.7629L22.4151 61.1917L24.7717 59.1126C23.8957 52.3956 18.8987 46.269 18.8987 46.269L22.5508 43.747C22.5508 43.747 31.9278 48.2743 37.3442 46.921C37.3442 46.921 41.4158 35.0616 41.1814 26.2778C41.1814 26.2532 27.2887 28.3076 24.0437 31.986Z" fill="url(#paint27_linear_130_12195)"/>
<path d="M23.5625 32.6866C23.5625 32.6866 24.0931 29.2543 29.9043 27.8764C36.3818 26.3509 41.6378 25.0469 41.6378 25.0469C41.6378 25.0469 40.4904 28.8114 38.3312 30.2261C38.3312 30.2261 31.4836 29.9801 28.0166 30.7675C24.5372 31.5548 23.5625 32.6866 23.5625 32.6866Z" fill="#38368E"/>
<path d="M53.5626 28.0781C53.5626 28.0781 50.2807 30.6001 48.0352 36.6405C48.0352 36.6405 50.182 33.8479 52.1561 33.8848C53.5133 33.9094 53.2912 35.2504 53.2912 35.2504C53.2912 35.2504 54.636 31.6458 53.5626 28.0781Z" fill="#38368E"/>
<path d="M25.7344 42.4039C25.7344 42.4039 26.0799 35.1455 33.1866 33.3125C33.1866 33.3125 35.7282 36.5849 35.9874 40.3002C35.9874 40.3002 32.2119 39.599 25.7344 42.4039Z" fill="url(#paint28_linear_130_12195)"/>
<path d="M46.0664 45.2854C46.0664 45.2854 46.6463 39.5156 49.9652 37.375C49.9652 37.375 52.2355 39.0727 52.001 43.9075C51.9887 43.9075 50.0023 43.194 46.0664 45.2854Z" fill="url(#paint29_linear_130_12195)"/>
<path d="M25.7344 42.4069C25.7344 42.4069 28.0416 45.2365 34.4945 45.7901C34.4945 45.7901 35.7283 43.9201 35.6049 40.2663C35.6049 40.2663 29.6702 39.6881 25.7344 42.4069Z" fill="#FFEBED"/>
<path d="M46.0664 45.2833V46.1322C46.0664 46.1322 47.0658 48.199 50.6192 48.5558C50.6192 48.5558 51.7666 46.7719 51.8653 43.8809C51.8653 43.8686 49.5951 43.3027 46.0664 45.2833Z" fill="#FFEBED"/>
<path d="M32.6313 40.1106C32.6313 40.1106 30.9903 42.0913 31.1384 45.2283C31.1384 45.2283 33.2852 45.7327 34.4943 45.7819C34.4943 45.7819 35.9009 43.8259 35.6047 40.2582C35.6047 40.2705 33.7293 39.8645 32.6313 40.1106Z" fill="#7F9EC9"/>
<path d="M49.4497 43.9721C49.4497 43.9721 48.5243 44.9563 48.3516 47.995C48.3516 47.995 49.6224 48.5486 50.6341 48.5486C50.6341 48.5486 51.9296 46.7156 51.8803 43.8737C51.868 43.8737 50.9673 43.5293 49.4497 43.9721Z" fill="#7F9EC9"/>
<path d="M32.1014 45.4482C32.1014 45.4482 31.5091 41.5237 33.767 40.0352L35.6054 40.2689C35.6054 40.2689 36.2223 43.3691 34.495 45.7926C34.495 45.7803 32.6689 45.5712 32.1014 45.4482Z" fill="#38368E"/>
<path d="M50.2645 43.7969C50.2645 43.7969 49.4378 45.5316 49.043 48.2504C49.043 48.2504 49.6846 48.5087 50.6223 48.5456C50.6223 48.5456 51.8808 47.0078 51.8684 43.8707C51.8684 43.8707 50.9061 43.6124 50.2645 43.7969Z" fill="#38368E"/>
<path d="M25.7344 42.4066C25.7344 42.4066 30.028 39.9215 37.3446 41.3363L35.9874 40.3152C35.9874 40.3029 30.7683 38.6913 25.7344 42.4066Z" fill="#131163"/>
<path d="M46.0664 45.2834C46.0664 45.2834 49.5087 43.4627 53.5309 44.4222L51.8776 43.2043C51.8653 43.2043 49.1756 42.7983 46.0664 45.2834Z" fill="#131163"/>
<path d="M30.375 42.4028C30.375 42.4028 31.5471 42.1445 32.5958 43.2025C32.5958 43.2025 31.1523 43.6207 30.375 42.4028Z" fill="white"/>
<path d="M47.6484 45.7748C47.6484 45.7748 49.4745 45.418 50.1161 46.2546C50.1037 46.2546 49.129 46.9312 47.6484 45.7748Z" fill="white"/>
<path d="M26.1641 42.8281C26.1641 42.8281 29.4953 46.1128 34.8501 46.9002L34.9858 44.9564L34.4923 45.7807C34.4923 45.7807 29.3596 45.4854 26.1641 42.8281Z" fill="#C6659C"/>
<path d="M46.0664 46.1328C46.0664 46.1328 46.6586 48.2611 51.014 49.2207L50.8783 48.175L50.6315 48.5441C50.6192 48.5441 47.5346 48.1504 46.0664 46.1328Z" fill="#C6659C"/>
<path d="M37.3438 54.6336C37.3438 54.6336 38.96 54.2891 41.9458 54.6336C44.9317 54.978 48.2753 55.8023 50.1013 54.6336C50.1013 54.6336 47.6708 57.0571 45.5609 57.4262C43.4511 57.7952 40.2432 55.9499 40.2432 55.9499L38.8367 55.9745C38.849 55.9745 37.7632 55.4455 37.3438 54.6336Z" fill="#CB5F7D"/>
<path d="M39.0508 55.9792C39.0508 55.9792 39.7787 55.5117 40.3956 55.6224C41.0125 55.7332 41.6294 56.6312 41.6294 56.6312C41.6294 56.6312 40.3463 55.9546 39.0508 55.9792Z" fill="#9F4A8B"/>
<path d="M50.1041 54.6362C50.8814 53.8734 46.8468 46.7135 44.922 46.4551C42.9973 46.1968 41.1836 54.4762 41.1836 54.4762C41.1836 54.4762 43.861 54.8453 46.4643 55.2021C49.0677 55.5465 50.1041 54.6362 50.1041 54.6362Z" fill="#FFBCAF"/>
<path opacity="0.6" d="M52.992 32.0966C51.9062 31.9613 48.0444 36.6362 48.0444 36.6362C48.0444 36.6362 45.5891 44.2144 46.0703 46.4534C46.5515 48.7048 52.5108 49.8981 52.5108 49.8981L52.7575 49.5044V49.4921C52.4491 48.7786 52.19 48.0404 52.0296 47.2285C51.5607 44.9033 52.5601 39.601 53.3004 35.2583C53.3004 35.2583 53.5348 34.3603 53.5719 33.536C53.5965 32.8102 53.4855 32.1458 52.992 32.0966Z" fill="url(#paint30_linear_130_12195)"/>
<path d="M52.8172 62.8513C51.5834 60.2924 52.3484 58.9515 41.6636 57.5613C26.537 55.5807 25.2415 60.1817 22.6752 59.4805C22.5888 59.4559 22.4778 59.419 22.3667 59.3698C19.5783 58.2872 13.0268 51.8654 12.8541 43.2045C12.6813 34.1992 18.727 27.8143 18.727 27.8143C16.5308 25.9813 15.6548 20.6544 18.0237 18.3785C20.3927 16.1149 24.4272 16.6315 34.3224 17.6772C44.2299 18.7229 44.2299 18.1201 44.2299 18.1201C47.3761 18.9198 49.1775 21.86 49.6833 22.8073C49.782 22.9918 49.8314 23.1026 49.8314 23.1026L51.0652 21.9707C54.3965 26.781 53.7796 32.0217 53.7796 32.0217C53.7796 32.0217 59.2084 21.0112 58.5915 19.4488C57.4687 16.57 54.3224 12.375 54.1374 12.1043L54.1251 12.092C54.1251 12.092 53.2491 3.70182 50.621 3.70182C47.993 3.70182 36.7777 6.22379 36.7777 6.22379C38.0115 3.34505 37.8264 0.0234375 37.8264 0.0234375C37.8264 0.0234375 37.8141 0.0357315 37.7771 0.0726385C34.1126 3.34505 30.5346 3.70182 25.4636 6.05156C22.9096 7.24488 21.7128 8.33979 20.7134 9.4839L20.368 9.88988L20.0102 10.3205C19.6647 10.7633 19.2946 11.2185 18.8627 11.6737C18.838 11.6983 18.8134 11.7229 18.801 11.7229C18.7764 11.7352 18.7763 11.7475 18.7763 11.7475C18.3692 12.1904 17.888 12.6456 17.3081 13.1254C13.9769 15.8319 6.64801 17.6403 5.772 20.4945C4.89599 23.3486 6.88243 27.2484 7.93117 31.2713C8.97991 35.2941 8.49871 38.8495 8.49871 38.8495C8.49871 38.8495 11.9904 43.3276 10.8306 49.8847C9.80657 55.7652 7.561 56.7248 7.561 56.7248C5.98173 59.9603 6.73437 62.9866 6.73437 62.9866C9.96696 75.8302 23.3661 83.47 23.3661 83.47C35.2847 87.8988 43.1194 85.9674 43.1194 85.9674C43.1194 85.9674 43.1195 85.9673 43.1318 85.955C51.8055 80.3206 54.7666 61.6703 54.9023 60.7968C54.7419 61.0429 53.138 63.5279 52.8172 62.8513ZM47.4625 74.7353C45.365 74.3909 44.9208 69.0763 44.2299 68.3751C43.5266 67.6861 39.7265 67.9691 39.7265 67.9691C39.7265 67.9691 36.2224 71.9304 34.8282 72.0411C33.4217 72.1642 25.9448 69.1255 27.5611 64.5859C29.1651 60.0341 34.8282 59.4559 34.8282 59.4559C34.8282 59.4559 37.7524 61.904 42.1324 62.187C46.5124 62.4699 48.104 61.6703 48.6222 61.4366C49.1528 61.2028 51.9659 62.4822 51.8919 66.4436C51.8302 69.2239 49.5723 75.0798 47.4625 74.7353Z" fill="url(#paint31_linear_130_12195)"/>
<path d="M46.9197 48.0391C46.9197 48.0391 50.6952 52.7139 50.3374 54.4732C49.9425 56.3923 45.5625 57.4257 45.5625 57.4257C45.5625 57.4257 49.0665 56.2201 49.7945 54.4732C49.7945 54.4732 48.8938 50.9301 46.9197 48.0391Z" fill="#D2726C"/>
<path opacity="0.6" d="M53.7808 31.9962C53.7808 31.9962 54.3854 26.7554 51.0664 21.9452C53.7438 17.1842 54.1263 12.0664 54.1263 12.0664L54.1386 12.0787C55.0393 14.3054 55.5575 18.6235 55.5575 18.6235L58.5927 19.4109C59.2096 20.9856 53.7808 31.9962 53.7808 31.9962Z" fill="url(#paint32_linear_130_12195)"/>
<path opacity="0.6" d="M49.6871 22.7962C49.1812 21.8612 47.3798 18.9086 44.2336 18.109C44.2336 18.109 44.2336 18.7118 34.3261 17.6661C24.431 16.6204 20.3964 16.1037 18.0275 18.3673C15.6586 20.6433 16.5346 25.9702 18.7308 27.8032C18.7308 27.8032 12.6851 34.1881 12.8579 43.1934C13.0182 51.8542 19.5821 58.2883 22.3705 59.3586L22.2472 60.3182C22.2472 60.3182 22.7407 80.1495 27.5772 81.7242C32.4014 83.2866 42.4323 82.4747 43.37 83.4097C44.2583 84.2954 43.2466 85.8209 43.1479 85.9562C43.1355 85.9685 43.1356 85.9685 43.1356 85.9685C43.1356 85.9685 35.3009 87.9 23.3822 83.4712C23.3822 83.4712 9.98306 75.8191 6.75048 62.9878C6.75048 62.9878 5.99787 59.9614 7.57714 56.7259C7.57714 56.7259 9.82267 55.7664 10.8467 49.8859C12.0065 43.3287 8.51485 38.8507 8.51485 38.8507C8.51485 38.8507 8.99601 35.2953 7.94727 31.2725C6.89853 27.2496 4.89976 23.3498 5.7881 20.4956C11.3896 21.3691 15.0787 18.4535 15.0787 18.4535C15.0787 18.4535 16.0534 17.1002 20.3965 16.399C24.7395 15.6977 42.1732 17.4447 42.1732 17.4447C42.1732 17.4447 40.4212 15.993 36.7444 15.0334C33.2651 14.1231 21.3835 15.181 20.1127 15.2795C21.4699 15.0457 34.9431 12.7329 36.473 13.2004C38.1016 13.6802 43.9252 16.3498 43.9252 16.3498C43.3946 13.6802 38.1756 7.25836 38.1756 7.25836C38.1756 7.25836 30.8098 7.38138 25.9979 8.39017C21.6919 9.28824 19.3354 11.2443 18.8788 11.6503L20.0263 10.297L20.3841 9.86646L20.7296 9.46048L22.4075 9.17752L30.8591 5.76979C33.6969 4.2566 37.3367 0.516698 37.7808 0.0492104C37.8055 0.0246057 37.8302 0 37.8302 0C37.8302 0 38.0029 3.32162 36.7814 6.20036C43.9252 5.3269 46.3435 5.76979 46.3435 5.76979C49.5761 10.3708 49.6871 22.7962 49.6871 22.7962Z" fill="url(#paint33_linear_130_12195)"/>
<path opacity="0.5" d="M23.3672 83.4728C23.3672 83.4728 27.7472 82.4394 34.3481 82.6977C40.949 82.9684 44.7491 82.993 43.1082 85.9701C43.1205 85.9701 34.817 87.8401 23.3672 83.4728Z" fill="url(#paint34_linear_130_12195)"/>
<path d="M46.3309 5.78111C46.3309 5.78111 50.3532 4.21872 51.9325 4.47707C51.9325 4.47707 51.3032 3.64051 50.6493 3.46828C49.9954 3.29605 36.7812 6.2117 36.7812 6.2117C36.7812 6.2117 45.0108 5.26441 46.3309 5.78111Z" fill="url(#paint35_linear_130_12195)"/>
<path d="M38.1717 7.27488C38.1717 7.27488 37.8509 11.6299 36.4567 13.2169L20.0964 15.296L15.2969 14.4471C15.2969 14.4471 17.1599 13.6598 19.1957 11.2731C21.2438 8.91109 31.9163 6.57365 38.1717 7.27488Z" fill="url(#paint36_linear_130_12195)"/>
<path d="M54.1289 12.082C54.1289 12.082 55.4614 16.3755 55.5601 18.6392L58.5953 19.4265C58.5953 19.4265 57.6823 16.191 54.1289 12.082Z" fill="url(#paint37_linear_130_12195)"/>
<path opacity="0.8" d="M9.53352 49.221C9.53352 49.221 8.38607 43.7218 5.56065 40.9907C2.73523 38.2719 -0.472656 39.1454 -0.472656 39.1454C-0.472656 39.1454 0.403338 49.3563 1.32869 51.8414C2.25405 54.3264 3.64826 54.9907 3.64826 54.9907C3.64826 54.9907 1.67417 53.2684 1.41507 49.8853C1.15597 46.5145 1.06957 41.7412 1.80986 41.1753C2.55015 40.6094 5.56065 42.8238 5.56065 42.8238C5.56065 42.8238 4.61064 43.9802 4.04309 46.9942C3.47554 50.0083 5.57298 52.1858 6.36262 52.1489C7.15226 52.0997 6.31327 48.6674 6.44899 47.6832C6.58471 46.6867 8.33672 46.8958 9.53352 49.221Z" fill="url(#paint38_linear_130_12195)"/>
<path opacity="0.8" d="M6.71797 42.3711C6.71797 42.3711 3.63344 44.3887 3.96657 48.5222C4.2997 52.6558 6.66862 52.4836 6.68096 51.6101C6.69329 50.7366 6.22443 48.5099 6.47119 47.2428C6.71795 45.9757 8.75374 46.5539 8.75374 46.5539C8.75374 46.5539 7.4089 43.2692 6.71797 42.3711Z" fill="url(#paint39_linear_130_12195)"/>
<path d="M54.8878 60.8086C54.8878 60.8086 51.0629 78.2164 43.1172 85.9668C43.1172 85.9668 52.1857 82.4114 54.8878 60.8086Z" fill="#34C7FF"/>
<path d="M50.6445 3.46484C50.6445 3.46484 52.668 5.02724 53.0504 10.4649C53.4329 15.9025 51.064 21.9429 51.064 21.9429C51.064 21.9429 54.0992 17.428 54.3953 12.4701C54.6791 7.5246 52.2361 4.09226 50.6445 3.46484Z" fill="#34C7FF"/>
<path d="M26.3789 14.9738C26.3789 14.9738 30.9808 16.3457 36.0197 16.7392C41.0587 17.1326 42.1029 17.2177 42.1029 17.2177C42.1029 17.2177 40.0752 15.4949 35.7648 14.9738C31.4422 14.4527 26.3789 14.9738 26.3789 14.9738Z" fill="url(#paint40_linear_130_12195)"/>
<path d="M48.7732 61.3567C48.7732 61.3567 51.0601 61.3567 51.9572 64.1841C52.6774 66.4386 52.8795 68.3817 52.8795 68.3817L53.6881 65.2802C53.6881 65.2802 52.6268 61.3442 51.5276 60.4599C50.7316 59.8247 49.367 59.177 48.7227 59.3264L48.7732 61.3567Z" fill="url(#paint41_linear_130_12195)"/>
<path d="M42.9297 58.4881L43.2927 61.7512C43.2927 61.7512 45.8809 61.9688 47.5907 61.2315L47.8952 59.2616C47.8952 59.2495 44.5927 58.3914 42.9297 58.4881Z" fill="url(#paint42_linear_130_12195)"/>
<path d="M55.3438 101.387C55.3438 101.387 70.9286 112.864 72.9431 116.819C74.9696 120.763 75.7778 133.152 78.516 138.52C78.516 138.52 76.6463 129.757 75.3315 122.88C74.0167 116.004 74.3303 115.906 73.6065 114.227C72.8827 112.523 61.2544 104.381 55.3438 101.387Z" fill="#34C7FF"/>
<path d="M52.7086 165.75C52.7086 165.75 45.0706 198.783 45.4261 201.014C45.7694 203.245 50.7102 207.794 50.9432 209.046C50.9432 209.046 47.167 214.165 47.3387 215.293C47.5103 216.421 53.9592 223.585 53.7875 225.804C53.7385 226.449 49.5578 233.415 49.5578 233.415C49.5578 233.415 54.2779 226.56 54.5109 225.47C54.7438 224.379 48.7241 215.219 48.5524 214.289C48.0988 211.884 51.5562 210.112 51.6665 208.525C51.7768 206.939 46.9831 203.072 46.9463 200.481C46.8973 197.903 52.7086 165.75 52.7086 165.75Z" fill="#34C7FF"/>
<path d="M-28.823 239.373C-28.823 239.373 -36.6385 206.52 -38.9023 181.852C-38.9023 181.852 18.2703 173.737 61.0671 178.354C61.0671 178.354 59.2191 211.123 54.4297 239.373H-28.823Z" fill="url(#paint43_linear_130_12195)"/>
<path opacity="0.5" d="M15.9899 178.404L-28.8242 239.377H7.63541L48.0913 178.404C48.0913 178.404 29.0877 176.924 15.9899 178.404Z" fill="white"/>
<path d="M-38.9023 181.856L-37.1775 179.302C-37.1775 179.302 11.3403 172.237 58.3259 176.694L61.0748 178.358C61.0671 178.35 5.68081 175.842 -38.9023 181.856Z" fill="url(#paint44_linear_130_12195)"/>
<path d="M0.859375 213.47C0.859375 213.47 7.28119 202.755 17.9303 201.535C17.9303 201.527 16.9062 208.607 0.859375 213.47Z" fill="white"/>
<path d="M44.1153 175.675V177.976L27.4062 177.854V175.223C27.4062 175.223 39.811 175.437 44.1153 175.675Z" fill="white"/>
<path d="M-30 234.199C-30 234.199 -23.2625 238.119 11.3414 238.748C45.9453 239.377 55.0083 235.879 55.0083 235.879L54.4308 239.377H-28.8219L-30 234.199Z" fill="#EBC2D4"/>
<path d="M117.429 239.426H-87V246.001H117.429V239.426Z" fill="url(#paint45_linear_130_12195)"/>
<defs>
<linearGradient id="paint0_linear_130_12195" x1="85.3594" y1="142.521" x2="-145.536" y2="142.521" gradientUnits="userSpaceOnUse">
<stop stop-color="#00C3EE"/>
<stop offset="1" stop-color="#E100E6"/>
</linearGradient>
<linearGradient id="paint1_linear_130_12195" x1="18.5065" y1="112.948" x2="18.5065" y2="79.9411" gradientUnits="userSpaceOnUse">
<stop stop-color="#D5CDF8"/>
<stop offset="1" stop-color="#F3EDFB"/>
</linearGradient>
<linearGradient id="paint2_linear_130_12195" x1="1.53918" y1="96.4429" x2="35.4739" y2="96.4429" gradientUnits="userSpaceOnUse">
<stop stop-color="#CCCCFF"/>
<stop offset="1" stop-color="#755CBB"/>
</linearGradient>
<linearGradient id="paint3_linear_130_12195" x1="8.59314" y1="244.151" x2="8.59314" y2="78.2739" gradientUnits="userSpaceOnUse">
<stop stop-color="#9E8CEF"/>
<stop offset="1" stop-color="#CAAFEE"/>
</linearGradient>
<linearGradient id="paint4_linear_130_12195" x1="71.9008" y1="164.921" x2="124.039" y2="164.921" gradientUnits="userSpaceOnUse">
<stop stop-color="#A999F1"/>
<stop offset="1" stop-color="#DAC7F3"/>
</linearGradient>
<linearGradient id="paint5_linear_130_12195" x1="124.942" y1="153.559" x2="124.942" y2="83.917" gradientUnits="userSpaceOnUse">
<stop offset="0.016" stop-color="#FFC2A9"/>
<stop offset="1" stop-color="#FF9595"/>
</linearGradient>
<linearGradient id="paint6_linear_130_12195" x1="133.194" y1="131.249" x2="133.194" y2="96.6499" gradientUnits="userSpaceOnUse">
<stop stop-color="#FFEADB"/>
<stop offset="0.9944" stop-color="#C27CB6"/>
</linearGradient>
<linearGradient id="paint7_linear_130_12195" x1="140.038" y1="119.304" x2="140.038" y2="103.794" gradientUnits="userSpaceOnUse">
<stop stop-color="#FFB0B0"/>
<stop offset="0.984" stop-color="#FFC2A9"/>
</linearGradient>
<linearGradient id="paint8_linear_130_12195" x1="149.064" y1="121.691" x2="149.064" y2="113.186" gradientUnits="userSpaceOnUse">
<stop stop-color="#FFB0B0"/>
<stop offset="0.984" stop-color="#FFC2A9"/>
</linearGradient>
<linearGradient id="paint9_linear_130_12195" x1="112.573" y1="138.646" x2="128.438" y2="138.646" gradientUnits="userSpaceOnUse">
<stop offset="0.016" stop-color="#D1A1D6"/>
<stop offset="0.9944" stop-color="#BD89C4"/>
</linearGradient>
<linearGradient id="paint10_linear_130_12195" x1="90.9332" y1="192.981" x2="90.9332" y2="115.418" gradientUnits="userSpaceOnUse">
<stop stop-color="#CCCCFF"/>
<stop offset="1" stop-color="#755CBB"/>
</linearGradient>
<linearGradient id="paint11_linear_130_12195" x1="-82.0221" y1="177.726" x2="48.7246" y2="177.726" gradientUnits="userSpaceOnUse">
<stop stop-color="#CCCCFF"/>
<stop offset="1" stop-color="#755CBB"/>
</linearGradient>
<linearGradient id="paint12_linear_130_12195" x1="33.0054" y1="155.442" x2="58.6572" y2="155.442" gradientUnits="userSpaceOnUse">
<stop stop-color="#CCEDFF"/>
<stop offset="1" stop-color="#755CBB"/>
</linearGradient>
<linearGradient id="paint13_linear_130_12195" x1="10.6533" y1="199.591" x2="47.8954" y2="199.591" gradientUnits="userSpaceOnUse">
<stop stop-color="#CCEDFF"/>
<stop offset="1" stop-color="#755CBB"/>
</linearGradient>
<linearGradient id="paint14_linear_130_12195" x1="-21.2073" y1="174.838" x2="-21.2073" y2="131.12" gradientUnits="userSpaceOnUse">
<stop stop-color="#CCEDFF"/>
<stop offset="1" stop-color="#755CBB"/>
</linearGradient>
<linearGradient id="paint15_linear_130_12195" x1="60.7304" y1="174.825" x2="60.7304" y2="128.623" gradientUnits="userSpaceOnUse">
<stop stop-color="#CCCCFF"/>
<stop offset="1" stop-color="#755CBB"/>
</linearGradient>
<linearGradient id="paint16_linear_130_12195" x1="113.28" y1="164.924" x2="113.28" y2="140.992" gradientUnits="userSpaceOnUse">
<stop stop-color="#CCCCFF"/>
<stop offset="1" stop-color="#755CBB"/>
</linearGradient>
<linearGradient id="paint17_linear_130_12195" x1="85.5518" y1="164.104" x2="85.5518" y2="145.128" gradientUnits="userSpaceOnUse">
<stop stop-color="#CCCCFF"/>
<stop offset="1" stop-color="#755CBB"/>
</linearGradient>
<linearGradient id="paint18_linear_130_12195" x1="40.4475" y1="131.915" x2="40.4475" y2="103.859" gradientUnits="userSpaceOnUse">
<stop stop-color="#CCEDFF"/>
<stop offset="1" stop-color="#755CBB"/>
</linearGradient>
<linearGradient id="paint19_linear_130_12195" x1="2.7929" y1="128.618" x2="2.7929" y2="89.0092" gradientUnits="userSpaceOnUse">
<stop stop-color="#CCEDFF"/>
<stop offset="1" stop-color="#755CBB"/>
</linearGradient>
<linearGradient id="paint20_linear_130_12195" x1="-10.8613" y1="135.218" x2="55.3421" y2="135.218" gradientUnits="userSpaceOnUse">
<stop stop-color="#8642A0"/>
<stop offset="1" stop-color="#6456C0"/>
</linearGradient>
<linearGradient id="paint21_linear_130_12195" x1="-4.24584" y1="97.6628" x2="37.9665" y2="97.6628" gradientUnits="userSpaceOnUse">
<stop stop-color="#CCCCFF"/>
<stop offset="1" stop-color="#755CBB"/>
</linearGradient>
<linearGradient id="paint22_linear_130_12195" x1="105.408" y1="162.451" x2="105.408" y2="137.693" gradientUnits="userSpaceOnUse">
<stop stop-color="#CCCCFF"/>
<stop offset="1" stop-color="#755CBB"/>
</linearGradient>
<linearGradient id="paint23_linear_130_12195" x1="70.6623" y1="189.69" x2="70.6623" y2="115.43" gradientUnits="userSpaceOnUse">
<stop stop-color="#CCCCFF"/>
<stop offset="1" stop-color="#755CBB"/>
</linearGradient>
<linearGradient id="paint24_linear_130_12195" x1="31.1476" y1="85.4941" x2="31.1476" y2="14.2786" gradientUnits="userSpaceOnUse">
<stop offset="0.016" stop-color="#FFC2A9"/>
<stop offset="1" stop-color="#FF9595"/>
</linearGradient>
<linearGradient id="paint25_linear_130_12195" x1="4.51917" y1="56.759" x2="4.51917" y2="35.763" gradientUnits="userSpaceOnUse">
<stop offset="0.016" stop-color="#FFC2A9"/>
<stop offset="1" stop-color="#FF9595"/>
</linearGradient>
<linearGradient id="paint26_linear_130_12195" x1="41.0714" y1="64.6963" x2="41.9493" y2="60.1117" gradientUnits="userSpaceOnUse">
<stop stop-color="#E1616A"/>
<stop offset="1" stop-color="#FF8883"/>
</linearGradient>
<linearGradient id="paint27_linear_130_12195" x1="33.1006" y1="61.1893" x2="33.1006" y2="15.3121" gradientUnits="userSpaceOnUse">
<stop stop-color="#FFEADB"/>
<stop offset="0.9944" stop-color="#C27CB6"/>
</linearGradient>
<linearGradient id="paint28_linear_130_12195" x1="30.8585" y1="42.3994" x2="30.8585" y2="33.3113" gradientUnits="userSpaceOnUse">
<stop stop-color="#CF6074"/>
<stop offset="1" stop-color="#F37270"/>
</linearGradient>
<linearGradient id="paint29_linear_130_12195" x1="49.0372" y1="45.2859" x2="49.0372" y2="37.3775" gradientUnits="userSpaceOnUse">
<stop stop-color="#CF6074"/>
<stop offset="1" stop-color="#FF817F"/>
</linearGradient>
<linearGradient id="paint30_linear_130_12195" x1="49.7874" y1="49.8869" x2="49.7874" y2="32.0908" gradientUnits="userSpaceOnUse">
<stop stop-color="#FFEADB"/>
<stop offset="0.9944" stop-color="#C27CB6"/>
</linearGradient>
<linearGradient id="paint31_linear_130_12195" x1="32.1026" y1="86.3877" x2="32.1026" y2="0.0209768" gradientUnits="userSpaceOnUse">
<stop stop-color="#2E33A0"/>
<stop offset="1" stop-color="#0665A5"/>
</linearGradient>
<linearGradient id="paint32_linear_130_12195" x1="54.8545" y1="31.9996" x2="54.8545" y2="12.0758" gradientUnits="userSpaceOnUse">
<stop stop-color="#FFEADB"/>
<stop offset="0.9944" stop-color="#8860C7"/>
</linearGradient>
<linearGradient id="paint33_linear_130_12195" x1="27.6274" y1="86.3889" x2="27.6274" y2="0.0221461" gradientUnits="userSpaceOnUse">
<stop stop-color="#CCC2DB"/>
<stop offset="0.9944" stop-color="#8860C7"/>
</linearGradient>
<linearGradient id="paint34_linear_130_12195" x1="33.4329" y1="86.3701" x2="33.4329" y2="82.6593" gradientUnits="userSpaceOnUse">
<stop stop-color="#776D7E"/>
<stop offset="1" stop-color="#9D68C2"/>
</linearGradient>
<linearGradient id="paint35_linear_130_12195" x1="44.3535" y1="6.21969" x2="44.3535" y2="3.46299" gradientUnits="userSpaceOnUse">
<stop stop-color="#1F77D1"/>
<stop offset="1" stop-color="#0686C9"/>
</linearGradient>
<linearGradient id="paint36_linear_130_12195" x1="26.7369" y1="15.3013" x2="26.7369" y2="7.15039" gradientUnits="userSpaceOnUse">
<stop stop-color="#1F77D1"/>
<stop offset="1" stop-color="#0686C9"/>
</linearGradient>
<linearGradient id="paint37_linear_130_12195" x1="56.3634" y1="19.4306" x2="56.3634" y2="12.0791" gradientUnits="userSpaceOnUse">
<stop stop-color="#1F77D1"/>
<stop offset="1" stop-color="#0686C9"/>
</linearGradient>
<linearGradient id="paint38_linear_130_12195" x1="7.58336" y1="51.7795" x2="-1.81563" y2="40.2309" gradientUnits="userSpaceOnUse">
<stop stop-color="#FFEADB"/>
<stop offset="0.9944" stop-color="#B060F4"/>
</linearGradient>
<linearGradient id="paint39_linear_130_12195" x1="8.5683" y1="50.2978" x2="3.94375" y2="44.6157" gradientUnits="userSpaceOnUse">
<stop stop-color="#FFEADB"/>
<stop offset="0.9944" stop-color="#B060F4"/>
</linearGradient>
<linearGradient id="paint40_linear_130_12195" x1="26.3783" y1="15.9808" x2="42.0977" y2="15.9808" gradientUnits="userSpaceOnUse">
<stop stop-color="#1F77D1"/>
<stop offset="1" stop-color="#0686C9"/>
</linearGradient>
<linearGradient id="paint41_linear_130_12195" x1="48.7223" y1="63.8529" x2="53.6836" y2="63.8529" gradientUnits="userSpaceOnUse">
<stop stop-color="#1F77D1"/>
<stop offset="1" stop-color="#0686C9"/>
</linearGradient>
<linearGradient id="paint42_linear_130_12195" x1="42.9318" y1="60.125" x2="47.8917" y2="60.125" gradientUnits="userSpaceOnUse">
<stop stop-color="#1F77D1"/>
<stop offset="1" stop-color="#0686C9"/>
</linearGradient>
<linearGradient id="paint43_linear_130_12195" x1="11.0814" y1="239.372" x2="11.0814" y2="176.932" gradientUnits="userSpaceOnUse">
<stop stop-color="#C9B6E9"/>
<stop offset="1" stop-color="#BBABD1"/>
</linearGradient>
<linearGradient id="paint44_linear_130_12195" x1="11.0814" y1="181.855" x2="11.0814" y2="175.214" gradientUnits="userSpaceOnUse">
<stop stop-color="#D8CAEF"/>
<stop offset="1" stop-color="#EADEF4"/>
</linearGradient>
<linearGradient id="paint45_linear_130_12195" x1="15.2144" y1="239.426" x2="15.2144" y2="246.001" gradientUnits="userSpaceOnUse">
<stop stop-color="#6F67F0"/>
<stop offset="1" stop-color="#59068C"/>
</linearGradient>
</defs>
</svg>
