<svg width="29" height="29" viewBox="0 0 29 29" fill="none" xmlns="http://www.w3.org/2000/svg">
<path d="M5.45433 1.1904L5.45338 1.19134L1.70661 4.93465C1.70639 4.93486 1.70618 4.93508 1.70597 4.93529C0.769663 5.87831 0.340925 7.21258 0.553482 8.5053C1.32633 13.1494 3.79066 17.7591 7.51925 21.4843C11.2519 25.2135 15.865 27.6809 20.494 28.4433L20.494 28.4433L20.4984 28.444C20.7122 28.4812 20.9298 28.5 21.1589 28.5C22.2446 28.5 23.3028 28.063 24.067 27.2957L24.0677 27.295L27.8088 23.5539C28.2539 23.1087 28.5 22.5178 28.5 21.8873L28.5 21.8867C28.5004 21.5773 28.4395 21.2709 28.321 20.9851C28.2025 20.6992 28.0287 20.4397 27.8095 20.2213L27.8091 20.221L23.7724 16.1912L23.7721 16.1909C23.327 15.7458 22.7361 15.4998 22.1056 15.4998H22.1054C21.7966 15.4997 21.4907 15.5606 21.2055 15.6791C20.9202 15.7976 20.6612 15.9713 20.4433 16.1902L20.4425 16.1909L17.4933 19.1402L17.2479 19.3856L16.9321 19.2415C15.3559 18.5221 13.9222 17.5244 12.7 16.2963C11.4747 15.0738 10.4805 13.6398 9.76534 12.0635L9.62229 11.7482L9.86712 11.5034L12.8163 8.55409C13.2615 8.10898 13.5075 7.51802 13.5075 6.8875V6.88738C13.5076 6.5785 13.4466 6.27265 13.3281 5.98741C13.2097 5.70216 13.036 5.44313 12.8171 5.2252L12.8163 5.22442L8.78315 1.19117C8.33804 0.746055 7.7471 0.5 7.11659 0.5L7.11647 0.5C6.8076 0.499926 6.50176 0.560879 6.21652 0.679359C5.93127 0.797838 5.67225 0.971509 5.45433 1.1904Z" stroke="white"/>
</svg>
