<svg width="21" height="21" viewBox="0 0 21 21" fill="none" xmlns="http://www.w3.org/2000/svg">
<path d="M17.9328 11.48C17.9728 11.16 18.0028 10.84 18.0028 10.5C18.0028 10.16 17.9728 9.84 17.9328 9.52L20.0428 7.87C20.2328 7.72 20.2828 7.45 20.1628 7.23L18.1628 3.77C18.0428 3.55 17.7728 3.47 17.5528 3.55L15.0628 4.55C14.5428 4.15 13.9828 3.82 13.3728 3.57L12.9928 0.92C12.9628 0.68 12.7528 0.5 12.5028 0.5H8.50277C8.25277 0.5 8.04277 0.68 8.01277 0.92L7.63277 3.57C7.02277 3.82 6.46277 4.16 5.94277 4.55L3.45277 3.55C3.22277 3.46 2.96277 3.55 2.84277 3.77L0.842769 7.23C0.712769 7.45 0.772769 7.72 0.962769 7.87L3.07277 9.52C3.03277 9.84 3.00277 10.17 3.00277 10.5C3.00277 10.83 3.03277 11.16 3.07277 11.48L0.962769 13.13C0.772769 13.28 0.722769 13.55 0.842769 13.77L2.84277 17.23C2.96277 17.45 3.23277 17.53 3.45277 17.45L5.94277 16.45C6.46277 16.85 7.02277 17.18 7.63277 17.43L8.01277 20.08C8.04277 20.32 8.25277 20.5 8.50277 20.5H12.5028C12.7528 20.5 12.9628 20.32 12.9928 20.08L13.3728 17.43C13.9828 17.18 14.5428 16.84 15.0628 16.45L17.5528 17.45C17.7828 17.54 18.0428 17.45 18.1628 17.23L20.1628 13.77C20.2828 13.55 20.2328 13.28 20.0428 13.13L17.9328 11.48ZM10.5028 14C8.57277 14 7.00277 12.43 7.00277 10.5C7.00277 8.57 8.57277 7 10.5028 7C12.4328 7 14.0028 8.57 14.0028 10.5C14.0028 12.43 12.4328 14 10.5028 14Z" fill="white"/>
</svg>
