<svg width="1920" height="1327" viewBox="0 0 1920 1327" fill="none" xmlns="http://www.w3.org/2000/svg">
<g clip-path="url(#clip0_70_4031)">
<path d="M0 0.105154H102.053C169.088 0.105154 168.588 -0.131181 273.142 0.104763C377.697 0.340706 378.09 0.107284 525.273 0.106832C672.457 0.106381 587.306 0.107008 895.466 0.106996C1203.63 0.106984 1108.69 0.105502 1203.63 0.105249L1251.94 0.10516C1271.71 0.105206 1291.48 0.105491 1522.29 0.106025L1921 0.106996V961.001C1921 1055.01 1701.42 1090.44 1410.73 1096.15C1330.56 1097.72 1244.98 1097.04 1157.1 1094.7C621.203 1080.42 0 1004.6 0 1004.6V0.105154Z" fill="#13103B"/>
<path d="M0 0.105154H102.053C169.088 0.105154 168.588 -0.131181 273.142 0.104763C377.697 0.340706 378.09 0.107284 525.273 0.106832C672.457 0.106381 587.306 0.107008 895.466 0.106996C1203.63 0.106984 1108.69 0.105502 1203.63 0.105249L1251.94 0.10516C1271.71 0.105206 1291.48 0.105491 1522.29 0.106025L1921 0.106996V961.001C1921 1055.01 1701.42 1090.44 1410.73 1096.15C1330.56 1097.72 1244.98 1097.04 1157.1 1094.7C621.203 1080.42 0 1004.6 0 1004.6V0.105154Z" fill="url(#paint0_linear_70_4031)" fill-opacity="0.5"/>
<path opacity="0.3" d="M84.3729 152.008C17.7459 151.508 0 175.325 0 175.325V741.5C0 741.5 1952 1022 1920 685V424.235C1920 424.235 1836.7 360.349 1597.6 509.926C1358.5 659.502 1310 332.498 1262.5 290.999C1215 249.499 1167.59 215.673 895.511 339.382C623.428 463.09 688.999 272.007 562.486 196.893C435.973 121.78 387.5 208.007 292.905 221.959C198.309 235.911 151 152.508 84.3729 152.008Z" fill="url(#paint1_linear_70_4031)"/>
<path opacity="0.3" d="M84.3729 272.008C17.7459 271.508 0 295.325 0 295.325V861.5C0 861.5 1952 1142 1920 805V544.235C1920 544.235 1836.7 480.349 1597.6 629.926C1358.5 779.502 1310 452.498 1262.5 410.999C1215 369.499 1167.59 335.673 895.511 459.382C623.428 583.09 688.999 392.007 562.486 316.893C435.973 241.78 387.5 328.007 292.905 341.959C198.309 355.911 151 272.508 84.3729 272.008Z" fill="url(#paint2_linear_70_4031)"/>
<path opacity="0.3" d="M84.373 383.008C17.746 382.508 0.00012207 406.325 0.00012207 406.325L0 970.5C0 970.5 1900 1256 1920 921.5V655.235C1920 655.235 1836.7 591.349 1597.6 740.926C1358.5 890.502 1310 563.498 1262.5 521.999C1215 480.499 1167.59 446.673 895.511 570.382C623.428 694.09 688.999 503.007 562.486 427.893C435.973 352.78 387.5 439.007 292.905 452.959C198.309 466.911 151 383.508 84.373 383.008Z" fill="url(#paint3_linear_70_4031)"/>
<g filter="url(#filter0_f_70_4031)">
<rect x="1496" y="16" width="590" height="590" rx="295" fill="#8C008E"/>
</g>
<path opacity="0.5" d="M913.209 774.987C913.38 776.386 913.508 777.785 913.508 779.272C913.508 780.758 913.38 782.157 913.209 783.556L922.211 790.769C923.022 791.425 923.235 792.605 922.723 793.567L914.19 808.693C913.678 809.655 912.526 810.004 911.588 809.655L900.964 805.283C898.746 807.032 896.357 808.474 893.754 809.567L892.133 821.152C892.005 822.201 891.109 822.988 890.042 822.988H872.977C871.91 822.988 871.014 822.201 870.886 821.152L869.265 809.567C866.662 808.474 864.273 806.988 862.055 805.283L851.431 809.655C850.45 810.048 849.341 809.655 848.829 808.693L840.296 793.567C839.741 792.605 839.997 791.425 840.808 790.769L849.81 783.556C849.639 782.157 849.511 780.714 849.511 779.272C849.511 777.829 849.639 776.386 849.81 774.987L840.808 767.774C839.997 767.118 839.784 765.938 840.296 764.976L848.829 749.85C849.341 748.889 850.493 748.539 851.431 748.889L862.055 753.26C864.273 751.512 866.662 750.069 869.265 748.976L870.886 737.391C871.014 736.342 871.91 735.555 872.977 735.555H890.042C891.109 735.555 892.005 736.342 892.133 737.391L893.754 748.976C896.357 750.069 898.746 751.555 900.964 753.26L911.588 748.889C912.569 748.495 913.678 748.889 914.19 749.85L922.723 764.976C923.235 765.938 923.022 767.118 922.211 767.774L913.209 774.987ZM881.509 763.971C873.275 763.971 866.577 770.834 866.577 779.272C866.577 787.709 873.275 794.572 881.509 794.572C889.744 794.572 896.442 787.709 896.442 779.272C896.442 770.834 889.744 763.971 881.509 763.971Z" fill="url(#paint4_linear_70_4031)"/>
<path opacity="0.5" d="M680.332 643.26C680.466 644.35 680.566 645.44 680.566 646.598C680.566 647.756 680.466 648.846 680.332 649.936L687.382 655.555C688.017 656.066 688.184 656.986 687.783 657.735L681.101 669.519C680.7 670.268 679.798 670.541 679.063 670.268L670.743 666.863C669.006 668.225 667.135 669.349 665.097 670.2L663.827 679.226C663.727 680.043 663.025 680.656 662.19 680.656H648.825C647.99 680.656 647.288 680.043 647.188 679.226L645.918 670.2C643.88 669.349 642.009 668.191 640.272 666.863L631.952 670.268C631.184 670.575 630.315 670.268 629.914 669.519L623.232 657.735C622.797 656.986 622.998 656.066 623.633 655.555L630.682 649.936C630.549 648.846 630.449 647.722 630.449 646.598C630.449 645.474 630.549 644.35 630.682 643.26L623.633 637.641C622.998 637.13 622.831 636.21 623.232 635.461L629.914 623.677C630.315 622.927 631.217 622.655 631.952 622.927L640.272 626.333C642.009 624.971 643.88 623.847 645.918 622.995L647.188 613.97C647.288 613.153 647.99 612.54 648.825 612.54H662.19C663.025 612.54 663.727 613.153 663.827 613.97L665.097 622.995C667.135 623.847 669.006 625.005 670.743 626.333L679.063 622.927C679.831 622.621 680.7 622.927 681.101 623.677L687.783 635.461C688.184 636.21 688.017 637.13 687.382 637.641L680.332 643.26ZM655.507 634.677C649.059 634.677 643.813 640.025 643.813 646.598C643.813 653.171 649.059 658.518 655.507 658.518C661.956 658.518 667.201 653.171 667.201 646.598C667.201 640.025 661.956 634.677 655.507 634.677Z" fill="url(#paint5_linear_70_4031)"/>
<path opacity="0.5" d="M127.548 642.038L159.894 582.5L101.332 549.616L68.9867 609.153L127.548 642.038ZM122.928 650.543L64.366 617.659C59.7647 615.075 58.0793 609.134 60.6207 604.456L92.966 544.918C95.5074 540.24 101.351 538.526 105.953 541.11L164.514 573.994C169.116 576.578 170.801 582.52 168.26 587.198L135.914 646.735C133.373 651.413 127.529 653.127 122.928 650.543ZM123.068 601.449L119.461 577.944L104.525 583.932L100.894 560.47L151.09 588.656L123.068 601.449Z" fill="url(#paint6_linear_70_4031)"/>
<path opacity="0.5" d="M778.668 324.396C778.534 323.306 778.434 322.216 778.434 321.058C778.434 319.9 778.534 318.81 778.668 317.721L771.618 312.101C770.983 311.59 770.816 310.671 771.217 309.921L777.899 298.137C778.3 297.388 779.202 297.115 779.937 297.388L788.257 300.794C789.994 299.431 791.865 298.307 793.903 297.456L795.173 288.43C795.273 287.613 795.975 287 796.81 287H810.175C811.01 287 811.712 287.613 811.812 288.43L813.082 297.456C815.12 298.307 816.991 299.465 818.728 300.794L827.048 297.388C827.816 297.081 828.685 297.388 829.086 298.137L835.768 309.921C836.203 310.671 836.002 311.59 835.367 312.101L828.318 317.721C828.451 318.81 828.551 319.934 828.551 321.058C828.551 322.182 828.451 323.306 828.318 324.396L835.367 330.016C836.002 330.527 836.169 331.446 835.768 332.195L829.086 343.98C828.685 344.729 827.783 345.001 827.048 344.729L818.728 341.323C816.991 342.685 815.12 343.809 813.082 344.661L811.812 353.686C811.712 354.504 811.01 355.117 810.175 355.117H796.81C795.975 355.117 795.273 354.504 795.173 353.686L793.903 344.661C791.865 343.809 789.994 342.651 788.257 341.323L779.937 344.729C779.169 345.035 778.3 344.729 777.899 343.98L771.217 332.195C770.816 331.446 770.983 330.527 771.618 330.016L778.668 324.396ZM803.493 332.979C809.941 332.979 815.187 327.632 815.187 321.058C815.187 314.485 809.941 309.138 803.493 309.138C797.044 309.138 791.799 314.485 791.799 321.058C791.799 327.632 797.044 332.979 803.493 332.979Z" fill="url(#paint7_linear_70_4031)"/>
<rect x="923" y="307" width="302" height="200" rx="13.077" stroke="url(#paint8_linear_70_4031)" stroke-width="29.8902" mask="url(#path-10-inside-1_70_4031)"/>
<path opacity="0.5" d="M1747.33 840.495C1747.47 841.584 1747.57 842.674 1747.57 843.832C1747.57 844.99 1747.47 846.08 1747.33 847.17L1754.38 852.79C1755.02 853.301 1755.18 854.22 1754.78 854.969L1748.1 866.754C1747.7 867.503 1746.8 867.775 1746.06 867.503L1737.74 864.097C1736.01 865.459 1734.13 866.583 1732.1 867.435L1730.83 876.46C1730.73 877.278 1730.03 877.891 1729.19 877.891H1715.83C1714.99 877.891 1714.29 877.278 1714.19 876.46L1712.92 867.435C1710.88 866.583 1709.01 865.425 1707.27 864.097L1698.95 867.503C1698.18 867.809 1697.31 867.503 1696.91 866.754L1690.23 854.969C1689.8 854.22 1690 853.301 1690.63 852.79L1697.68 847.17C1697.55 846.08 1697.45 844.956 1697.45 843.832C1697.45 842.708 1697.55 841.584 1697.68 840.495L1690.63 834.875C1690 834.364 1689.83 833.444 1690.23 832.695L1696.91 820.911C1697.31 820.162 1698.22 819.889 1698.95 820.162L1707.27 823.568C1709.01 822.205 1710.88 821.081 1712.92 820.23L1714.19 811.204C1714.29 810.387 1714.99 809.774 1715.83 809.774H1729.19C1730.03 809.774 1730.73 810.387 1730.83 811.204L1732.1 820.23C1734.13 821.081 1736.01 822.239 1737.74 823.568L1746.06 820.162C1746.83 819.855 1747.7 820.162 1748.1 820.911L1754.78 832.695C1755.18 833.444 1755.02 834.364 1754.38 834.875L1747.33 840.495ZM1722.51 831.912C1716.06 831.912 1710.81 837.259 1710.81 843.832C1710.81 850.406 1716.06 855.753 1722.51 855.753C1728.96 855.753 1734.2 850.406 1734.2 843.832C1734.2 837.259 1728.96 831.912 1722.51 831.912Z" fill="url(#paint9_linear_70_4031)"/>
<path opacity="0.5" d="M1693.58 411.794L1714.64 373.032L1676.51 351.622L1655.45 390.384L1693.58 411.794ZM1690.57 417.331L1652.45 395.922C1649.45 394.24 1648.35 390.371 1650.01 387.326L1671.07 348.564C1672.72 345.518 1676.53 344.403 1679.52 346.085L1717.65 367.494C1720.64 369.176 1721.74 373.044 1720.09 376.09L1699.03 414.852C1697.37 417.898 1693.57 419.013 1690.57 417.331ZM1690.66 385.368L1688.32 370.065L1678.59 373.964L1676.23 358.689L1708.91 377.04L1690.66 385.368Z" fill="url(#paint10_linear_70_4031)"/>
<path d="M1494.12 395.258C1658.11 435.199 1684.92 560.049 1709.84 673.401C1734.76 786.733 1828.03 892.683 1639.94 937.778C1451.85 982.873 1172.19 921.552 1125.57 742.02C1078.96 562.488 1257.65 580.284 1384.9 523.968C1512.14 467.652 1421.48 377.59 1494.12 395.258Z" fill="white"/>
<path d="M1419.27 519.812C1419.1 520.902 1419 521.481 1419 521.481C1420.27 526.694 1421.71 531.531 1423.26 535.926C1428.3 550.302 1434.58 560.522 1439.28 566.892C1443.37 572.377 1446.28 575 1446.28 575C1483.83 563.315 1502.33 526.864 1509.43 508.707C1509.47 508.638 1509.5 508.536 1509.53 508.434C1510.91 505.027 1511.8 502.268 1512.35 500.462C1512.35 500.462 1512.35 500.462 1512.35 500.428C1512.79 498.998 1513 498.214 1513 498.214C1512.86 497.907 1512.69 497.567 1512.55 497.26L1512.49 497.124C1511.87 495.863 1511.25 494.535 1510.7 493.308C1505.79 482.646 1502.53 472.63 1500.4 464.761C1498.59 458.084 1497.59 452.906 1497.14 450.18C1496.9 448.784 1496.8 448 1496.8 448L1479.3 457.164L1419 488.846C1419.89 494.33 1420.27 499.509 1420.27 504.005C1420.3 507.208 1420.2 510.069 1420.03 512.488C1419.86 515.452 1419.55 517.802 1419.31 519.335V519.369C1419.34 519.574 1419.31 519.676 1419.27 519.812Z" fill="#FE9083"/>
<path d="M1436.55 578.899C1439.97 582.27 1443.99 585.303 1448.83 587.831C1448.93 587.899 1449.03 587.966 1449.14 588C1449.14 588 1449.27 587.933 1449.51 587.798L1449.54 587.764C1450.83 586.989 1455.26 584.292 1461.18 579.843C1476.71 568.18 1502.63 544.652 1510.04 512.899C1510.07 512.865 1510.07 512.831 1510.07 512.764C1510.95 508.989 1511.53 505.146 1511.83 501.169C1511.83 501.169 1511.83 501.169 1511.83 501.135C1511.9 500.09 1511.97 499.079 1512 498C1512 498 1506.86 510.067 1497.92 523.079C1487.44 538.382 1471.67 555.101 1452.86 555.202C1436.58 555.303 1428.23 544.214 1424 533.966C1422.2 529.618 1421.12 525.438 1420.58 522.337C1420.55 522.303 1420.55 522.303 1420.55 522.303C1420.38 521.393 1420.24 520.584 1420.11 519.91V519.876C1420.04 519.539 1420 519.236 1419.97 518.933C1419.84 517.787 1419.77 517.146 1419.77 517.146C1419.77 517.146 1413.54 555.978 1436.55 578.899Z" fill="url(#paint11_linear_70_4031)"/>
<path opacity="0.5" d="M1436.55 579.051C1439.97 582.428 1443.99 585.467 1448.83 588H1449.14L1449.51 587.966L1449.54 587.932C1450.83 587.156 1455.26 584.454 1461.18 579.996C1476.71 568.311 1502.63 544.739 1510.04 512.927C1510.07 512.893 1510.07 512.859 1510.07 512.792C1510.95 509.009 1511.53 505.159 1511.83 501.174C1511.83 501.174 1511.83 501.175 1511.83 501.141C1511.9 500.094 1511.97 499.081 1512 498C1512 498 1506.86 510.09 1497.92 523.126C1497.92 523.126 1487.67 551.223 1465.51 565.171C1454.41 572.128 1445.99 571.114 1439.8 567.028C1433.61 562.942 1429.61 555.85 1427.24 550.48C1424.88 545.077 1424.13 540.045 1424 536.364C1423.96 535.52 1423.96 534.777 1424 534.101C1422.2 529.745 1421.12 525.557 1420.58 522.45C1420.55 522.417 1420.55 522.417 1420.55 522.417C1420.38 521.505 1420.24 520.694 1420.11 520.019V519.985C1420.04 519.647 1420 519.343 1419.97 519.039C1419.84 517.891 1419.77 517.25 1419.77 517.25C1419.77 517.25 1413.54 556.086 1436.55 579.051Z" fill="url(#paint12_linear_70_4031)"/>
<path d="M1293.9 810.44C1294.17 810.576 1294.31 810.644 1294.31 810.644C1296.38 810.881 1302.89 809.489 1311.37 802.117L1311.41 802.083C1311.41 802.049 1311.44 802.049 1311.47 802.015C1311.51 801.981 1311.54 801.947 1311.58 801.913C1318.7 795.662 1327.25 785.267 1335.77 768.18C1352.8 734.073 1357.69 711.312 1358.5 707.338L1358.6 706.726L1368.55 722.523C1375.3 742.838 1388.06 826.814 1387.82 830.449C1387.58 834.084 1376.49 851.681 1376.72 853.855C1376.72 853.855 1376.72 853.889 1376.76 853.889C1377.06 856.063 1382.05 860.887 1383.48 866.152C1384.43 869.651 1377.67 880.658 1372.92 888.879V888.913C1370.45 893.193 1368.55 896.692 1368.55 898.017C1368.55 901.856 1380.59 920.676 1380.59 920.676V930.799L1380.76 930.969L1381.34 931.478L1381.78 931.852C1386.36 935.453 1405.77 947.309 1466.44 950.57C1538.3 954.409 1586.18 931.275 1586.18 931.275L1582.58 921.355C1582.58 921.355 1585.94 918.468 1586.18 917.041C1586.41 915.58 1583.53 912.217 1583.53 912.217C1583.53 912.217 1590.76 908.378 1590.76 903.52C1590.76 898.696 1576.27 883.749 1576.78 870.942C1577.25 858.169 1588.35 846.823 1589.81 839.587C1591.27 832.351 1571.01 814.482 1571.01 814.482C1588.35 759.449 1591.74 685.63 1591.74 685.63L1595.1 681.758C1595.1 681.758 1615.83 729.045 1634.63 752.214C1636.87 754.965 1639.24 757.683 1641.69 760.299C1646.91 765.972 1652.51 771.305 1657.87 775.959C1670.9 787.306 1682.74 794.779 1685.73 794.202C1690.55 793.25 1709.85 755.101 1708.97 716C1708.56 697.418 1697.37 676.594 1685.73 659.914C1684.47 658.148 1683.25 656.381 1681.96 654.683C1673.72 643.438 1665.81 634.64 1662.01 630.597C1660.55 629.035 1659.7 628.185 1659.7 628.185C1659.7 628.185 1662.35 619.659 1664.15 612.253C1664.18 612.083 1664.22 611.913 1664.28 611.709C1664.28 611.642 1664.32 611.54 1664.32 611.472C1664.35 611.336 1664.39 611.302 1664.39 611.302C1665.44 606.75 1666.12 602.809 1665.51 601.824C1663.91 599.242 1654.58 596.355 1652.95 594.452C1651.36 592.516 1644.6 560.006 1639.48 556.473C1634.56 553.076 1625.87 550.63 1596.93 539.215C1595.51 538.672 1594.05 538.094 1592.52 537.483C1560.08 524.608 1528.26 509.015 1528.26 509.015L1516.04 494H1510.61L1512.38 497.805L1512.45 497.941C1511.56 501.813 1510.58 505.516 1509.46 509.083C1509.43 509.185 1509.39 509.287 1509.36 509.355C1492.56 562.384 1449.37 579.471 1449.37 579.471C1419.34 557.288 1419.95 522.06 1419.95 522.06V517.236L1414.32 518.901L1410.48 528.073C1410.48 528.073 1403.97 538.196 1378.18 549.577C1373.74 551.547 1368.95 553.993 1364 556.846C1340.38 570.265 1314.12 591.021 1312.12 595.437C1311.92 595.913 1311.68 596.592 1311.44 597.612C1308.66 608.516 1302.96 649.349 1297.67 663.923C1294.37 673.027 1289.15 678.021 1285.31 680.637C1285.28 680.671 1285.28 680.671 1285.25 680.671C1282.4 682.641 1280.33 683.252 1280.33 683.252C1279.92 685.495 1279.55 687.703 1279.17 689.911C1268.11 759.721 1289.15 807.111 1293.9 810.44Z" fill="url(#paint13_linear_70_4031)"/>
<path opacity="0.5" d="M1571 678.392L1591.93 685.474L1595.29 681.593C1595.29 681.593 1615.98 728.984 1634.75 752.202C1636.98 754.96 1639.35 757.684 1641.79 760.305C1647.01 765.991 1652.6 771.336 1657.95 776L1673.9 706.888L1682 654.425C1673.77 643.156 1665.88 634.338 1662.08 630.287C1660.63 628.721 1659.78 627.869 1659.78 627.869C1659.78 627.869 1662.42 619.324 1664.22 611.902C1664.25 611.732 1664.28 611.562 1664.35 611.357C1664.35 611.289 1664.39 611.187 1664.39 611.119C1664.42 610.983 1664.45 610.949 1664.45 610.949C1665.5 606.387 1666.18 602.438 1665.57 601.45C1663.98 598.863 1654.66 595.969 1653.04 594.063C1651.45 592.122 1644.71 559.541 1639.59 556C1639.59 556 1642.95 587.253 1625.13 626.95L1616.46 639.206L1591.12 659.668C1591.12 659.634 1581.5 672.503 1571 678.392Z" fill="url(#paint14_linear_70_4031)"/>
<path d="M1631.86 734.733C1636.35 768.211 1685.83 794 1685.83 794C1696.85 794 1709.16 774.675 1720.33 750.826C1731.49 726.976 1732.2 658.455 1732.77 654.237C1733.38 650.018 1739.59 641.546 1739.99 637.906C1740.36 634.3 1729.94 626.781 1729.94 626.781L1730.01 626.61L1730.07 626.44C1731.15 624.093 1737.29 610.858 1736.85 608.443C1736.38 605.789 1724.68 600.005 1724.68 600.005L1723.94 613.036C1723.94 613.036 1696.69 607.83 1687.44 586.532L1685.83 580L1681.27 583.062V611.096C1681.27 611.096 1680.33 615.451 1678.91 615.451C1677.5 615.451 1666.84 610.11 1664.61 610.824C1662.35 611.573 1660.16 626.576 1657.19 628.482C1654.22 630.421 1646.33 635.967 1645.12 638.62C1644.58 639.811 1644.54 644.132 1644.48 649.201C1644.41 655.427 1644.34 662.776 1643.43 666.893C1641.75 674.378 1627.38 701.221 1631.86 734.733Z" fill="url(#paint15_linear_70_4031)"/>
<path d="M1176.01 706.42C1178.24 709.93 1189.46 717.288 1192.37 720.191C1195.25 723.059 1192.37 732.509 1192.37 732.509C1239.52 782.392 1288.71 807.367 1293.65 809.797C1293.92 809.932 1294.06 810 1294.06 810C1323.66 790.155 1321.12 757.485 1311.3 729.944C1301.92 703.518 1285.79 681.85 1285.08 680.905L1285.05 680.871C1285.05 680.871 1285.05 680.871 1285.01 680.838C1284.47 680.635 1276.04 677.159 1269.97 676.686C1267.97 676.551 1266.15 677.328 1264.42 678.408C1260.83 680.635 1257.78 684.145 1254.83 682.694C1250.5 680.534 1240.77 657.651 1234.2 657.044C1229.6 656.605 1223.23 661.263 1218.99 663.929C1217.13 665.076 1215.71 665.886 1215 665.684C1212.59 665.043 1204.39 655.289 1203.75 655.019C1203.11 654.749 1199.38 657.483 1199.38 657.483L1201.99 660.723C1197.99 683.74 1184.82 699.232 1184.82 699.232L1176.01 686.373C1176.01 686.373 1173.74 702.91 1176.01 706.42Z" fill="url(#paint16_linear_70_4031)"/>
<path d="M1420 519.341C1420.03 519.68 1420.1 519.986 1420.14 520.325C1420.27 521.004 1420.41 521.682 1420.61 522.361C1420.61 522.361 1420.61 522.395 1420.64 522.395C1423.65 533.627 1435.85 545.096 1451.23 539.565C1468.03 533.525 1500 465.523 1500 465.523L1496.79 451L1420.88 513.063L1420.03 518.934L1420 519.341Z" fill="#CB4D7A"/>
<path d="M1673.96 506.841C1673.96 506.841 1678.62 481.092 1676.54 462.137C1674.44 443.148 1677.09 421.611 1677.09 421.611C1677.09 421.611 1681.71 419.674 1685.07 421.611C1688.43 423.547 1696.31 443.182 1692.78 458.944C1689.25 474.706 1691.97 512.514 1691.97 512.514H1697.27L1708.85 496.582L1714.49 494.986C1714.49 494.986 1746.9 525.559 1746.42 543.733L1742.17 559.903L1702.26 558.544L1676.2 528.786L1673.96 506.841Z" fill="#EE8183"/>
<path d="M1714.49 494.956C1714.49 494.956 1713.64 515.236 1709.09 532.594C1709.09 532.594 1709.83 539.728 1718.16 540.204L1720.19 537.928C1720.19 537.928 1721.66 546.012 1728.99 546.624L1735.99 539.626L1734.19 545.401C1734.19 545.401 1736.74 551.55 1743.36 551.312C1743.36 551.312 1754.47 542.616 1755.18 531.27L1744.21 521.996V514.862L1731.17 505.69L1730.93 500.493C1731 500.493 1723.35 494.82 1714.49 494.956Z" fill="url(#paint17_linear_70_4031)"/>
<path opacity="0.6" d="M1676.07 456.668C1676.07 456.668 1678.04 461.628 1680.79 463.564C1683.57 465.5 1691.59 466.961 1691.59 466.961L1691.97 512.447H1697.26L1708.85 496.515C1708.85 496.515 1702.97 505.619 1702.63 512.447L1707.22 514.689L1711.19 501.067L1713.09 510.884L1711.23 523.079C1711.23 523.079 1704.36 517.169 1691.93 516.931L1690.06 520.328C1690.06 520.328 1712.55 538.943 1717.71 549.916C1717.71 549.916 1706.61 535.784 1681.27 520.226L1678.85 512.752L1675.66 494.884C1675.66 494.952 1678.68 469.203 1676.07 456.668Z" fill="url(#paint18_linear_70_4031)"/>
<path d="M1657.21 535.957C1659.29 542.207 1681.2 568.262 1683.61 573.935C1686.02 579.574 1687.48 586.946 1687.48 586.946C1698.22 610.215 1724.24 613.408 1724.24 613.408L1725.43 592.415C1725.43 592.415 1739.42 584.364 1741.77 579.948L1741.8 579.88L1742.07 579.133C1742.79 575.022 1742.17 559.838 1742.17 559.838L1717.68 549.918C1707.05 536.161 1681.23 520.263 1681.23 520.263L1680.04 513.061C1698.59 503.957 1695.47 476.373 1692.34 472.976C1689.21 469.613 1683.44 469.613 1683.44 469.613C1683.44 469.613 1676.68 491.796 1672.33 502.191C1667.98 512.551 1655.14 529.706 1657.21 535.957Z" fill="url(#paint19_linear_70_4031)"/>
<path d="M1731 500.488C1731 500.488 1728.28 525.83 1720.26 537.889C1720.26 537.889 1730.45 525.252 1731.23 505.686L1731 500.488Z" fill="#E28183"/>
<path d="M1744.24 514.855C1744.24 514.855 1741.59 535.237 1729.02 546.583C1729.02 546.583 1740.13 541.046 1744.24 521.955V514.855Z" fill="#E28183"/>
<path opacity="0.91" d="M1680.22 568.527C1680.22 568.527 1707.8 595.33 1725.43 592.408L1724.24 613.402C1724.24 613.402 1695.26 610.888 1685.85 580.417C1685.85 580.417 1682.49 571.653 1680.22 568.527Z" fill="url(#paint20_linear_70_4031)"/>
<path d="M1096.84 604.948C1096.84 604.948 1122.19 651.283 1151.88 665.517H1162L1185.4 700.981C1185.4 700.981 1200.52 691.47 1201.64 660.285C1201.64 660.285 1196.34 654.748 1195.05 648.532C1195.05 648.532 1203.41 641.975 1205.68 637.152C1207.93 632.328 1208.74 617.857 1210.34 611.878C1211.93 605.933 1225.62 593.534 1228.68 591.937C1231.74 590.341 1245.57 589.526 1245.57 589.526C1245.57 589.526 1247.5 584.532 1245.57 582.154C1243.63 579.742 1222.09 571.352 1210.34 579.403C1210.34 579.403 1209.52 585.517 1208.27 588.744C1206.98 591.937 1196.68 603.351 1195.09 603.351C1193.49 603.351 1186.56 597.576 1183.5 593.058C1180.58 588.744 1165.02 555.182 1161.25 543.836C1161.22 543.7 1161.22 543.598 1161.15 543.496C1161.08 543.326 1161.01 543.156 1161.01 542.987C1160.95 542.851 1160.95 542.749 1160.91 542.647C1160.88 542.613 1160.88 542.579 1160.88 542.511C1157.99 532.694 1141.07 513.874 1132.07 508.745C1132.07 508.745 1128.23 507.794 1126.13 512.583C1126.13 512.583 1133.36 533.203 1140.94 545.398C1142.19 547.471 1143.59 549.883 1145.01 552.464C1145.01 552.464 1145.01 552.464 1145.05 552.464C1151.5 564.32 1158.74 579.81 1159.79 582.086L1159.93 582.358L1155.92 584.43L1145.05 574.103L1133.91 563.539L1108.29 590.579L1110.81 593.772L1118.79 604.031L1114.75 604.778L1105.34 594.349L1096.84 604.948Z" fill="url(#paint21_linear_70_4031)"/>
<path opacity="0.6" d="M1102.79 614.802L1110.88 626.692C1110.88 626.692 1155.34 592.416 1164.99 589.494C1174.64 586.607 1178.17 588.543 1178.17 588.543L1188.12 601.248C1188.12 601.248 1169.78 617.486 1168.18 639.362C1168.18 639.362 1174.3 611.711 1195.05 603.32C1193.46 603.32 1186.53 597.545 1183.47 593.027C1180.55 588.713 1164.99 555.151 1161.22 543.805C1161.73 545.741 1162.38 549.512 1160.81 552.501C1158.64 556.543 1145.73 552.739 1144.98 552.501C1144.95 552.501 1144.95 552.501 1144.95 552.501L1159.73 582.123L1159.86 582.395L1155.85 584.467L1144.98 574.14L1150.42 586.811L1110.74 593.809L1118.72 604.068L1114.68 604.815L1102.79 614.802Z" fill="url(#paint22_linear_70_4031)"/>
<path d="M1133.77 563.643C1133.77 563.643 1126.06 562.522 1121.07 572.476L1122.19 575.703C1122.19 575.703 1114.65 577.163 1107.38 589.393C1107.38 589.393 1113.8 601.146 1129.73 606.446C1129.73 606.446 1137.13 604.339 1138.43 598.089L1136.96 594.08L1142.74 598.429C1142.74 598.429 1149.67 600.535 1152.73 590.208L1133.77 563.643Z" fill="url(#paint23_linear_70_4031)"/>
<path d="M1094.53 601.753C1094.53 601.753 1092.93 594.347 1100.82 589.523L1116.1 606.407C1116.1 606.407 1115.63 611.808 1109.04 612.997C1109 613.031 1098.54 609.464 1094.53 601.753Z" fill="url(#paint24_linear_70_4031)"/>
<path opacity="0.91" d="M1205.69 637.152C1205.69 637.152 1187.99 656.923 1162 665.517L1173.21 682.502L1196.58 652.846L1195.09 648.566C1195.05 648.532 1204.4 641.534 1205.69 637.152Z" fill="url(#paint25_linear_70_4031)"/>
<path d="M1122.19 575.699C1122.19 575.699 1129.59 587.928 1137 594.043L1138.46 598.051C1138.46 598.051 1124.09 588.37 1118.82 577.16C1118.79 577.16 1120.52 575.937 1122.19 575.699Z" fill="#E28183"/>
<path opacity="0.5" d="M1176.01 705.845C1178.24 709.374 1189.44 716.77 1192.35 719.688C1195.22 722.572 1192.35 732.072 1192.35 732.072C1239.43 782.219 1288.55 807.326 1293.49 809.769C1293.76 809.904 1293.9 809.972 1293.9 809.972C1297.75 810.447 1316.49 805.154 1335.23 767.561C1352.22 733.497 1357.09 710.765 1357.9 706.795L1358 706.184L1353.87 700.552L1347.72 631.134L1343.42 645.113C1327.08 625.332 1311.69 595 1311.69 595L1311.01 597.171V597.205C1308.24 608.096 1302.56 648.879 1297.28 663.434C1294 672.527 1288.79 677.515 1284.97 680.127L1284.93 680.161L1284.97 680.195C1300.02 693.97 1307.46 713.75 1311.15 729.493C1314.53 743.947 1314.73 755.008 1314.73 755.008C1314.73 755.008 1310.57 735.431 1297.45 711.85C1292.68 703.266 1285.74 695.632 1278.84 689.322C1273.67 684.606 1268.53 680.636 1264.33 677.684C1260.75 679.924 1257.7 683.452 1254.76 681.993C1274.55 711.783 1274.07 770.751 1255.47 759.52C1236.9 748.29 1232.67 724.404 1232.67 724.404C1237.07 695.327 1235.75 662.518 1232.23 656.309C1227.97 656.445 1215.69 665.097 1214.98 664.893C1216.09 699.093 1200.06 721.961 1200.06 721.961L1189.47 705.54C1204.86 679.516 1203.71 654.172 1203.71 654.172C1203.07 653.9 1199.35 656.648 1199.35 656.648L1201.95 659.906C1197.96 683.045 1184.8 698.618 1184.8 698.618L1176.01 685.691C1176.01 685.691 1173.74 702.316 1176.01 705.845Z" fill="url(#paint26_linear_70_4031)"/>
<path opacity="0.5" d="M1381 920.631V930.769L1381.17 930.939L1381.75 931.449L1382.19 931.824C1386.76 935.43 1406.13 947.303 1466.69 950.569C1538.43 954.414 1586.23 931.245 1586.23 931.245L1582.63 921.311C1582.63 921.311 1585.99 918.419 1586.23 916.99C1586.46 915.527 1583.58 912.159 1583.58 912.159C1583.58 912.159 1590.8 908.315 1590.8 903.45C1590.8 899.095 1579.01 886.473 1577.11 874.599C1576.88 873.34 1576.78 872.082 1576.84 870.823C1577.32 858.065 1588.29 846.77 1589.82 839.523C1589.85 839.455 1589.85 839.421 1589.85 839.421C1591.31 832.174 1571.08 814.279 1571.08 814.279C1588.39 759.164 1591.78 685.235 1591.78 685.235L1595.13 681.356C1595.13 681.356 1615.83 728.715 1634.59 751.917C1653.36 775.12 1680.79 794.955 1685.6 793.968C1696.68 793.968 1709.04 774.644 1720.25 750.795C1731.46 726.945 1732.18 658.426 1732.75 654.207C1733.36 649.989 1739.59 641.517 1740 637.877C1727.98 658.664 1708.8 652.54 1708.8 652.54C1722.69 652.846 1729.91 626.752 1729.91 626.752L1729.97 626.582L1730.04 626.412L1736.82 608.414C1736.04 609.265 1720.19 627.126 1704.84 616.103C1689.13 604.842 1681.03 583 1681.03 583V611.034C1681.03 611.034 1680.08 615.389 1678.66 615.389C1679.61 628.283 1682.32 644.001 1685.6 659.481C1692.75 692.958 1702.5 725.312 1702.5 725.312C1702.5 725.312 1675.98 710.819 1666.67 674.076C1662.23 656.487 1661.49 641.211 1661.93 630.086C1662.3 620.56 1663.55 614.062 1664.06 611.68C1664.09 611.51 1664.13 611.34 1664.2 611.136C1664.2 611.068 1664.23 610.966 1664.23 610.898C1664.23 610.83 1664.26 610.796 1664.26 610.762L1661.69 616.205L1656.81 628.351C1651.16 675.505 1662.84 746.542 1662.84 746.542C1645.84 725.278 1642.28 678.227 1643.03 666.795C1643.37 661.352 1643.77 654.615 1644.08 649.104C1644.45 643.082 1644.72 638.523 1644.72 638.523L1609.9 659.379L1616.34 638.932L1591 659.379C1591 659.379 1568.21 686.936 1544.8 690.134C1521.4 693.366 1435.43 691.427 1435.43 691.427C1435.43 691.427 1510.18 696.258 1532 702.688C1553.81 709.152 1557.98 716.535 1557.98 716.535C1542.19 797.132 1454.91 824.281 1452.2 825.098C1531.39 813.156 1568.24 745.521 1568.24 745.521C1568.24 745.521 1569.53 783.557 1563.43 798.051C1557.33 812.544 1521.4 847.994 1475.2 855.377C1471.3 855.989 1467.47 856.364 1463.68 856.534C1424.73 858.371 1392.48 838.366 1389.16 836.223C1388.99 836.087 1388.89 836.053 1388.89 836.053C1388.89 836.053 1388.93 836.087 1388.96 836.189C1390.21 838.094 1406.17 860.65 1470.69 863.134C1474.59 863.304 1478.41 863.27 1482.11 863.1C1482.14 863.1 1482.14 863.1 1482.14 863.1C1541.92 860.582 1572.37 820.573 1572.37 820.573C1572.37 820.573 1594.49 832.514 1580.37 850.206C1580.23 850.376 1580.06 850.58 1579.93 850.784C1575.76 855.615 1566.58 861.501 1555.74 867.557C1555.44 867.727 1555.13 867.897 1554.86 868.067C1541.75 875.348 1526.41 882.832 1514.52 889.024C1514.45 889.058 1514.38 889.058 1514.35 889.092C1507.1 892.903 1501.11 896.169 1497.79 898.619C1497.75 898.619 1497.75 898.653 1497.75 898.653C1494.4 901.102 1493.72 902.667 1497.01 903.075C1513.71 905.015 1576.88 891.168 1579.45 895.012C1582.03 898.891 1576.33 908.859 1576.33 908.859C1518.35 937.743 1394.21 923.488 1390.31 923.08C1494.2 949.787 1579.15 915.97 1579.15 915.97L1576.33 925.972C1576.33 925.972 1530.07 942.064 1475.53 943.357C1420.97 944.616 1387 930.633 1387 930.633L1381 920.631Z" fill="url(#paint27_linear_70_4031)"/>
<path opacity="0.5" d="M1423 691C1423 691 1381.45 693.248 1354 700.504L1368.17 722C1368.17 722 1389.45 703.264 1423 691Z" fill="url(#paint28_linear_70_4031)"/>
<path opacity="0.5" d="M1384 806C1384 806 1409.82 827.558 1435.2 837.506C1460.57 847.453 1485 848.438 1485 848.438C1485 848.438 1470.41 852.784 1434.48 846.978C1398.59 841.207 1386.31 821.719 1386.31 821.719L1384 806Z" fill="url(#paint29_linear_70_4031)"/>
<path opacity="0.5" d="M1503 697.924C1543.8 702.058 1554.79 713.409 1554.79 713.409C1566.25 714.866 1592.03 685.523 1592.03 685.523L1595.38 681.66C1595.38 681.66 1616.1 728.827 1634.89 751.936C1637.13 754.68 1639.51 757.391 1641.95 760L1639.27 754.003C1639.27 754.003 1634.89 751.936 1633.64 728.962C1632.35 706.057 1643.27 671.868 1643.34 667.192C1643.41 662.516 1645 639 1645 639L1610.14 659.771L1616.58 639.407L1591.21 659.771C1591.21 659.771 1581.27 674.714 1556.18 687.149C1532.47 699.009 1505.92 698.06 1503 697.924Z" fill="url(#paint30_linear_70_4031)"/>
<path opacity="0.5" d="M1595 682.196L1570.79 679C1570.79 679 1561.13 685.46 1541.69 693.415L1557.88 717.452C1557.88 717.452 1551.46 751.723 1533 771C1533 771 1581.98 743.631 1588.85 720.648L1595 682.196Z" fill="url(#paint31_linear_70_4031)"/>
<path opacity="0.5" d="M1737 608.576L1730.03 627.03C1730.03 627.03 1722.92 651.955 1708.85 652.982C1694.77 654.009 1681 611.212 1681 611.212V583C1681 583 1695.99 615.355 1712.18 619.018C1728.36 622.647 1737 608.576 1737 608.576Z" fill="url(#paint32_linear_70_4031)"/>
<path opacity="0.5" d="M1653 594.089C1653 594.089 1640.46 619.232 1625 627C1625 627 1643.38 582.301 1639.51 556C1639.51 556 1646.27 560.191 1653 594.089Z" fill="url(#paint33_linear_70_4031)"/>
<path opacity="0.76" d="M1347.73 632L1343.4 645.914L1339 760C1339 760 1350.15 738.284 1358 707.314L1353.94 701.1C1353.91 701.1 1347.05 658.107 1347.73 632Z" fill="url(#paint34_linear_70_4031)"/>
<path opacity="0.5" d="M1214.6 665C1214.6 665 1217.03 721.976 1193.18 726.921L1192 733C1191.97 733 1222.85 731.832 1214.6 665Z" fill="url(#paint35_linear_70_4031)"/>
<path opacity="0.3" d="M1254 682.278C1254 682.278 1254.93 684.266 1263.73 678C1263.73 678 1294.24 699.155 1306 729C1306 729 1287.19 701.58 1277.18 698.616C1267.17 695.651 1264.76 706.599 1264.76 706.599C1264.76 706.599 1260.81 691.205 1254 682.278Z" fill="url(#paint36_linear_70_4031)"/>
<path opacity="0.5" d="M1664.14 611C1664.14 611 1648.08 670.951 1690 716C1690 716 1662.77 702.055 1656.61 669.755C1650.41 637.489 1664.14 611 1664.14 611Z" fill="url(#paint37_linear_70_4031)"/>
<path opacity="0.5" d="M1379.35 564C1379.35 564 1381.14 590.72 1393.89 609.882C1406.67 629.045 1432 642 1432 642C1432 642 1400.21 630.26 1385.65 613.728C1371.05 597.163 1379.35 564 1379.35 564Z" fill="url(#paint38_linear_70_4031)"/>
<path opacity="0.5" d="M1543.34 523C1543.34 523 1543.34 545.613 1536.01 568.67C1528.68 591.727 1465 632 1465 632C1465 632 1530.6 604.946 1543.34 580.626C1556.08 556.305 1543.34 523 1543.34 523Z" fill="url(#paint39_linear_70_4031)"/>
<path d="M1544 630.019V666.461C1544 666.461 1459.68 665.786 1365.17 672L1363 639.206C1363 639.206 1445.18 629.513 1544 630.019Z" fill="url(#paint40_linear_70_4031)"/>
<path d="M1372.9 643.008C1372.89 642.396 1373.15 642.075 1373.76 642.04L1390.85 641.581C1392.55 641.519 1393.99 641.709 1395.2 642.117C1396.41 642.524 1397.36 643.083 1398.12 643.856C1398.88 644.63 1399.44 645.551 1399.78 646.654C1400.15 647.756 1400.35 649.003 1400.36 650.398L1400.49 655.086C1400.54 656.478 1400.41 657.711 1400.1 658.851C1399.79 659.992 1399.3 660.938 1398.59 661.727C1397.89 662.515 1396.94 663.147 1395.77 663.622C1394.61 664.096 1393.16 664.314 1391.46 664.377L1382.25 664.627L1380.05 659.376L1379.81 659.39L1379.95 664.724L1373.49 664.886L1372.9 643.008ZM1379.78 658.745L1390.68 658.467C1391.91 658.431 1392.77 658.144 1393.29 657.57C1393.8 656.997 1394.02 656.032 1394.01 654.671L1393.89 650.867C1393.85 649.441 1393.59 648.503 1393.05 647.989C1392.51 647.509 1391.65 647.252 1390.39 647.289L1379.93 647.577C1379.79 647.584 1379.66 647.626 1379.59 647.732C1379.5 647.839 1379.47 647.943 1379.48 648.078L1379.78 658.745Z" fill="white"/>
<path d="M1410.85 650.683L1410.65 650.695L1410.83 657.523C1410.85 657.828 1410.99 657.956 1411.26 657.941L1430.49 657.428L1430.66 663.339L1405.45 664.021C1404.84 664.022 1404.55 663.732 1404.51 663.121L1403.97 642.227C1403.97 641.614 1404.26 641.292 1404.87 641.257L1429.33 640.618C1429.95 640.617 1430.27 640.905 1430.3 641.515L1430.47 647.426L1424.55 649.804L1424.31 649.817L1424.24 646.793C1424.23 646.556 1424.12 646.46 1423.91 646.471L1411 646.796C1410.83 646.805 1410.73 646.845 1410.67 646.95C1410.61 647.056 1410.62 647.158 1410.59 647.261L1410.65 650.116L1421.28 649.819L1421.41 654.439L1412.47 654.674L1410.85 650.683Z" fill="white"/>
<path d="M1455.25 647.859L1455.01 647.873L1454.94 645.359C1454.93 645.122 1454.82 644.992 1454.54 645.007L1442.52 645.315C1442.08 645.34 1441.78 645.426 1441.62 645.639C1441.46 645.818 1441.37 646.095 1441.39 646.468L1441.39 647.047C1441.42 647.487 1441.47 647.757 1441.64 647.883C1441.79 648.011 1442.06 648.097 1442.51 648.14L1456.72 649.749C1457.61 649.869 1458.4 650.028 1459.03 650.265C1459.65 650.501 1460.18 650.846 1460.58 651.265C1460.98 651.685 1461.28 652.212 1461.45 652.815C1461.62 653.452 1461.73 654.16 1461.75 655.044L1461.78 656.845C1461.8 657.797 1461.71 658.619 1461.52 659.344C1461.32 660.07 1460.95 660.67 1460.43 661.175C1459.91 661.681 1459.25 662.058 1458.39 662.346C1457.55 662.631 1456.47 662.761 1455.25 662.796L1434.97 663.335L1434.8 657.424L1452.98 656.937C1453.52 656.906 1453.89 656.817 1454.05 656.604C1454.2 656.391 1454.29 656.046 1454.29 655.535L1454.29 654.923C1454.27 654.516 1454.22 654.246 1454.07 654.085C1453.93 653.923 1453.65 653.836 1453.27 653.79L1439.59 652.423C1438.66 652.305 1437.87 652.146 1437.21 651.911C1436.55 651.676 1435.99 651.368 1435.56 650.95C1435.12 650.532 1434.82 650.039 1434.62 649.438C1434.42 648.837 1434.31 648.129 1434.29 647.279L1434.24 645.683C1434.18 644.019 1434.58 642.738 1435.45 641.804C1436.31 640.87 1437.75 640.38 1439.78 640.333L1460.03 639.796C1460.68 639.794 1461 640.115 1461.04 640.76L1461.17 645.448L1455.25 647.859Z" fill="white"/>
<path d="M1465.69 662.499L1465.08 639.704L1471.54 639.542L1472.15 662.337L1465.69 662.499Z" fill="white"/>
<path d="M1496.73 651.965C1496.71 651.626 1496.69 651.286 1496.64 650.915C1496.58 650.544 1496.56 650.239 1496.52 649.97L1496.5 649.698L1502.89 649.54L1503.18 660.717C1503.18 661.296 1502.93 661.617 1502.42 661.611L1485.26 662.075C1483.56 662.103 1482.12 661.946 1480.91 661.539C1479.69 661.132 1478.74 660.573 1477.99 659.799C1477.23 659.026 1476.66 658.105 1476.33 657.001C1475.96 655.899 1475.75 654.652 1475.74 653.292L1475.62 648.604C1475.57 647.211 1475.7 645.979 1476.01 644.838C1476.32 643.698 1476.81 642.751 1477.55 641.961C1478.26 641.173 1479.21 640.54 1480.37 640.066C1481.53 639.592 1482.98 639.339 1484.68 639.311L1501.74 638.853C1502.35 638.853 1502.67 639.141 1502.67 639.753L1502.82 644.678L1496.89 647.022L1496.66 647.036L1496.6 644.861C1496.59 644.658 1496.51 644.56 1496.31 644.571L1485.44 644.848C1484.83 644.849 1484.29 644.947 1483.85 645.074C1483.42 645.201 1483.09 645.424 1482.83 645.71C1482.58 645.997 1482.4 646.382 1482.29 646.864C1482.18 647.347 1482.11 647.929 1482.15 648.607L1482.24 652.617C1482.28 653.976 1482.58 654.946 1483.08 655.461C1483.62 655.975 1484.49 656.232 1485.74 656.195L1496.55 655.922C1496.78 655.909 1496.88 655.801 1496.87 655.53L1496.73 651.965Z" fill="white"/>
<path d="M1517.22 638.422C1517.69 638.395 1518.04 638.478 1518.25 638.602C1518.46 638.726 1518.64 638.954 1518.8 639.285L1527.88 655.408C1528.03 655.638 1528.24 655.762 1528.48 655.782L1528.82 655.763C1529.16 655.744 1529.32 655.598 1529.3 655.259L1528.84 638.103L1534.68 637.942L1535.24 659.822C1535.24 660.434 1534.99 660.721 1534.38 660.755L1525.1 661.009C1524.66 661.035 1524.35 660.984 1524.11 660.862C1523.89 660.738 1523.68 660.512 1523.49 660.148L1514.1 644.043C1513.99 643.811 1513.77 643.687 1513.5 643.669L1513.2 643.686C1512.86 643.705 1512.69 643.851 1512.71 644.19L1513.18 661.312L1507.33 661.473L1506.77 639.627C1506.77 639.015 1507.03 638.694 1507.64 638.66L1517.22 638.422Z" fill="white"/>
<path opacity="0.5" d="M1411 528.098C1412.96 551.793 1420.14 568.316 1427.77 579.466C1438.29 594.765 1449.66 600 1449.66 600C1461.03 595.003 1470.92 588.781 1479.42 581.914C1515.48 552.847 1527.12 512.596 1528 509.264C1512.78 546.32 1490.42 568.792 1473.45 581.438C1459.78 591.671 1449.63 595.513 1449.63 595.513V583.648C1452.33 582.628 1454.96 581.472 1457.46 580.18C1487.31 565.018 1503 533.402 1510.32 512.97C1510.36 512.936 1510.36 512.902 1510.36 512.834C1514.34 501.785 1515.85 494 1515.85 494H1510.46L1512.21 497.808L1512.28 497.944C1511.4 501.819 1510.42 505.525 1509.31 509.094C1509.28 509.196 1509.24 509.298 1509.21 509.366C1492.51 562.434 1449.56 579.534 1449.56 579.534C1419.7 557.335 1420.31 522.081 1420.31 522.081V517.253L1414.71 518.919L1411 528.098Z" fill="url(#paint41_linear_70_4031)"/>
<path opacity="0.3" d="M1232.24 656C1232.24 656 1240.39 683.022 1232.68 725C1232.68 725 1228.83 671.78 1225.96 667.139C1223.08 662.498 1215 664.698 1215 664.698C1215 664.698 1227.71 657.547 1232.24 656Z" fill="url(#paint42_linear_70_4031)"/>
<path opacity="0.5" d="M1311.17 802C1318.28 795.734 1326.82 785.315 1335.31 768.187C1352.31 733.999 1357.19 711.184 1358 707.2L1353.97 700.935L1348.55 648.325L1343.51 645.294C1343.51 645.294 1325.46 625.238 1311.75 595C1311.55 595.477 1311.31 596.158 1311.07 597.179V597.247C1308.3 608.178 1302.61 649.108 1297.32 663.716C1294.04 672.842 1288.83 677.848 1285 680.47C1285 680.47 1316.25 727.086 1317.78 760.355C1319.1 790.627 1312.39 800.468 1311.17 802Z" fill="url(#paint43_linear_70_4031)"/>
<path opacity="0.5" d="M1364 556.781L1413.02 572.795L1427.38 579.502L1427.44 579.536L1436.78 579.57L1449.41 579.605L1457.28 580.255L1461.46 580.563L1473.34 581.521L1479.31 582L1538.11 560.545L1548.63 556.712L1597 539.056C1595.57 538.508 1594.11 537.926 1592.59 537.311C1560.14 524.342 1528.29 508.635 1528.29 508.635L1516.07 493.511H1510.64C1505.79 482.8 1502.56 472.74 1500.46 464.836L1497.23 450.19C1497 448.787 1496.9 448 1496.9 448L1479.58 457.205L1421.23 504.255C1421.27 507.472 1421.16 510.346 1420.99 512.776L1420.15 518.696C1420.01 517.532 1419.94 516.882 1419.94 516.882L1414.31 518.559L1410.47 527.798C1410.47 527.798 1403.95 537.995 1378.16 549.458C1373.71 551.443 1368.92 553.941 1364 556.781Z" fill="#7A4AC0"/>
<path d="M1401.31 511.927C1401.31 511.927 1424.11 517.067 1449.27 504.847C1474.44 492.594 1495.61 456.48 1496.9 447.495C1498.15 438.475 1487.28 414.921 1487.28 396.541C1487.28 378.161 1496.26 346.574 1481.18 329.487C1466.11 312.401 1396.8 309.848 1374.35 331.768C1374.35 331.768 1367.4 349.331 1367.4 359.27C1367.4 361.653 1367.84 365.193 1368.45 369.243C1368.66 370.741 1368.93 372.34 1369.2 374.008C1371.2 386.023 1373.97 400.693 1372.69 407.126C1372.25 409.373 1371.54 411.449 1370.69 413.389V413.423C1367.91 419.856 1363.81 424.996 1363.07 430.544C1362.08 437.794 1371.77 489.36 1401.31 511.927Z" fill="url(#paint44_linear_70_4031)"/>
<path d="M1487.21 391.897C1487.21 391.897 1493.51 376.238 1509.29 376C1509.29 376 1518.53 379.635 1520 386.632C1520 386.632 1516.61 411.972 1512.71 423.793C1508.81 435.614 1494.57 433.915 1494.57 433.915C1494.57 433.915 1482.15 415.029 1487.21 391.897Z" fill="url(#paint45_linear_70_4031)"/>
<path d="M1427 443.105C1427 443.105 1421.82 442.684 1419.6 444.438C1417.37 446.192 1409.23 454.4 1398.96 456.645C1388.7 458.89 1381.8 449.77 1379.61 449.279C1377.42 448.823 1375 452.05 1375 452.05C1375 452.05 1375.94 448.331 1381.29 446.613C1381.29 446.613 1383.45 455.207 1398.36 452.26C1413.27 449.314 1419.6 442.403 1419.6 442.403L1420.34 441C1420.34 441.035 1424.54 441.947 1427 443.105Z" fill="url(#paint46_linear_70_4031)"/>
<path opacity="0.6" d="M1449.3 365.148L1449.1 363.547C1449.1 363.547 1434.16 337.153 1404.66 336.437C1375.13 335.722 1368.47 354.352 1368.47 354.352L1363 345.973L1375.47 320.464L1462.21 319L1483.33 336.165L1486 378.226L1476.61 433.739L1453.76 446L1447.31 440.244C1449.71 421.649 1463.39 404.688 1463.39 404.688L1453.39 397.707C1453.39 397.707 1427.71 410.24 1412.88 406.493C1412.88 406.493 1401.72 373.662 1402.37 349.345C1402.37 349.277 1440.42 354.965 1449.3 365.148Z" fill="url(#paint47_linear_70_4031)"/>
<path d="M1451 367C1451 367 1449.53 357.565 1433.46 353.778C1415.54 349.585 1401 346 1401 346C1401 346 1404.17 356.348 1410.15 360.237C1410.15 360.237 1429.09 359.56 1438.68 361.725C1448.3 363.889 1451 367 1451 367Z" fill="#38368E"/>
<path d="M1368.12 355C1368.12 355 1376.95 361.774 1383 378C1383 378 1377.22 370.499 1371.91 370.598C1368.25 370.664 1368.85 374.266 1368.85 374.266C1368.85 374.266 1365.23 364.583 1368.12 355Z" fill="#38368E"/>
<path d="M1445 394C1445 394 1444.06 374.041 1424.65 369C1424.65 369 1417.71 377.999 1417 388.215C1417 388.215 1427.31 386.287 1445 394Z" fill="url(#paint48_linear_70_4031)"/>
<path d="M1389 402C1389 402 1387.34 385.953 1377.86 380C1377.86 380 1371.38 384.722 1372.05 398.168C1372.08 398.168 1377.76 396.184 1389 402Z" fill="url(#paint49_linear_70_4031)"/>
<path d="M1445 393.898C1445 393.898 1438.69 401.511 1421.06 403C1421.06 403 1417.69 397.969 1418.02 388.139C1418.02 388.139 1434.24 386.583 1445 393.898Z" fill="#FFEBED"/>
<path d="M1389 402.061V404.379C1389 404.379 1386.24 410.025 1376.44 411C1376.44 411 1373.27 406.127 1373 398.229C1373 398.196 1379.26 396.65 1389 402.061Z" fill="#FFEBED"/>
<path d="M1426.01 388.207C1426.01 388.207 1430.37 393.373 1429.97 401.556C1429.97 401.556 1424.27 402.872 1421.06 403C1421.06 403 1417.32 397.898 1418.11 388.592C1418.11 388.624 1423.09 387.565 1426.01 388.207Z" fill="#7F9EC9"/>
<path d="M1379.89 398.612C1379.89 398.612 1382.51 401.276 1383 409.501C1383 409.501 1379.4 411 1376.53 411C1376.53 411 1372.86 406.038 1373 398.345C1373.04 398.345 1375.59 397.413 1379.89 398.612Z" fill="#7F9EC9"/>
<path d="M1426.81 402.103C1426.81 402.103 1428.42 391.878 1422.28 388L1417.29 388.609C1417.29 388.609 1415.62 396.686 1420.31 403C1420.31 402.968 1425.27 402.423 1426.81 402.103Z" fill="#38368E"/>
<path d="M1377.54 398.179C1377.54 398.179 1379.88 402.863 1381 410.203C1381 410.203 1379.18 410.9 1376.53 411C1376.53 411 1372.97 406.848 1373 398.379C1373 398.379 1375.73 397.681 1377.54 398.179Z" fill="#38368E"/>
<path d="M1445 394C1445 394 1433.17 386.899 1413 390.941L1416.74 388.024C1416.74 387.988 1431.13 383.383 1445 394Z" fill="#131163"/>
<path d="M1389 402C1389 402 1379.32 396.807 1368 399.544L1372.65 396.07C1372.69 396.07 1380.25 394.912 1389 402Z" fill="#131163"/>
<path d="M1432 394.062C1432 394.062 1428.83 393.486 1426 395.845C1426 395.845 1429.9 396.778 1432 394.062Z" fill="white"/>
<path d="M1384 403.201C1384 403.201 1379.56 402.252 1378 404.477C1378.03 404.477 1380.4 406.276 1384 403.201Z" fill="white"/>
<path d="M1444 395C1444 395 1434.56 403.873 1419.38 406L1419 400.749L1420.4 402.976C1420.4 402.976 1434.94 402.178 1444 395Z" fill="#C6659C"/>
<path d="M1389 404C1389 404 1387.32 410.203 1375 413L1375.38 409.952L1376.08 411.028C1376.12 411.028 1384.85 409.88 1389 404Z" fill="#C6659C"/>
<path d="M1413 427.46C1413 427.46 1408.57 426.425 1400.37 427.46C1392.18 428.495 1383.01 430.973 1378 427.46C1378 427.46 1384.67 434.744 1390.46 435.853C1396.24 436.963 1405.05 431.416 1405.05 431.416L1408.9 431.49C1408.87 431.49 1411.85 429.9 1413 427.46Z" fill="#CB5F7D"/>
<path d="M1408 431.729C1408 431.729 1406.02 430.817 1404.35 431.033C1402.67 431.249 1401 433 1401 433C1401 433 1404.48 431.681 1408 431.729Z" fill="#9F4A8B"/>
<path d="M1377.27 428.178C1375.12 426.018 1386.3 405.748 1391.64 405.017C1396.97 404.285 1402 427.725 1402 427.725C1402 427.725 1394.58 428.77 1387.36 429.78C1380.15 430.755 1377.27 428.178 1377.27 428.178Z" fill="#FFBCAF"/>
<path opacity="0.6" d="M1369.62 366.008C1372.63 365.635 1383.35 378.501 1383.35 378.501C1383.35 378.501 1390.16 399.358 1388.83 405.52C1387.49 411.716 1370.95 415 1370.95 415L1370.27 413.917V413.883C1371.12 411.919 1371.84 409.887 1372.29 407.653C1373.59 401.254 1370.82 386.661 1368.76 374.709C1368.76 374.709 1368.11 372.238 1368.01 369.969C1367.94 367.972 1368.25 366.143 1369.62 366.008Z" fill="url(#paint50_linear_70_4031)"/>
<path d="M1370.02 450.869C1373.41 443.788 1371.3 440.077 1400.69 436.229C1442.29 430.748 1445.86 443.481 1452.91 441.541C1453.15 441.472 1453.46 441.37 1453.76 441.234C1461.43 438.238 1479.45 420.467 1479.92 396.499C1480.4 371.578 1463.77 353.908 1463.77 353.908C1469.81 348.835 1472.22 334.094 1465.71 327.795C1459.19 321.531 1448.1 322.961 1420.88 325.855C1393.63 328.749 1393.63 327.081 1393.63 327.081C1384.98 329.293 1380.03 337.43 1378.63 340.052C1378.36 340.562 1378.23 340.869 1378.23 340.869L1374.83 337.737C1365.67 351.048 1367.37 365.552 1367.37 365.552C1367.37 365.552 1352.44 335.081 1354.13 330.757C1357.22 322.791 1365.88 311.181 1366.38 310.432L1366.42 310.398C1366.42 310.398 1368.83 287.18 1376.06 287.18C1383.28 287.18 1414.13 294.159 1414.13 294.159C1410.73 286.192 1411.24 277 1411.24 277C1411.24 277 1411.28 277.034 1411.38 277.136C1421.46 286.192 1431.3 287.179 1445.24 293.682C1452.27 296.985 1455.56 300.015 1458.31 303.181L1459.26 304.304L1460.24 305.496C1461.19 306.721 1462.21 307.981 1463.4 309.241C1463.47 309.309 1463.53 309.377 1463.57 309.377C1463.64 309.411 1463.64 309.445 1463.64 309.445C1464.76 310.671 1466.08 311.93 1467.67 313.258C1476.84 320.748 1496.99 325.753 1499.4 333.651C1501.81 341.55 1496.35 352.342 1493.46 363.475C1490.58 374.608 1491.9 384.447 1491.9 384.447C1491.9 384.447 1482.3 396.839 1485.49 414.985C1488.31 431.259 1494.48 433.914 1494.48 433.914C1498.83 442.868 1496.76 451.243 1496.76 451.243C1487.87 486.787 1451.01 507.929 1451.01 507.929C1418.23 520.185 1396.69 514.84 1396.69 514.84C1396.69 514.84 1396.69 514.84 1396.65 514.806C1372.8 499.213 1364.65 447.601 1364.28 445.183C1364.72 445.864 1369.13 452.741 1370.02 450.869ZM1384.74 483.757C1390.51 482.803 1391.73 468.096 1393.63 466.155C1395.57 464.249 1406.02 465.032 1406.02 465.032C1406.02 465.032 1415.66 475.994 1419.49 476.301C1423.36 476.641 1443.92 468.232 1439.48 455.669C1435.06 443.073 1419.49 441.472 1419.49 441.472C1419.49 441.472 1411.45 448.247 1399.4 449.03C1387.35 449.814 1382.98 447.601 1381.55 446.954C1380.09 446.307 1372.36 449.848 1372.56 460.81C1372.73 468.504 1378.94 484.71 1384.74 483.757Z" fill="url(#paint51_linear_70_4031)"/>
<path d="M1386.32 410C1386.32 410 1376.1 422.949 1377.06 427.822C1378.13 433.138 1390 436 1390 436C1390 436 1380.51 432.661 1378.54 427.822C1378.54 427.822 1380.98 418.008 1386.32 410Z" fill="#D2726C"/>
<path opacity="0.6" d="M1367.48 365C1367.48 365 1365.8 350.537 1375 337.262C1367.58 324.123 1366.52 310 1366.52 310L1366.48 310.034C1363.99 316.179 1362.55 328.096 1362.55 328.096L1354.14 330.269C1352.43 334.614 1367.48 365 1367.48 365Z" fill="url(#paint52_linear_70_4031)"/>
<path opacity="0.6" d="M1379 340.068C1380.39 337.481 1385.33 329.313 1393.96 327.1C1393.96 327.1 1393.96 328.768 1421.13 325.875C1448.26 322.982 1459.33 321.552 1465.83 327.815C1472.32 334.112 1469.92 348.849 1463.9 353.92C1463.9 353.92 1480.48 371.585 1480 396.499C1479.56 420.46 1461.56 438.26 1453.92 441.221L1454.25 443.876C1454.25 443.876 1452.9 498.741 1439.64 503.098C1426.41 507.421 1398.9 505.174 1396.32 507.761C1393.89 510.211 1396.66 514.432 1396.93 514.806C1396.97 514.84 1396.97 514.84 1396.97 514.84C1396.97 514.84 1418.45 520.184 1451.14 507.931C1451.14 507.931 1487.89 486.761 1496.75 451.262C1496.75 451.262 1498.82 442.889 1494.49 433.938C1494.49 433.938 1488.33 431.283 1485.52 415.014C1482.34 396.873 1491.91 384.484 1491.91 384.484C1491.91 384.484 1490.59 374.648 1493.47 363.518C1496.35 352.389 1501.83 341.599 1499.39 333.703C1484.03 336.12 1473.91 328.053 1473.91 328.053C1473.91 328.053 1471.24 324.309 1459.33 322.369C1447.42 320.429 1399.61 325.262 1399.61 325.262C1399.61 325.262 1404.41 321.246 1414.49 318.591C1424.04 316.073 1456.62 319 1460.11 319.272C1456.39 318.625 1419.44 312.227 1415.24 313.52C1410.77 314.848 1394.8 322.233 1394.8 322.233C1396.26 314.847 1410.57 297.081 1410.57 297.081C1410.57 297.081 1430.77 297.421 1443.97 300.212C1455.78 302.697 1462.24 308.108 1463.49 309.232L1460.34 305.488L1459.36 304.297L1458.42 303.173L1453.81 302.39L1430.64 292.963C1422.85 288.776 1412.87 278.429 1411.65 277.136C1411.58 277.068 1411.52 277 1411.52 277C1411.52 277 1411.04 286.19 1414.39 294.154C1394.8 291.737 1388.17 292.963 1388.17 292.963C1379.3 305.692 1379 340.068 1379 340.068Z" fill="url(#paint53_linear_70_4031)"/>
<path opacity="0.5" d="M1451 507.2C1451 507.2 1439.03 504.416 1420.99 505.112C1402.94 505.841 1392.56 505.907 1397.04 513.928C1397.01 513.928 1419.7 518.966 1451 507.2Z" fill="url(#paint54_linear_70_4031)"/>
<path d="M1411 297.341C1411 297.341 1411.88 309.101 1415.72 313.386L1460.78 319L1474 316.708C1474 316.708 1468.87 314.582 1463.26 308.138C1457.62 301.76 1428.23 295.448 1411 297.341Z" fill="url(#paint55_linear_70_4031)"/>
<path d="M1367 310C1367 310 1363.12 322.276 1362.83 328.749L1354 331C1354 331 1356.66 321.749 1367 310Z" fill="url(#paint56_linear_70_4031)"/>
<path opacity="0.8" d="M1489 413.112C1489 413.112 1492.21 397.97 1500.12 390.449C1508.02 382.963 1517 385.368 1517 385.368C1517 385.368 1514.55 413.485 1511.96 420.328C1509.37 427.171 1505.47 429 1505.47 429C1505.47 429 1510.99 424.257 1511.72 414.942C1512.44 405.66 1512.68 392.516 1510.61 390.958C1508.54 389.399 1500.12 395.497 1500.12 395.497C1500.12 395.497 1502.78 398.681 1504.36 406.981C1505.95 415.28 1500.08 421.276 1497.87 421.175C1495.66 421.039 1498.01 411.588 1497.63 408.878C1497.25 406.134 1492.35 406.71 1489 413.112Z" fill="url(#paint57_linear_70_4031)"/>
<path opacity="0.8" d="M1497.5 394C1497.5 394 1505.83 399.59 1504.93 411.042C1504.03 422.495 1497.63 422.017 1497.6 419.597C1497.57 417.177 1498.83 411.008 1498.17 407.497C1497.5 403.987 1492 405.589 1492 405.589C1492 405.589 1495.63 396.488 1497.5 394Z" fill="url(#paint58_linear_70_4031)"/>
<path d="M1365 445C1365 445 1375.4 492.743 1397 514C1397 514 1372.35 504.249 1365 445Z" fill="#34C7FF"/>
<path d="M1376 287C1376 287 1370.64 291.312 1369.62 306.32C1368.61 321.328 1374.89 338 1374.89 338C1374.89 338 1366.84 325.539 1366.06 311.855C1365.31 298.205 1371.78 288.732 1376 287Z" fill="#34C7FF"/>
<path d="M1443 317.748C1443 317.748 1430.42 322.182 1416.64 323.453C1402.86 324.725 1400 325 1400 325C1400 325 1405.55 319.432 1417.33 317.748C1429.15 316.064 1443 317.748 1443 317.748Z" fill="url(#paint59_linear_70_4031)"/>
<path d="M1380.87 446.426C1380.87 446.426 1374.88 446.426 1372.53 453.901C1370.65 459.862 1370.12 465 1370.12 465L1368 456.8C1368 456.8 1370.78 446.393 1373.66 444.054C1375.74 442.375 1379.31 440.662 1381 441.057L1380.87 446.426Z" fill="url(#paint60_linear_70_4031)"/>
<path d="M1398 438.023L1396.98 447.909C1396.98 447.909 1389.68 448.568 1384.86 446.335L1384 440.366C1384 440.33 1393.31 437.73 1398 438.023Z" fill="url(#paint61_linear_70_4031)"/>
<path d="M1364 556C1364 556 1320.28 588.144 1314.63 599.223C1308.95 610.267 1306.68 644.968 1299 660C1299 660 1304.24 635.457 1307.93 616.198C1311.62 596.939 1310.74 596.666 1312.77 591.962C1314.8 587.19 1347.42 564.385 1364 556Z" fill="#34C7FF"/>
<path d="M1371.17 735C1371.17 735 1392.98 825.802 1391.97 831.935C1390.99 838.068 1376.87 850.573 1376.21 854.014C1376.21 854.014 1386.99 868.086 1386.5 871.186C1386.01 874.287 1367.59 893.981 1368.08 900.08C1368.22 901.851 1380.17 921 1380.17 921C1380.17 921 1366.68 902.158 1366.02 899.16C1365.35 896.161 1382.55 870.982 1383.04 868.427C1384.33 861.817 1374.46 856.944 1374.14 852.583C1373.83 848.222 1387.52 837.591 1387.62 830.47C1387.76 823.383 1371.17 735 1371.17 735Z" fill="#34C7FF"/>
<path d="M1657.48 536C1657.48 536 1669.33 533.492 1674.27 523.186C1679.17 512.881 1675.97 498 1675.97 498C1675.97 498 1666.68 515.729 1662.08 521.797C1657.45 527.83 1656.19 534.712 1657.48 536Z" fill="#FFBCAF"/>
<path d="M1029.19 338.26V349.844L1027.87 351.166H1013.64V390.038L1012.32 391.359H996.928L995.607 390.038V351.166H981.457L980.136 349.844V338.26L981.457 336.861H1027.79L1029.19 338.26ZM1063.8 336.316C1068.16 336.316 1072.15 337.016 1075.78 338.415C1079.46 339.763 1082.62 341.681 1085.26 344.169C1087.9 346.605 1089.98 349.533 1091.48 352.954C1092.98 356.323 1093.73 360.028 1093.73 364.071C1093.73 368.114 1092.98 371.846 1091.48 375.266C1089.98 378.687 1087.9 381.667 1085.26 384.207C1082.62 386.695 1079.46 388.638 1075.78 390.038C1072.15 391.437 1068.16 392.137 1063.8 392.137C1059.45 392.137 1055.43 391.437 1051.75 390.038C1048.12 388.638 1044.99 386.695 1042.35 384.207C1039.7 381.719 1037.63 378.765 1036.13 375.344C1034.62 371.871 1033.87 368.114 1033.87 364.071C1033.87 360.028 1034.62 356.323 1036.13 352.954C1037.63 349.533 1039.7 346.605 1042.35 344.169C1044.99 341.681 1048.12 339.763 1051.75 338.415C1055.43 337.016 1059.45 336.316 1063.8 336.316ZM1064.04 351.321C1062.48 351.321 1060.98 351.658 1059.53 352.332C1058.13 352.954 1056.88 353.835 1055.79 354.975C1054.76 356.063 1053.93 357.411 1053.31 359.018C1052.69 360.573 1052.37 362.283 1052.37 364.149C1052.37 366.015 1052.69 367.751 1053.31 369.358C1053.93 370.913 1054.78 372.286 1055.87 373.478C1056.96 374.618 1058.21 375.525 1059.6 376.199C1061 376.821 1062.48 377.132 1064.04 377.132C1065.59 377.132 1067.04 376.821 1068.39 376.199C1069.74 375.525 1070.9 374.618 1071.89 373.478C1072.92 372.286 1073.73 370.913 1074.3 369.358C1074.92 367.751 1075.23 366.015 1075.23 364.149C1075.23 362.283 1074.92 360.573 1074.3 359.018C1073.73 357.411 1072.92 356.063 1071.89 354.975C1070.9 353.835 1069.74 352.954 1068.39 352.332C1067.04 351.658 1065.59 351.321 1064.04 351.321ZM1126.14 336.861C1133.24 336.861 1138.74 338.545 1142.63 341.914C1146.51 345.283 1148.46 350.103 1148.46 356.374C1148.46 363.009 1146.51 368.14 1142.63 371.768C1138.74 375.396 1133.24 377.21 1126.14 377.21H1118.6V389.96L1117.28 391.359H1101.89L1100.57 390.038V338.182L1101.97 336.861H1126.14ZM1123.5 363.527C1125.83 363.527 1127.57 362.957 1128.71 361.817C1129.9 360.676 1130.5 359.044 1130.5 356.919C1130.5 354.897 1129.9 353.342 1128.71 352.254C1127.57 351.114 1125.83 350.544 1123.5 350.544H1118.6V363.527H1123.5Z" fill="white"/>
<path d="M1003.72 410.316C1008.08 410.316 1012.07 411.016 1015.7 412.415C1019.38 413.763 1022.54 415.681 1025.18 418.169C1027.82 420.605 1029.9 423.533 1031.4 426.954C1032.9 430.323 1033.65 434.028 1033.65 438.071C1033.65 442.114 1032.9 445.846 1031.4 449.266C1029.9 452.687 1027.82 455.667 1025.18 458.207C1022.54 460.695 1019.38 462.638 1015.7 464.038C1012.07 465.437 1008.08 466.137 1003.72 466.137C999.369 466.137 995.352 465.437 991.672 464.038C988.044 462.638 984.909 460.695 982.265 458.207C979.622 455.719 977.549 452.765 976.046 449.344C974.543 445.871 973.791 442.114 973.791 438.071C973.791 434.028 974.543 430.323 976.046 426.954C977.549 423.533 979.622 420.605 982.265 418.169C984.909 415.681 988.044 413.763 991.672 412.415C995.352 411.016 999.369 410.316 1003.72 410.316ZM1003.96 425.321C1002.4 425.321 1000.9 425.658 999.447 426.332C998.047 426.954 996.804 427.835 995.715 428.975C994.678 430.063 993.849 431.411 993.227 433.018C992.605 434.573 992.294 436.283 992.294 438.149C992.294 440.015 992.605 441.751 993.227 443.358C993.849 444.913 994.704 446.286 995.793 447.478C996.881 448.618 998.125 449.525 999.525 450.199C1000.92 450.821 1002.4 451.132 1003.96 451.132C1005.51 451.132 1006.96 450.821 1008.31 450.199C1009.66 449.525 1010.82 448.618 1011.81 447.478C1012.84 446.286 1013.65 444.913 1014.22 443.358C1014.84 441.751 1015.15 440.015 1015.15 438.149C1015.15 436.283 1014.84 434.573 1014.22 433.018C1013.65 431.411 1012.84 430.063 1011.81 428.975C1010.82 427.835 1009.66 426.954 1008.31 426.332C1006.96 425.658 1005.51 425.321 1003.96 425.321ZM1095.76 465.359H1074.69L1059.92 435.661H1058.83V464.038L1057.51 465.359H1042.12L1040.8 464.038V412.26L1042.2 410.861H1063.81L1078.11 440.948H1079.05V412.26L1080.45 410.861H1095.76L1097.08 412.26V464.038L1095.76 465.359ZM1125.17 424.544V431.385H1142.58L1143.91 432.784V442.813L1142.66 444.135H1125.17V451.676H1151.91L1153.23 452.998V464.038L1151.99 465.359H1108.45L1107.13 464.038V412.26L1108.45 410.861H1151.91L1153.23 412.26V423.222L1151.99 424.544H1125.17Z" fill="white"/>
<path opacity="0.73" d="M1733.58 434.867H1609.26C1599.26 434.867 1591.05 426.934 1590.72 416.931L1587.96 335.144C1587.61 324.652 1596.01 315.957 1606.51 315.957H1736.1C1746.58 315.957 1754.98 324.612 1754.64 335.085L1752.14 416.872C1751.83 426.915 1743.62 434.867 1733.58 434.867Z" fill="url(#paint62_linear_70_4031)"/>
<path d="M1733.58 435.375H1609.26C1598.93 435.375 1590.56 427.286 1590.21 416.95L1587.46 335.163C1587.28 329.947 1589.18 325.023 1592.81 321.272C1596.42 317.52 1601.31 315.449 1606.53 315.449H1736.12C1741.32 315.449 1746.19 317.501 1749.8 321.233C1753.41 324.964 1755.33 329.888 1755.17 335.085L1752.67 416.872C1752.34 427.267 1743.96 435.375 1733.58 435.375ZM1606.49 316.485C1601.54 316.485 1596.95 318.439 1593.51 321.995C1590.07 325.551 1588.28 330.22 1588.45 335.144L1591.21 416.931C1591.54 426.72 1599.45 434.379 1609.24 434.379H1733.58C1743.39 434.379 1751.32 426.7 1751.62 416.872L1754.12 335.085C1754.27 330.162 1752.46 325.511 1749.04 321.975C1745.6 318.439 1741.01 316.485 1736.08 316.485H1606.49Z" fill="#953DA2"/>
<path d="M1726.72 329.145H1612.86V396.786H1726.72V329.145Z" fill="#D1D4FB"/>
<path d="M1659.71 345.93V379.985L1688.82 361.404L1659.71 345.93Z" fill="white"/>
<path d="M1726.72 409.234H1612.86V415.428H1726.72V409.234Z" fill="#D1D4FB"/>
<path d="M1642.34 409.234H1612.86V415.428H1642.34V409.234Z" fill="white"/>
<path opacity="0.5" d="M1589.92 728C1589.92 728 1574.31 755.964 1545 747.206C1545 747.206 1562.54 758.676 1580.12 749.34C1580.12 749.34 1591.02 731.157 1589.92 728Z" fill="url(#paint63_linear_70_4031)"/>
<path d="M1595 937.971C1595 937.971 1616.52 847.256 1622.75 779.14C1622.75 779.14 1465.34 756.731 1347.51 769.482C1347.51 769.482 1352.6 859.964 1365.78 937.971H1595Z" fill="url(#paint64_linear_70_4031)"/>
<path opacity="0.5" d="M1471.61 769.61L1595 937.972H1494.62L1383.23 769.61C1383.23 769.61 1435.55 765.522 1471.61 769.61Z" fill="white"/>
<path d="M1622.75 779.139L1618 772.086C1618 772.086 1484.42 752.579 1355.06 764.885L1347.49 769.481C1347.51 769.46 1500 762.534 1622.75 779.139Z" fill="url(#paint65_linear_70_4031)"/>
<path d="M1513.27 866.445C1513.27 866.445 1495.59 836.856 1466.27 833.488C1466.27 833.467 1469.09 853.016 1513.27 866.445Z" fill="white"/>
<path d="M1394.19 762.07V768.424L1440.2 768.085V760.82C1440.2 760.82 1406.04 761.413 1394.19 762.07Z" fill="white"/>
<path d="M1603.65 770.224V776.705L1569.86 773.464L1568.33 766.496C1568.33 766.496 1594.41 769.059 1603.65 770.224Z" fill="white"/>
<path d="M1598.24 923.672C1598.24 923.672 1579.69 934.495 1484.42 936.232C1389.14 937.969 1364.19 928.31 1364.19 928.31L1365.78 937.969H1595L1598.24 923.672Z" fill="#EBC2D4"/>
<path d="M1192 938H1760V956H1192V938Z" fill="url(#paint66_linear_70_4031)"/>
<path d="M1162 387.219L1169.16 390L1171 384.902L1163.19 382L1162 387.219Z" fill="#4F31E0"/>
<path opacity="0.81" d="M643.201 896.988H581.371C578.621 896.988 576.371 894.788 576.311 892.038L575.161 841.328C575.101 838.488 577.381 836.148 580.221 836.148H644.591C647.441 836.148 649.731 838.498 649.651 841.348L648.261 892.058C648.191 894.808 645.941 896.988 643.201 896.988Z" fill="url(#paint67_linear_70_4031)"/>
<path d="M643.201 897.15H581.371C578.551 897.15 576.211 894.86 576.151 892.05L575.001 841.34C574.971 839.92 575.501 838.58 576.491 837.57C577.481 836.56 578.811 836 580.231 836H644.601C646.021 836 647.351 836.56 648.341 837.58C649.331 838.6 649.861 839.94 649.821 841.37L648.431 892.08C648.341 894.92 646.051 897.15 643.201 897.15ZM580.221 836.31C578.891 836.31 577.641 836.83 576.711 837.79C575.781 838.74 575.281 840 575.311 841.33L576.461 892.04C576.521 894.68 578.721 896.83 581.361 896.83H643.191C645.871 896.83 648.021 894.73 648.091 892.06L649.481 841.35C649.521 840.02 649.021 838.75 648.091 837.8C647.161 836.84 645.911 836.32 644.581 836.32H580.221V836.31Z" fill="#473DA2"/>
<path d="M624.34 846.531H591.82V847.921H624.34V846.531Z" fill="white"/>
<path d="M608.08 849.914H591.82V851.304H608.08V849.914Z" fill="white"/>
<path d="M608.08 852.742H591.82V854.132H608.08V852.742Z" fill="white"/>
<path d="M622.828 852.742H609.898V854.132H622.828V852.742Z" fill="white"/>
<path d="M618.03 855.57H591.82V856.96H618.03V855.57Z" fill="white"/>
<path d="M601.15 858.391H591.82V859.781H601.15V858.391Z" fill="white"/>
<path d="M619.2 866.871H603.07V868.261H619.2V866.871Z" fill="white"/>
<path d="M621.06 861.223H591.82V862.613H621.06V861.223Z" fill="white"/>
<path d="M614.31 864.051H591.82V865.441H614.31V864.051Z" fill="white"/>
<path d="M602.4 866.871H591.82V868.261H602.4V866.871Z" fill="white"/>
<path d="M608.08 869.703H591.82V871.093H608.08V869.703Z" fill="white"/>
<path d="M615.33 872.531H598.41V873.921H615.33V872.531Z" fill="white"/>
<path d="M619.2 875.273H603.07V876.663H619.2V875.273Z" fill="white"/>
<path d="M602.4 875.273H591.82V876.663H602.4V875.273Z" fill="white"/>
<path d="M608.08 878.102H591.82V879.492H608.08V878.102Z" fill="white"/>
<path d="M615.33 880.922H598.41V882.312H615.33V880.922Z" fill="white"/>
<path opacity="0.73" d="M397.283 279.191H368.993C366.713 279.191 364.853 277.391 364.773 275.111L364.143 256.501C364.063 254.111 365.973 252.141 368.363 252.141H397.853C400.233 252.141 402.143 254.111 402.073 256.491L401.503 275.101C401.433 277.381 399.563 279.191 397.283 279.191Z" fill="url(#paint68_linear_70_4031)"/>
<path d="M397.283 279.34H368.993C366.623 279.34 364.713 277.49 364.633 275.12L364.003 256.51C363.963 255.32 364.393 254.19 365.233 253.33C366.063 252.47 367.183 252 368.373 252H397.863C399.053 252 400.163 252.47 400.993 253.33C401.823 254.19 402.263 255.31 402.223 256.5L401.653 275.11C401.573 277.48 399.653 279.34 397.283 279.34ZM368.363 252.29C367.253 252.29 366.203 252.73 365.433 253.53C364.653 254.33 364.253 255.39 364.293 256.5L364.923 275.11C364.993 277.32 366.783 279.05 368.993 279.05H397.283C399.503 279.05 401.293 277.31 401.363 275.1L401.933 256.49C401.963 255.38 401.563 254.33 400.783 253.53C400.013 252.73 398.973 252.29 397.853 252.29H368.363Z" fill="#953DA2"/>
<path d="M376.533 258.828L369.562 266.908L376.662 272.938V269.828L372.553 266.268L376.373 261.958L376.533 258.828Z" fill="white"/>
<path d="M388.793 259.191L395.773 267.271L388.663 273.301V270.191L392.773 266.631L388.203 261.791L388.793 259.191Z" fill="white"/>
<path d="M378.055 272.941L384.135 259.551H386.985L380.105 272.941H378.055Z" fill="white"/>
<path fill-rule="evenodd" clip-rule="evenodd" d="M1057.7 731.589L1053.02 744.979C1055.6 737.579 1059.32 732.769 1057.7 731.589ZM1053.02 744.979L1048.33 758.369C1049.51 758.009 1050.43 752.369 1053.02 744.979ZM1057.7 731.589L1053.02 744.979C1055.6 737.579 1059.32 732.769 1057.7 731.589ZM1053.02 744.979L1048.33 758.369C1049.51 758.009 1050.43 752.369 1053.02 744.979ZM1066.53 756.579L1071.08 759.159L1075.99 745.759L1070.73 744.879C1070.82 744.379 1070.92 743.889 1070.98 743.389C1071.36 741.089 1071.49 738.849 1071.42 736.709L1076.92 733.259L1074.41 721.459L1069.14 726.499C1068.41 724.989 1067.5 723.669 1066.44 722.569C1066.15 722.249 1065.84 721.949 1065.53 721.679L1068.75 714.239L1060.17 711.449L1058.11 718.949C1056.19 718.959 1054.24 719.439 1052.3 720.309L1051.35 713.219L1041.91 720.369L1044.09 726.649C1042.39 728.589 1040.83 730.839 1039.48 733.359L1034.93 730.789L1030.02 744.189L1035.28 745.069C1034.72 747.899 1034.5 750.639 1034.58 753.229L1029.08 756.679L1031.59 768.479L1036.86 763.439C1037.8 765.369 1039.01 766.999 1040.47 768.249L1037.24 775.699L1045.68 778.989L1046.99 774.239L1047.88 770.989C1049.8 770.979 1051.76 770.509 1053.7 769.639L1054.63 776.729L1064.07 769.579L1061.89 763.299C1063.23 761.769 1064.48 760.059 1065.61 758.159C1065.95 757.639 1066.24 757.119 1066.53 756.579ZM1053.02 744.979C1050.43 752.379 1053.02 760.009 1048.33 758.369C1043.63 756.719 1041.91 749.389 1044.51 742.009C1047.11 734.609 1053.01 729.959 1057.7 731.599C1062.4 733.229 1055.6 737.579 1053.02 744.979ZM1057.7 731.589L1053.02 744.979C1055.6 737.579 1059.32 732.769 1057.7 731.589ZM1053.02 744.979L1048.33 758.369C1049.51 758.009 1050.43 752.369 1053.02 744.979Z" fill="url(#paint69_linear_70_4031)"/>
<path fill-rule="evenodd" clip-rule="evenodd" d="M1071.08 759.16L1075.99 745.76L1070.98 743.39L1070.17 743.01L1070.7 735.63L1076.26 732.92L1074.43 721.46L1062.33 717.52L1064.56 722.84L1068.78 714.24L1060.2 711.45L1056.68 710.3L1048.22 707L1046.64 712.77L1039.28 709.27L1029.84 716.42L1032.71 724.15L1023.88 748.63L1019.52 764.53L1027.91 765.45L1025.18 771.75L1033.64 775.05L1045.74 778.99L1043.8 775.1L1042.58 772.77L1047.05 774.23L1054.69 776.72L1064.13 769.57L1058.29 762.69L1065.67 758.15L1071.08 759.16ZM1044.51 742C1047.11 734.6 1053.01 729.95 1057.7 731.59L1053.02 744.98L1048.33 758.37C1043.63 756.71 1041.91 749.39 1044.51 742Z" fill="url(#paint70_linear_70_4031)"/>
<path fill-rule="evenodd" clip-rule="evenodd" d="M1058.98 755.21L1063.88 741.81L1058.62 740.93C1059.17 738.11 1059.4 735.37 1059.32 732.78L1064.82 729.33L1062.31 717.53L1057.04 722.57C1056.1 720.64 1054.89 719.01 1053.43 717.76L1056.66 710.31L1048.21 707.02L1046.02 715.02C1044.1 715.03 1042.14 715.5 1040.21 716.38L1039.27 709.3L1029.83 716.44L1032 722.72C1030.3 724.66 1028.75 726.92 1027.39 729.44L1022.84 726.87L1017.94 740.27L1023.2 741.15C1022.65 743.97 1022.42 746.71 1022.5 749.3L1017 752.75L1019.51 764.55L1024.78 759.51C1025.72 761.44 1026.93 763.07 1028.39 764.32L1025.16 771.77L1033.61 775.06L1035.8 767.06C1037.72 767.05 1039.68 766.58 1041.61 765.7L1042.55 772.78L1051.99 765.64L1049.82 759.36C1051.52 757.42 1053.07 755.16 1054.43 752.64L1058.98 755.21ZM1036.22 754.42C1031.52 752.77 1029.81 745.45 1032.4 738.05C1034.99 730.66 1040.9 726 1045.6 727.64C1050.3 729.29 1052.01 736.61 1049.42 744.01C1046.83 751.4 1040.92 756.06 1036.22 754.42Z" fill="url(#paint71_linear_70_4031)"/>
<path opacity="0.5" fill-rule="evenodd" clip-rule="evenodd" d="M1076.92 733.258L1064.82 729.328L1059.32 732.778L1071.42 736.718L1076.92 733.258Z" fill="#601734"/>
<path fill-rule="evenodd" clip-rule="evenodd" d="M1064.1 769.582L1051.99 765.642L1049.82 759.352L1061.92 763.302L1064.1 769.582Z" fill="#B3D9FF"/>
<path opacity="0.5" fill-rule="evenodd" clip-rule="evenodd" d="M1053.43 717.751L1060.07 719.671L1062.31 717.521L1066.72 718.961L1068.76 714.251L1056.66 710.301L1053.43 717.751Z" fill="#601734"/>
<path opacity="0.5" fill-rule="evenodd" clip-rule="evenodd" d="M1035.8 767.049L1042.14 769.689L1041.61 765.699C1041.61 765.699 1038.2 767.499 1035.8 767.049Z" fill="#601734"/>
<path opacity="0.5" fill-rule="evenodd" clip-rule="evenodd" d="M1036.78 730.77L1047.45 736.41C1047.45 736.41 1049 734.34 1050.19 733.5C1050.2 733.5 1047.41 721.73 1036.78 730.77Z" fill="#601734"/>
<path d="M968.861 617.75C972.091 612.19 971.261 606.09 971.261 606.09L969.461 604.82L964.601 612.75C961.581 613.78 959.031 612.76 959.031 612.76L959.041 612.75C959.041 612.75 957.231 610.68 957.201 607.49L963.071 600.27L961.271 599C961.271 599 955.241 600.24 951.071 605.14C951.071 605.14 949.791 606.85 949.711 607.06C949.301 608.2 949.391 610.52 951.581 613.86L935.601 638.77C933.331 638.75 931.091 639.8 929.681 641.79C927.391 645.03 928.151 649.51 931.391 651.81C934.631 654.1 939.111 653.34 941.411 650.1C942.821 648.11 943.071 645.65 942.291 643.51L960.471 620.17C964.261 621.1 966.481 620.49 967.501 619.67C967.711 619.5 968.861 617.75 968.861 617.75ZM935.171 649.94L931.891 647.62L932.261 643.62L935.911 641.94L939.191 644.26L938.821 648.26L935.171 649.94Z" fill="url(#paint72_linear_70_4031)"/>
<path d="M967.501 619.672C970.731 614.112 969.901 608.012 969.901 608.012L968.101 606.742L963.241 614.672C960.221 615.702 957.671 614.682 957.671 614.682L957.681 614.672C957.681 614.672 955.871 612.602 955.841 609.412L961.711 602.192L959.911 600.922C959.911 600.922 953.881 602.162 949.711 607.062C949.711 607.062 947.631 611.822 950.221 615.782L934.241 640.692C931.971 640.672 929.731 641.722 928.321 643.712C926.031 646.952 926.791 651.432 930.031 653.732C933.271 656.022 937.751 655.262 940.051 652.022C941.461 650.032 941.711 647.572 940.931 645.432L959.111 622.092C963.701 623.222 967.501 619.672 967.501 619.672ZM933.811 651.872L930.531 649.552L930.901 645.552L934.551 643.872L937.831 646.192L937.461 650.192L933.811 651.872Z" fill="url(#paint73_linear_70_4031)"/>
<path d="M961.289 599.003L959.926 600.93L961.721 602.201L963.085 600.275L961.289 599.003Z" fill="white"/>
<path d="M969.475 604.828L968.117 606.746L969.913 608.017L971.271 606.099L969.475 604.828Z" fill="white"/>
<path d="M931.91 647.628L930.547 649.555L933.828 651.877L935.192 649.951L931.91 647.628Z" fill="white"/>
<path d="M949.981 619.301L936.941 639.501C938.271 642.101 940.981 642.361 940.981 642.361L955.881 623.481C953.991 619.871 949.981 619.301 949.981 619.301ZM940.401 641.701C940.001 641.561 939.431 641.311 938.871 640.921C938.431 640.611 938.041 640.241 937.711 639.821L950.361 619.821C951.051 620.061 952.131 620.511 953.211 621.271C954.021 621.841 954.711 622.511 955.271 623.261L940.401 641.701Z" fill="url(#paint74_linear_70_4031)"/>
<path d="M940.401 641.7L940.981 642.36C940.981 642.36 938.391 642.37 936.941 639.5L937.721 639.81C937.711 639.81 938.651 641.09 940.401 641.7Z" fill="white"/>
<path opacity="0.62" d="M949.98 619.301L950.37 619.811C950.37 619.811 953.02 620.481 955.28 623.251L955.88 623.471C955.88 623.471 955.4 622.121 953.41 620.711C951.41 619.311 949.98 619.301 949.98 619.301Z" fill="url(#paint75_linear_70_4031)"/>
<path opacity="0.62" d="M950.211 615.781C950.211 615.781 953.681 619.951 959.101 622.091L956.781 625.071C956.781 625.071 957.381 622.851 954.331 620.451C950.761 617.651 947.941 619.521 947.941 619.521L950.211 615.781Z" fill="url(#paint76_linear_70_4031)"/>
<path opacity="0.5" d="M956.781 625.081C956.911 623.831 956.351 622.801 956.351 622.801L939.121 644.971L940.921 645.431L956.781 625.081Z" fill="url(#paint77_linear_70_4031)"/>
<path d="M956.781 625.078C956.781 625.078 953.211 625.818 953.381 629.438L956.781 625.078Z" fill="white"/>
</g>
<defs>
<filter id="filter0_f_70_4031" x="862" y="-618" width="1858" height="1858" filterUnits="userSpaceOnUse" color-interpolation-filters="sRGB">
<feFlood flood-opacity="0" result="BackgroundImageFix"/>
<feBlend mode="normal" in="SourceGraphic" in2="BackgroundImageFix" result="shape"/>
<feGaussianBlur stdDeviation="317" result="effect1_foregroundBlur_70_4031"/>
</filter>
<linearGradient id="paint0_linear_70_4031" x1="656.842" y1="480.445" x2="655.295" y2="0.000182375" gradientUnits="userSpaceOnUse">
<stop/>
<stop offset="1" stop-opacity="0"/>
</linearGradient>
<linearGradient id="paint1_linear_70_4031" x1="959.999" y1="152" x2="959.999" y2="883.002" gradientUnits="userSpaceOnUse">
<stop stop-color="#0C0E2E" stop-opacity="0"/>
<stop offset="1" stop-color="#131641"/>
</linearGradient>
<linearGradient id="paint2_linear_70_4031" x1="959.999" y1="272" x2="959.999" y2="1003" gradientUnits="userSpaceOnUse">
<stop stop-color="#0C0E2E" stop-opacity="0"/>
<stop offset="1" stop-color="#131641"/>
</linearGradient>
<linearGradient id="paint3_linear_70_4031" x1="959.999" y1="383" x2="959.999" y2="1114" gradientUnits="userSpaceOnUse">
<stop stop-color="#0C0E2E" stop-opacity="0"/>
<stop offset="1" stop-color="#131641"/>
</linearGradient>
<linearGradient id="paint4_linear_70_4031" x1="881.5" y1="822.988" x2="881.5" y2="735.555" gradientUnits="userSpaceOnUse">
<stop stop-color="#3A3A3A"/>
<stop offset="1" stop-color="#616161"/>
</linearGradient>
<linearGradient id="paint5_linear_70_4031" x1="655.5" y1="680.656" x2="655.5" y2="612.54" gradientUnits="userSpaceOnUse">
<stop stop-color="#3A3A3A"/>
<stop offset="1" stop-color="#616161"/>
</linearGradient>
<linearGradient id="paint6_linear_70_4031" x1="93.6468" y1="634.101" x2="136.296" y2="558.149" gradientUnits="userSpaceOnUse">
<stop stop-color="#3A3A3A"/>
<stop offset="1" stop-color="#616161"/>
</linearGradient>
<linearGradient id="paint7_linear_70_4031" x1="803.5" y1="287" x2="803.5" y2="355.117" gradientUnits="userSpaceOnUse">
<stop stop-color="#3A3A3A"/>
<stop offset="1" stop-color="#616161"/>
</linearGradient>
<linearGradient id="paint8_linear_70_4031" x1="923" y1="406.465" x2="1225" y2="406.465" gradientUnits="userSpaceOnUse">
<stop stop-color="#00C3EE"/>
<stop offset="1" stop-color="#E100E6"/>
</linearGradient>
<linearGradient id="paint9_linear_70_4031" x1="1722.5" y1="877.891" x2="1722.5" y2="809.774" gradientUnits="userSpaceOnUse">
<stop stop-color="#3A3A3A"/>
<stop offset="1" stop-color="#616161"/>
</linearGradient>
<linearGradient id="paint10_linear_70_4031" x1="1671.51" y1="406.626" x2="1699.28" y2="357.178" gradientUnits="userSpaceOnUse">
<stop stop-color="#3A3A3A"/>
<stop offset="1" stop-color="#616161"/>
</linearGradient>
<linearGradient id="paint11_linear_70_4031" x1="1465.53" y1="588.019" x2="1465.53" y2="498.021" gradientUnits="userSpaceOnUse">
<stop stop-color="#D5CDF8"/>
<stop offset="1" stop-color="#F3EDFB"/>
</linearGradient>
<linearGradient id="paint12_linear_70_4031" x1="1512.03" y1="543.016" x2="1419.02" y2="543.016" gradientUnits="userSpaceOnUse">
<stop stop-color="#CCCCFF"/>
<stop offset="1" stop-color="#755CBB"/>
</linearGradient>
<linearGradient id="paint13_linear_70_4031" x1="1492.48" y1="951.023" x2="1492.48" y2="493.98" gradientUnits="userSpaceOnUse">
<stop stop-color="#9E8CEF"/>
<stop offset="1" stop-color="#CAAFEE"/>
</linearGradient>
<linearGradient id="paint14_linear_70_4031" x1="1682" y1="665.992" x2="1571.01" y2="665.992" gradientUnits="userSpaceOnUse">
<stop stop-color="#CCCCFF"/>
<stop offset="1" stop-color="#755CBB"/>
</linearGradient>
<linearGradient id="paint15_linear_70_4031" x1="1685.5" y1="794.026" x2="1685.5" y2="579.979" gradientUnits="userSpaceOnUse">
<stop stop-color="#9E8CEF"/>
<stop offset="1" stop-color="#DAC7F3"/>
</linearGradient>
<linearGradient id="paint16_linear_70_4031" x1="1317.99" y1="732.493" x2="1174.99" y2="732.493" gradientUnits="userSpaceOnUse">
<stop stop-color="#A999F1"/>
<stop offset="1" stop-color="#DAC7F3"/>
</linearGradient>
<linearGradient id="paint17_linear_70_4031" x1="1732.17" y1="551.296" x2="1732.17" y2="494.945" gradientUnits="userSpaceOnUse">
<stop offset="0.016" stop-color="#FFC2A9"/>
<stop offset="1" stop-color="#FF9595"/>
</linearGradient>
<linearGradient id="paint18_linear_70_4031" x1="1696.69" y1="549.959" x2="1696.69" y2="456.68" gradientUnits="userSpaceOnUse">
<stop stop-color="#FFEADB"/>
<stop offset="0.9944" stop-color="#C27CB6"/>
</linearGradient>
<linearGradient id="paint19_linear_70_4031" x1="1699.71" y1="613.42" x2="1699.71" y2="469.617" gradientUnits="userSpaceOnUse">
<stop offset="0.016" stop-color="#FFC2A9"/>
<stop offset="1" stop-color="#FF9595"/>
</linearGradient>
<linearGradient id="paint20_linear_70_4031" x1="1725.43" y1="590.973" x2="1680.22" y2="590.973" gradientUnits="userSpaceOnUse">
<stop offset="0.016" stop-color="#D1A1D6"/>
<stop offset="0.9944" stop-color="#BD89C4"/>
</linearGradient>
<linearGradient id="paint21_linear_70_4031" x1="1171.65" y1="701.01" x2="1171.65" y2="508.708" gradientUnits="userSpaceOnUse">
<stop offset="0.016" stop-color="#FFC2A9"/>
<stop offset="1" stop-color="#FF9595"/>
</linearGradient>
<linearGradient id="paint22_linear_70_4031" x1="1148.93" y1="639.4" x2="1148.93" y2="543.863" gradientUnits="userSpaceOnUse">
<stop stop-color="#FFEADB"/>
<stop offset="0.9944" stop-color="#C27CB6"/>
</linearGradient>
<linearGradient id="paint23_linear_70_4031" x1="1130.08" y1="606.425" x2="1130.08" y2="563.597" gradientUnits="userSpaceOnUse">
<stop stop-color="#FFB0B0"/>
<stop offset="0.984" stop-color="#FFC2A9"/>
</linearGradient>
<linearGradient id="paint24_linear_70_4031" x1="1105.23" y1="613.015" x2="1105.23" y2="589.53" gradientUnits="userSpaceOnUse">
<stop stop-color="#FFB0B0"/>
<stop offset="0.984" stop-color="#FFC2A9"/>
</linearGradient>
<linearGradient id="paint25_linear_70_4031" x1="1205.69" y1="659.828" x2="1162.01" y2="659.828" gradientUnits="userSpaceOnUse">
<stop offset="0.016" stop-color="#D1A1D6"/>
<stop offset="0.9944" stop-color="#BD89C4"/>
</linearGradient>
<linearGradient id="paint26_linear_70_4031" x1="1266.48" y1="809.988" x2="1266.48" y2="595" gradientUnits="userSpaceOnUse">
<stop stop-color="#CCCCFF"/>
<stop offset="1" stop-color="#755CBB"/>
</linearGradient>
<linearGradient id="paint27_linear_70_4031" x1="1739.96" y1="767.018" x2="1380.99" y2="767.018" gradientUnits="userSpaceOnUse">
<stop stop-color="#CCCCFF"/>
<stop offset="1" stop-color="#755CBB"/>
</linearGradient>
<linearGradient id="paint28_linear_70_4031" x1="1422.99" y1="706.513" x2="1353.99" y2="706.513" gradientUnits="userSpaceOnUse">
<stop stop-color="#CCEDFF"/>
<stop offset="1" stop-color="#755CBB"/>
</linearGradient>
<linearGradient id="paint29_linear_70_4031" x1="1485" y1="828.02" x2="1383.99" y2="828.02" gradientUnits="userSpaceOnUse">
<stop stop-color="#CCEDFF"/>
<stop offset="1" stop-color="#755CBB"/>
</linearGradient>
<linearGradient id="paint30_linear_70_4031" x1="1574" y1="760.027" x2="1574" y2="639.072" gradientUnits="userSpaceOnUse">
<stop stop-color="#CCEDFF"/>
<stop offset="1" stop-color="#755CBB"/>
</linearGradient>
<linearGradient id="paint31_linear_70_4031" x1="1564" y1="771.03" x2="1564" y2="679.032" gradientUnits="userSpaceOnUse">
<stop stop-color="#CCEDFF"/>
<stop offset="1" stop-color="#755CBB"/>
</linearGradient>
<linearGradient id="paint32_linear_70_4031" x1="1709" y1="653.009" x2="1709" y2="583.012" gradientUnits="userSpaceOnUse">
<stop stop-color="#CCEDFF"/>
<stop offset="1" stop-color="#755CBB"/>
</linearGradient>
<linearGradient id="paint33_linear_70_4031" x1="1653.01" y1="591.481" x2="1625.01" y2="591.481" gradientUnits="userSpaceOnUse">
<stop stop-color="#CCEDFF"/>
<stop offset="1" stop-color="#755CBB"/>
</linearGradient>
<linearGradient id="paint34_linear_70_4031" x1="1348.47" y1="759.994" x2="1348.47" y2="632.015" gradientUnits="userSpaceOnUse">
<stop stop-color="#CCCCFF"/>
<stop offset="1" stop-color="#755CBB"/>
</linearGradient>
<linearGradient id="paint35_linear_70_4031" x1="1203.99" y1="732.993" x2="1203.99" y2="664.988" gradientUnits="userSpaceOnUse">
<stop stop-color="#CCCCFF"/>
<stop offset="1" stop-color="#755CBB"/>
</linearGradient>
<linearGradient id="paint36_linear_70_4031" x1="1280" y1="729.011" x2="1280" y2="678.018" gradientUnits="userSpaceOnUse">
<stop stop-color="#CCCCFF"/>
<stop offset="1" stop-color="#755CBB"/>
</linearGradient>
<linearGradient id="paint37_linear_70_4031" x1="1672.49" y1="716.008" x2="1672.49" y2="610.996" gradientUnits="userSpaceOnUse">
<stop stop-color="#CCCCFF"/>
<stop offset="1" stop-color="#755CBB"/>
</linearGradient>
<linearGradient id="paint38_linear_70_4031" x1="1404.5" y1="641.989" x2="1404.5" y2="563.988" gradientUnits="userSpaceOnUse">
<stop stop-color="#CCEDFF"/>
<stop offset="1" stop-color="#755CBB"/>
</linearGradient>
<linearGradient id="paint39_linear_70_4031" x1="1507" y1="632.004" x2="1507" y2="523.004" gradientUnits="userSpaceOnUse">
<stop stop-color="#CCEDFF"/>
<stop offset="1" stop-color="#755CBB"/>
</linearGradient>
<linearGradient id="paint40_linear_70_4031" x1="1543.99" y1="650.985" x2="1363" y2="650.985" gradientUnits="userSpaceOnUse">
<stop stop-color="#8642A0"/>
<stop offset="1" stop-color="#6456C0"/>
</linearGradient>
<linearGradient id="paint41_linear_70_4031" x1="1528.01" y1="546.972" x2="1410.99" y2="546.972" gradientUnits="userSpaceOnUse">
<stop stop-color="#CCCCFF"/>
<stop offset="1" stop-color="#755CBB"/>
</linearGradient>
<linearGradient id="paint42_linear_70_4031" x1="1225.51" y1="725.001" x2="1225.51" y2="655.992" gradientUnits="userSpaceOnUse">
<stop stop-color="#CCCCFF"/>
<stop offset="1" stop-color="#755CBB"/>
</linearGradient>
<linearGradient id="paint43_linear_70_4031" x1="1321.47" y1="802.015" x2="1321.47" y2="595.034" gradientUnits="userSpaceOnUse">
<stop stop-color="#CCCCFF"/>
<stop offset="1" stop-color="#755CBB"/>
</linearGradient>
<linearGradient id="paint44_linear_70_4031" x1="1429.99" y1="512.995" x2="1429.99" y2="315.96" gradientUnits="userSpaceOnUse">
<stop offset="0.016" stop-color="#FFC2A9"/>
<stop offset="1" stop-color="#FF9595"/>
</linearGradient>
<linearGradient id="paint45_linear_70_4031" x1="1503.01" y1="433.965" x2="1503.01" y2="375.993" gradientUnits="userSpaceOnUse">
<stop offset="0.016" stop-color="#FFC2A9"/>
<stop offset="1" stop-color="#FF9595"/>
</linearGradient>
<linearGradient id="paint46_linear_70_4031" x1="1402.53" y1="455.939" x2="1399.92" y2="442.909" gradientUnits="userSpaceOnUse">
<stop stop-color="#E1616A"/>
<stop offset="1" stop-color="#FF8883"/>
</linearGradient>
<linearGradient id="paint47_linear_70_4031" x1="1424.5" y1="445.993" x2="1424.5" y2="318.988" gradientUnits="userSpaceOnUse">
<stop stop-color="#FFEADB"/>
<stop offset="0.9944" stop-color="#C27CB6"/>
</linearGradient>
<linearGradient id="paint48_linear_70_4031" x1="1431.01" y1="393.987" x2="1431.01" y2="368.997" gradientUnits="userSpaceOnUse">
<stop stop-color="#CF6074"/>
<stop offset="1" stop-color="#F37270"/>
</linearGradient>
<linearGradient id="paint49_linear_70_4031" x1="1380.51" y1="402.001" x2="1380.51" y2="380.007" gradientUnits="userSpaceOnUse">
<stop stop-color="#CF6074"/>
<stop offset="1" stop-color="#FF817F"/>
</linearGradient>
<linearGradient id="paint50_linear_70_4031" x1="1378.51" y1="414.969" x2="1378.51" y2="365.992" gradientUnits="userSpaceOnUse">
<stop stop-color="#FFEADB"/>
<stop offset="0.9944" stop-color="#C27CB6"/>
</linearGradient>
<linearGradient id="paint51_linear_70_4031" x1="1426.99" y1="516.003" x2="1426.99" y2="276.993" gradientUnits="userSpaceOnUse">
<stop stop-color="#2E33A0"/>
<stop offset="1" stop-color="#0665A5"/>
</linearGradient>
<linearGradient id="paint52_linear_70_4031" x1="1364.5" y1="365.01" x2="1364.5" y2="310.026" gradientUnits="userSpaceOnUse">
<stop stop-color="#FFEADB"/>
<stop offset="0.9944" stop-color="#8860C7"/>
</linearGradient>
<linearGradient id="paint53_linear_70_4031" x1="1439.5" y1="516.003" x2="1439.5" y2="277.061" gradientUnits="userSpaceOnUse">
<stop stop-color="#CCC2DB"/>
<stop offset="0.9944" stop-color="#8860C7"/>
</linearGradient>
<linearGradient id="paint54_linear_70_4031" x1="1423.49" y1="515.005" x2="1423.49" y2="505.008" gradientUnits="userSpaceOnUse">
<stop stop-color="#776D7E"/>
<stop offset="1" stop-color="#9D68C2"/>
</linearGradient>
<linearGradient id="paint55_linear_70_4031" x1="1442.49" y1="319.014" x2="1442.49" y2="297.005" gradientUnits="userSpaceOnUse">
<stop stop-color="#1F77D1"/>
<stop offset="1" stop-color="#0686C9"/>
</linearGradient>
<linearGradient id="paint56_linear_70_4031" x1="1360.5" y1="331.012" x2="1360.5" y2="309.992" gradientUnits="userSpaceOnUse">
<stop stop-color="#1F77D1"/>
<stop offset="1" stop-color="#0686C9"/>
</linearGradient>
<linearGradient id="paint57_linear_70_4031" x1="1494.46" y1="420.157" x2="1520.25" y2="387.951" gradientUnits="userSpaceOnUse">
<stop stop-color="#FFEADB"/>
<stop offset="0.9944" stop-color="#B060F4"/>
</linearGradient>
<linearGradient id="paint58_linear_70_4031" x1="1492.5" y1="415.962" x2="1505.38" y2="400.538" gradientUnits="userSpaceOnUse">
<stop stop-color="#FFEADB"/>
<stop offset="0.9944" stop-color="#B060F4"/>
</linearGradient>
<linearGradient id="paint59_linear_70_4031" x1="1443" y1="321.003" x2="1400.01" y2="321.003" gradientUnits="userSpaceOnUse">
<stop stop-color="#1F77D1"/>
<stop offset="1" stop-color="#0686C9"/>
</linearGradient>
<linearGradient id="paint60_linear_70_4031" x1="1381" y1="453.026" x2="1368.01" y2="453.026" gradientUnits="userSpaceOnUse">
<stop stop-color="#1F77D1"/>
<stop offset="1" stop-color="#0686C9"/>
</linearGradient>
<linearGradient id="paint61_linear_70_4031" x1="1397.99" y1="442.982" x2="1384.01" y2="442.982" gradientUnits="userSpaceOnUse">
<stop stop-color="#1F77D1"/>
<stop offset="1" stop-color="#0686C9"/>
</linearGradient>
<linearGradient id="paint62_linear_70_4031" x1="1671.29" y1="434.872" x2="1671.29" y2="315.977" gradientUnits="userSpaceOnUse">
<stop stop-color="#D906E3"/>
<stop offset="1" stop-color="#FF6DF9"/>
</linearGradient>
<linearGradient id="paint63_linear_70_4031" x1="1567.51" y1="752.999" x2="1567.51" y2="728.006" gradientUnits="userSpaceOnUse">
<stop stop-color="#CCEDFF"/>
<stop offset="1" stop-color="#755CBB"/>
</linearGradient>
<linearGradient id="paint64_linear_70_4031" x1="1485.13" y1="937.968" x2="1485.13" y2="765.554" gradientUnits="userSpaceOnUse">
<stop stop-color="#C9B6E9"/>
<stop offset="1" stop-color="#BBABD1"/>
</linearGradient>
<linearGradient id="paint65_linear_70_4031" x1="1485.13" y1="779.137" x2="1485.13" y2="760.799" gradientUnits="userSpaceOnUse">
<stop stop-color="#D8CAEF"/>
<stop offset="1" stop-color="#EADEF4"/>
</linearGradient>
<linearGradient id="paint66_linear_70_4031" x1="1476" y1="938" x2="1476" y2="956" gradientUnits="userSpaceOnUse">
<stop stop-color="#6F67F0"/>
<stop offset="1" stop-color="#59068C"/>
</linearGradient>
<linearGradient id="paint67_linear_70_4031" x1="607.474" y1="900.308" x2="615.988" y2="832.518" gradientUnits="userSpaceOnUse">
<stop stop-color="#067EFF"/>
<stop offset="1" stop-color="#3E37A0"/>
</linearGradient>
<linearGradient id="paint68_linear_70_4031" x1="383.107" y1="279.192" x2="383.107" y2="252.141" gradientUnits="userSpaceOnUse">
<stop stop-color="#D906E3"/>
<stop offset="1" stop-color="#FF6DF9"/>
</linearGradient>
<linearGradient id="paint69_linear_70_4031" x1="1047.92" y1="779.326" x2="1058.02" y2="711.133" gradientUnits="userSpaceOnUse">
<stop stop-color="#1852A0"/>
<stop offset="1" stop-color="#067ED3"/>
</linearGradient>
<linearGradient id="paint70_linear_70_4031" x1="1040.39" y1="777.566" x2="1058.63" y2="709.816" gradientUnits="userSpaceOnUse">
<stop stop-color="#1852A0"/>
<stop offset="1" stop-color="#067ED3"/>
</linearGradient>
<linearGradient id="paint71_linear_70_4031" x1="1031.82" y1="774.771" x2="1042.59" y2="706.128" gradientUnits="userSpaceOnUse">
<stop stop-color="#188DC1"/>
<stop offset="1" stop-color="#06BFE7"/>
</linearGradient>
<linearGradient id="paint72_linear_70_4031" x1="938.684" y1="655.049" x2="961.982" y2="599.3" gradientUnits="userSpaceOnUse">
<stop stop-color="#DBCCFF"/>
<stop offset="1" stop-color="#D1BBFF"/>
</linearGradient>
<linearGradient id="paint73_linear_70_4031" x1="937.324" y1="656.973" x2="960.622" y2="601.224" gradientUnits="userSpaceOnUse">
<stop stop-color="#B5A6E7"/>
<stop offset="1" stop-color="#7760BF"/>
</linearGradient>
<linearGradient id="paint74_linear_70_4031" x1="941.663" y1="642.83" x2="951.347" y2="619.659" gradientUnits="userSpaceOnUse">
<stop stop-color="#B5A6E7"/>
<stop offset="1" stop-color="#7760BF"/>
</linearGradient>
<linearGradient id="paint75_linear_70_4031" x1="950.158" y1="619.043" x2="956.052" y2="623.216" gradientUnits="userSpaceOnUse">
<stop stop-color="#8B8BE0"/>
<stop offset="1" stop-color="#A177B7"/>
</linearGradient>
<linearGradient id="paint76_linear_70_4031" x1="952.137" y1="622.499" x2="954.663" y2="618.931" gradientUnits="userSpaceOnUse">
<stop stop-color="white"/>
<stop offset="1" stop-color="#A177B7"/>
</linearGradient>
<linearGradient id="paint77_linear_70_4031" x1="940.314" y1="645.81" x2="956.522" y2="622.914" gradientUnits="userSpaceOnUse">
<stop/>
<stop offset="1" stop-color="white"/>
</linearGradient>
<clipPath id="clip0_70_4031">
<rect width="1920" height="1327" fill="white" transform="matrix(1 0 0 -1 0 1327)"/>
</clipPath>
</defs>
</svg>
