<svg width="171" height="299" viewBox="0 0 171 299" fill="none" xmlns="http://www.w3.org/2000/svg">
<g clip-path="url(#clip0_115_13021)">
<path d="M484.904 114.593C461.533 189.13 359.379 220.59 266.667 249.394C173.972 278.195 91.5059 334.147 42.7629 263.47C-5.98 192.794 28.2326 66.7939 174.645 18.2083C321.058 -30.3773 316.971 46.6479 371.395 90.2567C425.819 133.865 495.237 81.5841 484.904 114.593Z" fill="white"/>
<g clip-path="url(#clip1_115_13021)">
<path d="M90.6128 300.36L91.0347 300.094C90.8765 299.895 75.0032 280.273 41.4108 286.862C23.0326 290.461 10.6661 275.866 7.79205 261.327C4.94435 246.954 11.7999 232.072 25.2474 223.589C51.536 206.991 53.3685 182.774 53.3817 182.53L52.8675 182.508C52.8544 182.751 51.035 206.769 24.9442 223.235C11.3385 231.817 4.417 246.865 7.29107 261.416C10.2047 276.132 22.9535 290.959 41.5295 287.316C74.7791 280.794 90.4546 300.172 90.6128 300.36Z" fill="url(#paint0_linear_115_13021)"/>
<path d="M53.1328 148.747C53.1328 148.747 55.7432 148.082 56.7847 149.843C57.8263 151.603 61.109 172.698 60.1862 178.622C59.2633 184.557 56.6529 182.365 56.6529 182.365C56.6529 182.365 56.9166 185.875 58.6041 186.872L58.6173 186.861C58.6437 186.849 58.6832 186.827 58.7359 186.794C58.7755 186.772 58.8282 186.739 58.8941 186.706H58.9073C59.9093 186.152 63.3898 184.214 66.6067 182.365C70.4036 180.161 72.6185 178.29 72.6185 178.29C72.6185 178.29 72.0911 174.78 72.0911 173.794C72.0911 172.798 80.4629 149.4 88.7028 142.147C96.3889 135.392 88.8346 97.3114 87.7799 92.1735L87.6612 91.5977C87.6612 91.5977 80.9902 93.2476 78.1162 95.0193C75.2421 96.791 64.906 118.196 64.3786 129.18C63.8513 140.165 59.1446 146.399 59.1446 146.399C59.1446 146.399 57.5758 145.602 54.9522 146.399L53.1328 148.747Z" fill="url(#paint1_linear_115_13021)"/>
<path opacity="0.83" d="M58.9219 186.706C59.9238 186.152 63.4044 184.214 66.6212 182.365C70.4182 180.161 72.6331 178.29 72.6331 178.29C72.6331 178.29 72.1057 174.78 72.1057 173.794C72.1057 172.798 80.4774 149.4 88.7173 142.147C96.4035 135.392 88.8492 97.3114 87.7945 92.1735L87.6758 91.5977C87.6758 91.5977 82.2441 97.3114 79.8973 108.684C77.5374 120.056 80.8729 142.479 80.8729 142.479C80.8729 142.479 76.1663 160.606 64.5909 160.938C64.5909 160.938 74.3074 172.886 70.4709 178.877C69.7326 180.017 60.6885 185.654 58.9219 186.706Z" fill="url(#paint2_linear_115_13021)"/>
<path d="M62.1235 172.641C62.1235 172.641 62.9146 180.06 57.6147 183.515C57.6147 183.515 46.7248 178.732 41.359 170.936C35.9932 163.129 62.1235 172.641 62.1235 172.641Z" fill="url(#paint3_linear_115_13021)"/>
<path d="M20.1602 149.281C20.1602 149.281 17.128 151.352 17.1016 153.124C17.0884 154.895 22.1246 154.076 22.1246 154.076L20.1602 149.281Z" fill="url(#paint4_linear_115_13021)"/>
<path d="M169.554 141.161L171.702 131.273C171.702 131.273 177.2 131.273 185.242 137.541C185.242 137.541 185.44 140.929 188.195 145.17C188.195 145.17 197.451 148.924 201.748 154.029C206.046 159.133 207.668 159.643 212.15 156.753C213.337 155.988 214.154 153.386 214.576 149.843C215.209 144.494 214.972 136.998 213.878 130.398C212.968 124.95 211.465 120.122 209.382 117.609C209.382 117.609 209.58 114.254 207.615 111.618C207.523 111.673 207.417 111.718 207.325 111.784C206.679 112.127 205.031 112.869 203.304 112.615C201.076 112.283 199.217 109.426 199.217 109.426C199.217 109.426 197.938 109.536 197.292 110.311C197.292 110.311 188.393 105.783 182.764 98.1531C177.134 90.5347 176.225 89.5935 176.225 89.5935C176.225 89.5935 174.788 89.0952 172.836 88.7962C171.307 88.5526 169.448 88.4419 167.721 88.7741C167.721 88.7519 140.378 124.242 169.554 141.161Z" fill="url(#paint5_linear_115_13021)"/>
<path d="M111.336 91.6075C111.336 91.6075 114.737 87.3333 114.737 77.3895L141.263 66.5156C141.263 66.5156 139.931 74.1894 144.427 80.8444C145.614 82.605 151.151 85.3844 151.151 85.3844C151.151 85.3844 126.906 110.498 115.265 108.084C103.623 105.671 105.957 95.0292 105.957 95.0292C105.957 95.0292 107.934 95.6714 111.336 91.6075Z" fill="url(#paint6_linear_115_13021)"/>
<path d="M147.912 83.5625C147.912 83.5625 134.768 94.5582 123.456 95.1783C111.34 95.8427 113.331 87.3828 113.331 87.3828C113.331 87.3828 107.846 93.8385 109.415 98.9211C110.984 104.004 122.955 104.247 132.17 100.87C141.399 97.4926 150.219 84.3709 150.219 84.3709L147.912 83.5625Z" fill="url(#paint7_linear_115_13021)"/>
<path opacity="0.83" d="M169.554 141.161L171.702 131.272C171.702 131.272 177.2 131.272 185.242 137.54C185.242 137.54 185.44 140.928 188.195 145.169C188.195 145.169 197.451 148.923 201.748 154.028C206.046 159.133 207.668 159.642 212.15 156.752C213.337 155.988 214.154 153.386 214.576 149.842L213.878 148.425V130.398C212.968 124.95 211.465 120.122 209.382 117.608C209.382 117.608 209.58 114.253 207.615 111.617C207.523 111.673 207.417 111.717 207.325 111.784C199.718 115.947 197.029 128.205 196.501 137.329C196.435 135.015 194.682 126.057 193.364 126.234C191.663 126.456 188.789 142.933 188.789 142.933C185.387 128.803 196.343 111.75 197.226 110.388C187.207 122.004 185.519 135.347 185.519 135.347L169.949 125.791C169.949 125.791 160.575 117.874 163.819 104.254C167.062 90.6337 172.836 88.7845 172.836 88.7845C171.307 88.5409 169.448 88.4302 167.721 88.7624C167.721 88.7513 140.378 124.241 169.554 141.161Z" fill="url(#paint8_linear_115_13021)"/>
<path d="M104.543 75.0614C104.569 75.0836 104.622 75.1168 104.648 75.1611C105.018 75.5376 105.413 75.8255 105.835 76.0027C111.728 78.5384 127.417 77.874 135.92 71.6066C139.15 69.2259 141.576 66.369 143.501 63.4567C143.514 63.4346 143.527 63.4235 143.527 63.4235C146.612 58.6952 148.366 53.7898 150.067 50.4014C152.809 44.9091 155.063 35.7183 154.51 30.4032C153.995 25.4645 152.809 21.2899 144.833 15.5761C136.856 9.86236 117.239 9.53017 112.269 15.244C107.298 20.9577 107.43 33.8137 106.257 36.6706C105.07 39.5275 100.891 42.9381 99.7176 46.7805C98.6102 50.335 99.7572 70.0453 104.543 75.0614Z" fill="url(#paint9_linear_115_13021)"/>
<path d="M104.492 39.4371C104.492 39.4371 104.743 42.8698 107.933 43.1023C110.425 43.2906 111.954 40.1901 111.954 40.1901C111.954 40.1901 112.402 31.7966 111.137 27.6663L109.95 24.3664C109.95 24.3664 113.365 21.3656 118.467 21.7421C123.569 22.1186 125.402 26.6918 125.402 26.6918C125.402 26.6918 120.866 37.5768 121.526 42.8255C121.526 42.8255 124.94 45.5716 130.702 45.2394C137.359 44.863 140.708 41.5299 140.708 41.5299C140.708 41.5299 144.347 45.0955 145.032 48.1296C145.863 51.7505 144.439 63.2113 144.439 63.2113C144.439 63.2113 149.014 50.7982 150.266 47.1662C151.506 43.5452 153.8 27.4448 152.429 24.6986C151.057 21.9525 147.089 13.0053 130.108 11.2447C113.114 9.48403 109.963 14.2677 109.963 14.2677L108.21 21.3545L108.223 25.0087C108.223 25.0087 107.037 34.432 106.615 36.0044C106.18 37.5879 104.492 39.4371 104.492 39.4371Z" fill="url(#paint10_linear_115_13021)"/>
<path d="M108.136 25.3583C108.136 25.3583 108.597 20.5193 111.867 15.7356C111.867 15.7356 115.506 18.9579 121.386 20.6743C121.386 20.6743 118.657 18.5482 117.378 16.8983C117.602 17.0423 121.267 19.423 126.382 21.2612C126.382 21.2612 124.906 19.3677 124.906 18.5372C124.906 17.7067 128.637 14.0968 132.948 14.1743C137.272 14.2629 145.512 16.6436 149.625 23.2433C153.739 29.8318 149.599 30.4409 147.344 32.1683C147.344 32.1683 148.478 40.3403 148.228 47.1836C148.149 49.2321 147.938 51.1478 147.555 52.698C147.49 52.9527 147.424 53.1852 147.344 53.4067L153.238 48.8888C153.238 48.8888 153.29 45.8659 155.558 41.5362C155.809 41.0379 156.099 40.5286 156.415 39.997L156.441 39.9528C156.56 39.7424 156.705 39.532 156.837 39.3216C158.248 37.1069 162.585 32.9766 161.952 28.7688C161.359 24.8157 152.789 21.4162 150.693 18.7697C150.693 18.7697 157.272 20.5303 160.383 23.1658C160.383 23.1658 159.882 20.6854 157.443 19.2901C155.004 17.8949 152.961 18.7586 149.414 17.5627C145.868 16.3668 141.069 6.35661 135.387 2.56957C129.691 -1.21747 116.639 -0.47556 112.434 2.56957C111.353 3.35577 110.535 4.297 109.942 5.27144H109.929C109.929 5.28252 109.929 5.28252 109.929 5.28252V5.29359C109.916 5.31574 109.902 5.31573 109.902 5.33788C108.162 8.1394 108.109 11.1402 108.109 11.1402C108.109 11.1402 105.684 19.567 108.136 25.3583Z" fill="url(#paint11_linear_115_13021)"/>
<path d="M91.8495 150.176C91.8495 150.176 95.7651 167.372 90.6629 185.998C90.6629 185.998 87.5252 187.802 87.1297 190.117C87.1297 190.117 87.1297 190.139 87.1165 190.161C86.7474 192.453 87.3274 194.568 87.3274 194.568C87.3274 194.568 85.9563 195.72 84.7698 197.37C84.5457 197.68 84.427 198.045 84.3874 198.444C84.2029 200.149 85.363 202.308 85.363 202.308C85.363 202.308 87.723 207.424 112.245 209.229C136.767 211.045 155.804 214.998 155.804 214.998C155.804 214.998 157.281 210.879 154.578 207.756C154.578 207.756 158.757 204.623 158.56 203.471C158.362 202.319 149.331 189.131 151.678 179.907C154.038 170.683 162.858 163.187 167.775 145.171C167.775 145.171 171.045 144.252 171.242 142.923C171.44 141.605 169.805 139.457 169.805 139.457L169.212 140.398C169.212 140.398 158.032 135.016 161.038 112.272C164.044 89.5277 167.221 88.1435 172.825 88.7747C172.825 88.7747 168.355 85.3088 167.314 85.3863C166.272 85.4638 165.877 87.0805 165.877 87.0805C165.877 87.0805 162.37 88.2875 158.256 87.0805C154.13 85.8735 151.374 83.5703 151.374 83.5703C151.374 83.5703 126.523 101.243 115.62 100.158C103.174 98.9178 111.955 87.4792 111.955 87.4792C111.955 87.4792 104.137 88.7636 99.9575 89.5831C95.7651 90.4136 94.1962 89.5831 94.1962 89.5831C94.1962 89.5831 91.7045 86.4826 88.4349 88.5533C85.1653 90.624 81.1178 102.052 82.423 120.511C83.7282 138.959 91.8495 150.176 91.8495 150.176Z" fill="url(#paint12_linear_115_13021)"/>
<path d="M134.294 39.0703C134.294 39.0703 134.953 40.7645 134.61 42.2815C134.267 43.8096 127.741 45.2935 124.63 42.9792C121.545 40.6759 134.294 39.0703 134.294 39.0703Z" fill="#E87A8D"/>
<path d="M3.14844 116.444C11.2565 134.681 33.4976 173.471 33.4976 173.471C62.792 178.199 90.2671 174.235 90.2671 174.235L91.836 172.109C81.6317 146.186 59.6543 112.391 59.6543 112.391C32.7066 111.184 4.18995 114.805 4.18995 114.805L3.14844 116.444Z" fill="url(#paint13_linear_115_13021)"/>
<path opacity="0.62" d="M29.1219 143.886C29.1219 143.886 30.3611 156.133 26.9597 161.891L13.5781 137.375L19.9459 138.637L19.1153 141.118C19.1153 141.107 24.4152 140.896 29.1219 143.886Z" fill="url(#paint14_linear_115_13021)"/>
<path d="M14.5374 137.375C14.5374 137.375 12.4016 138.792 11.9929 139.955C11.5315 141.217 10.9514 144.395 15.3285 145.392L17.2928 145.835C17.2928 145.835 15.8558 146.389 15.5921 147.208C15.3284 148.027 16.9632 149.843 19.5868 150.286C22.1972 150.729 26.5874 149.843 27.8926 148.858C29.1978 147.872 28.3541 146.499 26.3897 146.112C26.3897 146.112 29.2638 145.569 29.1319 143.886C29.0001 142.203 22.395 140.398 15.3944 140.941L14.5374 137.375Z" fill="url(#paint15_linear_115_13021)"/>
<path d="M111.332 40.6962C111.332 40.6962 110.277 42.1136 107.93 41.6928C105.584 41.2831 105.808 37.8614 106.23 36.6655C106.665 35.4807 111.292 39.5889 111.332 40.6962Z" fill="#E87A8D"/>
<path d="M9.23639 129.016C9.23639 129.016 5.70312 131.773 5.70312 133.666C5.70312 135.56 10.8976 137.952 19.8362 138.882C19.8362 138.882 20.6668 137.431 19.8362 135.859C19.0056 134.298 14.5363 132.094 10.858 131.607L9.23639 129.016Z" fill="url(#paint16_linear_115_13021)"/>
<path d="M19.5193 151.379C19.5193 151.379 25.5838 150.88 25.0565 155.542C25.0565 155.542 21.6682 155.941 19.1765 155.343C16.6847 154.734 17.0143 153.15 17.2121 152.597C17.423 152.032 17.634 151.6 19.5193 151.379Z" fill="url(#paint17_linear_115_13021)"/>
<path d="M140.992 35.6856C140.992 35.6856 140.504 33.0281 137.406 30.3483C135.178 28.4105 130.88 26.4617 127.874 25.4761C127.874 25.4761 127.413 26.2956 127.413 27.8347C127.413 27.8347 126.925 26.3842 126.503 25C126.503 25 125.831 26.3731 126.029 29.0528C126.029 29.0528 128.665 29.8279 132.99 30.8245C138.395 32.0536 140.992 35.6856 140.992 35.6856Z" fill="url(#paint18_linear_115_13021)"/>
<path d="M111.962 39.064C111.962 39.064 111.962 32.11 109.563 31.7335C107.545 31.4124 106.609 35.3323 106.609 35.3323L111.962 39.064Z" fill="#77485E"/>
<path d="M134.611 41.039C134.611 41.039 134.69 36.1557 129.931 34.4283C125.171 32.7009 123.523 38.3039 123.523 38.3039L134.611 41.039Z" fill="#77485E"/>
<path d="M123.037 41.0366C123.169 42.0554 124.804 43.8714 128.337 43.8714C131.475 43.8714 134.626 42.5537 134.613 41.0366C134.613 40.5051 134.441 39.9293 134.151 39.3535C133.518 38.0801 132.24 36.8067 130.697 36.0426C129.656 35.5333 128.495 35.2564 127.296 35.3561C123.499 35.6883 122.919 40.029 123.037 41.0366Z" fill="url(#paint19_linear_115_13021)"/>
<path d="M106.181 37.5818C106.129 39.8408 107.302 41.5682 109.346 41.5349C110.202 41.5128 110.73 41.3135 111.112 40.9702C111.429 40.6712 111.613 40.2615 111.758 39.7743C111.824 39.5528 111.903 39.3203 111.969 39.0656C111.969 39.0656 111.745 36.9396 111.073 35.19C110.914 34.8024 110.756 34.4481 110.572 34.1491C110.242 33.6065 109.833 33.1968 109.346 33.0529C107.75 32.5656 106.221 35.3118 106.181 37.5818Z" fill="url(#paint20_linear_115_13021)"/>
<path d="M126.016 39.4321C126.016 41.3256 127.835 42.8537 130.103 42.8537C132.357 42.8537 134.19 41.3256 134.19 39.4321C134.19 39.4099 134.19 39.3656 134.176 39.3435C133.544 38.07 132.265 36.7966 130.722 36.0326C130.524 36.0104 130.314 35.9883 130.103 35.9883C127.835 35.9994 126.016 37.5385 126.016 39.4321Z" fill="url(#paint21_radial_115_13021)"/>
<path d="M127.266 39.4315C127.266 40.7492 128.531 41.8123 130.1 41.8123C131.669 41.8123 132.935 40.7492 132.935 39.4315C132.935 38.1138 131.669 37.0508 130.1 37.0508C128.531 37.0619 127.266 38.1249 127.266 39.4315Z" fill="url(#paint22_linear_115_13021)"/>
<path d="M107.93 37.5694C107.93 39.4629 109.169 40.991 110.711 40.991C110.843 40.991 110.975 40.98 111.107 40.9578C111.423 40.6588 111.608 40.2491 111.753 39.7619C111.819 39.5404 111.898 39.3079 111.964 39.0532C111.964 39.0532 111.74 36.9272 111.067 35.1776C110.909 34.79 110.751 34.4357 110.566 34.1367C109.09 34.2364 107.93 35.7423 107.93 37.5694Z" fill="url(#paint23_radial_115_13021)"/>
<path d="M109.078 37.5748C109.078 38.8925 109.935 39.9444 111.003 39.9444C111.267 39.9444 111.517 39.878 111.754 39.7562C111.82 39.5347 111.899 39.3022 111.965 39.0475C111.965 39.0475 111.741 36.9214 111.069 35.1719H111.003C109.948 35.194 109.078 36.2681 109.078 37.5748Z" fill="url(#paint24_linear_115_13021)"/>
<path d="M110.976 25.418C110.976 25.418 113.165 35.1956 111.965 40.1896C111.965 40.1896 112.677 32.6709 109.961 27.3226L110.976 25.418Z" fill="#E87A8D"/>
<path d="M111.399 29.0902C111.399 29.0902 111.136 25.7904 110.556 22.9889L110.16 24.1405L109.013 21.7266C109.013 21.7266 106.06 23.2325 107.866 26.4659C107.879 26.477 109.765 26.2887 111.399 29.0902Z" fill="url(#paint25_linear_115_13021)"/>
<path d="M122.82 53.0156C122.82 53.0156 122.57 55.2524 117.665 56.5148C112.761 57.7771 108.568 57.002 107.039 55.5735C107.039 55.5735 108.621 57.1681 111.495 57.611C114.369 58.0539 118.733 57.4781 120.777 56.1604C123.031 54.7098 123.492 53.4143 123.492 53.4143L122.82 53.0156Z" fill="#E87A8D"/>
<path d="M124.939 53.9564C124.939 53.9564 122.552 52.9266 120.43 52.6276C120.43 52.6276 122.684 52.2732 123.739 52.4947C124.78 52.7162 124.939 53.9564 124.939 53.9564Z" fill="#E37E7F"/>
<path d="M119.903 47.8845C119.903 47.8845 116.502 47.8845 113.364 48.0506C110.226 48.2167 107.339 47.8845 106.166 47.1758C106.166 47.1758 105.968 50.2541 109.897 52.1255C109.897 52.1255 111.466 52.6238 113.1 52.1255C113.1 52.1255 114.603 50.7524 117.412 50.3095C117.425 50.2984 120.035 49.6451 119.903 47.8845Z" fill="url(#paint26_linear_115_13021)"/>
<path d="M113.694 42.8693C117.755 43.3455 119.904 47.8855 119.904 47.8855L112.257 48.9818C108.79 48.8157 106.18 47.1657 106.18 47.1657C106.18 47.1657 109.634 42.3932 113.694 42.8693Z" fill="url(#paint27_linear_115_13021)"/>
<path d="M117.66 50.2187C117.66 50.2187 117.277 49.9198 116.025 49.9862C114.772 50.0526 113.586 51.7468 113.586 51.7468C113.586 51.7468 114.878 50.7502 117.66 50.2187Z" fill="#9F4A8B"/>
<path d="M52.1851 175.447C52.1851 175.447 53.8463 182.113 53.1343 182.523C52.4092 182.932 48.5859 175.203 48.5859 175.203L52.1851 175.447Z" fill="url(#paint28_linear_115_13021)"/>
<path d="M147.979 51.8097C147.979 51.8097 154.465 46.3838 158.328 49.4511C162.93 53.0942 159.673 61.1112 154.584 64.5771C150.168 67.5891 145.408 66.7918 144.419 63.2041C144.446 63.2041 143.088 55.1095 147.979 51.8097Z" fill="url(#paint29_linear_115_13021)"/>
<path d="M148.137 56.9173C148.137 56.9173 151.947 53.1635 155.098 54.1269C158.249 55.0902 157.339 59.3091 157.339 59.3091C157.339 59.3091 157.3 56.2308 155.256 55.7657C153.213 55.3006 151.96 57.5263 151.96 57.5263C151.96 57.5263 153.055 57.6039 153.015 60.2061C152.976 62.8083 149.363 65.2222 147.926 63.3841C146.502 61.5348 148.137 56.9173 148.137 56.9173Z" fill="#E87A8D"/>
<path d="M125.406 39.6461C125.406 39.9672 125.709 40.2219 126.092 40.2219C126.474 40.2219 126.777 39.9672 126.777 39.6461C126.777 39.325 126.474 39.0703 126.092 39.0703C125.709 39.0703 125.406 39.325 125.406 39.6461Z" fill="white"/>
<path d="M107.039 37.6377C107.039 37.9588 107.355 38.2245 107.738 38.2245C108.12 38.2245 108.437 37.9588 108.437 37.6377C108.437 37.3165 108.12 37.0508 107.738 37.0508C107.355 37.0619 107.039 37.3165 107.039 37.6377Z" fill="white"/>
<path d="M141.27 72.2294C141.27 72.2294 131.079 88.8614 113.32 87.3776C113.32 87.3776 114.902 81.542 114.731 77.3895C114.731 77.3895 122.997 77.2013 129.128 75.0752C136.036 72.6723 141.257 66.5156 141.257 66.5156L141.27 72.2294Z" fill="url(#paint30_linear_115_13021)"/>
<path opacity="0.62" d="M85.3575 202.298C85.3575 202.298 87.7174 207.414 112.239 209.219C136.761 211.035 155.799 214.988 155.799 214.988C155.799 214.988 157.275 210.869 154.573 207.746C154.573 207.746 158.752 204.613 158.554 203.461C158.356 202.309 149.325 189.121 151.672 179.897C154.032 170.673 162.852 163.177 167.77 145.161C167.77 145.161 171.039 144.242 171.237 142.913C171.435 141.595 169.8 139.447 169.8 139.447L169.207 140.388C169.207 140.388 158.027 135.006 161.033 112.262C164.039 89.5177 167.216 88.1335 172.819 88.7647C172.819 88.7647 168.35 85.2988 167.308 85.3763C167.308 85.3763 160.664 89.573 156.076 112.129C152.239 131.02 145.845 142.813 145.845 142.813C145.845 142.813 133.268 146.766 118.515 146.356C103.789 145.947 105.291 144.385 92.3581 145.172C92.3581 145.172 120.295 147.674 130.881 149.291C141.468 150.908 151.145 154.274 151.145 154.274C151.145 154.274 142.167 171.836 143.643 183.529C144.698 191.901 148.35 198.899 148.35 198.899C148.35 198.899 146.504 199.508 128.495 198.855C110.486 198.19 87.1373 190.118 87.1373 190.118C87.1373 190.118 87.1374 190.14 87.1242 190.162C87.0451 190.505 86.61 192.82 87.3351 194.569C87.3351 194.569 105.318 197.869 121.929 200.505C138.541 203.14 148.35 207.425 148.35 207.425C148.35 207.425 144.962 209.02 119.082 206.65C93.2019 204.292 85.7135 202.841 84.4083 198.423L84.3951 198.445C84.2105 200.15 85.3575 202.298 85.3575 202.298Z" fill="url(#paint31_linear_115_13021)"/>
<path opacity="0.62" d="M154.591 150.187C154.591 150.187 151.52 146.743 144.427 145.779C137.334 144.816 126.101 147.108 119.18 147.097C119.18 147.097 138.52 150.176 145.851 151.05C153.194 151.925 154.591 150.187 154.591 150.187Z" fill="url(#paint32_linear_115_13021)"/>
<path opacity="0.62" d="M94.2083 89.5724C94.2083 89.5724 87.1418 99.9591 85.8366 122.15C85.8366 122.15 84.6632 104.599 91.8616 88C91.8484 88 92.9822 88.2547 94.2083 89.5724Z" fill="url(#paint33_linear_115_13021)"/>
<path opacity="0.62" d="M95.1875 98.918C95.1875 98.918 97.3365 111.951 114.119 130.621C114.119 130.621 103.137 123.146 99.2877 115.893C95.1875 108.197 95.1875 98.918 95.1875 98.918Z" fill="url(#paint34_linear_115_13021)"/>
<path opacity="0.62" d="M136.877 182.543C136.877 182.543 131.999 189.176 121.399 190.826C110.8 192.476 96.6797 189.397 96.6797 189.397C96.6797 189.397 110.285 191.379 120.49 188.522C130.694 185.655 136.877 182.543 136.877 182.543Z" fill="url(#paint35_linear_115_13021)"/>
<path opacity="0.5" d="M171.698 131.275C171.698 131.275 163.762 128.517 160.703 123.523C160.703 123.523 161.178 135.892 169.22 140.399C169.22 140.399 171.224 135.383 171.698 131.275Z" fill="url(#paint36_linear_115_13021)"/>
<path d="M3.14844 116.444C42.7922 112.158 58.9028 114.14 58.9028 114.14C73.0886 134.537 90.2671 174.235 90.2671 174.235L91.836 172.109C81.6317 146.186 59.6543 112.391 59.6543 112.391C32.7066 111.184 4.18995 114.805 4.18995 114.805L3.14844 116.444Z" fill="url(#paint37_linear_115_13021)"/>
<path d="M17.2896 145.836C17.2896 145.836 22.4576 146.334 26.3864 146.113C26.3864 146.113 20.9942 146.943 16.6172 146.168L17.2896 145.836Z" fill="url(#paint38_linear_115_13021)"/>
<path opacity="0.83" d="M151.243 91.3086C151.217 91.375 151.19 91.4415 151.164 91.5079C151.204 91.4193 151.23 91.3418 151.243 91.3086Z" fill="url(#paint39_linear_115_13021)"/>
<path d="M148.358 198.889C148.358 198.889 138.787 199.154 119.077 196.209C98.1149 193.075 90.6661 185.988 90.6661 185.988C90.6661 185.988 87.6602 187.638 87.1328 190.108C87.1328 190.108 104.905 196.408 119.077 197.958C133.25 199.509 145.484 199.619 148.358 198.889Z" fill="url(#paint40_linear_115_13021)"/>
<path opacity="0.5" d="M74.2024 140.442L31.5 169.963L33.5039 173.473C33.5039 173.473 60.4517 178.135 90.2735 174.237L91.8424 172.111C91.8424 172.111 82.2182 150.474 75.7449 139.246L74.2024 140.442Z" fill="url(#paint41_linear_115_13021)"/>
<path d="M111.963 87.4675L113.334 87.3789C113.334 87.3789 110.499 91.1881 109.919 94.3108C109.326 97.4445 111.805 99.4598 115.641 100.146C115.641 100.146 109.471 99.8474 108.68 96.2707C107.889 92.7051 111.963 87.4675 111.963 87.4675Z" fill="url(#paint42_linear_115_13021)"/>
<path d="M155.927 22.6129C155.927 22.6129 162.506 25.7909 162.704 29.9987C162.902 34.2065 158.67 36.9084 158.67 36.9084L158.09 34.6384C158.09 34.6384 154.846 35.0813 151.814 34.1512C148.769 33.221 147.371 32.1691 147.371 32.1691C147.371 32.1691 151.234 30.2645 151.326 27.0865C151.419 23.9084 144.734 18.1836 144.734 18.1836L150.733 18.7705C150.72 18.7594 154.543 21.3284 155.927 22.6129Z" fill="url(#paint43_linear_115_13021)"/>
<path opacity="0.84" d="M124.917 18.5485C124.917 18.5485 118.892 13.0562 117.679 9.21378C116.467 5.37137 121.305 3.5 121.305 3.5C121.305 3.5 119.591 5.09455 119.934 8.77085C120.25 12.4472 124.917 18.5485 124.917 18.5485Z" fill="url(#paint44_linear_115_13021)"/>
<path opacity="0.84" d="M143.638 17.4795C143.638 17.4795 137.507 8.44379 131.759 8.33306C126.011 8.22232 124.324 17.1252 124.917 18.5536C124.917 18.5536 125.088 15.0323 132.234 14.8552C139.366 14.678 143.638 17.4795 143.638 17.4795Z" fill="url(#paint45_linear_115_13021)"/>
<path opacity="0.84" d="M111.863 15.7503C111.863 15.7503 108.713 12.3619 108.132 11.1328C108.132 11.1328 107.341 14.1115 107.196 16.2486C107.196 16.2486 106.735 17.2452 110.664 17.7324L111.863 15.7503Z" fill="url(#paint46_linear_115_13021)"/>
<path opacity="0.62" d="M153.245 48.8774L142.737 41.5248C142.737 41.5248 142.342 48.5009 135.078 49.7411C127.813 50.9813 122.408 48.9882 120.417 45.1347C118.44 41.2812 118.07 35.9328 118.07 35.9328C118.07 35.9328 117.583 35.3127 115.262 35.3349C112.942 35.357 111.953 36.1211 111.953 36.1211V32.7991C111.953 32.7991 116.765 32.179 118.848 33.5964C118.848 33.5964 118.136 44.2931 122.672 46.9396C127.207 49.5861 131.07 49.9294 135.921 47.8587C139.679 46.2531 141.261 41.1594 140.087 38.2139L143.607 38.8119L153.68 48.7445L153.245 48.8774Z" fill="url(#paint47_linear_115_13021)"/>
<path d="M119.569 44.8011C121.56 47.3479 124.935 49.3079 132.12 48.1119C138.264 47.0932 143.234 39.9621 139.358 36.3633C135.482 32.7645 121.665 30.6606 119.674 32.8863C117.895 34.8905 117.46 42.1103 119.569 44.8011ZM120.426 33.4621C122.377 31.7347 138.356 33.6946 139.529 38.2236C140.703 42.7525 135.442 46.7832 132.357 47.4697C127.347 48.5881 121.402 47.3257 119.78 43.5719C118.158 39.807 118.857 34.8573 120.426 33.4621Z" fill="url(#paint48_linear_115_13021)"/>
<path d="M119.199 44.7698C121.189 47.3166 124.564 49.2766 131.75 48.0807C137.893 47.062 142.864 39.9308 138.987 36.332C135.111 32.7332 121.295 30.6293 119.304 32.855C117.511 34.8593 117.089 42.079 119.199 44.7698ZM120.055 33.4198C122.007 31.6923 137.986 33.6523 139.159 38.1812C140.332 42.7102 135.072 46.7408 131.987 47.4274C126.977 48.5458 121.031 47.2834 119.41 43.5296C117.788 39.7758 118.473 34.815 120.055 33.4198Z" fill="url(#paint49_linear_115_13021)"/>
<path d="M103.986 44.7236C104.79 45.1997 107.466 45.698 109.338 43.5941C112.318 40.2721 112.911 32.3659 111.817 31.7125C110.143 30.7049 103.419 30.0848 102.246 31.7125C101.072 33.3403 101.758 43.4059 103.986 44.7236ZM102.984 32.1444C104.553 30.6938 110.037 31.1146 111.131 32.4987C112.437 34.1597 110.657 41.8335 108.64 43.3948C106.398 45.1333 104.118 44.635 103.195 42.4978C102.127 40.0064 101.415 33.595 102.984 32.1444Z" fill="url(#paint50_linear_115_13021)"/>
<path d="M103.563 44.7236C104.367 45.1997 107.044 45.698 108.916 43.5941C111.895 40.2721 112.489 32.3659 111.394 31.7125C109.72 30.7049 102.996 30.0848 101.823 31.7125C100.663 33.3403 101.348 43.4059 103.563 44.7236ZM102.561 32.1444C104.13 30.6938 109.614 31.1146 110.709 32.4987C112.014 34.1597 110.234 41.8335 108.217 43.3948C105.976 45.1333 103.695 44.635 102.772 42.4978C101.717 40.0064 100.992 33.595 102.561 32.1444Z" fill="url(#paint51_linear_115_13021)"/>
<path d="M118.648 33.9734C118.648 33.9734 115.629 32.0799 111.898 33.4308C111.898 33.4308 111.977 32.7554 111.727 32.2792C111.727 32.2792 114.377 31.6148 119.518 32.6557C119.531 32.6668 118.819 33.5748 118.648 33.9734Z" fill="url(#paint52_linear_115_13021)"/>
<path d="M140.109 37.2617L143.629 38.214L155.126 48.5232C155.126 48.5232 154.73 48.4235 153.702 48.7557L143.405 39.6092C143.405 39.6092 141.705 38.8563 140.505 39.0667C140.518 39.0667 140.571 37.8707 140.109 37.2617Z" fill="url(#paint53_linear_115_13021)"/>
<path d="M144.98 39.4297L144.875 40.9135L147.235 43.0063L147.34 41.5557L144.98 39.4297Z" fill="url(#paint54_linear_115_13021)"/>
<path d="M118.619 32.4902L118.012 33.0217C118.012 33.0217 116.232 32.6895 114.532 32.6784C112.831 32.6673 112.409 32.8334 112.409 32.8334L111.961 32.2355C111.961 32.2466 114.967 31.6929 118.619 32.4902Z" fill="#D7E2FF"/>
<path d="M110.392 31.3048L110.023 31.7146C110.023 31.7146 107.637 30.5297 103.734 31.3048L103.84 30.8398C103.84 30.8398 107.109 30.3415 110.392 31.3048Z" fill="#D7E2FF"/>
<path d="M125.395 32.5444L125.211 32.0793C125.211 32.0793 120.807 31.6917 119.607 32.7215C118.408 33.7513 118.078 35.9438 118.078 35.9438L118.619 36.0103C118.619 36.0103 119.041 33.6849 120.372 33.0094C121.73 32.3007 125.395 32.5444 125.395 32.5444Z" fill="#D7E2FF"/>
<path d="M135.081 46.0054C135.081 46.0054 132.76 48.4304 127.461 48.065C122.161 47.6885 119.906 44.4219 119.906 44.4219C119.906 44.4219 122.411 47.7217 127.592 47.8546C132.76 47.9875 135.081 46.0054 135.081 46.0054Z" fill="#D7D9FF"/>
<path d="M108.232 43.3961C108.232 43.3961 106.795 44.747 105.173 44.5588C103.552 44.3705 102.945 42.8203 102.945 42.8203C102.945 42.8203 103.868 44.4038 105.582 44.3152C107.309 44.2487 108.232 43.3961 108.232 43.3961Z" fill="#D7D9FF"/>
<path d="M129.449 47.8289C129.449 47.8289 129.041 48.0946 127.894 48.1168C126.747 48.1389 125.547 47.6406 125.547 47.6406C125.547 47.6406 127.801 47.9396 129.449 47.8289Z" fill="#D7D9FF"/>
<path d="M107.01 44.1742C107.01 44.1742 105.744 44.5617 104.716 44.1742C103.701 43.7866 103.477 43.4766 103.477 43.4766C103.477 43.4766 103.516 44.451 104.769 44.5839C106.021 44.7057 107.01 44.1742 107.01 44.1742Z" fill="#D7D9FF"/>
<path d="M133.486 47.0954C133.486 47.0954 133.684 43.5298 128.647 41.0383C123.611 38.5469 118.97 40.6619 118.97 40.6619C118.97 40.6619 118.812 43.7624 121.515 45.8995C124.244 48.0366 130.15 48.1584 133.486 47.0954Z" fill="#D7D9FF"/>
<path d="M109.276 42.0343C109.276 42.0343 105.888 38.4023 102.078 37.2617C102.078 37.2617 102.157 42.1672 103.476 43.4738C104.807 44.7804 107.325 45.2012 109.276 42.0343Z" fill="#D7D9FF"/>
<path d="M139.014 39.3194C139.014 39.3194 138.473 42.2095 136.509 43.7598L134.531 43.3611C134.531 43.3611 136.061 38.3671 136.1 35.8867C136.1 35.8867 138.618 37.1491 139.014 39.3194Z" fill="url(#paint55_linear_115_13021)"/>
<path d="M104.648 75.1536C105.018 75.5301 105.413 75.818 105.835 75.9952C111.728 78.5309 127.417 77.8665 135.92 71.5991C139.15 69.2183 141.576 66.3615 143.501 63.4492C143.092 63.8921 138.742 70.1374 128.458 73.5812C117.714 77.18 105.4 76.0616 104.648 75.1536Z" fill="url(#paint56_linear_115_13021)"/>
</g>
<path d="M160.289 270.888C160.289 270.888 168.401 228.265 170.75 196.26C170.75 196.26 111.415 185.731 66.9991 191.722C66.9991 191.722 68.917 234.236 73.8876 270.888H160.289Z" fill="url(#paint57_linear_115_13021)"/>
<path opacity="0.5" d="M112.208 192.063L156.734 269.909H120.509L80.3128 192.063C80.3128 192.063 99.1944 190.173 112.208 192.063Z" fill="white"/>
<path d="M166.758 196.474L165.044 193.213C165.044 193.213 116.838 184.193 70.154 189.883L67.4227 192.008C67.4304 191.998 122.461 188.796 166.758 196.474Z" fill="url(#paint58_linear_115_13021)"/>
<path d="M127.25 236.84C127.25 236.84 120.869 223.159 110.289 221.602C110.289 221.592 111.306 230.631 127.25 236.84Z" fill="white"/>
<path d="M84.2732 188.578V191.516L100.875 191.359V188C100.875 188 88.5499 188.274 84.2732 188.578Z" fill="white"/>
<path d="M159.859 192.349V195.345L147.664 193.847L147.113 190.625C147.113 190.625 156.524 191.81 159.859 192.349Z" fill="white"/>
<path d="M157.906 263.309C157.906 263.309 151.212 268.313 116.83 269.116C82.4486 269.919 73.4439 265.453 73.4439 265.453L74.0176 269.919H156.736L157.906 263.309Z" fill="#EBC2D4"/>
</g>
<defs>
<linearGradient id="paint0_linear_115_13021" x1="48.8439" y1="300.366" x2="48.8439" y2="182.515" gradientUnits="userSpaceOnUse">
<stop stop-color="#1C257B"/>
<stop offset="1" stop-color="#482C83"/>
</linearGradient>
<linearGradient id="paint1_linear_115_13021" x1="72.6277" y1="186.87" x2="72.6277" y2="91.6075" gradientUnits="userSpaceOnUse">
<stop stop-color="#744FD8"/>
<stop offset="1" stop-color="#3996F7"/>
</linearGradient>
<linearGradient id="paint2_linear_115_13021" x1="75.5182" y1="186.704" x2="75.5182" y2="91.6075" gradientUnits="userSpaceOnUse">
<stop stop-color="#9D68C2"/>
<stop offset="1" stop-color="#CCEDFF"/>
</linearGradient>
<linearGradient id="paint3_linear_115_13021" x1="51.3978" y1="183.515" x2="51.3978" y2="167.86" gradientUnits="userSpaceOnUse">
<stop offset="0.016" stop-color="#FFC2A9"/>
<stop offset="1" stop-color="#FF9595"/>
</linearGradient>
<linearGradient id="paint4_linear_115_13021" x1="19.6197" y1="154.265" x2="19.6197" y2="149.281" gradientUnits="userSpaceOnUse">
<stop offset="0.016" stop-color="#FFA58B"/>
<stop offset="1" stop-color="#FF898E"/>
</linearGradient>
<linearGradient id="paint5_linear_115_13021" x1="185.51" y1="158.503" x2="185.51" y2="88.5421" gradientUnits="userSpaceOnUse">
<stop stop-color="#744FD8"/>
<stop offset="1" stop-color="#3996F7"/>
</linearGradient>
<linearGradient id="paint6_linear_115_13021" x1="128.469" y1="108.245" x2="128.469" y2="66.5102" gradientUnits="userSpaceOnUse">
<stop offset="0.016" stop-color="#FFA58B"/>
<stop offset="1" stop-color="#FF898E"/>
</linearGradient>
<linearGradient id="paint7_linear_115_13021" x1="129.688" y1="103.121" x2="129.688" y2="83.5657" gradientUnits="userSpaceOnUse">
<stop stop-color="#D1C8F8"/>
<stop offset="1" stop-color="#EEE5F9"/>
</linearGradient>
<linearGradient id="paint8_linear_115_13021" x1="185.337" y1="158.502" x2="185.337" y2="88.5414" gradientUnits="userSpaceOnUse">
<stop stop-color="#9D68C2"/>
<stop offset="1" stop-color="#CCEDFF"/>
</linearGradient>
<linearGradient id="paint9_linear_115_13021" x1="126.951" y1="77.3804" x2="126.951" y2="11.1182" gradientUnits="userSpaceOnUse">
<stop offset="0.016" stop-color="#FFC2A9"/>
<stop offset="1" stop-color="#FF9595"/>
</linearGradient>
<linearGradient id="paint10_linear_115_13021" x1="128.666" y1="63.2124" x2="128.666" y2="10.857" gradientUnits="userSpaceOnUse">
<stop offset="0.016" stop-color="#FFA58B"/>
<stop offset="1" stop-color="#FF898E"/>
</linearGradient>
<linearGradient id="paint11_linear_115_13021" x1="129.311" y1="51.0042" x2="135.928" y2="1.26227" gradientUnits="userSpaceOnUse">
<stop stop-color="#D49092"/>
<stop offset="0.1274" stop-color="#D18E92"/>
<stop offset="0.2036" stop-color="#C98991"/>
<stop offset="0.2664" stop-color="#BB7F90"/>
<stop offset="0.3218" stop-color="#A7718F"/>
<stop offset="0.3725" stop-color="#8C5F8D"/>
<stop offset="0.4196" stop-color="#6C498A"/>
<stop offset="0.4631" stop-color="#472F88"/>
<stop offset="0.4721" stop-color="#3E2987"/>
<stop offset="0.6068" stop-color="#352278"/>
<stop offset="0.8455" stop-color="#291762"/>
<stop offset="1" stop-color="#24135A"/>
</linearGradient>
<linearGradient id="paint12_linear_115_13021" x1="127.506" y1="214.992" x2="127.506" y2="83.5624" gradientUnits="userSpaceOnUse">
<stop stop-color="#744FD8"/>
<stop offset="1" stop-color="#3996F7"/>
</linearGradient>
<linearGradient id="paint13_linear_115_13021" x1="47.502" y1="175.781" x2="47.502" y2="112.129" gradientUnits="userSpaceOnUse">
<stop stop-color="#1C257B"/>
<stop offset="1" stop-color="#482C83"/>
</linearGradient>
<linearGradient id="paint14_linear_115_13021" x1="21.4652" y1="161.887" x2="21.4652" y2="137.371" gradientUnits="userSpaceOnUse">
<stop stop-color="#8B8BE0"/>
<stop offset="1" stop-color="#A177B7"/>
</linearGradient>
<linearGradient id="paint15_linear_115_13021" x1="20.3972" y1="150.397" x2="20.3972" y2="137.371" gradientUnits="userSpaceOnUse">
<stop offset="0.016" stop-color="#FFC2A9"/>
<stop offset="1" stop-color="#FF9595"/>
</linearGradient>
<linearGradient id="paint16_linear_115_13021" x1="12.9532" y1="138.883" x2="12.9532" y2="129.016" gradientUnits="userSpaceOnUse">
<stop offset="0.016" stop-color="#FFC2A9"/>
<stop offset="1" stop-color="#FF9595"/>
</linearGradient>
<linearGradient id="paint17_linear_115_13021" x1="21.0922" y1="155.665" x2="21.0922" y2="151.361" gradientUnits="userSpaceOnUse">
<stop offset="0.016" stop-color="#FFC2A9"/>
<stop offset="1" stop-color="#FF9595"/>
</linearGradient>
<linearGradient id="paint18_linear_115_13021" x1="133.496" y1="35.6809" x2="133.496" y2="24.9959" gradientUnits="userSpaceOnUse">
<stop stop-color="#1C257B"/>
<stop offset="1" stop-color="#482C83"/>
</linearGradient>
<linearGradient id="paint19_linear_115_13021" x1="128.821" y1="43.8713" x2="128.821" y2="35.3341" gradientUnits="userSpaceOnUse">
<stop stop-color="#D0C7F8"/>
<stop offset="1" stop-color="white"/>
</linearGradient>
<linearGradient id="paint20_linear_115_13021" x1="109.069" y1="41.5321" x2="109.069" y2="32.9942" gradientUnits="userSpaceOnUse">
<stop stop-color="#D0C7F8"/>
<stop offset="1" stop-color="white"/>
</linearGradient>
<radialGradient id="paint21_radial_115_13021" cx="0" cy="0" r="1" gradientUnits="userSpaceOnUse" gradientTransform="translate(129.971 40.8219) rotate(180) scale(3.99944 3.35917)">
<stop stop-color="#CF95FF"/>
<stop offset="1" stop-color="#8161FF"/>
</radialGradient>
<linearGradient id="paint22_linear_115_13021" x1="130.095" y1="41.8105" x2="130.095" y2="37.0563" gradientUnits="userSpaceOnUse">
<stop stop-color="#8642A0"/>
<stop offset="1" stop-color="#4E37B7"/>
</linearGradient>
<radialGradient id="paint23_radial_115_13021" cx="0" cy="0" r="1" gradientUnits="userSpaceOnUse" gradientTransform="translate(109.883 38.9606) rotate(180) scale(2.68185 2.25251)">
<stop stop-color="#CF95FF"/>
<stop offset="1" stop-color="#8161FF"/>
</radialGradient>
<linearGradient id="paint24_linear_115_13021" x1="110.522" y1="39.9525" x2="110.522" y2="35.1946" gradientUnits="userSpaceOnUse">
<stop stop-color="#8642A0"/>
<stop offset="1" stop-color="#4E37B7"/>
</linearGradient>
<linearGradient id="paint25_linear_115_13021" x1="109.346" y1="29.0929" x2="109.346" y2="21.7393" gradientUnits="userSpaceOnUse">
<stop stop-color="#1C257B"/>
<stop offset="1" stop-color="#482C83"/>
</linearGradient>
<linearGradient id="paint26_linear_115_13021" x1="114.521" y1="51.7262" x2="112.772" y2="45.3564" gradientUnits="userSpaceOnUse">
<stop stop-color="#FF8883"/>
<stop offset="1" stop-color="#E8868D"/>
</linearGradient>
<linearGradient id="paint27_linear_115_13021" x1="113.038" y1="48.9836" x2="113.038" y2="42.8345" gradientUnits="userSpaceOnUse">
<stop stop-color="#FF8883"/>
<stop offset="1" stop-color="#FFB1A4"/>
</linearGradient>
<linearGradient id="paint28_linear_115_13021" x1="50.9481" y1="182.546" x2="50.9481" y2="175.216" gradientUnits="userSpaceOnUse">
<stop stop-color="#1C257B"/>
<stop offset="1" stop-color="#482C83"/>
</linearGradient>
<linearGradient id="paint29_linear_115_13021" x1="150.265" y1="66.6839" x2="153.179" y2="48.0807" gradientUnits="userSpaceOnUse">
<stop offset="0.016" stop-color="#FFAC8B"/>
<stop offset="1" stop-color="#FF9595"/>
</linearGradient>
<linearGradient id="paint30_linear_115_13021" x1="141.273" y1="76.9907" x2="113.324" y2="76.9907" gradientUnits="userSpaceOnUse">
<stop stop-color="#CF6074"/>
<stop offset="1" stop-color="#FF817F"/>
</linearGradient>
<linearGradient id="paint31_linear_115_13021" x1="128.6" y1="214.993" x2="128.6" y2="85.3801" gradientUnits="userSpaceOnUse">
<stop stop-color="#8B8BE0"/>
<stop offset="1" stop-color="#A177B7"/>
</linearGradient>
<linearGradient id="paint32_linear_115_13021" x1="136.891" y1="151.297" x2="136.891" y2="145.537" gradientUnits="userSpaceOnUse">
<stop stop-color="#8B8BE0"/>
<stop offset="1" stop-color="#A177B7"/>
</linearGradient>
<linearGradient id="paint33_linear_115_13021" x1="89.9804" y1="122.154" x2="89.9804" y2="88.0006" gradientUnits="userSpaceOnUse">
<stop stop-color="#8B8BE0"/>
<stop offset="1" stop-color="#A177B7"/>
</linearGradient>
<linearGradient id="paint34_linear_115_13021" x1="104.651" y1="130.614" x2="104.651" y2="98.9148" gradientUnits="userSpaceOnUse">
<stop stop-color="#8B8BE0"/>
<stop offset="1" stop-color="#A177B7"/>
</linearGradient>
<linearGradient id="paint35_linear_115_13021" x1="116.781" y1="191.309" x2="116.781" y2="182.544" gradientUnits="userSpaceOnUse">
<stop stop-color="#8B8BE0"/>
<stop offset="1" stop-color="#A177B7"/>
</linearGradient>
<linearGradient id="paint36_linear_115_13021" x1="166.201" y1="140.397" x2="166.201" y2="123.524" gradientUnits="userSpaceOnUse">
<stop stop-color="#9D68C2"/>
<stop offset="1" stop-color="#90AEFF"/>
</linearGradient>
<linearGradient id="paint37_linear_115_13021" x1="47.502" y1="174.229" x2="47.502" y2="112.129" gradientUnits="userSpaceOnUse">
<stop stop-color="#8642A0"/>
<stop offset="1" stop-color="#6456C0"/>
</linearGradient>
<linearGradient id="paint38_linear_115_13021" x1="26.3824" y1="146.162" x2="16.6194" y2="146.162" gradientUnits="userSpaceOnUse">
<stop stop-color="#CF6074"/>
<stop offset="1" stop-color="#FF817F"/>
</linearGradient>
<linearGradient id="paint39_linear_115_13021" x1="151.203" y1="91.5107" x2="151.203" y2="91.3106" gradientUnits="userSpaceOnUse">
<stop stop-color="#9D68C2"/>
<stop offset="1" stop-color="#CCEDFF"/>
</linearGradient>
<linearGradient id="paint40_linear_115_13021" x1="117.753" y1="199.322" x2="117.753" y2="185.994" gradientUnits="userSpaceOnUse">
<stop stop-color="#B9ACF4"/>
<stop offset="1" stop-color="#E1D1F5"/>
</linearGradient>
<linearGradient id="paint41_linear_115_13021" x1="61.6729" y1="175.786" x2="61.6729" y2="139.239" gradientUnits="userSpaceOnUse">
<stop stop-color="#B9ACF4"/>
<stop offset="1" stop-color="#E1D1F5"/>
</linearGradient>
<linearGradient id="paint42_linear_115_13021" x1="112.105" y1="100.15" x2="112.105" y2="87.3788" gradientUnits="userSpaceOnUse">
<stop stop-color="#3D2CB0"/>
<stop offset="1" stop-color="#0355C7"/>
</linearGradient>
<linearGradient id="paint43_linear_115_13021" x1="151.555" y1="35.965" x2="153.789" y2="19.1701" gradientUnits="userSpaceOnUse">
<stop stop-color="#5E3187"/>
<stop offset="0.3777" stop-color="#422271"/>
<stop offset="0.7555" stop-color="#2C1760"/>
<stop offset="1" stop-color="#24135A"/>
</linearGradient>
<linearGradient id="paint44_linear_115_13021" x1="121.193" y1="18.5438" x2="121.193" y2="3.4928" gradientUnits="userSpaceOnUse">
<stop stop-color="#8B8BE0"/>
<stop offset="1" stop-color="#A177B7"/>
</linearGradient>
<linearGradient id="paint45_linear_115_13021" x1="134.222" y1="18.549" x2="134.222" y2="8.33128" gradientUnits="userSpaceOnUse">
<stop stop-color="#8B8BE0"/>
<stop offset="1" stop-color="#A177B7"/>
</linearGradient>
<linearGradient id="paint46_linear_115_13021" x1="109.52" y1="17.7278" x2="109.52" y2="11.1277" gradientUnits="userSpaceOnUse">
<stop stop-color="#8B8BE0"/>
<stop offset="1" stop-color="#A177B7"/>
</linearGradient>
<linearGradient id="paint47_linear_115_13021" x1="132.835" y1="50.1131" x2="132.835" y2="32.6645" gradientUnits="userSpaceOnUse">
<stop stop-color="#F2C7CC"/>
<stop offset="1" stop-color="#A177B7"/>
</linearGradient>
<linearGradient id="paint48_linear_115_13021" x1="130.68" y1="48.3223" x2="128.968" y2="31.3571" gradientUnits="userSpaceOnUse">
<stop stop-color="#1C257B"/>
<stop offset="1" stop-color="#482C83"/>
</linearGradient>
<linearGradient id="paint49_linear_115_13021" x1="130.307" y1="48.2885" x2="128.593" y2="31.3232" gradientUnits="userSpaceOnUse">
<stop stop-color="#1C257B"/>
<stop offset="1" stop-color="#65459C"/>
</linearGradient>
<linearGradient id="paint50_linear_115_13021" x1="108.379" y1="44.9096" x2="106.929" y2="30.554" gradientUnits="userSpaceOnUse">
<stop stop-color="#1C257B"/>
<stop offset="1" stop-color="#482C83"/>
</linearGradient>
<linearGradient id="paint51_linear_115_13021" x1="107.962" y1="44.9096" x2="106.513" y2="30.554" gradientUnits="userSpaceOnUse">
<stop stop-color="#1C257B"/>
<stop offset="1" stop-color="#65459C"/>
</linearGradient>
<linearGradient id="paint52_linear_115_13021" x1="115.885" y1="34.2493" x2="115.643" y2="31.8467" gradientUnits="userSpaceOnUse">
<stop stop-color="#1C257B"/>
<stop offset="1" stop-color="#65459C"/>
</linearGradient>
<linearGradient id="paint53_linear_115_13021" x1="148.529" y1="49.2743" x2="147.244" y2="36.5436" gradientUnits="userSpaceOnUse">
<stop stop-color="#1C257B"/>
<stop offset="1" stop-color="#65459C"/>
</linearGradient>
<linearGradient id="paint54_linear_115_13021" x1="146.11" y1="43.0056" x2="146.11" y2="39.4317" gradientUnits="userSpaceOnUse">
<stop stop-color="#8642A0"/>
<stop offset="1" stop-color="#6456C0"/>
</linearGradient>
<linearGradient id="paint55_linear_115_13021" x1="136.77" y1="43.7625" x2="136.77" y2="35.8907" gradientUnits="userSpaceOnUse">
<stop/>
<stop offset="1" stop-color="#E1D1F5"/>
</linearGradient>
<linearGradient id="paint56_linear_115_13021" x1="124.077" y1="77.384" x2="124.077" y2="63.46" gradientUnits="userSpaceOnUse">
<stop offset="0.016" stop-color="#FFA58B"/>
<stop offset="1" stop-color="#FF898E"/>
</linearGradient>
<linearGradient id="paint57_linear_115_13021" x1="118.876" y1="270.887" x2="118.876" y2="189.877" gradientUnits="userSpaceOnUse">
<stop stop-color="#C9B6E9"/>
<stop offset="1" stop-color="#BBABD1"/>
</linearGradient>
<linearGradient id="paint58_linear_115_13021" x1="117.095" y1="196.473" x2="117.095" y2="187.994" gradientUnits="userSpaceOnUse">
<stop stop-color="#D8CAEF"/>
<stop offset="1" stop-color="#EADEF4"/>
</linearGradient>
<clipPath id="clip0_115_13021">
<rect width="195" height="299" fill="white"/>
</clipPath>
<clipPath id="clip1_115_13021">
<rect width="285" height="197" fill="white" transform="translate(2)"/>
</clipPath>
</defs>
</svg>
