<svg width="1920" height="884" viewBox="0 0 1920 884" fill="none" xmlns="http://www.w3.org/2000/svg">
<path opacity="0.5" d="M923.209 292.95C923.38 291.551 923.508 290.152 923.508 288.666C923.508 287.18 923.38 285.781 923.209 284.382L932.211 277.168C933.022 276.513 933.235 275.332 932.723 274.371L924.19 259.245C923.678 258.283 922.526 257.933 921.588 258.283L910.964 262.654C908.746 260.906 906.357 259.463 903.754 258.37L902.133 246.785C902.005 245.736 901.109 244.949 900.042 244.949H882.977C881.91 244.949 881.014 245.736 880.886 246.785L879.265 258.37C876.662 259.463 874.273 260.95 872.055 262.654L861.431 258.283C860.45 257.889 859.341 258.283 858.829 259.245L850.296 274.371C849.741 275.332 849.997 276.513 850.808 277.168L859.81 284.382C859.639 285.781 859.511 287.223 859.511 288.666C859.511 290.109 859.639 291.551 859.81 292.95L850.808 300.163C849.997 300.819 849.784 301.999 850.296 302.961L858.829 318.087C859.341 319.049 860.493 319.399 861.431 319.049L872.055 314.677C874.273 316.426 876.662 317.869 879.265 318.962L880.886 330.546C881.014 331.596 881.91 332.383 882.977 332.383H900.042C901.109 332.383 902.005 331.596 902.133 330.546L903.754 318.962C906.357 317.869 908.746 316.382 910.964 314.677L921.588 319.049C922.569 319.442 923.678 319.049 924.19 318.087L932.723 302.961C933.235 301.999 933.022 300.819 932.211 300.163L923.209 292.95ZM891.509 303.967C883.275 303.967 876.577 297.103 876.577 288.666C876.577 280.229 883.275 273.365 891.509 273.365C899.744 273.365 906.442 280.229 906.442 288.666C906.442 297.103 899.744 303.967 891.509 303.967Z" fill="url(#paint0_linear_58_1999)"/>
<path opacity="0.5" d="M690.332 424.677C690.466 423.587 690.566 422.498 690.566 421.34C690.566 420.182 690.466 419.092 690.332 418.002L697.382 412.382C698.017 411.871 698.184 410.952 697.783 410.203L691.101 398.418C690.7 397.669 689.798 397.397 689.063 397.669L680.743 401.075C679.006 399.713 677.135 398.589 675.097 397.737L673.827 388.712C673.727 387.894 673.025 387.281 672.19 387.281H658.825C657.99 387.281 657.288 387.894 657.188 388.712L655.918 397.737C653.88 398.589 652.009 399.747 650.272 401.075L641.952 397.669C641.184 397.363 640.315 397.669 639.914 398.418L633.232 410.203C632.797 410.952 632.998 411.871 633.633 412.382L640.682 418.002C640.549 419.092 640.449 420.216 640.449 421.34C640.449 422.464 640.549 423.587 640.682 424.677L633.633 430.297C632.998 430.808 632.831 431.727 633.232 432.477L639.914 444.261C640.315 445.01 641.217 445.283 641.952 445.01L650.272 441.604C652.009 442.967 653.88 444.091 655.918 444.942L657.188 453.967C657.288 454.785 657.99 455.398 658.825 455.398H672.19C673.025 455.398 673.727 454.785 673.827 453.967L675.097 444.942C677.135 444.091 679.006 442.933 680.743 441.604L689.063 445.01C689.831 445.317 690.7 445.01 691.101 444.261L697.783 432.477C698.184 431.727 698.017 430.808 697.382 430.297L690.332 424.677ZM665.507 433.26C659.059 433.26 653.813 427.913 653.813 421.34C653.813 414.766 659.059 409.419 665.507 409.419C671.956 409.419 677.201 414.766 677.201 421.34C677.201 427.913 671.956 433.26 665.507 433.26Z" fill="url(#paint1_linear_58_1999)"/>
<path opacity="0.5" d="M1757.33 227.447C1757.47 226.357 1757.57 225.267 1757.57 224.109C1757.57 222.951 1757.47 221.861 1757.33 220.771L1764.38 215.152C1765.02 214.641 1765.18 213.721 1764.78 212.972L1758.1 201.188C1757.7 200.439 1756.8 200.166 1756.06 200.439L1747.74 203.844C1746.01 202.482 1744.13 201.358 1742.1 200.507L1740.83 191.481C1740.73 190.664 1740.03 190.051 1739.19 190.051H1725.83C1724.99 190.051 1724.29 190.664 1724.19 191.481L1722.92 200.507C1720.88 201.358 1719.01 202.516 1717.27 203.844L1708.95 200.439C1708.18 200.132 1707.31 200.439 1706.91 201.188L1700.23 212.972C1699.8 213.721 1700 214.641 1700.63 215.152L1707.68 220.771C1707.55 221.861 1707.45 222.985 1707.45 224.109C1707.45 225.233 1707.55 226.357 1707.68 227.447L1700.63 233.066C1700 233.577 1699.83 234.497 1700.23 235.246L1706.91 247.03C1707.31 247.78 1708.22 248.052 1708.95 247.78L1717.27 244.374C1719.01 245.736 1720.88 246.86 1722.92 247.712L1724.19 256.737C1724.29 257.554 1724.99 258.167 1725.83 258.167H1739.19C1740.03 258.167 1740.73 257.554 1740.83 256.737L1742.1 247.712C1744.13 246.86 1746.01 245.702 1747.74 244.374L1756.06 247.78C1756.83 248.086 1757.7 247.78 1758.1 247.03L1764.78 235.246C1765.18 234.497 1765.02 233.577 1764.38 233.066L1757.33 227.447ZM1732.51 236.03C1726.06 236.03 1720.81 230.682 1720.81 224.109C1720.81 217.536 1726.06 212.189 1732.51 212.189C1738.96 212.189 1744.2 217.536 1744.2 224.109C1744.2 230.682 1738.96 236.03 1732.51 236.03Z" fill="url(#paint2_linear_58_1999)"/>
<path opacity="0.5" d="M277.548 425.904L309.894 485.442L251.332 518.326L218.987 458.788L277.548 425.904ZM272.928 417.398L214.366 450.283C209.765 452.866 208.079 458.808 210.621 463.486L242.966 523.024C245.507 527.702 251.351 529.415 255.953 526.831L314.514 493.947C319.116 491.363 320.801 485.422 318.26 480.744L285.914 421.206C283.373 416.528 277.529 414.815 272.928 417.398ZM273.068 466.493L269.461 489.997L254.525 484.01L250.894 507.472L301.09 479.285L273.068 466.493Z" fill="url(#paint3_linear_58_1999)"/>
<path opacity="0.5" d="M1703.58 656.144L1724.64 694.906L1686.51 716.315L1665.45 677.553L1703.58 656.144ZM1700.57 650.606L1662.45 672.016C1659.45 673.698 1658.35 677.566 1660.01 680.612L1681.07 719.374C1682.72 722.419 1686.53 723.535 1689.52 721.853L1727.65 700.443C1730.64 698.761 1731.74 694.893 1730.09 691.847L1709.03 653.085C1707.37 650.04 1703.57 648.924 1700.57 650.606ZM1700.66 682.569L1698.32 697.872L1688.59 693.974L1686.23 709.249L1718.91 690.898L1700.66 682.569Z" fill="url(#paint4_linear_58_1999)"/>
<path d="M538.521 794.188C537.057 793.342 535.317 793.113 533.683 793.551C532.05 793.988 530.658 795.057 529.812 796.521L514.938 822.285C514.092 823.749 513.863 825.489 514.301 827.123C514.738 828.756 515.807 830.148 517.271 830.994L533.834 840.556L531.709 844.237L513.306 833.612C512.329 833.048 511.169 832.895 510.081 833.187C508.992 833.479 508.064 834.191 507.5 835.167L501.125 846.209C500.561 847.185 500.409 848.345 500.7 849.434C500.992 850.523 501.704 851.451 502.681 852.015L554.209 881.765C555.185 882.328 556.345 882.481 557.434 882.189C558.523 881.898 559.451 881.185 560.015 880.209L566.39 869.167C566.953 868.191 567.106 867.031 566.814 865.942C566.523 864.854 565.81 863.925 564.834 863.362L546.431 852.737L548.556 849.056L565.119 858.619C566.583 859.464 568.323 859.693 569.956 859.255C571.589 858.818 572.982 857.749 573.827 856.285L588.702 830.521C589.548 829.057 589.777 827.317 589.339 825.683C588.901 824.05 587.833 822.658 586.369 821.812L538.521 794.188ZM536.396 797.868L584.244 825.493C584.732 825.775 585.088 826.239 585.234 826.783C585.38 827.328 585.303 827.908 585.022 828.396L570.147 854.16C569.865 854.648 569.401 855.004 568.856 855.15C568.312 855.296 567.732 855.22 567.244 854.938L519.396 827.313C518.908 827.031 518.552 826.567 518.406 826.023C518.26 825.478 518.336 824.898 518.618 824.41L533.493 798.646C533.775 798.158 534.239 797.802 534.783 797.656C535.328 797.51 535.908 797.586 536.396 797.868ZM550.605 862.508C550.887 862.02 551.351 861.663 551.895 861.518C552.439 861.372 553.02 861.448 553.508 861.73C553.996 862.012 554.352 862.476 554.498 863.02C554.644 863.564 554.567 864.145 554.285 864.633C554.004 865.121 553.539 865.477 552.995 865.623C552.451 865.769 551.871 865.692 551.383 865.41C550.895 865.129 550.538 864.664 550.393 864.12C550.247 863.576 550.323 862.996 550.605 862.508ZM557.966 866.758C558.248 866.27 558.712 865.913 559.256 865.768C559.801 865.622 560.381 865.698 560.869 865.98C561.357 866.262 561.713 866.726 561.859 867.27C562.005 867.814 561.928 868.395 561.647 868.883C561.365 869.371 560.901 869.727 560.356 869.873C559.812 870.019 559.232 869.942 558.744 869.66C558.256 869.379 557.9 868.914 557.754 868.37C557.608 867.826 557.684 867.246 557.966 866.758ZM513.021 838.355L531.424 848.98C531.912 849.262 532.268 849.726 532.414 850.27C532.56 850.814 532.484 851.395 532.202 851.883C531.92 852.371 531.456 852.727 530.911 852.873C530.367 853.019 529.787 852.942 529.299 852.66L510.896 842.035C510.408 841.754 510.052 841.289 509.906 840.745C509.76 840.201 509.836 839.621 510.118 839.133C510.4 838.645 510.864 838.288 511.408 838.143C511.953 837.997 512.533 838.073 513.021 838.355ZM506.399 845.574C506.54 845.33 506.772 845.152 507.045 845.079C507.317 845.006 507.607 845.044 507.851 845.185L528.094 856.872C528.338 857.013 528.516 857.245 528.589 857.517C528.662 857.79 528.624 858.08 528.483 858.324C528.342 858.568 528.11 858.746 527.838 858.819C527.566 858.892 527.276 858.853 527.032 858.713L506.788 847.025C506.544 846.884 506.366 846.652 506.293 846.38C506.22 846.108 506.258 845.818 506.399 845.574Z" fill="url(#paint5_linear_58_1999)"/>
<path d="M993.182 684.192L1029.92 739.808L1096.81 696.435L1059.42 637.863L993.182 684.192Z" fill="url(#paint6_linear_58_1999)"/>
<path d="M1059.42 637.863L1068.59 642.317L1099.86 694.371L1096.81 696.435L1059.42 637.863Z" fill="url(#paint7_linear_58_1999)"/>
<path d="M1017.46 695.133L1017.72 682.149L1069.37 688.087L1068.73 698.251L1017.46 695.133Z" fill="white"/>
<path d="M1057.69 668.553L1045.64 663.7L1030.84 713.535L1040.41 716.957L1057.69 668.553Z" fill="white"/>
<path opacity="0.81" d="M86.6423 250.737L8.2795 172.375C4.79418 168.889 4.73082 163.249 8.14011 159.688L70.952 93.9611C74.4754 90.2856 80.3307 90.2096 83.9301 93.809L165.512 175.391C169.124 179.003 169.048 184.884 165.335 188.394L99.3036 250.902C95.7295 254.299 90.115 254.21 86.6423 250.737Z" fill="url(#paint8_linear_58_1999)"/>
<path d="M86.4367 250.939L8.07384 172.576C4.49979 169.002 4.43643 163.134 7.92175 159.496L70.7337 93.7694C72.4953 91.9317 74.8654 90.9051 77.4002 90.8797C79.935 90.8544 82.3303 91.8303 84.13 93.63L165.712 175.212C167.512 177.012 168.488 179.407 168.45 181.954C168.412 184.502 167.385 186.872 165.522 188.634L99.4908 251.141C95.7773 254.627 90.0487 254.551 86.4367 250.939ZM83.7244 94.0102C82.0388 92.3246 79.7955 91.3994 77.4002 91.4374C75.0175 91.4627 72.7869 92.426 71.1392 94.1496L8.32733 159.877C5.05746 163.298 5.12082 168.812 8.46673 172.158L86.8295 250.52C90.2262 253.917 95.6126 253.98 99.0852 250.685L165.116 188.177C166.853 186.542 167.829 184.299 167.854 181.916C167.892 179.521 166.967 177.278 165.281 175.592L83.7118 94.0229L83.7244 94.0102Z" fill="#473DA2"/>
<path d="M126.692 162.88L85.4766 121.664L83.7149 123.426L124.93 164.641L126.692 162.88Z" fill="white"/>
<path d="M101.799 146.553L81.1914 125.945L79.4297 127.707L100.037 148.315L101.799 146.553Z" fill="white"/>
<path d="M98.2093 150.147L77.6016 129.539L75.8399 131.301L96.4477 151.909L98.2093 150.147Z" fill="white"/>
<path d="M116.903 168.84L100.516 152.453L98.754 154.215L115.141 170.602L116.903 168.84Z" fill="white"/>
<path d="M107.234 166.343L74.0156 133.125L72.2539 134.887L105.472 168.105L107.234 166.343Z" fill="white"/>
<path d="M82.2662 148.52L70.4414 136.695L68.6797 138.457L80.5045 150.282L82.2662 148.52Z" fill="white"/>
<path d="M94.3922 182.146L73.9492 161.703L72.1876 163.465L92.6306 183.908L94.3922 182.146Z" fill="white"/>
<path d="M103.91 177.344L66.8516 140.285L65.0899 142.047L102.148 179.105L103.91 177.344Z" fill="white"/>
<path d="M91.7732 172.371L63.2695 143.867L61.5078 145.629L90.0115 174.133L91.7732 172.371Z" fill="white"/>
<path d="M73.1043 160.854L59.6953 147.445L57.9337 149.207L71.3427 162.616L73.1043 160.854Z" fill="white"/>
<path d="M76.7172 171.639L56.1094 151.031L54.3477 152.793L74.9555 173.401L76.7172 171.639Z" fill="white"/>
<path d="M82.3193 184.413L60.875 162.969L59.1133 164.73L80.5576 186.175L82.3193 184.413Z" fill="white"/>
<path d="M83.7477 192.795L63.3047 172.352L61.543 174.113L81.9861 194.556L83.7477 192.795Z" fill="white"/>
<path d="M71.6825 195.046L50.2383 173.602L48.4766 175.363L69.9209 196.808L71.6825 195.046Z" fill="white"/>
<path opacity="0.73" d="M2109.44 183.653L1925.95 289.589C1911.19 298.113 1892.32 293.398 1883.3 278.916L1809.54 160.554C1800.09 145.369 1805.08 125.378 1820.56 116.437L2011.83 6.00622C2027.29 -2.91751 2047.06 2.69813 2055.5 18.4375L2121.5 141.278C2129.6 156.366 2124.26 175.095 2109.44 183.653Z" fill="url(#paint9_linear_58_1999)"/>
<path d="M2109.87 184.402L1926.39 290.338C1911.13 299.146 1891.9 294.333 1882.57 279.378L1808.82 161.016C1804.11 153.467 1802.71 144.585 1804.88 135.952C1807.02 127.335 1812.46 120.116 1820.16 115.671L2011.43 5.23978C2019.1 0.811218 2028.03 -0.306427 2036.55 2.12132C2045.06 4.54907 2052.08 10.1843 2056.28 17.988L2122.28 140.828C2130.65 156.453 2125.19 175.562 2109.87 184.402ZM1820.99 117.233C1813.69 121.445 1808.58 128.241 1806.53 136.419C1804.49 144.598 1805.81 153.021 1810.27 160.138L1884.03 278.5C1892.86 292.664 1911.06 297.225 1925.51 288.884L2109.03 182.932C2123.5 174.574 2128.67 156.482 2120.72 141.727L2054.72 18.8871C2050.76 11.4871 2044.11 6.17223 2036.05 3.86636C2027.97 1.57713 2019.52 2.60595 2012.26 6.80144L1820.99 117.233Z" fill="#953DA2"/>
<path d="M2009.23 33.4634L1841.17 130.492L1898.81 230.324L2066.87 133.295L2009.23 33.4634Z" fill="#D1D4FB"/>
<path fill-rule="evenodd" clip-rule="evenodd" d="M686.698 72.5892L682.018 85.9792C684.598 78.5792 688.318 73.7692 686.698 72.5892ZM682.018 85.9792L677.328 99.3692C678.508 99.0092 679.428 93.3692 682.018 85.9792ZM686.698 72.5892L682.018 85.9792C684.598 78.5792 688.318 73.7692 686.698 72.5892ZM682.018 85.9792L677.328 99.3692C678.508 99.0092 679.428 93.3692 682.018 85.9792ZM695.528 97.5792L700.078 100.159L704.988 86.7592L699.728 85.8792C699.818 85.3792 699.918 84.8892 699.978 84.3892C700.358 82.0892 700.488 79.8492 700.418 77.7092L705.918 74.2592L703.408 62.4592L698.138 67.4992C697.408 65.9892 696.498 64.6692 695.438 63.5692C695.148 63.2492 694.838 62.9492 694.528 62.6792L697.748 55.2392L689.168 52.4492L687.108 59.9492C685.188 59.9592 683.238 60.4392 681.298 61.3092L680.348 54.2192L670.908 61.3692L673.088 67.6492C671.388 69.5892 669.828 71.8392 668.478 74.3592L663.928 71.7892L659.018 85.1892L664.278 86.0692C663.718 88.8992 663.498 91.6392 663.578 94.2292L658.078 97.6792L660.588 109.479L665.858 104.439C666.798 106.369 668.008 107.999 669.468 109.249L666.238 116.699L674.678 119.989L675.988 115.239L676.878 111.989C678.798 111.979 680.758 111.509 682.698 110.639L683.628 117.729L693.068 110.579L690.888 104.299C692.228 102.769 693.478 101.059 694.608 99.1592C694.948 98.6392 695.238 98.1192 695.528 97.5792ZM682.018 85.9792C679.428 93.3792 682.018 101.009 677.328 99.3692C672.628 97.7192 670.908 90.3892 673.508 83.0092C676.108 75.6092 682.008 70.9592 686.698 72.5992C691.398 74.2292 684.598 78.5792 682.018 85.9792ZM686.698 72.5892L682.018 85.9792C684.598 78.5792 688.318 73.7692 686.698 72.5892ZM682.018 85.9792L677.328 99.3692C678.508 99.0092 679.428 93.3692 682.018 85.9792Z" fill="url(#paint10_linear_58_1999)"/>
<path fill-rule="evenodd" clip-rule="evenodd" d="M700.08 100.16L704.99 86.76L699.98 84.39L699.17 84.01L699.7 76.63L705.26 73.92L703.43 62.46L691.33 58.52L693.56 63.84L697.78 55.24L689.2 52.45L685.68 51.3L677.22 48L675.64 53.77L668.28 50.27L658.84 57.42L661.71 65.15L652.88 89.63L648.52 105.53L656.91 106.45L654.18 112.75L662.64 116.05L674.74 119.99L672.8 116.1L671.58 113.77L676.05 115.23L683.69 117.72L693.13 110.57L687.29 103.69L694.67 99.15L700.08 100.16ZM673.51 83C676.11 75.6 682.01 70.95 686.7 72.59L682.02 85.98L677.33 99.37C672.63 97.71 670.91 90.39 673.51 83Z" fill="url(#paint11_linear_58_1999)"/>
<path fill-rule="evenodd" clip-rule="evenodd" d="M687.98 96.2095L692.88 82.8095L687.62 81.9295C688.17 79.1095 688.4 76.3695 688.32 73.7795L693.82 70.3295L691.31 58.5295L686.04 63.5695C685.1 61.6395 683.89 60.0095 682.43 58.7595L685.66 51.3095L677.21 48.0195L675.02 56.0195C673.1 56.0295 671.14 56.4995 669.21 57.3795L668.27 50.2995L658.83 57.4395L661 63.7195C659.3 65.6595 657.75 67.9195 656.39 70.4395L651.84 67.8695L646.94 81.2695L652.2 82.1495C651.65 84.9695 651.42 87.7095 651.5 90.2995L646 93.7495L648.51 105.55L653.78 100.51C654.72 102.44 655.93 104.07 657.39 105.32L654.16 112.77L662.61 116.06L664.8 108.06C666.72 108.05 668.68 107.58 670.61 106.7L671.55 113.78L680.99 106.64L678.82 100.36C680.52 98.4195 682.07 96.1595 683.43 93.6395L687.98 96.2095ZM665.22 95.4195C660.52 93.7695 658.81 86.4495 661.4 79.0495C663.99 71.6595 669.9 66.9995 674.6 68.6395C679.3 70.2895 681.01 77.6095 678.42 85.0095C675.83 92.3995 669.92 97.0595 665.22 95.4195Z" fill="url(#paint12_linear_58_1999)"/>
<path opacity="0.5" fill-rule="evenodd" clip-rule="evenodd" d="M705.92 74.2581L693.82 70.3281L688.32 73.7781L700.42 77.7181L705.92 74.2581Z" fill="#601734"/>
<path fill-rule="evenodd" clip-rule="evenodd" d="M693.1 110.582L680.99 106.642L678.82 100.352L690.92 104.302L693.1 110.582Z" fill="#B3D9FF"/>
<path opacity="0.5" fill-rule="evenodd" clip-rule="evenodd" d="M682.43 58.7508L689.07 60.6708L691.31 58.5208L695.72 59.9608L697.76 55.2508L685.66 51.3008L682.43 58.7508Z" fill="#601734"/>
<path opacity="0.5" fill-rule="evenodd" clip-rule="evenodd" d="M664.801 108.049L671.141 110.689L670.611 106.699C670.611 106.699 667.201 108.499 664.801 108.049Z" fill="#601734"/>
<path opacity="0.5" fill-rule="evenodd" clip-rule="evenodd" d="M665.781 71.77L676.451 77.41C676.451 77.41 678.001 75.34 679.191 74.5C679.201 74.5 676.411 62.73 665.781 71.77Z" fill="#601734"/>
<defs>
<linearGradient id="paint0_linear_58_1999" x1="891.5" y1="244.949" x2="891.5" y2="332.383" gradientUnits="userSpaceOnUse">
<stop stop-color="#3A3A3A"/>
<stop offset="1" stop-color="#616161"/>
</linearGradient>
<linearGradient id="paint1_linear_58_1999" x1="665.5" y1="387.281" x2="665.5" y2="455.398" gradientUnits="userSpaceOnUse">
<stop stop-color="#3A3A3A"/>
<stop offset="1" stop-color="#616161"/>
</linearGradient>
<linearGradient id="paint2_linear_58_1999" x1="1732.5" y1="190.051" x2="1732.5" y2="258.167" gradientUnits="userSpaceOnUse">
<stop stop-color="#3A3A3A"/>
<stop offset="1" stop-color="#616161"/>
</linearGradient>
<linearGradient id="paint3_linear_58_1999" x1="243.647" y1="433.841" x2="286.296" y2="509.792" gradientUnits="userSpaceOnUse">
<stop stop-color="#3A3A3A"/>
<stop offset="1" stop-color="#616161"/>
</linearGradient>
<linearGradient id="paint4_linear_58_1999" x1="1681.51" y1="661.311" x2="1709.28" y2="710.759" gradientUnits="userSpaceOnUse">
<stop stop-color="#3A3A3A"/>
<stop offset="1" stop-color="#616161"/>
</linearGradient>
<linearGradient id="paint5_linear_58_1999" x1="562.445" y1="808" x2="528.445" y2="866.89" gradientUnits="userSpaceOnUse">
<stop stop-color="#3A3A3A"/>
<stop offset="1" stop-color="#616161"/>
</linearGradient>
<linearGradient id="paint6_linear_58_1999" x1="1064" y1="718.117" x2="1025.7" y2="660.143" gradientUnits="userSpaceOnUse">
<stop stop-color="#D93DE3"/>
<stop offset="1" stop-color="#FF6DBA"/>
</linearGradient>
<linearGradient id="paint7_linear_58_1999" x1="1099.44" y1="694.708" x2="1061.14" y2="636.735" gradientUnits="userSpaceOnUse">
<stop stop-color="#A242EA"/>
<stop offset="1" stop-color="#FE117E"/>
</linearGradient>
<linearGradient id="paint8_linear_58_1999" x1="37.155" y1="209.664" x2="133.861" y2="134.539" gradientUnits="userSpaceOnUse">
<stop stop-color="#067EFF"/>
<stop offset="1" stop-color="#3E37A0"/>
</linearGradient>
<linearGradient id="paint9_linear_58_1999" x1="2017.51" y1="236.74" x2="1916.19" y2="61.2624" gradientUnits="userSpaceOnUse">
<stop stop-color="#D906E3"/>
<stop offset="1" stop-color="#FF6DF9"/>
</linearGradient>
<linearGradient id="paint10_linear_58_1999" x1="676.924" y1="120.326" x2="687.024" y2="52.1333" gradientUnits="userSpaceOnUse">
<stop stop-color="#1852A0"/>
<stop offset="1" stop-color="#067ED3"/>
</linearGradient>
<linearGradient id="paint11_linear_58_1999" x1="669.391" y1="118.566" x2="687.634" y2="50.8164" gradientUnits="userSpaceOnUse">
<stop stop-color="#1852A0"/>
<stop offset="1" stop-color="#067ED3"/>
</linearGradient>
<linearGradient id="paint12_linear_58_1999" x1="660.824" y1="115.771" x2="671.593" y2="47.1276" gradientUnits="userSpaceOnUse">
<stop stop-color="#188DC1"/>
<stop offset="1" stop-color="#06BFE7"/>
</linearGradient>
</defs>
</svg>
