<svg width="800" height="578" viewBox="0 0 800 578" fill="none" xmlns="http://www.w3.org/2000/svg">
<path d="M657.669 578H142.331C63.8764 578 0 525.039 0 459.895V118.105C0 53.004 63.8249 0 142.331 0H657.669C736.124 0 800 52.9612 800 118.105V459.895C800 525.039 736.175 578 657.669 578ZM142.331 2.13726C65.2672 2.13726 2.57566 54.1581 2.57566 118.105V459.895C2.57566 523.842 65.2672 575.863 142.331 575.863H657.669C734.733 575.863 797.424 523.842 797.424 459.895V118.105C797.424 54.1581 734.733 2.13726 657.669 2.13726H142.331Z" fill="url(#paint0_linear_20_2855)"/>
<path d="M167.376 505.813L155.219 485.273H639.443L627.646 512.279C627.646 512.279 381.98 497.614 167.376 505.813Z" fill="url(#paint1_linear_20_2855)"/>
<path d="M155.219 485.273L226.719 112.686L589.269 96.2461L639.443 485.273H155.219Z" fill="url(#paint2_linear_20_2855)"/>
<path d="M340.094 81.1991V59.5184C340.094 59.5184 416.282 45.7831 495.355 53.1791L492.418 74.3949C492.47 74.3949 428.645 68.6472 340.094 81.1991Z" fill="url(#paint3_linear_20_2855)"/>
<path d="M340.094 81.2022L348.696 85.8088L482.27 81.2022L492.47 74.3979C492.47 74.3979 420.042 67.0019 340.094 81.2022Z" fill="#140047"/>
<path opacity="0.86" d="M194.297 466.211L614.748 468.24L575.031 115.305L273.576 110.91L194.297 466.211Z" fill="#9ABAB3"/>
<path d="M614.754 468.236C433.428 434.807 177.047 468.236 177.047 468.236L246.075 96.1991C421.322 53.3871 587.968 59.811 587.968 59.811L588.019 60.614L614.754 468.236Z" fill="url(#paint4_linear_20_2855)"/>
<path d="M389.024 92.0884C388.921 92.9337 388.664 93.8634 388.251 94.8355C387.788 95.8075 387.17 96.7373 386.345 97.7094C385.521 98.6391 384.491 99.5689 383.306 100.414C382.121 101.259 380.679 102.02 379.082 102.696C380.576 102.865 381.761 103.161 382.585 103.584C383.409 104.006 384.079 104.471 384.491 105.021C384.903 105.528 385.161 106.035 385.264 106.542C385.367 107.049 385.367 107.472 385.367 107.768C385.264 108.824 384.903 109.754 384.233 110.599C383.564 111.445 382.791 112.163 381.812 112.797C380.885 113.431 379.803 113.98 378.67 114.445C377.537 114.91 376.403 115.291 375.27 115.586C374.137 115.882 373.107 116.136 372.179 116.305C371.201 116.474 370.428 116.643 369.913 116.685C369.192 116.77 368.47 116.854 367.698 116.897C367.08 116.939 366.358 116.939 365.637 116.939C364.916 116.939 364.246 116.897 363.68 116.77C364.04 114.107 364.349 111.487 364.555 108.909C364.864 105.359 365.019 101.893 365.071 98.47C365.122 95.0468 365.019 91.6235 364.813 88.2003C365.998 87.8199 367.234 87.4818 368.419 87.186C369.604 86.8901 370.685 86.6365 371.664 86.4252C372.797 86.2139 373.879 86.0026 374.858 85.8335C375.631 85.7067 376.558 85.6222 377.64 85.58C378.67 85.5377 379.752 85.5377 380.834 85.6645C381.915 85.749 382.997 85.9604 384.027 86.2139C385.058 86.4675 385.985 86.8478 386.758 87.355C387.582 87.8621 388.148 88.4961 388.612 89.2568C388.973 90.0176 389.179 90.9896 389.024 92.0884ZM377.949 108.064C378 107.43 377.743 106.796 377.331 106.331C377.125 106.12 376.919 105.908 376.661 105.697C376.403 105.486 376.043 105.317 375.631 105.19C375.219 105.063 374.755 104.936 374.188 104.894C373.622 104.809 373.004 104.809 372.282 104.852C372.076 106.331 371.87 107.768 371.716 109.205C371.561 110.642 371.407 112.079 371.304 113.558C372.076 113.304 372.798 113.008 373.416 112.713C374.034 112.417 374.549 112.121 375.013 111.825C375.476 111.529 375.837 111.233 376.197 110.937C376.506 110.642 376.816 110.346 377.022 110.05C377.485 109.374 377.846 108.698 377.949 108.064ZM381.4 93.9902C381.4 93.9902 381.4 93.8635 381.452 93.6099C381.452 93.3563 381.452 93.0182 381.349 92.6378C381.297 92.2574 381.091 91.8348 380.885 91.4122C380.679 90.9896 380.318 90.6092 379.803 90.2289C379.288 89.8908 378.619 89.6372 377.794 89.4259C376.97 89.2568 375.888 89.2145 374.6 89.3413C374.24 91.6235 373.828 93.948 373.467 96.2301C373.107 98.5123 372.798 100.795 372.488 103.119C373.416 102.823 374.291 102.443 375.064 101.978C375.837 101.555 376.506 101.09 377.125 100.583C377.743 100.118 378.258 99.6111 378.67 99.0617C379.082 98.5546 379.494 98.0474 379.803 97.5403C380.524 96.4837 381.091 95.2581 381.4 93.9902Z" fill="#EF138B"/>
<path d="M415.612 89.8515C415.509 90.7813 415.251 91.7533 414.839 92.7253C414.427 93.6974 413.809 94.6694 412.984 95.5992C412.16 96.529 411.13 97.4587 409.894 98.3463C408.657 99.2338 407.163 100.037 405.463 100.797C406.751 102.657 408.194 104.432 409.739 106.123C411.336 107.813 413.139 109.419 415.148 110.983C411.233 111.405 409.224 111.659 405.309 112.124C403.042 108.32 401.909 106.418 399.591 102.615C399.539 104.305 399.488 105.996 399.539 107.644C399.539 109.292 399.591 110.941 399.694 112.546C395.882 112.927 393.976 113.138 390.164 113.561C390.834 110.349 391.452 107.137 391.915 103.967C392.379 100.797 392.791 97.5855 393.1 94.3736C393.306 92.514 393.461 90.6545 393.564 88.8372C393.718 87.0199 393.77 85.1604 393.821 83.3008C395.212 82.9204 396.655 82.5824 398.097 82.3288C399.539 82.0752 400.724 81.9061 401.755 81.8216C402.476 81.7371 403.3 81.6948 404.33 81.6526C405.309 81.6103 406.391 81.6526 407.472 81.7794C408.554 81.9061 409.636 82.1175 410.666 82.4556C411.697 82.7937 412.624 83.2585 413.397 83.8925C414.169 84.5264 414.787 85.3294 415.199 86.3014C415.612 87.2312 415.766 88.4568 415.612 89.8515ZM399.849 99.2338C400.776 98.9802 401.6 98.7266 402.321 98.3463C403.042 98.0082 403.66 97.6278 404.227 97.2052C404.794 96.7825 405.257 96.4022 405.67 95.9373C406.082 95.5146 406.391 95.0921 406.648 94.6694C407.266 93.6974 407.679 92.6831 407.833 91.5842C407.833 91.542 407.833 91.3729 407.885 91.0771C407.885 90.7813 407.885 90.3586 407.782 89.8938C407.679 89.4289 407.576 88.9217 407.369 88.4145C407.163 87.8651 406.854 87.358 406.442 86.8931C406.03 86.4282 405.463 86.0056 404.794 85.7097C404.124 85.3716 403.248 85.2026 402.218 85.1604C401.651 87.4003 401.188 89.5979 400.827 91.7956C400.415 93.9932 400.158 96.1908 399.952 98.3885C399.9 98.7689 399.9 98.8957 399.849 99.2338Z" fill="#EF138B"/>
<path d="M433.374 109.498C432.344 109.541 431.262 109.583 430.232 109.625C429.201 109.667 428.12 109.71 427.089 109.794C425.338 109.921 423.638 110.048 421.886 110.217C420.135 110.386 418.435 110.555 416.684 110.766C416.89 108.949 416.993 108.019 417.199 106.202C417.817 106.202 418.384 106.202 419.002 106.16C419.62 106.117 420.186 106.117 420.805 106.075C421.165 103.877 421.526 101.68 421.886 99.5243C422.247 97.3689 422.556 95.1713 422.762 92.9736C422.917 91.5367 423.02 90.0998 423.071 88.6629C423.123 87.2682 423.226 85.8312 423.277 84.3943C422.608 84.4366 421.886 84.5211 421.165 84.6056C420.444 84.6902 419.723 84.7747 419.002 84.8592C419.208 83.0842 419.311 82.1967 419.568 80.4216C421.577 80.2948 423.638 80.1681 425.647 80.0413C427.656 79.9145 429.716 79.7454 431.777 79.6186C432.498 79.5764 433.271 79.4919 433.992 79.4496C434.713 79.4073 435.486 79.3228 436.259 79.2383C436.001 80.9288 435.847 81.7741 435.537 83.5068C434.919 83.5491 434.353 83.5913 433.734 83.5913C433.168 83.6336 432.55 83.6758 431.932 83.7181C431.262 86.2961 430.747 88.8319 430.335 91.3677C429.922 93.9034 429.562 96.4391 429.304 98.9749C429.098 101.215 428.944 103.412 428.892 105.61C429.716 105.568 430.592 105.483 431.468 105.441C432.344 105.357 433.219 105.314 434.147 105.23C433.889 106.92 433.683 107.766 433.374 109.498Z" fill="#EF138B"/>
<path d="M454.605 97.412C453.781 97.412 452.957 97.412 452.133 97.4542C451.308 97.4542 450.433 97.4965 449.609 97.5388C449.145 97.5388 448.63 97.5811 448.115 97.6233C447.599 97.6656 447.084 97.7079 446.569 97.7079C446.209 100.793 446.003 102.314 445.591 105.357C447.754 105.231 449.866 105.104 451.927 104.935C453.987 104.766 456.151 104.554 458.469 104.343C458.263 106.16 458.16 107.048 458.005 108.865C456.511 108.865 455.12 108.907 453.73 108.907C452.339 108.95 450.948 108.95 449.609 109.034C447.548 109.119 445.539 109.203 443.53 109.33C441.521 109.457 439.46 109.584 437.297 109.795C437.812 107.132 438.224 104.512 438.636 101.892C439.048 99.2715 439.409 96.6513 439.666 94.031C439.924 91.4952 440.13 88.9595 440.285 86.5082C440.439 84.0148 440.491 81.5213 440.491 79.0278C443.581 78.9432 446.569 78.8588 449.402 78.6897C451.205 78.6052 453.008 78.4784 454.811 78.3516C456.614 78.2248 458.572 78.0558 460.581 77.8867C460.375 79.8731 460.22 80.8451 460.014 82.8314C458.366 82.7469 456.769 82.6623 455.172 82.6623C453.575 82.6623 451.978 82.6624 450.381 82.7469C449.763 82.7891 449.454 82.7892 448.836 82.8314C448.372 84.6487 448.012 86.4238 447.703 88.1988C447.393 89.9738 446.621 93.3125 446.93 93.5238C447.033 93.6506 448.321 93.5239 448.99 93.4816C449.712 93.4393 450.433 93.3971 451.154 93.3971C451.772 93.3548 452.39 93.3548 453.008 93.3125C453.627 93.2703 454.296 93.2703 454.966 93.1857C454.914 94.834 454.811 95.6792 454.605 97.412Z" fill="#EF138B"/>
<path d="M479.031 96.9085C478.207 96.8662 477.382 96.8662 476.507 96.8662C475.631 96.8662 474.807 96.8662 473.983 96.8662C473.519 96.8662 473.055 96.8662 472.592 96.9085C472.128 96.9085 471.664 96.9507 471.201 96.9507C470.892 101.684 470.737 104.051 470.377 108.784C469.758 108.742 469.14 108.742 468.419 108.742C467.698 108.742 467.028 108.742 466.359 108.742C465.689 108.742 465.071 108.784 464.504 108.784C463.937 108.784 463.422 108.826 462.959 108.826C462.444 108.869 461.98 108.869 461.465 108.911C461.98 106.206 462.444 103.544 462.907 100.923C463.319 98.3031 463.68 95.6406 463.989 92.978C464.298 90.4 464.504 87.8643 464.659 85.3285C464.813 82.7928 464.916 80.257 464.916 77.7212C468.059 77.7212 471.046 77.7213 473.879 77.6368C475.682 77.5945 477.485 77.5099 479.288 77.4677C481.091 77.3832 483.049 77.2987 485.109 77.1719C484.852 79.1582 484.749 80.1725 484.543 82.2011C482.894 82.0743 481.297 81.9475 479.7 81.9053C478.104 81.8207 476.507 81.8208 474.91 81.863C474.292 81.863 473.983 81.863 473.364 81.9053C472.952 83.5112 472.643 85.1595 472.386 86.8077C472.128 88.456 471.922 90.1465 471.716 91.8792C471.664 92.2173 471.664 92.3864 471.613 92.7245C472.283 92.7667 472.952 92.7667 473.622 92.7245C474.292 92.7245 474.961 92.7245 475.682 92.6822C476.301 92.6822 476.919 92.6822 477.537 92.6822C478.155 92.6822 478.825 92.6399 479.494 92.6399C479.34 94.2882 479.237 95.1757 479.031 96.9085Z" fill="#EF138B"/>
<path opacity="0.62" d="M268.959 144.208C268.959 144.208 329.384 127.134 439.468 122.273V139.939C439.468 139.939 366.319 138.037 264.684 157.225L268.959 144.208Z" fill="url(#paint5_linear_20_2855)"/>
<path opacity="0.62" d="M241.901 282.714C241.901 282.714 317.934 274.473 416.324 273.332V288.166C416.324 288.166 343.382 286.56 236.801 297.844L241.901 282.714Z" fill="url(#paint6_linear_20_2855)"/>
<path opacity="0.62" d="M232.593 350.032C232.593 350.032 310.224 343.524 408.562 342.383V354.85C408.562 354.85 341.595 354.174 230.43 362.796L232.593 350.032Z" fill="url(#paint7_linear_20_2855)"/>
<path opacity="0.62" d="M254.639 211.963C254.639 211.963 330.466 200.51 432.772 197.34L431.02 213.611C431.02 213.611 360.499 212.301 250.363 225.022L254.639 211.963Z" fill="url(#paint8_linear_20_2855)"/>
<path d="M255.461 201.06L264.218 165.306L264.527 165.221C265.506 165.01 360.033 145.273 472.229 145.273C473.619 145.273 475.01 145.273 476.453 145.273H476.968V184.662H476.453C475.371 184.662 368.532 187.071 256.182 200.976L255.461 201.06ZM265.145 166.024L256.8 200.003C364.875 186.691 467.695 183.986 475.937 183.775V146.119C474.701 146.119 473.465 146.119 472.28 146.119C363.433 146.119 271.327 164.714 265.145 166.024Z" fill="url(#paint9_linear_20_2855)"/>
<path d="M241.234 274.967L241.389 274.376L249.94 237.649L250.301 237.607C251.382 237.48 358.53 223.914 470.417 223.914C472.426 223.914 474.435 223.914 476.444 223.914H476.959V266.008H476.444C474.898 266.008 358.427 266.092 241.956 274.883L241.234 274.967ZM250.816 238.41L242.574 273.953C355.027 265.5 467.223 265.12 475.929 265.12V224.759C365.433 224.337 257.976 237.523 250.816 238.41Z" fill="url(#paint10_linear_20_2855)"/>
<path d="M228.398 342.894L228.501 342.344L235.919 307.14L236.331 307.097C237.568 306.97 356.924 296.32 468.862 296.32C471.386 296.32 473.91 296.32 476.486 296.32H477.001V337.695H476.434C475.198 337.653 351.824 333.385 229.068 342.809L228.398 342.894ZM236.847 307.943L229.686 341.922C348.012 332.877 466.75 336.512 475.919 336.85V297.25C473.55 297.25 471.18 297.25 468.862 297.25C360.221 297.208 244.574 307.266 236.847 307.943Z" fill="url(#paint11_linear_20_2855)"/>
<path d="M217.234 407.129L217.337 406.579L224.755 371.374L225.167 371.332C226.558 371.205 364.511 357.09 476.5 364.063L477.015 364.105V401.761H476.449C475.109 401.719 340.66 397.662 217.904 407.129H217.234ZM225.683 372.177L218.522 406.156C337.106 397.07 466.352 400.578 475.934 400.831V364.908C367.086 358.188 233.925 371.332 225.683 372.177Z" fill="url(#paint12_linear_20_2855)"/>
<path d="M597.41 457.21C540.746 441.572 477.075 442.206 476.457 442.291V441.403C477.127 441.403 540.952 440.685 597.771 456.407L597.41 457.21Z" fill="url(#paint13_linear_20_2855)"/>
<path opacity="0.3" d="M614.754 468.236C433.428 434.807 177.047 468.236 177.047 468.236L246.075 96.1991C246.075 96.1991 216.506 343.815 264.671 401.335C319.481 466.799 502.868 455.769 537.021 390.558C579.313 309.836 588.637 76.1243 587.968 60.6562L614.754 468.236Z" fill="url(#paint14_linear_20_2855)"/>
<path d="M379.398 54.3574L383.056 63.3593L466.044 59.5134L468.207 51.399C468.156 51.399 439.772 49.793 379.398 54.3574Z" fill="url(#paint15_linear_20_2855)"/>
<path d="M319.477 485.273C319.477 485.273 570.243 477.074 639.425 485.273H319.477Z" fill="#9A7DF8"/>
<path d="M642.625 333.71L671.73 291.574L686.72 302.732L659.573 333.71H642.625Z" fill="#9A7DF8"/>
<path d="M160.102 255.404L167.984 238.964L130.688 217.156L109.207 230.342L160.102 255.404Z" fill="#4F31E0"/>
<path d="M379.398 532.056L415.458 523.223L423.545 536.451L379.398 539.959V532.056Z" fill="#FF1D9C"/>
<path d="M642.625 263.892L693.108 241.535L698.465 258.947L646.128 273.782L642.625 263.892Z" fill="#6877FF"/>
<defs>
<linearGradient id="paint0_linear_20_2855" x1="0.0113329" y1="289.012" x2="800.003" y2="289.012" gradientUnits="userSpaceOnUse">
<stop stop-color="#8B8BE0"/>
<stop offset="1" stop-color="#A177B7"/>
</linearGradient>
<linearGradient id="paint1_linear_20_2855" x1="397.341" y1="512.264" x2="397.341" y2="485.272" gradientUnits="userSpaceOnUse">
<stop stop-color="#1C257B"/>
<stop offset="1" stop-color="#482C83"/>
</linearGradient>
<linearGradient id="paint2_linear_20_2855" x1="397.341" y1="485.272" x2="397.341" y2="96.2389" gradientUnits="userSpaceOnUse">
<stop stop-color="#744FD8"/>
<stop offset="1" stop-color="#3996F7"/>
</linearGradient>
<linearGradient id="paint3_linear_20_2855" x1="417.758" y1="81.2013" x2="417.758" y2="50.981" gradientUnits="userSpaceOnUse">
<stop stop-color="#1C257B"/>
<stop offset="1" stop-color="#482C83"/>
</linearGradient>
<linearGradient id="paint4_linear_20_2855" x1="395.898" y1="468.25" x2="395.898" y2="59.5089" gradientUnits="userSpaceOnUse">
<stop stop-color="#D1BBFF"/>
<stop offset="1" stop-color="#EFEAFF"/>
</linearGradient>
<linearGradient id="paint5_linear_20_2855" x1="264.669" y1="139.786" x2="439.452" y2="139.786" gradientUnits="userSpaceOnUse">
<stop stop-color="#8B8BE0"/>
<stop offset="1" stop-color="#A177B7"/>
</linearGradient>
<linearGradient id="paint6_linear_20_2855" x1="236.761" y1="285.601" x2="416.28" y2="285.601" gradientUnits="userSpaceOnUse">
<stop stop-color="#8B8BE0"/>
<stop offset="1" stop-color="#A177B7"/>
</linearGradient>
<linearGradient id="paint7_linear_20_2855" x1="230.431" y1="352.609" x2="408.569" y2="352.609" gradientUnits="userSpaceOnUse">
<stop stop-color="#8B8BE0"/>
<stop offset="1" stop-color="#A177B7"/>
</linearGradient>
<linearGradient id="paint8_linear_20_2855" x1="250.364" y1="211.185" x2="432.803" y2="211.185" gradientUnits="userSpaceOnUse">
<stop stop-color="#8B8BE0"/>
<stop offset="1" stop-color="#A177B7"/>
</linearGradient>
<linearGradient id="paint9_linear_20_2855" x1="255.454" y1="173.161" x2="476.999" y2="173.161" gradientUnits="userSpaceOnUse">
<stop stop-color="#8B8BE0"/>
<stop offset="1" stop-color="#A177B7"/>
</linearGradient>
<linearGradient id="paint10_linear_20_2855" x1="241.221" y1="249.421" x2="476.99" y2="249.421" gradientUnits="userSpaceOnUse">
<stop stop-color="#8B8BE0"/>
<stop offset="1" stop-color="#A177B7"/>
</linearGradient>
<linearGradient id="paint11_linear_20_2855" x1="228.379" y1="319.613" x2="476.98" y2="319.613" gradientUnits="userSpaceOnUse">
<stop stop-color="#8B8BE0"/>
<stop offset="1" stop-color="#A177B7"/>
</linearGradient>
<linearGradient id="paint12_linear_20_2855" x1="217.22" y1="384.609" x2="476.995" y2="384.609" gradientUnits="userSpaceOnUse">
<stop stop-color="#8B8BE0"/>
<stop offset="1" stop-color="#A177B7"/>
</linearGradient>
<linearGradient id="paint13_linear_20_2855" x1="476.457" y1="449.316" x2="597.775" y2="449.316" gradientUnits="userSpaceOnUse">
<stop stop-color="#8B8BE0"/>
<stop offset="1" stop-color="#A177B7"/>
</linearGradient>
<linearGradient id="paint14_linear_20_2855" x1="395.898" y1="468.25" x2="395.898" y2="60.6634" gradientUnits="userSpaceOnUse">
<stop stop-color="#8B8BE0"/>
<stop offset="1" stop-color="white"/>
</linearGradient>
<linearGradient id="paint15_linear_20_2855" x1="379.383" y1="57.2452" x2="468.172" y2="57.2452" gradientUnits="userSpaceOnUse">
<stop stop-color="#B9ACF4"/>
<stop offset="1" stop-color="#E1D1F5"/>
</linearGradient>
</defs>
</svg>
