<svg width="190" height="80" viewBox="0 0 190 80" fill="none" xmlns="http://www.w3.org/2000/svg">
<rect width="80" height="80" rx="40" fill="white"/>
<path d="M19.9153 42.2683L47.6523 61.618C47.9724 61.8412 48.347 61.9719 48.7356 61.996C49.1241 62.02 49.5117 61.9365 49.8565 61.7545C50.2013 61.5724 50.4901 61.2988 50.6917 60.9633C50.8932 60.6277 50.9999 60.243 51 59.8508V21.1514C51.0003 20.759 50.8939 20.374 50.6925 20.0381C50.4911 19.7022 50.2023 19.4283 49.8575 19.246C49.5126 19.0637 49.1248 18.9801 48.7361 19.004C48.3474 19.028 47.9726 19.1587 47.6523 19.382L19.9153 38.7317C19.6327 38.9304 19.4019 39.1949 19.2426 39.5028C19.0832 39.8107 19 40.1528 19 40.5C19 40.8472 19.0832 41.1893 19.2426 41.4972C19.4019 41.8051 19.6327 42.0696 19.9153 42.2683Z" fill="#13103B"/>
<path d="M19.9153 42.2683L47.6523 61.618C47.9724 61.8412 48.347 61.9719 48.7356 61.996C49.1241 62.02 49.5117 61.9365 49.8565 61.7545C50.2013 61.5724 50.4901 61.2988 50.6917 60.9633C50.8932 60.6277 50.9999 60.243 51 59.8508V21.1514C51.0003 20.759 50.8939 20.374 50.6925 20.0381C50.4911 19.7022 50.2023 19.4283 49.8575 19.246C49.5126 19.0637 49.1248 18.9801 48.7361 19.004C48.3474 19.028 47.9726 19.1587 47.6523 19.382L19.9153 38.7317C19.6327 38.9304 19.4019 39.1949 19.2426 39.5028C19.0832 39.8107 19 40.1528 19 40.5C19 40.8472 19.0832 41.1893 19.2426 41.4972C19.4019 41.8051 19.6327 42.0696 19.9153 42.2683Z" fill="url(#paint0_linear_19_1637)" fill-opacity="0.5"/>
<rect x="110" width="80" height="80" rx="40" fill="url(#paint1_linear_19_1637)"/>
<path d="M170.085 42.2683L142.348 61.618C142.028 61.8412 141.653 61.9719 141.264 61.996C140.876 62.02 140.488 61.9365 140.143 61.7545C139.799 61.5724 139.51 61.2988 139.308 60.9633C139.107 60.6277 139 60.243 139 59.8508V21.1514C139 20.759 139.106 20.374 139.307 20.0381C139.509 19.7022 139.798 19.4283 140.143 19.246C140.487 19.0637 140.875 18.9801 141.264 19.004C141.653 19.028 142.027 19.1587 142.348 19.382L170.085 38.7317C170.367 38.9304 170.598 39.1949 170.757 39.5028C170.917 39.8107 171 40.1528 171 40.5C171 40.8472 170.917 41.1893 170.757 41.4972C170.598 41.8051 170.367 42.0696 170.085 42.2683Z" fill="white"/>
<defs>
<linearGradient id="paint0_linear_19_1637" x1="29.9417" y1="37.8324" x2="29.799" y2="19.0009" gradientUnits="userSpaceOnUse">
<stop/>
<stop offset="1" stop-opacity="0"/>
</linearGradient>
<linearGradient id="paint1_linear_19_1637" x1="110" y1="39.7861" x2="190" y2="39.7861" gradientUnits="userSpaceOnUse">
<stop stop-color="#00C3EE"/>
<stop offset="1" stop-color="#E100E6"/>
</linearGradient>
</defs>
</svg>
