<svg width="164" height="121" viewBox="0 0 164 121" fill="none" xmlns="http://www.w3.org/2000/svg">
<path d="M35.9483 111.105L34.7578 112.588L46.1747 119.224L43.7937 110.324C41.0029 111.085 38.3683 111.339 35.9483 111.105Z" fill="white"/>
<path d="M81.1849 45.532L90.1234 43.073L78.6869 36.418L77.9062 38.4281C79.3309 40.3798 80.4433 42.7607 81.1849 45.532Z" fill="white"/>
<path d="M66.0632 60.8899C66.0242 60.5386 65.9852 60.1873 65.9071 59.8556C65.8681 59.6604 65.8095 59.4848 65.7509 59.2896C65.6729 58.9969 65.6144 58.7236 65.5363 58.4504C65.4777 58.2552 65.3996 58.0991 65.3216 57.904C65.224 57.6502 65.146 57.3965 65.0289 57.1819C64.9508 57.0062 64.8532 56.8501 64.7557 56.694C64.6386 56.4793 64.5409 56.2646 64.4043 56.0694C64.3067 55.9133 64.1702 55.7767 64.0726 55.6206C63.936 55.4449 63.8189 55.2498 63.6628 55.0936C63.5457 54.957 63.409 54.8399 63.2724 54.7033C63.1163 54.5472 62.9797 54.3911 62.8235 54.274C62.6869 54.1569 62.5308 54.0593 62.3747 53.9617C60.0718 52.3614 56.9297 52.1857 53.3777 53.669C53.4558 54.313 53.5144 54.996 53.5144 55.7181C53.5144 56.2646 53.4948 56.7915 53.4558 57.3575C53.4363 57.5332 53.4168 57.7088 53.3973 57.8844C53.3582 58.2357 53.3192 58.587 53.2606 58.9383C53.2021 59.3286 53.124 59.719 53.0655 60.1093C53.0069 60.3825 52.9679 60.6557 52.9094 60.929C52.8508 61.1827 52.7923 61.4364 52.7337 61.6901C52.6361 62.0414 52.558 62.3927 52.4605 62.744C52.4019 62.9391 52.3434 63.1538 52.2653 63.349C52.1482 63.7393 52.0116 64.1491 51.875 64.5394C51.8165 64.6956 51.7579 64.8712 51.6994 65.0273C51.5042 65.5738 51.27 66.1203 51.0358 66.6472C51.0163 66.7057 50.9773 66.7643 50.9577 66.8228C50.7431 67.3107 50.5284 67.7791 50.2747 68.2475C50.1966 68.4036 50.1185 68.5402 50.0405 68.6964C49.8063 69.1452 49.5721 69.5746 49.3184 70.0235C49.2598 70.121 49.2208 70.1991 49.1622 70.2967C48.8695 70.8041 48.5573 71.3115 48.2255 71.819C48.1279 71.9556 48.0303 72.1117 47.9328 72.2483C47.6986 72.5996 47.4449 72.9509 47.1911 73.3022C47.0545 73.4973 46.9179 73.673 46.7813 73.8682C46.5666 74.1609 46.3324 74.4341 46.1177 74.7269C45.9226 74.9611 45.7274 75.1953 45.5323 75.4294C45.3566 75.6441 45.1614 75.8588 44.9663 76.0735C44.6345 76.4248 44.3222 76.7761 43.9905 77.1273C43.7758 77.342 43.5806 77.5567 43.3659 77.7519C43.2098 77.908 43.0342 78.0641 42.8586 78.2203C42.5853 78.474 42.3121 78.7081 42.0193 78.9423C41.8437 79.079 41.6876 79.2156 41.5119 79.3522C41.1997 79.5864 40.8874 79.8206 40.5751 80.0548C40.419 80.1719 40.2824 80.2694 40.1263 80.3865C39.6579 80.6988 39.1895 81.0111 38.7212 81.2843C38.2723 81.5575 37.8234 81.7722 37.3745 81.9869C37.2574 82.0454 37.1403 82.104 37.0232 82.143C36.9256 82.182 36.828 82.2211 36.7305 82.2601C37.1598 85.8511 38.7016 88.4077 40.9655 89.7153C41.2778 89.8909 41.59 90.0275 41.9218 90.1641C41.9998 90.1836 42.0584 90.2227 42.1365 90.2422C42.156 90.2422 42.1755 90.2617 42.1755 90.2617C42.4292 90.3593 42.7024 90.4373 42.9951 90.4959C43.0732 90.5154 43.1318 90.5349 43.2098 90.5544C43.2294 90.5544 43.2294 90.5544 43.2294 90.5544C43.5807 90.613 43.9515 90.6715 44.3223 90.6911C44.3808 90.6911 44.4394 90.6911 44.4979 90.6911C44.5174 90.6911 44.5565 90.6911 44.576 90.6911C44.8687 90.6911 45.181 90.691 45.4737 90.6715C45.6103 90.652 45.7469 90.652 45.9031 90.6325H45.9225C46.1763 90.5935 46.43 90.5545 46.6837 90.5154C46.8789 90.4764 47.074 90.4373 47.2692 90.3983H47.2887C47.5034 90.3398 47.7181 90.2812 47.9328 90.2227C48.2645 90.1251 48.6158 90.008 48.9671 89.8714C48.9671 89.8714 48.9671 89.8714 48.9866 89.8714C49.2208 89.7738 49.4745 89.6957 49.7087 89.5786C49.8258 89.5201 49.9429 89.481 50.06 89.4225C50.5089 89.2078 50.9578 88.9931 51.4066 88.7199C51.875 88.4467 52.3434 88.1344 52.8118 87.8222C52.9679 87.7246 53.1045 87.6075 53.2606 87.4904C53.4168 87.3928 53.5534 87.2757 53.69 87.1586C53.8461 87.0415 54.0218 86.9244 54.1779 86.7878C54.3535 86.6512 54.5097 86.5146 54.6853 86.378C54.8415 86.2414 54.9976 86.1048 55.1342 85.9682C55.2513 85.8511 55.3879 85.7535 55.505 85.6364C55.6611 85.4802 55.8367 85.3241 55.9929 85.168C56.2076 84.9728 56.4222 84.7582 56.6174 84.5435C56.9492 84.2117 57.281 83.8604 57.5932 83.4896C57.7884 83.2749 57.9836 83.0602 58.1592 82.8456C58.3544 82.6114 58.5495 82.3772 58.7252 82.143C58.9594 81.8698 59.174 81.577 59.3887 81.2843C59.5253 81.1086 59.6619 80.9135 59.7985 80.7183C60.0523 80.367 60.2865 80.0157 60.5402 79.6644C60.6378 79.5278 60.7353 79.3912 60.8134 79.2351C61.1256 78.7277 61.4379 78.2398 61.7502 77.7128C61.8087 77.6152 61.8477 77.5372 61.9063 77.4396C62.16 77.0103 62.3942 76.5614 62.6284 76.1125C62.7065 75.9564 62.7845 75.8198 62.8626 75.6636C63.0968 75.1952 63.331 74.7073 63.5261 74.239C63.5457 74.1804 63.5847 74.1024 63.6042 74.0438C63.8384 73.4974 64.0531 72.9704 64.2678 72.424C64.3263 72.2678 64.3848 72.0922 64.4434 71.9361C64.58 71.5457 64.7166 71.1554 64.8337 70.7456C64.8922 70.5504 64.9703 70.3357 65.0289 70.1406C65.1264 69.7893 65.224 69.438 65.3021 69.0867C65.3607 68.833 65.4387 68.5793 65.4973 68.3256C65.5558 68.0524 65.5948 67.7791 65.6534 67.5254C65.7314 67.1351 65.79 66.7448 65.8486 66.3544C65.9071 66.0032 65.9462 65.6519 65.9852 65.281C66.0047 65.1054 66.0242 64.9298 66.0437 64.7736C66.0828 64.2272 66.1023 63.6807 66.1023 63.1343C66.1023 62.5488 66.0632 61.9828 66.0242 61.4559C66.1218 61.2217 66.0827 61.0656 66.0632 60.8899Z" fill="white"/>
<path d="M15.5954 99.375L12.746 100.175L11.4774 99.4335L7.61328 109.328L20.3182 116.705L24.9631 104.82L15.5954 99.375Z" fill="white"/>
<path d="M57.3969 26.6393L66.9012 32.1623L74.9028 22.1701L62.1979 14.793L55.4062 23.263L56.6943 24.0241L57.3969 26.6393Z" fill="white"/>
<path d="M21.6828 97.7344L15.6133 99.3932L24.9615 104.838C23.5173 102.867 22.4049 100.486 21.6828 97.7344Z" fill="white"/>
<path d="M59.0963 32.9248C60.9308 32.4174 62.6678 32.1637 64.3462 32.1051C64.4438 32.1051 64.5218 32.0856 64.6194 32.0856C64.9902 32.0856 65.361 32.0856 65.7123 32.1051C66.0051 32.1051 66.2783 32.1247 66.571 32.1442C66.6881 32.1442 66.7857 32.1442 66.9028 32.1637L57.3984 26.6406L59.0963 32.9248Z" fill="white"/>
<path d="M21.9743 78.3972C22.1499 77.6556 22.3255 76.9335 22.5207 76.1919C22.6183 75.8211 22.7159 75.4503 22.8134 75.099C23.3989 73.0888 24.0625 71.0787 24.8627 69.0685L12.1576 61.6914C12.0796 61.8671 12.0211 62.0622 11.943 62.2574C11.8259 62.5696 11.7283 62.8819 11.6112 63.1746C11.416 63.7211 11.2209 64.248 11.0257 64.7945C10.9867 64.9116 10.9477 65.0287 10.9086 65.1458C10.8306 65.3995 10.7525 65.6727 10.6744 65.9264C10.4792 66.5314 10.3036 67.1364 10.128 67.7414C10.0889 67.917 10.0304 68.0732 9.97185 68.2488C9.9133 68.444 9.87424 68.6391 9.81569 68.8538C9.62053 69.5954 9.44489 70.337 9.26924 71.0591C9.21069 71.2738 9.15217 71.4885 9.11314 71.7227C9.05459 72.0154 8.99605 72.2887 8.9375 72.5814L21.6425 79.9585C21.7206 79.4121 21.8572 78.9046 21.9743 78.3972Z" fill="white"/>
<path d="M35.7753 50.1168C36.8487 48.7702 37.9611 47.5016 39.093 46.2721C39.2101 46.1355 39.3273 46.0184 39.4444 45.8818C39.8542 45.4329 40.3031 45.0036 40.7324 44.5742C40.9081 44.3986 41.0837 44.2229 41.2594 44.0473C42.0205 43.3057 42.8011 42.5641 43.5818 41.881L30.8768 34.5039C30.0961 35.2065 29.3155 35.9286 28.5543 36.6702C28.4763 36.7287 28.4178 36.8068 28.3397 36.8654C27.9884 37.2166 27.6371 37.5875 27.2858 37.9387C27.1102 38.1339 26.915 38.3095 26.7394 38.5047C26.1344 39.1487 25.5489 39.7928 24.9634 40.4563C24.9439 40.4758 24.9438 40.4758 24.9438 40.4954C24.2998 41.237 23.6753 41.9786 23.0703 42.7592L35.7753 50.1168Z" fill="white"/>
<path d="M21.6239 79.9005L8.91889 72.5234L0 80.408L12.705 87.785L21.6239 79.9005Z" fill="white"/>
<path d="M12.705 87.7833L0 80.4062L0.0390704 92.7795L11.4755 99.4345L12.744 100.176L12.705 87.7833Z" fill="white"/>
<path d="M45.9219 30.2482L33.217 22.8516L30.875 34.4832L43.58 41.8798L45.9219 30.2482Z" fill="white"/>
<path d="M56.6927 24.0255L55.4047 23.2644L43.9877 16.6484L33.2148 22.8546L45.9198 30.2512L56.6927 24.0255Z" fill="white"/>
<path d="M20.162 62.549L7.47656 55.1719L12.1604 61.6707L24.8654 69.0674L20.162 62.549Z" fill="white"/>
<path d="M35.7731 50.1187L23.0876 42.7416L15.0664 42L27.7714 49.3966L35.7731 50.1187Z" fill="white"/>
<path d="M27.7733 49.3966L15.0683 42L7.47656 55.1734L20.162 62.5505L27.7733 49.3966Z" fill="white"/>
<path d="M81.2438 63.347L90.1822 55.4625L90.1431 43.0698L81.2047 45.5288C80.4631 42.7575 79.3507 40.3961 77.926 38.4444L78.7067 36.4343L82.5514 26.5396L74.901 22.1875L66.8994 32.1602C66.8018 32.1407 66.6847 32.1603 66.5676 32.1407C66.2944 32.1212 66.0017 32.1017 65.7089 32.1017C65.3381 32.0822 64.9868 32.0822 64.616 32.0822C64.5185 32.0822 64.4404 32.1017 64.3428 32.1017C62.6644 32.1602 60.9079 32.4335 59.0929 32.9214L57.4146 26.6177L56.712 24.0025L45.9391 30.2282L43.6167 41.8598C42.836 42.5623 42.0554 43.2844 41.2942 44.0261C41.1186 44.2017 40.943 44.3774 40.7673 44.553C40.338 44.9824 39.9086 45.4117 39.4793 45.8606C39.3622 45.9777 39.2451 46.1143 39.128 46.2509C37.9765 47.4804 36.8641 48.7685 35.8102 50.0956L27.7891 49.354L20.1973 62.5078L24.8812 69.0262C24.1005 71.0364 23.4175 73.0465 22.832 75.0567C22.7344 75.4275 22.6368 75.7983 22.5393 76.1496C22.3441 76.8912 22.1685 77.6328 21.9928 78.3549C21.8757 78.8624 21.7586 79.3698 21.661 79.8577L12.7227 87.7227L12.7617 100.115L15.6305 99.3348L21.7001 97.6759C22.4222 100.447 23.5346 102.809 24.9788 104.76L20.3339 116.646L27.9843 120.998L34.7759 112.528L35.9664 111.044C38.3864 111.279 41.0015 111.044 43.7923 110.264L46.1733 119.163L56.9462 112.938L59.2686 101.306C62.0399 98.8859 64.6551 96.0951 67.0555 93.0701L75.0766 93.7922L82.6684 80.6383L77.9846 74.1394C79.4288 70.5875 80.5217 66.938 81.2438 63.347ZM66.0993 65.2401C66.0602 65.5914 66.0212 65.9427 65.9627 66.3135C65.9041 66.7038 65.8455 67.0941 65.7675 67.4845C65.7089 67.7577 65.6699 68.0309 65.6114 68.2846C65.5528 68.5383 65.4943 68.792 65.4162 69.0457C65.3186 69.397 65.2405 69.7483 65.1429 70.0996C65.0844 70.2948 65.0258 70.5094 64.9478 70.7046C64.8307 71.0949 64.6941 71.4852 64.5575 71.8951C64.4989 72.0512 64.4404 72.2269 64.3819 72.383C64.1867 72.9294 63.9525 73.4759 63.7183 74.0028C63.6988 74.0614 63.6597 74.1394 63.6207 74.198C63.406 74.6859 63.1913 75.1543 62.9572 75.6227C62.8791 75.7788 62.801 75.9154 62.723 76.0715C62.4888 76.5204 62.2546 76.9498 62.0009 77.3986C61.9423 77.4962 61.9033 77.5743 61.8447 77.6719C61.552 78.1793 61.2398 78.6867 60.908 79.1941C60.8104 79.3307 60.7128 79.4673 60.6347 79.6235C60.4005 79.9748 60.1468 80.3456 59.8931 80.6773C59.7565 80.8725 59.6199 81.0481 59.4833 81.2433C59.2686 81.5361 59.0344 81.8093 58.8197 82.102C58.6246 82.3362 58.4489 82.5704 58.2538 82.8046C58.0586 83.0193 57.883 83.234 57.6878 83.4486C57.3756 83.7999 57.0438 84.1512 56.712 84.5025C56.4973 84.7172 56.3022 84.9319 56.0875 85.127C55.9314 85.2831 55.7557 85.4393 55.5996 85.5954C55.4825 85.7125 55.3459 85.8101 55.2288 85.9272C54.7604 86.337 54.2725 86.7469 53.7846 87.1177C53.648 87.2348 53.4919 87.3323 53.3553 87.4494C53.1991 87.547 53.0625 87.6641 52.9064 87.7812C52.438 88.0935 51.9696 88.4057 51.5012 88.679C50.9352 89.0107 50.3693 89.284 49.8033 89.5377C49.5496 89.6548 49.3154 89.7328 49.0812 89.8304C48.7299 89.967 48.3786 90.0841 48.0273 90.1817C47.8126 90.2402 47.5979 90.3183 47.3833 90.3574C47.1686 90.4159 46.9734 90.4549 46.7783 90.4939C46.5246 90.5525 46.2709 90.5915 46.0172 90.611C45.861 90.6306 45.7244 90.6501 45.5683 90.6501C45.256 90.6696 44.9633 90.6696 44.6705 90.6696C44.5925 90.6696 44.4949 90.6696 44.4168 90.6696C44.046 90.6501 43.6752 90.6111 43.3239 90.533C43.2459 90.5135 43.1678 90.494 43.0702 90.4744C42.797 90.4159 42.5238 90.3378 42.2506 90.2403C42.153 90.2012 42.0749 90.1817 41.9773 90.1427C41.6455 90.0061 41.3333 89.8694 41.021 89.6938C38.7572 88.4057 37.2154 85.8296 36.786 82.2386C36.708 81.5751 36.6494 80.9115 36.6494 80.1894C36.6299 70.8217 43.2459 59.3853 51.3841 54.6624C52.0672 54.272 52.7307 53.9598 53.3747 53.6865C56.9267 52.1838 60.0883 52.379 62.3717 53.9793C62.5278 54.0769 62.6839 54.1744 62.8205 54.2915C62.9767 54.4282 63.1328 54.5843 63.2694 54.7209C63.406 54.8575 63.5427 54.9551 63.6598 55.1112C63.7964 55.2673 63.933 55.4625 64.0696 55.6382C64.1867 55.7943 64.3037 55.9309 64.4013 56.087C64.5379 56.2822 64.6356 56.4969 64.7527 56.7115C64.8502 56.8872 64.9478 57.0238 65.0259 57.1994C65.143 57.4336 65.221 57.6874 65.3186 57.9215C65.3967 58.0972 65.4747 58.2728 65.5333 58.468C65.6114 58.7412 65.6894 59.034 65.7479 59.3072C65.787 59.5023 65.8456 59.678 65.9041 59.8732C65.9627 60.2049 66.0017 60.5562 66.0602 60.9075C66.0797 61.0832 66.1188 61.2393 66.1383 61.4344C66.1968 61.9809 66.2164 62.5273 66.2164 63.1128C66.2164 63.7959 66.1578 64.518 66.0993 65.2401Z" fill="white"/>
<path opacity="0.2" d="M35.9483 111.105L34.7578 112.588L46.1747 119.224L43.7937 110.324C41.0029 111.085 38.3683 111.339 35.9483 111.105Z" fill="black"/>
<path opacity="0.2" d="M81.1849 45.532L90.1234 43.073L78.6869 36.418L77.9062 38.4281C79.3309 40.3798 80.4433 42.7607 81.1849 45.532Z" fill="black"/>
<path opacity="0.2" d="M66.0632 60.8899C66.0242 60.5386 65.9852 60.1873 65.9071 59.8556C65.8681 59.6604 65.8095 59.4848 65.7509 59.2896C65.6729 58.9969 65.6144 58.7236 65.5363 58.4504C65.4777 58.2552 65.3996 58.0991 65.3216 57.904C65.224 57.6502 65.146 57.3965 65.0289 57.1819C64.9508 57.0062 64.8532 56.8501 64.7557 56.694C64.6386 56.4793 64.5409 56.2646 64.4043 56.0694C64.3067 55.9133 64.1702 55.7767 64.0726 55.6206C63.936 55.4449 63.8189 55.2498 63.6628 55.0936C63.5457 54.957 63.409 54.8399 63.2724 54.7033C63.1163 54.5472 62.9797 54.3911 62.8235 54.274C62.6869 54.1569 62.5308 54.0593 62.3747 53.9617C60.0718 52.3614 56.9297 52.1857 53.3777 53.669C53.4558 54.313 53.5144 54.996 53.5144 55.7181C53.5144 56.2646 53.4948 56.7915 53.4558 57.3575C53.4363 57.5332 53.4168 57.7088 53.3973 57.8844C53.3582 58.2357 53.3192 58.587 53.2606 58.9383C53.2021 59.3286 53.124 59.719 53.0655 60.1093C53.0069 60.3825 52.9679 60.6557 52.9094 60.929C52.8508 61.1827 52.7923 61.4364 52.7337 61.6901C52.6361 62.0414 52.558 62.3927 52.4605 62.744C52.4019 62.9391 52.3434 63.1538 52.2653 63.349C52.1482 63.7393 52.0116 64.1491 51.875 64.5394C51.8165 64.6956 51.7579 64.8712 51.6994 65.0273C51.5042 65.5738 51.27 66.1203 51.0358 66.6472C51.0163 66.7057 50.9773 66.7643 50.9577 66.8228C50.7431 67.3107 50.5284 67.7791 50.2747 68.2475C50.1966 68.4036 50.1185 68.5402 50.0405 68.6964C49.8063 69.1452 49.5721 69.5746 49.3184 70.0235C49.2598 70.121 49.2208 70.1991 49.1622 70.2967C48.8695 70.8041 48.5573 71.3115 48.2255 71.819C48.1279 71.9556 48.0303 72.1117 47.9328 72.2483C47.6986 72.5996 47.4449 72.9509 47.1911 73.3022C47.0545 73.4973 46.9179 73.673 46.7813 73.8682C46.5666 74.1609 46.3324 74.4341 46.1177 74.7269C45.9226 74.9611 45.7274 75.1953 45.5323 75.4294C45.3566 75.6441 45.1614 75.8588 44.9663 76.0735C44.6345 76.4248 44.3222 76.7761 43.9905 77.1273C43.7758 77.342 43.5806 77.5567 43.3659 77.7519C43.2098 77.908 43.0342 78.0641 42.8586 78.2203C42.5853 78.474 42.3121 78.7081 42.0193 78.9423C41.8437 79.079 41.6876 79.2156 41.5119 79.3522C41.1997 79.5864 40.8874 79.8206 40.5751 80.0548C40.419 80.1719 40.2824 80.2694 40.1263 80.3865C39.6579 80.6988 39.1895 81.0111 38.7212 81.2843C38.2723 81.5575 37.8234 81.7722 37.3745 81.9869C37.2574 82.0454 37.1403 82.104 37.0232 82.143C36.9256 82.182 36.828 82.2211 36.7305 82.2601C37.1598 85.8511 38.7016 88.4077 40.9655 89.7153C41.2778 89.8909 41.59 90.0275 41.9218 90.1641C41.9998 90.1836 42.0584 90.2227 42.1365 90.2422C42.156 90.2422 42.1755 90.2617 42.1755 90.2617C42.4292 90.3593 42.7024 90.4373 42.9951 90.4959C43.0732 90.5154 43.1318 90.5349 43.2098 90.5544C43.2294 90.5544 43.2294 90.5544 43.2294 90.5544C43.5807 90.613 43.9515 90.6715 44.3223 90.6911C44.3808 90.6911 44.4394 90.6911 44.4979 90.6911C44.5174 90.6911 44.5565 90.6911 44.576 90.6911C44.8687 90.6911 45.181 90.691 45.4737 90.6715C45.6103 90.652 45.7469 90.652 45.9031 90.6325H45.9225C46.1763 90.5935 46.43 90.5545 46.6837 90.5154C46.8789 90.4764 47.074 90.4373 47.2692 90.3983H47.2887C47.5034 90.3398 47.7181 90.2812 47.9328 90.2227C48.2645 90.1251 48.6158 90.008 48.9671 89.8714C48.9671 89.8714 48.9671 89.8714 48.9866 89.8714C49.2208 89.7738 49.4745 89.6957 49.7087 89.5786C49.8258 89.5201 49.9429 89.481 50.06 89.4225C50.5089 89.2078 50.9578 88.9931 51.4066 88.7199C51.875 88.4467 52.3434 88.1344 52.8118 87.8222C52.9679 87.7246 53.1045 87.6075 53.2606 87.4904C53.4168 87.3928 53.5534 87.2757 53.69 87.1586C53.8461 87.0415 54.0218 86.9244 54.1779 86.7878C54.3535 86.6512 54.5097 86.5146 54.6853 86.378C54.8415 86.2414 54.9976 86.1048 55.1342 85.9682C55.2513 85.8511 55.3879 85.7535 55.505 85.6364C55.6611 85.4802 55.8367 85.3241 55.9929 85.168C56.2076 84.9728 56.4222 84.7582 56.6174 84.5435C56.9492 84.2117 57.281 83.8604 57.5932 83.4896C57.7884 83.2749 57.9836 83.0602 58.1592 82.8456C58.3544 82.6114 58.5495 82.3772 58.7252 82.143C58.9594 81.8698 59.174 81.577 59.3887 81.2843C59.5253 81.1086 59.6619 80.9135 59.7985 80.7183C60.0523 80.367 60.2865 80.0157 60.5402 79.6644C60.6378 79.5278 60.7353 79.3912 60.8134 79.2351C61.1256 78.7277 61.4379 78.2398 61.7502 77.7128C61.8087 77.6152 61.8477 77.5372 61.9063 77.4396C62.16 77.0103 62.3942 76.5614 62.6284 76.1125C62.7065 75.9564 62.7845 75.8198 62.8626 75.6636C63.0968 75.1952 63.331 74.7073 63.5261 74.239C63.5457 74.1804 63.5847 74.1024 63.6042 74.0438C63.8384 73.4974 64.0531 72.9704 64.2678 72.424C64.3263 72.2678 64.3848 72.0922 64.4434 71.9361C64.58 71.5457 64.7166 71.1554 64.8337 70.7456C64.8922 70.5504 64.9703 70.3357 65.0289 70.1406C65.1264 69.7893 65.224 69.438 65.3021 69.0867C65.3607 68.833 65.4387 68.5793 65.4973 68.3256C65.5558 68.0524 65.5948 67.7791 65.6534 67.5254C65.7314 67.1351 65.79 66.7448 65.8486 66.3544C65.9071 66.0032 65.9462 65.6519 65.9852 65.281C66.0047 65.1054 66.0242 64.9298 66.0437 64.7736C66.0828 64.2272 66.1023 63.6807 66.1023 63.1343C66.1023 62.5488 66.0632 61.9828 66.0242 61.4559C66.1218 61.2217 66.0827 61.0656 66.0632 60.8899Z" fill="black"/>
<path opacity="0.2" d="M15.5954 99.375L12.746 100.175L11.4774 99.4335L7.61328 109.328L20.3182 116.705L24.9631 104.82L15.5954 99.375Z" fill="black"/>
<path opacity="0.2" d="M21.6828 97.7344L15.6133 99.3932L24.9615 104.838C23.5173 102.867 22.4049 100.486 21.6828 97.7344Z" fill="black"/>
<path opacity="0.2" d="M59.0963 32.9248C60.9308 32.4174 62.6678 32.1637 64.3462 32.1051C64.4438 32.1051 64.5218 32.0856 64.6194 32.0856C64.9902 32.0856 65.361 32.0856 65.7123 32.1051C66.0051 32.1051 66.2783 32.1247 66.571 32.1442C66.6881 32.1442 66.7857 32.1442 66.9028 32.1637L57.3984 26.6406L59.0963 32.9248Z" fill="black"/>
<path opacity="0.2" d="M21.9743 78.3972C22.1499 77.6556 22.3255 76.9335 22.5207 76.1919C22.6183 75.8211 22.7159 75.4503 22.8134 75.099C23.3989 73.0888 24.0625 71.0787 24.8627 69.0685L12.1576 61.6914C12.0796 61.8671 12.0211 62.0622 11.943 62.2574C11.8259 62.5696 11.7283 62.8819 11.6112 63.1746C11.416 63.7211 11.2209 64.248 11.0257 64.7945C10.9867 64.9116 10.9477 65.0287 10.9086 65.1458C10.8306 65.3995 10.7525 65.6727 10.6744 65.9264C10.4792 66.5314 10.3036 67.1364 10.128 67.7414C10.0889 67.917 10.0304 68.0732 9.97185 68.2488C9.9133 68.444 9.87424 68.6391 9.81569 68.8538C9.62053 69.5954 9.44489 70.337 9.26924 71.0591C9.21069 71.2738 9.15217 71.4885 9.11314 71.7227C9.05459 72.0154 8.99605 72.2887 8.9375 72.5814L21.6425 79.9585C21.7206 79.4121 21.8572 78.9046 21.9743 78.3972Z" fill="black"/>
<path opacity="0.2" d="M12.705 87.7833L0 80.4062L0.0390704 92.7795L11.4755 99.4345L12.744 100.176L12.705 87.7833Z" fill="black"/>
<path opacity="0.2" d="M45.9219 30.2482L33.217 22.8516L30.875 34.4832L43.58 41.8798L45.9219 30.2482Z" fill="black"/>
<path opacity="0.2" d="M20.162 62.549L7.47656 55.1719L12.1604 61.6707L24.8654 69.0674L20.162 62.549Z" fill="black"/>
<path opacity="0.2" d="M35.7731 50.1187L23.0876 42.7416L15.0664 42L27.7714 49.3966L35.7731 50.1187Z" fill="black"/>
<path opacity="0.2" d="M57.3969 26.6393L66.9012 32.1623L74.9028 22.1701L62.1979 14.793L55.4062 23.263L56.6943 24.0241L57.3969 26.6393Z" fill="white"/>
<path opacity="0.2" d="M35.7753 50.1168C36.8487 48.7702 37.9611 47.5016 39.093 46.2721C39.2101 46.1355 39.3273 46.0184 39.4444 45.8818C39.8542 45.4329 40.3031 45.0036 40.7324 44.5742C40.9081 44.3986 41.0837 44.2229 41.2594 44.0473C42.0205 43.3057 42.8011 42.5641 43.5818 41.881L30.8768 34.5039C30.0961 35.2065 29.3155 35.9286 28.5543 36.6702C28.4763 36.7287 28.4178 36.8068 28.3397 36.8654C27.9884 37.2166 27.6371 37.5875 27.2858 37.9387C27.1102 38.1339 26.915 38.3095 26.7394 38.5047C26.1344 39.1487 25.5489 39.7928 24.9634 40.4563C24.9439 40.4758 24.9438 40.4758 24.9438 40.4954C24.2998 41.237 23.6753 41.9786 23.0703 42.7592L35.7753 50.1168Z" fill="white"/>
<path opacity="0.2" d="M21.6239 79.9005L8.91889 72.5234L0 80.408L12.705 87.785L21.6239 79.9005Z" fill="white"/>
<path opacity="0.2" d="M56.6927 24.0255L55.4047 23.2644L43.9877 16.6484L33.2148 22.8546L45.9198 30.2512L56.6927 24.0255Z" fill="white"/>
<path opacity="0.2" d="M27.7733 49.3966L15.0683 42L7.47656 55.1734L20.162 62.5505L27.7733 49.3966Z" fill="white"/>
<path d="M125.351 68.1324L124.512 69.1862L132.591 73.8701L130.893 67.5664C128.922 68.1324 127.068 68.2885 125.351 68.1324Z" fill="white"/>
<path d="M157.358 21.7411L163.681 20.0042L155.582 15.3008L155.035 16.7255C156.05 18.1111 156.831 19.7895 157.358 21.7411Z" fill="white"/>
<path d="M146.664 32.6129C146.625 32.3592 146.605 32.125 146.547 31.8908C146.527 31.7542 146.468 31.6176 146.449 31.481C146.39 31.2858 146.351 31.0711 146.293 30.876C146.254 30.7394 146.195 30.6223 146.137 30.4856C146.078 30.31 146 30.1344 145.942 29.9587C145.883 29.8416 145.805 29.7245 145.746 29.6074C145.668 29.4513 145.59 29.2952 145.493 29.1586C145.415 29.0415 145.337 28.9439 145.259 28.8463C145.161 28.7292 145.083 28.5926 144.966 28.4755C144.888 28.3779 144.771 28.2998 144.693 28.2023C144.595 28.1047 144.478 27.9876 144.361 27.89C144.263 27.812 144.146 27.7534 144.049 27.6753C142.429 26.5434 140.184 26.4068 137.686 27.4802C137.745 27.9486 137.784 28.4169 137.784 28.9244C137.784 29.2952 137.764 29.6855 137.745 30.0758C137.745 30.1929 137.725 30.3295 137.706 30.4466C137.686 30.7003 137.647 30.954 137.608 31.1882C137.569 31.4615 137.511 31.7347 137.472 32.0274C137.433 32.2226 137.393 32.4177 137.354 32.5934C137.315 32.769 137.276 32.9447 137.218 33.1203C137.159 33.374 137.081 33.6278 137.023 33.8619C136.984 33.9986 136.945 34.1547 136.886 34.2913C136.788 34.5645 136.71 34.8573 136.613 35.1305C136.574 35.2476 136.535 35.3647 136.496 35.4818C136.359 35.8721 136.203 36.2429 136.027 36.6332C136.008 36.6723 135.988 36.7113 135.969 36.7698C135.813 37.1016 135.657 37.4529 135.5 37.7847C135.442 37.8823 135.403 37.9994 135.344 38.0969C135.188 38.4092 135.013 38.7215 134.837 39.0337C134.798 39.0923 134.759 39.1508 134.739 39.2289C134.525 39.5997 134.31 39.951 134.076 40.3023C134.017 40.3999 133.939 40.4974 133.881 40.595C133.705 40.8487 133.529 41.1024 133.354 41.3366C133.256 41.4732 133.159 41.6098 133.061 41.7269C132.905 41.9221 132.749 42.1368 132.593 42.332C132.456 42.5076 132.319 42.6637 132.183 42.8199C132.046 42.976 131.909 43.1321 131.792 43.2687C131.558 43.5224 131.324 43.7761 131.09 44.0103C130.953 44.1665 130.797 44.3031 130.641 44.4592C130.524 44.5763 130.407 44.6739 130.29 44.791C130.094 44.9666 129.899 45.1423 129.704 45.2984C129.587 45.396 129.47 45.4936 129.353 45.5911C129.138 45.7668 128.923 45.9229 128.689 46.079C128.592 46.1571 128.475 46.2352 128.377 46.3132C128.045 46.5474 127.714 46.7426 127.382 46.9377C127.05 47.1329 126.738 47.289 126.425 47.4256C126.347 47.4647 126.269 47.5037 126.172 47.5428C126.094 47.5818 126.035 47.6013 125.957 47.6208C126.269 50.1579 127.343 51.9729 128.963 52.8902C129.177 53.0073 129.411 53.1049 129.626 53.2024C129.685 53.222 129.724 53.2415 129.782 53.261C129.802 53.261 129.802 53.261 129.821 53.2805C130.016 53.339 130.192 53.3976 130.387 53.4366C130.446 53.4561 130.485 53.4561 130.543 53.4757H130.563C130.817 53.5147 131.07 53.5537 131.324 53.5732C131.363 53.5732 131.402 53.5732 131.461 53.5732C131.48 53.5732 131.5 53.5732 131.519 53.5732C131.734 53.5732 131.948 53.5732 132.163 53.5537C132.261 53.5537 132.358 53.5342 132.456 53.5147H132.475C132.651 53.4952 132.846 53.4561 133.022 53.4366C133.158 53.4171 133.295 53.3781 133.432 53.339C133.432 53.339 133.432 53.339 133.451 53.339C133.607 53.3 133.763 53.261 133.9 53.2024C134.134 53.1244 134.388 53.0463 134.642 52.9487C134.817 52.8902 134.973 52.8121 135.149 52.734C135.227 52.695 135.305 52.656 135.383 52.6169C135.696 52.4608 136.008 52.3047 136.34 52.129C136.671 51.9339 137.003 51.7192 137.335 51.5045C137.433 51.4265 137.55 51.3484 137.647 51.2703C137.745 51.1923 137.862 51.1142 137.959 51.0361C138.077 50.9581 138.194 50.8605 138.311 50.7824C138.428 50.6848 138.545 50.5873 138.662 50.4897C138.779 50.3921 138.877 50.2945 138.994 50.197C139.091 50.1189 139.169 50.0408 139.267 49.9628C139.384 49.8652 139.501 49.7481 139.618 49.631C139.774 49.4944 139.911 49.3382 140.067 49.1821C140.301 48.9479 140.536 48.6942 140.77 48.4405C140.906 48.2844 141.043 48.1477 141.18 47.9916C141.316 47.8355 141.453 47.6598 141.589 47.5037C141.746 47.3086 141.902 47.1134 142.058 46.8987C142.155 46.7621 142.253 46.645 142.351 46.5084C142.526 46.2547 142.702 46.0205 142.878 45.7668C142.936 45.6692 143.014 45.5716 143.073 45.474C143.307 45.1227 143.522 44.7715 143.736 44.4007C143.775 44.3421 143.814 44.2836 143.834 44.2055C144.009 43.8932 144.185 43.581 144.341 43.2687C144.4 43.1711 144.439 43.054 144.497 42.9565C144.673 42.6247 144.829 42.2929 144.966 41.9416C144.985 41.9026 145.005 41.844 145.024 41.805C145.2 41.4342 145.337 41.0439 145.493 40.6536C145.532 40.5365 145.571 40.4194 145.61 40.3023C145.707 40.029 145.805 39.7363 145.883 39.4631C145.922 39.3265 145.981 39.1703 146.02 39.0337C146.098 38.78 146.156 38.5458 146.215 38.2921C146.254 38.1165 146.312 37.9408 146.351 37.7652C146.39 37.57 146.429 37.3748 146.469 37.1992C146.527 36.926 146.566 36.6528 146.605 36.36C146.644 36.1063 146.664 35.8526 146.703 35.5989C146.722 35.4818 146.722 35.3452 146.742 35.2281C146.761 34.8377 146.781 34.4474 146.781 34.0766C146.781 33.6668 146.761 33.2569 146.722 32.8861C146.703 32.8471 146.664 32.73 146.664 32.6129Z" fill="white"/>
<path d="M110.968 59.8359L108.939 60.4019L108.041 59.875L105.309 66.8618L114.306 72.0921L117.584 63.6806L110.968 59.8359Z" fill="white"/>
<path d="M140.534 8.37242L147.248 12.2756L152.907 5.23032L143.91 0L139.109 5.99145L140.027 6.51838L140.534 8.37242Z" fill="white"/>
<path d="M115.262 58.6641L110.969 59.835L117.585 63.6797C116.57 62.3136 115.77 60.6352 115.262 58.6641Z" fill="white"/>
<path d="M141.722 12.8208C143.01 12.4695 144.259 12.2743 145.449 12.2353C145.508 12.2353 145.586 12.2353 145.644 12.2158C145.898 12.2158 146.171 12.2158 146.425 12.2158C146.62 12.2158 146.835 12.2353 147.03 12.2353C147.108 12.2353 147.186 12.2353 147.264 12.2548L140.531 8.35156L141.722 12.8208Z" fill="white"/>
<path d="M115.454 45.0025C115.571 44.4756 115.707 43.9682 115.844 43.4413C115.922 43.1875 115.981 42.9143 116.059 42.6606C116.469 41.2359 116.957 39.8113 117.503 38.3866L108.506 33.1562C108.447 33.2929 108.408 33.41 108.35 33.5466C108.272 33.7613 108.194 33.9759 108.116 34.1906C107.979 34.5614 107.842 34.9517 107.706 35.3225C107.686 35.4006 107.647 35.4787 107.608 35.5762C107.55 35.7519 107.491 35.9471 107.433 36.1227C107.296 36.5521 107.159 36.9814 107.042 37.3912C107.003 37.5083 106.964 37.6254 106.925 37.7425C106.886 37.8791 106.867 38.0158 106.828 38.1719C106.691 38.6988 106.554 39.2063 106.437 39.7332C106.398 39.8893 106.359 40.0454 106.32 40.2016C106.281 40.3967 106.242 40.6114 106.203 40.8066L115.2 46.0369C115.298 45.7051 115.376 45.3538 115.454 45.0025Z" fill="white"/>
<path d="M125.235 24.9992C125.996 24.0429 126.777 23.1452 127.577 22.267C127.655 22.1694 127.733 22.0913 127.831 21.9937C128.124 21.6815 128.436 21.3692 128.729 21.0765C128.846 20.9594 128.982 20.8228 129.099 20.7057C129.646 20.1788 130.192 19.6518 130.739 19.1639L121.742 13.9336C121.176 14.4215 120.629 14.9484 120.102 15.4754C120.063 15.5144 120.005 15.5729 119.946 15.612C119.693 15.8657 119.458 16.1194 119.205 16.3731C119.068 16.5097 118.951 16.6463 118.814 16.7634C118.385 17.2123 117.975 17.6807 117.565 18.1491L117.546 18.1686C117.097 18.6955 116.648 19.2225 116.219 19.7689L125.235 24.9992Z" fill="white"/>
<path d="M115.223 46.0585L106.245 40.8477L99.9219 46.4097L108.899 51.6401L115.223 46.0585Z" fill="white"/>
<path d="M108.899 51.6405L99.9219 46.4102L99.9414 55.1729L108.041 59.8763L108.938 60.4032L108.899 51.6405Z" fill="white"/>
<path d="M132.418 10.9295L123.421 5.69922L121.781 13.935L130.759 19.1654L132.418 10.9295Z" fill="white"/>
<path d="M140.026 6.5194L139.109 5.99247L131.049 1.30859L123.418 5.69972L132.415 10.93L140.026 6.5194Z" fill="white"/>
<path d="M114.188 33.7811L105.211 28.5508L108.529 33.1566L117.506 38.3869L114.188 33.7811Z" fill="white"/>
<path d="M125.235 24.9994L116.257 19.7691L110.578 19.2422L119.575 24.4725L125.235 24.9994Z" fill="white"/>
<path opacity="0.2" d="M125.351 68.1324L124.512 69.1862L132.591 73.8701L130.893 67.5664C128.922 68.1324 127.068 68.2885 125.351 68.1324Z" fill="black"/>
<path opacity="0.2" d="M157.358 21.7411L163.681 20.0042L155.582 15.3008L155.035 16.7255C156.05 18.1111 156.831 19.7895 157.358 21.7411Z" fill="black"/>
<path opacity="0.2" d="M146.664 32.6129C146.625 32.3592 146.605 32.125 146.547 31.8908C146.527 31.7542 146.468 31.6176 146.449 31.481C146.39 31.2858 146.351 31.0711 146.293 30.876C146.254 30.7394 146.195 30.6223 146.137 30.4856C146.078 30.31 146 30.1344 145.942 29.9587C145.883 29.8416 145.805 29.7245 145.746 29.6074C145.668 29.4513 145.59 29.2952 145.493 29.1586C145.415 29.0415 145.337 28.9439 145.259 28.8463C145.161 28.7292 145.083 28.5926 144.966 28.4755C144.888 28.3779 144.771 28.2998 144.693 28.2023C144.595 28.1047 144.478 27.9876 144.361 27.89C144.263 27.812 144.146 27.7534 144.049 27.6753C142.429 26.5434 140.184 26.4068 137.686 27.4802C137.745 27.9486 137.784 28.4169 137.784 28.9244C137.784 29.2952 137.764 29.6855 137.745 30.0758C137.745 30.1929 137.725 30.3295 137.706 30.4466C137.686 30.7003 137.647 30.954 137.608 31.1882C137.569 31.4615 137.511 31.7347 137.472 32.0274C137.433 32.2226 137.393 32.4177 137.354 32.5934C137.315 32.769 137.276 32.9447 137.218 33.1203C137.159 33.374 137.081 33.6278 137.023 33.8619C136.984 33.9986 136.945 34.1547 136.886 34.2913C136.788 34.5645 136.71 34.8573 136.613 35.1305C136.574 35.2476 136.535 35.3647 136.496 35.4818C136.359 35.8721 136.203 36.2429 136.027 36.6332C136.008 36.6723 135.988 36.7113 135.969 36.7698C135.813 37.1016 135.657 37.4529 135.5 37.7847C135.442 37.8823 135.403 37.9994 135.344 38.0969C135.188 38.4092 135.013 38.7215 134.837 39.0337C134.798 39.0923 134.759 39.1508 134.739 39.2289C134.525 39.5997 134.31 39.951 134.076 40.3023C134.017 40.3999 133.939 40.4974 133.881 40.595C133.705 40.8487 133.529 41.1024 133.354 41.3366C133.256 41.4732 133.159 41.6098 133.061 41.7269C132.905 41.9221 132.749 42.1368 132.593 42.332C132.456 42.5076 132.319 42.6637 132.183 42.8199C132.046 42.976 131.909 43.1321 131.792 43.2687C131.558 43.5224 131.324 43.7761 131.09 44.0103C130.953 44.1665 130.797 44.3031 130.641 44.4592C130.524 44.5763 130.407 44.6739 130.29 44.791C130.094 44.9666 129.899 45.1423 129.704 45.2984C129.587 45.396 129.47 45.4936 129.353 45.5911C129.138 45.7668 128.923 45.9229 128.689 46.079C128.592 46.1571 128.475 46.2352 128.377 46.3132C128.045 46.5474 127.714 46.7426 127.382 46.9377C127.05 47.1329 126.738 47.289 126.425 47.4256C126.347 47.4647 126.269 47.5037 126.172 47.5428C126.094 47.5818 126.035 47.6013 125.957 47.6208C126.269 50.1579 127.343 51.9729 128.963 52.8902C129.177 53.0073 129.411 53.1049 129.626 53.2024C129.685 53.222 129.724 53.2415 129.782 53.261C129.802 53.261 129.802 53.261 129.821 53.2805C130.016 53.339 130.192 53.3976 130.387 53.4366C130.446 53.4561 130.485 53.4561 130.543 53.4757H130.563C130.817 53.5147 131.07 53.5537 131.324 53.5732C131.363 53.5732 131.402 53.5732 131.461 53.5732C131.48 53.5732 131.5 53.5732 131.519 53.5732C131.734 53.5732 131.948 53.5732 132.163 53.5537C132.261 53.5537 132.358 53.5342 132.456 53.5147H132.475C132.651 53.4952 132.846 53.4561 133.022 53.4366C133.158 53.4171 133.295 53.3781 133.432 53.339C133.432 53.339 133.432 53.339 133.451 53.339C133.607 53.3 133.763 53.261 133.9 53.2024C134.134 53.1244 134.388 53.0463 134.642 52.9487C134.817 52.8902 134.973 52.8121 135.149 52.734C135.227 52.695 135.305 52.656 135.383 52.6169C135.696 52.4608 136.008 52.3047 136.34 52.129C136.671 51.9339 137.003 51.7192 137.335 51.5045C137.433 51.4265 137.55 51.3484 137.647 51.2703C137.745 51.1923 137.862 51.1142 137.959 51.0361C138.077 50.9581 138.194 50.8605 138.311 50.7824C138.428 50.6848 138.545 50.5873 138.662 50.4897C138.779 50.3921 138.877 50.2945 138.994 50.197C139.091 50.1189 139.169 50.0408 139.267 49.9628C139.384 49.8652 139.501 49.7481 139.618 49.631C139.774 49.4944 139.911 49.3382 140.067 49.1821C140.301 48.9479 140.536 48.6942 140.77 48.4405C140.906 48.2844 141.043 48.1477 141.18 47.9916C141.316 47.8355 141.453 47.6598 141.589 47.5037C141.746 47.3086 141.902 47.1134 142.058 46.8987C142.155 46.7621 142.253 46.645 142.351 46.5084C142.526 46.2547 142.702 46.0205 142.878 45.7668C142.936 45.6692 143.014 45.5716 143.073 45.474C143.307 45.1227 143.522 44.7715 143.736 44.4007C143.775 44.3421 143.814 44.2836 143.834 44.2055C144.009 43.8932 144.185 43.581 144.341 43.2687C144.4 43.1711 144.439 43.054 144.497 42.9565C144.673 42.6247 144.829 42.2929 144.966 41.9416C144.985 41.9026 145.005 41.844 145.024 41.805C145.2 41.4342 145.337 41.0439 145.493 40.6536C145.532 40.5365 145.571 40.4194 145.61 40.3023C145.707 40.029 145.805 39.7363 145.883 39.4631C145.922 39.3265 145.981 39.1703 146.02 39.0337C146.098 38.78 146.156 38.5458 146.215 38.2921C146.254 38.1165 146.312 37.9408 146.351 37.7652C146.39 37.57 146.429 37.3748 146.469 37.1992C146.527 36.926 146.566 36.6528 146.605 36.36C146.644 36.1063 146.664 35.8526 146.703 35.5989C146.722 35.4818 146.722 35.3452 146.742 35.2281C146.761 34.8377 146.781 34.4474 146.781 34.0766C146.781 33.6668 146.761 33.2569 146.722 32.8861C146.703 32.8471 146.664 32.73 146.664 32.6129Z" fill="black"/>
<path opacity="0.2" d="M110.968 59.8359L108.939 60.4019L108.041 59.875L105.309 66.8618L114.306 72.0921L117.584 63.6806L110.968 59.8359Z" fill="black"/>
<path opacity="0.2" d="M115.262 58.6641L110.969 59.835L117.585 63.6797C116.57 62.3136 115.77 60.6352 115.262 58.6641Z" fill="black"/>
<path opacity="0.2" d="M141.722 12.8208C143.01 12.4695 144.259 12.2743 145.449 12.2353C145.508 12.2353 145.586 12.2353 145.644 12.2158C145.898 12.2158 146.171 12.2158 146.425 12.2158C146.62 12.2158 146.835 12.2353 147.03 12.2353C147.108 12.2353 147.186 12.2353 147.264 12.2548L140.531 8.35156L141.722 12.8208Z" fill="black"/>
<path opacity="0.2" d="M115.454 45.0025C115.571 44.4756 115.707 43.9682 115.844 43.4413C115.922 43.1875 115.981 42.9143 116.059 42.6606C116.469 41.2359 116.957 39.8113 117.503 38.3866L108.506 33.1562C108.447 33.2929 108.408 33.41 108.35 33.5466C108.272 33.7613 108.194 33.9759 108.116 34.1906C107.979 34.5614 107.842 34.9517 107.706 35.3225C107.686 35.4006 107.647 35.4787 107.608 35.5762C107.55 35.7519 107.491 35.9471 107.433 36.1227C107.296 36.5521 107.159 36.9814 107.042 37.3912C107.003 37.5083 106.964 37.6254 106.925 37.7425C106.886 37.8791 106.867 38.0158 106.828 38.1719C106.691 38.6988 106.554 39.2063 106.437 39.7332C106.398 39.8893 106.359 40.0454 106.32 40.2016C106.281 40.3967 106.242 40.6114 106.203 40.8066L115.2 46.0369C115.298 45.7051 115.376 45.3538 115.454 45.0025Z" fill="black"/>
<path opacity="0.2" d="M108.899 51.6405L99.9219 46.4102L99.9414 55.1729L108.041 59.8763L108.938 60.4032L108.899 51.6405Z" fill="black"/>
<path opacity="0.2" d="M132.418 10.9295L123.421 5.69922L121.781 13.935L130.759 19.1654L132.418 10.9295Z" fill="black"/>
<path opacity="0.2" d="M114.188 33.7811L105.211 28.5508L108.529 33.1566L117.506 38.3869L114.188 33.7811Z" fill="black"/>
<path opacity="0.2" d="M125.235 24.9994L116.257 19.7691L110.578 19.2422L119.575 24.4725L125.235 24.9994Z" fill="black"/>
<path d="M119.575 24.4725L110.578 19.2422L105.211 28.5514L114.188 33.7817L119.575 24.4725Z" fill="white"/>
<path opacity="0.2" d="M140.534 8.37242L147.248 12.2756L152.907 5.23032L143.91 0L139.109 5.99145L140.027 6.51838L140.534 8.37242Z" fill="white"/>
<path opacity="0.2" d="M125.235 24.9992C125.996 24.0429 126.777 23.1452 127.577 22.267C127.655 22.1694 127.733 22.0913 127.831 21.9937C128.124 21.6815 128.436 21.3692 128.729 21.0765C128.846 20.9594 128.982 20.8228 129.099 20.7057C129.646 20.1788 130.192 19.6518 130.739 19.1639L121.742 13.9336C121.176 14.4215 120.629 14.9484 120.102 15.4754C120.063 15.5144 120.005 15.5729 119.946 15.612C119.693 15.8657 119.458 16.1194 119.205 16.3731C119.068 16.5097 118.951 16.6463 118.814 16.7634C118.385 17.2123 117.975 17.6807 117.565 18.1491L117.546 18.1686C117.097 18.6955 116.648 19.2225 116.219 19.7689L125.235 24.9992Z" fill="white"/>
<path opacity="0.2" d="M115.223 46.0585L106.245 40.8477L99.9219 46.4097L108.899 51.6401L115.223 46.0585Z" fill="white"/>
<path opacity="0.2" d="M140.026 6.5194L139.109 5.99247L131.049 1.30859L123.418 5.69972L132.415 10.93L140.026 6.5194Z" fill="white"/>
<path opacity="0.2" d="M119.575 24.4725L110.578 19.2422L105.211 28.5514L114.188 33.7817L119.575 24.4725Z" fill="white"/>
<path d="M157.396 34.3485L163.719 28.7669L163.7 20.0042L157.377 21.7411C156.85 19.7895 156.069 18.1111 155.054 16.7255L155.601 15.3008L158.333 8.31402L152.927 5.23047L147.267 12.2953C147.189 12.2953 147.111 12.2953 147.033 12.2758C146.838 12.2563 146.623 12.2563 146.428 12.2563C146.174 12.2563 145.921 12.2368 145.647 12.2563C145.589 12.2563 145.511 12.2563 145.452 12.2758C144.262 12.3148 143.032 12.51 141.725 12.8613L140.534 8.41159L140.046 6.55757L132.415 10.9682L130.776 19.204C130.21 19.6919 129.664 20.2189 129.137 20.7458C129.02 20.8629 128.883 20.9995 128.766 21.1166C128.454 21.4289 128.161 21.7216 127.868 22.0339C127.79 22.1314 127.712 22.2095 127.614 22.3071C126.814 23.1853 126.014 24.0831 125.272 25.0393L119.613 24.5124L114.246 33.8216L117.564 38.4274C116.998 39.8521 116.529 41.2768 116.119 42.7014C116.041 42.9551 115.983 43.2284 115.905 43.4821C115.768 44.009 115.632 44.5164 115.514 45.0434C115.436 45.3947 115.339 45.7459 115.28 46.1168L108.957 51.6788L108.977 60.4416L111.006 59.8952L115.3 58.7242C115.807 60.6758 116.607 62.3542 117.622 63.7398L114.344 72.1513L119.749 75.2348L124.55 69.2434L125.39 68.1895C127.107 68.3652 128.961 68.1895 130.932 67.6235L132.63 73.9272L140.261 69.5166L141.9 61.2808C143.852 59.5634 145.725 57.5922 147.423 55.465L153.103 55.9724L158.469 46.6632L155.152 42.0574C156.108 39.4813 156.889 36.8856 157.396 34.3485ZM146.682 35.6756C146.662 35.9293 146.623 36.183 146.584 36.4368C146.545 36.71 146.487 36.9832 146.447 37.276C146.408 37.4711 146.369 37.6663 146.33 37.8419C146.291 38.0176 146.252 38.1932 146.194 38.3688C146.135 38.6226 146.077 38.8568 145.999 39.1105C145.96 39.2471 145.921 39.4032 145.862 39.5398C145.764 39.8131 145.686 40.1058 145.589 40.379C145.55 40.4961 145.511 40.6132 145.472 40.7303C145.335 41.1206 145.179 41.4914 145.003 41.8818C144.984 41.9208 144.964 41.9793 144.945 42.0184C144.789 42.3501 144.632 42.7014 144.476 43.0332C144.418 43.1308 144.379 43.2479 144.32 43.3455C144.164 43.6577 143.988 43.97 143.813 44.2822C143.774 44.3408 143.735 44.3993 143.715 44.4774C143.501 44.8482 143.286 45.1995 143.052 45.5508C142.993 45.6484 142.915 45.7459 142.857 45.8435C142.681 46.0972 142.505 46.3509 142.33 46.5851C142.232 46.7217 142.134 46.8584 142.037 46.9755C141.881 47.1901 141.725 47.3853 141.568 47.5805C141.432 47.7561 141.295 47.9122 141.159 48.0684C141.022 48.2245 140.885 48.3806 140.749 48.5172C140.515 48.771 140.3 49.0247 140.046 49.2589C139.89 49.415 139.753 49.5516 139.597 49.7077C139.48 49.8248 139.363 49.9224 139.246 50.0395C139.148 50.1176 139.07 50.1956 138.973 50.2737C138.641 50.5664 138.29 50.8592 137.938 51.1129C137.841 51.191 137.724 51.269 137.626 51.3471C137.529 51.4251 137.412 51.5032 137.314 51.5813C136.982 51.8155 136.65 52.0106 136.319 52.2058C135.909 52.44 135.518 52.6351 135.128 52.8108C134.953 52.8889 134.777 52.9474 134.621 53.0255C134.367 53.123 134.133 53.2011 133.879 53.2792C133.723 53.3182 133.567 53.3768 133.43 53.4158C133.294 53.4548 133.138 53.4743 133.001 53.5134C132.825 53.5524 132.63 53.5719 132.454 53.5914C132.357 53.611 132.24 53.6109 132.142 53.6305C131.928 53.65 131.713 53.65 131.498 53.65C131.44 53.65 131.381 53.65 131.322 53.65C131.049 53.6305 130.796 53.611 130.561 53.5524C130.503 53.5329 130.444 53.5329 130.386 53.5134C130.191 53.4743 129.995 53.4158 129.82 53.3572C129.761 53.3377 129.703 53.3182 129.625 53.2987C129.39 53.2011 129.176 53.1035 128.961 52.9864C127.361 52.0692 126.268 50.2542 125.956 47.7171C125.897 47.2487 125.858 46.7803 125.858 46.2729C125.838 39.6374 130.522 31.5577 136.28 28.2205C136.768 27.9472 137.216 27.7326 137.685 27.5374C140.202 26.4835 142.427 26.6006 144.047 27.7326C144.145 27.8106 144.262 27.8692 144.359 27.9472C144.476 28.0448 144.574 28.1424 144.691 28.2595C144.789 28.3571 144.886 28.4351 144.964 28.5327C145.062 28.6498 145.159 28.7864 145.257 28.9035C145.335 29.0011 145.413 29.0987 145.491 29.2158C145.589 29.3524 145.667 29.5085 145.745 29.6647C145.803 29.7818 145.882 29.8989 145.94 30.0159C146.018 30.1721 146.077 30.3672 146.135 30.5429C146.174 30.6795 146.233 30.7966 146.291 30.9332C146.35 31.1284 146.389 31.3235 146.447 31.5382C146.487 31.6748 146.526 31.7919 146.545 31.948C146.584 32.1822 146.623 32.4359 146.662 32.6701C146.682 32.7872 146.701 32.9043 146.721 33.041C146.76 33.4313 146.779 33.8216 146.779 34.2314C146.76 34.6608 146.74 35.1682 146.682 35.6756Z" fill="white"/>
</svg>
