<svg width="46" height="220" viewBox="0 0 46 220" fill="none" xmlns="http://www.w3.org/2000/svg">
<path opacity="0.73" d="M66.0301 117.301L21.185 203.483C17.5765 210.417 13.9426 209.34 12.9731 201.037L5.03205 133.186C4.01396 124.481 6.30597 111.241 10.0906 103.967L56.8387 14.129C60.6163 6.86931 64.3821 8.42809 65.1518 17.591L71.197 89.0857C71.9373 97.8683 69.6527 110.34 66.0301 117.301Z" fill="url(#paint0_linear_104_6696)"/>
<path d="M66.1123 115.153L20.6935 203.479C16.9176 210.822 13.2098 210.069 12.2474 201.765L4.64167 136.034C4.1565 131.842 4.4516 126.42 5.47657 120.734C6.4944 115.061 8.11179 109.877 10.0176 106.171L57.3636 14.0972C59.2623 10.4048 61.2052 8.64627 62.8268 9.16674C64.4485 9.6872 65.5453 12.4017 65.9075 16.814L71.5931 86.2784C72.3105 95.1169 69.9025 107.782 66.1123 115.153ZM10.0869 107.055C8.28098 110.567 6.76121 115.446 5.79185 120.832C4.8225 126.218 4.54262 131.36 5.00414 135.31L12.6099 201.04C13.521 208.906 17.0299 209.622 20.606 202.668L66.0319 114.329C69.6151 107.36 71.8936 95.3697 71.2077 87.028L65.522 17.5636C65.1819 13.3777 64.1428 10.8201 62.6084 10.3225C61.0667 9.83885 59.2317 11.4839 57.4329 14.982L10.0869 107.055Z" fill="#953DA2"/>
<path d="M53.8536 30.3719L13.4062 107.738L19.0825 164.292L59.5299 86.9254L53.8536 30.3719Z" fill="#D1D4FB"/>
<path d="M30.8828 90.1797L33.9063 120.805L43.2712 82.8144L30.8828 90.1797Z" fill="white"/>
<path d="M60.8394 115.22L24.0312 180.289L24.5298 184.649L61.3379 119.58L60.8394 115.22Z" fill="#D1D4FB"/>
<path d="M33.8918 161.87L24.0469 179.973L24.5488 184.655L34.3937 166.552L33.8918 161.87Z" fill="white"/>
<defs>
<linearGradient id="paint0_linear_104_6696" x1="43.5609" y1="160.487" x2="-5.91326" y2="134.743" gradientUnits="userSpaceOnUse">
<stop stop-color="#D906E3"/>
<stop offset="1" stop-color="#FF6DF9"/>
</linearGradient>
</defs>
</svg>
