<svg width="83" height="87" viewBox="0 0 83 87" fill="none" xmlns="http://www.w3.org/2000/svg">
<path d="M73.2089 47.763C73.3796 46.371 73.5076 44.979 73.5076 43.5C73.5076 42.021 73.3796 40.629 73.2089 39.237L82.2111 32.0595C83.0217 31.407 83.235 30.2325 82.7231 29.2755L74.1902 14.2245C73.6782 13.2675 72.5263 12.9195 71.5877 13.2675L60.9643 17.6175C58.7458 15.8775 56.3566 14.442 53.7541 13.3545L52.1328 1.827C52.0048 0.783 51.1089 0 50.0423 0H32.9766C31.91 0 31.014 0.783 30.886 1.827L29.2648 13.3545C26.6623 14.442 24.2731 15.921 22.0545 17.6175L11.4312 13.2675C10.4499 12.876 9.34061 13.2675 8.82864 14.2245L0.295798 29.2755C-0.258837 30.2325 -0.00285126 31.407 0.807769 32.0595L9.80992 39.237C9.63926 40.629 9.51127 42.0645 9.51127 43.5C9.51127 44.9355 9.63926 46.371 9.80992 47.763L0.807769 54.9405C-0.00285126 55.593 -0.216173 56.7675 0.295798 57.7245L8.82864 72.7755C9.34061 73.7325 10.4925 74.0805 11.4312 73.7325L22.0545 69.3825C24.2731 71.1225 26.6623 72.558 29.2648 73.6455L30.886 85.173C31.014 86.217 31.91 87 32.9766 87H50.0423C51.1089 87 52.0048 86.217 52.1328 85.173L53.7541 73.6455C56.3566 72.558 58.7458 71.079 60.9643 69.3825L71.5877 73.7325C72.569 74.124 73.6782 73.7325 74.1902 72.7755L82.7231 57.7245C83.235 56.7675 83.0217 55.593 82.2111 54.9405L73.2089 47.763ZM41.5094 58.725C33.2752 58.725 26.577 51.8955 26.577 43.5C26.577 35.1045 33.2752 28.275 41.5094 28.275C49.7436 28.275 56.4419 35.1045 56.4419 43.5C56.4419 51.8955 49.7436 58.725 41.5094 58.725Z" fill="url(#paint0_linear_18_1537)"/>
<defs>
<linearGradient id="paint0_linear_18_1537" x1="3.79534e-07" y1="43.2674" x2="83" y2="43.2674" gradientUnits="userSpaceOnUse">
<stop stop-color="#00C3EE"/>
<stop offset="1" stop-color="#E100E6"/>
</linearGradient>
</defs>
</svg>
