<svg width="47" height="72" viewBox="0 0 47 72" fill="none" xmlns="http://www.w3.org/2000/svg">
<path d="M45.2413 41.9062C46.0666 42.7098 46.2529 43.6339 45.8003 44.6786C45.3478 45.75 44.5625 46.2857 43.4444 46.2857H28.191L36.217 65.4107C36.4832 66.0804 36.4832 66.7366 36.217 67.3795C35.9508 68.0223 35.4983 68.4911 34.8594 68.7857L27.7917 71.7991C27.1262 72.067 26.474 72.067 25.8351 71.7991C25.1962 71.5312 24.7303 71.0759 24.4375 70.433L16.8108 52.2723L4.35243 64.808C3.84664 65.317 3.24769 65.5714 2.55556 65.5714C2.23611 65.5714 1.91667 65.5045 1.59722 65.3705C0.532407 64.9152 0 64.125 0 63V2.57143C0 1.44643 0.532407 0.65625 1.59722 0.200893C1.91667 0.0669643 2.23611 0 2.55556 0C3.27431 0 3.87326 0.254464 4.35243 0.763393L45.2413 41.9062Z" fill="black"/>
</svg>
