<svg width="219" height="53" viewBox="0 0 219 53" fill="none" xmlns="http://www.w3.org/2000/svg">
<path d="M30.211 8.99744V12.2754L29.837 12.6494H25.811V23.6494L25.437 24.0234H21.081L20.707 23.6494V12.6494H16.703L16.329 12.2754V8.99744L16.703 8.60144H29.815L30.211 8.99744ZM40.0049 8.44744C41.2369 8.44744 42.3663 8.64544 43.3929 9.04144C44.4343 9.42277 45.3289 9.96544 46.0769 10.6694C46.8249 11.3588 47.4116 12.1874 47.8369 13.1554C48.2623 14.1088 48.4749 15.1574 48.4749 16.3014C48.4749 17.4454 48.2623 18.5014 47.8369 19.4694C47.4116 20.4374 46.8249 21.2808 46.0769 21.9994C45.3289 22.7034 44.4343 23.2534 43.3929 23.6494C42.3663 24.0454 41.2369 24.2434 40.0049 24.2434C38.7729 24.2434 37.6363 24.0454 36.5949 23.6494C35.5683 23.2534 34.6809 22.7034 33.9329 21.9994C33.1849 21.2954 32.5983 20.4594 32.1729 19.4914C31.7476 18.5088 31.5349 17.4454 31.5349 16.3014C31.5349 15.1574 31.7476 14.1088 32.1729 13.1554C32.5983 12.1874 33.1849 11.3588 33.9329 10.6694C34.6809 9.96544 35.5683 9.42277 36.5949 9.04144C37.6363 8.64544 38.7729 8.44744 40.0049 8.44744ZM40.0709 12.6934C39.6309 12.6934 39.2056 12.7888 38.7949 12.9794C38.3989 13.1554 38.0469 13.4048 37.7389 13.7274C37.4456 14.0354 37.2109 14.4168 37.0349 14.8714C36.8589 15.3114 36.7709 15.7954 36.7709 16.3234C36.7709 16.8514 36.8589 17.3428 37.0349 17.7974C37.2109 18.2374 37.4529 18.6261 37.7609 18.9634C38.0689 19.2861 38.4209 19.5428 38.8169 19.7334C39.2129 19.9094 39.6309 19.9974 40.0709 19.9974C40.5109 19.9974 40.9216 19.9094 41.3029 19.7334C41.6843 19.5428 42.0143 19.2861 42.2929 18.9634C42.5863 18.6261 42.8136 18.2374 42.9749 17.7974C43.1509 17.3428 43.2389 16.8514 43.2389 16.3234C43.2389 15.7954 43.1509 15.3114 42.9749 14.8714C42.8136 14.4168 42.5863 14.0354 42.2929 13.7274C42.0143 13.4048 41.6843 13.1554 41.3029 12.9794C40.9216 12.7888 40.5109 12.6934 40.0709 12.6934ZM57.6462 8.60144C59.6555 8.60144 61.2102 9.0781 62.3102 10.0314C63.4102 10.9848 63.9602 12.3488 63.9602 14.1234C63.9602 16.0008 63.4102 17.4528 62.3102 18.4794C61.2102 19.5061 59.6555 20.0194 57.6462 20.0194H55.5122V23.6274L55.1382 24.0234H50.7822L50.4082 23.6494V8.97544L50.8042 8.60144H57.6462ZM56.8982 16.1474C57.5582 16.1474 58.0495 15.9861 58.3722 15.6634C58.7095 15.3408 58.8782 14.8788 58.8782 14.2774C58.8782 13.7054 58.7095 13.2654 58.3722 12.9574C58.0495 12.6348 57.5582 12.4734 56.8982 12.4734H55.5122V16.1474H56.8982Z" fill="white"/>
<path d="M22.843 29.4474C24.075 29.4474 25.2043 29.6454 26.231 30.0414C27.2723 30.4228 28.167 30.9654 28.915 31.6694C29.663 32.3588 30.2496 33.1874 30.675 34.1554C31.1003 35.1088 31.313 36.1574 31.313 37.3014C31.313 38.4454 31.1003 39.5014 30.675 40.4694C30.2496 41.4374 29.663 42.2808 28.915 42.9994C28.167 43.7034 27.2723 44.2534 26.231 44.6494C25.2043 45.0454 24.075 45.2434 22.843 45.2434C21.611 45.2434 20.4743 45.0454 19.433 44.6494C18.4063 44.2534 17.519 43.7034 16.771 42.9994C16.023 42.2954 15.4363 41.4594 15.011 40.4914C14.5856 39.5088 14.373 38.4454 14.373 37.3014C14.373 36.1574 14.5856 35.1088 15.011 34.1554C15.4363 33.1874 16.023 32.3588 16.771 31.6694C17.519 30.9654 18.4063 30.4228 19.433 30.0414C20.4743 29.6454 21.611 29.4474 22.843 29.4474ZM22.909 33.6934C22.469 33.6934 22.0436 33.7888 21.633 33.9794C21.237 34.1554 20.885 34.4048 20.577 34.7274C20.2836 35.0354 20.049 35.4168 19.873 35.8714C19.697 36.3114 19.609 36.7954 19.609 37.3234C19.609 37.8514 19.697 38.3428 19.873 38.7974C20.049 39.2374 20.291 39.6261 20.599 39.9634C20.907 40.2861 21.259 40.5428 21.655 40.7334C22.051 40.9094 22.469 40.9974 22.909 40.9974C23.349 40.9974 23.7596 40.9094 24.141 40.7334C24.5223 40.5428 24.8523 40.2861 25.131 39.9634C25.4243 39.6261 25.6516 39.2374 25.813 38.7974C25.989 38.3428 26.077 37.8514 26.077 37.3234C26.077 36.7954 25.989 36.3114 25.813 35.8714C25.6516 35.4168 25.4243 35.0354 25.131 34.7274C24.8523 34.4048 24.5223 34.1554 24.141 33.9794C23.7596 33.7888 23.349 33.6934 22.909 33.6934ZM48.8882 45.0234H42.9262L38.7462 36.6194H38.4382V44.6494L38.0642 45.0234H33.7082L33.3342 44.6494V29.9974L33.7302 29.6014H39.8462L43.8942 38.1154H44.1582V29.9974L44.5542 29.6014H48.8882L49.2622 29.9974V44.6494L48.8882 45.0234ZM57.2095 33.4734V35.4094H62.1375L62.5115 35.8054V38.6434L62.1595 39.0174H57.2095V41.1514H64.7775L65.1515 41.5254V44.6494L64.7995 45.0234H52.4795L52.1055 44.6494V29.9974L52.4795 29.6014H64.7775L65.1515 29.9974V33.0994L64.7995 33.4734H57.2095Z" fill="white"/>
<rect width="80" height="53" rx="3.70051" stroke="url(#paint0_linear_9_342)" stroke-width="8.4583" mask="url(#path-1-inside-1_9_342)"/>
<path d="M95.89 4.97C97.63 4.97 99.2 5.22 100.6 5.72C102.02 6.2 103.23 6.9 104.23 7.82C105.23 8.74 106 9.85 106.54 11.15C107.08 12.43 107.35 13.87 107.35 15.47C107.35 17.07 107.07 18.52 106.51 19.82C105.95 21.12 105.16 22.23 104.14 23.15C103.12 24.07 101.89 24.78 100.45 25.28C99.01 25.76 97.4 26 95.62 26H87.01L86.5 25.49V5.51L87.04 4.97H95.89ZM96.07 20.6C97.33 20.6 98.33 20.15 99.07 19.25C99.83 18.33 100.21 17.09 100.21 15.53C100.21 14.75 100.1 14.05 99.88 13.43C99.68 12.79 99.38 12.25 98.98 11.81C98.6 11.35 98.13 11 97.57 10.76C97.03 10.5 96.42 10.37 95.74 10.37H93.46V20.6H96.07ZM117.288 26H111.318L110.808 25.49V5.48L111.348 4.97H117.258L117.768 5.48V25.52L117.288 26ZM143.027 14.21V25.52L142.547 26H137.627L137.087 25.46V24.11H136.877C136.497 24.73 135.817 25.24 134.837 25.64C133.857 26.04 132.757 26.24 131.537 26.24C129.977 26.24 128.567 25.99 127.307 25.49C126.067 24.99 124.997 24.28 124.097 23.36C123.217 22.42 122.537 21.29 122.057 19.97C121.577 18.63 121.337 17.13 121.337 15.47C121.337 13.93 121.627 12.51 122.207 11.21C122.787 9.89 123.617 8.76 124.697 7.82C125.777 6.86 127.097 6.12 128.657 5.6C130.217 5.06 131.987 4.79 133.967 4.79C134.607 4.79 135.207 4.8 135.767 4.82C136.327 4.84 136.867 4.88 137.387 4.94C137.907 5 138.427 5.08 138.947 5.18C139.467 5.28 140.007 5.4 140.567 5.54L140.987 6.02L140.567 11.54L139.997 11.72C139.037 11.32 138.047 11.03 137.027 10.85C136.007 10.67 135.047 10.58 134.147 10.58C133.247 10.58 132.447 10.71 131.747 10.97C131.047 11.21 130.457 11.55 129.977 11.99C129.497 12.41 129.127 12.92 128.867 13.52C128.607 14.12 128.477 14.77 128.477 15.47C128.477 16.19 128.587 16.86 128.807 17.48C129.047 18.1 129.377 18.63 129.797 19.07C130.217 19.51 130.717 19.86 131.297 20.12C131.877 20.36 132.507 20.48 133.187 20.48C133.867 20.48 134.417 20.44 134.837 20.36C135.257 20.28 135.667 20.14 136.067 19.94V17.9H133.577L133.157 17.51V14.09L133.517 13.73H142.547L143.027 14.21ZM153.395 26H147.425L146.915 25.49V5.48L147.455 4.97H153.365L153.875 5.48V25.52L153.395 26ZM175.684 5.51V9.98L175.174 10.49H169.684V25.49L169.174 26H163.234L162.724 25.49V10.49H157.264L156.754 9.98V5.51L157.264 4.97H175.144L175.684 5.51ZM199.776 25.49L199.296 26H192.606L192.126 25.52L191.196 22.52H183.996L183.096 25.37L182.436 26H176.256L175.746 25.49L183.156 5.3L183.756 5H191.886L192.516 5.3L199.776 25.49ZM189.726 17.6L187.956 11.87H187.416L185.586 17.6H189.726ZM217.835 20.75V25.49L217.325 26H202.625L202.115 25.49V5.51L202.655 4.97H208.535L209.075 5.51V20.21H217.295L217.835 20.75Z" fill="url(#paint1_linear_9_342)"/>
<path d="M92.072 44.065C91.46 44.779 90.6667 45.136 89.692 45.136C89.046 45.136 88.4567 45.0227 87.924 44.796C87.3913 44.558 86.938 44.2293 86.564 43.81C86.19 43.3793 85.901 42.8637 85.697 42.263C85.493 41.6623 85.391 40.9937 85.391 40.257C85.391 39.5317 85.4873 38.8743 85.68 38.285C85.884 37.6957 86.1673 37.197 86.53 36.789C86.8927 36.3697 87.3347 36.0467 87.856 35.82C88.3773 35.5933 88.9553 35.48 89.59 35.48C90.1 35.48 90.5647 35.5763 90.984 35.769C91.4033 35.9617 91.766 36.2337 92.072 36.585V36.007L92.378 35.701H95.642L95.931 36.007V44.728L95.659 45H92.361L92.072 44.711V44.065ZM90.848 42.178C91.1087 42.178 91.3297 42.1327 91.511 42.042C91.7037 41.94 91.8907 41.7757 92.072 41.549V39.169C91.8907 38.9423 91.7037 38.7837 91.511 38.693C91.3297 38.591 91.1087 38.54 90.848 38.54C90.4173 38.54 90.066 38.7043 89.794 39.033C89.522 39.3617 89.386 39.8037 89.386 40.359C89.386 40.903 89.522 41.345 89.794 41.685C90.066 42.0137 90.4173 42.178 90.848 42.178ZM108.164 36.007V43.504C108.164 44.32 108.028 45.034 107.756 45.646C107.495 46.2693 107.115 46.7907 106.617 47.21C106.129 47.6407 105.534 47.9637 104.832 48.179C104.129 48.3943 103.336 48.502 102.452 48.502C101.772 48.502 101.092 48.4453 100.412 48.332C99.7317 48.2187 99.1424 48.0657 98.6437 47.873L98.3377 47.601L98.3547 44.932L98.7627 44.779C98.9554 44.881 99.1877 44.9773 99.4597 45.068C99.7317 45.1587 100.021 45.238 100.327 45.306C100.633 45.3853 100.944 45.442 101.262 45.476C101.579 45.5213 101.885 45.544 102.18 45.544C102.973 45.544 103.523 45.4023 103.829 45.119C104.146 44.847 104.305 44.388 104.305 43.742V43.266C103.693 43.98 102.899 44.337 101.925 44.337C101.279 44.337 100.689 44.252 100.157 44.082C99.624 43.9007 99.1707 43.6287 98.7967 43.266C98.4227 42.9033 98.1337 42.45 97.9297 41.906C97.7257 41.3507 97.6237 40.699 97.6237 39.951C97.6237 39.2257 97.72 38.591 97.9127 38.047C98.1167 37.503 98.4 37.0497 98.7627 36.687C99.1254 36.313 99.5674 36.0353 100.089 35.854C100.61 35.6613 101.188 35.565 101.823 35.565C102.843 35.565 103.67 35.9333 104.305 36.67V36.007L104.611 35.701H107.875L108.164 36.007ZM104.305 39.305C103.987 38.8177 103.562 38.574 103.03 38.574C102.599 38.574 102.253 38.6987 101.993 38.948C101.743 39.1973 101.619 39.5543 101.619 40.019C101.619 40.495 101.743 40.8633 101.993 41.124C102.253 41.3847 102.599 41.515 103.03 41.515C103.562 41.515 103.987 41.2713 104.305 40.784V39.305ZM118.563 44.49C117.985 44.728 117.395 44.898 116.795 45C116.205 45.0907 115.571 45.136 114.891 45.136C114.097 45.136 113.372 45.0397 112.715 44.847C112.069 44.643 111.513 44.3427 111.049 43.946C110.595 43.5493 110.244 43.0563 109.995 42.467C109.745 41.8777 109.621 41.1863 109.621 40.393C109.621 39.6563 109.745 38.9933 109.995 38.404C110.244 37.8033 110.601 37.2933 111.066 36.874C111.53 36.4547 112.091 36.1317 112.749 35.905C113.406 35.6783 114.143 35.565 114.959 35.565C116.647 35.565 117.854 35.9957 118.58 36.857C119.316 37.7183 119.537 38.9877 119.243 40.665L118.937 40.971H113.378C113.514 41.8663 114.29 42.314 115.707 42.314C116.183 42.314 116.67 42.263 117.169 42.161C117.667 42.059 118.155 41.923 118.631 41.753L118.971 42.008L118.852 44.099L118.563 44.49ZM114.738 38.166C114.341 38.166 114.018 38.2793 113.769 38.506C113.519 38.7213 113.395 39.033 113.395 39.441H115.707C115.797 39.033 115.763 38.7213 115.605 38.506C115.457 38.2793 115.168 38.166 114.738 38.166ZM127.304 40.172C127.304 39.7753 127.207 39.4637 127.015 39.237C126.822 39.0103 126.55 38.897 126.199 38.897C125.757 38.897 125.349 38.999 124.975 39.203V44.711L124.686 45H121.439L121.15 44.711V35.99L121.456 35.701H124.669L124.975 35.99V37.027C125.292 36.551 125.689 36.1827 126.165 35.922C126.641 35.6613 127.185 35.531 127.797 35.531C128.284 35.531 128.732 35.616 129.14 35.786C129.548 35.956 129.899 36.194 130.194 36.5C130.488 36.806 130.715 37.18 130.874 37.622C131.044 38.0527 131.129 38.5343 131.129 39.067V44.711L130.84 45H127.593L127.304 44.711V40.172ZM142.066 44.439C141.488 44.6883 140.864 44.8697 140.196 44.983C139.527 45.085 138.83 45.136 138.105 45.136C137.323 45.136 136.609 45.0397 135.963 44.847C135.317 44.6543 134.767 44.3653 134.314 43.98C133.86 43.5833 133.509 43.0903 133.26 42.501C133.01 41.9117 132.886 41.2203 132.886 40.427C132.886 39.7017 133.01 39.0387 133.26 38.438C133.509 37.8373 133.86 37.3273 134.314 36.908C134.778 36.4773 135.339 36.1487 135.997 35.922C136.654 35.684 137.385 35.565 138.19 35.565C139.017 35.565 139.725 35.6557 140.315 35.837C140.915 36.0183 141.397 36.2733 141.76 36.602C142.134 36.9307 142.394 37.3217 142.542 37.775C142.689 38.217 142.723 38.7043 142.644 39.237L142.389 39.509H139.21L138.921 39.22C138.921 38.8687 138.824 38.608 138.632 38.438C138.45 38.268 138.224 38.183 137.952 38.183C137.566 38.183 137.243 38.3247 136.983 38.608C136.733 38.88 136.609 39.3333 136.609 39.968V40.121C136.609 40.8803 136.818 41.4413 137.238 41.804C137.668 42.1553 138.229 42.331 138.921 42.331C139.431 42.331 139.963 42.28 140.519 42.178C141.085 42.076 141.59 41.9287 142.032 41.736L142.372 41.991L142.321 44.116L142.066 44.439ZM154.14 36.007V43.453C154.14 44.269 154.004 44.983 153.732 45.595C153.471 46.2183 153.091 46.7397 152.593 47.159C152.094 47.5897 151.493 47.9127 150.791 48.128C150.088 48.3433 149.295 48.451 148.411 48.451C147.719 48.451 147.034 48.3943 146.354 48.281C145.674 48.1677 145.084 48.009 144.586 47.805L144.314 47.533V44.881L144.722 44.728C144.926 44.83 145.164 44.9263 145.436 45.017C145.708 45.1077 145.997 45.187 146.303 45.255C146.609 45.3343 146.915 45.391 147.221 45.425C147.538 45.4703 147.844 45.493 148.139 45.493C148.932 45.493 149.493 45.3513 149.822 45.068C150.15 44.796 150.315 44.337 150.315 43.691V42.552C149.997 43.028 149.601 43.3963 149.125 43.657C148.649 43.9177 148.105 44.048 147.493 44.048C147.005 44.048 146.558 43.963 146.15 43.793C145.742 43.623 145.39 43.385 145.096 43.079C144.801 42.773 144.569 42.4047 144.399 41.974C144.24 41.532 144.161 41.0447 144.161 40.512V36.007L144.467 35.701H147.68L147.986 36.007V39.407C147.986 39.8037 148.082 40.1153 148.275 40.342C148.467 40.5687 148.739 40.682 149.091 40.682C149.317 40.682 149.527 40.665 149.72 40.631C149.912 40.5857 150.111 40.5007 150.315 40.376V36.007L150.621 35.701H153.834L154.14 36.007Z" fill="white"/>
<defs>
<linearGradient id="paint0_linear_9_342" x1="3.65815e-07" y1="26.3583" x2="80" y2="26.3583" gradientUnits="userSpaceOnUse">
<stop stop-color="#00C3EE"/>
<stop offset="1" stop-color="#E100E6"/>
</linearGradient>
<linearGradient id="paint1_linear_9_342" x1="85" y1="18.4225" x2="219" y2="18.4225" gradientUnits="userSpaceOnUse">
<stop stop-color="#00C3EE"/>
<stop offset="1" stop-color="#E100E6"/>
</linearGradient>
</defs>
</svg>
