<svg width="299" height="199" viewBox="0 0 299 199" fill="none" xmlns="http://www.w3.org/2000/svg">
<g clip-path="url(#clip0_95_2522)">
<path d="M0.5 50C0.5 22.3858 22.8858 0 50.5 0H248.5C276.114 0 298.5 22.3858 298.5 50V149C298.5 176.614 276.114 199 248.5 199H50.5C22.8858 199 0.5 176.614 0.5 149V50Z" fill="white"/>
<path d="M61.3128 172.173L56.7539 164.984H238.338L233.914 174.436C233.914 174.436 141.789 169.303 61.3128 172.173Z" fill="url(#paint0_linear_95_2522)"/>
<path d="M56.7539 164.984L83.5665 34.5895L219.523 28.8359L238.338 164.984H56.7539Z" fill="url(#paint1_linear_95_2522)"/>
<path d="M126.082 23.5716V15.9839C126.082 15.9839 154.653 11.177 184.305 13.7653L183.204 21.1903C183.223 21.1903 159.289 19.1787 126.082 23.5716Z" fill="url(#paint2_linear_95_2522)"/>
<path d="M126.082 23.5707L129.308 25.1829L179.398 23.5707L183.223 21.1894C183.223 21.1894 156.063 18.601 126.082 23.5707Z" fill="#140047"/>
<path opacity="0.86" d="M71.4062 158.314L229.075 159.024L214.182 35.507L101.136 33.9688L71.4062 158.314Z" fill="#9ABAB3"/>
<path d="M229.082 159.026C161.084 147.326 64.9414 159.026 64.9414 159.026L90.8268 28.8233C156.545 13.8404 219.037 16.0885 219.037 16.0885L219.056 16.3695L229.082 159.026Z" fill="url(#paint3_linear_95_2522)"/>
<path d="M144.43 27.3843C144.391 27.6801 144.295 28.0055 144.14 28.3457C143.966 28.6859 143.735 29.0113 143.425 29.3514C143.116 29.6768 142.73 30.0022 142.286 30.2981C141.841 30.5939 141.301 30.8601 140.702 31.0967C141.262 31.1559 141.706 31.2595 142.015 31.4074C142.324 31.5553 142.575 31.718 142.73 31.9102C142.885 32.0877 142.981 32.2652 143.02 32.4427C143.058 32.6202 143.058 32.7681 143.058 32.8716C143.02 33.2414 142.885 33.5668 142.633 33.8626C142.382 34.1584 142.093 34.4099 141.726 34.6317C141.378 34.8536 140.972 35.0459 140.547 35.2086C140.122 35.3713 139.697 35.5044 139.272 35.6079C138.847 35.7114 138.461 35.8002 138.113 35.8594C137.746 35.9185 137.456 35.9777 137.263 35.9925C136.993 36.022 136.722 36.0516 136.433 36.0664C136.201 36.0812 135.93 36.0812 135.66 36.0812C135.389 36.0812 135.138 36.0664 134.926 36.0221C135.061 35.0902 135.177 34.1732 135.254 33.271C135.37 32.0286 135.428 30.8157 135.447 29.6177C135.467 28.4196 135.428 27.2216 135.351 26.0235C135.795 25.8904 136.259 25.7721 136.703 25.6686C137.147 25.565 137.553 25.4763 137.92 25.4023C138.345 25.3284 138.751 25.2544 139.118 25.1952C139.407 25.1509 139.755 25.1213 140.161 25.1065C140.547 25.0917 140.953 25.0917 141.358 25.1361C141.764 25.1657 142.17 25.2396 142.556 25.3284C142.943 25.4171 143.29 25.5502 143.58 25.7277C143.889 25.9052 144.102 26.1271 144.275 26.3933C144.411 26.6595 144.488 26.9997 144.43 27.3843ZM140.277 32.9752C140.296 32.7533 140.199 32.5314 140.045 32.3687C139.968 32.2948 139.89 32.2208 139.794 32.1469C139.697 32.0729 139.562 32.0138 139.407 31.9694C139.253 31.925 139.079 31.8807 138.867 31.8659C138.654 31.8363 138.422 31.8363 138.152 31.8511C138.075 32.3687 137.997 32.8716 137.939 33.3745C137.881 33.8774 137.823 34.3803 137.785 34.898C138.075 34.8092 138.345 34.7057 138.577 34.6021C138.809 34.4986 139.002 34.3951 139.176 34.2915C139.349 34.188 139.485 34.0845 139.62 33.9809C139.736 33.8774 139.852 33.7739 139.929 33.6703C140.103 33.4337 140.238 33.197 140.277 32.9752ZM141.571 28.0499C141.571 28.0499 141.571 28.0055 141.59 27.9167C141.59 27.828 141.59 27.7097 141.552 27.5765C141.532 27.4434 141.455 27.2955 141.378 27.1476C141.301 26.9997 141.165 26.8666 140.972 26.7335C140.779 26.6152 140.528 26.5264 140.219 26.4525C139.91 26.3933 139.504 26.3785 139.021 26.4229C138.886 27.2216 138.731 28.0351 138.596 28.8338C138.461 29.6325 138.345 30.4312 138.229 31.2447C138.577 31.1411 138.905 31.008 139.195 30.8453C139.485 30.6974 139.736 30.5347 139.968 30.3572C140.199 30.1945 140.393 30.017 140.547 29.8247C140.702 29.6473 140.856 29.4698 140.972 29.2923C141.243 28.9225 141.455 28.4936 141.571 28.0499Z" fill="#EF138B"/>
<path d="M154.402 26.6015C154.364 26.9269 154.267 27.2671 154.112 27.6073C153.958 27.9475 153.726 28.2877 153.417 28.613C153.108 28.9384 152.722 29.2638 152.258 29.5744C151.794 29.885 151.234 30.1661 150.597 30.4323C151.08 31.0831 151.62 31.7043 152.2 32.2959C152.799 32.8875 153.475 33.4496 154.228 33.9969C152.76 34.1448 152.007 34.2335 150.539 34.3962C149.689 33.065 149.264 32.3995 148.394 31.0683C148.375 31.6599 148.356 32.2516 148.375 32.8284C148.375 33.4052 148.394 33.9821 148.433 34.5441C147.004 34.6772 146.289 34.7512 144.859 34.8991C145.111 33.775 145.342 32.6509 145.516 31.5416C145.69 30.4323 145.845 29.3082 145.96 28.1841C146.038 27.5333 146.096 26.8825 146.134 26.2465C146.192 25.6105 146.212 24.9597 146.231 24.3089C146.752 24.1758 147.293 24.0575 147.834 23.9688C148.375 23.88 148.819 23.8208 149.206 23.7913C149.476 23.7617 149.785 23.7469 150.172 23.7321C150.539 23.7173 150.944 23.7321 151.35 23.7765C151.756 23.8209 152.161 23.8948 152.548 24.0131C152.934 24.1315 153.282 24.2942 153.572 24.516C153.861 24.7379 154.093 25.0189 154.248 25.3591C154.402 25.6845 154.46 26.1134 154.402 26.6015ZM148.491 29.8851C148.839 29.7963 149.148 29.7076 149.418 29.5744C149.689 29.4561 149.921 29.323 150.133 29.1751C150.346 29.0272 150.519 28.8941 150.674 28.7314C150.828 28.5834 150.944 28.4356 151.041 28.2877C151.273 27.9475 151.427 27.5925 151.485 27.2079C151.485 27.1931 151.485 27.134 151.505 27.0304C151.505 26.9269 151.505 26.779 151.466 26.6163C151.427 26.4536 151.389 26.2761 151.311 26.0986C151.234 25.9063 151.118 25.7288 150.964 25.5661C150.809 25.4034 150.597 25.2555 150.346 25.152C150.094 25.0337 149.766 24.9745 149.38 24.9597C149.167 25.7436 148.993 26.5128 148.858 27.2819C148.704 28.051 148.607 28.8201 148.53 29.5892C148.51 29.7223 148.51 29.7667 148.491 29.8851Z" fill="#EF138B"/>
<path d="M161.064 33.4769C160.677 33.4917 160.272 33.5065 159.885 33.5212C159.499 33.536 159.093 33.5508 158.707 33.5804C158.05 33.6248 157.413 33.6692 156.756 33.7283C156.099 33.7875 155.461 33.8466 154.805 33.9206C154.882 33.2846 154.921 32.9592 154.998 32.3232C155.23 32.3232 155.442 32.3232 155.674 32.3084C155.906 32.2936 156.118 32.2936 156.35 32.2788C156.485 31.5097 156.621 30.7406 156.756 29.9863C156.891 29.2319 157.007 28.4628 157.084 27.6937C157.142 27.1908 157.181 26.6879 157.2 26.1851C157.219 25.697 157.258 25.1941 157.277 24.6912C157.026 24.706 156.756 24.7356 156.485 24.7651C156.215 24.7947 155.944 24.8243 155.674 24.8539C155.751 24.2327 155.79 23.9221 155.886 23.3009C156.64 23.2565 157.413 23.2121 158.166 23.1677C158.919 23.1234 159.692 23.0642 160.465 23.0198C160.735 23.005 161.025 22.9755 161.295 22.9607C161.566 22.9459 161.856 22.9163 162.145 22.8867C162.049 23.4783 161.991 23.7742 161.875 24.3806C161.643 24.3954 161.431 24.4102 161.199 24.4102C160.986 24.425 160.755 24.4397 160.523 24.4545C160.272 25.3568 160.078 26.2442 159.924 27.1317C159.769 28.0191 159.634 28.9065 159.537 29.794C159.46 30.5779 159.402 31.347 159.383 32.1161C159.692 32.1013 160.02 32.0717 160.349 32.057C160.677 32.0274 161.006 32.0126 161.353 31.983C161.257 32.5746 161.179 32.8705 161.064 33.4769Z" fill="#EF138B"/>
<path d="M169.022 29.2474C168.713 29.2474 168.404 29.2474 168.095 29.2622C167.786 29.2622 167.457 29.277 167.148 29.2917C166.974 29.2917 166.781 29.3065 166.588 29.3213C166.395 29.3361 166.202 29.3509 166.008 29.3509C165.873 30.4306 165.796 30.9631 165.641 32.028C166.453 31.9837 167.245 31.9393 168.017 31.8801C168.79 31.821 169.601 31.747 170.471 31.6731C170.393 32.3091 170.355 32.6197 170.297 33.2557C169.737 33.2557 169.215 33.2705 168.694 33.2705C168.172 33.2852 167.65 33.2852 167.148 33.3148C166.375 33.3444 165.622 33.374 164.869 33.4184C164.115 33.4627 163.343 33.5071 162.531 33.5811C162.724 32.6493 162.879 31.7322 163.033 30.8152C163.188 29.8982 163.323 28.9811 163.42 28.0641C163.516 27.1767 163.594 26.2892 163.652 25.4314C163.71 24.5587 163.729 23.686 163.729 22.8134C164.888 22.7838 166.008 22.7543 167.071 22.6951C167.747 22.6655 168.423 22.6211 169.099 22.5768C169.775 22.5324 170.509 22.4732 171.263 22.4141C171.185 23.1092 171.128 23.4494 171.05 24.1446C170.432 24.115 169.833 24.0854 169.234 24.0854C168.636 24.0854 168.037 24.0854 167.438 24.115C167.206 24.1298 167.09 24.1298 166.858 24.1446C166.684 24.7806 166.549 25.4018 166.433 26.023C166.317 26.6442 166.028 27.8127 166.144 27.8866C166.182 27.931 166.665 27.8866 166.916 27.8718C167.187 27.8571 167.457 27.8423 167.728 27.8423C167.959 27.8275 168.191 27.8275 168.423 27.8127C168.655 27.7979 168.906 27.7979 169.157 27.7683C169.138 28.3451 169.099 28.641 169.022 29.2474Z" fill="#EF138B"/>
<path d="M178.181 29.0713C177.872 29.0565 177.563 29.0565 177.234 29.0565C176.906 29.0565 176.597 29.0565 176.288 29.0565C176.114 29.0565 175.94 29.0565 175.766 29.0713C175.592 29.0713 175.419 29.0861 175.245 29.0861C175.129 30.7427 175.071 31.5709 174.936 33.2275C174.704 33.2127 174.472 33.2127 174.202 33.2127C173.931 33.2127 173.68 33.2127 173.429 33.2127C173.178 33.2127 172.946 33.2275 172.733 33.2275C172.521 33.2275 172.328 33.2423 172.154 33.2423C171.961 33.2571 171.787 33.2571 171.594 33.2719C171.787 32.3253 171.961 31.3935 172.135 30.4764C172.289 29.5594 172.424 28.6276 172.54 27.6958C172.656 26.7935 172.733 25.9061 172.791 25.0187C172.849 24.1312 172.888 23.2438 172.888 22.3563C174.066 22.3563 175.187 22.3563 176.249 22.3268C176.925 22.312 177.601 22.2824 178.278 22.2676C178.954 22.238 179.688 22.2084 180.46 22.1641C180.364 22.8592 180.325 23.2142 180.248 23.9241C179.63 23.8798 179.031 23.8354 178.432 23.8206C177.833 23.791 177.234 23.791 176.636 23.8058C176.404 23.8058 176.288 23.8058 176.056 23.8206C175.902 24.3827 175.786 24.9595 175.689 25.5363C175.592 26.1132 175.515 26.7048 175.438 27.3112C175.419 27.4295 175.419 27.4887 175.399 27.607C175.65 27.6218 175.902 27.6218 176.153 27.607C176.404 27.607 176.655 27.607 176.925 27.5923C177.157 27.5923 177.389 27.5923 177.621 27.5923C177.853 27.5923 178.104 27.5774 178.355 27.5774C178.297 28.1543 178.258 28.4649 178.181 29.0713Z" fill="#EF138B"/>
<path opacity="0.62" d="M99.408 45.6217C99.408 45.6217 122.067 39.6462 163.349 37.9453V44.1278C163.349 44.1278 135.918 43.4622 97.8047 50.1772L99.408 45.6217Z" fill="url(#paint4_linear_95_2522)"/>
<path opacity="0.62" d="M89.2601 94.0961C89.2601 94.0961 117.773 91.2119 154.669 90.8125V96.004C154.669 96.004 127.315 95.442 87.3477 99.3911L89.2601 94.0961Z" fill="url(#paint5_linear_95_2522)"/>
<path opacity="0.62" d="M85.7723 117.654C85.7723 117.654 114.884 115.376 151.761 114.977V119.34C151.761 119.34 126.648 119.103 84.9609 122.12L85.7723 117.654Z" fill="url(#paint6_linear_95_2522)"/>
<path opacity="0.62" d="M94.0369 69.3363C94.0369 69.3363 122.472 65.3281 160.837 64.2188L160.18 69.9132C160.18 69.9132 133.734 69.4546 92.4336 73.9066L94.0369 69.3363Z" fill="url(#paint7_linear_95_2522)"/>
<path d="M94.3438 65.5198L97.6277 53.0069L97.7436 52.9773C98.1107 52.9033 133.558 45.9961 175.632 45.9961C176.153 45.9961 176.675 45.9961 177.216 45.9961H177.409V59.781H177.216C176.81 59.781 136.746 60.6241 94.6142 65.4903L94.3438 65.5198ZM97.9754 53.2583L94.846 65.1501C135.374 60.491 173.932 59.5444 177.022 59.4704V46.2919C176.559 46.2919 176.095 46.2919 175.651 46.2919C134.833 46.2919 100.294 52.7998 97.9754 53.2583Z" fill="url(#paint8_linear_95_2522)"/>
<path d="M89.0078 91.3867L89.0658 91.1796L92.2725 78.3265L92.4077 78.3117C92.8134 78.2673 132.994 73.5195 174.951 73.5195C175.705 73.5195 176.458 73.5195 177.211 73.5195H177.405V88.2511H177.211C176.632 88.2511 132.955 88.2807 89.2783 91.3571L89.0078 91.3867ZM92.6009 78.5927L89.5101 91.0317C131.68 88.0736 173.754 87.9405 177.018 87.9405V73.8153C135.582 73.6674 95.286 78.2821 92.6009 78.5927Z" fill="url(#paint9_linear_95_2522)"/>
<path d="M84.1953 115.159L84.234 114.966L87.0157 102.646L87.1702 102.631C87.6338 102.587 132.392 98.8594 174.369 98.8594C175.316 98.8594 176.262 98.8594 177.228 98.8594H177.421V113.339H177.209C176.745 113.325 130.48 111.831 84.4464 115.129L84.1953 115.159ZM87.3634 102.927L84.6782 114.819C129.05 111.653 173.577 112.925 177.016 113.044V99.1848C176.127 99.1848 175.238 99.1848 174.369 99.1848C133.629 99.17 90.261 102.69 87.3634 102.927Z" fill="url(#paint10_linear_95_2522)"/>
<path d="M80.0078 137.639L80.0464 137.447L82.8282 125.126L82.9827 125.112C83.5043 125.067 135.236 120.127 177.233 122.568L177.426 122.582V135.761H177.213C176.711 135.746 126.292 134.326 80.2589 137.639H80.0078ZM83.1759 125.407L80.4907 137.299C124.96 134.119 173.427 135.347 177.02 135.435V122.863C136.202 120.512 86.2667 125.111 83.1759 125.407Z" fill="url(#paint11_linear_95_2522)"/>
<path d="M222.576 155.166C201.327 149.694 177.451 149.916 177.219 149.945V149.635C177.47 149.635 201.404 149.383 222.711 154.885L222.576 155.166Z" fill="url(#paint12_linear_95_2522)"/>
<path opacity="0.3" d="M229.082 159.024C161.084 147.325 64.9414 159.024 64.9414 159.024L90.8268 28.8218C90.8268 28.8218 79.7386 115.481 97.8004 135.611C118.354 158.522 187.124 154.661 199.932 131.839C215.791 103.589 219.288 21.7962 219.037 16.3828L229.082 159.024Z" fill="url(#paint13_linear_95_2522)"/>
<path d="M140.82 14.1781L142.192 17.3285L173.312 15.9826L174.124 13.1428C174.104 13.1428 163.46 12.5807 140.82 14.1781Z" fill="url(#paint14_linear_95_2522)"/>
<path d="M118.352 164.986C118.352 164.986 212.389 162.117 238.332 164.986H118.352Z" fill="#9A7DF8"/>
<path d="M239.531 111.942L250.446 97.1953L256.067 101.1L245.887 111.942H239.531Z" fill="#9A7DF8"/>
<path d="M58.5856 84.5379L61.5412 78.7844L47.5554 71.1523L39.5 75.767L58.5856 84.5379Z" fill="#4F31E0"/>
<path d="M140.82 181.357L154.342 178.266L157.375 182.895L140.82 184.123V181.357Z" fill="#FF1D9C"/>
<path d="M239.531 87.5079L258.462 79.6836L260.471 85.7774L240.845 90.9689L239.531 87.5079Z" fill="#6877FF"/>
<path d="M260.159 145.524C260.159 145.524 260.159 157.844 244.878 157.844H62.0388C56.0118 157.371 51.7812 151.677 51.7812 147.831C51.7812 146.337 52.8051 129.446 54.08 109.316C56.089 77.4715 58.6776 37.507 58.6776 37.507C58.6776 37.507 59.6241 32.0049 71.0794 31.3984L159.998 32.1084L244.878 32.7888C244.878 32.7888 253.127 33.0994 256.353 39.5629L260.159 145.524Z" fill="url(#paint15_linear_95_2522)"/>
<path d="M59.7408 143.676C59.7408 143.676 188.743 149.222 250.095 144.297C250.095 144.297 255.794 90.6955 248.028 40.7917C248.028 40.7917 151.75 35.6593 67.7962 39.1499C67.7962 39.1499 59.4704 85.3561 59.7408 143.676Z" fill="url(#paint16_linear_95_2522)"/>
<path d="M53.0971 124.996H39.6328V135.675H52.4403L53.0971 124.996Z" fill="url(#paint17_linear_95_2522)"/>
<path d="M227.18 146.382L233.883 157.845H244.855C244.855 157.845 258.242 158.422 260.135 145.524V124.137L251.462 124.995L250.09 144.311L227.18 146.382Z" fill="#361488"/>
<path d="M119.932 177.457C88.5606 177.457 64.6069 174.07 52.9005 171.999C37.35 169.248 28.9662 166.852 26.1459 164.264C18.3223 163.302 12.3918 161.764 9.20444 159.412C7.40792 158.081 6.50001 156.513 6.50001 154.753C6.48069 140.791 39.5908 130.186 41.001 129.742L41.6191 130.881C41.2907 130.985 8.10335 141.604 8.12267 154.753C8.12267 156.188 8.85672 157.416 10.3442 158.525C13.1452 160.596 18.3416 162.001 25.1993 162.918C25.1607 162.829 25.1414 162.725 25.122 162.637C24.7357 160.906 26.3583 159.22 30.2411 157.327C35.1671 154.901 41.5998 154.398 47.878 155.922C53.6732 157.342 58.6378 160.374 62.0184 164.5C73.9952 164.441 86.9572 164.071 99.784 163.716C126.635 162.962 151.98 162.267 166.816 164.323C172.36 165.092 174.736 165.95 174.755 167.192C174.774 168.213 173.441 169.455 163.551 170.964C137.627 174.913 67.775 177.694 62.9456 168.553C62.424 167.562 61.8252 166.63 61.1298 165.728C49.0757 165.758 38.0261 165.491 29.0628 164.589C32.7524 166.527 40.7692 168.583 53.3255 170.801C72.0634 174.114 122.347 180.815 184.221 171.422C216.23 166.556 219.958 162.696 220.074 161.276C220.19 159.871 216.964 158.732 215.824 158.451L216.326 157.282C216.558 157.342 221.89 158.732 221.658 161.365C221.349 165.196 209.198 168.893 184.51 172.65C160.924 176.2 139.056 177.457 119.932 177.457ZM62.907 165.728C63.4479 166.482 63.9308 167.281 64.3751 168.094C67.1761 173.404 100.827 174.381 132.624 172.606C159.533 171.097 172.688 168.494 173.094 167.207C173.074 167.192 172.688 166.423 166.487 165.55C151.825 163.509 126.558 164.219 99.8033 164.959C87.3049 165.299 74.6713 165.654 62.907 165.728ZM27.0731 163.169C35.9977 164.219 47.453 164.545 60.0673 164.515C56.9186 160.965 52.4755 158.362 47.3564 157.105C41.6191 155.7 35.5341 156.188 31.0911 158.362C27.9231 159.915 26.4356 161.291 26.706 162.43C26.7447 162.681 26.8606 162.918 27.0731 163.169Z" fill="url(#paint18_linear_95_2522)"/>
<path d="M229.09 62.6484C229.09 62.6484 224.551 74.6733 225.343 79.5986C225.343 79.5986 225.942 84.8345 233.186 85.1451L241.029 70.1029L229.09 62.6484Z" fill="url(#paint19_linear_95_2522)"/>
<path d="M195.385 73.3867C195.385 73.3867 192.564 74.9545 192.738 75.6497C192.912 76.3005 195.984 77.4394 195.984 77.4394L195.385 73.3867Z" fill="url(#paint20_linear_95_2522)"/>
<path d="M291.928 137.669L288.875 177.204C288.875 177.204 246.879 134.119 234.207 126.428C233.106 125.762 232.063 125.141 231.078 124.594C220.627 118.589 215.933 117.894 214.291 117.184C212.475 116.414 209.249 112.569 208.843 111.326C208.438 110.099 208.438 92.2316 207.105 88.2233C205.752 84.215 199.59 80.118 199.049 78.6685C198.508 77.2338 200.788 74.7638 203.067 74.4532C205.327 74.1426 217.15 76.8197 220.762 85.9603C220.762 85.9603 219.275 88.0015 218.483 90.4715C217.691 92.9416 218.888 96.9351 218.888 96.9351C218.888 96.9351 223.853 97.6598 225.997 97.2457C228.141 96.8463 232.159 87.8092 231.889 80.828C231.638 73.8467 222.771 60.4907 222.771 60.4907L216.184 48.6877C216.184 48.6877 223.834 45.9219 227.987 46.5283C227.987 46.5283 234.555 54.6336 238.438 56.3789C238.438 56.3789 247.092 57.503 252.056 58.6271C252.056 58.6271 258.006 59.2483 262.99 62.4283C262.99 62.4283 268.476 62.7389 271.045 64.2771C273.595 65.8154 284.722 76.5978 285.379 79.482L285.398 79.6595C285.727 83.091 277.092 103.088 260.112 116.237C260.112 116.237 264.168 119.225 270.079 123.351V123.366C276.222 127.626 284.278 133.054 291.928 137.669Z" fill="url(#paint21_linear_95_2522)"/>
<path d="M273.733 68.2697L273.695 68.2845C272.941 68.5803 272.169 68.7578 271.415 68.8317C271.415 68.8317 246.496 71.8638 228.221 74.4226V74.4374C218.601 75.7686 210.816 76.9814 209.522 77.5582C208.344 78.0759 207.532 78.6971 206.972 79.2888C205.755 80.6051 205.755 81.8623 205.755 81.8623C205.755 81.8623 200.327 81.463 195.981 77.4547C195.981 77.4547 193.914 75.8129 194.841 73.757C194.841 73.757 196.579 70.2812 201.447 67.9443H201.467C202.568 67.397 203.823 66.9385 205.253 66.5835C205.253 66.5835 205.272 66.8202 205.35 67.1308C205.504 67.7964 205.987 68.8317 207.262 68.8317C208.208 68.8317 220.069 65.4742 233.92 61.1997L233.939 61.1849C247.481 56.9696 262.896 51.852 271.84 48.0508C271.84 48.0508 280.301 48.1987 281.905 55.4461C283.276 61.6582 278.563 66.4208 273.733 68.2697Z" fill="url(#paint22_linear_95_2522)"/>
<path opacity="0.86" d="M228.245 74.4213C218.625 75.7673 210.84 76.9801 209.546 77.5569C208.368 78.0746 207.556 78.6958 206.996 79.2875L200.95 80.4263C197.859 75.4714 201.452 67.9282 201.452 67.9282H201.471L205.354 67.1147C205.509 67.7803 205.992 68.8156 207.267 68.8156C208.213 68.8156 220.074 65.4581 233.925 61.1836C227.318 66.5674 228.245 74.4213 228.245 74.4213Z" fill="#9A7AB3"/>
<path d="M201.453 67.9294C201.453 67.9294 203.23 72.3666 213.7 68.595C213.7 68.595 227.783 59.0697 230.642 49.5445L228.053 46.542C228.053 46.542 220.307 45.5954 216.25 48.7015C216.25 48.7015 214.608 55.9637 210.59 60.9778C209.238 62.6639 201.453 66.1989 201.453 66.1989V67.9294V67.9294Z" fill="url(#paint23_linear_95_2522)"/>
<path d="M199.07 78.6826C199.07 78.6826 206.662 86.1223 207.126 88.2374C207.57 90.3377 208.787 110.734 208.787 110.734C208.787 110.734 208.285 102.718 218.929 96.9639C218.929 96.9639 218.446 94.1833 218.929 91.2843C219.412 88.3705 220.474 87.1873 220.802 85.9892C221.131 84.7764 216.437 74.8518 204.692 73.6094C204.692 73.6094 202.644 74.1271 201.137 75.2512C199.611 76.3753 199.07 78.6826 199.07 78.6826Z" fill="url(#paint24_linear_95_2522)"/>
<path d="M293.887 171.73C292.477 174.378 290.198 176.478 287.88 178.253L274.84 163.24C274.84 163.24 269.238 165.636 267.654 165.385C263.482 164.764 263.482 157.842 263.482 157.842C263.482 157.842 262.342 149.574 265.162 141.246C265.182 141.217 265.182 141.187 265.182 141.187C267.152 135.36 271.073 129.488 278.684 126.426C278.684 126.426 283.804 125.125 287.532 131.825L298.176 137.371C298.176 137.371 300.957 158.522 293.887 171.73Z" fill="url(#paint25_linear_95_2522)"/>
<path opacity="0.5" d="M293.887 171.701V171.73C292.477 174.378 290.661 176.715 288.343 178.49L274.86 163.255C274.86 163.255 269.258 165.651 267.674 165.4C263.501 164.779 263.501 157.857 263.501 157.857C263.501 157.857 262.361 149.589 265.182 141.262C264.969 142.297 262.188 155.816 266.012 160.327C270.011 165.015 276.753 135.064 287.551 131.84C287.551 131.84 276.618 145.64 277.564 155.194C278.472 164.72 293.887 171.701 293.887 171.701Z" fill="url(#paint26_linear_95_2522)"/>
<path d="M260.156 116.267C260.156 116.267 264.213 119.255 270.124 123.381V123.396C270.124 123.396 255.907 120.749 243.853 121.814C235.024 122.598 232.05 123.929 231.084 124.594C220.633 118.589 215.939 117.894 214.297 117.184L227.896 110.721C227.896 110.721 241.032 88.4309 242.925 77.0865L239.603 72.8711L249.609 73.8917C249.609 73.8917 256.216 75.3264 267.632 75.2376C267.632 75.2376 273.466 77.5745 278.547 77.0865L285.424 79.4973L285.443 79.6748C285.791 83.1211 277.137 103.118 260.156 116.267Z" fill="url(#paint27_linear_95_2522)"/>
<path d="M218.914 96.9467C218.914 96.9467 222.353 99.4168 225.25 99.7126C225.25 99.7126 227.819 97.3313 229.442 92.5391C229.442 92.5391 227.897 95.867 225.946 96.6361C225.965 96.6509 222.739 97.7749 218.914 96.9467Z" fill="url(#paint28_linear_95_2522)"/>
<path d="M199.07 78.6808C199.07 78.6808 205.233 84.6858 207.048 84.6858C209.482 84.6858 210.873 81.8608 209.154 78.1335C207.898 75.4268 204.286 74.4062 204.286 74.4062C204.286 74.4062 201.137 74.8204 199.07 78.6808Z" fill="url(#paint29_linear_95_2522)"/>
<path d="M199.885 79.4803C199.885 79.4803 201.817 76.3299 205.584 74.9248L204.29 74.4219C204.29 74.4219 201.18 75.0579 199.055 78.6816L199.885 79.4803Z" fill="url(#paint30_linear_95_2522)"/>
<path d="M207.303 75.9492C207.303 75.9492 210.471 77.9608 209.776 81.8655C209.08 85.7703 205.951 84.513 204.695 83.5664C204.695 83.5664 206.028 84.7497 207.438 84.8976C208.849 85.0455 210.664 83.6847 210.684 81.0224C210.703 78.3749 207.303 75.9492 207.303 75.9492Z" fill="url(#paint31_linear_95_2522)"/>
<path d="M273.736 68.2689L273.698 68.2837L272.79 68.5647C272.79 68.5647 266.512 64.9262 266.512 57.3237C266.512 50.6383 271.805 48.0352 271.805 48.0352C271.805 48.0352 280.266 48.1831 281.869 55.4305C283.279 61.6574 278.566 66.42 273.736 68.2689Z" fill="url(#paint32_linear_95_2522)"/>
<path d="M277.914 58.7766L277.682 58.8505C277.682 58.8505 275.77 57.9039 275.77 56.0995C275.77 54.5169 277.45 53.9844 277.45 53.9844C277.45 53.9844 279.459 54.014 279.846 55.7445C280.174 57.2088 279.073 58.3476 277.914 58.7766Z" fill="url(#paint33_linear_95_2522)"/>
<path opacity="0.86" d="M277.136 57.9172L277.001 57.9615C277.001 57.9615 276.016 57.5622 276.016 56.4085C276.016 55.4027 276.846 54.8555 276.846 54.8555C276.846 54.8555 278.121 54.8851 278.372 55.9648C278.585 56.9262 277.87 57.6361 277.136 57.9172Z" fill="#9A7AD9"/>
<path d="M223.01 60.8005L218.934 53.5234L220.17 63.4332C220.151 63.4184 221.619 62.1317 223.01 60.8005Z" fill="url(#paint34_linear_95_2522)"/>
<path d="M217.715 67.1739L253.452 56.4062L252.119 58.6544L217.715 68.3128V67.1739Z" fill="url(#paint35_linear_95_2522)"/>
<path d="M254.594 58.4034L256.139 55.3861L263.345 52.6055L261.567 56.9095L254.594 58.4034Z" fill="white"/>
<path d="M278.568 60.4453C278.568 60.4453 278.123 62.235 276.211 63.8028L277.582 64.853C277.582 64.853 279.959 63.4182 280.596 61.1405L278.568 60.4453Z" fill="white"/>
<path d="M285.958 132.832C284.76 127.67 278.656 126.738 278.598 126.724L278.752 126.117C278.829 126.132 285.475 127.153 286.769 132.729L285.958 132.832Z" fill="white"/>
<path d="M283.118 135.968C279.738 131.265 273.073 129.919 272.996 129.904L273.189 129.312C273.479 129.372 280.259 130.747 283.814 135.687L283.118 135.968Z" fill="white"/>
<path d="M280.725 139.502C275.605 136.203 268.245 135.153 268.188 135.153L268.323 134.547C268.632 134.591 275.972 135.627 281.246 139.043L280.725 139.502Z" fill="white"/>
<path d="M278.33 145.259C272.264 141.842 265.503 140.481 265.445 140.467L265.638 139.875C265.716 139.89 272.612 141.28 278.813 144.756L278.33 145.259Z" fill="white"/>
<path d="M276.552 150.552C268.071 147.46 263.764 147.874 263.706 147.889L263.59 147.283C263.764 147.268 268.168 146.824 276.88 150.004L276.552 150.552Z" fill="white"/>
<path d="M270.984 156.127C266.522 156.127 263.354 155.491 263.18 155.447L263.392 154.855C263.45 154.87 268.956 155.965 275.581 155.27L275.697 155.876C273.997 156.054 272.413 156.127 270.984 156.127Z" fill="white"/>
<path d="M264.748 163.242C264.652 163.242 264.594 163.242 264.594 163.242L264.632 162.62C264.671 162.62 268.979 162.724 274.639 160.047L275.064 160.565C269.713 163.094 265.618 163.242 264.748 163.242Z" fill="white"/>
<path d="M275.233 163.243H274.422C274.422 163.021 274.847 141.086 287.21 131.605L287.77 132.034C275.658 141.338 275.233 163.021 275.233 163.243Z" fill="white"/>
<path d="M216.227 48.7024C216.227 48.7024 221.732 55.5505 225.364 58.2572C230.618 62.1915 236.973 58.479 236.973 58.479L238.133 56.8964C238.133 56.8964 231.816 51.6309 228.029 46.5429C228.029 46.5429 220.805 45.5076 216.227 48.7024Z" fill="#E1D197"/>
<path d="M166.579 33.1337L161.344 36.7278C161.344 36.7278 84.7695 36.2545 66.3986 37.9407C66.3986 37.9407 58.4204 80.6267 58.4204 107.28L54.0547 109.454V109.335C56.0637 77.491 58.6523 37.5265 58.6523 37.5265C58.6523 37.5265 59.5988 32.0244 71.054 31.418L159.972 32.1279L166.579 33.1337Z" fill="url(#paint36_linear_95_2522)"/>
<path d="M59.7381 143.676L57.9609 145.051C57.9609 145.051 181.071 150.272 252.121 145.007L250.112 144.297C250.092 144.297 161.831 148.157 59.7381 143.676Z" fill="url(#paint37_linear_95_2522)"/>
<path d="M104.086 146.34L120.718 155.821H195.979L184.543 147.553C184.543 147.553 117.26 147.05 104.086 146.34Z" fill="url(#paint38_linear_95_2522)"/>
<path d="M39.6328 124.998L49.5813 123.297H53.0971V124.998H39.6328Z" fill="url(#paint39_linear_95_2522)"/>
<path d="M72.273 50.4922C72.273 50.4922 68.68 66.7176 68.6993 79.482H125.551C125.551 79.482 125.28 58.0946 125.551 50.4922H72.273V50.4922Z" fill="#9275C2"/>
<path d="M90.2173 65.4489H80.9062L81.4279 58.1719H90.5843L90.2173 65.4489Z" fill="#6EFFE8"/>
<path d="M102.116 65.4489H92.8047L93.1331 58.1719H102.29L102.116 65.4489Z" fill="#839FFF"/>
<path d="M114.018 65.4489H104.707L104.862 58.1719H114.018V65.4489Z" fill="#6877FF"/>
<path d="M89.7151 75.4341H80.2109L80.7325 68.1719H90.0821L89.7151 75.4341Z" fill="#FF1D9C"/>
<path d="M101.867 75.4341H92.3633L92.6917 68.1719H102.041L101.867 75.4341Z" fill="#981382"/>
<path d="M114.016 75.4341H104.512L104.647 68.1719H114.016V75.4341Z" fill="#140047"/>
<path d="M71.2734 55.5062H125.459L125.555 50.4922H72.2779L71.2734 55.5062Z" fill="url(#paint40_linear_95_2522)"/>
<path d="M72.5781 54.7509L73.177 51.3047H77.6007L77.1371 54.7509H72.5781Z" fill="white"/>
<path d="M62.2266 94.6306L153.984 38.0561C153.984 38.0561 110.057 37.4793 67.7707 39.1654C67.79 39.1507 64.081 76.9853 62.2266 94.6306Z" fill="url(#paint41_linear_95_2522)"/>
<path d="M151.859 110.459L153.366 100.387H168.414L169.4 110.045L164.454 112.663H156.94L151.859 110.459Z" fill="url(#paint42_linear_95_2522)"/>
<path d="M160.629 64.875C137.699 64.875 138.645 83.8071 146.759 90.8771C152.496 95.8911 150.158 97.8139 150.719 98.7901C151.279 99.7663 153.365 100.387 153.365 100.387H160.629H167.892C167.892 100.387 169.959 99.7663 170.538 98.7901C171.099 97.8139 168.684 95.8319 174.498 90.8771C182.979 83.6592 183.983 64.875 160.629 64.875Z" fill="url(#paint43_linear_95_2522)"/>
<path d="M156.938 112.664L158.927 113.714H162.462L164.452 112.664H156.938Z" fill="url(#paint44_linear_95_2522)"/>
<path d="M145.19 75.6719H149.71C149.71 75.6719 150.56 71.1607 153.207 68.8534L149.189 68.0547C149.208 68.0547 144.726 70.791 145.19 75.6719Z" fill="white"/>
<path d="M171.289 87.9188L173.839 88.9689C173.839 88.9689 178.804 84.8571 178.649 79H175.037C175.037 79 175.539 84.0436 171.289 87.9188Z" fill="white"/>
<path d="M150.719 98.7891C150.719 98.7891 164.743 100.239 170.538 98.7891C170.538 98.7891 169.92 100.002 168.414 100.386L168.935 105.46C168.935 105.46 162.348 102.383 153.114 102.117L153.365 100.386C153.365 100.386 151.26 99.573 150.719 98.7891Z" fill="url(#paint45_linear_95_2522)"/>
<path d="M57.4946 55.5117H54.5391V61.4576L57.089 61.8126L57.4946 55.5117Z" fill="url(#paint46_linear_95_2522)"/>
<path d="M56.8664 65.4492L54.5483 65.9521L53.9688 70.4189L56.4993 71.0253L56.8664 65.4492Z" fill="url(#paint47_linear_95_2522)"/>
<path d="M265.414 36.4157L279.497 28.8281L285.466 31.4017L269.78 42.4504L265.414 36.4157Z" fill="#FF1D9C"/>
<path d="M68.6094 23.1767L82.9043 18L86.5939 23.2803L71.9706 26.0462L68.6094 23.1767Z" fill="#4F31E0"/>
<path d="M212.852 176.232L233.058 175.848L237.539 181.069L214.493 180.374L212.852 176.232Z" fill="#6877FF"/>
</g>
<path d="M50.5 1H248.5V-1H50.5V1ZM297.5 50V149H299.5V50H297.5ZM248.5 198H50.5V200H248.5V198ZM1.5 149V50H-0.5V149H1.5ZM50.5 198C23.438 198 1.5 176.062 1.5 149H-0.5C-0.5 177.167 22.3335 200 50.5 200V198ZM297.5 149C297.5 176.062 275.562 198 248.5 198V200C276.667 200 299.5 177.167 299.5 149H297.5ZM248.5 1C275.562 1 297.5 22.938 297.5 50H299.5C299.5 21.8335 276.667 -1 248.5 -1V1ZM50.5 -1C22.3335 -1 -0.5 21.8335 -0.5 50H1.5C1.5 22.938 23.438 1 50.5 1V-1Z" fill="url(#paint48_linear_95_2522)"/>
<defs>
<linearGradient id="paint0_linear_95_2522" x1="147.55" y1="174.43" x2="147.55" y2="164.984" gradientUnits="userSpaceOnUse">
<stop stop-color="#1C257B"/>
<stop offset="1" stop-color="#482C83"/>
</linearGradient>
<linearGradient id="paint1_linear_95_2522" x1="147.55" y1="164.984" x2="147.55" y2="28.8334" gradientUnits="userSpaceOnUse">
<stop stop-color="#744FD8"/>
<stop offset="1" stop-color="#3996F7"/>
</linearGradient>
<linearGradient id="paint2_linear_95_2522" x1="155.206" y1="23.5723" x2="155.206" y2="12.9961" gradientUnits="userSpaceOnUse">
<stop stop-color="#1C257B"/>
<stop offset="1" stop-color="#482C83"/>
</linearGradient>
<linearGradient id="paint3_linear_95_2522" x1="147.01" y1="159.031" x2="147.01" y2="15.9828" gradientUnits="userSpaceOnUse">
<stop stop-color="#D1BBFF"/>
<stop offset="1" stop-color="#EFEAFF"/>
</linearGradient>
<linearGradient id="paint4_linear_95_2522" x1="97.7991" y1="44.0743" x2="163.343" y2="44.0743" gradientUnits="userSpaceOnUse">
<stop stop-color="#8B8BE0"/>
<stop offset="1" stop-color="#A177B7"/>
</linearGradient>
<linearGradient id="paint5_linear_95_2522" x1="87.3328" y1="95.1064" x2="154.652" y2="95.1064" gradientUnits="userSpaceOnUse">
<stop stop-color="#8B8BE0"/>
<stop offset="1" stop-color="#A177B7"/>
</linearGradient>
<linearGradient id="paint6_linear_95_2522" x1="84.9613" y1="118.555" x2="151.763" y2="118.555" gradientUnits="userSpaceOnUse">
<stop stop-color="#8B8BE0"/>
<stop offset="1" stop-color="#A177B7"/>
</linearGradient>
<linearGradient id="paint7_linear_95_2522" x1="92.434" y1="69.064" x2="160.848" y2="69.064" gradientUnits="userSpaceOnUse">
<stop stop-color="#8B8BE0"/>
<stop offset="1" stop-color="#A177B7"/>
</linearGradient>
<linearGradient id="paint8_linear_95_2522" x1="94.3412" y1="55.7559" x2="177.42" y2="55.7559" gradientUnits="userSpaceOnUse">
<stop stop-color="#8B8BE0"/>
<stop offset="1" stop-color="#A177B7"/>
</linearGradient>
<linearGradient id="paint9_linear_95_2522" x1="89.0028" y1="82.4463" x2="177.416" y2="82.4463" gradientUnits="userSpaceOnUse">
<stop stop-color="#8B8BE0"/>
<stop offset="1" stop-color="#A177B7"/>
</linearGradient>
<linearGradient id="paint10_linear_95_2522" x1="84.188" y1="107.011" x2="177.414" y2="107.011" gradientUnits="userSpaceOnUse">
<stop stop-color="#8B8BE0"/>
<stop offset="1" stop-color="#A177B7"/>
</linearGradient>
<linearGradient id="paint11_linear_95_2522" x1="80.0026" y1="129.758" x2="177.418" y2="129.758" gradientUnits="userSpaceOnUse">
<stop stop-color="#8B8BE0"/>
<stop offset="1" stop-color="#A177B7"/>
</linearGradient>
<linearGradient id="paint12_linear_95_2522" x1="177.219" y1="152.404" x2="222.713" y2="152.404" gradientUnits="userSpaceOnUse">
<stop stop-color="#8B8BE0"/>
<stop offset="1" stop-color="#A177B7"/>
</linearGradient>
<linearGradient id="paint13_linear_95_2522" x1="147.01" y1="159.029" x2="147.01" y2="16.3853" gradientUnits="userSpaceOnUse">
<stop stop-color="#8B8BE0"/>
<stop offset="1" stop-color="white"/>
</linearGradient>
<linearGradient id="paint14_linear_95_2522" x1="140.815" y1="15.1888" x2="174.11" y2="15.1888" gradientUnits="userSpaceOnUse">
<stop stop-color="#B9ACF4"/>
<stop offset="1" stop-color="#E1D1F5"/>
</linearGradient>
<linearGradient id="paint15_linear_95_2522" x1="155.957" y1="157.85" x2="155.957" y2="31.3958" gradientUnits="userSpaceOnUse">
<stop stop-color="#1C257B"/>
<stop offset="1" stop-color="#482C83"/>
</linearGradient>
<linearGradient id="paint16_linear_95_2522" x1="155.923" y1="146.338" x2="155.923" y2="37.9353" gradientUnits="userSpaceOnUse">
<stop stop-color="#FDFDFF"/>
<stop offset="1" stop-color="#DBCAFF"/>
</linearGradient>
<linearGradient id="paint17_linear_95_2522" x1="46.3588" y1="135.67" x2="46.3588" y2="124.993" gradientUnits="userSpaceOnUse">
<stop stop-color="#1C257B"/>
<stop offset="1" stop-color="#482C83"/>
</linearGradient>
<linearGradient id="paint18_linear_95_2522" x1="114.07" y1="177.457" x2="114.07" y2="129.76" gradientUnits="userSpaceOnUse">
<stop stop-color="#1C257B"/>
<stop offset="1" stop-color="#482C83"/>
</linearGradient>
<linearGradient id="paint19_linear_95_2522" x1="225.257" y1="73.9006" x2="241.042" y2="73.9006" gradientUnits="userSpaceOnUse">
<stop stop-color="#CF6074"/>
<stop offset="1" stop-color="#FF817F"/>
</linearGradient>
<linearGradient id="paint20_linear_95_2522" x1="194.361" y1="77.4467" x2="194.361" y2="73.3909" gradientUnits="userSpaceOnUse">
<stop stop-color="#1C257B"/>
<stop offset="1" stop-color="#482C83"/>
</linearGradient>
<linearGradient id="paint21_linear_95_2522" x1="245.456" y1="177.205" x2="245.456" y2="46.4569" gradientUnits="userSpaceOnUse">
<stop offset="0.016" stop-color="#FFC2A9"/>
<stop offset="1" stop-color="#FF9595"/>
</linearGradient>
<linearGradient id="paint22_linear_95_2522" x1="238.365" y1="81.8582" x2="238.365" y2="48.0361" gradientUnits="userSpaceOnUse">
<stop stop-color="#1C257B"/>
<stop offset="1" stop-color="#482C83"/>
</linearGradient>
<linearGradient id="paint23_linear_95_2522" x1="216.039" y1="70.1123" x2="216.039" y2="46.4043" gradientUnits="userSpaceOnUse">
<stop offset="0.016" stop-color="#FF9A93"/>
<stop offset="1" stop-color="#FF9595"/>
</linearGradient>
<linearGradient id="paint24_linear_95_2522" x1="209.938" y1="110.72" x2="209.938" y2="73.597" gradientUnits="userSpaceOnUse">
<stop offset="0.016" stop-color="#FF9A93"/>
<stop offset="1" stop-color="#FF9595"/>
</linearGradient>
<linearGradient id="paint25_linear_95_2522" x1="280.984" y1="178.253" x2="280.984" y2="126.321" gradientUnits="userSpaceOnUse">
<stop stop-color="#744FD8"/>
<stop offset="1" stop-color="#3996F7"/>
</linearGradient>
<linearGradient id="paint26_linear_95_2522" x1="278.566" y1="178.482" x2="278.566" y2="131.821" gradientUnits="userSpaceOnUse">
<stop stop-color="#8B8BE0"/>
<stop offset="1" stop-color="white"/>
</linearGradient>
<linearGradient id="paint27_linear_95_2522" x1="249.877" y1="124.59" x2="249.877" y2="72.8775" gradientUnits="userSpaceOnUse">
<stop offset="0.016" stop-color="#FF997C"/>
<stop offset="1" stop-color="#FF898E"/>
</linearGradient>
<linearGradient id="paint28_linear_95_2522" x1="218.919" y1="96.1368" x2="229.454" y2="96.1368" gradientUnits="userSpaceOnUse">
<stop stop-color="#CF6074"/>
<stop offset="1" stop-color="#FF817F"/>
</linearGradient>
<linearGradient id="paint29_linear_95_2522" x1="199.067" y1="79.5506" x2="209.918" y2="79.5506" gradientUnits="userSpaceOnUse">
<stop stop-color="#B9ACF4"/>
<stop offset="1" stop-color="#E1D1F5"/>
</linearGradient>
<linearGradient id="paint30_linear_95_2522" x1="202.332" y1="79.4758" x2="202.332" y2="74.4174" gradientUnits="userSpaceOnUse">
<stop stop-color="#B9ACF4"/>
<stop offset="1" stop-color="#E1D1F5"/>
</linearGradient>
<linearGradient id="paint31_linear_95_2522" x1="207.68" y1="84.9127" x2="207.68" y2="75.9467" gradientUnits="userSpaceOnUse">
<stop stop-color="#CF6074"/>
<stop offset="1" stop-color="#FF817F"/>
</linearGradient>
<linearGradient id="paint32_linear_95_2522" x1="274.326" y1="68.5626" x2="274.326" y2="48.0353" gradientUnits="userSpaceOnUse">
<stop stop-color="#B9ACF4"/>
<stop offset="1" stop-color="#E1D1F5"/>
</linearGradient>
<linearGradient id="paint33_linear_95_2522" x1="277.846" y1="58.8535" x2="277.846" y2="53.9808" gradientUnits="userSpaceOnUse">
<stop stop-color="#FDFDFF"/>
<stop offset="1" stop-color="#DBCAFF"/>
</linearGradient>
<linearGradient id="paint34_linear_95_2522" x1="220.962" y1="63.4251" x2="220.962" y2="53.5212" gradientUnits="userSpaceOnUse">
<stop stop-color="#CF6074"/>
<stop offset="1" stop-color="#FF817F"/>
</linearGradient>
<linearGradient id="paint35_linear_95_2522" x1="235.581" y1="68.3076" x2="235.581" y2="56.4133" gradientUnits="userSpaceOnUse">
<stop stop-color="#B9ACF4"/>
<stop offset="1" stop-color="#E1D1F5"/>
</linearGradient>
<linearGradient id="paint36_linear_95_2522" x1="110.314" y1="109.444" x2="110.314" y2="31.4005" gradientUnits="userSpaceOnUse">
<stop stop-color="#B9ACF4"/>
<stop offset="1" stop-color="#E1D1F5"/>
</linearGradient>
<linearGradient id="paint37_linear_95_2522" x1="155.035" y1="147.362" x2="155.035" y2="143.677" gradientUnits="userSpaceOnUse">
<stop stop-color="#744FD8"/>
<stop offset="1" stop-color="#3996F7"/>
</linearGradient>
<linearGradient id="paint38_linear_95_2522" x1="150.034" y1="155.818" x2="150.034" y2="146.34" gradientUnits="userSpaceOnUse">
<stop stop-color="#B9ACF4"/>
<stop offset="1" stop-color="#E1D1F5"/>
</linearGradient>
<linearGradient id="paint39_linear_95_2522" x1="46.3588" y1="124.995" x2="46.3588" y2="123.292" gradientUnits="userSpaceOnUse">
<stop stop-color="#744FD8"/>
<stop offset="1" stop-color="#3996F7"/>
</linearGradient>
<linearGradient id="paint40_linear_95_2522" x1="98.4141" y1="55.5034" x2="98.4141" y2="50.4886" gradientUnits="userSpaceOnUse">
<stop stop-color="#B9ACF4"/>
<stop offset="1" stop-color="#E1D1F5"/>
</linearGradient>
<linearGradient id="paint41_linear_95_2522" x1="108.112" y1="94.6246" x2="108.112" y2="37.9505" gradientUnits="userSpaceOnUse">
<stop stop-color="#B9ACF4"/>
<stop offset="1" stop-color="#E1D1F5"/>
</linearGradient>
<linearGradient id="paint42_linear_95_2522" x1="160.627" y1="112.658" x2="160.627" y2="100.39" gradientUnits="userSpaceOnUse">
<stop stop-color="#EFEAFF"/>
<stop offset="1" stop-color="#D1BBFF"/>
</linearGradient>
<linearGradient id="paint43_linear_95_2522" x1="160.768" y1="100.391" x2="160.768" y2="64.872" gradientUnits="userSpaceOnUse">
<stop stop-color="#CF95FF"/>
<stop offset="1" stop-color="#9552FF"/>
</linearGradient>
<linearGradient id="paint44_linear_95_2522" x1="160.696" y1="113.715" x2="160.696" y2="112.659" gradientUnits="userSpaceOnUse">
<stop stop-color="#1C257B"/>
<stop offset="1" stop-color="#482C83"/>
</linearGradient>
<linearGradient id="paint45_linear_95_2522" x1="150.72" y1="102.127" x2="170.533" y2="102.127" gradientUnits="userSpaceOnUse">
<stop stop-color="#8B8BE0"/>
<stop offset="1" stop-color="white"/>
</linearGradient>
<linearGradient id="paint46_linear_95_2522" x1="56.0196" y1="61.8126" x2="56.0196" y2="55.5089" gradientUnits="userSpaceOnUse">
<stop stop-color="#1C257B"/>
<stop offset="1" stop-color="#482C83"/>
</linearGradient>
<linearGradient id="paint47_linear_95_2522" x1="55.415" y1="71.0309" x2="55.415" y2="65.4469" gradientUnits="userSpaceOnUse">
<stop stop-color="#1C257B"/>
<stop offset="1" stop-color="#482C83"/>
</linearGradient>
<linearGradient id="paint48_linear_95_2522" x1="149.5" y1="0" x2="149.5" y2="199" gradientUnits="userSpaceOnUse">
<stop stop-color="#6F67F0"/>
<stop offset="1" stop-color="#59068C"/>
</linearGradient>
<clipPath id="clip0_95_2522">
<path d="M0.5 50C0.5 22.3858 22.8858 0 50.5 0H248.5C276.114 0 298.5 22.3858 298.5 50V149C298.5 176.614 276.114 199 248.5 199H50.5C22.8858 199 0.5 176.614 0.5 149V50Z" fill="white"/>
</clipPath>
</defs>
</svg>
