<svg width="328" height="229" viewBox="0 0 328 229" fill="none" xmlns="http://www.w3.org/2000/svg">
<g filter="url(#filter0_d_95_2287)">
<path d="M10 60C10 32.3858 32.3858 10 60 10H258C285.614 10 308 32.3858 308 60V159C308 186.614 285.614 209 258 209H60C32.3858 209 10 186.614 10 159V60Z" fill="url(#paint0_linear_95_2287)"/>
<path d="M70.8128 182.173L66.2539 174.984H247.838L243.414 184.436C243.414 184.436 151.289 179.303 70.8128 182.173Z" fill="url(#paint1_linear_95_2287)"/>
<path d="M66.2539 174.984L93.0665 44.5895L229.023 38.8359L247.838 174.984H66.2539Z" fill="url(#paint2_linear_95_2287)"/>
<path d="M135.582 33.5716V25.9839C135.582 25.9839 164.153 21.177 193.805 23.7653L192.704 31.1903C192.723 31.1903 168.789 29.1787 135.582 33.5716Z" fill="url(#paint3_linear_95_2287)"/>
<path d="M135.582 33.5707L138.808 35.1829L188.898 33.5707L192.723 31.1894C192.723 31.1894 165.563 28.601 135.582 33.5707Z" fill="#140047"/>
<path opacity="0.86" d="M80.9062 168.314L238.575 169.024L223.682 45.507L110.636 43.9688L80.9062 168.314Z" fill="#9ABAB3"/>
<path d="M238.582 169.026C170.584 157.326 74.4414 169.026 74.4414 169.026L100.327 38.8233C166.045 23.8404 228.537 26.0885 228.537 26.0885L228.556 26.3695L238.582 169.026Z" fill="url(#paint4_linear_95_2287)"/>
<path d="M153.93 37.3843C153.891 37.6801 153.795 38.0055 153.64 38.3457C153.466 38.6859 153.235 39.0113 152.925 39.3514C152.616 39.6768 152.23 40.0022 151.786 40.2981C151.341 40.5939 150.801 40.8601 150.202 41.0967C150.762 41.1559 151.206 41.2595 151.515 41.4074C151.824 41.5553 152.075 41.718 152.23 41.9102C152.385 42.0877 152.481 42.2652 152.52 42.4427C152.558 42.6202 152.558 42.7681 152.558 42.8716C152.52 43.2414 152.385 43.5668 152.133 43.8626C151.882 44.1584 151.593 44.4099 151.226 44.6317C150.878 44.8536 150.472 45.0459 150.047 45.2086C149.622 45.3713 149.197 45.5044 148.772 45.6079C148.347 45.7114 147.961 45.8002 147.613 45.8594C147.246 45.9185 146.956 45.9777 146.763 45.9925C146.493 46.022 146.222 46.0516 145.933 46.0664C145.701 46.0812 145.43 46.0812 145.16 46.0812C144.889 46.0812 144.638 46.0664 144.426 46.0221C144.561 45.0902 144.677 44.1732 144.754 43.271C144.87 42.0286 144.928 40.8157 144.947 39.6177C144.967 38.4196 144.928 37.2216 144.851 36.0235C145.295 35.8904 145.759 35.7721 146.203 35.6686C146.647 35.565 147.053 35.4763 147.42 35.4023C147.845 35.3284 148.251 35.2544 148.618 35.1952C148.907 35.1509 149.255 35.1213 149.661 35.1065C150.047 35.0917 150.453 35.0917 150.858 35.1361C151.264 35.1657 151.67 35.2396 152.056 35.3284C152.443 35.4171 152.79 35.5502 153.08 35.7277C153.389 35.9052 153.602 36.1271 153.775 36.3933C153.911 36.6595 153.988 36.9997 153.93 37.3843ZM149.777 42.9752C149.796 42.7533 149.699 42.5314 149.545 42.3687C149.468 42.2948 149.39 42.2208 149.294 42.1469C149.197 42.0729 149.062 42.0138 148.907 41.9694C148.753 41.925 148.579 41.8807 148.367 41.8659C148.154 41.8363 147.922 41.8363 147.652 41.8511C147.575 42.3687 147.497 42.8716 147.439 43.3745C147.381 43.8774 147.323 44.3803 147.285 44.898C147.575 44.8092 147.845 44.7057 148.077 44.6021C148.309 44.4986 148.502 44.3951 148.676 44.2915C148.849 44.188 148.985 44.0845 149.12 43.9809C149.236 43.8774 149.352 43.7739 149.429 43.6703C149.603 43.4337 149.738 43.197 149.777 42.9752ZM151.071 38.0499C151.071 38.0499 151.071 38.0055 151.09 37.9167C151.09 37.828 151.09 37.7097 151.052 37.5765C151.032 37.4434 150.955 37.2955 150.878 37.1476C150.801 36.9997 150.665 36.8666 150.472 36.7335C150.279 36.6152 150.028 36.5264 149.719 36.4525C149.41 36.3933 149.004 36.3785 148.521 36.4229C148.386 37.2216 148.231 38.0351 148.096 38.8338C147.961 39.6325 147.845 40.4312 147.729 41.2447C148.077 41.1411 148.405 41.008 148.695 40.8453C148.985 40.6974 149.236 40.5347 149.468 40.3572C149.699 40.1945 149.893 40.017 150.047 39.8247C150.202 39.6473 150.356 39.4698 150.472 39.2923C150.743 38.9225 150.955 38.4936 151.071 38.0499Z" fill="#EF138B"/>
<path d="M163.902 36.6015C163.864 36.9269 163.767 37.2671 163.612 37.6073C163.458 37.9475 163.226 38.2877 162.917 38.613C162.608 38.9384 162.222 39.2638 161.758 39.5744C161.294 39.885 160.734 40.1661 160.097 40.4323C160.58 41.0831 161.12 41.7043 161.7 42.2959C162.299 42.8875 162.975 43.4496 163.728 43.9969C162.26 44.1448 161.507 44.2335 160.039 44.3962C159.189 43.065 158.764 42.3995 157.894 41.0683C157.875 41.6599 157.856 42.2516 157.875 42.8284C157.875 43.4052 157.894 43.9821 157.933 44.5441C156.504 44.6772 155.789 44.7512 154.359 44.8991C154.611 43.775 154.842 42.6509 155.016 41.5416C155.19 40.4323 155.345 39.3082 155.46 38.1841C155.538 37.5333 155.596 36.8825 155.634 36.2465C155.692 35.6105 155.712 34.9597 155.731 34.3089C156.252 34.1758 156.793 34.0575 157.334 33.9688C157.875 33.88 158.319 33.8208 158.706 33.7913C158.976 33.7617 159.285 33.7469 159.672 33.7321C160.039 33.7173 160.444 33.7321 160.85 33.7765C161.256 33.8209 161.661 33.8948 162.048 34.0131C162.434 34.1315 162.782 34.2942 163.072 34.516C163.361 34.7379 163.593 35.0189 163.748 35.3591C163.902 35.6845 163.96 36.1134 163.902 36.6015ZM157.991 39.8851C158.339 39.7963 158.648 39.7076 158.918 39.5744C159.189 39.4561 159.421 39.323 159.633 39.1751C159.846 39.0272 160.019 38.8941 160.174 38.7314C160.328 38.5834 160.444 38.4356 160.541 38.2877C160.773 37.9475 160.927 37.5925 160.985 37.2079C160.985 37.1931 160.985 37.134 161.005 37.0304C161.005 36.9269 161.005 36.779 160.966 36.6163C160.927 36.4536 160.889 36.2761 160.811 36.0986C160.734 35.9063 160.618 35.7288 160.464 35.5661C160.309 35.4034 160.097 35.2555 159.846 35.152C159.594 35.0337 159.266 34.9745 158.88 34.9597C158.667 35.7436 158.493 36.5128 158.358 37.2819C158.204 38.051 158.107 38.8201 158.03 39.5892C158.01 39.7223 158.01 39.7667 157.991 39.8851Z" fill="#EF138B"/>
<path d="M170.564 43.4769C170.177 43.4917 169.772 43.5065 169.385 43.5212C168.999 43.536 168.593 43.5508 168.207 43.5804C167.55 43.6248 166.913 43.6692 166.256 43.7283C165.599 43.7875 164.961 43.8466 164.305 43.9206C164.382 43.2846 164.421 42.9592 164.498 42.3232C164.73 42.3232 164.942 42.3232 165.174 42.3084C165.406 42.2936 165.618 42.2936 165.85 42.2788C165.985 41.5097 166.121 40.7406 166.256 39.9863C166.391 39.2319 166.507 38.4628 166.584 37.6937C166.642 37.1908 166.681 36.6879 166.7 36.1851C166.719 35.697 166.758 35.1941 166.777 34.6912C166.526 34.706 166.256 34.7356 165.985 34.7651C165.715 34.7947 165.444 34.8243 165.174 34.8539C165.251 34.2327 165.29 33.9221 165.386 33.3009C166.14 33.2565 166.913 33.2121 167.666 33.1677C168.419 33.1234 169.192 33.0642 169.965 33.0198C170.235 33.005 170.525 32.9755 170.795 32.9607C171.066 32.9459 171.356 32.9163 171.645 32.8867C171.549 33.4783 171.491 33.7742 171.375 34.3806C171.143 34.3954 170.931 34.4102 170.699 34.4102C170.486 34.425 170.255 34.4397 170.023 34.4545C169.772 35.3568 169.578 36.2442 169.424 37.1317C169.269 38.0191 169.134 38.9065 169.037 39.794C168.96 40.5779 168.902 41.347 168.883 42.1161C169.192 42.1013 169.52 42.0717 169.849 42.057C170.177 42.0274 170.506 42.0126 170.853 41.983C170.757 42.5746 170.679 42.8705 170.564 43.4769Z" fill="#EF138B"/>
<path d="M178.522 39.2474C178.213 39.2474 177.904 39.2474 177.595 39.2622C177.286 39.2622 176.957 39.277 176.648 39.2917C176.474 39.2917 176.281 39.3065 176.088 39.3213C175.895 39.3361 175.702 39.3509 175.508 39.3509C175.373 40.4306 175.296 40.9631 175.141 42.028C175.953 41.9837 176.745 41.9393 177.517 41.8801C178.29 41.821 179.101 41.747 179.971 41.6731C179.893 42.3091 179.855 42.6197 179.797 43.2557C179.237 43.2557 178.715 43.2705 178.194 43.2705C177.672 43.2852 177.15 43.2852 176.648 43.3148C175.875 43.3444 175.122 43.374 174.369 43.4184C173.615 43.4627 172.843 43.5071 172.031 43.5811C172.224 42.6493 172.379 41.7322 172.533 40.8152C172.688 39.8982 172.823 38.9811 172.92 38.0641C173.016 37.1767 173.094 36.2892 173.152 35.4314C173.21 34.5587 173.229 33.686 173.229 32.8134C174.388 32.7838 175.508 32.7543 176.571 32.6951C177.247 32.6655 177.923 32.6211 178.599 32.5768C179.275 32.5324 180.009 32.4732 180.763 32.4141C180.685 33.1092 180.628 33.4494 180.55 34.1446C179.932 34.115 179.333 34.0854 178.734 34.0854C178.136 34.0854 177.537 34.0854 176.938 34.115C176.706 34.1298 176.59 34.1298 176.358 34.1446C176.184 34.7806 176.049 35.4018 175.933 36.023C175.817 36.6442 175.528 37.8127 175.644 37.8866C175.682 37.931 176.165 37.8866 176.416 37.8718C176.687 37.8571 176.957 37.8423 177.228 37.8423C177.459 37.8275 177.691 37.8275 177.923 37.8127C178.155 37.7979 178.406 37.7979 178.657 37.7683C178.638 38.3451 178.599 38.641 178.522 39.2474Z" fill="#EF138B"/>
<path d="M187.681 39.0713C187.372 39.0565 187.063 39.0565 186.734 39.0565C186.406 39.0565 186.097 39.0565 185.788 39.0565C185.614 39.0565 185.44 39.0565 185.266 39.0713C185.092 39.0713 184.919 39.0861 184.745 39.0861C184.629 40.7427 184.571 41.5709 184.436 43.2275C184.204 43.2127 183.972 43.2127 183.702 43.2127C183.431 43.2127 183.18 43.2127 182.929 43.2127C182.678 43.2127 182.446 43.2275 182.233 43.2275C182.021 43.2275 181.828 43.2423 181.654 43.2423C181.461 43.2571 181.287 43.2571 181.094 43.2719C181.287 42.3253 181.461 41.3935 181.635 40.4764C181.789 39.5594 181.924 38.6276 182.04 37.6958C182.156 36.7935 182.233 35.9061 182.291 35.0187C182.349 34.1312 182.388 33.2438 182.388 32.3563C183.566 32.3563 184.687 32.3563 185.749 32.3268C186.425 32.312 187.101 32.2824 187.778 32.2676C188.454 32.238 189.188 32.2084 189.96 32.1641C189.864 32.8592 189.825 33.2142 189.748 33.9241C189.13 33.8798 188.531 33.8354 187.932 33.8206C187.333 33.791 186.734 33.791 186.136 33.8058C185.904 33.8058 185.788 33.8058 185.556 33.8206C185.402 34.3827 185.286 34.9595 185.189 35.5363C185.092 36.1132 185.015 36.7048 184.938 37.3112C184.919 37.4295 184.919 37.4887 184.899 37.607C185.15 37.6218 185.402 37.6218 185.653 37.607C185.904 37.607 186.155 37.607 186.425 37.5923C186.657 37.5923 186.889 37.5923 187.121 37.5923C187.353 37.5923 187.604 37.5774 187.855 37.5774C187.797 38.1543 187.758 38.4649 187.681 39.0713Z" fill="#EF138B"/>
<path opacity="0.62" d="M108.908 55.6217C108.908 55.6217 131.567 49.6462 172.849 47.9453V54.1278C172.849 54.1278 145.418 53.4622 107.305 60.1772L108.908 55.6217Z" fill="url(#paint5_linear_95_2287)"/>
<path opacity="0.62" d="M98.7601 104.096C98.7601 104.096 127.273 101.212 164.169 100.812V106.004C164.169 106.004 136.815 105.442 96.8477 109.391L98.7601 104.096Z" fill="url(#paint6_linear_95_2287)"/>
<path opacity="0.62" d="M95.2723 127.654C95.2723 127.654 124.384 125.376 161.261 124.977V129.34C161.261 129.34 136.148 129.103 94.4609 132.12L95.2723 127.654Z" fill="url(#paint7_linear_95_2287)"/>
<path opacity="0.62" d="M103.537 79.3363C103.537 79.3363 131.972 75.3281 170.337 74.2188L169.68 79.9132C169.68 79.9132 143.234 79.4546 101.934 83.9066L103.537 79.3363Z" fill="url(#paint8_linear_95_2287)"/>
<path d="M103.844 75.5198L107.128 63.0069L107.244 62.9773C107.611 62.9033 143.058 55.9961 185.132 55.9961C185.653 55.9961 186.175 55.9961 186.716 55.9961H186.909V69.781H186.716C186.31 69.781 146.246 70.6241 104.114 75.4903L103.844 75.5198ZM107.475 63.2583L104.346 75.1501C144.874 70.491 183.432 69.5444 186.522 69.4704V56.2919C186.059 56.2919 185.595 56.2919 185.151 56.2919C144.333 56.2919 109.794 62.7998 107.475 63.2583Z" fill="url(#paint9_linear_95_2287)"/>
<path d="M98.5078 101.387L98.5658 101.18L101.772 88.3265L101.908 88.3117C102.313 88.2673 142.494 83.5195 184.451 83.5195C185.205 83.5195 185.958 83.5195 186.711 83.5195H186.905V98.2511H186.711C186.132 98.2511 142.455 98.2807 98.7783 101.357L98.5078 101.387ZM102.101 88.5927L99.0101 101.032C141.18 98.0736 183.254 97.9405 186.518 97.9405V83.8153C145.082 83.6674 104.786 88.2821 102.101 88.5927Z" fill="url(#paint10_linear_95_2287)"/>
<path d="M93.6953 125.159L93.734 124.966L96.5157 112.646L96.6702 112.631C97.1338 112.587 141.892 108.859 183.869 108.859C184.816 108.859 185.762 108.859 186.728 108.859H186.921V123.339H186.709C186.245 123.325 139.98 121.831 93.9464 125.129L93.6953 125.159ZM96.8634 112.927L94.1782 124.819C138.55 121.653 183.077 122.925 186.516 123.044V109.185C185.627 109.185 184.738 109.185 183.869 109.185C143.129 109.17 99.761 112.69 96.8634 112.927Z" fill="url(#paint11_linear_95_2287)"/>
<path d="M89.5078 147.639L89.5464 147.447L92.3282 135.126L92.4827 135.112C93.0043 135.067 144.736 130.127 186.733 132.568L186.926 132.582V145.761H186.713C186.211 145.746 135.792 144.326 89.7589 147.639H89.5078ZM92.6759 135.407L89.9907 147.299C134.46 144.119 182.927 145.347 186.52 145.435V132.863C145.702 130.512 95.7667 135.111 92.6759 135.407Z" fill="url(#paint12_linear_95_2287)"/>
<path d="M232.076 165.166C210.827 159.694 186.951 159.916 186.719 159.945V159.635C186.97 159.635 210.904 159.383 232.211 164.885L232.076 165.166Z" fill="url(#paint13_linear_95_2287)"/>
<path opacity="0.3" d="M238.582 169.024C170.584 157.325 74.4414 169.024 74.4414 169.024L100.327 38.8218C100.327 38.8218 89.2386 125.481 107.3 145.611C127.854 168.522 196.624 164.661 209.432 141.839C225.291 113.589 228.788 31.7962 228.537 26.3828L238.582 169.024Z" fill="url(#paint14_linear_95_2287)"/>
<path d="M150.32 24.1781L151.692 27.3285L182.812 25.9826L183.624 23.1428C183.604 23.1428 172.96 22.5807 150.32 24.1781Z" fill="url(#paint15_linear_95_2287)"/>
<path d="M127.852 174.986C127.852 174.986 221.889 172.117 247.832 174.986H127.852Z" fill="#9A7DF8"/>
<path d="M249.031 121.942L259.946 107.195L265.567 111.1L255.387 121.942H249.031Z" fill="#9A7DF8"/>
<path d="M68.0856 94.5379L71.0412 88.7844L57.0554 81.1523L49 85.767L68.0856 94.5379Z" fill="#4F31E0"/>
<path d="M150.32 191.357L163.842 188.266L166.875 192.895L150.32 194.123V191.357Z" fill="#FF1D9C"/>
<path d="M249.031 97.5079L267.962 89.6836L269.971 95.7774L250.345 100.969L249.031 97.5079Z" fill="#6877FF"/>
</g>
<defs>
<filter id="filter0_d_95_2287" x="0" y="0" width="328" height="229" filterUnits="userSpaceOnUse" color-interpolation-filters="sRGB">
<feFlood flood-opacity="0" result="BackgroundImageFix"/>
<feColorMatrix in="SourceAlpha" type="matrix" values="0 0 0 0 0 0 0 0 0 0 0 0 0 0 0 0 0 0 127 0" result="hardAlpha"/>
<feOffset dx="5" dy="5"/>
<feGaussianBlur stdDeviation="7.5"/>
<feComposite in2="hardAlpha" operator="out"/>
<feColorMatrix type="matrix" values="0 0 0 0 0 0 0 0 0 0 0 0 0 0 0 0 0 0 0.25 0"/>
<feBlend mode="normal" in2="BackgroundImageFix" result="effect1_dropShadow_95_2287"/>
<feBlend mode="normal" in="SourceGraphic" in2="effect1_dropShadow_95_2287" result="shape"/>
</filter>
<linearGradient id="paint0_linear_95_2287" x1="159" y1="10" x2="159" y2="209" gradientUnits="userSpaceOnUse">
<stop stop-color="#6F67F0"/>
<stop offset="1" stop-color="#59068C"/>
</linearGradient>
<linearGradient id="paint1_linear_95_2287" x1="157.05" y1="184.43" x2="157.05" y2="174.984" gradientUnits="userSpaceOnUse">
<stop stop-color="#1C257B"/>
<stop offset="1" stop-color="#482C83"/>
</linearGradient>
<linearGradient id="paint2_linear_95_2287" x1="157.05" y1="174.984" x2="157.05" y2="38.8334" gradientUnits="userSpaceOnUse">
<stop stop-color="#744FD8"/>
<stop offset="1" stop-color="#3996F7"/>
</linearGradient>
<linearGradient id="paint3_linear_95_2287" x1="164.706" y1="33.5723" x2="164.706" y2="22.9961" gradientUnits="userSpaceOnUse">
<stop stop-color="#1C257B"/>
<stop offset="1" stop-color="#482C83"/>
</linearGradient>
<linearGradient id="paint4_linear_95_2287" x1="156.51" y1="169.031" x2="156.51" y2="25.9828" gradientUnits="userSpaceOnUse">
<stop stop-color="#D1BBFF"/>
<stop offset="1" stop-color="#EFEAFF"/>
</linearGradient>
<linearGradient id="paint5_linear_95_2287" x1="107.299" y1="54.0743" x2="172.843" y2="54.0743" gradientUnits="userSpaceOnUse">
<stop stop-color="#8B8BE0"/>
<stop offset="1" stop-color="#A177B7"/>
</linearGradient>
<linearGradient id="paint6_linear_95_2287" x1="96.8328" y1="105.106" x2="164.152" y2="105.106" gradientUnits="userSpaceOnUse">
<stop stop-color="#8B8BE0"/>
<stop offset="1" stop-color="#A177B7"/>
</linearGradient>
<linearGradient id="paint7_linear_95_2287" x1="94.4613" y1="128.555" x2="161.263" y2="128.555" gradientUnits="userSpaceOnUse">
<stop stop-color="#8B8BE0"/>
<stop offset="1" stop-color="#A177B7"/>
</linearGradient>
<linearGradient id="paint8_linear_95_2287" x1="101.934" y1="79.064" x2="170.348" y2="79.064" gradientUnits="userSpaceOnUse">
<stop stop-color="#8B8BE0"/>
<stop offset="1" stop-color="#A177B7"/>
</linearGradient>
<linearGradient id="paint9_linear_95_2287" x1="103.841" y1="65.7559" x2="186.92" y2="65.7559" gradientUnits="userSpaceOnUse">
<stop stop-color="#8B8BE0"/>
<stop offset="1" stop-color="#A177B7"/>
</linearGradient>
<linearGradient id="paint10_linear_95_2287" x1="98.5028" y1="92.4463" x2="186.916" y2="92.4463" gradientUnits="userSpaceOnUse">
<stop stop-color="#8B8BE0"/>
<stop offset="1" stop-color="#A177B7"/>
</linearGradient>
<linearGradient id="paint11_linear_95_2287" x1="93.688" y1="117.011" x2="186.914" y2="117.011" gradientUnits="userSpaceOnUse">
<stop stop-color="#8B8BE0"/>
<stop offset="1" stop-color="#A177B7"/>
</linearGradient>
<linearGradient id="paint12_linear_95_2287" x1="89.5026" y1="139.758" x2="186.918" y2="139.758" gradientUnits="userSpaceOnUse">
<stop stop-color="#8B8BE0"/>
<stop offset="1" stop-color="#A177B7"/>
</linearGradient>
<linearGradient id="paint13_linear_95_2287" x1="186.719" y1="162.404" x2="232.213" y2="162.404" gradientUnits="userSpaceOnUse">
<stop stop-color="#8B8BE0"/>
<stop offset="1" stop-color="#A177B7"/>
</linearGradient>
<linearGradient id="paint14_linear_95_2287" x1="156.51" y1="169.029" x2="156.51" y2="26.3853" gradientUnits="userSpaceOnUse">
<stop stop-color="#8B8BE0"/>
<stop offset="1" stop-color="white"/>
</linearGradient>
<linearGradient id="paint15_linear_95_2287" x1="150.315" y1="25.1888" x2="183.61" y2="25.1888" gradientUnits="userSpaceOnUse">
<stop stop-color="#B9ACF4"/>
<stop offset="1" stop-color="#E1D1F5"/>
</linearGradient>
</defs>
</svg>
