<svg width="299" height="199" viewBox="0 0 299 199" fill="none" xmlns="http://www.w3.org/2000/svg">
<path d="M0.5 50C0.5 22.3858 22.8858 0 50.5 0H248.5C276.114 0 298.5 22.3858 298.5 50V149C298.5 176.614 276.114 199 248.5 199H50.5C22.8858 199 0.5 176.614 0.5 149V50Z" fill="white"/>
<path d="M256.087 54.0242L253.074 95.734L253.055 95.7636L249.249 148.581L59.1074 149.75L52.9258 53.8171C52.9258 53.8171 52.9258 50.0159 58.1029 48.951L137.189 48.596L250.041 48.0783C250.041 48.0636 256.087 48.7883 256.087 54.0242Z" fill="url(#paint0_linear_95_2992)"/>
<path d="M67.6115 144.987H240.677C240.677 144.987 250.335 84.7149 247.65 54.8377C247.65 54.8377 162.769 50.4744 63.4003 54.8377C63.381 54.8377 60.9663 96.3256 67.6115 144.987Z" fill="url(#paint1_linear_95_2992)"/>
<path d="M39.7734 158.552L41.6472 165.533C41.6472 165.533 181.312 165.016 267.603 166.45L270.153 155.668L39.7734 158.552Z" fill="url(#paint2_linear_95_2992)"/>
<path d="M59.0909 149.736L39.7734 158.551L270.173 155.667L249.252 148.582L59.0909 149.736Z" fill="url(#paint3_linear_95_2992)"/>
<path d="M67.2031 149.691V158.211L239.592 156.051V148.582L67.2031 149.691Z" fill="url(#paint4_linear_95_2992)"/>
<path d="M256.086 54.0257L253.073 95.7355L253.054 95.7651L248.437 94.3895C250.426 72.3662 248.437 54.0405 248.437 54.0405C206.17 51.2746 139.622 52.0437 139.622 52.0437L137.188 48.6123L250.04 48.0946C250.04 48.065 256.086 48.7898 256.086 54.0257Z" fill="url(#paint5_linear_95_2992)"/>
<path d="M58.7808 144.986L56.2695 105.895L62.9534 110.376C62.9534 110.376 63.9192 131.941 66.3339 144.972H58.7808V144.986Z" fill="url(#paint6_linear_95_2992)"/>
<path d="M67.6109 144.988L66.3359 145.713L241.41 146.349L240.657 144.988H67.6109Z" fill="url(#paint7_linear_95_2992)"/>
<path opacity="0.62" d="M112.273 157.129L118.378 153.564L183.168 152.691L189.949 156.241L112.273 157.129Z" fill="url(#paint8_linear_95_2992)"/>
<path d="M76.5137 149.749C76.5137 149.749 76.3206 148.136 77.383 146.953H112.56C112.56 146.953 112.096 147.634 111.961 149.749H76.5137Z" fill="url(#paint9_linear_95_2992)"/>
<path d="M234.593 149.749C234.593 149.749 234.786 148.136 233.724 146.953H198.547C198.547 146.953 199.011 147.634 199.146 149.749H234.593Z" fill="url(#paint10_linear_95_2992)"/>
<path d="M199.141 149.749L198.156 148.906L198.543 146.953C198.543 146.939 199.335 147.737 199.141 149.749Z" fill="#140047"/>
<path d="M111.965 149.752L112.969 149.397L112.583 146.941C112.583 146.941 111.984 147.237 111.965 149.752Z" fill="#140047"/>
<path d="M215.775 116.335V125.786H101.319V118.302L215.775 116.335ZM216.567 115.699L100.508 117.696V126.408H216.567V115.699Z" fill="white"/>
<path d="M100.523 117.698L145.977 116.914V126.395H100.523V117.698Z" fill="url(#paint11_linear_95_2992)"/>
<path d="M103.215 126.395L112.526 117.328H117.896L108.585 126.395H103.215Z" fill="url(#paint12_linear_95_2992)"/>
<path d="M116.949 126.393L126.55 117.252L131.997 117.148L122.319 126.393H116.949Z" fill="url(#paint13_linear_95_2992)"/>
<path d="M131.625 126.395L140.897 116.929L145.978 116.914L136.995 126.395H131.625Z" fill="url(#paint14_linear_95_2992)"/>
<path d="M158.657 110.449C175.567 110.449 189.275 99.9531 189.275 87.0058C189.275 74.0584 175.567 63.5625 158.657 63.5625C141.747 63.5625 128.039 74.0584 128.039 87.0058C128.039 99.9531 141.747 110.449 158.657 110.449Z" fill="url(#paint15_linear_95_2992)"/>
<path d="M158.658 104.162C171.034 104.162 181.066 96.4805 181.066 87.0049C181.066 77.5292 171.034 69.8477 158.658 69.8477C146.283 69.8477 136.25 77.5292 136.25 87.0049C136.25 96.4805 146.283 104.162 158.658 104.162Z" fill="url(#paint16_linear_95_2992)"/>
<path d="M157.094 87.0054L158.369 71.7266H159.566L160.687 87.0054H157.094Z" fill="url(#paint17_linear_95_2992)"/>
<path d="M158.892 87.9363L158.68 85.6289L171.7 86.1318V87.0044L158.892 87.9363Z" fill="url(#paint18_linear_95_2992)"/>
<path d="M159.144 88.2333C160.349 88.2333 161.327 87.485 161.327 86.562C161.327 85.6389 160.349 84.8906 159.144 84.8906C157.938 84.8906 156.961 85.6389 156.961 86.562C156.961 87.485 157.938 88.2333 159.144 88.2333Z" fill="url(#paint19_linear_95_2992)"/>
<path d="M152.475 69.2291L150.254 65.1025C150.254 65.1025 159.314 62.8839 169.765 65.9012C180.215 68.9185 184.581 75.9737 184.581 75.9737L179.597 78.5177C179.597 78.5177 177.318 73.5628 168.895 70.8265C159.797 67.8536 152.475 69.2291 152.475 69.2291Z" fill="url(#paint20_linear_95_2992)"/>
<path d="M143.684 54.0703L244.463 112.656L246.24 57.2503L143.684 54.0703Z" fill="url(#paint21_linear_95_2992)"/>
<path d="M64.2695 112.18L157.051 144.985L69.8136 143.551L64.2695 112.18Z" fill="url(#paint22_linear_95_2992)"/>
<path d="M248.112 162.645C249.157 162.645 250.005 161.996 250.005 161.196C250.005 160.395 249.157 159.746 248.112 159.746C247.066 159.746 246.219 160.395 246.219 161.196C246.219 161.996 247.066 162.645 248.112 162.645Z" fill="#FF0C82"/>
<path d="M242.257 161.197C242.257 162.321 241.06 163.239 239.592 163.239C238.123 163.239 236.926 162.321 236.926 161.197C236.926 160.073 238.123 159.156 239.592 159.156C241.06 159.156 242.257 160.073 242.257 161.197Z" fill="#6EFFE8"/>
<path d="M158.495 15.6406L177.368 24.1157L173.33 29.1445L155.539 20.0483L158.495 15.6406Z" fill="#FF1D9C"/>
<path d="M4.5 82.6726L23.1607 71.5352L27.7003 76.3421L10.6043 86.7104L4.5 82.6726Z" fill="#A74AFF"/>
<path d="M94.5378 14L93.3595 24.7381L88.7812 24.3091L89.7858 14.4141L94.5378 14Z" fill="#4F31E0"/>
<path d="M270.172 131.544L279.947 139.753L283.791 136.366L274.557 128.586L270.172 131.544Z" fill="#6877FF"/>
<path d="M50.5 1H248.5V-1H50.5V1ZM297.5 50V149H299.5V50H297.5ZM248.5 198H50.5V200H248.5V198ZM1.5 149V50H-0.5V149H1.5ZM50.5 198C23.438 198 1.5 176.062 1.5 149H-0.5C-0.5 177.167 22.3335 200 50.5 200V198ZM297.5 149C297.5 176.062 275.562 198 248.5 198V200C276.667 200 299.5 177.167 299.5 149H297.5ZM248.5 1C275.562 1 297.5 22.938 297.5 50H299.5C299.5 21.8335 276.667 -1 248.5 -1V1ZM50.5 -1C22.3335 -1 -0.5 21.8335 -0.5 50H1.5C1.5 22.938 23.438 1 50.5 1V-1Z" fill="url(#paint23_linear_95_2992)"/>
<defs>
<linearGradient id="paint0_linear_95_2992" x1="154.5" y1="149.743" x2="154.5" y2="48.0677" gradientUnits="userSpaceOnUse">
<stop stop-color="#1C257B"/>
<stop offset="1" stop-color="#482C83"/>
</linearGradient>
<linearGradient id="paint1_linear_95_2992" x1="155.532" y1="144.991" x2="155.532" y2="52.9008" gradientUnits="userSpaceOnUse">
<stop stop-color="#39E6F7"/>
<stop offset="1" stop-color="#744FD8"/>
</linearGradient>
<linearGradient id="paint2_linear_95_2992" x1="154.972" y1="166.453" x2="154.972" y2="155.672" gradientUnits="userSpaceOnUse">
<stop stop-color="#1C257B"/>
<stop offset="1" stop-color="#482C83"/>
</linearGradient>
<linearGradient id="paint3_linear_95_2992" x1="154.972" y1="158.546" x2="154.972" y2="148.576" gradientUnits="userSpaceOnUse">
<stop stop-color="#744FD8"/>
<stop offset="1" stop-color="#3996F7"/>
</linearGradient>
<linearGradient id="paint4_linear_95_2992" x1="67.2029" y1="153.39" x2="239.591" y2="153.39" gradientUnits="userSpaceOnUse">
<stop stop-color="#B9ACF4"/>
<stop offset="1" stop-color="#E1D1F5"/>
</linearGradient>
<linearGradient id="paint5_linear_95_2992" x1="196.637" y1="95.7528" x2="196.637" y2="48.0692" gradientUnits="userSpaceOnUse">
<stop stop-color="#B9ACF4"/>
<stop offset="1" stop-color="#E1D1F5"/>
</linearGradient>
<linearGradient id="paint6_linear_95_2992" x1="61.3021" y1="144.991" x2="61.3021" y2="105.901" gradientUnits="userSpaceOnUse">
<stop stop-color="#B9ACF4"/>
<stop offset="1" stop-color="#E1D1F5"/>
</linearGradient>
<linearGradient id="paint7_linear_95_2992" x1="153.867" y1="146.353" x2="153.867" y2="144.993" gradientUnits="userSpaceOnUse">
<stop stop-color="#744FD8"/>
<stop offset="1" stop-color="#3996F7"/>
</linearGradient>
<linearGradient id="paint8_linear_95_2992" x1="112.272" y1="154.911" x2="189.948" y2="154.911" gradientUnits="userSpaceOnUse">
<stop stop-color="#8B8BE0"/>
<stop offset="1" stop-color="#A177B7"/>
</linearGradient>
<linearGradient id="paint9_linear_95_2992" x1="94.5381" y1="149.742" x2="94.5381" y2="146.941" gradientUnits="userSpaceOnUse">
<stop stop-color="#1C257B"/>
<stop offset="1" stop-color="#58529B"/>
</linearGradient>
<linearGradient id="paint10_linear_95_2992" x1="216.576" y1="149.742" x2="216.576" y2="146.941" gradientUnits="userSpaceOnUse">
<stop stop-color="#1C257B"/>
<stop offset="1" stop-color="#58529B"/>
</linearGradient>
<linearGradient id="paint11_linear_95_2992" x1="123.248" y1="126.4" x2="123.248" y2="116.914" gradientUnits="userSpaceOnUse">
<stop stop-color="#B31A8F"/>
<stop offset="1" stop-color="#FE117E"/>
</linearGradient>
<linearGradient id="paint12_linear_95_2992" x1="103.206" y1="121.867" x2="117.891" y2="121.867" gradientUnits="userSpaceOnUse">
<stop stop-color="#B9ACF4"/>
<stop offset="1" stop-color="#E1D1F5"/>
</linearGradient>
<linearGradient id="paint13_linear_95_2992" x1="116.943" y1="121.775" x2="131.991" y2="121.775" gradientUnits="userSpaceOnUse">
<stop stop-color="#B9ACF4"/>
<stop offset="1" stop-color="#E1D1F5"/>
</linearGradient>
<linearGradient id="paint14_linear_95_2992" x1="131.622" y1="121.657" x2="145.982" y2="121.657" gradientUnits="userSpaceOnUse">
<stop stop-color="#B9ACF4"/>
<stop offset="1" stop-color="#E1D1F5"/>
</linearGradient>
<linearGradient id="paint15_linear_95_2992" x1="158.65" y1="110.456" x2="158.65" y2="63.5624" gradientUnits="userSpaceOnUse">
<stop stop-color="#6840D5"/>
<stop offset="1" stop-color="#3996F7"/>
</linearGradient>
<linearGradient id="paint16_linear_95_2992" x1="158.651" y1="104.167" x2="158.651" y2="69.8491" gradientUnits="userSpaceOnUse">
<stop stop-color="#DDCDFF"/>
<stop offset="1" stop-color="#EEF0FF"/>
</linearGradient>
<linearGradient id="paint17_linear_95_2992" x1="158.895" y1="87.0086" x2="158.895" y2="71.7235" gradientUnits="userSpaceOnUse">
<stop stop-color="#1C257B"/>
<stop offset="1" stop-color="#482C83"/>
</linearGradient>
<linearGradient id="paint18_linear_95_2992" x1="165.191" y1="87.9311" x2="165.191" y2="85.6301" gradientUnits="userSpaceOnUse">
<stop stop-color="#1C257B"/>
<stop offset="1" stop-color="#482C83"/>
</linearGradient>
<linearGradient id="paint19_linear_95_2992" x1="159.134" y1="88.2435" x2="159.134" y2="84.889" gradientUnits="userSpaceOnUse">
<stop stop-color="#1C257B"/>
<stop offset="1" stop-color="#482C83"/>
</linearGradient>
<linearGradient id="paint20_linear_95_2992" x1="167.431" y1="78.5051" x2="167.431" y2="64.3115" gradientUnits="userSpaceOnUse">
<stop stop-color="#B9ACF4"/>
<stop offset="1" stop-color="#E1D1F5"/>
</linearGradient>
<linearGradient id="paint21_linear_95_2992" x1="194.962" y1="112.649" x2="194.962" y2="54.0742" gradientUnits="userSpaceOnUse">
<stop stop-color="#B9ACF4"/>
<stop offset="1" stop-color="#E1D1F5"/>
</linearGradient>
<linearGradient id="paint22_linear_95_2992" x1="110.664" y1="144.99" x2="110.664" y2="112.173" gradientUnits="userSpaceOnUse">
<stop stop-color="#B9ACF4"/>
<stop offset="1" stop-color="#E1D1F5"/>
</linearGradient>
<linearGradient id="paint23_linear_95_2992" x1="149.5" y1="0" x2="149.5" y2="199" gradientUnits="userSpaceOnUse">
<stop stop-color="#6F67F0"/>
<stop offset="1" stop-color="#59068C"/>
</linearGradient>
</defs>
</svg>
