<svg width="298" height="199" viewBox="0 0 298 199" fill="none" xmlns="http://www.w3.org/2000/svg">
<path d="M0 50C0 22.3858 22.3858 0 50 0H248C275.614 0 298 22.3858 298 50V149C298 176.614 275.614 199 248 199H50C22.3858 199 0 176.614 0 149V50Z" fill="white"/>
<path d="M247.482 46.8797L244.468 88.5895L244.449 88.6191L240.643 141.437L50.5019 142.605L44.3203 46.6726C44.3203 46.6726 44.3203 42.8714 49.4974 41.8065L128.583 41.4515L241.436 40.9338C241.455 40.919 247.482 41.6438 247.482 46.8797Z" fill="url(#paint0_linear_95_3227)"/>
<path d="M59.0022 137.843H232.067C232.067 137.843 241.726 77.5704 239.041 47.6931C239.041 47.6931 154.16 43.3299 54.791 47.6931C54.7716 47.6931 52.357 89.1811 59.0022 137.843Z" fill="url(#paint1_linear_95_3227)"/>
<path d="M31.168 150.179L33.0418 158.388C33.0418 158.388 172.707 157.87 258.998 159.305L261.548 149.75L31.168 150.179Z" fill="url(#paint2_linear_95_3227)"/>
<path d="M50.4854 142.606L31.168 150.179L261.567 149.765L240.646 141.438L50.4854 142.606Z" fill="url(#paint3_linear_95_3227)"/>
<path d="M58.6016 142.547V149.987L230.99 149.809V141.438L58.6016 142.547Z" fill="url(#paint4_linear_95_3227)"/>
<path d="M247.485 46.8811L244.471 88.5909L244.452 88.6205L239.835 87.245C241.825 65.2216 239.835 46.8959 239.835 46.8959C197.569 44.1301 131.02 44.8992 131.02 44.8992L128.586 41.4677L241.438 40.9501C241.458 40.9205 247.485 41.6452 247.485 46.8811Z" fill="url(#paint5_linear_95_3227)"/>
<path d="M50.191 137.842L47.6797 98.75L54.3636 103.232C54.3636 103.232 55.3294 124.796 57.7441 137.827H50.191V137.842Z" fill="url(#paint6_linear_95_3227)"/>
<path d="M59.0054 137.844L57.7305 138.569L232.804 139.204L232.07 137.844H59.0054Z" fill="url(#paint7_linear_95_3227)"/>
<path opacity="0.62" d="M103.664 149.984L109.768 146.42L174.559 145.547L181.34 149.097L103.664 149.984Z" fill="url(#paint8_linear_95_3227)"/>
<path d="M67.9239 142.604C67.9239 142.604 67.7307 140.992 68.7932 139.809H103.97C103.97 139.809 103.507 140.489 103.371 142.604H67.9239Z" fill="url(#paint9_linear_95_3227)"/>
<path d="M225.98 142.604C225.98 142.604 226.173 140.992 225.111 139.809H189.934C189.934 139.809 190.397 140.489 190.532 142.604H225.98Z" fill="url(#paint10_linear_95_3227)"/>
<path d="M190.532 142.604L189.547 141.761L189.933 139.809C189.933 139.794 190.725 140.607 190.532 142.604Z" fill="#140047"/>
<path d="M103.375 142.607L104.379 142.252L103.993 139.797C103.974 139.797 103.375 140.093 103.375 142.607Z" fill="#140047"/>
<path d="M135.094 46.9258L235.873 105.512L237.631 50.1058L135.094 46.9258Z" fill="url(#paint11_linear_95_3227)"/>
<path d="M55.6562 105.039L148.457 137.845L61.2003 136.41L55.6562 105.039Z" fill="url(#paint12_linear_95_3227)"/>
<path d="M239.506 155.504C240.552 155.504 241.399 154.855 241.399 154.055C241.399 153.254 240.552 152.605 239.506 152.605C238.461 152.605 237.613 153.254 237.613 154.055C237.613 154.855 238.461 155.504 239.506 155.504Z" fill="#FF0C82"/>
<path d="M233.652 154.053C233.652 155.177 232.454 156.094 230.986 156.094C229.518 156.094 228.32 155.177 228.32 154.053C228.32 152.929 229.518 152.012 230.986 152.012C232.454 152.012 233.652 152.929 233.652 154.053Z" fill="#6EFFE8"/>
<path d="M252.406 116.087L264.344 102.051L270.719 105.379L258.008 118.557L252.406 116.087Z" fill="#FF1D9C"/>
<path d="M61.2461 32.6218L79.9068 21.4844L84.4463 26.2914L67.3311 36.6596L61.2461 32.6218Z" fill="#FF1D9C"/>
<path d="M38.3528 113.541L28.1146 118.304L24 112.343L35.2041 107.344L38.3528 113.541Z" fill="#4F31E0"/>
<path d="M141.641 21.9581L151.415 30.167L155.259 26.7799L146.026 19L141.641 21.9581Z" fill="#6877FF"/>
<path d="M94.2039 69.5248C94.2039 70.8116 94.088 71.8913 93.8562 72.7787C93.6244 73.6662 93.3153 74.3909 92.929 74.953C92.5426 75.515 92.079 75.9144 91.5381 76.1658C90.9972 76.4173 90.437 76.5504 89.8382 76.5504C89.2393 76.5504 88.6598 76.4321 88.1382 76.1954C87.5973 75.9588 87.1337 75.5594 86.7474 75.0121C86.3417 74.4649 86.0326 73.7401 85.8008 72.8379C85.569 71.9357 85.4531 70.8412 85.4531 69.5248C85.4531 68.2084 85.569 67.0843 85.8008 66.1673C86.0326 65.2503 86.3417 64.496 86.7474 63.9191C87.153 63.3423 87.6166 62.9281 88.1382 62.6619C88.6791 62.4105 89.2393 62.2773 89.8382 62.2773C90.437 62.2773 91.0165 62.4105 91.5381 62.6619C92.079 62.9133 92.5233 63.3275 92.929 63.9043C93.3153 64.4812 93.6244 65.2207 93.8562 66.1525C94.088 67.0695 94.2039 68.1936 94.2039 69.5248ZM91.4222 69.5248C91.4222 68.519 91.3836 67.676 91.3063 66.9956C91.229 66.3152 91.1131 65.7532 90.9586 65.3242C90.8041 64.8953 90.6495 64.5847 90.4563 64.3924C90.2632 64.2001 90.07 64.1114 89.8382 64.1114C89.6064 64.1114 89.3939 64.2149 89.2007 64.4072C89.0075 64.5995 88.8337 64.9101 88.6984 65.339C88.5439 65.768 88.4473 66.33 88.3507 67.0252C88.2735 67.7203 88.2155 68.5486 88.2155 69.5396C88.2155 70.5158 88.2542 71.3441 88.3507 72.0096C88.428 72.6752 88.5439 73.2077 88.6984 73.6218C88.853 74.0212 89.0075 74.317 89.2007 74.4797C89.3939 74.6572 89.6064 74.7311 89.8382 74.7311C90.0507 74.7311 90.2632 74.6424 90.4563 74.4649C90.6495 74.2874 90.8234 73.9916 90.9586 73.5774C91.1131 73.1633 91.2097 72.6308 91.3063 71.9653C91.3836 71.2997 91.4222 70.4862 91.4222 69.5248Z" fill="white"/>
<path d="M102.878 66.5837C102.878 67.0126 102.82 67.4415 102.724 67.8705C102.627 68.2994 102.453 68.7135 102.221 69.1129C101.99 69.5122 101.681 69.882 101.333 70.237C100.966 70.5772 100.521 70.8878 99.9806 71.154C100.444 72.071 100.966 72.9437 101.526 73.772C102.086 74.615 102.704 75.4137 103.4 76.1976L100.27 76.3308L98.1454 71.7161C98.1841 72.5 98.2227 73.2691 98.2613 74.0234C98.3193 74.7925 98.3772 75.5468 98.4545 76.2864H95.4023C95.5376 74.8369 95.6341 73.3874 95.6921 71.9527C95.75 70.5032 95.7887 69.0537 95.7887 67.5894C95.7887 66.7464 95.7887 65.9033 95.7694 65.0602C95.7501 64.2172 95.7114 63.3593 95.6728 62.5014C96.1171 62.3979 96.5614 62.3387 97.0057 62.2944C97.45 62.2648 97.8363 62.25 98.1647 62.25C98.3965 62.25 98.667 62.2648 98.9761 62.3092C99.3045 62.3387 99.6329 62.4127 99.9806 62.531C100.328 62.6346 100.676 62.7973 101.024 62.9895C101.371 63.1818 101.68 63.448 101.951 63.7734C102.221 64.0988 102.434 64.4834 102.608 64.9567C102.782 65.3856 102.878 65.9477 102.878 66.5837ZM98.1068 70.1778C98.3965 70.1187 98.6477 70.0151 98.8795 69.8968C99.092 69.7785 99.2852 69.6306 99.459 69.4679C99.6329 69.3052 99.7681 69.1425 99.884 68.965C99.9999 68.7875 100.096 68.61 100.174 68.4325C100.348 68.0184 100.444 67.5599 100.464 67.0718C100.464 67.057 100.464 66.983 100.464 66.8351C100.464 66.6872 100.444 66.5097 100.386 66.2879C100.348 66.066 100.29 65.8294 100.212 65.5779C100.135 65.3265 100.019 65.075 99.8647 64.8384C99.7101 64.6017 99.517 64.3947 99.2852 64.2024C99.0534 64.0249 98.7636 63.8918 98.4352 63.803C98.3386 64.8088 98.2613 65.7998 98.2034 66.7907C98.1454 67.7817 98.1261 68.7727 98.1261 69.7933V70.1778H98.1068Z" fill="white"/>
<path d="M112.076 69.7198C112.076 70.7108 111.98 71.5539 111.806 72.2786C111.613 72.9886 111.362 73.6098 111.072 74.1127C110.763 74.6156 110.415 75.0297 110.029 75.3403C109.642 75.6509 109.256 75.8876 108.85 76.0651C108.445 76.2425 108.058 76.3461 107.691 76.42C107.324 76.4792 106.996 76.5088 106.706 76.5088L104.156 76.3461C104.272 75.0445 104.349 73.7429 104.407 72.4265C104.465 71.1102 104.485 69.779 104.485 68.4478C104.485 67.4273 104.465 66.4363 104.427 65.4305C104.388 64.4396 104.349 63.4486 104.272 62.4428C104.465 62.428 104.678 62.4132 104.852 62.4132C105.045 62.4132 105.238 62.3984 105.412 62.3984C106.783 62.3984 107.923 62.5759 108.773 62.9457C109.642 63.3007 110.319 63.8036 110.801 64.4543C111.284 65.1051 111.613 65.8743 111.806 66.7617C111.98 67.6639 112.076 68.6401 112.076 69.7198ZM109.526 69.4684C109.526 69.1578 109.526 68.8176 109.507 68.4626C109.488 68.1076 109.449 67.7527 109.391 67.4125C109.333 67.0575 109.256 66.7173 109.14 66.3919C109.024 66.0665 108.889 65.7559 108.715 65.4749C108.541 65.1939 108.329 64.9572 108.078 64.7649C107.827 64.5727 107.517 64.4248 107.15 64.3508C107.092 65.046 107.054 65.7411 107.015 66.4067C106.977 67.0723 106.938 67.7231 106.919 68.3739C106.899 69.0247 106.88 69.6755 106.861 70.3115C106.841 70.9475 106.841 71.5983 106.841 72.2343C106.841 72.6484 106.841 73.0773 106.841 73.5063C106.841 73.9352 106.841 74.3789 106.861 74.8226C107.247 74.7931 107.575 74.6747 107.865 74.4824C108.155 74.2902 108.387 74.0535 108.58 73.7577C108.773 73.4619 108.928 73.1365 109.063 72.7667C109.179 72.397 109.275 72.0272 109.353 71.6426C109.411 71.2581 109.469 70.8735 109.488 70.5037C109.507 70.134 109.526 69.779 109.526 69.4684Z" fill="white"/>
<path d="M118.483 71.1082C118.232 71.0934 117.961 71.0934 117.691 71.0786C117.42 71.0638 117.15 71.0638 116.899 71.0638C116.744 71.0638 116.59 71.0638 116.435 71.0786C116.281 71.0786 116.107 71.0934 115.952 71.0934L115.894 74.5101C116.57 74.4953 117.246 74.4657 117.884 74.4361C118.521 74.3917 119.217 74.3326 119.932 74.2586V76.2554C119.468 76.2406 119.024 76.2406 118.579 76.2258C118.135 76.2258 117.71 76.211 117.285 76.211C116.628 76.211 115.991 76.2258 115.353 76.2406C114.716 76.2554 114.078 76.2849 113.402 76.3145C113.48 75.1313 113.538 73.9628 113.576 72.7943C113.615 71.6259 113.653 70.4574 113.653 69.2741C113.653 68.1353 113.634 67.0112 113.596 65.9019C113.557 64.7778 113.499 63.6537 113.402 62.5296C114.388 62.5887 115.315 62.6183 116.203 62.6183C116.764 62.6183 117.324 62.6035 117.903 62.5887C118.463 62.5592 119.062 62.5296 119.7 62.5V64.7038C119.178 64.6299 118.676 64.5855 118.174 64.5411C117.672 64.4967 117.169 64.4819 116.667 64.4819H116.184C116.107 65.2806 116.049 66.0646 116.01 66.8633C115.972 67.6472 115.952 68.4459 115.933 69.2446C116.145 69.2594 116.377 69.2594 116.59 69.2594C116.802 69.2594 117.034 69.2594 117.266 69.2594C117.459 69.2594 117.652 69.2594 117.845 69.2594C118.039 69.2594 118.251 69.2594 118.464 69.2446V71.1082H118.483Z" fill="white"/>
<path d="M128.398 66.5837C128.398 67.0126 128.34 67.4415 128.243 67.8705C128.147 68.2994 127.973 68.7135 127.741 69.1129C127.509 69.5122 127.2 69.882 126.852 70.237C126.485 70.5772 126.041 70.8878 125.5 71.154C125.964 72.071 126.485 72.9437 127.046 73.772C127.606 74.615 128.224 75.4137 128.919 76.1976L125.79 76.3308L123.665 71.7161C123.704 72.5 123.742 73.2691 123.781 74.0234C123.839 74.7925 123.897 75.5468 123.974 76.2864H120.922C121.057 74.8369 121.154 73.3874 121.212 71.9527C121.27 70.5032 121.308 69.0537 121.308 67.5894C121.308 66.7464 121.308 65.9033 121.289 65.0602C121.27 64.2172 121.231 63.3593 121.192 62.5014C121.637 62.3979 122.081 62.3387 122.525 62.2944C122.97 62.2648 123.356 62.25 123.684 62.25C123.916 62.25 124.187 62.2648 124.496 62.3092C124.824 62.3387 125.152 62.4127 125.5 62.531C125.848 62.6346 126.196 62.7973 126.543 62.9895C126.891 63.1818 127.2 63.448 127.471 63.7734C127.741 64.0988 127.953 64.4834 128.127 64.9567C128.301 65.3856 128.398 65.9477 128.398 66.5837ZM123.646 70.1778C123.935 70.1187 124.187 70.0151 124.418 69.8968C124.631 69.7785 124.824 69.6306 124.998 69.4679C125.172 69.3052 125.307 69.1425 125.423 68.965C125.539 68.7875 125.635 68.61 125.713 68.4325C125.886 68.0184 125.983 67.5599 126.002 67.0718C126.002 67.057 126.002 66.983 126.002 66.8351C126.002 66.6872 125.983 66.5097 125.925 66.2879C125.886 66.066 125.829 65.8294 125.751 65.5779C125.674 65.3265 125.558 65.075 125.404 64.8384C125.249 64.6017 125.056 64.3947 124.824 64.2024C124.592 64.0249 124.302 63.8918 123.974 63.803C123.877 64.8088 123.8 65.7998 123.742 66.7907C123.684 67.7817 123.665 68.7727 123.665 69.7933V70.1778H123.646Z" fill="white"/>
<path d="M140.973 75.9735C140.645 76.0919 140.336 76.1806 140.007 76.2398C139.698 76.2989 139.408 76.3433 139.157 76.3729C138.867 76.4025 138.578 76.4173 138.307 76.4321C137.998 76.4321 137.689 76.3877 137.341 76.3137C136.994 76.225 136.646 76.0919 136.298 75.8848C135.951 75.6777 135.603 75.4115 135.294 75.0565C134.965 74.7163 134.676 74.2726 134.424 73.7401C134.173 73.2077 133.98 72.5865 133.826 71.8469C133.671 71.1074 133.594 70.2643 133.594 69.2881C133.594 68.312 133.69 67.4689 133.864 66.7294C134.038 66.0046 134.27 65.3834 134.56 64.8657C134.849 64.348 135.178 63.9191 135.525 63.5789C135.893 63.2387 136.26 62.9873 136.627 62.7802C136.994 62.588 137.361 62.4548 137.728 62.3809C138.075 62.3069 138.385 62.2773 138.636 62.2773C138.867 62.2773 139.119 62.3069 139.35 62.3365C139.544 62.3661 139.756 62.4105 139.988 62.4844C140.2 62.5436 140.394 62.6323 140.567 62.7506L140.316 64.6734C140.084 64.5847 139.872 64.5255 139.659 64.4812C139.447 64.4368 139.254 64.422 139.08 64.422C138.732 64.422 138.423 64.4959 138.153 64.6439C137.882 64.7918 137.65 64.984 137.457 65.2059C137.264 65.4426 137.09 65.7088 136.955 66.0046C136.82 66.3004 136.704 66.611 136.627 66.9216C136.414 67.6612 136.298 68.4894 136.279 69.4213C136.298 70.3531 136.433 71.1814 136.646 71.9061C136.743 72.2167 136.858 72.5273 136.994 72.8231C137.129 73.1189 137.303 73.3852 137.496 73.6218C137.689 73.8585 137.921 74.036 138.211 74.1839C138.481 74.317 138.79 74.3909 139.157 74.3909C139.544 74.3909 140.007 74.2874 140.509 74.0803L140.973 75.9735Z" fill="white"/>
<path d="M150.321 69.5248C150.321 70.8116 150.205 71.8913 149.973 72.7787C149.742 73.6662 149.433 74.3909 149.046 74.953C148.66 75.515 148.196 75.9144 147.655 76.1658C147.114 76.4173 146.554 76.5504 145.955 76.5504C145.357 76.5504 144.777 76.4321 144.255 76.1954C143.715 75.9588 143.251 75.5594 142.865 75.0121C142.459 74.4649 142.15 73.7401 141.918 72.8379C141.686 71.9357 141.57 70.8412 141.57 69.5248C141.57 68.2084 141.686 67.0843 141.918 66.1673C142.15 65.2503 142.459 64.496 142.865 63.9191C143.27 63.3423 143.734 62.9281 144.255 62.6619C144.796 62.4105 145.357 62.2773 145.955 62.2773C146.554 62.2773 147.134 62.4105 147.655 62.6619C148.177 62.9133 148.64 63.3275 149.046 63.9043C149.433 64.4812 149.742 65.2207 149.973 66.1525C150.205 67.0695 150.321 68.1936 150.321 69.5248ZM147.539 69.5248C147.539 68.519 147.501 67.676 147.423 66.9956C147.346 66.3152 147.23 65.7532 147.076 65.3242C146.921 64.8953 146.767 64.5847 146.574 64.3924C146.38 64.2001 146.187 64.1114 145.955 64.1114C145.724 64.1114 145.511 64.2149 145.318 64.4072C145.125 64.5995 144.951 64.9101 144.816 65.339C144.661 65.768 144.565 66.33 144.468 67.0252C144.391 67.7203 144.333 68.5486 144.333 69.5396C144.333 70.5158 144.371 71.3441 144.468 72.0096C144.545 72.6752 144.661 73.2077 144.816 73.6218C144.97 74.0212 145.125 74.317 145.318 74.4797C145.511 74.6572 145.724 74.7311 145.955 74.7311C146.168 74.7311 146.38 74.6424 146.574 74.4649C146.767 74.2874 146.941 73.9916 147.076 73.5774C147.211 73.1633 147.327 72.6308 147.423 71.9653C147.501 71.2997 147.539 70.4862 147.539 69.5248Z" fill="white"/>
<path d="M160.485 76.2433C160.504 75.2671 160.543 74.2762 160.582 73.2704C160.582 72.8415 160.601 72.3978 160.62 71.9097C160.64 71.4364 160.64 70.9483 160.659 70.4602C160.659 69.9721 160.678 69.484 160.678 68.9811C160.678 68.493 160.678 68.0197 160.678 67.5612C160.678 67.2654 160.678 66.9843 160.678 66.7033C160.678 66.4371 160.678 66.1709 160.659 65.9342C160.562 66.4075 160.427 67.0139 160.273 67.7535C160.118 68.493 159.963 69.3213 159.79 70.2087C159.616 71.0962 159.461 72.0576 159.307 73.0485C159.152 74.0543 158.998 75.0453 158.882 76.0363L156.506 75.9919C156.312 75.0009 156.119 74.0247 155.926 73.0633C155.733 72.1019 155.559 71.1849 155.385 70.3271C155.211 69.4544 155.057 68.6557 154.922 67.9162C154.786 67.1766 154.651 66.5406 154.555 65.9934V69.3213C154.555 70.0164 154.555 70.6968 154.574 71.4068C154.574 72.1019 154.593 72.7675 154.613 73.3739C154.632 73.9951 154.651 74.5424 154.67 75.0453C154.69 75.5334 154.728 75.9179 154.767 76.199L151.367 76.3469C151.483 75.7996 151.599 75.1932 151.676 74.5276C151.754 73.8472 151.812 73.1521 151.869 72.4125C151.908 71.673 151.947 70.9187 151.966 70.1644C151.985 69.3952 151.985 68.6557 151.985 67.931C151.985 67.1914 151.985 66.4963 151.966 65.8603C151.947 65.2095 151.947 64.6474 151.927 64.1741C151.908 63.6121 151.889 63.0944 151.869 62.6211C152.14 62.6507 152.41 62.6803 152.7 62.7098C152.99 62.7394 153.28 62.7542 153.569 62.769C153.859 62.7838 154.13 62.7986 154.4 62.7986C154.67 62.7986 154.902 62.8134 155.115 62.8134C155.25 62.8134 155.385 62.8134 155.501 62.8134C155.617 62.8134 155.733 62.8134 155.81 62.7986C155.907 62.7986 156.003 62.7986 156.081 62.7838C156.486 64.8989 156.815 66.6885 157.085 68.138C157.356 69.5875 157.568 70.6968 157.742 71.4511C157.839 70.9631 157.916 70.475 158.012 69.9573C158.109 69.4396 158.186 68.9367 158.264 68.4338C158.341 67.931 158.399 67.4429 158.476 66.9548C158.534 66.4815 158.592 66.0229 158.65 65.594C158.766 64.5883 158.862 63.6121 158.959 62.6655C159.133 62.6803 159.345 62.695 159.558 62.7098C159.751 62.7246 159.983 62.7394 160.234 62.7394C160.504 62.7394 160.794 62.7542 161.103 62.7542C161.412 62.7542 161.76 62.7542 162.127 62.7394C162.494 62.7246 162.88 62.7098 163.267 62.6803C163.17 65.0616 163.112 67.1175 163.112 68.8628C163.112 70.1496 163.131 71.2441 163.17 72.1759C163.209 73.0929 163.247 73.862 163.286 74.4684C163.344 75.1784 163.402 75.77 163.479 76.2433H160.485Z" fill="white"/>
<path d="M172.404 66.7294C172.404 67.2766 172.308 67.8091 172.134 68.3415C171.941 68.874 171.651 69.3473 171.265 69.8058C170.878 70.2495 170.395 70.6489 169.796 70.9891C169.198 71.3293 168.502 71.5955 167.691 71.773C167.71 72.5421 167.729 73.3112 167.768 74.0655C167.787 74.8199 167.826 75.5742 167.865 76.3137H164.812C164.948 74.8642 165.044 73.4147 165.102 71.98C165.16 70.5306 165.199 69.0811 165.199 67.6168C165.199 66.7737 165.199 65.9307 165.18 65.0876C165.16 64.2445 165.122 63.3866 165.083 62.5288C165.527 62.4252 165.972 62.3661 166.416 62.3217C166.86 62.2921 167.246 62.2773 167.575 62.2773C167.807 62.2773 168.077 62.2921 168.406 62.3365C168.734 62.3809 169.082 62.4548 169.429 62.5584C169.777 62.6767 170.144 62.8246 170.492 63.0317C170.84 63.2387 171.168 63.505 171.438 63.8304C171.728 64.1706 171.941 64.5699 172.134 65.0432C172.327 65.5017 172.404 66.0638 172.404 66.7294ZM167.71 70.1312C167.981 70.0573 168.232 69.9537 168.425 69.8206C168.637 69.6875 168.811 69.5544 168.966 69.3917C169.12 69.229 169.256 69.0663 169.352 68.8888C169.449 68.7113 169.545 68.5338 169.603 68.3563C169.758 67.957 169.854 67.5133 169.874 67.0547C169.874 67.0547 169.874 66.9808 169.874 66.8329C169.874 66.6998 169.854 66.5223 169.816 66.3004C169.777 66.0933 169.719 65.8567 169.642 65.5905C169.565 65.339 169.449 65.0876 169.294 64.8509C169.14 64.6143 168.966 64.4072 168.734 64.2149C168.502 64.0226 168.232 63.8895 167.884 63.8156C167.826 64.8066 167.768 65.7975 167.749 66.7885C167.729 67.7795 167.71 68.7705 167.71 69.791V70.1312Z" fill="white"/>
<path d="M179.99 76.2436C179.527 76.2289 179.082 76.2289 178.638 76.2141C178.194 76.2141 177.769 76.1993 177.344 76.1993C176.687 76.1993 176.049 76.2141 175.412 76.2289C174.775 76.2436 174.118 76.2732 173.461 76.3028C173.538 75.1196 173.596 73.9511 173.635 72.7826C173.673 71.6141 173.712 70.4457 173.712 69.2624C173.712 68.1235 173.693 66.9995 173.654 65.8901C173.615 64.7661 173.558 63.642 173.461 62.5179C173.538 62.5179 173.635 62.5327 173.751 62.5327C173.847 62.5327 173.963 62.5474 174.079 62.5474C174.214 62.5474 174.369 62.5474 174.523 62.5474C174.794 62.5474 175.084 62.5474 175.393 62.5327C175.702 62.5179 176.011 62.5031 176.339 62.4883C176.223 63.4053 176.146 64.3667 176.107 65.3873C176.069 66.4078 176.03 67.4284 176.03 68.4637C176.011 69.4991 176.011 70.5344 176.011 71.555C176.011 72.5903 175.991 73.5813 175.972 74.5279C176.648 74.5131 177.324 74.4836 177.962 74.454C178.599 74.4096 179.295 74.3504 180.01 74.2765V76.2436H179.99Z" fill="white"/>
<path d="M186.077 71.1082C185.825 71.0934 185.555 71.0934 185.285 71.0786C185.014 71.0786 184.744 71.0638 184.493 71.0638C184.338 71.0638 184.183 71.0638 184.029 71.0786C183.874 71.0786 183.701 71.0934 183.546 71.0934L183.488 74.5101C184.164 74.4953 184.84 74.4657 185.478 74.4361C186.115 74.3917 186.811 74.3326 187.525 74.2586V76.2554C187.062 76.2406 186.617 76.2406 186.173 76.2258C185.729 76.2258 185.304 76.211 184.879 76.211C184.222 76.211 183.585 76.2258 182.947 76.2406C182.31 76.2554 181.653 76.2849 180.996 76.3145C181.073 75.1313 181.131 73.9628 181.17 72.7943C181.209 71.6259 181.247 70.4574 181.247 69.2741C181.247 68.1353 181.228 67.0112 181.189 65.9019C181.151 64.7778 181.093 63.6537 180.996 62.5296C181.981 62.5887 182.909 62.6183 183.797 62.6183C184.357 62.6183 184.918 62.6035 185.497 62.5887C186.057 62.5592 186.656 62.5296 187.294 62.5V64.7038C186.772 64.6299 186.27 64.5855 185.768 64.5411C185.265 64.4967 184.763 64.4819 184.261 64.4819H183.778C183.701 65.2806 183.643 66.0646 183.604 66.8633C183.565 67.6472 183.546 68.4459 183.527 69.2446C183.739 69.2594 183.971 69.2594 184.183 69.2594C184.396 69.2594 184.628 69.2594 184.86 69.2594C185.053 69.2594 185.246 69.2594 185.439 69.2594C185.632 69.2594 185.845 69.2594 186.057 69.2446V71.1082H186.077Z" fill="white"/>
<path d="M194.885 64.4976C194.614 64.4828 194.305 64.468 193.977 64.468C193.629 64.468 193.262 64.4532 192.876 64.4532C192.818 65.0448 192.779 65.6512 192.741 66.2872C192.702 66.9232 192.663 67.5593 192.644 68.21C192.625 68.8608 192.605 69.5264 192.586 70.1772C192.586 70.8428 192.567 71.4936 192.567 72.1296C192.567 72.8691 192.567 73.5643 192.586 74.2594C192.605 74.9398 192.625 75.6054 192.663 76.2414H189.998C190.075 75.1617 190.133 74.008 190.171 72.7804C190.21 71.5527 190.229 70.3251 190.229 69.0827C190.229 68.2692 190.21 67.4853 190.191 66.7162C190.171 65.9471 190.133 65.1927 190.113 64.468C189.708 64.468 189.341 64.468 188.974 64.4828C188.626 64.4828 188.298 64.4976 188.008 64.5124L188.027 62.5156C188.336 62.5304 188.665 62.5452 189.032 62.56C189.399 62.5748 189.804 62.5748 190.21 62.5896C190.616 62.5896 191.041 62.6044 191.485 62.6044C191.91 62.6044 192.335 62.6044 192.76 62.6044C193.185 62.6044 193.571 62.6044 193.938 62.6044C194.305 62.6044 194.634 62.6044 194.923 62.5896L194.885 64.4976Z" fill="white"/>
<path d="M201.034 71.1082C200.782 71.0934 200.512 71.0934 200.242 71.0786C199.971 71.0638 199.701 71.0638 199.45 71.0638C199.295 71.0638 199.141 71.0638 198.986 71.0786C198.831 71.0786 198.658 71.0934 198.503 71.0934L198.445 74.5101C199.121 74.4953 199.797 74.4657 200.435 74.4361C201.072 74.3917 201.768 74.3326 202.482 74.2586V76.2554C202.019 76.2406 201.575 76.2406 201.13 76.2258C200.686 76.2258 200.261 76.211 199.836 76.211C199.179 76.211 198.542 76.2258 197.904 76.2406C197.267 76.2554 196.629 76.2849 195.953 76.3145C196.03 75.1313 196.088 73.9628 196.127 72.7943C196.166 71.6259 196.204 70.4574 196.204 69.2741C196.204 68.1353 196.185 67.0112 196.146 65.9019C196.108 64.7778 196.05 63.6537 195.953 62.5296C196.938 62.5887 197.866 62.6183 198.754 62.6183C199.314 62.6183 199.875 62.6035 200.454 62.5887C201.014 62.5592 201.613 62.5296 202.251 62.5V64.7038C201.729 64.6299 201.227 64.5855 200.725 64.5411C200.222 64.4967 199.72 64.4819 199.218 64.4819H198.735C198.658 65.2806 198.6 66.0646 198.561 66.8633C198.522 67.6472 198.503 68.4459 198.484 69.2446C198.696 69.2594 198.928 69.2594 199.141 69.2594C199.353 69.2594 199.585 69.2594 199.817 69.2594C200.01 69.2594 200.203 69.2594 200.396 69.2594C200.589 69.2594 200.802 69.2594 201.014 69.2446V71.1082H201.034Z" fill="white"/>
<path d="M211.475 69.7198C211.475 70.7108 211.378 71.5539 211.204 72.2786C211.011 72.9886 210.76 73.6098 210.47 74.1127C210.161 74.6156 209.813 75.0297 209.427 75.3403C209.041 75.6509 208.654 75.8876 208.249 76.0651C207.843 76.2425 207.457 76.3461 207.09 76.42C206.723 76.4792 206.394 76.5088 206.105 76.5088L203.555 76.3461C203.671 75.0445 203.748 73.7429 203.806 72.4265C203.864 71.1102 203.883 69.779 203.883 68.4478C203.883 67.4273 203.864 66.4363 203.825 65.4305C203.786 64.4396 203.748 63.4486 203.671 62.4428C203.864 62.428 204.076 62.4132 204.25 62.4132C204.443 62.4132 204.636 62.3984 204.81 62.3984C206.182 62.3984 207.322 62.5759 208.171 62.9457C209.041 63.3007 209.717 63.8036 210.2 64.4543C210.683 65.1051 211.011 65.8743 211.204 66.7617C211.378 67.6639 211.475 68.6401 211.475 69.7198ZM208.925 69.4684C208.925 69.1578 208.925 68.8176 208.906 68.4626C208.886 68.1076 208.848 67.7527 208.79 67.4125C208.732 67.0575 208.654 66.7173 208.539 66.3919C208.423 66.0665 208.287 65.7559 208.114 65.4749C207.94 65.1939 207.727 64.9572 207.476 64.7649C207.225 64.5727 206.916 64.4248 206.549 64.3508C206.491 65.046 206.452 65.7411 206.414 66.4067C206.375 67.0723 206.336 67.7231 206.317 68.3739C206.298 69.0247 206.278 69.6755 206.259 70.3115C206.24 70.9475 206.24 71.5983 206.24 72.2343C206.24 72.6484 206.24 73.0773 206.24 73.5063C206.24 73.9352 206.24 74.3789 206.259 74.8226C206.645 74.7931 206.974 74.6747 207.264 74.4824C207.553 74.2902 207.785 74.0535 207.978 73.7577C208.172 73.4619 208.326 73.1365 208.461 72.7667C208.577 72.397 208.674 72.0272 208.751 71.6426C208.809 71.2581 208.867 70.8735 208.886 70.5037C208.906 70.134 208.925 69.779 208.925 69.4684Z" fill="white"/>
<path d="M149.158 85.6602C136.93 85.6602 127.039 93.2478 127.039 102.596C127.039 111.958 136.949 119.531 149.158 119.531C161.385 119.531 171.276 111.943 171.276 102.596C171.295 93.2478 161.385 85.6602 149.158 85.6602Z" fill="#6EFFE8"/>
<path d="M124.203 96.4456L149.161 108.367C149.161 108.367 167.107 90.411 185.922 86.3731L179.644 83.0156C179.644 83.0156 167.667 85.1899 149.142 102.406L127.023 92.8219L124.203 96.4456Z" fill="url(#paint13_linear_95_3227)"/>
<path d="M50 1H248V-1H50V1ZM297 50V149H299V50H297ZM248 198H50V200H248V198ZM1 149V50H-1V149H1ZM50 198C22.938 198 1 176.062 1 149H-1C-1 177.167 21.8335 200 50 200V198ZM297 149C297 176.062 275.062 198 248 198V200C276.167 200 299 177.167 299 149H297ZM248 1C275.062 1 297 22.938 297 50H299C299 21.8335 276.167 -1 248 -1V1ZM50 -1C21.8335 -1 -1 21.8335 -1 50H1C1 22.938 22.938 1 50 1V-1Z" fill="url(#paint14_linear_95_3227)"/>
<defs>
<linearGradient id="paint0_linear_95_3227" x1="145.898" y1="142.601" x2="145.898" y2="40.9257" gradientUnits="userSpaceOnUse">
<stop stop-color="#1C257B"/>
<stop offset="1" stop-color="#482C83"/>
</linearGradient>
<linearGradient id="paint1_linear_95_3227" x1="146.926" y1="137.849" x2="146.926" y2="45.7588" gradientUnits="userSpaceOnUse">
<stop stop-color="#FF81FF"/>
<stop offset="1" stop-color="#9552FF"/>
</linearGradient>
<linearGradient id="paint2_linear_95_3227" x1="146.371" y1="159.31" x2="146.371" y2="149.761" gradientUnits="userSpaceOnUse">
<stop stop-color="#1C257B"/>
<stop offset="1" stop-color="#482C83"/>
</linearGradient>
<linearGradient id="paint3_linear_95_3227" x1="146.371" y1="150.171" x2="146.371" y2="141.434" gradientUnits="userSpaceOnUse">
<stop stop-color="#744FD8"/>
<stop offset="1" stop-color="#3996F7"/>
</linearGradient>
<linearGradient id="paint4_linear_95_3227" x1="58.6054" y1="145.713" x2="230.994" y2="145.713" gradientUnits="userSpaceOnUse">
<stop stop-color="#B9ACF4"/>
<stop offset="1" stop-color="#E1D1F5"/>
</linearGradient>
<linearGradient id="paint5_linear_95_3227" x1="188.039" y1="88.6106" x2="188.039" y2="40.9271" gradientUnits="userSpaceOnUse">
<stop stop-color="#B9ACF4"/>
<stop offset="1" stop-color="#E1D1F5"/>
</linearGradient>
<linearGradient id="paint6_linear_95_3227" x1="52.697" y1="137.849" x2="52.697" y2="98.7593" gradientUnits="userSpaceOnUse">
<stop stop-color="#B9ACF4"/>
<stop offset="1" stop-color="#E1D1F5"/>
</linearGradient>
<linearGradient id="paint7_linear_95_3227" x1="145.265" y1="139.211" x2="145.265" y2="137.851" gradientUnits="userSpaceOnUse">
<stop stop-color="#744FD8"/>
<stop offset="1" stop-color="#3996F7"/>
</linearGradient>
<linearGradient id="paint8_linear_95_3227" x1="103.666" y1="147.769" x2="181.343" y2="147.769" gradientUnits="userSpaceOnUse">
<stop stop-color="#8B8BE0"/>
<stop offset="1" stop-color="#A177B7"/>
</linearGradient>
<linearGradient id="paint9_linear_95_3227" x1="85.933" y1="142.6" x2="85.933" y2="139.799" gradientUnits="userSpaceOnUse">
<stop stop-color="#1C257B"/>
<stop offset="1" stop-color="#58529B"/>
</linearGradient>
<linearGradient id="paint10_linear_95_3227" x1="207.967" y1="142.6" x2="207.967" y2="139.799" gradientUnits="userSpaceOnUse">
<stop stop-color="#1C257B"/>
<stop offset="1" stop-color="#58529B"/>
</linearGradient>
<linearGradient id="paint11_linear_95_3227" x1="186.357" y1="105.507" x2="186.357" y2="46.9321" gradientUnits="userSpaceOnUse">
<stop stop-color="#B9ACF4"/>
<stop offset="1" stop-color="#E1D1F5"/>
</linearGradient>
<linearGradient id="paint12_linear_95_3227" x1="102.054" y1="137.852" x2="102.054" y2="105.035" gradientUnits="userSpaceOnUse">
<stop stop-color="#B9ACF4"/>
<stop offset="1" stop-color="#E1D1F5"/>
</linearGradient>
<linearGradient id="paint13_linear_95_3227" x1="124.203" y1="95.6936" x2="185.937" y2="95.6936" gradientUnits="userSpaceOnUse">
<stop stop-color="#B31A8F"/>
<stop offset="1" stop-color="#FE117E"/>
</linearGradient>
<linearGradient id="paint14_linear_95_3227" x1="149" y1="0" x2="149" y2="199" gradientUnits="userSpaceOnUse">
<stop stop-color="#6F67F0"/>
<stop offset="1" stop-color="#59068C"/>
</linearGradient>
</defs>
</svg>
