<svg width="298" height="199" viewBox="0 0 298 199" fill="none" xmlns="http://www.w3.org/2000/svg">
<g clip-path="url(#clip0_95_2757)">
<path d="M0 50C0 22.3858 22.3858 0 50 0H248C275.614 0 298 22.3858 298 50V149C298 176.614 275.614 199 248 199H50C22.3858 199 0 176.614 0 149V50Z" fill="white"/>
<path d="M259.659 145.524C259.659 145.524 259.659 157.844 244.378 157.844H61.5388C55.5118 157.371 51.2812 151.677 51.2812 147.831C51.2812 146.337 52.3051 129.446 53.58 109.316C55.589 77.4715 58.1776 37.507 58.1776 37.507C58.1776 37.507 59.1241 32.0049 70.5794 31.3984L159.498 32.1084L244.378 32.7888C244.378 32.7888 252.627 33.0994 255.853 39.5629L259.659 145.524Z" fill="url(#paint0_linear_95_2757)"/>
<path d="M59.2408 143.676C59.2408 143.676 188.243 149.222 249.595 144.297C249.595 144.297 255.294 90.6955 247.528 40.7917C247.528 40.7917 151.25 35.6593 67.2962 39.1499C67.2962 39.1499 58.9704 85.3561 59.2408 143.676Z" fill="url(#paint1_linear_95_2757)"/>
<path d="M52.5971 124.996H39.1328V135.675H51.9403L52.5971 124.996Z" fill="url(#paint2_linear_95_2757)"/>
<path d="M226.68 146.382L233.383 157.845H244.355C244.355 157.845 257.742 158.422 259.635 145.524V124.137L250.962 124.995L249.59 144.311L226.68 146.382Z" fill="#361488"/>
<path d="M119.432 177.457C88.0606 177.457 64.1069 174.07 52.4005 171.999C36.85 169.248 28.4662 166.852 25.6459 164.264C17.8223 163.302 11.8918 161.764 8.70444 159.412C6.90792 158.081 6.00001 156.513 6.00001 154.753C5.98069 140.791 39.0908 130.186 40.501 129.742L41.1191 130.881C40.7907 130.985 7.60335 141.604 7.62267 154.753C7.62267 156.188 8.35672 157.416 9.84416 158.525C12.6452 160.596 17.8416 162.001 24.6993 162.918C24.6607 162.829 24.6414 162.725 24.622 162.637C24.2357 160.906 25.8583 159.22 29.7411 157.327C34.6671 154.901 41.0998 154.398 47.378 155.922C53.1732 157.342 58.1378 160.374 61.5184 164.5C73.4952 164.441 86.4572 164.071 99.284 163.716C126.135 162.962 151.48 162.267 166.316 164.323C171.86 165.092 174.236 165.95 174.255 167.192C174.274 168.213 172.941 169.455 163.051 170.964C137.127 174.913 67.275 177.694 62.4456 168.553C61.924 167.562 61.3252 166.63 60.6298 165.728C48.5757 165.758 37.5261 165.491 28.5628 164.589C32.2524 166.527 40.2692 168.583 52.8255 170.801C71.5634 174.114 121.847 180.815 183.721 171.422C215.73 166.556 219.458 162.696 219.574 161.276C219.69 159.871 216.464 158.732 215.324 158.451L215.826 157.282C216.058 157.342 221.39 158.732 221.158 161.365C220.849 165.196 208.698 168.893 184.01 172.65C160.424 176.2 138.556 177.457 119.432 177.457ZM62.407 165.728C62.9479 166.482 63.4308 167.281 63.8751 168.094C66.6761 173.404 100.327 174.381 132.124 172.606C159.033 171.097 172.188 168.494 172.594 167.207C172.574 167.192 172.188 166.423 165.987 165.55C151.325 163.509 126.058 164.219 99.3033 164.959C86.8049 165.299 74.1713 165.654 62.407 165.728ZM26.5731 163.169C35.4977 164.219 46.953 164.545 59.5673 164.515C56.4186 160.965 51.9755 158.362 46.8564 157.105C41.1191 155.7 35.0341 156.188 30.5911 158.362C27.4231 159.915 25.9356 161.291 26.206 162.43C26.2447 162.681 26.3606 162.918 26.5731 163.169Z" fill="url(#paint3_linear_95_2757)"/>
<path d="M228.59 62.6484C228.59 62.6484 224.051 74.6733 224.843 79.5986C224.843 79.5986 225.442 84.8345 232.686 85.1451L240.529 70.1029L228.59 62.6484Z" fill="url(#paint4_linear_95_2757)"/>
<path d="M194.885 73.3867C194.885 73.3867 192.064 74.9545 192.238 75.6497C192.412 76.3005 195.484 77.4394 195.484 77.4394L194.885 73.3867Z" fill="url(#paint5_linear_95_2757)"/>
<path d="M291.428 137.669L288.375 177.204C288.375 177.204 246.379 134.119 233.707 126.428C232.606 125.762 231.563 125.141 230.578 124.594C220.127 118.589 215.433 117.894 213.791 117.184C211.975 116.414 208.749 112.569 208.343 111.326C207.938 110.099 207.938 92.2316 206.605 88.2233C205.252 84.215 199.09 80.118 198.549 78.6685C198.008 77.2338 200.288 74.7638 202.567 74.4532C204.827 74.1426 216.65 76.8197 220.262 85.9603C220.262 85.9603 218.775 88.0015 217.983 90.4715C217.191 92.9416 218.388 96.9351 218.388 96.9351C218.388 96.9351 223.353 97.6598 225.497 97.2457C227.641 96.8463 231.659 87.8092 231.389 80.828C231.138 73.8467 222.271 60.4907 222.271 60.4907L215.684 48.6877C215.684 48.6877 223.334 45.9219 227.487 46.5283C227.487 46.5283 234.055 54.6336 237.938 56.3789C237.938 56.3789 246.592 57.503 251.556 58.6271C251.556 58.6271 257.506 59.2483 262.49 62.4283C262.49 62.4283 267.976 62.7389 270.545 64.2771C273.095 65.8154 284.222 76.5978 284.879 79.482L284.898 79.6595C285.227 83.091 276.592 103.088 259.612 116.237C259.612 116.237 263.668 119.225 269.579 123.351V123.366C275.722 127.626 283.778 133.054 291.428 137.669Z" fill="url(#paint6_linear_95_2757)"/>
<path d="M273.233 68.2697L273.195 68.2845C272.441 68.5803 271.669 68.7578 270.915 68.8317C270.915 68.8317 245.996 71.8638 227.721 74.4226V74.4374C218.101 75.7686 210.316 76.9814 209.022 77.5582C207.844 78.0759 207.032 78.6971 206.472 79.2888C205.255 80.6051 205.255 81.8623 205.255 81.8623C205.255 81.8623 199.827 81.463 195.481 77.4547C195.481 77.4547 193.414 75.8129 194.341 73.757C194.341 73.757 196.079 70.2812 200.947 67.9443H200.967C202.068 67.397 203.323 66.9385 204.753 66.5835C204.753 66.5835 204.772 66.8202 204.85 67.1308C205.004 67.7964 205.487 68.8317 206.762 68.8317C207.708 68.8317 219.569 65.4742 233.42 61.1997L233.439 61.1849C246.981 56.9696 262.396 51.852 271.34 48.0508C271.34 48.0508 279.801 48.1987 281.405 55.4461C282.776 61.6582 278.063 66.4208 273.233 68.2697Z" fill="url(#paint7_linear_95_2757)"/>
<path opacity="0.86" d="M227.745 74.4213C218.125 75.7673 210.34 76.9801 209.046 77.5569C207.868 78.0746 207.056 78.6958 206.496 79.2875L200.45 80.4263C197.359 75.4714 200.952 67.9282 200.952 67.9282H200.971L204.854 67.1147C205.009 67.7803 205.492 68.8156 206.767 68.8156C207.713 68.8156 219.574 65.4581 233.425 61.1836C226.818 66.5674 227.745 74.4213 227.745 74.4213Z" fill="#9A7AB3"/>
<path d="M200.953 67.9294C200.953 67.9294 202.73 72.3666 213.2 68.595C213.2 68.595 227.283 59.0697 230.142 49.5445L227.553 46.542C227.553 46.542 219.807 45.5954 215.75 48.7015C215.75 48.7015 214.108 55.9637 210.09 60.9778C208.738 62.6639 200.953 66.1989 200.953 66.1989V67.9294V67.9294Z" fill="url(#paint8_linear_95_2757)"/>
<path d="M198.57 78.6826C198.57 78.6826 206.162 86.1223 206.626 88.2374C207.07 90.3377 208.287 110.734 208.287 110.734C208.287 110.734 207.785 102.718 218.429 96.9639C218.429 96.9639 217.946 94.1833 218.429 91.2843C218.912 88.3705 219.974 87.1873 220.302 85.9892C220.631 84.7764 215.937 74.8518 204.192 73.6094C204.192 73.6094 202.144 74.1271 200.637 75.2512C199.111 76.3753 198.57 78.6826 198.57 78.6826Z" fill="url(#paint9_linear_95_2757)"/>
<path d="M293.387 171.73C291.977 174.378 289.698 176.478 287.38 178.253L274.34 163.24C274.34 163.24 268.738 165.636 267.154 165.385C262.982 164.764 262.982 157.842 262.982 157.842C262.982 157.842 261.842 149.574 264.662 141.246C264.682 141.217 264.682 141.187 264.682 141.187C266.652 135.36 270.573 129.488 278.184 126.426C278.184 126.426 283.304 125.125 287.032 131.825L297.676 137.371C297.676 137.371 300.457 158.522 293.387 171.73Z" fill="url(#paint10_linear_95_2757)"/>
<path opacity="0.5" d="M293.387 171.701V171.73C291.977 174.378 290.161 176.715 287.843 178.49L274.36 163.255C274.36 163.255 268.758 165.651 267.174 165.4C263.001 164.779 263.001 157.857 263.001 157.857C263.001 157.857 261.861 149.589 264.682 141.262C264.469 142.297 261.688 155.816 265.512 160.327C269.511 165.015 276.253 135.064 287.051 131.84C287.051 131.84 276.118 145.64 277.064 155.194C277.972 164.72 293.387 171.701 293.387 171.701Z" fill="url(#paint11_linear_95_2757)"/>
<path d="M259.656 116.267C259.656 116.267 263.713 119.255 269.624 123.381V123.396C269.624 123.396 255.407 120.749 243.353 121.814C234.524 122.598 231.55 123.929 230.584 124.594C220.133 118.589 215.439 117.894 213.797 117.184L227.396 110.721C227.396 110.721 240.532 88.4309 242.425 77.0865L239.103 72.8711L249.109 73.8917C249.109 73.8917 255.716 75.3264 267.132 75.2376C267.132 75.2376 272.966 77.5745 278.047 77.0865L284.924 79.4973L284.943 79.6748C285.291 83.1211 276.637 103.118 259.656 116.267Z" fill="url(#paint12_linear_95_2757)"/>
<path d="M218.414 96.9467C218.414 96.9467 221.853 99.4168 224.75 99.7126C224.75 99.7126 227.319 97.3313 228.942 92.5391C228.942 92.5391 227.397 95.867 225.446 96.6361C225.465 96.6509 222.239 97.7749 218.414 96.9467Z" fill="url(#paint13_linear_95_2757)"/>
<path d="M198.57 78.6808C198.57 78.6808 204.733 84.6858 206.548 84.6858C208.982 84.6858 210.373 81.8608 208.654 78.1335C207.398 75.4268 203.786 74.4062 203.786 74.4062C203.786 74.4062 200.637 74.8204 198.57 78.6808Z" fill="url(#paint14_linear_95_2757)"/>
<path d="M199.385 79.4803C199.385 79.4803 201.317 76.3299 205.084 74.9248L203.79 74.4219C203.79 74.4219 200.68 75.0579 198.555 78.6816L199.385 79.4803Z" fill="url(#paint15_linear_95_2757)"/>
<path d="M206.803 75.9492C206.803 75.9492 209.971 77.9608 209.276 81.8655C208.58 85.7703 205.451 84.513 204.195 83.5664C204.195 83.5664 205.528 84.7497 206.938 84.8976C208.349 85.0455 210.164 83.6847 210.184 81.0224C210.203 78.3749 206.803 75.9492 206.803 75.9492Z" fill="url(#paint16_linear_95_2757)"/>
<path d="M273.236 68.2689L273.198 68.2837L272.29 68.5647C272.29 68.5647 266.012 64.9262 266.012 57.3237C266.012 50.6383 271.305 48.0352 271.305 48.0352C271.305 48.0352 279.766 48.1831 281.369 55.4305C282.779 61.6574 278.066 66.42 273.236 68.2689Z" fill="url(#paint17_linear_95_2757)"/>
<path d="M277.414 58.7766L277.182 58.8505C277.182 58.8505 275.27 57.9039 275.27 56.0995C275.27 54.5169 276.95 53.9844 276.95 53.9844C276.95 53.9844 278.959 54.014 279.346 55.7445C279.674 57.2088 278.573 58.3476 277.414 58.7766Z" fill="url(#paint18_linear_95_2757)"/>
<path opacity="0.86" d="M276.636 57.9172L276.501 57.9615C276.501 57.9615 275.516 57.5622 275.516 56.4085C275.516 55.4027 276.346 54.8555 276.346 54.8555C276.346 54.8555 277.621 54.8851 277.872 55.9648C278.085 56.9262 277.37 57.6361 276.636 57.9172Z" fill="#9A7AD9"/>
<path d="M222.51 60.8005L218.434 53.5234L219.67 63.4332C219.651 63.4184 221.119 62.1317 222.51 60.8005Z" fill="url(#paint19_linear_95_2757)"/>
<path d="M217.215 67.1739L252.952 56.4062L251.619 58.6544L217.215 68.3128V67.1739Z" fill="url(#paint20_linear_95_2757)"/>
<path d="M254.094 58.4034L255.639 55.3861L262.845 52.6055L261.067 56.9095L254.094 58.4034Z" fill="white"/>
<path d="M278.068 60.4453C278.068 60.4453 277.623 62.235 275.711 63.8028L277.082 64.853C277.082 64.853 279.459 63.4182 280.096 61.1405L278.068 60.4453Z" fill="white"/>
<path d="M285.458 132.832C284.26 127.67 278.156 126.738 278.098 126.724L278.252 126.117C278.329 126.132 284.975 127.153 286.269 132.729L285.458 132.832Z" fill="white"/>
<path d="M282.618 135.968C279.238 131.265 272.573 129.919 272.496 129.904L272.689 129.312C272.979 129.372 279.759 130.747 283.314 135.687L282.618 135.968Z" fill="white"/>
<path d="M280.225 139.502C275.105 136.203 267.745 135.153 267.688 135.153L267.823 134.547C268.132 134.591 275.472 135.627 280.746 139.043L280.225 139.502Z" fill="white"/>
<path d="M277.83 145.259C271.764 141.842 265.003 140.481 264.945 140.467L265.138 139.875C265.216 139.89 272.112 141.28 278.313 144.756L277.83 145.259Z" fill="white"/>
<path d="M276.052 150.552C267.571 147.46 263.264 147.874 263.206 147.889L263.09 147.283C263.264 147.268 267.668 146.824 276.38 150.004L276.052 150.552Z" fill="white"/>
<path d="M270.484 156.127C266.022 156.127 262.854 155.491 262.68 155.447L262.892 154.855C262.95 154.87 268.456 155.965 275.081 155.27L275.197 155.876C273.497 156.054 271.913 156.127 270.484 156.127Z" fill="white"/>
<path d="M264.248 163.242C264.152 163.242 264.094 163.242 264.094 163.242L264.132 162.62C264.171 162.62 268.479 162.724 274.139 160.047L274.564 160.565C269.213 163.094 265.118 163.242 264.248 163.242Z" fill="white"/>
<path d="M274.733 163.243H273.922C273.922 163.021 274.347 141.086 286.71 131.605L287.27 132.034C275.158 141.338 274.733 163.021 274.733 163.243Z" fill="white"/>
<path d="M215.727 48.7024C215.727 48.7024 221.232 55.5505 224.864 58.2572C230.118 62.1915 236.473 58.479 236.473 58.479L237.633 56.8964C237.633 56.8964 231.316 51.6309 227.529 46.5429C227.529 46.5429 220.305 45.5076 215.727 48.7024Z" fill="#E1D197"/>
<path d="M166.079 33.1337L160.844 36.7278C160.844 36.7278 84.2695 36.2545 65.8986 37.9407C65.8986 37.9407 57.9204 80.6267 57.9204 107.28L53.5547 109.454V109.335C55.5637 77.491 58.1523 37.5265 58.1523 37.5265C58.1523 37.5265 59.0988 32.0244 70.554 31.418L159.472 32.1279L166.079 33.1337Z" fill="url(#paint21_linear_95_2757)"/>
<path d="M59.2381 143.676L57.4609 145.051C57.4609 145.051 180.571 150.272 251.621 145.007L249.612 144.297C249.592 144.297 161.331 148.157 59.2381 143.676Z" fill="url(#paint22_linear_95_2757)"/>
<path d="M103.586 146.34L120.218 155.821H195.479L184.043 147.553C184.043 147.553 116.76 147.05 103.586 146.34Z" fill="url(#paint23_linear_95_2757)"/>
<path d="M39.1328 124.998L49.0813 123.297H52.5971V124.998H39.1328Z" fill="url(#paint24_linear_95_2757)"/>
<path d="M71.773 50.4922C71.773 50.4922 68.18 66.7176 68.1993 79.482H125.051C125.051 79.482 124.78 58.0946 125.051 50.4922H71.773V50.4922Z" fill="#9275C2"/>
<path d="M89.7173 65.4489H80.4062L80.9279 58.1719H90.0843L89.7173 65.4489Z" fill="#6EFFE8"/>
<path d="M101.616 65.4489H92.3047L92.6331 58.1719H101.79L101.616 65.4489Z" fill="#839FFF"/>
<path d="M113.518 65.4489H104.207L104.362 58.1719H113.518V65.4489Z" fill="#6877FF"/>
<path d="M89.2151 75.4341H79.7109L80.2325 68.1719H89.5821L89.2151 75.4341Z" fill="#FF1D9C"/>
<path d="M101.367 75.4341H91.8633L92.1917 68.1719H101.541L101.367 75.4341Z" fill="#981382"/>
<path d="M113.516 75.4341H104.012L104.147 68.1719H113.516V75.4341Z" fill="#140047"/>
<path d="M70.7734 55.5062H124.959L125.055 50.4922H71.7779L70.7734 55.5062Z" fill="url(#paint25_linear_95_2757)"/>
<path d="M72.0781 54.7509L72.677 51.3047H77.1007L76.6371 54.7509H72.0781Z" fill="white"/>
<path d="M61.7266 94.6306L153.484 38.0561C153.484 38.0561 109.557 37.4793 67.2707 39.1654C67.29 39.1507 63.581 76.9853 61.7266 94.6306Z" fill="url(#paint26_linear_95_2757)"/>
<path d="M151.359 110.459L152.866 100.387H167.914L168.9 110.045L163.954 112.663H156.44L151.359 110.459Z" fill="url(#paint27_linear_95_2757)"/>
<path d="M160.129 64.875C137.199 64.875 138.145 83.8071 146.259 90.8771C151.996 95.8911 149.658 97.8139 150.219 98.7901C150.779 99.7663 152.865 100.387 152.865 100.387H160.129H167.392C167.392 100.387 169.459 99.7663 170.038 98.7901C170.599 97.8139 168.184 95.8319 173.998 90.8771C182.479 83.6592 183.483 64.875 160.129 64.875Z" fill="url(#paint28_linear_95_2757)"/>
<path d="M156.438 112.664L158.427 113.714H161.962L163.952 112.664H156.438Z" fill="url(#paint29_linear_95_2757)"/>
<path d="M144.69 75.6719H149.21C149.21 75.6719 150.06 71.1607 152.707 68.8534L148.689 68.0547C148.708 68.0547 144.226 70.791 144.69 75.6719Z" fill="white"/>
<path d="M170.789 87.9188L173.339 88.9689C173.339 88.9689 178.304 84.8571 178.149 79H174.537C174.537 79 175.039 84.0436 170.789 87.9188Z" fill="white"/>
<path d="M150.219 98.7891C150.219 98.7891 164.243 100.239 170.038 98.7891C170.038 98.7891 169.42 100.002 167.914 100.386L168.435 105.46C168.435 105.46 161.848 102.383 152.614 102.117L152.865 100.386C152.865 100.386 150.76 99.573 150.219 98.7891Z" fill="url(#paint30_linear_95_2757)"/>
<path d="M56.9946 55.5117H54.0391V61.4576L56.589 61.8126L56.9946 55.5117Z" fill="url(#paint31_linear_95_2757)"/>
<path d="M56.3664 65.4492L54.0483 65.9521L53.4688 70.4189L55.9993 71.0253L56.3664 65.4492Z" fill="url(#paint32_linear_95_2757)"/>
<path d="M264.914 36.4157L278.997 28.8281L284.966 31.4017L269.28 42.4504L264.914 36.4157Z" fill="#FF1D9C"/>
<path d="M68.1094 23.1767L82.4043 18L86.0939 23.2803L71.4706 26.0462L68.1094 23.1767Z" fill="#4F31E0"/>
<path d="M212.352 176.232L232.558 175.848L237.039 181.069L213.993 180.374L212.352 176.232Z" fill="#6877FF"/>
<path d="M251.021 44.8792L248.007 86.589L247.988 86.6186L244.183 139.436L54.041 140.605L47.8594 42.2021C47.8594 42.2021 47.8594 38.4009 53.0364 37.3359L132.122 39.4362L244.975 38.9185C244.994 38.9333 251.021 39.6433 251.021 44.8792Z" fill="url(#paint33_linear_95_2757)"/>
<path d="M62.5334 135.861H235.598C235.598 135.861 245.257 75.5885 242.572 45.7113C242.572 45.7113 157.691 38.878 58.3222 43.2413C58.3029 43.2413 55.8882 87.1845 62.5334 135.861Z" fill="url(#paint34_linear_95_2757)"/>
<path d="M34.6992 149.408L36.573 156.389C36.573 156.389 176.238 155.871 262.529 157.306L265.079 146.523L34.6992 149.408Z" fill="url(#paint35_linear_95_2757)"/>
<path d="M54.0167 140.606L34.6992 149.406L265.098 146.537L244.178 139.438L54.0167 140.606Z" fill="url(#paint36_linear_95_2757)"/>
<path d="M62.1328 140.562V149.066L234.522 146.922V139.438L62.1328 140.562Z" fill="url(#paint37_linear_95_2757)"/>
<path d="M251.016 44.8805L248.003 86.5903L247.983 86.6199L243.366 85.2444C245.356 63.221 243.366 44.8953 243.366 44.8953C201.1 42.1295 134.551 42.8986 134.551 42.8986L132.117 39.4671L244.97 38.9494C244.989 38.9347 251.016 39.6446 251.016 44.8805Z" fill="url(#paint38_linear_95_2757)"/>
<path d="M53.7222 135.857L51.2109 96.7656L57.8948 101.247C57.8948 101.247 58.8606 122.812 61.2753 135.843H53.7222V135.857Z" fill="url(#paint39_linear_95_2757)"/>
<path d="M62.5366 135.859L61.2617 136.569L236.336 137.22L235.602 135.859H62.5366Z" fill="url(#paint40_linear_95_2757)"/>
<path opacity="0.62" d="M107.203 147.999L113.307 144.42L178.098 143.547L184.879 147.111L107.203 147.999Z" fill="url(#paint41_linear_95_2757)"/>
<path d="M71.459 140.604C71.459 140.604 71.2659 138.992 72.3284 137.809H107.505C107.505 137.809 107.042 138.489 106.907 140.604H71.459Z" fill="url(#paint42_linear_95_2757)"/>
<path d="M229.519 140.604C229.519 140.604 229.712 138.992 228.65 137.809H193.473C193.473 137.809 193.936 138.489 194.071 140.604H229.519Z" fill="url(#paint43_linear_95_2757)"/>
<path d="M194.071 140.604L193.086 139.761L193.472 137.809C193.472 137.809 194.264 138.607 194.071 140.604Z" fill="#140047"/>
<path d="M106.887 140.607L107.891 140.252L107.505 137.797C107.505 137.812 106.906 138.093 106.887 140.607Z" fill="#140047"/>
<path d="M138.625 44.9414L239.404 103.513L241.162 48.1214L138.625 44.9414Z" fill="url(#paint44_linear_95_2757)"/>
<path d="M59.1953 103.039L151.996 135.86L64.7394 134.425L59.1953 103.039Z" fill="url(#paint45_linear_95_2757)"/>
<path d="M243.042 153.516C244.087 153.516 244.935 152.867 244.935 152.067C244.935 151.266 244.087 150.617 243.042 150.617C241.996 150.617 241.148 151.266 241.148 152.067C241.148 152.867 241.996 153.516 243.042 153.516Z" fill="#FF0C82"/>
<path d="M237.183 152.068C237.183 153.193 235.986 154.11 234.517 154.11C233.049 154.11 231.852 153.193 231.852 152.068C231.852 150.944 233.049 150.027 234.517 150.027C235.986 150.027 237.183 150.944 237.183 152.068Z" fill="#6EFFE8"/>
<path d="M260.035 104.723L271.993 90.6719L278.367 94.0146L265.656 107.178L260.035 104.723Z" fill="#FF1D9C"/>
<path d="M16 130.575L34.6607 119.438L39.2196 124.259L22.1043 134.613L16 130.575Z" fill="#FF1D9C"/>
<path d="M266.199 61.4607L257.757 70.0689L254.164 67.8503L261.872 59.8633L266.199 61.4607Z" fill="#4F31E0"/>
<path d="M145.18 19.9581L154.954 28.167L158.799 24.7799L149.565 17L145.18 19.9581Z" fill="#6877FF"/>
<path d="M163.021 91.5715C164.084 89.2345 164.2 85.315 163.021 82.8006L157.863 83.5401C157.361 80.7299 156.067 78.0971 154.193 75.8046L158.115 73.7339C156.724 71.5153 153.169 68.6754 150.021 67.5218L147.509 70.332C144.554 68.6902 141.115 67.5218 137.406 66.9597L138.198 63.7649C135.146 62.9514 130.027 62.8627 126.743 63.7649L127.535 66.9597C123.826 67.5218 120.388 68.6754 117.432 70.3468L114.921 67.5218C112.023 68.6015 108.314 71.323 106.827 73.7339L110.768 75.8046C108.874 78.1119 107.58 80.7299 107.078 83.5401L101.92 82.8006C100.877 85.1375 100.761 89.057 101.92 91.5715L107.503 90.7728C108.314 93.4203 109.821 95.8756 111.888 97.9906L106.807 100.638C108.218 102.857 111.753 105.697 114.901 106.835L118.552 102.753C121.353 104.158 124.541 105.135 127.96 105.593L126.743 110.592C129.795 111.391 134.914 111.48 138.198 110.592L136.981 105.608C140.4 105.149 143.588 104.158 146.408 102.768L150.04 106.835C152.938 105.756 156.646 103.049 158.134 100.638L153.073 97.9906C155.12 95.8756 156.646 93.4351 157.438 90.7728L163.021 91.5715ZM141.482 91.9117C140.632 92.6956 139.628 93.3611 138.469 93.9084C137.232 94.4704 135.861 94.8698 134.373 95.0473C133.736 95.136 133.118 95.1804 132.461 95.1804C131.804 95.1804 131.167 95.136 130.529 95.0473C129.042 94.8698 127.67 94.4704 126.453 93.9084C125.314 93.3759 124.29 92.6956 123.44 91.9117C122.474 90.9946 121.74 89.9445 121.296 88.7908C120.986 87.9921 120.813 87.149 120.813 86.2616C120.813 86.0102 120.832 85.7587 120.851 85.5221C120.986 84.1909 121.508 82.9485 122.3 81.8688C123.073 80.8482 124.097 79.9312 125.314 79.2064C126.685 78.3929 128.327 77.8013 130.085 77.5203C130.838 77.402 131.63 77.3428 132.442 77.3428C133.253 77.3428 134.026 77.402 134.798 77.5203C136.556 77.8013 138.198 78.3929 139.57 79.2064C140.787 79.9312 141.811 80.8482 142.583 81.8688C143.375 82.9633 143.897 84.2057 144.032 85.5221C144.051 85.7587 144.071 86.0102 144.071 86.2616C144.071 87.1343 143.897 87.9773 143.588 88.7908C143.182 89.9445 142.448 90.9946 141.482 91.9117Z" fill="url(#paint46_linear_95_2757)"/>
<path d="M163.021 89.0285C164.084 86.6915 164.2 82.772 163.021 80.2576L157.863 80.9971C157.361 78.1869 156.067 75.5541 154.193 73.2616L158.115 71.1909C156.724 68.9723 153.169 66.1325 150.021 64.9788L147.509 67.789C144.554 66.1472 141.115 64.9788 137.406 64.4167L138.198 61.222C135.146 60.4085 130.027 60.3197 126.743 61.222L127.535 64.4167C123.826 64.9788 120.388 66.1473 117.432 67.8038L114.921 64.9788C112.023 66.0585 108.333 68.78 106.827 71.1909L110.768 73.2616C108.874 75.5689 107.58 78.1869 107.078 80.9971L101.92 80.2576C100.877 82.5945 100.761 86.5141 101.92 89.0285L107.503 88.2298C108.314 90.8773 109.821 93.3326 111.888 95.4477L106.807 98.0952C108.218 100.314 111.753 103.154 114.901 104.292L118.552 100.21C121.353 101.615 124.541 102.592 127.96 103.05L126.743 108.049C129.795 108.848 134.914 108.937 138.198 108.049L136.981 103.065C140.4 102.606 143.588 101.615 146.408 100.225L150.04 104.292C152.938 103.213 156.646 100.506 158.134 98.0952L153.073 95.4477C155.12 93.3326 156.646 90.8921 157.438 88.2298L163.021 89.0285ZM141.482 89.3687C140.632 90.1526 139.628 90.8182 138.469 91.3654C137.232 91.9275 135.861 92.3268 134.373 92.5043C133.736 92.593 133.118 92.6374 132.461 92.6374C131.804 92.6374 131.167 92.593 130.529 92.5043C129.042 92.3268 127.67 91.9275 126.453 91.3654C125.314 90.8329 124.29 90.1526 123.44 89.3687C122.474 88.4516 121.74 87.4015 121.296 86.2478C120.986 85.4491 120.813 84.6061 120.813 83.7186C120.813 83.4672 120.832 83.2157 120.851 82.9791C120.986 81.6479 121.508 80.4055 122.3 79.3258C123.073 78.3052 124.097 77.3882 125.314 76.6634C126.685 75.85 128.327 75.2583 130.085 74.9773C130.838 74.859 131.63 74.7998 132.442 74.7998C133.253 74.7998 134.026 74.859 134.798 74.9773C136.556 75.2583 138.198 75.85 139.57 76.6634C140.787 77.3882 141.811 78.3052 142.583 79.3258C143.375 80.4203 143.897 81.6627 144.032 82.9791C144.051 83.2157 144.071 83.4672 144.071 83.7186C144.071 84.5913 143.897 85.4343 143.588 86.2478C143.182 87.4015 142.448 88.4664 141.482 89.3687Z" fill="url(#paint47_linear_95_2757)"/>
<path d="M158.117 71.207V73.7362L155.528 75.097L154.195 73.2629L158.117 71.207Z" fill="url(#paint48_linear_95_2757)"/>
<path d="M158.117 100.626V98.082C158.117 98.082 155.123 102.638 150.023 104.279V106.823C150.023 106.823 156.282 104.486 158.117 100.626Z" fill="url(#paint49_linear_95_2757)"/>
<path d="M138.174 108.051V110.595C138.174 110.595 134.04 112.118 126.719 110.595V108.051C126.738 108.051 131.065 109.042 138.174 108.051Z" fill="url(#paint50_linear_95_2757)"/>
<path d="M106.812 100.626V98.082C106.812 98.082 109.208 101.913 114.907 104.279V106.823C114.887 106.823 110.599 105.67 106.812 100.626Z" fill="url(#paint51_linear_95_2757)"/>
<path d="M101.9 91.5727V89.0287C101.9 89.0287 100.239 84.6359 101.9 80.2578C101.9 80.2578 98.1524 84.5619 101.9 91.5727Z" fill="url(#paint52_linear_95_2757)"/>
<path d="M106.812 73.7362V71.207L110.753 73.2629L109.401 75.097L106.812 73.7362Z" fill="url(#paint53_linear_95_2757)"/>
<path d="M126.719 63.7792L126.738 61.25L127.511 64.43H126.893L126.719 63.7792Z" fill="url(#paint54_linear_95_2757)"/>
<path d="M138.179 61.25V63.7792L137.986 64.5335L137.406 64.43L138.179 61.25Z" fill="url(#paint55_linear_95_2757)"/>
<path opacity="0.62" d="M150.022 106.823V104.294L146.391 100.227V102.756L150.022 106.823Z" fill="url(#paint56_linear_95_2757)"/>
<path opacity="0.62" d="M157.414 90.7597V88.2305L163.016 89.0292V91.5732L157.414 90.7597Z" fill="url(#paint57_linear_95_2757)"/>
<path opacity="0.62" d="M118.526 102.755L118.545 100.211L114.894 104.293L114.875 106.822L118.526 102.755Z" fill="url(#paint58_linear_95_2757)"/>
<path opacity="0.62" d="M107.481 90.7597V88.2305L101.898 89.0292V91.5732L107.481 90.7597Z" fill="url(#paint59_linear_95_2757)"/>
<path d="M192.451 99.4846C192.451 99.3959 192.451 99.3072 192.451 99.2036L197.358 98.9078C197.416 96.3934 196.412 94.0564 194.538 92.2668L190.636 94.1008C188.723 91.4829 185.478 89.5157 181.595 88.7762L182.6 85.6257C179.489 84.8123 176.302 84.8123 173.482 85.6257L174.486 88.7762C170.603 89.5305 167.358 91.4829 165.446 94.1008L161.544 92.2668C159.573 94.2783 158.588 96.6152 158.723 98.9078L163.649 99.2036C163.649 99.2924 163.649 99.3811 163.649 99.4846C163.649 102.369 165.079 104.987 167.474 106.954L163.321 109.661C165.214 111.717 167.802 113.151 170.7 113.758L172.844 109.749C174.467 110.237 176.225 110.504 178.079 110.504C179.934 110.504 181.692 110.237 183.314 109.749L185.459 113.758C188.588 113.018 191.177 111.569 192.838 109.661L188.685 106.954C191.022 104.987 192.451 102.354 192.451 99.4846ZM180.011 103.715C179.393 103.892 178.736 103.981 178.041 103.981C177.345 103.981 176.688 103.892 176.07 103.715C175.278 103.508 174.544 103.168 173.945 102.709C172.902 101.94 172.245 100.875 172.168 99.7065C172.149 99.6325 172.149 99.5586 172.149 99.4846C172.149 98.7895 172.342 98.1387 172.728 97.5471C173.443 96.3786 174.815 95.4764 176.476 95.1362C176.959 95.0178 177.48 94.9735 178.021 94.9735C178.562 94.9735 179.084 95.0326 179.567 95.1362C181.247 95.4764 182.6 96.3786 183.314 97.5471C183.701 98.1387 183.894 98.7895 183.894 99.4846C183.894 99.5586 183.894 99.6325 183.875 99.7065C183.797 100.89 183.14 101.955 182.097 102.709C181.537 103.153 180.822 103.508 180.011 103.715Z" fill="#981382"/>
<path d="M192.451 97.4299C192.451 97.3412 192.451 97.2525 192.451 97.1489L197.358 96.8531C197.416 94.3387 196.412 92.0018 194.538 90.2121L190.636 92.0461C188.723 89.4282 185.478 87.461 181.595 86.7215L182.6 83.5711C179.489 82.7576 176.302 82.7576 173.482 83.5711L174.486 86.7215C170.603 87.4758 167.358 89.4282 165.446 92.0461L161.544 90.2121C159.573 92.2236 158.588 94.5605 158.723 96.8531L163.649 97.1489C163.649 97.2377 163.649 97.3264 163.649 97.4299C163.649 100.314 165.079 102.932 167.474 104.899L163.321 107.606C165.214 109.662 167.802 111.097 170.7 111.703L172.844 107.695C174.467 108.183 176.225 108.449 178.079 108.449C179.934 108.449 181.692 108.183 183.314 107.695L185.459 111.703C188.588 110.963 191.177 109.514 192.838 107.606L188.685 104.899C191.022 102.932 192.451 100.314 192.451 97.4299ZM180.011 101.66C179.393 101.838 178.736 101.926 178.041 101.926C177.345 101.926 176.688 101.838 176.07 101.66C175.278 101.453 174.544 101.113 173.945 100.654C172.902 99.8852 172.245 98.8203 172.168 97.6518C172.149 97.5779 172.149 97.5039 172.149 97.4299C172.149 96.7348 172.342 96.084 172.728 95.4924C173.443 94.3239 174.815 93.4217 176.476 93.0815C176.959 92.9631 177.48 92.9188 178.021 92.9188C178.562 92.9188 179.084 92.9779 179.567 93.0815C181.247 93.4217 182.6 94.3239 183.314 95.4924C183.701 96.084 183.894 96.7348 183.894 97.4299C183.894 97.5039 183.894 97.5779 183.875 97.6518C183.797 98.8351 183.14 99.9 182.097 100.654C181.537 101.113 180.822 101.453 180.011 101.66Z" fill="url(#paint60_linear_95_2757)"/>
<path d="M192.797 107.605V109.661C192.797 109.661 190.189 112.915 185.418 113.758V111.702C185.437 111.717 190.209 110.327 192.797 107.605Z" fill="#981382"/>
<path d="M170.661 111.718V113.774C170.661 113.774 165.735 112.709 163.281 109.677V107.621C163.281 107.606 166.527 110.905 170.661 111.718Z" fill="#981382"/>
<path d="M197.36 96.8516V98.9075L192.453 99.2033V97.1474L197.36 96.8516Z" fill="#981382"/>
<path d="M182.216 86.8538L182.602 85.6262V83.5703L181.598 86.7355L182.216 86.8538Z" fill="#981382"/>
<path d="M173.477 83.5703V85.6262L173.863 86.8538L174.481 86.7355L173.477 83.5703Z" fill="#981382"/>
<path opacity="0.62" d="M158.723 96.8516V98.9075L163.629 99.2033V97.1474L158.723 96.8516Z" fill="url(#paint61_linear_95_2757)"/>
<path opacity="0.62" d="M170.664 113.775V111.719L172.808 107.711V109.767L170.664 113.775Z" fill="url(#paint62_linear_95_2757)"/>
<path opacity="0.62" d="M183.273 109.767V107.711L185.437 111.719V113.775L183.273 109.767Z" fill="url(#paint63_linear_95_2757)"/>
</g>
<path d="M50 1H248V-1H50V1ZM297 50V149H299V50H297ZM248 198H50V200H248V198ZM1 149V50H-1V149H1ZM50 198C22.938 198 1 176.062 1 149H-1C-1 177.167 21.8335 200 50 200V198ZM297 149C297 176.062 275.062 198 248 198V200C276.167 200 299 177.167 299 149H297ZM248 1C275.062 1 297 22.938 297 50H299C299 21.8335 276.167 -1 248 -1V1ZM50 -1C21.8335 -1 -1 21.8335 -1 50H1C1 22.938 22.938 1 50 1V-1Z" fill="url(#paint64_linear_95_2757)"/>
<defs>
<linearGradient id="paint0_linear_95_2757" x1="155.457" y1="157.85" x2="155.457" y2="31.3958" gradientUnits="userSpaceOnUse">
<stop stop-color="#1C257B"/>
<stop offset="1" stop-color="#482C83"/>
</linearGradient>
<linearGradient id="paint1_linear_95_2757" x1="155.423" y1="146.338" x2="155.423" y2="37.9353" gradientUnits="userSpaceOnUse">
<stop stop-color="#FDFDFF"/>
<stop offset="1" stop-color="#DBCAFF"/>
</linearGradient>
<linearGradient id="paint2_linear_95_2757" x1="45.8588" y1="135.67" x2="45.8588" y2="124.993" gradientUnits="userSpaceOnUse">
<stop stop-color="#1C257B"/>
<stop offset="1" stop-color="#482C83"/>
</linearGradient>
<linearGradient id="paint3_linear_95_2757" x1="113.57" y1="177.457" x2="113.57" y2="129.76" gradientUnits="userSpaceOnUse">
<stop stop-color="#1C257B"/>
<stop offset="1" stop-color="#482C83"/>
</linearGradient>
<linearGradient id="paint4_linear_95_2757" x1="224.757" y1="73.9006" x2="240.542" y2="73.9006" gradientUnits="userSpaceOnUse">
<stop stop-color="#CF6074"/>
<stop offset="1" stop-color="#FF817F"/>
</linearGradient>
<linearGradient id="paint5_linear_95_2757" x1="193.861" y1="77.4467" x2="193.861" y2="73.3909" gradientUnits="userSpaceOnUse">
<stop stop-color="#1C257B"/>
<stop offset="1" stop-color="#482C83"/>
</linearGradient>
<linearGradient id="paint6_linear_95_2757" x1="244.956" y1="177.205" x2="244.956" y2="46.4569" gradientUnits="userSpaceOnUse">
<stop offset="0.016" stop-color="#FFC2A9"/>
<stop offset="1" stop-color="#FF9595"/>
</linearGradient>
<linearGradient id="paint7_linear_95_2757" x1="237.865" y1="81.8582" x2="237.865" y2="48.0361" gradientUnits="userSpaceOnUse">
<stop stop-color="#1C257B"/>
<stop offset="1" stop-color="#482C83"/>
</linearGradient>
<linearGradient id="paint8_linear_95_2757" x1="215.539" y1="70.1123" x2="215.539" y2="46.4043" gradientUnits="userSpaceOnUse">
<stop offset="0.016" stop-color="#FF9A93"/>
<stop offset="1" stop-color="#FF9595"/>
</linearGradient>
<linearGradient id="paint9_linear_95_2757" x1="209.438" y1="110.72" x2="209.438" y2="73.597" gradientUnits="userSpaceOnUse">
<stop offset="0.016" stop-color="#FF9A93"/>
<stop offset="1" stop-color="#FF9595"/>
</linearGradient>
<linearGradient id="paint10_linear_95_2757" x1="280.484" y1="178.253" x2="280.484" y2="126.321" gradientUnits="userSpaceOnUse">
<stop stop-color="#744FD8"/>
<stop offset="1" stop-color="#3996F7"/>
</linearGradient>
<linearGradient id="paint11_linear_95_2757" x1="278.066" y1="178.482" x2="278.066" y2="131.821" gradientUnits="userSpaceOnUse">
<stop stop-color="#8B8BE0"/>
<stop offset="1" stop-color="white"/>
</linearGradient>
<linearGradient id="paint12_linear_95_2757" x1="249.377" y1="124.59" x2="249.377" y2="72.8775" gradientUnits="userSpaceOnUse">
<stop offset="0.016" stop-color="#FF997C"/>
<stop offset="1" stop-color="#FF898E"/>
</linearGradient>
<linearGradient id="paint13_linear_95_2757" x1="218.419" y1="96.1368" x2="228.954" y2="96.1368" gradientUnits="userSpaceOnUse">
<stop stop-color="#CF6074"/>
<stop offset="1" stop-color="#FF817F"/>
</linearGradient>
<linearGradient id="paint14_linear_95_2757" x1="198.567" y1="79.5506" x2="209.418" y2="79.5506" gradientUnits="userSpaceOnUse">
<stop stop-color="#B9ACF4"/>
<stop offset="1" stop-color="#E1D1F5"/>
</linearGradient>
<linearGradient id="paint15_linear_95_2757" x1="201.832" y1="79.4758" x2="201.832" y2="74.4174" gradientUnits="userSpaceOnUse">
<stop stop-color="#B9ACF4"/>
<stop offset="1" stop-color="#E1D1F5"/>
</linearGradient>
<linearGradient id="paint16_linear_95_2757" x1="207.18" y1="84.9127" x2="207.18" y2="75.9467" gradientUnits="userSpaceOnUse">
<stop stop-color="#CF6074"/>
<stop offset="1" stop-color="#FF817F"/>
</linearGradient>
<linearGradient id="paint17_linear_95_2757" x1="273.826" y1="68.5626" x2="273.826" y2="48.0353" gradientUnits="userSpaceOnUse">
<stop stop-color="#B9ACF4"/>
<stop offset="1" stop-color="#E1D1F5"/>
</linearGradient>
<linearGradient id="paint18_linear_95_2757" x1="277.346" y1="58.8535" x2="277.346" y2="53.9808" gradientUnits="userSpaceOnUse">
<stop stop-color="#FDFDFF"/>
<stop offset="1" stop-color="#DBCAFF"/>
</linearGradient>
<linearGradient id="paint19_linear_95_2757" x1="220.462" y1="63.4251" x2="220.462" y2="53.5212" gradientUnits="userSpaceOnUse">
<stop stop-color="#CF6074"/>
<stop offset="1" stop-color="#FF817F"/>
</linearGradient>
<linearGradient id="paint20_linear_95_2757" x1="235.081" y1="68.3076" x2="235.081" y2="56.4133" gradientUnits="userSpaceOnUse">
<stop stop-color="#B9ACF4"/>
<stop offset="1" stop-color="#E1D1F5"/>
</linearGradient>
<linearGradient id="paint21_linear_95_2757" x1="109.814" y1="109.444" x2="109.814" y2="31.4005" gradientUnits="userSpaceOnUse">
<stop stop-color="#B9ACF4"/>
<stop offset="1" stop-color="#E1D1F5"/>
</linearGradient>
<linearGradient id="paint22_linear_95_2757" x1="154.535" y1="147.362" x2="154.535" y2="143.677" gradientUnits="userSpaceOnUse">
<stop stop-color="#744FD8"/>
<stop offset="1" stop-color="#3996F7"/>
</linearGradient>
<linearGradient id="paint23_linear_95_2757" x1="149.534" y1="155.818" x2="149.534" y2="146.34" gradientUnits="userSpaceOnUse">
<stop stop-color="#B9ACF4"/>
<stop offset="1" stop-color="#E1D1F5"/>
</linearGradient>
<linearGradient id="paint24_linear_95_2757" x1="45.8588" y1="124.995" x2="45.8588" y2="123.292" gradientUnits="userSpaceOnUse">
<stop stop-color="#744FD8"/>
<stop offset="1" stop-color="#3996F7"/>
</linearGradient>
<linearGradient id="paint25_linear_95_2757" x1="97.9141" y1="55.5034" x2="97.9141" y2="50.4886" gradientUnits="userSpaceOnUse">
<stop stop-color="#B9ACF4"/>
<stop offset="1" stop-color="#E1D1F5"/>
</linearGradient>
<linearGradient id="paint26_linear_95_2757" x1="107.612" y1="94.6246" x2="107.612" y2="37.9505" gradientUnits="userSpaceOnUse">
<stop stop-color="#B9ACF4"/>
<stop offset="1" stop-color="#E1D1F5"/>
</linearGradient>
<linearGradient id="paint27_linear_95_2757" x1="160.127" y1="112.658" x2="160.127" y2="100.39" gradientUnits="userSpaceOnUse">
<stop stop-color="#EFEAFF"/>
<stop offset="1" stop-color="#D1BBFF"/>
</linearGradient>
<linearGradient id="paint28_linear_95_2757" x1="160.268" y1="100.391" x2="160.268" y2="64.872" gradientUnits="userSpaceOnUse">
<stop stop-color="#CF95FF"/>
<stop offset="1" stop-color="#9552FF"/>
</linearGradient>
<linearGradient id="paint29_linear_95_2757" x1="160.196" y1="113.715" x2="160.196" y2="112.659" gradientUnits="userSpaceOnUse">
<stop stop-color="#1C257B"/>
<stop offset="1" stop-color="#482C83"/>
</linearGradient>
<linearGradient id="paint30_linear_95_2757" x1="150.22" y1="102.127" x2="170.033" y2="102.127" gradientUnits="userSpaceOnUse">
<stop stop-color="#8B8BE0"/>
<stop offset="1" stop-color="white"/>
</linearGradient>
<linearGradient id="paint31_linear_95_2757" x1="55.5196" y1="61.8126" x2="55.5196" y2="55.5089" gradientUnits="userSpaceOnUse">
<stop stop-color="#1C257B"/>
<stop offset="1" stop-color="#482C83"/>
</linearGradient>
<linearGradient id="paint32_linear_95_2757" x1="54.915" y1="71.0309" x2="54.915" y2="65.4469" gradientUnits="userSpaceOnUse">
<stop stop-color="#1C257B"/>
<stop offset="1" stop-color="#482C83"/>
</linearGradient>
<linearGradient id="paint33_linear_95_2757" x1="149.437" y1="140.606" x2="149.437" y2="37.3411" gradientUnits="userSpaceOnUse">
<stop stop-color="#1C257B"/>
<stop offset="1" stop-color="#482C83"/>
</linearGradient>
<linearGradient id="paint34_linear_95_2757" x1="150.457" y1="135.858" x2="150.457" y2="41.7856" gradientUnits="userSpaceOnUse">
<stop stop-color="#FDFDFF"/>
<stop offset="1" stop-color="#D1BBFF"/>
</linearGradient>
<linearGradient id="paint35_linear_95_2757" x1="149.902" y1="157.316" x2="149.902" y2="146.535" gradientUnits="userSpaceOnUse">
<stop stop-color="#1C257B"/>
<stop offset="1" stop-color="#482C83"/>
</linearGradient>
<linearGradient id="paint36_linear_95_2757" x1="149.902" y1="149.409" x2="149.902" y2="139.439" gradientUnits="userSpaceOnUse">
<stop stop-color="#744FD8"/>
<stop offset="1" stop-color="#3996F7"/>
</linearGradient>
<linearGradient id="paint37_linear_95_2757" x1="62.1365" y1="144.253" x2="234.525" y2="144.253" gradientUnits="userSpaceOnUse">
<stop stop-color="#B9ACF4"/>
<stop offset="1" stop-color="#E1D1F5"/>
</linearGradient>
<linearGradient id="paint38_linear_95_2757" x1="191.57" y1="86.6155" x2="191.57" y2="38.9318" gradientUnits="userSpaceOnUse">
<stop stop-color="#B9ACF4"/>
<stop offset="1" stop-color="#E1D1F5"/>
</linearGradient>
<linearGradient id="paint39_linear_95_2757" x1="56.2281" y1="135.855" x2="56.2281" y2="96.7656" gradientUnits="userSpaceOnUse">
<stop stop-color="#B9ACF4"/>
<stop offset="1" stop-color="#E1D1F5"/>
</linearGradient>
<linearGradient id="paint40_linear_95_2757" x1="148.796" y1="137.217" x2="148.796" y2="135.857" gradientUnits="userSpaceOnUse">
<stop stop-color="#744FD8"/>
<stop offset="1" stop-color="#3996F7"/>
</linearGradient>
<linearGradient id="paint41_linear_95_2757" x1="107.205" y1="145.774" x2="184.882" y2="145.774" gradientUnits="userSpaceOnUse">
<stop stop-color="#8B8BE0"/>
<stop offset="1" stop-color="#A177B7"/>
</linearGradient>
<linearGradient id="paint42_linear_95_2757" x1="89.4679" y1="140.606" x2="89.4679" y2="137.804" gradientUnits="userSpaceOnUse">
<stop stop-color="#1C257B"/>
<stop offset="1" stop-color="#58529B"/>
</linearGradient>
<linearGradient id="paint43_linear_95_2757" x1="211.506" y1="140.606" x2="211.506" y2="137.804" gradientUnits="userSpaceOnUse">
<stop stop-color="#1C257B"/>
<stop offset="1" stop-color="#58529B"/>
</linearGradient>
<linearGradient id="paint44_linear_95_2757" x1="189.888" y1="103.513" x2="189.888" y2="44.9384" gradientUnits="userSpaceOnUse">
<stop stop-color="#B9ACF4"/>
<stop offset="1" stop-color="#E1D1F5"/>
</linearGradient>
<linearGradient id="paint45_linear_95_2757" x1="105.594" y1="135.857" x2="105.594" y2="103.04" gradientUnits="userSpaceOnUse">
<stop stop-color="#B9ACF4"/>
<stop offset="1" stop-color="#E1D1F5"/>
</linearGradient>
<linearGradient id="paint46_linear_95_2757" x1="132.458" y1="111.218" x2="132.458" y2="63.1425" gradientUnits="userSpaceOnUse">
<stop stop-color="#3D2CB0"/>
<stop offset="1" stop-color="#0355C7"/>
</linearGradient>
<linearGradient id="paint47_linear_95_2757" x1="132.463" y1="108.679" x2="132.463" y2="60.6034" gradientUnits="userSpaceOnUse">
<stop stop-color="#744FD8"/>
<stop offset="1" stop-color="#3996F7"/>
</linearGradient>
<linearGradient id="paint48_linear_95_2757" x1="156.151" y1="75.1019" x2="156.151" y2="71.1998" gradientUnits="userSpaceOnUse">
<stop stop-color="#3D2CB0"/>
<stop offset="1" stop-color="#0355C7"/>
</linearGradient>
<linearGradient id="paint49_linear_95_2757" x1="154.066" y1="106.83" x2="154.066" y2="98.0933" gradientUnits="userSpaceOnUse">
<stop stop-color="#3D2CB0"/>
<stop offset="1" stop-color="#0355C7"/>
</linearGradient>
<linearGradient id="paint50_linear_95_2757" x1="132.45" y1="111.262" x2="132.45" y2="108.046" gradientUnits="userSpaceOnUse">
<stop stop-color="#3D2CB0"/>
<stop offset="1" stop-color="#0355C7"/>
</linearGradient>
<linearGradient id="paint51_linear_95_2757" x1="110.852" y1="106.83" x2="110.852" y2="98.0933" gradientUnits="userSpaceOnUse">
<stop stop-color="#3D2CB0"/>
<stop offset="1" stop-color="#0355C7"/>
</linearGradient>
<linearGradient id="paint52_linear_95_2757" x1="101.062" y1="91.5677" x2="101.062" y2="80.263" gradientUnits="userSpaceOnUse">
<stop stop-color="#3D2CB0"/>
<stop offset="1" stop-color="#0355C7"/>
</linearGradient>
<linearGradient id="paint53_linear_95_2757" x1="108.776" y1="75.1019" x2="108.776" y2="71.1998" gradientUnits="userSpaceOnUse">
<stop stop-color="#3D2CB0"/>
<stop offset="1" stop-color="#0355C7"/>
</linearGradient>
<linearGradient id="paint54_linear_95_2757" x1="127.118" y1="64.4334" x2="127.118" y2="61.2444" gradientUnits="userSpaceOnUse">
<stop stop-color="#3D2CB0"/>
<stop offset="1" stop-color="#0355C7"/>
</linearGradient>
<linearGradient id="paint55_linear_95_2757" x1="137.79" y1="64.5288" x2="137.79" y2="61.2444" gradientUnits="userSpaceOnUse">
<stop stop-color="#3D2CB0"/>
<stop offset="1" stop-color="#0355C7"/>
</linearGradient>
<linearGradient id="paint56_linear_95_2757" x1="148.202" y1="106.83" x2="148.202" y2="100.223" gradientUnits="userSpaceOnUse">
<stop stop-color="#8B8BE0"/>
<stop offset="1" stop-color="#A177B7"/>
</linearGradient>
<linearGradient id="paint57_linear_95_2757" x1="160.215" y1="91.5681" x2="160.215" y2="88.2254" gradientUnits="userSpaceOnUse">
<stop stop-color="#8B8BE0"/>
<stop offset="1" stop-color="#A177B7"/>
</linearGradient>
<linearGradient id="paint58_linear_95_2757" x1="116.71" y1="106.829" x2="116.71" y2="100.211" gradientUnits="userSpaceOnUse">
<stop stop-color="#8B8BE0"/>
<stop offset="1" stop-color="#A177B7"/>
</linearGradient>
<linearGradient id="paint59_linear_95_2757" x1="104.688" y1="91.5681" x2="104.688" y2="88.2254" gradientUnits="userSpaceOnUse">
<stop stop-color="#8B8BE0"/>
<stop offset="1" stop-color="#A177B7"/>
</linearGradient>
<linearGradient id="paint60_linear_95_2757" x1="178.035" y1="111.714" x2="178.035" y2="82.9677" gradientUnits="userSpaceOnUse">
<stop stop-color="#B31A8F"/>
<stop offset="1" stop-color="#FE117E"/>
</linearGradient>
<linearGradient id="paint61_linear_95_2757" x1="161.177" y1="99.2017" x2="161.177" y2="96.8587" gradientUnits="userSpaceOnUse">
<stop stop-color="#8B8BE0"/>
<stop offset="1" stop-color="#A177B7"/>
</linearGradient>
<linearGradient id="paint62_linear_95_2757" x1="171.737" y1="113.768" x2="171.737" y2="107.712" gradientUnits="userSpaceOnUse">
<stop stop-color="#8B8BE0"/>
<stop offset="1" stop-color="#A177B7"/>
</linearGradient>
<linearGradient id="paint63_linear_95_2757" x1="184.353" y1="113.768" x2="184.353" y2="107.712" gradientUnits="userSpaceOnUse">
<stop stop-color="#8B8BE0"/>
<stop offset="1" stop-color="#A177B7"/>
</linearGradient>
<linearGradient id="paint64_linear_95_2757" x1="149" y1="0" x2="149" y2="199" gradientUnits="userSpaceOnUse">
<stop stop-color="#6F67F0"/>
<stop offset="1" stop-color="#59068C"/>
</linearGradient>
<clipPath id="clip0_95_2757">
<path d="M0 50C0 22.3858 22.3858 0 50 0H248C275.614 0 298 22.3858 298 50V149C298 176.614 275.614 199 248 199H50C22.3858 199 0 176.614 0 149V50Z" fill="white"/>
</clipPath>
</defs>
</svg>
