<svg width="800" height="732" viewBox="0 0 800 732" fill="none" xmlns="http://www.w3.org/2000/svg">
<path d="M371.765 36.5569C217.105 73.8993 191.825 190.626 168.325 296.605C144.825 402.564 56.8647 501.621 234.245 543.783C411.625 585.944 675.365 528.612 719.325 360.759C763.285 192.907 594.765 209.546 474.765 156.893C354.765 104.241 440.265 20.0374 371.765 36.5569Z" fill="url(#paint0_linear_17_13)"/>
<path d="M433.521 94.6007C414.021 104.893 403.141 47.1642 425.841 24.5367C448.541 1.90915 488.261 -9.63267 504.141 10.0797C520.021 29.8118 483.481 61.185 463.061 72.5483C442.621 83.9117 440.801 90.7535 433.521 94.6007Z" fill="#E7ECFF"/>
<path d="M199.063 145.588C199.623 105.311 107.903 141.701 80.6628 216.108C53.4228 290.516 78.2628 344.873 115.323 347.332C152.383 349.791 157.503 308.007 168.783 249.921C180.063 191.835 198.743 168.216 199.063 145.588Z" fill="url(#paint1_linear_17_13)"/>
<path d="M652.503 585.11C667.163 557.882 690.483 549.017 706.743 552.805C723.023 556.593 707.123 608.114 684.283 610.117C661.463 612.14 643.563 601.689 652.503 585.11Z" fill="#E7ECFF"/>
<path d="M647.901 261.362C647.901 261.362 641.521 308.462 653.021 385.11L642.341 377.594L620.301 366.568C620.301 366.568 613.701 355.621 613.201 323.554C613.201 323.554 610.701 326.489 619.281 380.727C619.281 380.727 538.701 386.617 523.021 392.13C507.361 397.643 501.041 402.879 501.041 402.879C501.041 402.879 483.101 364.585 488.161 352.547C493.221 340.529 508.621 348.799 524.041 329.761C539.461 310.723 540.581 197.744 557.261 179.34C573.941 160.937 642.981 166.251 642.981 166.251L648.961 172.954C648.981 172.935 649.661 227.292 647.901 261.362Z" fill="url(#paint2_linear_17_13)"/>
<path d="M647.22 266.242C647.22 266.242 640.92 271.399 637.46 275.523C634 279.648 632.32 334.085 632.32 334.085L629.66 331.17L633.96 278.339C633.96 278.339 619.94 287.363 617.1 293.55C614.26 299.757 611.3 320.402 611.3 320.402L609.08 318.339L614.82 287.898L607.32 316.455C607.32 316.455 603.2 312.231 600.02 305.508C596.84 298.786 591.82 245.578 591.82 245.578L647.86 261.344L647.22 266.242Z" fill="url(#paint3_linear_17_13)"/>
<path d="M658.441 516.376C669.421 520.5 690.681 425.568 678.721 406.907C666.781 388.245 641.261 437.725 640.741 467.769C640.221 497.813 658.441 516.376 658.441 516.376Z" fill="url(#paint4_linear_17_13)"/>
<path d="M632.18 333.016C632.18 333.016 657.34 356.06 678.74 406.907C678.74 406.907 612.6 456.247 658.46 516.376C658.46 516.376 633.18 492.737 622.9 449.703C612.6 406.669 632.18 333.016 632.18 333.016Z" fill="url(#paint5_linear_17_13)"/>
<path d="M678.742 316.474C678.742 316.474 717.202 309.89 762.282 313.459L765.322 316.474L682.702 318.358L678.742 316.474Z" fill="url(#paint6_linear_17_13)"/>
<path d="M570.521 298.625H566.881C566.881 298.625 566.361 303.702 562.561 307.271C558.781 310.841 536.981 316.672 516.521 341.461C516.521 341.461 481.841 443.473 503.821 512.248C503.821 512.248 511.581 436.155 541.721 414.361L544.681 416.82C544.681 416.82 548.381 446.824 544.001 456.8L547.581 458.882C547.581 458.882 563.681 451.743 573.921 454.757C584.161 457.771 594.961 467.727 612.961 471.852C612.961 471.852 623.061 447.499 631.661 432.705C640.241 417.93 645.941 405.437 645.941 405.437C645.941 405.437 650.561 384.356 642.341 366.448C634.181 348.64 632.181 333.013 632.181 333.013C632.181 333.013 607.101 322.799 602.561 308.461L599.841 307.45L570.521 298.625Z" fill="url(#paint7_linear_17_13)"/>
<path d="M629.879 385.308C629.879 385.308 636.639 392.031 637.679 402.879C638.839 415.135 631.679 432.705 631.679 432.705L637.679 421.917L655.219 370.475L649.659 362.602L629.879 385.308Z" fill="#ED90BC"/>
<path d="M646.32 380.731C649.16 378.668 648.22 362.129 651.82 354.435C655.42 346.74 662.88 337.776 662.88 337.776C662.88 337.776 660.74 335.139 656.44 336.408C652.14 337.657 644.82 339.918 645.46 353.066C645.46 353.066 643.7 357.647 641.34 362.089C641.32 362.07 646.58 371.589 646.32 380.731Z" fill="url(#paint8_linear_17_13)"/>
<path d="M645.944 142.513C660.524 155.582 666.523 165.676 667.543 175.195C668.563 184.714 656.803 213.529 656.743 220.53C656.683 227.55 662.744 233.559 659.964 243.832C657.184 254.104 634.644 277.386 623.084 277.406C618.164 277.406 595.743 263.127 584.363 249.781C573.003 236.435 572.623 207.124 572.623 207.124C572.623 207.124 558.784 158.458 585.884 143.624C612.984 128.79 638.984 136.266 645.944 142.513Z" fill="url(#paint9_linear_17_13)"/>
<path d="M652.199 188.64C652.199 188.64 655.559 167.877 647.899 164.506C640.259 161.114 637.459 162.443 637.459 162.443C637.459 162.443 630.559 184 617.119 187.966C603.679 191.932 587.699 187.054 587.699 187.054L612.079 164.506L644.319 142.711L657.379 153.797L660.639 180.985L652.199 188.64Z" fill="#EB90BC"/>
<path d="M614.781 467.608C614.781 467.608 619.801 471.674 623.961 482.759H617.701C617.701 482.759 651.621 632.743 694.821 731.999H510.841C510.841 731.999 498.621 580.012 503.681 537.93C508.741 495.848 544.021 456.82 544.021 456.82C544.021 456.82 564.581 450.176 576.141 455.511C587.701 460.846 612.981 471.852 612.981 471.852L614.781 467.608Z" fill="url(#paint10_linear_17_13)"/>
<path d="M573.003 308.007C573.003 308.007 570.403 301.819 570.523 298.626C570.663 295.434 570.662 295.434 570.662 295.434L567.883 296.822C567.883 296.822 567.623 302.454 562.562 307.273C557.522 312.092 539.443 315.483 516.523 341.462L512.562 354.531C512.562 354.531 521.263 347.55 533.643 348.046C533.643 348.046 546.882 371.586 561.802 366.073C576.722 360.56 573.003 308.007 573.003 308.007ZM559.242 357.01C546.282 358.933 538.003 345.349 538.003 345.349C538.003 345.349 551.582 349.176 560.682 344.536C569.762 339.895 571.003 320.421 571.003 320.421C571.003 320.421 572.222 355.066 559.242 357.01Z" fill="#E0A1C6"/>
<path d="M503.841 512.249C505.061 529.879 527.581 512.626 542.741 481.57C557.901 450.514 553.601 418.447 542.741 411.684C531.881 404.902 501.301 475.799 503.841 512.249Z" fill="url(#paint11_linear_17_13)"/>
<path d="M598.28 262.811C598.28 262.811 594.039 290.932 602.359 312.984C602.359 312.984 604.64 328.274 593.26 328.016C581.9 327.759 570.52 303.207 570.52 303.207L577.96 238.121C577.96 238.121 583.06 249.207 598.28 262.811Z" fill="url(#paint12_linear_17_13)"/>
<path d="M653.02 368.332L618.34 309.334C618.34 309.334 618.28 299.934 627.18 301.441L658.68 361.193C658.68 361.193 662.5 373.33 661.5 374.678C660.52 376.046 653.02 368.332 653.02 368.332Z" fill="url(#paint13_linear_17_13)"/>
<path d="M648.081 142.138C654.961 150.308 674.361 155.92 678.141 164.924C681.921 173.947 665.941 186.718 665.941 186.718L666.301 184.636C666.301 184.636 678.721 175.553 674.601 166.53C674.601 166.53 668.481 185.509 653.881 187.77C653.881 187.77 663.741 178.945 660.321 164.666C660.321 164.666 663.541 177.437 653.881 187.77L652.181 188.622C652.181 188.622 663.741 168.93 645.461 150.407C645.461 150.407 646.301 196.991 604.241 184.021L599.321 181.761C599.321 181.761 633.941 174.621 640.041 148.503C640.041 148.503 625.341 174.681 596.161 182.316L590.101 184.061C590.101 184.061 572.601 230.764 598.941 238.101C598.941 238.101 580.201 241.493 579.061 227.214C577.921 212.935 586.541 185.31 586.541 185.31C586.541 185.31 579.141 198.935 578.441 209.961C578.441 209.961 575.301 200.858 570.561 197.447C570.561 197.447 567.221 194.473 559.661 192.708C559.661 192.708 549.321 248.434 557.661 308.919C557.661 308.919 534.161 322.067 526.581 331.467C519.001 340.867 513.701 340.867 497.781 348.007C481.861 355.146 505.501 397.982 505.501 397.982C505.501 397.982 493.621 411.883 486.041 415.274C486.041 415.274 469.741 413.073 463.301 399.707C463.301 399.707 474.801 410.892 490.201 409.385C490.201 409.385 493.481 401.789 492.221 399.707C490.961 397.625 460.381 378.586 470.741 350.763C470.741 350.763 514.201 340.748 521.261 327.977C528.341 315.206 536.041 190.943 553.101 155.246C570.161 119.55 589.041 118.181 598.321 117.051C607.601 115.96 634.821 126.352 648.081 142.138Z" fill="url(#paint14_linear_17_13)"/>
<path d="M574.101 201.886C574.101 201.886 566.021 187.766 553.261 194.588C550.581 196.016 549.761 214.023 555.741 222.828C561.721 231.633 569.561 233.478 573.181 233.577C576.801 233.676 577.821 228.797 577.821 228.797C577.821 228.797 582.361 208.371 574.101 201.886Z" fill="url(#paint15_linear_17_13)"/>
<path d="M568.461 206.192C568.461 206.192 560.861 201.393 557.121 200.996C553.381 200.6 555.301 215.156 555.301 215.156C555.301 215.156 554.221 204.625 557.241 203.753C560.281 202.88 565.581 208.076 565.581 208.076C565.581 208.076 559.961 211.09 560.141 218.606C560.321 226.123 568.381 229.097 568.381 229.097C568.381 229.097 569.861 228.185 570.501 226.043C571.141 223.901 567.301 219.201 567.141 216.683C566.981 214.144 569.881 213.768 569.881 213.768L573.021 215.771C573.001 215.771 571.841 209.147 568.461 206.192Z" fill="url(#paint16_linear_17_13)"/>
<path d="M571.521 210.853C571.521 210.853 569.501 207.422 566.181 208.374C562.861 209.306 558.601 216.168 560.301 220.193C562.001 224.219 566.941 226.103 568.921 224.576C570.901 223.049 566.941 218.825 567.401 215.91C567.881 212.995 572.141 214.68 572.141 214.68L571.521 210.853Z" fill="#FEB1C8"/>
<path d="M587.703 180.969C587.703 180.969 576.823 191.301 566.543 194.057C566.543 194.057 565.983 245.341 566.983 287.919C567.983 330.497 553.343 338.271 526.563 331.508L518.883 338.628C518.883 338.628 534.943 344.042 551.223 341.285C567.503 338.529 569.083 301.96 569.083 301.96C569.083 301.96 571.763 349.654 560.683 356.317C549.603 362.981 534.343 340.631 534.343 340.631L530.643 340.155C530.643 340.155 544.003 360.284 561.243 358.4C578.483 356.516 571.223 317.686 572.683 294.682C574.143 271.677 576.423 221.008 578.443 210.002C580.463 198.976 587.703 180.969 587.703 180.969Z" fill="url(#paint17_linear_17_13)"/>
<path d="M644.959 483.057C644.959 483.057 684.979 472.03 716.039 397.643V378.109C716.039 378.109 678.199 413.052 650.319 443.116C650.339 443.116 640.179 458.585 644.959 483.057Z" fill="url(#paint18_linear_17_13)"/>
<path d="M631.54 454.384L628.5 452.004C628.5 452.004 659.28 347.79 678.72 316.477L682.68 318.361L631.54 454.384Z" fill="url(#paint19_linear_17_13)"/>
<path d="M631.539 454.382C629.639 449.246 678.159 320.62 682.699 318.359C687.239 316.098 762.659 313.481 765.319 316.475C767.979 319.49 700.339 450.436 696.739 451.943C693.119 453.45 632.659 457.436 631.539 454.382Z" fill="url(#paint20_linear_17_13)"/>
<path d="M731.483 351.798C731.483 351.798 727.983 355.387 730.623 360.682L738.983 360.008C738.983 360.008 727.683 362.963 723.323 370.479C718.963 377.995 720.003 386.364 720.003 386.364H721.703L725.723 399.532L753.483 343.984C753.503 344.004 738.023 346.443 731.483 351.798Z" fill="#ED90BC"/>
<path d="M755.502 340.234C755.502 340.234 757.162 347.116 757.162 349.555C757.162 351.994 751.042 354.632 751.042 354.632C751.042 354.632 753.942 359.887 751.042 362.703C751.042 362.703 752.142 369.843 745.762 375.019C739.382 380.195 731.122 381.979 722.782 382.356C722.782 382.356 722.622 375.574 727.982 373.987L725.082 373.888C725.082 373.888 724.662 366.749 732.742 363.08C740.822 359.411 748.822 354.632 748.822 354.632C748.822 354.632 738.702 357.825 731.382 357.825C731.382 357.825 729.762 352.748 734.102 350.031C738.442 347.314 753.502 344.022 753.502 344.022L755.502 340.234Z" fill="url(#paint21_linear_17_13)"/>
<path d="M738.321 379.855C738.321 379.855 741.721 382.017 739.821 385.626C737.921 389.236 725.621 390.763 725.621 390.763C725.621 390.763 723.401 385.626 727.841 383.048C732.301 380.51 738.321 379.855 738.321 379.855Z" fill="url(#paint22_linear_17_13)"/>
<path d="M630.284 238.953C630.284 238.953 625.604 243.078 628.764 246.965C628.764 246.965 634.204 246.687 638.544 248.274C638.544 248.274 641.284 248.452 645.184 247.044L649.444 244.01C649.444 244.01 646.884 242.86 643.784 243.613C640.684 244.367 637.404 245.716 634.444 246.092C631.484 246.469 629.004 245.914 629.004 245.914C629.004 245.914 626.424 243.653 630.284 238.953Z" fill="url(#paint23_linear_17_13)"/>
<path d="M628.76 246.965C628.76 246.965 624.46 241.73 630.28 238.953C630.28 238.953 626.36 241.333 628.76 246.965Z" fill="url(#paint24_linear_17_13)"/>
<path opacity="0.62" d="M630.5 246.964C630.5 246.964 631.9 245.318 633.56 245.655C635.24 246.012 637.46 247.936 637.46 247.936C637.46 247.936 633.24 246.845 630.5 246.964Z" fill="#A44F63"/>
<path opacity="0.5" d="M650.101 241.332C650.101 241.332 647.261 236.454 643.561 231.654C639.861 226.855 643.081 217.376 643.081 217.376C643.081 217.376 639.061 214.084 633.961 217.376C633.961 217.376 630.661 227.43 624.881 232.507C624.881 232.507 613.901 233.737 603.281 226.875C592.661 220.013 593.341 210.534 593.341 210.534C593.341 210.534 595.701 202.264 601.401 199.686C607.101 197.108 634.841 196.414 634.841 196.414C634.841 196.414 642.961 205.378 651.081 202.601C651.081 202.601 659.381 198.139 661.941 200.281C661.941 200.281 655.681 217.574 656.841 222.254C658.001 226.934 660.961 234.57 660.661 239.547C660.661 239.547 657.681 243.87 650.101 241.332Z" fill="url(#paint25_linear_17_13)"/>
<path d="M627.66 245.021C628.32 246.35 629.2 247.778 636.1 245.795C643 243.832 646.42 242.681 649.44 244.03C649.44 244.03 641.44 254.798 634.7 253.489C627.94 252.161 627.66 245.021 627.66 245.021Z" fill="#FEB1C8"/>
<path d="M643.043 228.187C643.043 228.187 647.723 224.438 656.303 224.557C656.303 224.557 651.343 233.085 647.363 233.601C643.383 234.096 643.043 228.187 643.043 228.187Z" fill="#FFE4EC"/>
<path d="M597.941 219.263C597.941 219.263 610.441 216.527 623.201 224.538C623.201 224.538 619.701 228.564 616.101 229.08C612.501 229.595 597.941 219.263 597.941 219.263Z" fill="#FFE4EC"/>
<path d="M643.043 228.186C643.043 228.186 649.663 224.399 655.583 225.727L661.963 221.543L656.863 222.257C656.843 222.257 651.063 220.611 643.043 228.186Z" fill="#6C2A51"/>
<path d="M623.204 224.539C623.204 224.539 615.964 218.907 597.944 219.264L594.684 212.68L600.964 216.666C600.984 216.666 620.684 217.281 623.204 224.539Z" fill="#6C2A51"/>
<path d="M606.48 224.854C606.48 224.854 610.32 220.273 617.32 221.543L623.201 224.537C623.201 224.537 620.1 228.602 616.1 229.078C612.08 229.554 606.48 224.854 606.48 224.854Z" fill="#9D86A2"/>
<path d="M650.62 225.628C650.62 225.628 646.84 228.345 646.52 233.6C646.52 233.6 647.3 233.996 650.18 232.172C653.04 230.348 655.56 225.727 655.56 225.727C655.56 225.727 653.36 225.033 650.62 225.628Z" fill="#9D86A2"/>
<path d="M642.078 228.184C642.078 228.184 647.958 214.421 651.618 213.172C655.278 211.923 656.298 222.175 656.298 222.175C656.298 222.175 655.158 212.637 651.998 213.509C648.838 214.382 643.038 228.204 643.038 228.204H642.078V228.184Z" fill="#FEB1C8"/>
<path d="M623.201 224.536C623.201 224.536 623.701 210.634 618.141 209.008C612.581 207.382 600.961 216.643 600.961 216.643C600.961 216.643 612.401 208.314 617.121 209.682C621.861 211.051 621.761 222.354 621.761 222.354L623.201 224.536Z" fill="#FEB1C8"/>
<path d="M650.098 204.249C650.098 204.249 656.338 194.988 664.558 191.934C664.558 191.934 667.598 197.923 661.598 201.829C661.598 201.829 661.278 200.164 659.278 200.719C657.298 201.274 649.418 205.419 649.418 205.419C649.418 205.419 649.898 199.033 654.338 196.971L650.098 204.249Z" fill="url(#paint26_linear_17_13)"/>
<path d="M634.381 198.22C634.381 198.22 636.561 191.457 634.381 188.443V195.404C634.381 195.404 634.101 189.871 631.541 188.443C628.981 187.035 613.161 187.987 600.941 199.668C600.941 199.668 620.541 196.058 634.381 198.22Z" fill="url(#paint27_linear_17_13)"/>
<path d="M644.322 255.79L636.262 261.244H636.242L635.642 261.66C635.642 261.66 632.582 265.706 629.562 266.222C627.302 266.598 622.482 260.292 619.222 254.581C618.102 252.637 617.182 250.773 616.602 249.246C616.602 249.246 619.762 254.184 623.782 255.969C627.802 257.774 634.622 259.122 637.082 258.904C639.382 258.706 643.782 256.108 644.322 255.79Z" fill="url(#paint28_linear_17_13)"/>
<path d="M644.322 255.79L636.262 261.244H636.242C634.322 261.522 632.202 261.244 632.202 261.244C625.282 259.36 619.222 254.581 619.222 254.581C618.102 252.637 617.182 250.773 616.602 249.246C616.602 249.246 619.762 254.184 623.782 255.969C627.802 257.774 634.622 259.122 637.082 258.904C639.382 258.706 643.782 256.108 644.322 255.79Z" fill="#CE86C8"/>
<path d="M620.42 247.562C620.42 247.562 615.26 248.554 613.82 252.342L620.42 247.562Z" fill="#FEB1C8"/>
<path d="M597.561 269.732C597.561 269.732 579.721 276.653 572.801 292.637C572.801 292.637 574.981 254.462 577.961 238.121C577.961 238.121 584.961 251.091 598.261 262.791L597.561 269.732Z" fill="#ED90BC"/>
<path d="M554.359 194.056C554.359 194.056 583.659 181.245 606.479 168.434C606.479 168.434 590.619 186.718 566.539 194.056H554.359Z" fill="url(#paint29_linear_17_13)"/>
<path d="M557.402 192.73C557.402 192.73 563.302 152.393 580.382 136.111C597.462 119.83 632.682 140.117 632.682 140.117C632.682 140.117 597.822 121.337 580.642 137.856C563.462 154.416 557.402 192.73 557.402 192.73Z" fill="url(#paint30_linear_17_13)"/>
<path d="M554.359 194.054C554.359 194.054 558.839 147.451 580.839 131.645C602.859 115.82 624.459 124.605 624.459 124.605C624.459 124.605 595.839 113.4 577.079 132.379C554.799 154.907 554.359 194.054 554.359 194.054Z" fill="url(#paint31_linear_17_13)"/>
<path d="M551.218 203.953C551.218 203.953 549.698 214.484 555.838 223.963C555.838 223.963 529.898 245.619 540.718 319.986L529.918 327.998C529.898 328.018 533.918 247.225 551.218 203.953Z" fill="url(#paint32_linear_17_13)"/>
<path d="M652.201 188.643C652.201 188.643 662.581 179.679 660.341 164.686C658.121 149.694 645.48 150.428 645.48 150.428C645.48 150.428 661.101 162.227 652.201 188.643Z" fill="#D1729B"/>
<path d="M644.319 147.889C644.319 147.889 625.379 123.239 608.059 118.281C608.059 118.281 645.659 129.545 644.319 147.889Z" fill="#D1729B"/>
<path opacity="0.8" d="M570.52 338.805C570.52 338.805 589 364.566 603.64 377.099C618.28 389.632 636.5 391.873 636.5 391.873L570.52 338.805Z" fill="url(#paint33_linear_17_13)"/>
<path opacity="0.5" d="M497.778 348.047C497.778 348.047 484.278 349.971 481.998 366.589C479.718 383.208 494.938 397.843 494.938 397.843L505.498 398.022C505.478 398.022 481.998 352.806 497.778 348.047Z" fill="url(#paint34_linear_17_13)"/>
<path d="M600.639 307.77C600.639 307.77 602.819 323.932 591.859 327.839C591.859 327.839 600.079 330.576 602.539 322.623C604.999 314.671 602.539 308.464 602.539 308.464L600.639 307.77Z" fill="#E392AD"/>
<path d="M553.299 413.374C553.299 413.374 556.519 393.761 547.039 362.07C547.039 362.07 557.879 376.131 558.519 411.212L553.299 413.374Z" fill="url(#paint35_linear_17_13)"/>
<path d="M559.719 411.231C559.719 411.231 570.76 398.975 571.88 380.75C571.88 380.75 565.2 401.018 558.52 411.231H559.719Z" fill="url(#paint36_linear_17_13)"/>
<path d="M553.298 413.371C553.298 413.371 546.158 400.64 536.038 399.014C525.938 397.387 506.738 417.933 506.738 417.933C506.738 417.933 524.098 403.376 534.898 403.733C545.718 404.09 547.018 415.91 547.018 415.91L553.298 413.371Z" fill="url(#paint37_linear_17_13)"/>
<path d="M591.859 462.573C591.859 462.573 615.499 430.01 628.499 425.707L603.639 467.789L591.859 462.573Z" fill="url(#paint38_linear_17_13)"/>
<path d="M586.54 459.656C586.54 459.656 588.22 437.802 580.44 421.441C580.44 421.441 576.2 441.808 581.44 457.931L586.54 459.656Z" fill="url(#paint39_linear_17_13)"/>
<path d="M605.18 468.441L626.7 441.906L612.98 471.852L605.18 468.441Z" fill="url(#paint40_linear_17_13)"/>
<path d="M535.483 420.373C535.483 420.373 592.403 399.253 605.203 386.561C607.483 384.3 602.463 364.508 602.083 359.134C601.703 353.74 602.623 348.048 603.763 347.295C604.903 346.541 610.303 344.499 611.183 344.003C612.063 343.507 613.623 340.969 614.883 340.334C616.143 339.699 620.323 339.144 621.063 338.133C621.243 337.895 621.943 336.824 622.923 335.356C625.903 330.874 631.523 322.545 633.423 321.593C635.943 320.344 639.943 319.194 641.963 321.693C643.983 324.191 651.583 340.869 651.583 340.869C651.583 340.869 646.903 343.507 642.863 340.612C638.823 337.736 636.503 332.56 636.503 332.56C636.503 332.56 632.103 335.971 631.723 337.855C631.723 337.855 641.303 342.734 645.683 347.493C647.023 351.38 640.123 359.134 639.743 359.888C639.363 360.641 649.463 368.276 646.303 380.671C646.303 380.671 632.663 385.688 620.403 393.204C608.143 400.72 552.323 468.96 507.863 486.987C507.883 487.046 515.223 439.748 535.483 420.373Z" fill="url(#paint41_linear_17_13)"/>
<path d="M529.903 474.966C529.903 474.966 511.603 459.28 535.463 420.391C535.463 420.391 516.703 434.927 507.863 487.064C507.883 487.044 521.523 480.896 529.903 474.966Z" fill="#ED90BC"/>
<path d="M612.102 362.066L613.842 357.188L624.542 362.066L622.742 370.256C622.742 370.256 623.342 373.013 629.762 369.999C629.762 369.999 633.022 369.364 635.682 365.259L639.782 359.944L642.902 364.109L627.142 373.033H621.582L612.102 362.066Z" fill="#FE9DBA"/>
<path d="M651.581 340.906C651.581 340.906 648.201 331.605 644.801 332.26C641.381 332.914 644.801 340.43 644.801 340.43C644.801 340.43 647.201 342.592 651.581 340.906Z" fill="white"/>
<path d="M636.499 332.616C636.499 332.616 633.319 325.239 633.419 321.609C633.419 321.609 630.739 323.374 621.039 338.149C621.039 338.149 625.079 334.321 631.719 337.891C631.719 337.891 634.839 334.262 636.499 332.616Z" fill="#FED2DF"/>
<path d="M547.042 415.909C547.042 415.909 546.782 408.373 540.102 405.022C540.102 405.022 545.042 404.586 553.302 413.391L557.842 398.934L558.522 411.229L547.042 415.909Z" fill="#E392AD"/>
<path opacity="0.62" d="M623.959 482.761C623.959 482.761 617.139 481.829 602.539 476.554C587.959 471.299 578.479 462.831 567.679 461.899C556.879 460.967 549.879 461.899 549.879 461.899L547.859 468.939C547.859 468.939 563.519 462.652 582.759 470.743C601.979 478.815 617.719 482.761 617.719 482.761H623.959Z" fill="url(#paint42_linear_17_13)"/>
<path d="M502.62 583.265C502.62 583.265 539.1 487.46 553.3 467.47L552.56 461.659C552.56 461.659 553.3 456.682 559.26 453.707H557.2L550.2 459.656C550.2 459.656 535.42 514.728 507.78 519.309C507.78 519.309 500.52 527.955 502.62 583.265Z" fill="#E392AD"/>
<path d="M502.239 592.703C502.239 592.703 511.499 687.596 528.119 731.998H510.839C510.839 731.998 502.159 612.455 502.239 592.703Z" fill="url(#paint43_linear_17_13)"/>
<path d="M565.203 499.855L595.283 732.001H610.183C610.183 732.001 586.643 616.583 565.203 499.855Z" fill="url(#paint44_linear_17_13)"/>
<path d="M628.783 731.999C628.783 731.999 609.263 580.825 614.843 487.043C614.843 487.043 619.103 596.671 661.503 731.999H628.783Z" fill="url(#paint45_linear_17_13)"/>
<path d="M627.48 538.922C627.48 538.922 649.3 667.429 670.56 732H674.1C674.1 732 646.68 635.461 627.48 538.922Z" fill="url(#paint46_linear_17_13)"/>
<path d="M571.04 467.77C571.04 467.77 552.54 529.901 555.86 602.047C555.84 602.047 559.04 520.997 571.04 467.77Z" fill="url(#paint47_linear_17_13)"/>
<path d="M575.3 467.77C575.3 467.77 566.2 505.35 597.74 607.065C597.74 607.085 574.96 514.671 575.3 467.77Z" fill="url(#paint48_linear_17_13)"/>
<path d="M674.102 397.779C674.102 397.779 690.782 370.075 718.442 366.922C718.442 366.922 715.802 385.206 674.102 397.779Z" fill="white"/>
<path d="M727.98 373.964C727.98 373.964 741.661 371.525 751.081 363.156L750.92 366.19C750.92 366.21 745.96 370.692 727.98 373.964Z" fill="#FEB1C8"/>
<path d="M732.739 351.142C732.739 351.142 742.059 348.564 743.339 352.173C744.599 355.783 733.519 358.063 732.739 357.766C731.559 357.349 729.999 356.497 732.739 351.142Z" fill="white"/>
<path d="M727.599 368.573C727.599 368.573 725.739 370.139 726.799 373.927C726.799 373.927 735.759 372.281 736.459 368.573C737.099 365.122 727.599 368.573 727.599 368.573Z" fill="white"/>
<path d="M725.36 376.283C725.36 376.283 723.18 377.751 724.18 381.777C724.18 381.777 734.08 381.38 733.98 377.612C733.9 373.884 725.36 376.283 725.36 376.283Z" fill="white"/>
<path d="M726.882 384.872C726.882 384.872 724.341 387.252 726.101 390.604C726.101 390.604 733.321 389.295 732.721 386.003C732.141 382.711 726.882 384.872 726.882 384.872Z" fill="white"/>
<path d="M748.823 354.63L754.463 352.766L751.043 354.63L737.723 360.698C737.723 360.678 746.743 355.939 748.823 354.63Z" fill="#FEB1C8"/>
<path opacity="0.5" d="M719.922 315.601L646.523 407.42L632.062 450.712L746.083 315.383L719.922 315.601Z" fill="white"/>
<path d="M565.199 446.566C565.199 446.566 565.459 452.199 571.879 453.706C578.299 455.213 580.739 455.491 580.739 455.491L586.539 459.655C586.539 459.655 607.219 466.913 615.579 466.14L614.759 467.588C614.759 467.588 618.299 470.721 619.879 474.152C621.439 477.583 619.699 474.152 619.699 474.152L612.979 471.851C612.979 471.851 581.319 457.652 575.079 455.054C568.839 452.456 557.199 453.706 557.199 453.706L565.199 446.566Z" fill="#D190BC"/>
<path d="M622.879 449.701L637.679 421.938L628.519 452.022L631.559 454.401C631.559 454.401 636.359 457.376 683.359 453.45L676.719 461.144L670.439 466.895C670.439 466.895 651.259 479.072 643.739 467.807L642.719 465.309L626.719 463.068L622.879 449.701Z" fill="#D190BC"/>
<path d="M644.961 483.055C644.961 483.055 647.001 497.215 653.101 500.963C659.201 504.711 679.401 457.969 679.401 457.969C679.401 457.969 658.381 478.673 644.961 483.055Z" fill="#D190BC"/>
<path d="M507.88 487.043C507.88 487.043 504.92 502.472 506.74 508.679C521.68 514.371 544.72 475.68 544.72 475.68L550.2 459.656C550.2 459.656 528.02 479.131 507.88 487.043Z" fill="#D190BC"/>
<path d="M617.703 482.758C617.703 482.758 608.043 555.182 617.703 619.019C617.703 619.019 613.523 540.685 623.483 506.932L617.703 482.758Z" fill="url(#paint49_linear_17_13)"/>
<path d="M638.543 141.068C638.543 141.068 620.423 135.019 583.223 167.503C583.223 167.503 619.823 125.718 638.543 141.068Z" fill="url(#paint50_linear_17_13)"/>
<path d="M557.399 192.73L583.239 167.484C583.239 167.484 566.039 177.678 554.379 194.039L557.399 192.73Z" fill="url(#paint51_linear_17_13)"/>
<path d="M554.798 283.059C554.798 283.059 542.838 309.712 529.898 327.996C529.898 327.996 545.318 316.851 557.638 308.958L554.798 283.059Z" fill="#E392AD"/>
<path d="M621.06 313.955C621.06 313.955 623.4 306.915 629.68 306.182L627.18 301.442C627.18 301.442 618.78 298.685 618.34 309.335L621.06 313.955Z" fill="url(#paint52_linear_17_13)"/>
<path d="M613.84 357.188L625.58 361.194C625.58 361.194 630.04 360.718 632.88 358.001L619.9 350.961L633.92 357.208C633.92 357.208 638.06 356.236 640.02 352.746C640.02 352.746 634.48 347.669 629.28 344C629.28 344 636.64 347.669 640.02 351.794C640.02 351.794 644.98 351.159 645.7 347.53C647 350.088 642.96 355.8 639.76 359.925C639.76 359.925 636.02 369.265 628.8 371.129C621.58 373.013 621.08 368.591 621.08 368.591L613.84 357.188Z" fill="#FE9DBA"/>
<path d="M646.32 380.727L629.88 385.308L618.34 394.767C618.34 394.767 622.36 392.268 628.78 388.58C635.2 384.871 646.32 380.727 646.32 380.727Z" fill="#FE9DBA"/>
<path d="M641.32 362.068C641.32 362.068 647.1 368.97 648.5 372.262C648.5 372.262 649.1 365.162 649.64 362.604L644.86 354.453L641.32 362.068Z" fill="#FE9DBA"/>
<path d="M528.121 504.91C528.121 504.91 529.601 613.209 542.881 731.999H510.841C510.841 731.999 493.021 545.802 507.781 519.308C507.781 519.308 522.141 512.605 528.121 504.91Z" fill="url(#paint53_linear_17_13)"/>
<path d="M643.043 228.186C643.043 228.186 643.423 235.325 647.903 235.325C652.383 235.325 655.563 225.727 655.563 225.727C655.563 225.727 651.503 232.826 647.363 233.58C643.223 234.333 643.043 228.186 643.043 228.186Z" fill="#FEB1C8"/>
<path d="M597.941 219.262C597.941 219.262 608.481 228.642 613.841 230.506C619.201 232.37 622.041 225.707 622.041 225.707C622.041 225.707 619.881 228.404 615.841 229.078C610.581 228.424 597.941 219.262 597.941 219.262Z" fill="#FEB1C8"/>
<path opacity="0.4" d="M621.56 373.035C625.1 378.489 626.94 387.73 626.94 387.73L618.34 394.77C618.34 394.77 633.04 385.152 646.78 380.73C646.78 380.73 648.48 376.704 648.5 372.262C648.52 367.819 649.64 362.604 649.64 362.604L644.86 354.453L641.32 362.068L639.76 359.927C639.76 359.927 636.52 366.729 631.5 369.763C627.76 372.024 622.18 370.536 622.18 370.536L621.56 373.035Z" fill="#FE9DBA"/>
<path d="M614.839 174.146C609.979 176.942 618.659 168.355 591.859 165.539C565.059 162.703 565.739 140.016 567.499 137.696C569.259 135.376 566.039 134.999 566.039 134.999C566.039 134.999 568.699 130.596 573.019 127.324C573.019 127.324 568.579 133.055 568.799 145.609C569.019 158.162 590.159 165.5 608.059 165.519C625.959 165.559 629.659 161.93 629.659 161.93C629.659 161.93 619.879 171.231 614.839 174.146Z" fill="white"/>
<path d="M618.34 174.423C618.34 174.423 630.56 172.639 633.98 180.77C633.98 180.77 640.24 175.256 642.22 168.434C642.22 168.434 640.66 170.874 635.34 171.072C630.02 171.25 631.32 164.508 631.32 164.508C631.32 164.508 625.2 171.092 618.34 174.423Z" fill="white"/>
<path d="M658.703 179.718C658.703 179.718 663.123 177.219 665.343 176.584C667.543 175.95 668.443 178.151 668.443 178.151C668.443 178.151 672.283 172.499 673.443 169.524C673.443 169.524 674.103 171.825 668.923 172.638C663.743 173.451 660.823 168.434 660.823 168.434C660.823 168.434 661.083 175.831 658.703 179.718Z" fill="white"/>
<path d="M84.42 559.328L89.22 615.689C89.22 615.689 74.44 627.707 63.08 627.707C63.08 627.707 59.54 604.425 84.42 559.328Z" fill="#4B81EE"/>
<path d="M531.8 714.925C531.8 714.925 503.9 717.603 476.6 711.971C449.32 706.338 428 694.995 428 694.995L424.18 671.316C424.18 671.316 452.02 639.844 484.84 654.281C517.66 668.679 531.8 714.925 531.8 714.925Z" fill="#4B81EE"/>
<path d="M269.6 248.968C234.96 254.422 218.06 282.602 217.3 297.853C216.54 313.103 228.42 371.09 232.46 386.677C236.5 402.265 266.06 418.566 276.42 421.065C286.78 423.563 297.14 421.283 305.72 417.297C314.3 413.311 334.78 395.938 339.06 380.569C343.36 365.2 344.62 293.807 339.06 276.018C333.52 258.23 298.02 244.486 269.6 248.968Z" fill="url(#paint54_linear_17_13)"/>
<path d="M258 412.578L259.76 478.914C259.76 478.914 267.4 523.832 291.1 525.319C320.78 527.203 324.2 475.106 324.2 475.106L319.54 407.422C319.54 407.422 302.32 422.077 286.6 422.057C270.86 422.057 258 412.578 258 412.578Z" fill="url(#paint55_linear_17_13)"/>
<path d="M222.058 297.831C222.058 297.831 228.978 267.906 269.518 265.586C310.058 263.265 325.878 276.632 331.238 286.171C336.598 295.709 343.338 312.07 343.338 312.07L341.458 266.438L315.918 254.599C315.918 254.599 262.358 249.74 242.898 259.2C223.478 268.679 221.558 281.808 222.058 297.831Z" fill="url(#paint56_linear_17_13)"/>
<path d="M342.777 327.603C342.777 327.603 347.477 322.228 356.377 322.109C356.377 322.109 362.057 326.75 358.457 338.589C355.277 349.02 347.277 362.645 345.757 366.016C344.237 369.407 340.797 370.101 340.797 370.101C340.797 370.101 342.897 341.802 342.777 327.603Z" fill="url(#paint57_linear_17_13)"/>
<path d="M222.079 336.542C222.079 336.542 215.979 331.684 209.359 336.542C209.359 336.542 210.719 345.724 215.719 357.742C220.719 369.76 223.379 378.01 230.379 377.93L222.079 336.542Z" fill="url(#paint58_linear_17_13)"/>
<path d="M342.797 340.827C342.797 340.827 351.057 332.2 355.357 331.347C359.657 330.494 356.577 342.671 353.937 349.017C351.297 355.363 350.997 355.958 350.997 355.958C350.997 355.958 356.297 340.549 354.697 337.078C353.077 333.608 350.357 335.115 350.257 336.523C350.157 337.931 353.097 345.447 349.017 352.864C344.937 360.281 344.477 362.165 343.337 358.318C342.197 354.471 345.697 348.164 345.797 344.515C345.857 340.827 342.797 340.827 342.797 340.827Z" fill="url(#paint59_linear_17_13)"/>
<path d="M224.24 347.312C224.24 347.312 217.32 342.077 214.68 343.465C212.02 344.833 215.3 357.684 221.24 368.075C221.24 368.075 215.1 353.797 217.28 350.406C219.46 347.015 224.32 352.904 222.06 353.162C215.18 353.955 218.8 363.693 224.26 367.56C229.72 371.427 223.4 364.545 222.38 358.418C221.36 352.29 225.04 352.528 225.04 352.528L224.24 347.312Z" fill="url(#paint60_linear_17_13)"/>
<path d="M246.719 252.578C246.719 252.578 259.639 219.955 288.819 214.641C288.819 214.641 278.059 218.071 266.139 229.613C262.059 233.58 252.959 248.116 252.959 248.116C252.959 248.116 283.459 215.91 303.739 217.596C324.019 219.281 324.579 248.592 333.859 253.47C343.139 258.349 345.679 268.503 345.679 268.503C345.679 268.503 353.759 278.279 353.259 288.552C352.759 298.825 342.819 334.382 342.819 334.382C342.819 334.382 345.419 301.323 336.339 288.036C336.339 288.036 333.299 269.811 320.239 262.494C320.239 262.494 302.619 264.397 275.339 261.205C248.059 258.012 239.159 264.378 239.159 264.378C239.159 264.378 222.299 277.724 222.479 294.244C222.479 294.244 216.119 306.559 222.739 339.538C222.739 339.538 207.519 305.825 207.759 292.042C208.019 278.26 222.279 264.735 222.279 264.735C222.279 264.735 210.459 271.041 203.719 279.39C203.719 279.39 194.339 262.176 238.399 257.972C240.739 257.754 244.399 255.731 246.719 252.578Z" fill="url(#paint61_linear_17_13)"/>
<path d="M259.117 455.373C259.117 455.373 237.197 480.043 219.857 490.951C202.517 501.858 189.637 507.292 189.637 507.292C189.637 507.292 185.717 643.116 203.897 714.152H384.397C384.397 714.152 399.557 544.634 390.077 500.708C390.077 500.708 342.477 480.222 322.697 454.203L323.577 477.802C323.577 477.802 315.737 515.224 291.057 517.068C268.257 518.774 259.577 473.32 259.577 473.32L259.117 455.373Z" fill="url(#paint62_linear_17_13)"/>
<path d="M258.919 447.181L250.279 445.277C250.279 445.277 237.399 467.052 217.279 483.611C202.039 496.144 188.899 493.189 165.199 507.289C165.199 507.289 191.179 576.124 189.299 637.244C189.299 637.244 193.439 676.946 199.879 714.15L393.219 713.02C393.219 713.02 405.759 665.385 406.519 619.872C406.519 619.872 416.619 533.368 437.459 500.705C409.799 487.577 389.339 488.331 365.839 477.443C342.339 466.556 326.419 439.367 326.419 439.367L321.679 441.568L322.699 454.221C322.699 454.221 338.739 472.208 345.359 489.223C353.439 510.006 330.199 714.17 330.199 714.17L256.679 713.039C256.679 713.039 237.359 510.125 239.999 490.968C242.659 471.811 259.079 455.391 259.079 455.391L258.919 447.181Z" fill="url(#paint63_linear_17_13)"/>
<path d="M165.2 507.293V530.535L129.02 589.771C129.02 589.771 120.5 564.784 120.12 560.084C119.74 555.384 120.12 547.114 120.12 547.114L114.44 542.613L115.38 551.061C115.38 551.061 118.42 601.789 63.0795 624.714C63.0795 624.714 66.9995 588.899 84.4195 559.33L83.6595 555.582C83.6595 555.582 64.1995 583.386 58.5195 630.366L75.5795 638.259C75.5795 638.259 92.6395 687.004 115 714.709L139.94 714.947C139.94 714.947 177.34 682.423 194.2 632.111C194.2 632.091 202.54 570.595 165.2 507.293Z" fill="url(#paint64_linear_17_13)"/>
<path d="M159.46 392.745C159.46 392.745 140.52 421.302 136.98 431.833C133.44 442.343 136.22 461.897 133.18 466.399C133.18 466.399 113.74 483.176 111.46 488.451C109.18 493.707 111.46 521.014 111.46 521.014C103.76 535.471 85.4395 539.973 85.4395 539.973C85.4395 539.973 83.7395 493.211 83.1595 492.08C82.5995 490.95 71.7595 484.108 71.7595 484.108C69.0395 477.723 66.8395 470.841 65.0795 464.138C62.9795 456.166 61.4995 448.471 60.4995 442.145V442.125C59.0395 433.082 58.5395 426.875 58.5395 426.875L57.0195 408.273C59.6595 396.255 66.7395 398.139 66.7395 398.139C67.7595 409.542 70.7795 419.438 70.7795 419.438L71.9195 418.685C69.8995 409.404 69.1395 395.502 69.1395 395.502C72.6795 385.368 81.3995 388.125 81.3995 388.125C83.5395 400.4 86.3195 412.795 86.3195 412.795C83.9195 396.89 85.5595 372.081 85.5595 372.081C88.8395 379.478 98.3195 380.609 98.3195 380.609C96.4195 389.235 98.3195 407.44 98.3195 407.44L100.34 406.27C101.04 397.485 102.38 388.065 103.94 379.062C107.5 358.774 112.3 340.529 114.04 336.028C116.58 329.503 123.14 334.699 123.14 334.699C125.82 347.113 127.14 356.375 125.74 362.978C125.74 362.978 125.76 362.959 125.74 362.978C123.58 373.112 117.26 377.098 117.26 377.098C117.26 377.098 112.72 400.757 113.1 404.704C113.48 408.65 115.56 434.768 115.56 434.768C125.98 429.136 128.82 421.243 128.82 421.243C129.02 404.327 136.4 395.125 145.88 391.179C155.36 387.232 159.46 392.745 159.46 392.745Z" fill="url(#paint65_linear_17_13)"/>
<path d="M231.881 335.098L231.141 337.537C231.141 337.537 246.241 341.364 259.341 332.777L231.881 335.098Z" fill="#FEB1C8"/>
<path d="M84.9799 527.997C84.9799 527.997 77.3598 536.168 76.3398 542.692C76.3398 542.692 81.2598 554.849 84.4198 559.35L86.4998 611.031C86.4998 611.031 116.5 589.791 115.36 551.081C115.36 551.081 113.34 524.963 115.4 517.645L111.08 515.801L111.46 521.036C111.46 521.036 98.6999 537 85.4398 540.015L84.9799 527.997Z" fill="url(#paint66_linear_17_13)"/>
<path d="M437.48 500.688V521.372C437.48 521.372 504.88 626.2 526.18 691.346L531.8 714.925C531.8 714.925 492.42 657.771 461.74 660.786C431.04 663.78 428 681.827 428 681.827L430.28 691.227L428 694.975L421.56 666.418H415.88V661.916L405.4 641.192C405.4 641.192 400.72 546.002 437.48 500.688Z" fill="url(#paint67_linear_17_13)"/>
<path d="M287.598 292.557C287.598 292.557 289.018 282.224 293.278 279.785L287.598 292.557Z" fill="url(#paint68_linear_17_13)"/>
<path d="M296.797 328.211C296.797 328.211 311.757 331.503 325.977 324.84L323.977 322.5C323.977 322.5 318.017 328.449 296.797 328.211Z" fill="#FEB1C8"/>
<path d="M226.438 306.817C216.078 314.888 227.418 345.765 227.418 345.765C227.418 345.765 252.558 351.1 266.378 335.096V315.443C266.378 315.443 270.318 309.216 284.698 309.672C284.698 309.672 289.838 328.631 293.498 337.079C293.498 337.079 319.358 343.604 333.018 326.707C333.018 326.707 334.138 307.947 327.838 298.924C321.538 289.881 287.598 292.558 287.598 292.558C287.598 292.558 279.658 298.924 258.798 297.416C258.798 297.436 233.178 301.561 226.438 306.817Z" fill="url(#paint69_linear_17_13)"/>
<path d="M259.341 330.056C259.341 330.056 255.921 316.015 245.241 315.46C234.541 314.905 232.621 330.056 232.621 330.056H259.341Z" fill="url(#paint70_linear_17_13)"/>
<path d="M294.899 324.843C294.899 324.843 294.619 308.522 305.599 305.686C316.579 302.87 321.279 315.82 321.279 315.82L294.899 324.843Z" fill="url(#paint71_linear_17_13)"/>
<path d="M323.219 324.863C322.279 325.656 319.739 326.37 316.539 326.965C312.099 327.778 306.379 328.353 301.959 328.432C298.159 328.512 295.299 328.234 294.999 327.5C293.859 324.684 297.259 313.598 307.819 311.516C318.359 309.454 326.639 322.047 323.219 324.863Z" fill="#FFE4EC"/>
<path d="M259.821 332.22C259.681 332.795 258.361 333.49 256.341 334.164C252.301 335.532 245.501 336.861 239.921 337.099C237.641 337.198 235.561 337.119 233.961 336.782C228.601 335.631 232.481 324.03 242.341 321.531C243.641 321.194 244.921 321.095 246.161 321.174C246.181 321.194 246.201 321.194 246.221 321.174C249.421 321.392 252.341 322.8 254.641 324.565C254.681 324.585 254.721 324.625 254.741 324.665C258.141 327.322 260.181 330.773 259.821 332.22Z" fill="#FFE4EC"/>
<path d="M270.939 360.242C270.939 360.242 263.359 360.738 261.079 357.922C258.799 355.106 262.779 353.817 269.039 349.017C275.299 344.218 281.739 345.725 287.599 348.165C293.479 350.604 298.219 350.961 298.879 353.083C299.539 355.205 291.499 357.743 289.319 357.644C287.139 357.545 286.279 356.89 284.099 358.199C281.919 359.508 277.459 360.262 275.099 359.806C272.739 359.33 270.939 360.242 270.939 360.242Z" fill="#FEB1C8"/>
<path d="M284.098 358.2C284.098 358.2 285.338 355.681 287.978 355.959C290.638 356.237 293.498 356.772 293.498 356.772C293.498 356.772 289.018 359.33 284.098 358.2Z" fill="#D1A1C8"/>
<path d="M274.579 359.726C274.579 359.726 273.379 357.347 270.639 357.208C267.899 357.069 266.379 360.083 266.379 360.083C266.379 360.083 269.699 360.777 270.919 360.242C272.159 359.707 274.579 359.726 274.579 359.726Z" fill="#D1A1C8"/>
<path d="M288.797 341.64C288.797 341.64 299.217 340.569 298.877 353.063C298.877 353.083 298.517 343.663 288.797 341.64Z" fill="url(#paint72_linear_17_13)"/>
<path d="M318.339 321.412C318.339 323.474 317.679 325.398 316.539 326.965C312.099 327.778 306.379 328.353 301.959 328.432C300.059 326.667 298.879 324.168 298.879 321.412C298.879 316.077 303.239 311.754 308.619 311.754C313.979 311.754 318.339 316.077 318.339 321.412Z" fill="#7F6186"/>
<path d="M256.96 330.791C256.96 331.981 256.74 333.111 256.34 334.162C252.3 335.53 245.5 336.859 239.92 337.097C238.4 335.411 237.5 333.21 237.5 330.791C237.5 325.813 241.3 321.708 246.16 321.172C246.18 321.192 246.2 321.192 246.22 321.172C246.56 321.153 246.88 321.133 247.22 321.133C250.2 321.133 252.88 322.462 254.64 324.564C254.68 324.583 254.72 324.623 254.74 324.663C256.14 326.309 256.96 328.451 256.96 330.791Z" fill="#7F6186"/>
<path d="M294.898 324.843C294.898 324.843 298.078 313.063 308.738 311.992C318.858 310.961 323.178 319.865 323.178 319.865C323.178 319.865 320.518 310.207 311.418 309.712C302.318 309.196 296.578 317.069 294.898 324.843Z" fill="#6C2A51"/>
<path d="M258.98 329.367C258.98 329.367 252.26 320.125 242.62 322.327C232.98 324.528 231.52 333.174 231.52 333.174C231.52 333.174 232.44 323.06 241.76 320.244C252 317.151 258.98 329.367 258.98 329.367Z" fill="#6C2A51"/>
<path d="M256.957 377.018C256.957 377.018 263.537 379.655 281.477 377.93C299.417 376.225 309.397 362.938 309.397 362.938C309.397 362.938 296.097 381.044 285.137 382.293C274.177 383.542 269.677 380.449 264.177 378.961C258.677 377.494 256.957 377.018 256.957 377.018Z" fill="#BF7988"/>
<path d="M273.781 379.102C273.781 379.102 279.341 383.207 285.441 381.601C291.541 379.995 295.661 374.66 295.661 374.66C295.661 374.66 286.001 378.944 273.781 379.102Z" fill="#FFE4EC"/>
<path d="M304.84 361.69C304.84 361.69 312.42 361.075 316.4 368.71C316.4 368.71 317.74 358.675 304.84 361.69Z" fill="url(#paint73_linear_17_13)"/>
<path d="M278.039 386.817C278.039 386.817 287.659 388.463 295.639 383.664C295.639 383.664 293.139 392.687 287.259 393.243C281.399 393.818 278.039 386.817 278.039 386.817Z" fill="url(#paint74_linear_17_13)"/>
<path d="M313.7 321.135C313.7 323.931 311.42 326.192 308.6 326.192C305.78 326.192 303.5 323.931 303.5 321.135C303.5 318.339 305.78 316.078 308.6 316.078C311.42 316.078 313.7 318.339 313.7 321.135Z" fill="url(#paint75_linear_17_13)"/>
<path d="M252.317 330.061C252.317 332.857 250.037 335.118 247.217 335.118C244.397 335.118 242.117 332.857 242.117 330.061C242.117 327.265 244.397 325.004 247.217 325.004C250.037 325.004 252.317 327.285 252.317 330.061Z" fill="url(#paint76_linear_17_13)"/>
<path d="M312.801 320.083C312.801 320.083 317.361 317.941 320.281 321.392L312.801 320.083Z" fill="white"/>
<path d="M250.379 329.028C250.379 329.028 254.639 327.124 257.859 329.563L250.379 329.028Z" fill="white"/>
<path d="M231.141 381.244C237.481 395.84 249.321 408.849 266.381 414.045C276.701 417.198 301.741 413.787 313.701 407.441C335.921 395.642 340.221 374.66 340.221 374.66C340.221 374.66 341.621 387.055 319.501 407.441L320.281 436.375C320.281 436.375 296.481 452.637 285.681 456.901C274.901 461.164 258.581 435.106 258.581 435.106L257.981 412.597C258.001 412.578 236.901 402.305 231.141 381.244Z" fill="#E392AD"/>
<path d="M287.801 292.537C287.801 292.537 291.841 280.063 302.701 279.785L290.061 290.653C290.061 290.653 301.301 281.887 311.921 283.771C311.921 283.771 322.401 286.905 327.841 298.922C327.841 298.942 310.021 291.168 287.801 292.537Z" fill="url(#paint77_linear_17_13)"/>
<path d="M258.801 297.437C258.801 297.437 257.861 288.473 251.661 285.32L257.241 295.097C257.241 295.097 252.261 289.644 248.961 288.811C245.641 287.958 232.841 292.698 226.441 306.837C226.441 306.817 242.581 299.995 258.801 297.437Z" fill="url(#paint78_linear_17_13)"/>
<path d="M255.48 260.472C264.56 258.984 283.44 227.909 302.46 225.41C321.48 222.911 326.72 254.542 323.2 259.044C319.66 263.546 298.94 262.931 298.94 262.931C298.94 262.931 273.76 261.622 266.02 260.412C258.28 259.202 255.48 260.472 255.48 260.472Z" fill="#E392AD"/>
<path d="M324.199 265.309C324.199 265.309 338.559 271.04 345.899 279.785C353.219 288.531 351.119 301.283 351.119 301.283L348.699 311.734C348.699 311.754 352.779 279.428 324.199 265.309Z" fill="url(#paint79_linear_17_13)"/>
<path d="M236.742 266.461C236.742 266.461 205.662 281.176 211.742 311.3L215.282 321.414C215.262 321.414 208.662 288.216 236.742 266.461Z" fill="url(#paint80_linear_17_13)"/>
<path d="M239.099 264.359C239.099 264.359 219.339 267.85 209.359 283.814C209.359 283.834 216.679 265.49 239.099 264.359Z" fill="url(#paint81_linear_17_13)"/>
<path d="M257.859 259.56C257.859 259.56 272.939 243.278 295.639 245.935C318.359 248.593 323.179 265.33 323.179 265.33C323.179 265.33 320.679 240.819 298.879 236.952C277.079 233.065 257.859 259.56 257.859 259.56Z" fill="url(#paint82_linear_17_13)"/>
<path d="M334.18 254.621C334.18 254.621 354.44 260.908 355.3 278.3C355.3 278.3 360.96 259.004 334.18 254.621Z" fill="url(#paint83_linear_17_13)"/>
<path d="M267.899 344.396C265.939 347.47 274.919 343.88 281.539 344.396C288.179 344.912 287.599 345.745 287.799 344.337C287.979 342.929 282.879 336.741 276.999 337.673C271.119 338.625 268.939 342.77 267.899 344.396Z" fill="#E7ECFF"/>
<path d="M275.101 359.808C275.101 359.808 269.941 357.805 267.621 350.785L263.961 352.649C263.961 352.649 266.821 358.44 275.101 359.808Z" fill="url(#paint84_linear_17_13)"/>
<path d="M263.858 312.588C261.178 308.046 236.538 306.262 221.938 320.758C215.858 326.807 221.898 350.426 230.898 356.693C239.898 362.94 256.878 359.37 262.598 346.182C268.338 332.994 266.538 317.129 263.858 312.588ZM239.298 356.693C226.078 356.058 217.398 334.283 223.618 324.328C231.478 311.735 257.258 308.344 260.278 316.534C272.818 350.604 249.698 357.188 239.298 356.693Z" fill="#FFB8CB"/>
<path d="M288.457 307.849C290.437 302.812 316.957 293.491 334.737 304.616C342.137 309.257 339.817 335.454 330.617 344.1C322.257 351.973 304.157 352.271 295.817 340.551C287.477 328.83 286.477 312.886 288.457 307.849ZM321.877 345.905C335.497 342.454 341.857 316.912 333.617 308.483C323.197 297.814 294.537 302.276 292.877 310.962C285.997 347.075 311.177 348.622 321.877 345.905Z" fill="#FFB8CB"/>
<path d="M263.858 311.754C261.178 307.49 236.538 305.824 221.938 319.409C215.858 325.08 221.898 347.212 230.898 353.062C239.898 358.913 256.878 355.581 262.598 343.226C268.338 330.871 266.538 316.017 263.858 311.754ZM239.298 353.082C226.078 352.487 217.398 332.081 223.618 322.76C231.478 310.96 257.258 307.787 260.278 315.462C272.818 347.371 249.698 353.538 239.298 353.082Z" fill="url(#paint85_linear_17_13)"/>
<path d="M288.457 307.312C290.437 302.592 316.957 293.866 334.737 304.298C342.137 308.641 339.817 333.192 330.617 341.303C322.257 348.68 304.157 348.958 295.817 337.971C287.477 326.985 286.477 312.032 288.457 307.312ZM321.877 342.969C335.497 339.736 341.857 315.8 333.617 307.907C323.197 297.892 294.537 302.096 292.877 310.227C285.997 344.079 311.177 345.507 321.877 342.969Z" fill="url(#paint86_linear_17_13)"/>
<path d="M265.362 318.379C265.362 318.379 278.562 313.123 289.442 317.268L288.702 311.755C288.702 311.755 277.682 307.471 264.922 314.194L265.362 318.379Z" fill="url(#paint87_linear_17_13)"/>
<path d="M341.48 315.444L345.32 325.003L350.14 323.139L343.7 305.707L341.48 315.444Z" fill="url(#paint88_linear_17_13)"/>
<path d="M219.86 324.844L214.84 326.45L216.36 332.181L220.1 333.173L219.86 324.844Z" fill="#5143A1"/>
<path d="M344.161 315.067L339.101 315.92L336.801 306.381L343.701 305.707L344.161 315.067Z" fill="#5143A1"/>
<path d="M293.5 319.406C293.5 319.406 291.7 334.379 305.78 341.617C305.78 341.617 314.36 343.957 323.98 340.824L315.82 318.375L293.5 319.406Z" fill="#5CF1FF"/>
<path d="M224.302 328.531C224.302 328.531 222.842 343.504 234.362 350.742C234.362 350.742 241.382 353.082 249.262 349.949L242.582 327.5L224.302 328.531Z" fill="#5CF1FF"/>
<path d="M266.357 326.57C266.357 326.57 275.817 318.379 288.357 323.655L287.077 319.51C287.077 319.51 276.477 314.136 266.137 321.632L266.357 326.57Z" fill="#FEB1C8"/>
<path d="M341.377 361.691C341.377 361.691 344.897 362.504 345.797 364.924C346.717 367.343 340.797 370.1 340.797 370.1L341.377 361.691Z" fill="#FEB1C8"/>
<path d="M228.659 370.098C228.659 370.098 224.719 374.441 225.239 376.027C225.779 377.614 230.379 377.931 230.379 377.931L228.659 370.098Z" fill="#FEB1C8"/>
<path d="M257.859 259.561C257.859 259.561 270.519 255.118 287.799 259.481C305.079 263.844 295.639 273.621 295.639 273.621C295.639 273.621 290.319 253.869 257.859 259.561Z" fill="url(#paint89_linear_17_13)"/>
<path d="M298.918 217.576C298.918 217.576 304.218 220.134 301.698 225.528C301.698 225.528 306.878 223.902 312.558 227.73C312.558 227.73 310.218 224.418 307.258 223.466C304.298 222.534 304.038 217.576 304.038 217.576C304.038 217.576 301.458 216.922 298.918 217.576Z" fill="white"/>
<path d="M299.677 237.09C301.537 238.815 296.457 246.034 296.457 246.034L305.077 248.116C305.077 248.116 302.017 245.181 302.297 242.603C302.577 240.045 305.737 239.053 305.737 239.053L299.677 237.09Z" fill="white"/>
<path d="M250.301 466.4C250.301 466.4 254.181 525.477 290.461 527.758C330.941 530.296 333.101 480.421 328.061 460.371C335.561 490.554 328.921 528.452 291.281 529.265C252.661 530.098 250.301 466.4 250.301 466.4Z" fill="#E392AD"/>
<path d="M259.117 455.371C259.117 455.371 257.977 511.434 291.697 510.363C324.157 509.332 323.197 467.349 323.197 467.349L323.577 477.78C323.577 477.78 314.157 520.894 288.777 517.046C263.417 513.239 257.997 470.661 259.117 455.371Z" fill="#E392AD"/>
<path d="M260.441 413.984C260.441 413.984 279.761 489.105 284.101 493.211C288.461 497.316 276.421 421.044 276.421 421.044L260.441 413.984Z" fill="url(#paint90_linear_17_13)"/>
<path d="M321.722 441.529L324.222 439.328C324.222 439.328 341.622 468.54 347.682 485.753C353.742 502.967 334.702 714.131 334.702 714.131L313.582 713.476C313.582 713.476 336.222 589.055 340.262 539.972C344.302 490.89 322.742 454.182 322.742 454.182L321.722 441.529Z" fill="#E392AD"/>
<path d="M272.741 713.718C272.741 713.718 242.701 518.419 244.601 493.233C246.501 468.028 259.141 455.375 259.141 455.375L258.921 447.185L250.281 445.281C250.281 445.281 238.541 476.654 236.641 493.372C234.741 510.09 250.301 713.698 250.301 713.698H272.741V713.718Z" fill="#E392AD"/>
<path d="M222.058 478.911C222.058 478.911 202.898 500.21 187.738 514.25C187.738 514.25 191.518 523.769 211.738 527.28L194.978 546.06C194.978 546.06 211.998 649.758 233.218 714.388L250.278 713.714C250.278 713.714 235.098 517.622 236.618 493.388C238.138 469.154 250.258 445.297 250.258 445.297C250.258 445.297 237.618 462.213 222.058 478.911Z" fill="url(#paint91_linear_17_13)"/>
<path d="M326.441 439.348C326.441 439.348 348.001 472.962 372.261 480.141L399.201 513.735C399.201 513.735 399.021 525.019 369.841 530.79L388.341 552.565C388.341 552.565 376.201 647.775 348.861 713.278L334.681 714.15C334.681 714.15 355.341 519.784 348.341 489.342C341.361 458.882 326.441 439.348 326.441 439.348Z" fill="url(#paint92_linear_17_13)"/>
<path d="M250.379 478.914C250.379 478.914 249.299 546.063 284.719 587.649L250.379 478.914Z" fill="url(#paint93_linear_17_13)"/>
<path d="M336.797 485.496C336.797 485.496 344.717 534.38 296.797 564.524C296.797 564.524 329.197 530.652 336.797 485.496Z" fill="url(#paint94_linear_17_13)"/>
<path d="M76.3398 573.23L81.8598 614.499C81.8598 614.499 114.74 597.147 115.36 551.059C115.36 551.059 110.94 582.114 87.1998 596.909L84.4198 559.328L82.8598 556.77L76.3398 573.23Z" fill="#E392AD"/>
<path d="M85.4394 539.971L77.8594 541.657C77.8594 541.657 79.3794 536.144 85.0594 529.996L85.4394 539.971Z" fill="#E392AD"/>
<path d="M124.06 362.977C121.9 373.11 117.26 377.096 117.26 377.096C117.26 377.096 112.72 400.755 113.1 404.702C95.2995 408.152 70.5395 421.063 65.2195 428.063C60.3395 434.508 64.3195 459.595 64.9795 463.601L60.4995 442.143V442.123C59.0395 433.08 58.5395 426.873 58.5395 426.873L57.0195 408.271C59.6595 396.254 66.7395 398.137 66.7395 398.137C67.7595 409.541 70.7795 419.436 70.7795 419.436L71.9195 418.683C69.8995 409.402 69.1395 395.5 69.1395 395.5C72.6795 385.366 81.3995 388.123 81.3995 388.123C83.5395 400.398 86.3195 412.793 86.3195 412.793C83.9195 396.888 85.5595 372.079 85.5595 372.079C88.8395 379.476 98.3195 380.607 98.3195 380.607C96.4195 389.233 98.3195 407.438 98.3195 407.438L100.34 406.268C101.04 397.483 102.38 388.063 103.94 379.06C117.72 376.264 123.7 363.75 124.06 362.977Z" fill="url(#paint95_linear_17_13)"/>
<path d="M85.5586 372.08L121.819 353.082C121.819 353.082 134.099 376.225 98.3186 380.608C98.3186 380.588 87.1986 383.047 85.5586 372.08Z" fill="url(#paint96_linear_17_13)"/>
<path d="M73.1409 389.016L98.1409 372.18C98.1409 372.18 103.821 380.192 98.8209 387.569C94.5209 393.935 80.4409 400.023 69.3209 397.564C69.3209 397.603 67.8809 393.122 73.1409 389.016Z" fill="url(#paint97_linear_17_13)"/>
<path d="M66.041 397.764L88.141 396.078C88.141 396.078 89.001 407.977 77.601 409.425C65.381 410.971 57.641 407.085 57.641 407.085C57.641 407.085 56.581 398.478 66.041 397.764Z" fill="url(#paint98_linear_17_13)"/>
<path d="M108.98 359.805C103.92 362.462 112.06 361.689 116.04 359.805C116.04 359.805 118.02 355.263 121.82 353.082L108.98 359.805Z" fill="white"/>
<path d="M98.1399 372.203C98.1399 372.203 90.8799 376.903 89.7399 381.405C89.7399 381.405 80.1399 386.303 82.6599 383.11C85.1799 379.898 98.1399 372.203 98.1399 372.203Z" fill="white"/>
<path d="M88.14 396.057C88.14 396.057 83.54 395.442 79.94 400.796C79.94 400.796 71.32 401.312 72.86 398.595C74.4 395.878 88.14 396.057 88.14 396.057Z" fill="white"/>
<path d="M133.182 466.398C133.182 466.398 107.662 481.669 101.342 489.185C95.0217 496.701 93.7617 498.961 93.7617 498.961L111.442 488.431C111.462 488.431 118.782 480.181 133.182 466.398Z" fill="url(#paint99_linear_17_13)"/>
<path d="M115.56 434.77C115.56 434.77 93.26 438.598 92 464.14C92 464.14 91.88 427.809 115.4 432.846L115.56 434.77Z" fill="url(#paint100_linear_17_13)"/>
<path opacity="0.5" d="M128.822 421.246C130.402 425.827 146.142 414.008 146.142 414.008C146.142 414.008 133.922 430.448 135.002 446.611C135.002 446.611 131.602 436.477 122.802 435.346C113.982 434.216 105.582 438.995 105.582 438.995C105.582 438.995 110.322 436.1 115.562 434.791C115.562 434.771 125.462 429.06 128.822 421.246Z" fill="url(#paint101_linear_17_13)"/>
<path d="M85.1797 534.283C85.1797 534.283 100.46 532.399 111.46 521.016C111.46 521.016 101.1 535.413 85.4397 539.994L85.1797 534.283Z" fill="#FEB1C8"/>
<path opacity="0.8" d="M165.199 530.515C165.199 530.515 184.019 570.971 189.299 615.691C189.299 615.691 193.059 548.423 165.199 507.293V530.515Z" fill="url(#paint102_linear_17_13)"/>
<path opacity="0.8" d="M129.02 589.77C129.02 589.77 153.28 619.835 154.78 655.154C154.78 655.154 162.36 601.431 130.32 587.648L129.02 589.77Z" fill="url(#paint103_linear_17_13)"/>
<path opacity="0.8" d="M58.5391 630.345C58.5391 630.345 91.6391 625.844 111.459 591.258C111.459 591.258 106.659 631.079 75.5791 638.218L58.5391 630.345Z" fill="url(#paint104_linear_17_13)"/>
<path opacity="0.8" d="M120.121 560.082C120.121 560.082 127.881 608.55 133.201 645C138.501 681.45 136.241 686.328 136.241 686.328C136.241 686.328 138.861 666.259 135.101 629.551C131.321 592.863 120.121 560.082 120.121 560.082Z" fill="url(#paint105_linear_17_13)"/>
<path d="M189.298 637.227L187.758 602.324C187.758 602.324 198.858 688.095 220.098 714.014L226.918 709.632C226.918 709.632 216.938 660.45 208.158 615.691L233.238 714.391L199.898 714.133C199.878 714.133 191.858 660.787 189.298 637.227Z" fill="#E392AD"/>
<path opacity="0.8" d="M437.478 500.688C437.478 500.688 412.198 536.166 408.738 579.497C408.738 579.497 418.138 540.905 437.478 521.372V500.688Z" fill="url(#paint106_linear_17_13)"/>
<path opacity="0.8" d="M425.742 560.082C425.742 560.082 429.522 628.084 421.582 666.418H415.902C415.882 666.418 431.422 615.312 425.742 560.082Z" fill="url(#paint107_linear_17_13)"/>
<path opacity="0.8" d="M405.398 641.19L408.738 596.906C408.738 596.906 396.538 685.017 377.598 713.098L393.218 712.999C393.218 713.019 403.838 673.792 405.398 641.19Z" fill="url(#paint108_linear_17_13)"/>
<path opacity="0.8" d="M423.122 673.299C423.122 673.299 433.062 652.714 450.242 649.105C467.422 645.495 501.142 655.014 501.142 655.014C501.142 655.014 492.182 632.486 465.902 635.5C439.622 638.515 435.582 651.405 430.402 659.179C425.222 666.953 421.922 668.083 421.922 668.083L423.122 673.299Z" fill="url(#paint109_linear_17_13)"/>
<path opacity="0.8" d="M436.219 658.784C436.219 658.784 449.239 648.888 472.099 652.141C494.959 655.393 500.139 660.033 500.139 660.033C500.139 660.033 465.139 647.262 436.219 658.784Z" fill="url(#paint110_linear_17_13)"/>
<path d="M412.76 655.753C412.76 655.753 426.58 601.792 418 552.57C418 552.57 404.76 564.866 405.38 641.197L412.76 655.753Z" fill="url(#paint111_linear_17_13)"/>
<path d="M356.38 713.1C356.38 713.1 380.46 632.446 380.16 564.523C380.16 564.523 372.4 649.659 348.84 713.278L356.38 713.1Z" fill="#E392AD"/>
<path d="M442.781 666.418L445.441 686.151C445.441 686.151 470.941 689.8 471.261 689.284C471.581 688.768 471.261 663.027 471.261 663.027L442.781 666.418Z" fill="url(#paint112_linear_17_13)"/>
<path d="M471.461 656.781C435.841 651.268 423.461 674.828 423.461 674.828L428.001 694.996C470.381 720.995 531.801 714.947 531.801 714.947C531.801 714.947 507.081 662.294 471.461 656.781ZM430.281 691.228L428.761 678.834C428.761 678.834 432.661 657.932 468.181 660.946C495.981 663.306 524.461 709.81 524.461 709.81C469.321 718.913 430.281 691.228 430.281 691.228Z" fill="url(#paint113_linear_17_13)"/>
<path d="M431.717 689.281C431.717 689.281 409.497 699.475 405.197 703.243C405.197 703.243 403.997 707.764 405.197 710.858C406.397 713.951 414.917 713.951 420.037 712.266C425.157 710.58 432.737 696.678 432.737 696.678L431.717 689.281Z" fill="url(#paint114_linear_17_13)"/>
<path d="M419.359 715.165C419.359 715.165 425.979 685.418 447.459 676.157C468.939 666.896 497.259 694.362 498.519 715.661L419.359 715.165Z" fill="url(#paint115_linear_17_13)"/>
<path d="M422.34 705.921H447.08C447.08 705.921 450.76 685.078 457.44 674.687C457.44 674.687 434.6 673.398 422.34 705.921Z" fill="#E392AD"/>
<path d="M432.559 687.834C432.559 687.834 443.059 683.748 457.099 687.08C471.139 690.431 491.459 710.996 493.219 711.889C494.959 712.761 498.059 713.277 498.059 713.277C498.059 713.277 492.439 683.768 469.339 675.994C446.219 668.22 432.559 687.834 432.559 687.834Z" fill="#BFA1BC"/>
<path d="M453.797 705.922C453.797 705.922 455.437 684.643 459.597 675.996C459.597 675.996 472.277 677.821 478.657 682.6L477.257 706.497L453.797 705.922Z" fill="#E392AD"/>
<path d="M502.16 693.23C502.26 698.366 499.28 705.129 498.04 707.766L498.02 707.806C497.74 708.361 497.54 708.758 497.5 708.857L497.48 708.877C489.78 710.007 488.36 704.474 488.36 704.474L490.24 700.528C490.22 700.548 490.2 700.567 490.18 700.567C489.72 700.865 486.8 702.511 483.34 700.528C479.54 698.366 476.58 691.604 476.58 691.604L477.96 686.249C477.84 686.428 477.14 687.419 476.32 688.312C475.8 688.867 475.24 689.363 474.74 689.601C473.36 690.216 462.24 687.34 461.1 685.02C460.62 684.068 460.62 681.192 460.76 678.118L460.78 678.079C461 673.736 461.54 669.056 461.54 669.056L457.32 668.302C457.32 668.302 453.88 675.64 451.16 678.356L451.14 678.396C450.92 678.614 450.7 678.793 450.5 678.951C447.72 680.954 437.48 685.02 437.48 685.02C431.18 682.739 430.6 678.277 431 675.362C431.22 673.696 431.76 672.526 431.76 672.526C436.82 665.506 437.24 655.57 445.34 655.769C453.46 655.947 456.68 660.806 456.68 660.806C459.2 661.738 461.54 661.658 461.54 661.658C461.54 661.658 467.8 659.913 473.52 661.857C479.24 663.8 482.7 671.177 482.7 671.177C482.7 671.177 491.92 676.195 493.56 678.575C495.2 680.954 494.7 687.836 494.7 687.836C498.5 688.589 502.16 693.23 502.16 693.23Z" fill="url(#paint116_linear_17_13)"/>
<path d="M369.842 530.791L349.742 518.535C349.742 518.555 360.562 522.244 369.842 530.791Z" fill="#E392AD"/>
<path d="M211.762 527.263C211.762 527.263 227.542 513.48 236.862 511.438C236.842 511.438 223.442 518.319 211.762 527.263Z" fill="#E392AD"/>
<path d="M180.399 714.924C180.399 714.924 160.099 629.986 154.219 566.209C154.219 566.209 302.719 545.227 413.879 557.166C413.879 557.166 409.079 641.885 396.639 714.924H180.399Z" fill="url(#paint117_linear_17_13)"/>
<path opacity="0.5" d="M296.798 557.287L180.398 714.926H275.098L380.178 557.287C380.178 557.287 330.818 553.46 296.798 557.287Z" fill="white"/>
<path d="M154.219 566.21L158.699 559.606C158.699 559.606 284.719 541.342 406.759 552.864L413.899 557.167C413.879 557.147 270.019 550.662 154.219 566.21Z" fill="url(#paint118_linear_17_13)"/>
<path d="M257.496 647.955C257.496 647.955 274.176 620.251 301.836 617.098C301.836 617.078 299.176 635.382 257.496 647.955Z" fill="white"/>
<path d="M369.841 550.225V556.174L326.441 555.857V549.055C326.441 549.055 358.661 549.61 369.841 550.225Z" fill="white"/>
<path d="M172.238 557.861V563.93L204.118 560.896L205.558 554.371C205.558 554.371 180.958 556.771 172.238 557.861Z" fill="white"/>
<path d="M177.336 701.539C177.336 701.539 194.836 711.673 284.716 713.299C374.596 714.925 398.136 705.882 398.136 705.882L396.636 714.925H180.396L177.336 701.539Z" fill="#EBC2D4"/>
<path d="M451.16 678.355L451.14 678.395C450.92 678.613 450.7 678.792 450.5 678.95C447.72 680.953 437.48 685.019 437.48 685.019C431.18 682.738 430.6 678.276 431 675.361C434.06 676.947 449.22 673.536 450.74 674.29C452.26 675.063 451.16 678.355 451.16 678.355Z" fill="#E392AD"/>
<path d="M477.981 683.414C477.981 684.842 477.141 686.765 476.321 688.312C475.801 688.868 475.241 689.363 474.741 689.601C473.361 690.216 462.241 687.341 461.101 685.02C460.621 684.068 460.621 681.193 460.761 678.119L460.781 678.079C460.781 678.079 466.761 674.173 471.381 675.997C476.001 677.822 477.981 680.598 477.981 683.414Z" fill="#E392AD"/>
<path d="M492.142 695.55C492.142 695.55 491.962 698.822 490.242 700.528C490.222 700.547 490.202 700.567 490.182 700.567C489.722 700.865 486.802 702.511 483.342 700.528C479.542 698.366 476.582 691.603 476.582 691.603C477.222 689.105 480.502 687.935 484.562 689.719C488.642 691.504 492.142 695.55 492.142 695.55Z" fill="#E392AD"/>
<path d="M498.039 707.765L498.019 707.804C497.979 708.24 497.799 708.617 497.499 708.855L497.479 708.875C489.779 710.006 488.359 704.473 488.359 704.473C489.279 702.529 493.459 702.311 495.739 703.719C497.399 704.75 498.179 706.515 498.039 707.765Z" fill="#E392AD"/>
<path d="M405.199 710.863C405.199 710.863 409.999 714.135 416.919 711.418C423.839 708.701 418.699 695.91 418.699 695.91L431.079 689.742C431.079 689.742 422.019 703.525 420.039 712.271C420.039 712.271 407.899 715.662 405.199 710.863Z" fill="#E392AD"/>
<path d="M432.738 673.12C432.738 673.12 439.298 670.344 447.078 671.673C447.078 671.673 444.978 665.823 439.918 666.417C434.838 667.012 432.738 673.12 432.738 673.12Z" fill="white"/>
<path d="M467.598 674.17C467.598 674.17 475.738 673.833 478.498 678.156C478.498 678.156 476.038 670.918 472.618 671.195C469.218 671.493 467.598 674.17 467.598 674.17Z" fill="white"/>
<path d="M484.359 687.359C484.359 687.359 490.519 689.144 492.139 693.19C492.139 693.19 492.139 685.674 489.299 685.019C486.459 684.365 484.359 687.359 484.359 687.359Z" fill="white"/>
<path d="M493.199 701.342C493.199 701.342 497.039 702.175 498.039 703.801C498.039 703.801 499.619 698.625 497.139 697.97C494.699 697.316 493.199 701.342 493.199 701.342Z" fill="white"/>
<path d="M482.701 671.18C482.701 671.18 480.681 680.897 477.961 686.252C477.961 686.252 483.881 680.56 484.361 672.112L482.701 671.18Z" fill="url(#paint119_linear_17_13)"/>
<path d="M494.702 687.836L491.422 698.624C491.422 698.624 498.362 695.392 497.222 688.867L494.702 687.836Z" fill="url(#paint120_linear_17_13)"/>
<path d="M453.359 675.5L456.679 660.785L458.099 661.202L457.319 668.281L461.539 669.035L460.999 674.667C460.999 674.687 455.199 674.231 453.359 675.5Z" fill="#E392AD"/>
<path d="M369.84 530.793C369.84 530.793 390.48 524.507 399.2 513.738C399.2 513.738 395.32 532.122 373.1 534.641L369.84 530.793Z" fill="#E392AD"/>
<path d="M187.758 514.234C187.758 514.234 186.158 527.224 207.418 532.122L214.018 525.36C213.998 525.38 200.898 523.753 187.758 514.234Z" fill="#E392AD"/>
<path opacity="0.5" d="M342.797 459.758C342.797 459.758 354.497 486.193 362.837 494.839C371.177 503.486 394.037 507.293 394.037 507.293L372.257 480.144C372.257 480.144 356.537 476.396 342.797 459.758Z" fill="url(#paint121_linear_17_13)"/>
<path opacity="0.5" d="M245.699 451.211C245.699 451.211 236.819 473.66 231.139 492.063C225.459 510.467 200.859 512.728 200.859 512.728C200.859 512.728 227.479 470.665 245.699 451.211Z" fill="url(#paint122_linear_17_13)"/>
<path d="M70.8789 481.965L88.1389 491.702L83.1589 492.079L71.7589 484.107L70.8789 481.965Z" fill="#FEB1C8"/>
<path opacity="0.5" d="M74.8203 441.095C78.5403 431.576 102.72 419.975 108.24 422.018C113.74 424.06 112.12 436.356 112.12 436.356C112.12 436.356 97.4203 437.823 92.2003 460.371C92.2003 460.371 85.2603 467.57 80.4203 463.584C75.5803 459.638 74.8203 441.095 74.8203 441.095Z" fill="url(#paint123_linear_17_13)"/>
<path opacity="0.2" d="M437.48 521.371C437.48 521.371 443.46 549.67 458.94 587.628C474.42 625.585 513.2 658.346 513.2 658.346C513.2 658.346 469.26 567.955 437.48 521.371Z" fill="white"/>
<path opacity="0.2" d="M380.18 483.516C380.18 483.516 386.76 493.59 395.1 499.837C403.44 506.103 428.7 513.719 428.7 513.719L437.48 500.67C437.48 500.67 421.18 493.431 405.2 489.465C389.24 485.519 380.18 483.516 380.18 483.516Z" fill="white"/>
<path opacity="0.2" d="M165.199 507.289C165.199 507.289 170.819 516.53 174.159 524.185C174.159 524.185 185.399 513.377 192.479 506.099C199.559 498.841 202.559 492.059 202.559 492.059C190.999 495.946 171.519 501.697 165.199 507.289Z" fill="white"/>
<path d="M294.039 292.203C294.039 292.203 303.059 284.211 316.539 286.015C316.539 285.996 306.919 286.571 294.039 292.203Z" fill="url(#paint124_linear_17_13)"/>
<path d="M298.219 292.199C298.219 292.199 313.799 287.201 323.179 291.624C323.179 291.624 311.619 288.451 298.219 292.199Z" fill="url(#paint125_linear_17_13)"/>
<path d="M257.862 297.596C257.862 297.596 250.022 289.167 242.742 290.099L257.862 297.596Z" fill="url(#paint126_linear_17_13)"/>
<path d="M255.477 298.013C255.477 298.013 243.957 289.505 234.297 295.752C234.297 295.772 242.717 291.786 255.477 298.013Z" fill="url(#paint127_linear_17_13)"/>
<path d="M100.877 380.231C100.877 380.231 101.137 375.948 98.1367 372.18C98.1367 372.18 101.797 374.044 102.677 379.914L100.877 380.231Z" fill="url(#paint128_linear_17_13)"/>
<path d="M86.2203 396.037L69.3203 397.584C69.3203 397.604 74.8403 395.284 86.2203 396.037Z" fill="url(#paint129_linear_17_13)"/>
<path d="M800 714.926H0V732.001H800V714.926Z" fill="url(#paint130_linear_17_13)"/>
<defs>
<linearGradient id="paint0_linear_17_13" x1="125.734" y1="294.365" x2="726.466" y2="294.365" gradientUnits="userSpaceOnUse">
<stop stop-color="#00C3EE"/>
<stop offset="1" stop-color="#E100E6"/>
</linearGradient>
<linearGradient id="paint1_linear_17_13" x1="69.1289" y1="237.602" x2="199.065" y2="237.602" gradientUnits="userSpaceOnUse">
<stop stop-color="#00C3EE"/>
<stop offset="1" stop-color="#E100E6"/>
</linearGradient>
<linearGradient id="paint2_linear_17_13" x1="570.144" y1="402.878" x2="570.144" y2="165.527" gradientUnits="userSpaceOnUse">
<stop stop-color="#B30B63"/>
<stop offset="1" stop-color="#95004C"/>
</linearGradient>
<linearGradient id="paint3_linear_17_13" x1="619.879" y1="334.087" x2="619.879" y2="245.605" gradientUnits="userSpaceOnUse">
<stop offset="0.016" stop-color="white"/>
<stop offset="0.9916" stop-color="#C2798B"/>
</linearGradient>
<linearGradient id="paint4_linear_17_13" x1="661.511" y1="516.514" x2="661.511" y2="402.819" gradientUnits="userSpaceOnUse">
<stop stop-color="#D61A6A"/>
<stop offset="1" stop-color="#C3065B"/>
</linearGradient>
<linearGradient id="paint5_linear_17_13" x1="649.31" y1="516.383" x2="649.31" y2="333.017" gradientUnits="userSpaceOnUse">
<stop stop-color="#FF5579"/>
<stop offset="1" stop-color="#E75979"/>
</linearGradient>
<linearGradient id="paint6_linear_17_13" x1="722.021" y1="318.36" x2="722.021" y2="312.413" gradientUnits="userSpaceOnUse">
<stop stop-color="#D8CAEF"/>
<stop offset="1" stop-color="#EADEF4"/>
</linearGradient>
<linearGradient id="paint7_linear_17_13" x1="571.883" y1="512.247" x2="571.883" y2="298.632" gradientUnits="userSpaceOnUse">
<stop stop-color="#FF6686"/>
<stop offset="1" stop-color="#FF7C89"/>
</linearGradient>
<linearGradient id="paint8_linear_17_13" x1="652.089" y1="380.738" x2="652.089" y2="336.061" gradientUnits="userSpaceOnUse">
<stop offset="0.016" stop-color="#FFA67F"/>
<stop offset="1" stop-color="#FF8B7C"/>
</linearGradient>
<linearGradient id="paint9_linear_17_13" x1="618.345" y1="277.403" x2="618.345" y2="134.995" gradientUnits="userSpaceOnUse">
<stop offset="0.016" stop-color="#FFC2A6"/>
<stop offset="1" stop-color="#FFB595"/>
</linearGradient>
<linearGradient id="paint10_linear_17_13" x1="598.642" y1="731.999" x2="598.642" y2="453.426" gradientUnits="userSpaceOnUse">
<stop stop-color="#7E8EFF"/>
<stop offset="1" stop-color="#7096FF"/>
</linearGradient>
<linearGradient id="paint11_linear_17_13" x1="528.125" y1="519.319" x2="528.125" y2="411.22" gradientUnits="userSpaceOnUse">
<stop stop-color="#D61A6A"/>
<stop offset="1" stop-color="#C3065B"/>
</linearGradient>
<linearGradient id="paint12_linear_17_13" x1="586.536" y1="328.008" x2="586.536" y2="238.128" gradientUnits="userSpaceOnUse">
<stop offset="0.016" stop-color="#FFA67F"/>
<stop offset="1" stop-color="#FF8B7C"/>
</linearGradient>
<linearGradient id="paint13_linear_17_13" x1="640.006" y1="374.851" x2="640.006" y2="301.287" gradientUnits="userSpaceOnUse">
<stop stop-color="#301361"/>
<stop offset="1" stop-color="#482C6A"/>
</linearGradient>
<linearGradient id="paint14_linear_17_13" x1="571.009" y1="415.305" x2="571.009" y2="117" gradientUnits="userSpaceOnUse">
<stop stop-color="#C50B79"/>
<stop offset="1" stop-color="#E51160"/>
</linearGradient>
<linearGradient id="paint15_linear_17_13" x1="565.139" y1="233.581" x2="565.139" y2="192.732" gradientUnits="userSpaceOnUse">
<stop offset="0.016" stop-color="#FFC2A6"/>
<stop offset="1" stop-color="#FFB595"/>
</linearGradient>
<linearGradient id="paint16_linear_17_13" x1="563.908" y1="229.098" x2="563.908" y2="200.992" gradientUnits="userSpaceOnUse">
<stop offset="0.016" stop-color="white"/>
<stop offset="0.9916" stop-color="#F29DC8"/>
</linearGradient>
<linearGradient id="paint17_linear_17_13" x1="553.297" y1="358.523" x2="553.297" y2="180.962" gradientUnits="userSpaceOnUse">
<stop stop-color="#C50B79"/>
<stop offset="1" stop-color="#E51160"/>
</linearGradient>
<linearGradient id="paint18_linear_17_13" x1="679.866" y1="483.064" x2="679.866" y2="378.104" gradientUnits="userSpaceOnUse">
<stop offset="0.016" stop-color="#FF8D90"/>
<stop offset="1" stop-color="#FFA684"/>
</linearGradient>
<linearGradient id="paint19_linear_17_13" x1="655.602" y1="454.385" x2="655.602" y2="316.484" gradientUnits="userSpaceOnUse">
<stop stop-color="#A586C9"/>
<stop offset="1" stop-color="#B1A4D3"/>
</linearGradient>
<linearGradient id="paint20_linear_17_13" x1="698.433" y1="455.506" x2="698.433" y2="315.131" gradientUnits="userSpaceOnUse">
<stop stop-color="#C9B6E9"/>
<stop offset="1" stop-color="#D5BDEA"/>
</linearGradient>
<linearGradient id="paint21_linear_17_13" x1="739.967" y1="382.351" x2="739.967" y2="340.226" gradientUnits="userSpaceOnUse">
<stop offset="0.016" stop-color="#FFC2A6"/>
<stop offset="1" stop-color="#FFB595"/>
</linearGradient>
<linearGradient id="paint22_linear_17_13" x1="732.735" y1="390.777" x2="732.735" y2="379.859" gradientUnits="userSpaceOnUse">
<stop offset="0.016" stop-color="#FFC2A6"/>
<stop offset="1" stop-color="#FFB595"/>
</linearGradient>
<linearGradient id="paint23_linear_17_13" x1="627.668" y1="243.621" x2="649.448" y2="243.621" gradientUnits="userSpaceOnUse">
<stop offset="0.016" stop-color="white"/>
<stop offset="0.9916" stop-color="#EA9DC8"/>
</linearGradient>
<linearGradient id="paint24_linear_17_13" x1="628.754" y1="246.967" x2="628.754" y2="238.951" gradientUnits="userSpaceOnUse">
<stop offset="0.016" stop-color="white"/>
<stop offset="0.9916" stop-color="#EA9DC8"/>
</linearGradient>
<linearGradient id="paint25_linear_17_13" x1="627.651" y1="242.129" x2="627.651" y2="196.407" gradientUnits="userSpaceOnUse">
<stop offset="0.016" stop-color="white"/>
<stop offset="0.9916" stop-color="#F7839A"/>
</linearGradient>
<linearGradient id="paint26_linear_17_13" x1="657.386" y1="205.447" x2="657.386" y2="191.95" gradientUnits="userSpaceOnUse">
<stop stop-color="#FF8170"/>
<stop offset="1" stop-color="#FE467C"/>
</linearGradient>
<linearGradient id="paint27_linear_17_13" x1="618.145" y1="199.672" x2="618.145" y2="187.945" gradientUnits="userSpaceOnUse">
<stop stop-color="#FF8170"/>
<stop offset="1" stop-color="#FE467C"/>
</linearGradient>
<linearGradient id="paint28_linear_17_13" x1="630.465" y1="266.238" x2="630.465" y2="249.246" gradientUnits="userSpaceOnUse">
<stop stop-color="#EA1A8F"/>
<stop offset="1" stop-color="#D3004C"/>
</linearGradient>
<linearGradient id="paint29_linear_17_13" x1="554.359" y1="181.245" x2="606.483" y2="181.245" gradientUnits="userSpaceOnUse">
<stop offset="0.00837989" stop-color="#C2798B"/>
<stop offset="0.984" stop-color="white"/>
</linearGradient>
<linearGradient id="paint30_linear_17_13" x1="595.036" y1="192.737" x2="595.036" y2="129.798" gradientUnits="userSpaceOnUse">
<stop offset="0.00837989" stop-color="#C2798B"/>
<stop offset="0.984" stop-color="white"/>
</linearGradient>
<linearGradient id="paint31_linear_17_13" x1="589.415" y1="194.052" x2="589.415" y2="121.307" gradientUnits="userSpaceOnUse">
<stop offset="0.00837989" stop-color="#C2798B"/>
<stop offset="0.984" stop-color="white"/>
</linearGradient>
<linearGradient id="paint32_linear_17_13" x1="542.874" y1="328.009" x2="542.874" y2="203.946" gradientUnits="userSpaceOnUse">
<stop offset="0.016" stop-color="white"/>
<stop offset="0.9916" stop-color="#C2798B"/>
</linearGradient>
<linearGradient id="paint33_linear_17_13" x1="603.518" y1="391.883" x2="603.518" y2="338.809" gradientUnits="userSpaceOnUse">
<stop offset="0.00837989" stop-color="#E38B8B"/>
<stop offset="0.984" stop-color="white"/>
</linearGradient>
<linearGradient id="paint34_linear_17_13" x1="481.764" y1="373.033" x2="505.481" y2="373.033" gradientUnits="userSpaceOnUse">
<stop offset="0.00837989" stop-color="#C2798B"/>
<stop offset="0.984" stop-color="white"/>
</linearGradient>
<linearGradient id="paint35_linear_17_13" x1="552.774" y1="413.382" x2="552.774" y2="362.079" gradientUnits="userSpaceOnUse">
<stop stop-color="#E59DB0"/>
<stop offset="0.984" stop-color="white"/>
</linearGradient>
<linearGradient id="paint36_linear_17_13" x1="565.199" y1="411.223" x2="565.199" y2="380.738" gradientUnits="userSpaceOnUse">
<stop stop-color="#E59DB0"/>
<stop offset="0.984" stop-color="white"/>
</linearGradient>
<linearGradient id="paint37_linear_17_13" x1="506.737" y1="408.433" x2="553.293" y2="408.433" gradientUnits="userSpaceOnUse">
<stop offset="0.016" stop-color="white"/>
<stop offset="1" stop-color="#E59DB0"/>
</linearGradient>
<linearGradient id="paint38_linear_17_13" x1="610.182" y1="467.775" x2="610.182" y2="425.702" gradientUnits="userSpaceOnUse">
<stop stop-color="#E59DB0"/>
<stop offset="0.984" stop-color="white"/>
</linearGradient>
<linearGradient id="paint39_linear_17_13" x1="582.756" y1="459.665" x2="582.756" y2="421.441" gradientUnits="userSpaceOnUse">
<stop stop-color="#E59DB0"/>
<stop offset="0.984" stop-color="white"/>
</linearGradient>
<linearGradient id="paint40_linear_17_13" x1="615.941" y1="471.854" x2="615.941" y2="441.902" gradientUnits="userSpaceOnUse">
<stop stop-color="#E59DB0"/>
<stop offset="0.984" stop-color="white"/>
</linearGradient>
<linearGradient id="paint41_linear_17_13" x1="579.734" y1="487.05" x2="579.734" y2="320.233" gradientUnits="userSpaceOnUse">
<stop offset="0.016" stop-color="#FFC2A6"/>
<stop offset="1" stop-color="#FFB595"/>
</linearGradient>
<linearGradient id="paint42_linear_17_13" x1="547.861" y1="472.117" x2="623.959" y2="472.117" gradientUnits="userSpaceOnUse">
<stop stop-color="#8B8BE0"/>
<stop offset="1" stop-color="#A177B7"/>
</linearGradient>
<linearGradient id="paint43_linear_17_13" x1="515.179" y1="731.998" x2="515.179" y2="592.712" gradientUnits="userSpaceOnUse">
<stop offset="0.00837989" stop-color="#C2C0E1"/>
<stop offset="0.984" stop-color="white"/>
</linearGradient>
<linearGradient id="paint44_linear_17_13" x1="587.694" y1="732.001" x2="587.694" y2="499.849" gradientUnits="userSpaceOnUse">
<stop offset="0.00837989" stop-color="#C2C0E1"/>
<stop offset="0.984" stop-color="white"/>
</linearGradient>
<linearGradient id="paint45_linear_17_13" x1="637.677" y1="731.999" x2="637.677" y2="487.047" gradientUnits="userSpaceOnUse">
<stop offset="0.00837989" stop-color="#C2C0E1"/>
<stop offset="0.984" stop-color="white"/>
</linearGradient>
<linearGradient id="paint46_linear_17_13" x1="650.796" y1="732" x2="650.796" y2="538.926" gradientUnits="userSpaceOnUse">
<stop offset="0.00837989" stop-color="#C2C0E1"/>
<stop offset="0.984" stop-color="white"/>
</linearGradient>
<linearGradient id="paint47_linear_17_13" x1="563.24" y1="602.055" x2="563.24" y2="467.775" gradientUnits="userSpaceOnUse">
<stop offset="0.016" stop-color="white"/>
<stop offset="0.9916" stop-color="#C2C0E1"/>
</linearGradient>
<linearGradient id="paint48_linear_17_13" x1="593.067" y1="607.672" x2="575.278" y2="467.778" gradientUnits="userSpaceOnUse">
<stop offset="0.016" stop-color="white"/>
<stop offset="0.9916" stop-color="#C2C0E1"/>
</linearGradient>
<linearGradient id="paint49_linear_17_13" x1="618.45" y1="619.002" x2="618.45" y2="482.749" gradientUnits="userSpaceOnUse">
<stop offset="0.016" stop-color="white"/>
<stop offset="0.9916" stop-color="#C2C0E1"/>
</linearGradient>
<linearGradient id="paint50_linear_17_13" x1="583.226" y1="152.591" x2="638.55" y2="152.591" gradientUnits="userSpaceOnUse">
<stop offset="0.016" stop-color="white"/>
<stop offset="0.9916" stop-color="#C2798B"/>
</linearGradient>
<linearGradient id="paint51_linear_17_13" x1="554.359" y1="180.778" x2="583.222" y2="180.778" gradientUnits="userSpaceOnUse">
<stop offset="0.00837989" stop-color="#C2798B"/>
<stop offset="0.984" stop-color="white"/>
</linearGradient>
<linearGradient id="paint52_linear_17_13" x1="624.01" y1="313.958" x2="624.01" y2="301.131" gradientUnits="userSpaceOnUse">
<stop stop-color="#C9B6E9"/>
<stop offset="1" stop-color="#D5BDEA"/>
</linearGradient>
<linearGradient id="paint53_linear_17_13" x1="522.406" y1="731.999" x2="522.406" y2="504.907" gradientUnits="userSpaceOnUse">
<stop offset="0.016" stop-color="white"/>
<stop offset="0.9916" stop-color="#C2C0E1"/>
</linearGradient>
<linearGradient id="paint54_linear_17_13" x1="280.034" y1="422.1" x2="280.034" y2="248.108" gradientUnits="userSpaceOnUse">
<stop stop-color="#FFB595"/>
<stop offset="0.984" stop-color="#FFC2A9"/>
</linearGradient>
<linearGradient id="paint55_linear_17_13" x1="291.085" y1="525.375" x2="291.085" y2="407.432" gradientUnits="userSpaceOnUse">
<stop offset="0.016" stop-color="#FFA67F"/>
<stop offset="1" stop-color="#FF8B7C"/>
</linearGradient>
<linearGradient id="paint56_linear_17_13" x1="282.676" y1="312.081" x2="282.676" y2="253.368" gradientUnits="userSpaceOnUse">
<stop offset="0.016" stop-color="white"/>
<stop offset="0.9916" stop-color="#F29DC8"/>
</linearGradient>
<linearGradient id="paint57_linear_17_13" x1="350.234" y1="370.096" x2="350.234" y2="322.108" gradientUnits="userSpaceOnUse">
<stop offset="0.016" stop-color="#FFA67F"/>
<stop offset="1" stop-color="#FF8B7C"/>
</linearGradient>
<linearGradient id="paint58_linear_17_13" x1="219.868" y1="377.926" x2="219.868" y2="334.376" gradientUnits="userSpaceOnUse">
<stop offset="0.016" stop-color="#FFA67F"/>
<stop offset="1" stop-color="#FF8B7C"/>
</linearGradient>
<linearGradient id="paint59_linear_17_13" x1="350.133" y1="360.251" x2="350.133" y2="331.299" gradientUnits="userSpaceOnUse">
<stop offset="0.016" stop-color="white"/>
<stop offset="0.9916" stop-color="#F29DC8"/>
</linearGradient>
<linearGradient id="paint60_linear_17_13" x1="220.087" y1="368.7" x2="220.087" y2="343.229" gradientUnits="userSpaceOnUse">
<stop offset="0.016" stop-color="white"/>
<stop offset="0.9916" stop-color="#F29DC8"/>
</linearGradient>
<linearGradient id="paint61_linear_17_13" x1="287.92" y1="342.995" x2="268.268" y2="217.858" gradientUnits="userSpaceOnUse">
<stop stop-color="#3E2987"/>
<stop offset="0.5684" stop-color="#2C2F90"/>
<stop offset="1" stop-color="#243294"/>
</linearGradient>
<linearGradient id="paint62_linear_17_13" x1="291.26" y1="714.139" x2="291.26" y2="454.193" gradientUnits="userSpaceOnUse">
<stop stop-color="#FF6686"/>
<stop offset="1" stop-color="#FF7C89"/>
</linearGradient>
<linearGradient id="paint63_linear_17_13" x1="301.343" y1="714.137" x2="301.343" y2="439.338" gradientUnits="userSpaceOnUse">
<stop stop-color="#2B2583"/>
<stop offset="1" stop-color="#482C97"/>
</linearGradient>
<linearGradient id="paint64_linear_17_13" x1="126.761" y1="714.924" x2="126.761" y2="507.29" gradientUnits="userSpaceOnUse">
<stop stop-color="#26258A"/>
<stop offset="1" stop-color="#3C2C95"/>
</linearGradient>
<linearGradient id="paint65_linear_17_13" x1="108.24" y1="539.969" x2="108.24" y2="332.734" gradientUnits="userSpaceOnUse">
<stop offset="0.016" stop-color="#FFC2A0"/>
<stop offset="1" stop-color="#FFA195"/>
</linearGradient>
<linearGradient id="paint66_linear_17_13" x1="95.8748" y1="611.016" x2="95.8748" y2="515.777" gradientUnits="userSpaceOnUse">
<stop stop-color="#FF6686"/>
<stop offset="1" stop-color="#FF7C89"/>
</linearGradient>
<linearGradient id="paint67_linear_17_13" x1="468.504" y1="714.923" x2="468.504" y2="500.687" gradientUnits="userSpaceOnUse">
<stop stop-color="#26258A"/>
<stop offset="1" stop-color="#3C2C95"/>
</linearGradient>
<linearGradient id="paint68_linear_17_13" x1="287.604" y1="286.178" x2="293.288" y2="286.178" gradientUnits="userSpaceOnUse">
<stop stop-color="#8453B8"/>
<stop offset="0.2307" stop-color="#7755BA"/>
<stop offset="0.6978" stop-color="#6157BC"/>
<stop offset="1" stop-color="#5958BD"/>
</linearGradient>
<linearGradient id="paint69_linear_17_13" x1="277.579" y1="346.628" x2="277.579" y2="292.197" gradientUnits="userSpaceOnUse">
<stop offset="0.016" stop-color="white"/>
<stop offset="0.9916" stop-color="#F29DC8"/>
</linearGradient>
<linearGradient id="paint70_linear_17_13" x1="232.627" y1="322.755" x2="259.35" y2="322.755" gradientUnits="userSpaceOnUse">
<stop offset="0.016" stop-color="white"/>
<stop offset="0.9916" stop-color="#EA9DC8"/>
</linearGradient>
<linearGradient id="paint71_linear_17_13" x1="294.901" y1="315.071" x2="321.291" y2="315.071" gradientUnits="userSpaceOnUse">
<stop offset="0.016" stop-color="white"/>
<stop offset="0.9916" stop-color="#EA9DC8"/>
</linearGradient>
<linearGradient id="paint72_linear_17_13" x1="288.801" y1="347.349" x2="298.885" y2="347.349" gradientUnits="userSpaceOnUse">
<stop offset="0.016" stop-color="white"/>
<stop offset="0.9916" stop-color="#EA9DC8"/>
</linearGradient>
<linearGradient id="paint73_linear_17_13" x1="304.848" y1="364.911" x2="316.445" y2="364.911" gradientUnits="userSpaceOnUse">
<stop offset="0.016" stop-color="white"/>
<stop offset="0.9916" stop-color="#F29DC8"/>
</linearGradient>
<linearGradient id="paint74_linear_17_13" x1="286.842" y1="393.281" x2="286.842" y2="383.667" gradientUnits="userSpaceOnUse">
<stop offset="0.016" stop-color="white"/>
<stop offset="0.9916" stop-color="#F29DC8"/>
</linearGradient>
<linearGradient id="paint75_linear_17_13" x1="308.61" y1="326.183" x2="308.61" y2="316.079" gradientUnits="userSpaceOnUse">
<stop offset="0.016" stop-color="#E0B3D1"/>
<stop offset="0.9916" stop-color="#C2798B"/>
</linearGradient>
<linearGradient id="paint76_linear_17_13" x1="247.227" y1="335.118" x2="247.227" y2="325.013" gradientUnits="userSpaceOnUse">
<stop offset="0.016" stop-color="#E0B3D1"/>
<stop offset="0.9916" stop-color="#C2798B"/>
</linearGradient>
<linearGradient id="paint77_linear_17_13" x1="307.818" y1="298.933" x2="307.818" y2="279.79" gradientUnits="userSpaceOnUse">
<stop stop-color="#B877B8"/>
<stop offset="0.2337" stop-color="#9A6DBA"/>
<stop offset="0.5605" stop-color="#7762BB"/>
<stop offset="0.8276" stop-color="#615BBD"/>
<stop offset="1" stop-color="#5958BD"/>
</linearGradient>
<linearGradient id="paint78_linear_17_13" x1="242.62" y1="306.826" x2="242.62" y2="285.314" gradientUnits="userSpaceOnUse">
<stop stop-color="#B877B8"/>
<stop offset="0.2337" stop-color="#9A6DBA"/>
<stop offset="0.5605" stop-color="#7762BB"/>
<stop offset="0.8276" stop-color="#615BBD"/>
<stop offset="1" stop-color="#5958BD"/>
</linearGradient>
<linearGradient id="paint79_linear_17_13" x1="324.208" y1="288.533" x2="351.397" y2="288.533" gradientUnits="userSpaceOnUse">
<stop offset="0.016" stop-color="white"/>
<stop offset="0.9916" stop-color="#C2798B"/>
</linearGradient>
<linearGradient id="paint80_linear_17_13" x1="210.953" y1="293.93" x2="236.74" y2="293.93" gradientUnits="userSpaceOnUse">
<stop offset="0.00837989" stop-color="#C2798B"/>
<stop offset="0.984" stop-color="white"/>
</linearGradient>
<linearGradient id="paint81_linear_17_13" x1="209.353" y1="274.098" x2="239.101" y2="274.098" gradientUnits="userSpaceOnUse">
<stop offset="0.00837989" stop-color="#C2798B"/>
<stop offset="0.984" stop-color="white"/>
</linearGradient>
<linearGradient id="paint82_linear_17_13" x1="291.777" y1="270.25" x2="286.626" y2="237.453" gradientUnits="userSpaceOnUse">
<stop stop-color="#3E2987"/>
<stop offset="0.5684" stop-color="#2C2F90"/>
<stop offset="1" stop-color="#243294"/>
</linearGradient>
<linearGradient id="paint83_linear_17_13" x1="344.171" y1="277.599" x2="345.558" y2="255.326" gradientUnits="userSpaceOnUse">
<stop stop-color="#3E2987"/>
<stop offset="0.5684" stop-color="#2C2F90"/>
<stop offset="1" stop-color="#243294"/>
</linearGradient>
<linearGradient id="paint84_linear_17_13" x1="263.96" y1="355.299" x2="275.102" y2="355.299" gradientUnits="userSpaceOnUse">
<stop offset="0.016" stop-color="white"/>
<stop offset="0.9916" stop-color="#D172A6"/>
</linearGradient>
<linearGradient id="paint85_linear_17_13" x1="242.925" y1="355.874" x2="242.925" y2="308.69" gradientUnits="userSpaceOnUse">
<stop stop-color="#26258A"/>
<stop offset="1" stop-color="#3C2C95"/>
</linearGradient>
<linearGradient id="paint86_linear_17_13" x1="319.396" y1="346.217" x2="310.343" y2="299.194" gradientUnits="userSpaceOnUse">
<stop stop-color="#26258A"/>
<stop offset="1" stop-color="#3C2C95"/>
</linearGradient>
<linearGradient id="paint87_linear_17_13" x1="277.185" y1="318.378" x2="277.185" y2="310.405" gradientUnits="userSpaceOnUse">
<stop stop-color="#26258A"/>
<stop offset="1" stop-color="#3C2C95"/>
</linearGradient>
<linearGradient id="paint88_linear_17_13" x1="345.808" y1="325.012" x2="345.808" y2="305.699" gradientUnits="userSpaceOnUse">
<stop stop-color="#26258A"/>
<stop offset="1" stop-color="#3C2C95"/>
</linearGradient>
<linearGradient id="paint89_linear_17_13" x1="280.053" y1="276.067" x2="276.925" y2="256.151" gradientUnits="userSpaceOnUse">
<stop stop-color="#3E2987"/>
<stop offset="0.5684" stop-color="#2C2F90"/>
<stop offset="1" stop-color="#243294"/>
</linearGradient>
<linearGradient id="paint90_linear_17_13" x1="272.744" y1="493.383" x2="272.744" y2="413.993" gradientUnits="userSpaceOnUse">
<stop offset="0.016" stop-color="white"/>
<stop offset="0.9916" stop-color="#F29DC8"/>
</linearGradient>
<linearGradient id="paint91_linear_17_13" x1="219.023" y1="714.388" x2="219.023" y2="445.287" gradientUnits="userSpaceOnUse">
<stop stop-color="#38328A"/>
<stop offset="1" stop-color="#5C43A2"/>
</linearGradient>
<linearGradient id="paint92_linear_17_13" x1="362.829" y1="714.138" x2="362.829" y2="439.338" gradientUnits="userSpaceOnUse">
<stop stop-color="#38328A"/>
<stop offset="1" stop-color="#5C43A2"/>
</linearGradient>
<linearGradient id="paint93_linear_17_13" x1="267.539" y1="587.637" x2="267.539" y2="478.911" gradientUnits="userSpaceOnUse">
<stop offset="0.016" stop-color="white"/>
<stop offset="0.9916" stop-color="#EA8CC1"/>
</linearGradient>
<linearGradient id="paint94_linear_17_13" x1="317.038" y1="564.517" x2="317.038" y2="485.494" gradientUnits="userSpaceOnUse">
<stop offset="0.016" stop-color="white"/>
<stop offset="0.9916" stop-color="#EA8CC1"/>
</linearGradient>
<linearGradient id="paint95_linear_17_13" x1="90.5397" y1="463.596" x2="90.5397" y2="362.972" gradientUnits="userSpaceOnUse">
<stop offset="0.00837989" stop-color="#EA9DC8"/>
<stop offset="0.984" stop-color="#FFDBD6"/>
</linearGradient>
<linearGradient id="paint96_linear_17_13" x1="104.707" y1="380.828" x2="104.707" y2="353.073" gradientUnits="userSpaceOnUse">
<stop stop-color="#FFB595"/>
<stop offset="0.984" stop-color="#FFC290"/>
</linearGradient>
<linearGradient id="paint97_linear_17_13" x1="85.0091" y1="398.149" x2="85.0091" y2="372.195" gradientUnits="userSpaceOnUse">
<stop stop-color="#FFB595"/>
<stop offset="0.984" stop-color="#FFC290"/>
</linearGradient>
<linearGradient id="paint98_linear_17_13" x1="72.8762" y1="409.767" x2="72.8762" y2="396.066" gradientUnits="userSpaceOnUse">
<stop stop-color="#FFB595"/>
<stop offset="0.984" stop-color="#FFC290"/>
</linearGradient>
<linearGradient id="paint99_linear_17_13" x1="113.482" y1="498.958" x2="113.482" y2="466.402" gradientUnits="userSpaceOnUse">
<stop offset="0.016" stop-color="white"/>
<stop offset="0.9916" stop-color="#EA9DC8"/>
</linearGradient>
<linearGradient id="paint100_linear_17_13" x1="103.785" y1="464.141" x2="103.785" y2="432.362" gradientUnits="userSpaceOnUse">
<stop offset="0.016" stop-color="white"/>
<stop offset="0.9916" stop-color="#EA9DC8"/>
</linearGradient>
<linearGradient id="paint101_linear_17_13" x1="125.862" y1="446.605" x2="125.862" y2="413.997" gradientUnits="userSpaceOnUse">
<stop offset="0.00837989" stop-color="#EA9DC8"/>
<stop offset="0.984" stop-color="white"/>
</linearGradient>
<linearGradient id="paint102_linear_17_13" x1="165.206" y1="561.492" x2="189.467" y2="561.492" gradientUnits="userSpaceOnUse">
<stop offset="0.00837989" stop-color="#C2798B"/>
<stop offset="0.984" stop-color="white"/>
</linearGradient>
<linearGradient id="paint103_linear_17_13" x1="142.292" y1="655.147" x2="142.292" y2="587.637" gradientUnits="userSpaceOnUse">
<stop offset="0.016" stop-color="white"/>
<stop offset="0.9916" stop-color="#C2798B"/>
</linearGradient>
<linearGradient id="paint104_linear_17_13" x1="58.5319" y1="614.754" x2="111.458" y2="614.754" gradientUnits="userSpaceOnUse">
<stop offset="0.00837989" stop-color="#C2798B"/>
<stop offset="0.984" stop-color="white"/>
</linearGradient>
<linearGradient id="paint105_linear_17_13" x1="128.609" y1="686.333" x2="128.609" y2="560.081" gradientUnits="userSpaceOnUse">
<stop offset="0.016" stop-color="white"/>
<stop offset="0.9916" stop-color="#C2798B"/>
</linearGradient>
<linearGradient id="paint106_linear_17_13" x1="408.747" y1="540.095" x2="437.479" y2="540.095" gradientUnits="userSpaceOnUse">
<stop offset="0.016" stop-color="white"/>
<stop offset="0.9916" stop-color="#C2798B"/>
</linearGradient>
<linearGradient id="paint107_linear_17_13" x1="415.883" y1="613.25" x2="426.986" y2="613.25" gradientUnits="userSpaceOnUse">
<stop offset="0.00837989" stop-color="#C2798B"/>
<stop offset="0.984" stop-color="white"/>
</linearGradient>
<linearGradient id="paint108_linear_17_13" x1="377.605" y1="655.002" x2="408.747" y2="655.002" gradientUnits="userSpaceOnUse">
<stop offset="0.00837989" stop-color="#C2798B"/>
<stop offset="0.984" stop-color="white"/>
</linearGradient>
<linearGradient id="paint109_linear_17_13" x1="421.934" y1="654.248" x2="501.142" y2="654.248" gradientUnits="userSpaceOnUse">
<stop offset="0.00837989" stop-color="#C2798B"/>
<stop offset="0.984" stop-color="white"/>
</linearGradient>
<linearGradient id="paint110_linear_17_13" x1="436.216" y1="655.758" x2="500.132" y2="655.758" gradientUnits="userSpaceOnUse">
<stop offset="0.00837989" stop-color="#C2798B"/>
<stop offset="0.984" stop-color="white"/>
</linearGradient>
<linearGradient id="paint111_linear_17_13" x1="413.1" y1="655.761" x2="413.1" y2="552.57" gradientUnits="userSpaceOnUse">
<stop offset="0.00837989" stop-color="#C2798B"/>
<stop offset="0.984" stop-color="white"/>
</linearGradient>
<linearGradient id="paint112_linear_17_13" x1="457.097" y1="689.337" x2="457.097" y2="663.038" gradientUnits="userSpaceOnUse">
<stop offset="0.016" stop-color="#FFA67F"/>
<stop offset="1" stop-color="#FF8B7C"/>
</linearGradient>
<linearGradient id="paint113_linear_17_13" x1="477.63" y1="715.536" x2="477.63" y2="655.94" gradientUnits="userSpaceOnUse">
<stop stop-color="#2B2583"/>
<stop offset="1" stop-color="#231868"/>
</linearGradient>
<linearGradient id="paint114_linear_17_13" x1="418.707" y1="713.39" x2="418.707" y2="689.285" gradientUnits="userSpaceOnUse">
<stop offset="0.016" stop-color="#FFC2A0"/>
<stop offset="1" stop-color="#FFA195"/>
</linearGradient>
<linearGradient id="paint115_linear_17_13" x1="458.941" y1="715.644" x2="458.941" y2="674.295" gradientUnits="userSpaceOnUse">
<stop stop-color="#C50B79"/>
<stop offset="1" stop-color="#E51160"/>
</linearGradient>
<linearGradient id="paint116_linear_17_13" x1="466.533" y1="709.025" x2="466.533" y2="655.761" gradientUnits="userSpaceOnUse">
<stop offset="0.016" stop-color="#FFC2A0"/>
<stop offset="1" stop-color="#FFA195"/>
</linearGradient>
<linearGradient id="paint117_linear_17_13" x1="284.046" y1="714.921" x2="284.046" y2="553.488" gradientUnits="userSpaceOnUse">
<stop stop-color="#C9B6E9"/>
<stop offset="1" stop-color="#BBABD1"/>
</linearGradient>
<linearGradient id="paint118_linear_17_13" x1="284.046" y1="566.208" x2="284.046" y2="549.038" gradientUnits="userSpaceOnUse">
<stop stop-color="#D8CAEF"/>
<stop offset="1" stop-color="#EADEF4"/>
</linearGradient>
<linearGradient id="paint119_linear_17_13" x1="481.161" y1="686.247" x2="481.161" y2="671.175" gradientUnits="userSpaceOnUse">
<stop offset="0.016" stop-color="white"/>
<stop offset="0.9916" stop-color="#EA9DC8"/>
</linearGradient>
<linearGradient id="paint120_linear_17_13" x1="494.395" y1="698.613" x2="494.395" y2="687.832" gradientUnits="userSpaceOnUse">
<stop offset="0.016" stop-color="white"/>
<stop offset="0.9916" stop-color="#EA9DC8"/>
</linearGradient>
<linearGradient id="paint121_linear_17_13" x1="368.408" y1="507.29" x2="368.408" y2="459.755" gradientUnits="userSpaceOnUse">
<stop offset="0.016" stop-color="white"/>
<stop offset="0.9916" stop-color="#C2798B"/>
</linearGradient>
<linearGradient id="paint122_linear_17_13" x1="223.284" y1="512.739" x2="223.284" y2="451.214" gradientUnits="userSpaceOnUse">
<stop offset="0.016" stop-color="white"/>
<stop offset="0.9916" stop-color="#C2798B"/>
</linearGradient>
<linearGradient id="paint123_linear_17_13" x1="93.5841" y1="464.794" x2="93.5841" y2="421.787" gradientUnits="userSpaceOnUse">
<stop offset="0.016" stop-color="white"/>
<stop offset="0.9916" stop-color="#F29DC8"/>
</linearGradient>
<linearGradient id="paint124_linear_17_13" x1="294.041" y1="288.97" x2="316.548" y2="288.97" gradientUnits="userSpaceOnUse">
<stop offset="0.00837989" stop-color="#F29DC8"/>
<stop offset="0.984" stop-color="white"/>
</linearGradient>
<linearGradient id="paint125_linear_17_13" x1="298.214" y1="290.996" x2="323.178" y2="290.996" gradientUnits="userSpaceOnUse">
<stop offset="0.00837989" stop-color="#F29DC8"/>
<stop offset="0.984" stop-color="white"/>
</linearGradient>
<linearGradient id="paint126_linear_17_13" x1="242.732" y1="293.804" x2="257.861" y2="293.804" gradientUnits="userSpaceOnUse">
<stop offset="0.016" stop-color="white"/>
<stop offset="0.9916" stop-color="#F29DC8"/>
</linearGradient>
<linearGradient id="paint127_linear_17_13" x1="234.289" y1="295.743" x2="255.472" y2="295.743" gradientUnits="userSpaceOnUse">
<stop offset="0.016" stop-color="white"/>
<stop offset="0.9916" stop-color="#F29DC8"/>
</linearGradient>
<linearGradient id="paint128_linear_17_13" x1="100.402" y1="380.239" x2="100.402" y2="372.195" gradientUnits="userSpaceOnUse">
<stop offset="0.00837989" stop-color="#EA9DC8"/>
<stop offset="0.984" stop-color="#FFDBD6"/>
</linearGradient>
<linearGradient id="paint129_linear_17_13" x1="77.7683" y1="397.596" x2="77.7683" y2="395.89" gradientUnits="userSpaceOnUse">
<stop offset="0.00837989" stop-color="#EA9DC8"/>
<stop offset="0.984" stop-color="#FFDBD6"/>
</linearGradient>
<linearGradient id="paint130_linear_17_13" x1="400" y1="714.926" x2="400" y2="732.001" gradientUnits="userSpaceOnUse">
<stop stop-color="#6F67F0"/>
<stop offset="1" stop-color="#59068C"/>
</linearGradient>
</defs>
</svg>
