<svg width="541" height="496" viewBox="0 0 541 496" fill="none" xmlns="http://www.w3.org/2000/svg">
<g filter="url(#filter0_d_56_307)">
<g clip-path="url(#clip0_56_307)">
<path d="M10 35C10 21.1929 21.1929 10 35 10H496C509.807 10 521 21.1929 521 35V451C521 464.807 509.807 476 496 476H35C21.1929 476 10 464.807 10 451V35Z" fill="white"/>
<path d="M21.6319 106.708L20.3672 108.282L32.4961 115.326L29.9667 105.879C27.0018 106.687 24.2028 106.956 21.6319 106.708Z" fill="white"/>
<path d="M69.6941 37.1004L79.19 34.4901L67.0403 27.4258L66.2109 29.5596C67.7245 31.6312 68.9063 34.1586 69.6941 37.1004Z" fill="white"/>
<path d="M53.6232 53.4044C53.5817 53.0315 53.5402 52.6586 53.4573 52.3064C53.4158 52.0992 53.3536 51.9128 53.2914 51.7056C53.2085 51.3949 53.1463 51.1048 53.0634 50.8148C53.0012 50.6077 52.9182 50.4419 52.8353 50.2348C52.7316 49.9654 52.6487 49.6961 52.5243 49.4682C52.4414 49.2818 52.3377 49.1161 52.2341 48.9503C52.1097 48.7225 52.0059 48.4946 51.8608 48.2874C51.7571 48.1217 51.612 47.9767 51.5084 47.8109C51.3632 47.6245 51.2389 47.4173 51.073 47.2516C50.9486 47.1066 50.8034 46.9823 50.6583 46.8373C50.4924 46.6715 50.3473 46.5058 50.1814 46.3815C50.0363 46.2572 49.8704 46.1536 49.7046 46.05C47.258 44.3513 43.9199 44.1648 40.1465 45.7393C40.2294 46.4229 40.2916 47.148 40.2916 47.9145C40.2916 48.4946 40.2709 49.0539 40.2294 49.6547C40.2087 49.8412 40.188 50.0276 40.1672 50.214C40.1258 50.5869 40.0843 50.9598 40.0221 51.3327C39.9599 51.7471 39.8769 52.1614 39.8147 52.5757C39.7525 52.8657 39.7111 53.1558 39.6489 53.4458C39.5867 53.7151 39.5245 53.9844 39.4623 54.2538C39.3586 54.6267 39.2757 54.9995 39.172 55.3724C39.1098 55.5796 39.0476 55.8075 38.9647 56.0146C38.8403 56.429 38.6952 56.864 38.55 57.2784C38.4878 57.4441 38.4256 57.6305 38.3634 57.7963C38.1561 58.3763 37.9073 58.9564 37.6585 59.5157C37.6378 59.5779 37.5963 59.64 37.5756 59.7022C37.3475 60.2201 37.1194 60.7173 36.8499 61.2145C36.767 61.3802 36.684 61.5252 36.6011 61.691C36.3523 62.1674 36.1035 62.6232 35.834 63.0997C35.7718 63.2033 35.7303 63.2861 35.6681 63.3897C35.3571 63.9283 35.0254 64.4669 34.6729 65.0056C34.5692 65.1506 34.4656 65.3163 34.3619 65.4613C34.1131 65.8342 33.8436 66.2071 33.574 66.58C33.4289 66.7872 33.2837 66.9736 33.1386 67.1808C32.9105 67.4916 32.6617 67.7816 32.4337 68.0923C32.2263 68.3409 32.019 68.5895 31.8117 68.8381C31.6251 69.066 31.4177 69.2939 31.2104 69.5218C30.8579 69.8947 30.5262 70.2676 30.1737 70.6405C29.9457 70.8683 29.7383 71.0962 29.5103 71.3034C29.3444 71.4691 29.1578 71.6349 28.9712 71.8006C28.681 72.0699 28.3907 72.3185 28.0797 72.5671C27.8931 72.7121 27.7272 72.8571 27.5406 73.0021C27.2089 73.2507 26.8771 73.4993 26.5454 73.7479C26.3795 73.8722 26.2344 73.9758 26.0686 74.1001C25.571 74.4316 25.0734 74.763 24.5758 75.0531C24.0989 75.3431 23.622 75.571 23.1452 75.7989C23.0208 75.861 22.8963 75.9231 22.7719 75.9646C22.6683 76.006 22.5646 76.0475 22.4609 76.0889C22.9171 79.9007 24.555 82.6146 26.9601 84.0026C27.2918 84.189 27.6235 84.334 27.976 84.479C28.0589 84.4998 28.1212 84.5412 28.2041 84.5619C28.2248 84.5619 28.2456 84.5826 28.2456 84.5826C28.5151 84.6862 28.8053 84.7691 29.1163 84.8312C29.1993 84.8519 29.2615 84.8726 29.3444 84.8934C29.3652 84.8934 29.3652 84.8934 29.3652 84.8934C29.7384 84.9555 30.1323 85.0177 30.5262 85.0384C30.5884 85.0384 30.6506 85.0384 30.7128 85.0384C30.7336 85.0384 30.775 85.0384 30.7958 85.0384C31.1068 85.0384 31.4385 85.0384 31.7495 85.0177C31.8946 84.9969 32.0398 84.997 32.2056 84.9762H32.2263C32.4959 84.9348 32.7654 84.8934 33.035 84.8519C33.2423 84.8105 33.4496 84.7691 33.6569 84.7276H33.6777C33.9058 84.6655 34.1339 84.6033 34.3619 84.5412C34.7144 84.4376 35.0876 84.3133 35.4608 84.1683C35.4608 84.1683 35.4607 84.1683 35.4815 84.1683C35.7303 84.0647 35.9998 83.9818 36.2486 83.8575C36.373 83.7954 36.4974 83.7539 36.6218 83.6918C37.0987 83.4639 37.5756 83.236 38.0525 82.946C38.5501 82.656 39.0477 82.3245 39.5453 81.9931C39.7111 81.8895 39.8562 81.7652 40.0221 81.6409C40.188 81.5373 40.3331 81.413 40.4782 81.2887C40.6441 81.1644 40.8307 81.0401 40.9966 80.8951C41.1832 80.7501 41.349 80.6051 41.5356 80.46C41.7015 80.315 41.8673 80.17 42.0125 80.025C42.1369 79.9007 42.282 79.7971 42.4064 79.6728C42.5723 79.5071 42.7589 79.3414 42.9247 79.1756C43.1528 78.9685 43.3809 78.7406 43.5882 78.5127C43.9407 78.1605 44.2932 77.7876 44.6249 77.394C44.8322 77.1661 45.0396 76.9383 45.2262 76.7104C45.4335 76.4618 45.6409 76.2132 45.8275 75.9646C46.0763 75.6745 46.3043 75.3638 46.5324 75.0531C46.6775 74.8666 46.8226 74.6594 46.9678 74.4523C47.2373 74.0794 47.4861 73.7065 47.7556 73.3336C47.8593 73.1886 47.9629 73.0436 48.0459 72.8778C48.3776 72.3392 48.7094 71.8213 49.0411 71.262C49.1033 71.1584 49.1447 71.0755 49.2069 70.9719C49.4765 70.5162 49.7253 70.0397 49.9741 69.5632C50.0571 69.3975 50.14 69.2525 50.2229 69.0867C50.4717 68.5895 50.7205 68.0716 50.9278 67.5744C50.9486 67.5123 50.9901 67.4294 51.0108 67.3673C51.2596 66.7872 51.4877 66.2279 51.7157 65.6478C51.7779 65.4821 51.8401 65.2956 51.9023 65.1299C52.0474 64.7156 52.1925 64.3012 52.3169 63.8662C52.3791 63.659 52.4621 63.4311 52.5243 63.224C52.628 62.8511 52.7317 62.4782 52.8146 62.1053C52.8768 61.836 52.9597 61.5667 53.0219 61.2973C53.0841 61.0073 53.1256 60.7173 53.1878 60.448C53.2707 60.0336 53.3329 59.6193 53.3951 59.205C53.4573 58.8321 53.4988 58.4592 53.5403 58.0656C53.561 57.8791 53.5817 57.6927 53.6025 57.527C53.6439 56.9469 53.6647 56.3668 53.6647 55.7868C53.6647 55.1653 53.6232 54.5645 53.5817 54.0052C53.6854 53.7566 53.6439 53.5908 53.6232 53.4044Z" fill="white"/>
<path d="M44.4195 17.0475L54.5166 22.9103L63.0173 12.3035L49.5199 4.47266L42.3047 13.4636L43.6731 14.2715L44.4195 17.0475Z" fill="white"/>
<path d="M46.2257 23.7176C48.1746 23.1789 50.0199 22.9096 51.8029 22.8475C51.9066 22.8475 51.9896 22.8268 52.0932 22.8268C52.4872 22.8268 52.8811 22.8268 53.2543 22.8475C53.5653 22.8475 53.8556 22.8682 54.1666 22.8889C54.291 22.8889 54.3946 22.8889 54.519 22.9096L44.4219 17.0469L46.2257 23.7176Z" fill="white"/>
<path d="M21.4467 41.9677C22.587 40.5382 23.7687 39.1917 24.9713 37.8865C25.0957 37.7415 25.2201 37.6172 25.3445 37.4722C25.7799 36.9957 26.2568 36.54 26.7129 36.0842C26.8995 35.8978 27.0861 35.7113 27.2727 35.5249C28.0813 34.7376 28.9107 33.9504 29.74 33.2253L16.2426 25.3945C15.4132 26.1403 14.5839 26.9068 13.7753 27.6941C13.6924 27.7562 13.6302 27.8391 13.5472 27.9012C13.174 28.2741 12.8008 28.6677 12.4276 29.0406C12.241 29.2478 12.0337 29.4342 11.8471 29.6414C11.2044 30.325 10.5824 31.0087 9.96036 31.713C9.93962 31.7338 9.9396 31.7338 9.9396 31.7545C9.2554 32.5417 8.59195 33.3289 7.94922 34.1576L21.4467 41.9677Z" fill="white"/>
<path d="M32.2276 20.8789L18.7302 13.0273L16.2422 25.3743L29.7396 33.2259L32.2276 20.8789Z" fill="white"/>
<path d="M43.6688 14.2722L42.3004 13.4643L30.1714 6.44141L18.7266 13.0292L32.2239 20.8808L43.6688 14.2722Z" fill="white"/>
<path d="M21.4434 41.9696L7.96675 34.1388L-0.554688 33.3516L12.9427 41.2031L21.4434 41.9696Z" fill="white"/>
<path d="M12.9455 41.2031L-0.551948 33.3516L-8.61719 47.3352L4.85949 55.166L12.9455 41.2031Z" fill="white"/>
<path d="M69.7518 56.0152L79.2477 47.6458L79.2062 34.4908L69.7104 37.1011C68.9225 34.1594 67.7407 31.6527 66.2272 29.581L67.0565 27.4472L71.141 16.944L63.0135 12.3242L54.5128 22.9103C54.4091 22.8896 54.2847 22.9103 54.1603 22.8896C53.8701 22.8689 53.5591 22.8482 53.2481 22.8482C52.8541 22.8275 52.4809 22.8275 52.087 22.8275C51.9833 22.8275 51.9004 22.8482 51.7967 22.8482C50.0136 22.9103 48.1476 23.2003 46.2194 23.7183L44.4364 17.0269L43.69 14.2508L32.2452 20.8594L29.7779 33.2064C28.9486 33.9522 28.1192 34.7187 27.3106 35.5059C27.124 35.6924 26.9374 35.8788 26.7508 36.0653C26.2947 36.521 25.8386 36.9768 25.3824 37.4533C25.258 37.5776 25.1336 37.7226 25.0093 37.8676C23.786 39.1727 22.6042 40.54 21.4846 41.9487L12.9632 41.1615L4.89788 55.1244L9.87387 62.0437C9.04453 64.1775 8.31889 66.3113 7.69689 68.4451C7.59322 68.8387 7.48957 69.2323 7.3859 69.6052C7.17857 70.3924 6.99197 71.1796 6.80537 71.9461C6.68097 72.4848 6.55654 73.0234 6.45288 73.5413L-3.04297 81.89L-3.00152 95.045L0.0462801 94.2163L6.49438 92.4554C7.26152 95.3972 8.4433 97.9038 9.97757 99.9755L5.04303 112.592L13.1705 117.212L20.3857 108.221L21.6505 106.646C24.2214 106.895 26.9996 106.646 29.9645 105.818L32.494 115.264L43.9388 108.656L46.4061 96.3087C49.3502 93.7398 52.1285 90.7774 54.6787 87.5663L63.2 88.3328L71.2654 74.37L66.2894 67.4714C67.8236 63.701 68.9847 59.827 69.7518 56.0152ZM53.6628 58.0247C53.6213 58.3976 53.5798 58.7705 53.5176 59.1641C53.4554 59.5784 53.3932 59.9928 53.3103 60.4071C53.2481 60.6971 53.2066 60.9871 53.1444 61.2565C53.0822 61.5258 53.02 61.7951 52.9371 62.0644C52.8334 62.4373 52.7504 62.8102 52.6468 63.1831C52.5846 63.3902 52.5224 63.6181 52.4394 63.8253C52.315 64.2396 52.1699 64.6539 52.0248 65.089C51.9626 65.2547 51.9004 65.4412 51.8382 65.6069C51.6309 66.187 51.3821 66.767 51.1333 67.3264C51.1125 67.3885 51.071 67.4714 51.0296 67.5335C50.8015 68.0514 50.5735 68.5486 50.3247 69.0458C50.2417 69.2116 50.1588 69.3566 50.0759 69.5223C49.8271 69.9988 49.5783 70.4545 49.3087 70.931C49.2465 71.0346 49.205 71.1175 49.1428 71.2211C48.8318 71.7597 48.5001 72.2983 48.1477 72.8369C48.044 72.982 47.9403 73.127 47.8574 73.2927C47.6086 73.6656 47.339 74.0592 47.0695 74.4114C46.9244 74.6185 46.7793 74.805 46.6341 75.0122C46.4061 75.3229 46.1573 75.6129 45.9292 75.9237C45.7219 76.1723 45.5352 76.4209 45.3279 76.6695C45.1206 76.8974 44.934 77.1253 44.7267 77.3531C44.395 77.726 44.0425 78.0989 43.69 78.4718C43.462 78.6997 43.2546 78.9276 43.0265 79.1347C42.8607 79.3005 42.6741 79.4662 42.5082 79.6319C42.3838 79.7562 42.2387 79.8598 42.1143 79.9841C41.6167 80.4192 41.0984 80.8542 40.58 81.2478C40.4349 81.3721 40.269 81.4757 40.1239 81.6C39.958 81.7036 39.8129 81.8279 39.647 81.9522C39.1494 82.2836 38.6518 82.6151 38.1542 82.9051C37.5529 83.2573 36.9517 83.5474 36.3504 83.8167C36.0809 83.941 35.8321 84.0238 35.5833 84.1274C35.2101 84.2724 34.8369 84.3967 34.4637 84.5003C34.2356 84.5624 34.0075 84.6453 33.7794 84.6868C33.5513 84.7489 33.344 84.7903 33.1367 84.8318C32.8672 84.8939 32.5977 84.9353 32.3281 84.956C32.1623 84.9768 32.0171 84.9975 31.8512 84.9975C31.5195 85.0182 31.2085 85.0182 30.8975 85.0182C30.8146 85.0182 30.7109 85.0182 30.628 85.0182C30.234 84.9975 29.8401 84.9561 29.4669 84.8732C29.384 84.8525 29.301 84.8318 29.1974 84.8111C28.9071 84.7489 28.6169 84.666 28.3266 84.5625C28.2229 84.521 28.14 84.5003 28.0363 84.4589C27.6838 84.3139 27.3521 84.1688 27.0204 83.9824C24.6153 82.6151 22.9774 79.8805 22.5212 76.0687C22.4383 75.3643 22.3761 74.66 22.3761 73.8935C22.3553 63.9496 29.384 51.8098 38.0298 46.7964C38.7555 46.3821 39.4604 46.0506 40.1446 45.7606C43.918 44.1654 47.2769 44.3726 49.7027 46.0713C49.8685 46.1749 50.0344 46.2785 50.1795 46.4028C50.3454 46.5478 50.5113 46.7135 50.6564 46.8585C50.8015 47.0035 50.9467 47.1071 51.0711 47.2729C51.2162 47.4386 51.3613 47.6458 51.5065 47.8322C51.6309 47.9979 51.7552 48.1429 51.8589 48.3087C52.004 48.5158 52.1077 48.7437 52.2321 48.9716C52.3358 49.1581 52.4394 49.3031 52.5224 49.4895C52.6468 49.7381 52.7297 50.0074 52.8334 50.256C52.9163 50.4425 52.9993 50.6289 53.0615 50.8361C53.1444 51.1261 53.2273 51.4369 53.2895 51.7269C53.331 51.9341 53.3932 52.1205 53.4554 52.3277C53.5176 52.6799 53.559 53.0527 53.6212 53.4256C53.642 53.6121 53.6835 53.7778 53.7042 53.985C53.7664 54.565 53.7871 55.1451 53.7871 55.7666C53.7871 56.4917 53.725 57.2582 53.6628 58.0247Z" fill="white"/>
<path opacity="0.2" d="M21.6319 106.708L20.3672 108.282L32.4961 115.326L29.9667 105.879C27.0018 106.687 24.2028 106.956 21.6319 106.708Z" fill="black"/>
<path opacity="0.2" d="M69.6941 37.1004L79.19 34.4901L67.0403 27.4258L66.2109 29.5596C67.7245 31.6312 68.9063 34.1586 69.6941 37.1004Z" fill="black"/>
<path opacity="0.2" d="M53.6232 53.4044C53.5817 53.0315 53.5402 52.6586 53.4573 52.3064C53.4158 52.0992 53.3536 51.9128 53.2914 51.7056C53.2085 51.3949 53.1463 51.1048 53.0634 50.8148C53.0012 50.6077 52.9182 50.4419 52.8353 50.2348C52.7316 49.9654 52.6487 49.6961 52.5243 49.4682C52.4414 49.2818 52.3377 49.1161 52.2341 48.9503C52.1097 48.7225 52.0059 48.4946 51.8608 48.2874C51.7571 48.1217 51.612 47.9767 51.5084 47.8109C51.3632 47.6245 51.2389 47.4173 51.073 47.2516C50.9486 47.1066 50.8034 46.9823 50.6583 46.8373C50.4924 46.6715 50.3473 46.5058 50.1814 46.3815C50.0363 46.2572 49.8704 46.1536 49.7046 46.05C47.258 44.3513 43.9199 44.1648 40.1465 45.7393C40.2294 46.4229 40.2916 47.148 40.2916 47.9145C40.2916 48.4946 40.2709 49.0539 40.2294 49.6547C40.2087 49.8412 40.188 50.0276 40.1672 50.214C40.1258 50.5869 40.0843 50.9598 40.0221 51.3327C39.9599 51.7471 39.8769 52.1614 39.8147 52.5757C39.7525 52.8657 39.7111 53.1558 39.6489 53.4458C39.5867 53.7151 39.5245 53.9844 39.4623 54.2538C39.3586 54.6267 39.2757 54.9995 39.172 55.3724C39.1098 55.5796 39.0476 55.8075 38.9647 56.0146C38.8403 56.429 38.6952 56.864 38.55 57.2784C38.4878 57.4441 38.4256 57.6305 38.3634 57.7963C38.1561 58.3763 37.9073 58.9564 37.6585 59.5157C37.6378 59.5779 37.5963 59.64 37.5756 59.7022C37.3475 60.2201 37.1194 60.7173 36.8499 61.2145C36.767 61.3802 36.684 61.5252 36.6011 61.691C36.3523 62.1674 36.1035 62.6232 35.834 63.0997C35.7718 63.2033 35.7303 63.2861 35.6681 63.3897C35.3571 63.9283 35.0254 64.4669 34.6729 65.0056C34.5692 65.1506 34.4656 65.3163 34.3619 65.4613C34.1131 65.8342 33.8436 66.2071 33.574 66.58C33.4289 66.7872 33.2837 66.9736 33.1386 67.1808C32.9105 67.4916 32.6617 67.7816 32.4337 68.0923C32.2263 68.3409 32.019 68.5895 31.8117 68.8381C31.6251 69.066 31.4177 69.2939 31.2104 69.5218C30.8579 69.8947 30.5262 70.2676 30.1737 70.6405C29.9457 70.8683 29.7383 71.0962 29.5103 71.3034C29.3444 71.4691 29.1578 71.6349 28.9712 71.8006C28.681 72.0699 28.3907 72.3185 28.0797 72.5671C27.8931 72.7121 27.7272 72.8571 27.5406 73.0021C27.2089 73.2507 26.8771 73.4993 26.5454 73.7479C26.3795 73.8722 26.2344 73.9758 26.0686 74.1001C25.571 74.4316 25.0734 74.763 24.5758 75.0531C24.0989 75.3431 23.622 75.571 23.1452 75.7989C23.0208 75.861 22.8963 75.9231 22.7719 75.9646C22.6683 76.006 22.5646 76.0475 22.4609 76.0889C22.9171 79.9007 24.555 82.6146 26.9601 84.0026C27.2918 84.189 27.6235 84.334 27.976 84.479C28.0589 84.4998 28.1212 84.5412 28.2041 84.5619C28.2248 84.5619 28.2456 84.5826 28.2456 84.5826C28.5151 84.6862 28.8053 84.7691 29.1163 84.8312C29.1993 84.8519 29.2615 84.8726 29.3444 84.8934C29.3652 84.8934 29.3652 84.8934 29.3652 84.8934C29.7384 84.9555 30.1323 85.0177 30.5262 85.0384C30.5884 85.0384 30.6506 85.0384 30.7128 85.0384C30.7336 85.0384 30.775 85.0384 30.7958 85.0384C31.1068 85.0384 31.4385 85.0384 31.7495 85.0177C31.8946 84.9969 32.0398 84.997 32.2056 84.9762H32.2263C32.4959 84.9348 32.7654 84.8934 33.035 84.8519C33.2423 84.8105 33.4496 84.7691 33.6569 84.7276H33.6777C33.9058 84.6655 34.1339 84.6033 34.3619 84.5412C34.7144 84.4376 35.0876 84.3133 35.4608 84.1683C35.4608 84.1683 35.4607 84.1683 35.4815 84.1683C35.7303 84.0647 35.9998 83.9818 36.2486 83.8575C36.373 83.7954 36.4974 83.7539 36.6218 83.6918C37.0987 83.4639 37.5756 83.236 38.0525 82.946C38.5501 82.656 39.0477 82.3245 39.5453 81.9931C39.7111 81.8895 39.8562 81.7652 40.0221 81.6409C40.188 81.5373 40.3331 81.413 40.4782 81.2887C40.6441 81.1644 40.8307 81.0401 40.9966 80.8951C41.1832 80.7501 41.349 80.6051 41.5356 80.46C41.7015 80.315 41.8673 80.17 42.0125 80.025C42.1369 79.9007 42.282 79.7971 42.4064 79.6728C42.5723 79.5071 42.7589 79.3414 42.9247 79.1756C43.1528 78.9685 43.3809 78.7406 43.5882 78.5127C43.9407 78.1605 44.2932 77.7876 44.6249 77.394C44.8322 77.1661 45.0396 76.9383 45.2262 76.7104C45.4335 76.4618 45.6409 76.2132 45.8275 75.9646C46.0763 75.6745 46.3043 75.3638 46.5324 75.0531C46.6775 74.8666 46.8226 74.6594 46.9678 74.4523C47.2373 74.0794 47.4861 73.7065 47.7556 73.3336C47.8593 73.1886 47.9629 73.0436 48.0459 72.8778C48.3776 72.3392 48.7094 71.8213 49.0411 71.262C49.1033 71.1584 49.1447 71.0755 49.2069 70.9719C49.4765 70.5162 49.7253 70.0397 49.9741 69.5632C50.0571 69.3975 50.14 69.2525 50.2229 69.0867C50.4717 68.5895 50.7205 68.0716 50.9278 67.5744C50.9486 67.5123 50.9901 67.4294 51.0108 67.3673C51.2596 66.7872 51.4877 66.2279 51.7157 65.6478C51.7779 65.4821 51.8401 65.2956 51.9023 65.1299C52.0474 64.7156 52.1925 64.3012 52.3169 63.8662C52.3791 63.659 52.4621 63.4311 52.5243 63.224C52.628 62.8511 52.7317 62.4782 52.8146 62.1053C52.8768 61.836 52.9597 61.5667 53.0219 61.2973C53.0841 61.0073 53.1256 60.7173 53.1878 60.448C53.2707 60.0336 53.3329 59.6193 53.3951 59.205C53.4573 58.8321 53.4988 58.4592 53.5403 58.0656C53.561 57.8791 53.5817 57.6927 53.6025 57.527C53.6439 56.9469 53.6647 56.3668 53.6647 55.7868C53.6647 55.1653 53.6232 54.5645 53.5817 54.0052C53.6854 53.7566 53.6439 53.5908 53.6232 53.4044Z" fill="black"/>
<path opacity="0.2" d="M46.2257 23.7176C48.1746 23.1789 50.0199 22.9096 51.8029 22.8475C51.9066 22.8475 51.9896 22.8268 52.0932 22.8268C52.4872 22.8268 52.8811 22.8268 53.2543 22.8475C53.5653 22.8475 53.8556 22.8682 54.1666 22.8889C54.291 22.8889 54.3946 22.8889 54.519 22.9096L44.4219 17.0469L46.2257 23.7176Z" fill="black"/>
<path opacity="0.2" d="M32.2276 20.8789L18.7302 13.0273L16.2422 25.3743L29.7396 33.2259L32.2276 20.8789Z" fill="black"/>
<path opacity="0.2" d="M21.4434 41.9696L7.96675 34.1388L-0.554688 33.3516L12.9427 41.2031L21.4434 41.9696Z" fill="black"/>
<path opacity="0.2" d="M44.4195 17.0475L54.5166 22.9103L63.0173 12.3035L49.5199 4.47266L42.3047 13.4636L43.6731 14.2715L44.4195 17.0475Z" fill="white"/>
<path opacity="0.2" d="M21.4467 41.9677C22.587 40.5382 23.7687 39.1917 24.9713 37.8865C25.0957 37.7415 25.2201 37.6172 25.3445 37.4722C25.7799 36.9957 26.2568 36.54 26.7129 36.0842C26.8995 35.8978 27.0861 35.7113 27.2727 35.5249C28.0813 34.7376 28.9107 33.9504 29.74 33.2253L16.2426 25.3945C15.4132 26.1403 14.5839 26.9068 13.7753 27.6941C13.6924 27.7562 13.6302 27.8391 13.5472 27.9012C13.174 28.2741 12.8008 28.6677 12.4276 29.0406C12.241 29.2478 12.0337 29.4342 11.8471 29.6414C11.2044 30.325 10.5824 31.0087 9.96036 31.713C9.93962 31.7338 9.9396 31.7338 9.9396 31.7545C9.2554 32.5417 8.59195 33.3289 7.94922 34.1576L21.4467 41.9677Z" fill="white"/>
<path opacity="0.2" d="M43.6688 14.2722L42.3004 13.4643L30.1714 6.44141L18.7266 13.0292L32.2239 20.8808L43.6688 14.2722Z" fill="white"/>
<path opacity="0.2" d="M12.9455 41.2031L-0.551948 33.3516L-8.61719 47.3352L4.85949 55.166L12.9455 41.2031Z" fill="white"/>
<path d="M116.61 61.093L115.719 62.2117L124.302 67.1836L122.499 60.4922C120.404 61.093 118.435 61.2587 116.61 61.093Z" fill="white"/>
<path d="M150.612 11.8481L157.329 10.0044L148.725 5.01172L148.145 6.52403C149.223 7.99489 150.052 9.77651 150.612 11.8481Z" fill="white"/>
<path d="M139.248 23.3878C139.207 23.1185 139.186 22.8699 139.124 22.6213C139.103 22.4763 139.041 22.3313 139.02 22.1862C138.958 21.9791 138.916 21.7512 138.854 21.544C138.813 21.399 138.75 21.2747 138.688 21.1297C138.626 20.9433 138.543 20.7568 138.481 20.5704C138.419 20.4461 138.336 20.3218 138.274 20.1975C138.191 20.0317 138.108 19.866 138.004 19.721C137.921 19.5967 137.838 19.4931 137.755 19.3895C137.652 19.2652 137.569 19.1202 137.444 18.9959C137.361 18.8923 137.237 18.8095 137.154 18.7059C137.05 18.6023 136.926 18.478 136.802 18.3744C136.698 18.2916 136.574 18.2294 136.47 18.1466C134.749 16.945 132.365 16.8 129.711 17.9394C129.773 18.4366 129.814 18.9338 129.814 19.4724C129.814 19.866 129.794 20.2803 129.773 20.6947C129.773 20.819 129.752 20.964 129.732 21.0883C129.711 21.3576 129.669 21.6269 129.628 21.8755C129.586 22.1655 129.524 22.4556 129.483 22.7663C129.441 22.9735 129.4 23.1806 129.358 23.3671C129.317 23.5535 129.275 23.74 129.213 23.9264C129.151 24.1958 129.068 24.4651 129.006 24.7137C128.964 24.8587 128.923 25.0244 128.861 25.1694C128.757 25.4595 128.674 25.7702 128.57 26.0602C128.529 26.1845 128.487 26.3088 128.446 26.4331C128.301 26.8475 128.135 27.2411 127.948 27.6554C127.928 27.6968 127.907 27.7383 127.886 27.8004C127.72 28.1526 127.555 28.5255 127.389 28.8777C127.326 28.9812 127.285 29.1055 127.223 29.2091C127.057 29.5406 126.87 29.8721 126.684 30.2035C126.642 30.2657 126.601 30.3278 126.58 30.4107C126.352 30.8043 126.124 31.1772 125.875 31.5501C125.813 31.6537 125.73 31.7572 125.668 31.8608C125.481 32.1301 125.295 32.3995 125.108 32.6481C125.004 32.7931 124.901 32.9381 124.797 33.0624C124.631 33.2695 124.465 33.4974 124.299 33.7046C124.154 33.891 124.009 34.0568 123.864 34.2225C123.719 34.3882 123.574 34.554 123.449 34.699C123.2 34.9683 122.952 35.2376 122.703 35.4862C122.558 35.6519 122.392 35.797 122.226 35.9627C122.102 36.087 121.977 36.1906 121.853 36.3149C121.645 36.5013 121.438 36.6878 121.231 36.8535C121.106 36.9571 120.982 37.0607 120.858 37.1642C120.63 37.3507 120.401 37.5164 120.153 37.6821C120.049 37.765 119.925 37.8479 119.821 37.9307C119.468 38.1793 119.116 38.3865 118.764 38.5937C118.411 38.8008 118.079 38.9666 117.748 39.1116C117.665 39.153 117.582 39.1945 117.478 39.2359C117.395 39.2773 117.333 39.298 117.25 39.3188C117.582 42.0119 118.722 43.9385 120.443 44.9122C120.671 45.0365 120.92 45.1401 121.148 45.2437C121.21 45.2644 121.252 45.2851 121.314 45.3058C121.334 45.3058 121.334 45.3058 121.355 45.3265C121.563 45.3887 121.749 45.4508 121.957 45.4922C122.019 45.513 122.06 45.513 122.122 45.5337H122.143C122.413 45.5751 122.682 45.6165 122.952 45.6373C122.993 45.6373 123.035 45.6373 123.097 45.6373C123.118 45.6373 123.138 45.6373 123.159 45.6373C123.387 45.6373 123.615 45.6373 123.843 45.6165C123.947 45.6165 124.051 45.5958 124.154 45.5751H124.175C124.362 45.5544 124.569 45.513 124.755 45.4922C124.901 45.4715 125.046 45.4301 125.191 45.3887C125.191 45.3887 125.191 45.3887 125.212 45.3887C125.377 45.3472 125.543 45.3058 125.688 45.2437C125.937 45.1608 126.207 45.0779 126.476 44.9743C126.663 44.9122 126.829 44.8293 127.015 44.7464C127.098 44.705 127.181 44.6636 127.264 44.6222C127.596 44.4564 127.928 44.2907 128.28 44.1042C128.633 43.8971 128.985 43.6692 129.338 43.4413C129.441 43.3585 129.566 43.2756 129.669 43.1927C129.773 43.1098 129.897 43.027 130.001 42.9441C130.125 42.8613 130.25 42.7577 130.374 42.6748C130.499 42.5712 130.623 42.4676 130.747 42.3641C130.872 42.2605 130.975 42.1569 131.1 42.0533C131.204 41.9705 131.286 41.8876 131.39 41.8047C131.515 41.7011 131.639 41.5768 131.763 41.4525C131.929 41.3075 132.074 41.1418 132.24 40.9761C132.489 40.7275 132.738 40.4582 132.987 40.1888C133.132 40.0231 133.277 39.8781 133.422 39.7124C133.567 39.5466 133.712 39.3602 133.857 39.1944C134.023 38.9873 134.189 38.7801 134.355 38.5522C134.459 38.4072 134.562 38.2829 134.666 38.1379C134.853 37.8686 135.039 37.62 135.226 37.3507C135.288 37.2471 135.371 37.1435 135.433 37.0399C135.682 36.667 135.91 36.2941 136.138 35.9005C136.18 35.8384 136.221 35.7762 136.242 35.6934C136.428 35.3619 136.615 35.0304 136.781 34.699C136.843 34.5954 136.884 34.4711 136.947 34.3675C137.133 34.0153 137.299 33.6632 137.444 33.2903C137.465 33.2488 137.486 33.1867 137.507 33.1452C137.693 32.7516 137.838 32.3373 138.004 31.923C138.046 31.7987 138.087 31.6744 138.128 31.5501C138.232 31.2601 138.336 30.9493 138.419 30.6593C138.46 30.5143 138.522 30.3485 138.564 30.2035C138.647 29.9342 138.709 29.6856 138.771 29.4163C138.813 29.2298 138.875 29.0434 138.916 28.8569C138.958 28.6498 138.999 28.4426 139.041 28.2562C139.103 27.9661 139.144 27.6761 139.186 27.3654C139.227 27.096 139.248 26.8267 139.29 26.5574C139.31 26.4331 139.31 26.2881 139.331 26.1638C139.352 25.7495 139.373 25.3352 139.373 24.9415C139.373 24.5065 139.352 24.0714 139.31 23.6778C139.29 23.6364 139.248 23.5121 139.248 23.3878Z" fill="white"/>
<path d="M101.329 52.2852L99.1728 52.8859L98.2191 52.3266L95.3164 59.7431L104.874 65.2951L108.358 56.3663L101.329 52.2852Z" fill="white"/>
<path d="M105.889 51.043L101.328 52.286L108.357 56.3671C107.279 54.9169 106.429 53.1353 105.889 51.043Z" fill="white"/>
<path d="M106.097 36.5436C106.222 35.9843 106.367 35.4457 106.512 34.8863C106.595 34.617 106.657 34.327 106.74 34.0577C107.175 32.5454 107.694 31.0331 108.274 29.5208L98.7161 23.9688C98.6539 24.1138 98.6124 24.2381 98.5502 24.3831C98.4673 24.611 98.3844 24.8388 98.3014 25.0667C98.1563 25.4603 98.0111 25.8747 97.866 26.2683C97.8452 26.3511 97.8038 26.434 97.7623 26.5376C97.7001 26.724 97.6379 26.9312 97.5757 27.1177C97.4306 27.5734 97.2855 28.0292 97.1611 28.4642C97.1196 28.5885 97.0781 28.7128 97.0367 28.8371C96.9952 28.9821 96.9745 29.1271 96.933 29.2929C96.7879 29.8522 96.6427 30.3909 96.5183 30.9502C96.4769 31.1159 96.4354 31.2817 96.3939 31.4474C96.3525 31.6546 96.311 31.8824 96.2695 32.0896L105.828 37.6416C105.931 37.2894 106.014 36.9165 106.097 36.5436Z" fill="white"/>
<path d="M116.485 15.3048C117.294 14.2897 118.123 13.3367 118.973 12.4045C119.056 12.3009 119.139 12.2181 119.243 12.1145C119.554 11.783 119.885 11.4515 120.196 11.1408C120.321 11.0165 120.466 10.8715 120.59 10.7472C121.171 10.1879 121.751 9.62851 122.332 9.1106L112.774 3.55859C112.172 4.0765 111.592 4.63585 111.032 5.19519C110.991 5.23663 110.929 5.29878 110.866 5.34021C110.597 5.60952 110.348 5.87883 110.078 6.14815C109.933 6.29316 109.809 6.43817 109.664 6.56247C109.208 7.03895 108.772 7.53614 108.337 8.03334L108.316 8.05406C107.839 8.6134 107.362 9.17274 106.906 9.7528L116.485 15.3048Z" fill="white"/>
<path d="M105.849 37.6602L96.3113 32.1289L89.5938 38.0331L99.1311 43.5851L105.849 37.6602Z" fill="white"/>
<path d="M99.1311 43.5872L89.5938 38.0352L89.6145 47.3368L98.2188 52.3295L99.1725 52.8888L99.1311 43.5872Z" fill="white"/>
<path d="M104.748 24.6301L95.2109 19.0781L98.7356 23.9672L108.273 29.5192L104.748 24.6301Z" fill="white"/>
<path d="M116.485 15.3067L106.947 9.75465L100.914 9.19531L110.472 14.7473L116.485 15.3067Z" fill="white"/>
<path opacity="0.2" d="M116.61 61.093L115.719 62.2117L124.302 67.1836L122.499 60.4922C120.404 61.093 118.435 61.2587 116.61 61.093Z" fill="black"/>
<path opacity="0.2" d="M150.612 11.8481L157.329 10.0044L148.725 5.01172L148.145 6.52403C149.223 7.99489 150.052 9.77651 150.612 11.8481Z" fill="black"/>
<path opacity="0.2" d="M139.248 23.3878C139.207 23.1185 139.186 22.8699 139.124 22.6213C139.103 22.4763 139.041 22.3313 139.02 22.1862C138.958 21.9791 138.916 21.7512 138.854 21.544C138.813 21.399 138.75 21.2747 138.688 21.1297C138.626 20.9433 138.543 20.7568 138.481 20.5704C138.419 20.4461 138.336 20.3218 138.274 20.1975C138.191 20.0317 138.108 19.866 138.004 19.721C137.921 19.5967 137.838 19.4931 137.755 19.3895C137.652 19.2652 137.569 19.1202 137.444 18.9959C137.361 18.8923 137.237 18.8095 137.154 18.7059C137.05 18.6023 136.926 18.478 136.802 18.3744C136.698 18.2916 136.574 18.2294 136.47 18.1466C134.749 16.945 132.365 16.8 129.711 17.9394C129.773 18.4366 129.814 18.9338 129.814 19.4724C129.814 19.866 129.794 20.2803 129.773 20.6947C129.773 20.819 129.752 20.964 129.732 21.0883C129.711 21.3576 129.669 21.6269 129.628 21.8755C129.586 22.1655 129.524 22.4556 129.483 22.7663C129.441 22.9735 129.4 23.1806 129.358 23.3671C129.317 23.5535 129.275 23.74 129.213 23.9264C129.151 24.1958 129.068 24.4651 129.006 24.7137C128.964 24.8587 128.923 25.0244 128.861 25.1694C128.757 25.4595 128.674 25.7702 128.57 26.0602C128.529 26.1845 128.487 26.3088 128.446 26.4331C128.301 26.8475 128.135 27.2411 127.948 27.6554C127.928 27.6968 127.907 27.7383 127.886 27.8004C127.72 28.1526 127.555 28.5255 127.389 28.8777C127.326 28.9812 127.285 29.1055 127.223 29.2091C127.057 29.5406 126.87 29.8721 126.684 30.2035C126.642 30.2657 126.601 30.3278 126.58 30.4107C126.352 30.8043 126.124 31.1772 125.875 31.5501C125.813 31.6537 125.73 31.7572 125.668 31.8608C125.481 32.1301 125.295 32.3995 125.108 32.6481C125.004 32.7931 124.901 32.9381 124.797 33.0624C124.631 33.2695 124.465 33.4974 124.299 33.7046C124.154 33.891 124.009 34.0568 123.864 34.2225C123.719 34.3882 123.574 34.554 123.449 34.699C123.2 34.9683 122.952 35.2376 122.703 35.4862C122.558 35.6519 122.392 35.797 122.226 35.9627C122.102 36.087 121.977 36.1906 121.853 36.3149C121.645 36.5013 121.438 36.6878 121.231 36.8535C121.106 36.9571 120.982 37.0607 120.858 37.1642C120.63 37.3507 120.401 37.5164 120.153 37.6821C120.049 37.765 119.925 37.8479 119.821 37.9307C119.468 38.1793 119.116 38.3865 118.764 38.5937C118.411 38.8008 118.079 38.9666 117.748 39.1116C117.665 39.153 117.582 39.1945 117.478 39.2359C117.395 39.2773 117.333 39.298 117.25 39.3188C117.582 42.0119 118.722 43.9385 120.443 44.9122C120.671 45.0365 120.92 45.1401 121.148 45.2437C121.21 45.2644 121.252 45.2851 121.314 45.3058C121.334 45.3058 121.334 45.3058 121.355 45.3265C121.563 45.3887 121.749 45.4508 121.957 45.4922C122.019 45.513 122.06 45.513 122.122 45.5337H122.143C122.413 45.5751 122.682 45.6165 122.952 45.6373C122.993 45.6373 123.035 45.6373 123.097 45.6373C123.118 45.6373 123.138 45.6373 123.159 45.6373C123.387 45.6373 123.615 45.6373 123.843 45.6165C123.947 45.6165 124.051 45.5958 124.154 45.5751H124.175C124.362 45.5544 124.569 45.513 124.755 45.4922C124.901 45.4715 125.046 45.4301 125.191 45.3887C125.191 45.3887 125.191 45.3887 125.212 45.3887C125.377 45.3472 125.543 45.3058 125.688 45.2437C125.937 45.1608 126.207 45.0779 126.476 44.9743C126.663 44.9122 126.829 44.8293 127.015 44.7464C127.098 44.705 127.181 44.6636 127.264 44.6222C127.596 44.4564 127.928 44.2907 128.28 44.1042C128.633 43.8971 128.985 43.6692 129.338 43.4413C129.441 43.3585 129.566 43.2756 129.669 43.1927C129.773 43.1098 129.897 43.027 130.001 42.9441C130.125 42.8613 130.25 42.7577 130.374 42.6748C130.499 42.5712 130.623 42.4676 130.747 42.3641C130.872 42.2605 130.975 42.1569 131.1 42.0533C131.204 41.9705 131.286 41.8876 131.39 41.8047C131.515 41.7011 131.639 41.5768 131.763 41.4525C131.929 41.3075 132.074 41.1418 132.24 40.9761C132.489 40.7275 132.738 40.4582 132.987 40.1888C133.132 40.0231 133.277 39.8781 133.422 39.7124C133.567 39.5466 133.712 39.3602 133.857 39.1944C134.023 38.9873 134.189 38.7801 134.355 38.5522C134.459 38.4072 134.562 38.2829 134.666 38.1379C134.853 37.8686 135.039 37.62 135.226 37.3507C135.288 37.2471 135.371 37.1435 135.433 37.0399C135.682 36.667 135.91 36.2941 136.138 35.9005C136.18 35.8384 136.221 35.7762 136.242 35.6934C136.428 35.3619 136.615 35.0304 136.781 34.699C136.843 34.5954 136.884 34.4711 136.947 34.3675C137.133 34.0153 137.299 33.6632 137.444 33.2903C137.465 33.2488 137.486 33.1867 137.507 33.1452C137.693 32.7516 137.838 32.3373 138.004 31.923C138.046 31.7987 138.087 31.6744 138.128 31.5501C138.232 31.2601 138.336 30.9493 138.419 30.6593C138.46 30.5143 138.522 30.3485 138.564 30.2035C138.647 29.9342 138.709 29.6856 138.771 29.4163C138.813 29.2298 138.875 29.0434 138.916 28.8569C138.958 28.6498 138.999 28.4426 139.041 28.2562C139.103 27.9661 139.144 27.6761 139.186 27.3654C139.227 27.096 139.248 26.8267 139.29 26.5574C139.31 26.4331 139.31 26.2881 139.331 26.1638C139.352 25.7495 139.373 25.3352 139.373 24.9415C139.373 24.5065 139.352 24.0714 139.31 23.6778C139.29 23.6364 139.248 23.5121 139.248 23.3878Z" fill="black"/>
<path opacity="0.2" d="M101.329 52.2852L99.1728 52.8859L98.2191 52.3266L95.3164 59.7431L104.874 65.2951L108.358 56.3663L101.329 52.2852Z" fill="black"/>
<path opacity="0.2" d="M105.889 51.043L101.328 52.286L108.357 56.3671C107.279 54.9169 106.429 53.1353 105.889 51.043Z" fill="black"/>
<path opacity="0.2" d="M106.097 36.5436C106.222 35.9843 106.367 35.4457 106.512 34.8863C106.595 34.617 106.657 34.327 106.74 34.0577C107.175 32.5454 107.694 31.0331 108.274 29.5208L98.7161 23.9688C98.6539 24.1138 98.6124 24.2381 98.5502 24.3831C98.4673 24.611 98.3844 24.8388 98.3014 25.0667C98.1563 25.4603 98.0111 25.8747 97.866 26.2683C97.8452 26.3511 97.8038 26.434 97.7623 26.5376C97.7001 26.724 97.6379 26.9312 97.5757 27.1177C97.4306 27.5734 97.2855 28.0292 97.1611 28.4642C97.1196 28.5885 97.0781 28.7128 97.0367 28.8371C96.9952 28.9821 96.9745 29.1271 96.933 29.2929C96.7879 29.8522 96.6427 30.3909 96.5183 30.9502C96.4769 31.1159 96.4354 31.2817 96.3939 31.4474C96.3525 31.6546 96.311 31.8824 96.2695 32.0896L105.828 37.6416C105.931 37.2894 106.014 36.9165 106.097 36.5436Z" fill="black"/>
<path opacity="0.2" d="M99.1311 43.5872L89.5938 38.0352L89.6145 47.3368L98.2188 52.3295L99.1725 52.8888L99.1311 43.5872Z" fill="black"/>
<path opacity="0.2" d="M104.748 24.6301L95.2109 19.0781L98.7356 23.9672L108.273 29.5192L104.748 24.6301Z" fill="black"/>
<path opacity="0.2" d="M116.485 15.3067L106.947 9.75465L100.914 9.19531L110.472 14.7473L116.485 15.3067Z" fill="black"/>
<path d="M110.471 14.7473L100.913 9.19531L95.2109 19.077L104.748 24.6291L110.471 14.7473Z" fill="white"/>
<path opacity="0.2" d="M116.485 15.3048C117.294 14.2897 118.123 13.3367 118.973 12.4045C119.056 12.3009 119.139 12.2181 119.243 12.1145C119.554 11.783 119.885 11.4515 120.196 11.1408C120.321 11.0165 120.466 10.8715 120.59 10.7472C121.171 10.1879 121.751 9.62851 122.332 9.1106L112.774 3.55859C112.172 4.0765 111.592 4.63585 111.032 5.19519C110.991 5.23663 110.929 5.29878 110.866 5.34021C110.597 5.60952 110.348 5.87883 110.078 6.14815C109.933 6.29316 109.809 6.43817 109.664 6.56247C109.208 7.03895 108.772 7.53614 108.337 8.03334L108.316 8.05406C107.839 8.6134 107.362 9.17274 106.906 9.7528L116.485 15.3048Z" fill="white"/>
<path opacity="0.2" d="M105.849 37.6602L96.3113 32.1289L89.5938 38.0331L99.1311 43.5851L105.849 37.6602Z" fill="white"/>
<path opacity="0.2" d="M110.471 14.7473L100.913 9.19531L95.2109 19.077L104.748 24.6291L110.471 14.7473Z" fill="white"/>
<path d="M150.656 25.2292L157.373 19.3043L157.352 10.0027L150.635 11.8464C150.075 9.77477 149.246 7.99316 148.167 6.52229L148.748 5.00999L151.651 -2.40649L145.908 -5.67969L139.895 1.81965C139.812 1.81965 139.729 1.81966 139.646 1.79895C139.439 1.77823 139.211 1.77823 139.003 1.77823C138.734 1.77823 138.464 1.75751 138.174 1.77823C138.112 1.77823 138.029 1.77823 137.967 1.79895C136.702 1.84038 135.396 2.04754 134.007 2.42043L132.742 -2.30291L132.224 -4.27097L124.117 0.410934L122.375 9.15327C121.774 9.67119 121.193 10.2305 120.634 10.7899C120.509 10.9142 120.364 11.0592 120.24 11.1835C119.908 11.515 119.597 11.8257 119.286 12.1572C119.203 12.2607 119.12 12.3436 119.016 12.4472C118.166 13.3794 117.316 14.3324 116.528 15.3475L110.516 14.7881L104.814 24.6699L108.339 29.559C107.737 31.0713 107.24 32.5836 106.804 34.0959C106.721 34.3652 106.659 34.6552 106.576 34.9245C106.431 35.4839 106.286 36.0225 106.162 36.5818C106.079 36.9547 105.975 37.3276 105.913 37.7212L99.1953 43.6254L99.2161 52.9271L101.372 52.3471L105.934 51.1041C106.473 53.1757 107.323 54.9573 108.401 56.4282L104.918 65.357L110.661 68.6302L115.761 62.2702L116.653 61.1516C118.477 61.338 120.447 61.1515 122.541 60.5508L124.345 67.2422L132.452 62.5602L134.193 53.8179C136.267 51.9949 138.257 49.9025 140.061 47.6444L146.094 48.1831L151.796 38.3013L148.271 33.4122C149.287 30.6777 150.116 27.9224 150.656 25.2292ZM139.273 26.638C139.252 26.9073 139.211 27.1766 139.169 27.4459C139.128 27.7359 139.066 28.026 139.024 28.3367C138.983 28.5439 138.941 28.751 138.9 28.9375C138.858 29.1239 138.817 29.3104 138.755 29.4968C138.692 29.7661 138.63 30.0147 138.547 30.284C138.506 30.4291 138.464 30.5948 138.402 30.7398C138.298 31.0298 138.215 31.3406 138.112 31.6306C138.07 31.7549 138.029 31.8792 137.987 32.0035C137.842 32.4178 137.676 32.8115 137.49 33.2258C137.469 33.2672 137.448 33.3294 137.428 33.3708C137.262 33.723 137.096 34.0959 136.93 34.448C136.868 34.5516 136.826 34.6759 136.764 34.7795C136.598 35.111 136.412 35.4424 136.225 35.7739C136.184 35.8361 136.142 35.8982 136.121 35.9811C135.893 36.3747 135.665 36.7476 135.416 37.1205C135.354 37.224 135.271 37.3276 135.209 37.4312C135.023 37.7005 134.836 37.9698 134.649 38.2184C134.546 38.3634 134.442 38.5085 134.338 38.6328C134.172 38.8607 134.007 39.0678 133.841 39.275C133.696 39.4614 133.55 39.6272 133.405 39.7929C133.26 39.9586 133.115 40.1244 132.97 40.2694C132.721 40.5387 132.493 40.808 132.224 41.0566C132.058 41.2223 131.913 41.3673 131.747 41.5331C131.622 41.6574 131.498 41.761 131.373 41.8853C131.27 41.9681 131.187 42.051 131.083 42.1339C130.731 42.4446 130.358 42.7553 129.984 43.0247C129.881 43.1075 129.756 43.1904 129.653 43.2733C129.549 43.3561 129.425 43.439 129.321 43.5219C128.968 43.7705 128.616 43.9776 128.263 44.1848C127.828 44.4334 127.413 44.6405 126.999 44.827C126.812 44.9098 126.626 44.972 126.46 45.0549C126.19 45.1584 125.941 45.2413 125.672 45.3242C125.506 45.3656 125.34 45.4278 125.195 45.4692C125.05 45.5106 124.884 45.5313 124.739 45.5728C124.552 45.6142 124.345 45.6349 124.158 45.6556C124.055 45.6764 123.93 45.6764 123.827 45.6971C123.598 45.7178 123.37 45.7178 123.142 45.7178C123.08 45.7178 123.018 45.7178 122.956 45.7178C122.665 45.6971 122.396 45.6764 122.147 45.6142C122.085 45.5935 122.023 45.5935 121.961 45.5728C121.753 45.5313 121.546 45.4692 121.359 45.407C121.297 45.3863 121.235 45.3656 121.152 45.3449C120.903 45.2413 120.675 45.1377 120.447 45.0134C118.747 44.0398 117.586 42.1131 117.254 39.42C117.192 38.9228 117.15 38.4256 117.15 37.887C117.13 30.8434 122.106 22.2668 128.222 18.7243C128.74 18.4342 129.217 18.2064 129.715 17.9992C132.389 16.8805 134.753 17.0048 136.474 18.2064C136.578 18.2892 136.702 18.3514 136.806 18.4342C136.93 18.5378 137.034 18.6414 137.158 18.7657C137.262 18.8693 137.365 18.9521 137.448 19.0557C137.552 19.18 137.656 19.325 137.759 19.4493C137.842 19.5529 137.925 19.6565 138.008 19.7808C138.112 19.9258 138.195 20.0916 138.278 20.2573C138.34 20.3816 138.423 20.5059 138.485 20.6302C138.568 20.7959 138.63 21.0031 138.692 21.1895C138.734 21.3346 138.796 21.4588 138.858 21.6039C138.92 21.811 138.962 22.0182 139.024 22.2461C139.066 22.3911 139.107 22.5154 139.128 22.6811C139.169 22.9297 139.211 23.199 139.252 23.4476C139.273 23.5719 139.294 23.6962 139.314 23.8412C139.356 24.2556 139.377 24.6699 139.377 25.1049C139.356 25.5607 139.335 26.0993 139.273 26.638Z" fill="white"/>
<path fill-rule="evenodd" clip-rule="evenodd" d="M505.903 378.719L491.88 418.807C499.611 396.652 510.757 382.251 505.903 378.719ZM491.88 418.807L477.828 458.895C481.363 457.817 484.12 440.931 491.88 418.807ZM505.903 378.719L491.88 418.807C499.611 396.652 510.757 382.251 505.903 378.719ZM491.88 418.807L477.828 458.895C481.363 457.817 484.12 440.931 491.88 418.807ZM532.361 453.536L545.994 461.26L560.706 421.142L544.945 418.507C545.215 417.01 545.515 415.543 545.694 414.046C546.833 407.16 547.223 400.454 547.013 394.047L563.493 383.718L555.972 348.391L540.181 363.48C537.994 358.959 535.267 355.007 532.091 351.714C531.222 350.756 530.293 349.858 529.364 349.049L539.013 326.775L513.304 318.422L507.132 340.876C501.379 340.906 495.536 342.343 489.723 344.948L486.877 323.721L458.591 345.127L465.123 363.929C460.03 369.737 455.355 376.473 451.31 384.018L437.677 376.323L422.965 416.441L438.726 419.076C437.048 427.549 436.389 435.752 436.628 443.506L420.148 453.835L427.669 489.163L443.46 474.074C446.276 479.852 449.902 484.732 454.277 488.474L444.599 510.779L469.887 520.628L473.813 506.407L476.479 496.677C482.232 496.647 488.105 495.24 493.918 492.636L496.705 513.862L524.99 492.456L518.458 473.654C522.473 469.074 526.218 463.954 529.604 458.266C530.623 456.709 531.492 455.152 532.361 453.536ZM491.88 418.807C484.12 440.961 491.88 463.805 477.828 458.895C463.745 453.955 458.591 432.01 466.382 409.915C474.172 387.76 491.85 373.839 505.903 378.748C519.986 383.629 499.611 396.652 491.88 418.807ZM505.903 378.719L491.88 418.807C499.611 396.652 510.757 382.251 505.903 378.719ZM491.88 418.807L477.828 458.895C481.363 457.817 484.12 440.931 491.88 418.807Z" fill="url(#paint0_linear_56_307)"/>
<path fill-rule="evenodd" clip-rule="evenodd" d="M545.99 461.258L560.702 421.14L545.691 414.045L543.264 412.907L544.852 390.812L561.511 382.699L556.028 348.389L519.773 336.593L526.455 352.521L539.099 326.773L513.39 318.42L502.843 314.978L477.495 305.098L472.76 322.372L450.707 311.894L422.422 333.3L431.022 356.443L404.564 429.733L391.5 477.336L416.639 480.09L408.459 498.951L433.808 508.831L470.064 520.627L464.251 508.981L460.595 502.005L473.989 506.376L496.881 513.831L525.166 492.425L507.668 471.827L529.78 458.235L545.99 461.258ZM466.378 409.883C474.169 387.729 491.847 373.807 505.9 378.717L491.877 418.805L477.824 458.893C463.741 453.923 458.588 432.008 466.378 409.883Z" fill="url(#paint1_linear_56_307)"/>
<path fill-rule="evenodd" clip-rule="evenodd" d="M509.739 449.431L524.421 409.313L508.66 406.679C510.308 398.236 510.997 390.033 510.757 382.279L527.237 371.95L519.716 336.622L503.926 351.711C501.109 345.933 497.484 341.053 493.109 337.31L502.787 315.006L477.468 305.156L470.906 329.107C465.153 329.137 459.281 330.544 453.498 333.179L450.681 311.982L422.396 333.359L428.898 352.16C423.804 357.968 419.16 364.734 415.085 372.279L401.452 364.585L386.77 404.703L402.53 407.337C400.882 415.78 400.193 423.983 400.433 431.737L383.953 442.066L391.474 477.394L407.264 462.305C410.081 468.083 413.706 472.963 418.081 476.705L408.403 499.01L433.722 508.86L440.284 484.909C446.037 484.879 451.91 483.472 457.693 480.837L460.509 502.034L488.794 480.657L482.292 461.856C487.386 456.048 492.03 449.282 496.105 441.737L509.739 449.431ZM441.542 447.066C427.46 442.126 422.336 420.211 430.096 398.056C437.857 375.932 455.565 361.98 469.648 366.89C483.731 371.83 488.854 393.745 481.094 415.9C473.333 438.025 455.625 451.976 441.542 447.066Z" fill="url(#paint2_linear_56_307)"/>
<path opacity="0.5" fill-rule="evenodd" clip-rule="evenodd" d="M563.493 383.711L527.238 371.945L510.758 382.274L547.013 394.07L563.493 383.711Z" fill="#601734"/>
<path fill-rule="evenodd" clip-rule="evenodd" d="M525.08 492.459L488.795 480.664L482.293 461.832L518.548 473.658L525.08 492.459Z" fill="#B3D9FF"/>
<path opacity="0.5" fill-rule="evenodd" clip-rule="evenodd" d="M493.109 337.285L513.005 343.033L519.717 336.596L532.93 340.907L539.043 326.806L502.787 314.98L493.109 337.285Z" fill="#601734"/>
<path opacity="0.5" fill-rule="evenodd" clip-rule="evenodd" d="M443.219 376.262L475.189 393.147C475.189 393.147 479.834 386.95 483.4 384.435C483.43 384.435 475.07 349.197 443.219 376.262Z" fill="#601734"/>
<path d="M358.47 46L362.99 60.28L358.26 61.59L354 48.46L358.47 46Z" fill="#FF1D9C"/>
<path d="M51.0414 192.531C50.0314 194.931 47.2714 196.051 44.8814 195.041C42.4814 194.031 41.3614 191.271 42.3714 188.881C43.3814 186.481 46.1414 185.361 48.5314 186.371C50.9214 187.371 52.0514 190.131 51.0414 192.531Z" fill="url(#paint3_linear_56_307)"/>
<path d="M467.001 114.758L482.345 108.912L483.581 114.547L470.957 117.809L467.001 114.758Z" fill="#9A7DF8"/>
<path d="M261.086 166.49L277.49 170.386L275.484 175.658L260.058 169.57L261.086 166.49Z" fill="#6877FF"/>
<path d="M179.138 425.708C178.568 427.068 176.998 427.708 175.638 427.138C174.278 426.568 173.638 424.998 174.208 423.638C174.778 422.278 176.348 421.638 177.708 422.208C179.068 422.778 179.708 424.348 179.138 425.708Z" fill="url(#paint4_linear_56_307)"/>
</g>
<path d="M35 14H496V6H35V14ZM517 35V451H525V35H517ZM496 472H35V480H496V472ZM14 451V35H6V451H14ZM35 472C23.402 472 14 462.598 14 451H6C6 467.016 18.9837 480 35 480V472ZM517 451C517 462.598 507.598 472 496 472V480C512.016 480 525 467.016 525 451H517ZM496 14C507.598 14 517 23.402 517 35H525C525 18.9837 512.016 6 496 6V14ZM35 6C18.9837 6 6 18.9837 6 35H14C14 23.402 23.402 14 35 14V6Z" fill="url(#paint5_linear_56_307)"/>
</g>
<defs>
<filter id="filter0_d_56_307" x="0" y="0" width="541" height="496" filterUnits="userSpaceOnUse" color-interpolation-filters="sRGB">
<feFlood flood-opacity="0" result="BackgroundImageFix"/>
<feColorMatrix in="SourceAlpha" type="matrix" values="0 0 0 0 0 0 0 0 0 0 0 0 0 0 0 0 0 0 127 0" result="hardAlpha"/>
<feOffset dx="5" dy="5"/>
<feGaussianBlur stdDeviation="7.5"/>
<feComposite in2="hardAlpha" operator="out"/>
<feColorMatrix type="matrix" values="0 0 0 0 1 0 0 0 0 1 0 0 0 0 1 0 0 0 0.1 0"/>
<feBlend mode="normal" in2="BackgroundImageFix" result="effect1_dropShadow_56_307"/>
<feBlend mode="normal" in="SourceGraphic" in2="effect1_dropShadow_56_307" result="shape"/>
</filter>
<linearGradient id="paint0_linear_56_307" x1="476.618" y1="521.636" x2="506.832" y2="317.469" gradientUnits="userSpaceOnUse">
<stop stop-color="#1852A0"/>
<stop offset="1" stop-color="#067ED3"/>
</linearGradient>
<linearGradient id="paint1_linear_56_307" x1="454.038" y1="516.365" x2="508.615" y2="313.507" gradientUnits="userSpaceOnUse">
<stop stop-color="#1852A0"/>
<stop offset="1" stop-color="#067ED3"/>
</linearGradient>
<linearGradient id="paint2_linear_56_307" x1="428.372" y1="507.997" x2="460.587" y2="302.478" gradientUnits="userSpaceOnUse">
<stop stop-color="#188DC1"/>
<stop offset="1" stop-color="#06BFE7"/>
</linearGradient>
<linearGradient id="paint3_linear_56_307" x1="44.8817" y1="195.04" x2="48.5306" y2="186.367" gradientUnits="userSpaceOnUse">
<stop stop-color="#459FFF"/>
<stop offset="1" stop-color="#A96DFF"/>
</linearGradient>
<linearGradient id="paint4_linear_56_307" x1="175.638" y1="427.132" x2="177.711" y2="422.205" gradientUnits="userSpaceOnUse">
<stop stop-color="#B31A8F"/>
<stop offset="1" stop-color="#FE117E"/>
</linearGradient>
<linearGradient id="paint5_linear_56_307" x1="265.5" y1="10" x2="265.5" y2="476" gradientUnits="userSpaceOnUse">
<stop stop-color="#6F67F0"/>
<stop offset="1" stop-color="#59068C"/>
</linearGradient>
<clipPath id="clip0_56_307">
<path d="M10 35C10 21.1929 21.1929 10 35 10H496C509.807 10 521 21.1929 521 35V451C521 464.807 509.807 476 496 476H35C21.1929 476 10 464.807 10 451V35Z" fill="white"/>
</clipPath>
</defs>
</svg>
