<svg width="224" height="320" viewBox="0 0 224 320" fill="none" xmlns="http://www.w3.org/2000/svg">
<path opacity="0.73" d="M317.438 194.653L133.951 300.589C119.187 309.113 100.316 304.398 91.302 289.916L17.5445 171.554C8.08506 156.369 13.076 136.378 28.5612 127.437L219.834 17.0062C235.29 8.08249 255.065 13.6981 263.498 29.4375L329.499 152.278C337.595 167.366 332.26 186.095 317.438 194.653Z" fill="url(#paint0_linear_18_1507)"/>
<path d="M317.874 195.402L134.388 301.338C119.133 310.146 99.8989 305.333 90.5727 290.378L16.8151 172.016C12.1104 164.467 10.712 155.585 12.8791 146.952C15.0173 138.335 20.4616 131.116 28.161 126.671L219.433 16.2398C227.104 11.8112 236.032 10.6936 244.547 13.1213C253.062 15.5491 260.083 21.1843 264.281 28.988L330.281 151.828C338.648 167.453 333.187 186.562 317.874 195.402ZM28.9856 128.233C21.69 132.445 16.5783 139.241 14.5331 147.419C12.488 155.598 13.8142 164.021 18.2692 171.138L92.0267 289.5C100.858 303.664 119.063 308.225 133.51 299.884L317.025 193.932C331.501 185.574 336.666 167.482 328.724 152.727L262.724 29.8871C258.759 22.4871 252.115 17.1722 244.055 14.8664C235.966 12.5771 227.525 13.606 220.258 17.8014L28.9856 128.233Z" fill="#953DA2"/>
<path d="M217.231 44.4594L49.1719 141.488L106.81 241.32L274.869 144.291L217.231 44.4594Z" fill="#D1D4FB"/>
<path d="M132.625 126.336L161.644 176.598L188.777 124.368L132.625 126.336Z" fill="white"/>
<path d="M285.477 162.663L117.418 259.691L122.696 268.833L290.755 171.804L285.477 162.663Z" fill="#D1D4FB"/>
<path d="M160.932 234.568L117.418 259.691L122.696 268.833L166.21 243.71L160.932 234.568Z" fill="white"/>
<defs>
<linearGradient id="paint0_linear_18_1507" x1="225.506" y1="247.74" x2="124.194" y2="72.2624" gradientUnits="userSpaceOnUse">
<stop stop-color="#D906E3"/>
<stop offset="1" stop-color="#FF6DF9"/>
</linearGradient>
</defs>
</svg>
